<?xml version="1.0" encoding="us-ascii" standalone="no"?><svg xmlns="http://www.w3.org/2000/svg" xmlns:xlink="http://www.w3.org/1999/xlink" contentStyleType="text/css" height="758px" preserveAspectRatio="none" style="width:1023px;height:758px;background:#FFFFFF;" version="1.1" viewBox="0 0 1023 758" width="1023px" zoomAndPan="magnify"><defs/><g><rect fill="#ADD8E6" height="746.9844" style="stroke:#181818;stroke-width:0.5;" width="150" x="369" y="6"/><text fill="#000000" font-family="sans-serif" font-size="13" font-weight="bold" lengthAdjust="spacing" textLength="144" x="372" y="18.0669">User's Smartphone</text><rect fill="#ADD8E6" height="746.9844" style="stroke:#181818;stroke-width:0.5;" width="173" x="732.5" y="6"/><text fill="#000000" font-family="sans-serif" font-size="13" font-weight="bold" lengthAdjust="spacing" textLength="167" x="735.5" y="18.0669">Verifier's Smartphone</text><line style="stroke:#181818;stroke-width:0.5;stroke-dasharray:5.0,5.0;" x1="36" x2="36" y1="81.2969" y2="673.6875"/><line style="stroke:#181818;stroke-width:0.5;stroke-dasharray:5.0,5.0;" x1="443.5" x2="443.5" y1="81.2969" y2="673.6875"/><line style="stroke:#181818;stroke-width:0.5;stroke-dasharray:5.0,5.0;" x1="819" x2="819" y1="81.2969" y2="673.6875"/><text fill="#000000" font-family="sans-serif" font-size="14" lengthAdjust="spacing" textLength="31" x="18" y="77.9951">User</text><ellipse cx="36.5" cy="13.5" fill="#E2E2F0" rx="8" ry="8" style="stroke:#181818;stroke-width:0.5;"/><path d="M36.5,21.5 L36.5,48.5 M23.5,29.5 L49.5,29.5 M36.5,48.5 L23.5,63.5 M36.5,48.5 L49.5,63.5 " fill="none" style="stroke:#181818;stroke-width:0.5;"/><text fill="#000000" font-family="sans-serif" font-size="14" lengthAdjust="spacing" textLength="31" x="18" y="685.6826">User</text><ellipse cx="36.5" cy="697.4844" fill="#E2E2F0" rx="8" ry="8" style="stroke:#181818;stroke-width:0.5;"/><path d="M36.5,705.4844 L36.5,732.4844 M23.5,713.4844 L49.5,713.4844 M36.5,732.4844 L23.5,747.4844 M36.5,732.4844 L49.5,747.4844 " fill="none" style="stroke:#181818;stroke-width:0.5;"/><rect fill="#E2E2F0" height="30.2969" rx="2.5" ry="2.5" style="stroke:#181818;stroke-width:0.5;" width="125" x="381.5" y="50"/><text fill="#000000" font-family="sans-serif" font-size="14" lengthAdjust="spacing" textLength="111" x="388.5" y="69.9951">Wallet Instance</text><rect fill="#E2E2F0" height="30.2969" rx="2.5" ry="2.5" style="stroke:#181818;stroke-width:0.5;" width="125" x="381.5" y="672.6875"/><text fill="#000000" font-family="sans-serif" font-size="14" lengthAdjust="spacing" textLength="111" x="388.5" y="692.6826">Wallet Instance</text><rect fill="#E2E2F0" height="30.2969" rx="2.5" ry="2.5" style="stroke:#181818;stroke-width:0.5;" width="102" x="768" y="50"/><text fill="#000000" font-family="sans-serif" font-size="14" lengthAdjust="spacing" textLength="88" x="775" y="69.9951">Verifier App</text><rect fill="#E2E2F0" height="30.2969" rx="2.5" ry="2.5" style="stroke:#181818;stroke-width:0.5;" width="102" x="768" y="672.6875"/><text fill="#000000" font-family="sans-serif" font-size="14" lengthAdjust="spacing" textLength="88" x="775" y="692.6826">Verifier App</text><line style="stroke:#181818;stroke-width:1.0;" x1="442" x2="432" y1="112.4297" y2="108.4297"/><line style="stroke:#181818;stroke-width:1.0;" x1="442" x2="432" y1="112.4297" y2="116.4297"/><line style="stroke:#181818;stroke-width:1.0;stroke-dasharray:2.0,2.0;" x1="36.5" x2="443" y1="112.4297" y2="112.4297"/><text fill="#000000" font-family="sans-serif" font-size="13" font-weight="bold" lengthAdjust="spacing" textLength="9" x="43.5" y="107.3638">1</text><text fill="#000000" font-family="sans-serif" font-size="13" lengthAdjust="spacing" textLength="362" x="56.5" y="107.3638">Open the Wallet Instance to present an mDoc Credential</text><path d="M5,125.4297 L5,150.4297 L852,150.4297 L852,135.4297 L842,125.4297 L5,125.4297 " fill="#FEFFDD" style="stroke:#181818;stroke-width:0.5;"/><path d="M842,125.4297 L842,135.4297 L852,135.4297 L842,125.4297 " fill="#FEFFDD" style="stroke:#181818;stroke-width:0.5;"/><text fill="#000000" font-family="sans-serif" font-size="13" lengthAdjust="spacing" textLength="262" x="293" y="142.4966">Device Engagement subphase -over QR-</text><line style="stroke:#181818;stroke-width:1.0;" x1="444" x2="486" y1="176.6953" y2="176.6953"/><line style="stroke:#181818;stroke-width:1.0;" x1="486" x2="486" y1="176.6953" y2="189.6953"/><line style="stroke:#181818;stroke-width:1.0;" x1="445" x2="486" y1="189.6953" y2="189.6953"/><line style="stroke:#181818;stroke-width:1.0;" x1="445" x2="455" y1="189.6953" y2="185.6953"/><line style="stroke:#181818;stroke-width:1.0;" x1="445" x2="455" y1="189.6953" y2="193.6953"/><text fill="#000000" font-family="sans-serif" font-size="13" font-weight="bold" lengthAdjust="spacing" textLength="9" x="451" y="171.6294">2</text><text fill="#000000" font-family="sans-serif" font-size="13" lengthAdjust="spacing" textLength="219" x="464" y="171.6294">Generate new ephemeral key pair</text><line style="stroke:#181818;stroke-width:1.0;" x1="817" x2="807" y1="218.8281" y2="214.8281"/><line style="stroke:#181818;stroke-width:1.0;" x1="817" x2="807" y1="218.8281" y2="222.8281"/><line style="stroke:#181818;stroke-width:1.0;stroke-dasharray:2.0,2.0;" x1="444" x2="818" y1="218.8281" y2="218.8281"/><text fill="#000000" font-family="sans-serif" font-size="13" font-weight="bold" lengthAdjust="spacing" textLength="8" x="451" y="213.7622">3</text><text fill="#000000" font-family="sans-serif" font-size="13" lengthAdjust="spacing" textLength="276" x="463" y="213.7622">Show the QR Code for Device Engagement</text><line style="stroke:#181818;stroke-width:1.0;" x1="445" x2="455" y1="247.9609" y2="243.9609"/><line style="stroke:#181818;stroke-width:1.0;" x1="445" x2="455" y1="247.9609" y2="251.9609"/><line style="stroke:#181818;stroke-width:1.0;stroke-dasharray:2.0,2.0;" x1="444" x2="818" y1="247.9609" y2="247.9609"/><text fill="#000000" font-family="sans-serif" font-size="13" font-weight="bold" lengthAdjust="spacing" textLength="9" x="461" y="242.895">4</text><text fill="#000000" font-family="sans-serif" font-size="13" lengthAdjust="spacing" textLength="116" x="474" y="242.895">Scan the QR Code</text><line style="stroke:#181818;stroke-width:1.0;" x1="819" x2="861" y1="292.2266" y2="292.2266"/><line style="stroke:#181818;stroke-width:1.0;" x1="861" x2="861" y1="292.2266" y2="305.2266"/><line style="stroke:#181818;stroke-width:1.0;" x1="820" x2="861" y1="305.2266" y2="305.2266"/><line style="stroke:#181818;stroke-width:1.0;" x1="820" x2="830" y1="305.2266" y2="301.2266"/><line style="stroke:#181818;stroke-width:1.0;" x1="820" x2="830" y1="305.2266" y2="309.2266"/><text fill="#000000" font-family="sans-serif" font-size="13" font-weight="bold" lengthAdjust="spacing" textLength="9" x="826" y="279.5942">5</text><text fill="#000000" font-family="sans-serif" font-size="13" lengthAdjust="spacing" textLength="91" x="839" y="272.0278">Generate new</text><text fill="#000000" font-family="sans-serif" font-size="13" lengthAdjust="spacing" textLength="124" x="839" y="287.1606">ephemeral key pair</text><line style="stroke:#181818;stroke-width:1.0;" x1="819" x2="861" y1="334.3594" y2="334.3594"/><line style="stroke:#181818;stroke-width:1.0;" x1="861" x2="861" y1="334.3594" y2="347.3594"/><line style="stroke:#181818;stroke-width:1.0;" x1="820" x2="861" y1="347.3594" y2="347.3594"/><line style="stroke:#181818;stroke-width:1.0;" x1="820" x2="830" y1="347.3594" y2="343.3594"/><line style="stroke:#181818;stroke-width:1.0;" x1="820" x2="830" y1="347.3594" y2="351.3594"/><text fill="#000000" font-family="sans-serif" font-size="13" font-weight="bold" lengthAdjust="spacing" textLength="9" x="826" y="329.2935">6</text><text fill="#000000" font-family="sans-serif" font-size="13" lengthAdjust="spacing" textLength="138" x="839" y="329.2935">Compute session key</text><path d="M5,360.3594 L5,385.3594 L852,385.3594 L852,370.3594 L842,360.3594 L5,360.3594 " fill="#FEFFDD" style="stroke:#181818;stroke-width:0.5;"/><path d="M842,360.3594 L842,370.3594 L852,370.3594 L842,360.3594 " fill="#FEFFDD" style="stroke:#181818;stroke-width:0.5;"/><text fill="#000000" font-family="sans-serif" font-size="13" lengthAdjust="spacing" textLength="514" x="167" y="377.4263">Session establishment and Communication subphase -over BLE secure channel-</text><line style="stroke:#181818;stroke-width:1.0;" x1="445" x2="455" y1="426.7578" y2="422.7578"/><line style="stroke:#181818;stroke-width:1.0;" x1="445" x2="455" y1="426.7578" y2="430.7578"/><line style="stroke:#181818;stroke-width:1.0;" x1="444" x2="818" y1="426.7578" y2="426.7578"/><text fill="#000000" font-family="sans-serif" font-size="13" font-weight="bold" lengthAdjust="spacing" textLength="9" x="461" y="414.1255">7</text><text fill="#000000" font-family="sans-serif" font-size="13" lengthAdjust="spacing" textLength="298" x="474" y="406.5591">mDoc Request + public key of the Verifier App</text><text fill="#000000" font-family="sans-serif" font-size="13" lengthAdjust="spacing" textLength="154" x="478" y="421.6919">(Session establishment)</text><line style="stroke:#181818;stroke-width:1.0;" x1="444" x2="486" y1="455.8906" y2="455.8906"/><line style="stroke:#181818;stroke-width:1.0;" x1="486" x2="486" y1="455.8906" y2="468.8906"/><line style="stroke:#181818;stroke-width:1.0;" x1="445" x2="486" y1="468.8906" y2="468.8906"/><line style="stroke:#181818;stroke-width:1.0;" x1="445" x2="455" y1="468.8906" y2="464.8906"/><line style="stroke:#181818;stroke-width:1.0;" x1="445" x2="455" y1="468.8906" y2="472.8906"/><text fill="#000000" font-family="sans-serif" font-size="13" font-weight="bold" lengthAdjust="spacing" textLength="9" x="451" y="450.8247">8</text><text fill="#000000" font-family="sans-serif" font-size="13" lengthAdjust="spacing" textLength="138" x="464" y="450.8247">Compute session key</text><line style="stroke:#181818;stroke-width:1.0;" x1="37.5" x2="47.5" y1="498.0234" y2="494.0234"/><line style="stroke:#181818;stroke-width:1.0;" x1="37.5" x2="47.5" y1="498.0234" y2="502.0234"/><line style="stroke:#181818;stroke-width:1.0;" x1="36.5" x2="443" y1="498.0234" y2="498.0234"/><text fill="#000000" font-family="sans-serif" font-size="13" font-weight="bold" lengthAdjust="spacing" textLength="9" x="53.5" y="492.9575">9</text><text fill="#000000" font-family="sans-serif" font-size="13" lengthAdjust="spacing" textLength="353" x="66.5" y="492.9575">Prompt for consent to share the requested information</text><line style="stroke:#181818;stroke-width:1.0;" x1="442" x2="432" y1="527.1563" y2="523.1563"/><line style="stroke:#181818;stroke-width:1.0;" x1="442" x2="432" y1="527.1563" y2="531.1563"/><line style="stroke:#181818;stroke-width:1.0;" x1="36.5" x2="443" y1="527.1563" y2="527.1563"/><text fill="#000000" font-family="sans-serif" font-size="13" font-weight="bold" lengthAdjust="spacing" textLength="19" x="43.5" y="522.0903">10</text><text fill="#000000" font-family="sans-serif" font-size="13" lengthAdjust="spacing" textLength="91" x="66.5" y="522.0903">Grant consent</text><line style="stroke:#181818;stroke-width:1.0;" x1="444" x2="486" y1="556.2891" y2="556.2891"/><line style="stroke:#181818;stroke-width:1.0;" x1="486" x2="486" y1="556.2891" y2="569.2891"/><line style="stroke:#181818;stroke-width:1.0;" x1="445" x2="486" y1="569.2891" y2="569.2891"/><line style="stroke:#181818;stroke-width:1.0;" x1="445" x2="455" y1="569.2891" y2="565.2891"/><line style="stroke:#181818;stroke-width:1.0;" x1="445" x2="455" y1="569.2891" y2="573.2891"/><text fill="#000000" font-family="sans-serif" font-size="13" font-weight="bold" lengthAdjust="spacing" textLength="18" x="451" y="551.2231">11</text><text fill="#000000" font-family="sans-serif" font-size="13" lengthAdjust="spacing" textLength="217" x="473" y="551.2231">Retrieve mDoc from local storage</text><line style="stroke:#181818;stroke-width:1.0;" x1="817" x2="807" y1="598.4219" y2="594.4219"/><line style="stroke:#181818;stroke-width:1.0;" x1="817" x2="807" y1="598.4219" y2="602.4219"/><line style="stroke:#181818;stroke-width:1.0;" x1="444" x2="818" y1="598.4219" y2="598.4219"/><text fill="#000000" font-family="sans-serif" font-size="13" font-weight="bold" lengthAdjust="spacing" textLength="18" x="451" y="593.356">12</text><text fill="#000000" font-family="sans-serif" font-size="13" lengthAdjust="spacing" textLength="105" x="473" y="593.356">mDoc Response</text><line style="stroke:#181818;stroke-width:1.0;" x1="819" x2="861" y1="642.6875" y2="642.6875"/><line style="stroke:#181818;stroke-width:1.0;" x1="861" x2="861" y1="642.6875" y2="655.6875"/><line style="stroke:#181818;stroke-width:1.0;" x1="820" x2="861" y1="655.6875" y2="655.6875"/><line style="stroke:#181818;stroke-width:1.0;" x1="820" x2="830" y1="655.6875" y2="651.6875"/><line style="stroke:#181818;stroke-width:1.0;" x1="820" x2="830" y1="655.6875" y2="659.6875"/><text fill="#000000" font-family="sans-serif" font-size="13" font-weight="bold" lengthAdjust="spacing" textLength="17" x="826" y="630.0552">13</text><text fill="#000000" font-family="sans-serif" font-size="13" lengthAdjust="spacing" textLength="169" x="847" y="622.4888">Verify Response signature</text><text fill="#000000" font-family="sans-serif" font-size="13" lengthAdjust="spacing" textLength="157" x="847" y="637.6216">and check mDoc validity</text><!--SRC=[bLFDRXCn4BxdAKRX00Zs1NAeHDCA8LL04m6NN2RUIMnrTspyio5lptXs2TlI7jYRFT_FV3DUBDbpwVSK5mkG3qts4RubYe09Yjxj_IzOrglN2ROznXoiPrh2gpjtjFcwAwIm81LdN43EiFo1NKSPFd7Ao4R0edPI675R5VygVwVe3kw_rFzGu4C8AZqyajP3QPghgzCAlWHYo9RWIKkGFOH8YKGG6VeRRs0TgPMpmsxK-EmpWH_4gBmVLd13WnFYBH_nI7qbfh8F5XD1ewZxJRC0PPv6yu_45554c4v0mGehOWSFT9P0BavGmOhwrlgJDdg_WRLl2GwoYNyibJ9CsRO6UKwPYYhto7h7BvXFuBNlGn5iefISvuhHydDJs4uOaZdkEvTiFuwmhIfzOMSmr_gJsLpVtOgyAP70M6Ichb5rjRdq8g5q4nlwMSG0ta4eOcAqQt_GiFFjxnZUFDlGs_aQNefNosK5NwFKiyxRUDON8OyZMPHUgs4Scw4M70kertpJ8nlN7EkpdBXpumtbw6YWCTH1VA3pHfQGv3UJZLwmmoLt2bLclXpDUxwK8BaZOvP1xhXEtLWo3oDxmCwrBfz_0m00]--></g></svg>