<?xml version="1.0" encoding="us-ascii" standalone="no"?><svg xmlns="http://www.w3.org/2000/svg" xmlns:xlink="http://www.w3.org/1999/xlink" contentStyleType="text/css" height="966px" preserveAspectRatio="none" style="width:854px;height:966px;background:#FFFFFF;" version="1.1" viewBox="0 0 854 966" width="854px" zoomAndPan="magnify"><defs/><g><rect fill="#ADD8E6" height="954.3125" style="stroke:#181818;stroke-width:0.5;" width="384" x="75.5" y="6"/><text fill="#000000" font-family="sans-serif" font-size="13" font-weight="bold" lengthAdjust="spacing" textLength="100" x="217.5" y="18.0669">Relying Party</text><rect fill="#FFFFFF" height="777.3203" style="stroke:#181818;stroke-width:1.0;" width="10" x="22.5" y="130.6953"/><rect fill="#FFFFFF" height="748.1875" style="stroke:#181818;stroke-width:1.0;" width="10" x="148.5" y="159.8281"/><rect fill="#FFFFFF" height="29.1328" style="stroke:#181818;stroke-width:1.0;" width="10" x="378.5" y="188.9609"/><rect fill="#FFFFFF" height="29.1328" style="stroke:#181818;stroke-width:1.0;" width="10" x="378.5" y="433.0234"/><rect fill="#FFFFFF" height="77.2656" style="stroke:#181818;stroke-width:1.0;" width="10" x="378.5" y="590.6875"/><rect fill="#FFFFFF" height="128.5313" style="stroke:#181818;stroke-width:1.0;" width="10" x="378.5" y="743.3516"/><rect fill="#FFFFFF" height="29.1328" style="stroke:#181818;stroke-width:1.0;" width="10" x="630.5" y="130.6953"/><rect fill="#FFFFFF" height="301.3281" style="stroke:#181818;stroke-width:1.0;" width="10" x="630.5" y="289.3594"/><rect fill="none" height="189.9297" style="stroke:#000000;stroke-width:1.5;" width="501" x="69.5" y="689.9531"/><line style="stroke:#181818;stroke-width:0.5;stroke-dasharray:5.0,5.0;" x1="27" x2="27" y1="56.4297" y2="926.0156"/><line style="stroke:#181818;stroke-width:0.5;stroke-dasharray:5.0,5.0;" x1="153.5" x2="153.5" y1="56.4297" y2="926.0156"/><line style="stroke:#181818;stroke-width:0.5;stroke-dasharray:5.0,5.0;" x1="383.5" x2="383.5" y1="56.4297" y2="926.0156"/><line style="stroke:#181818;stroke-width:0.5;stroke-dasharray:5.0,5.0;" x1="635" x2="635" y1="56.4297" y2="926.0156"/><rect fill="#E2E2F0" height="30.2969" rx="2.5" ry="2.5" style="stroke:#181818;stroke-width:0.5;" width="45" x="5" y="25.1328"/><text fill="#000000" font-family="sans-serif" font-size="14" lengthAdjust="spacing" textLength="31" x="12" y="45.1279">User</text><rect fill="#E2E2F0" height="30.2969" rx="2.5" ry="2.5" style="stroke:#181818;stroke-width:0.5;" width="45" x="5" y="925.0156"/><text fill="#000000" font-family="sans-serif" font-size="14" lengthAdjust="spacing" textLength="31" x="12" y="945.0107">User</text><rect fill="#E2E2F0" height="30.2969" rx="2.5" ry="2.5" style="stroke:#181818;stroke-width:0.5;" width="148" x="79.5" y="25.1328"/><text fill="#000000" font-family="sans-serif" font-size="14" lengthAdjust="spacing" textLength="134" x="86.5" y="45.1279">Verifier (FrontEnd)</text><rect fill="#E2E2F0" height="30.2969" rx="2.5" ry="2.5" style="stroke:#181818;stroke-width:0.5;" width="148" x="79.5" y="925.0156"/><text fill="#000000" font-family="sans-serif" font-size="14" lengthAdjust="spacing" textLength="134" x="86.5" y="945.0107">Verifier (FrontEnd)</text><rect fill="#E2E2F0" height="30.2969" rx="2.5" ry="2.5" style="stroke:#181818;stroke-width:0.5;" width="144" x="311.5" y="25.1328"/><text fill="#000000" font-family="sans-serif" font-size="14" lengthAdjust="spacing" textLength="130" x="318.5" y="45.1279">Verifier (BackEnd)</text><rect fill="#E2E2F0" height="30.2969" rx="2.5" ry="2.5" style="stroke:#181818;stroke-width:0.5;" width="144" x="311.5" y="925.0156"/><text fill="#000000" font-family="sans-serif" font-size="14" lengthAdjust="spacing" textLength="130" x="318.5" y="945.0107">Verifier (BackEnd)</text><rect fill="#E2E2F0" height="30.2969" rx="2.5" ry="2.5" style="stroke:#181818;stroke-width:0.5;" width="125" x="573" y="25.1328"/><text fill="#000000" font-family="sans-serif" font-size="14" lengthAdjust="spacing" textLength="111" x="580" y="45.1279">Wallet Instance</text><rect fill="#E2E2F0" height="30.2969" rx="2.5" ry="2.5" style="stroke:#181818;stroke-width:0.5;" width="125" x="573" y="925.0156"/><text fill="#000000" font-family="sans-serif" font-size="14" lengthAdjust="spacing" textLength="111" x="580" y="945.0107">Wallet Instance</text><rect fill="#FFFFFF" height="777.3203" style="stroke:#181818;stroke-width:1.0;" width="10" x="22.5" y="130.6953"/><rect fill="#FFFFFF" height="748.1875" style="stroke:#181818;stroke-width:1.0;" width="10" x="148.5" y="159.8281"/><rect fill="#FFFFFF" height="29.1328" style="stroke:#181818;stroke-width:1.0;" width="10" x="378.5" y="188.9609"/><rect fill="#FFFFFF" height="29.1328" style="stroke:#181818;stroke-width:1.0;" width="10" x="378.5" y="433.0234"/><rect fill="#FFFFFF" height="77.2656" style="stroke:#181818;stroke-width:1.0;" width="10" x="378.5" y="590.6875"/><rect fill="#FFFFFF" height="128.5313" style="stroke:#181818;stroke-width:1.0;" width="10" x="378.5" y="743.3516"/><rect fill="#FFFFFF" height="29.1328" style="stroke:#181818;stroke-width:1.0;" width="10" x="630.5" y="130.6953"/><rect fill="#FFFFFF" height="301.3281" style="stroke:#181818;stroke-width:1.0;" width="10" x="630.5" y="289.3594"/><rect fill="#EEEEEE" height="3" style="stroke:#EEEEEE;stroke-width:1.0;" width="847.5" x="0" y="86.9961"/><line style="stroke:#000000;stroke-width:1.0;" x1="0" x2="847.5" y1="86.9961" y2="86.9961"/><line style="stroke:#000000;stroke-width:1.0;" x1="0" x2="847.5" y1="89.9961" y2="89.9961"/><rect fill="#EEEEEE" height="23.1328" style="stroke:#000000;stroke-width:2.0;" width="138" x="354.75" y="76.4297"/><text fill="#000000" font-family="sans-serif" font-size="13" font-weight="bold" lengthAdjust="spacing" textLength="114" x="360.75" y="92.4966">Authentication</text><polygon fill="#181818" points="618.5,126.6953,628.5,130.6953,618.5,134.6953,622.5,130.6953" style="stroke:#181818;stroke-width:1.0;"/><line style="stroke:#181818;stroke-width:1.0;" x1="32.5" x2="624.5" y1="130.6953" y2="130.6953"/><text fill="#000000" font-family="sans-serif" font-size="13" font-weight="bold" lengthAdjust="spacing" textLength="9" x="39.5" y="125.6294">1</text><text fill="#000000" font-family="sans-serif" font-size="13" lengthAdjust="spacing" textLength="136" x="52.5" y="125.6294">Authorize with Wallet</text><polygon fill="#181818" points="169.5,155.8281,159.5,159.8281,169.5,163.8281,165.5,159.8281" style="stroke:#181818;stroke-width:1.0;"/><line style="stroke:#181818;stroke-width:1.0;" x1="163.5" x2="634.5" y1="159.8281" y2="159.8281"/><text fill="#000000" font-family="sans-serif" font-size="13" font-weight="bold" lengthAdjust="spacing" textLength="9" x="175.5" y="154.7622">2</text><text fill="#000000" font-family="sans-serif" font-size="13" lengthAdjust="spacing" textLength="120" x="188.5" y="154.7622">Start Authorization</text><polygon fill="#181818" points="366.5,184.9609,376.5,188.9609,366.5,192.9609,370.5,188.9609" style="stroke:#181818;stroke-width:1.0;"/><line style="stroke:#181818;stroke-width:1.0;" x1="158.5" x2="372.5" y1="188.9609" y2="188.9609"/><text fill="#000000" font-family="sans-serif" font-size="13" font-weight="bold" lengthAdjust="spacing" textLength="8" x="165.5" y="183.895">3</text><text fill="#000000" font-family="sans-serif" font-size="13" lengthAdjust="spacing" textLength="189" x="177.5" y="183.895">Create Authorization Request</text><polygon fill="#181818" points="169.5,214.0938,159.5,218.0938,169.5,222.0938,165.5,218.0938" style="stroke:#181818;stroke-width:1.0;"/><line style="stroke:#181818;stroke-width:1.0;stroke-dasharray:2.0,2.0;" x1="163.5" x2="382.5" y1="218.0938" y2="218.0938"/><text fill="#000000" font-family="sans-serif" font-size="13" font-weight="bold" lengthAdjust="spacing" textLength="9" x="175.5" y="213.0278">4</text><text fill="#000000" font-family="sans-serif" font-size="13" lengthAdjust="spacing" textLength="78" x="188.5" y="213.0278">Request URI</text><line style="stroke:#181818;stroke-width:1.0;" x1="158.5" x2="200.5" y1="247.2266" y2="247.2266"/><line style="stroke:#181818;stroke-width:1.0;" x1="200.5" x2="200.5" y1="247.2266" y2="260.2266"/><line style="stroke:#181818;stroke-width:1.0;" x1="159.5" x2="200.5" y1="260.2266" y2="260.2266"/><polygon fill="#181818" points="169.5,256.2266,159.5,260.2266,169.5,264.2266,165.5,260.2266" style="stroke:#181818;stroke-width:1.0;"/><text fill="#000000" font-family="sans-serif" font-size="13" font-weight="bold" lengthAdjust="spacing" textLength="9" x="165.5" y="242.1606">5</text><text fill="#000000" font-family="sans-serif" font-size="13" lengthAdjust="spacing" textLength="103" x="178.5" y="242.1606">Create QR Code</text><polygon fill="#181818" points="618.5,285.3594,628.5,289.3594,618.5,293.3594,622.5,289.3594" style="stroke:#181818;stroke-width:1.0;"/><line style="stroke:#181818;stroke-width:1.0;" x1="158.5" x2="624.5" y1="289.3594" y2="289.3594"/><text fill="#000000" font-family="sans-serif" font-size="13" font-weight="bold" lengthAdjust="spacing" textLength="9" x="165.5" y="284.2935">6</text><text fill="#000000" font-family="sans-serif" font-size="13" lengthAdjust="spacing" textLength="91" x="178.5" y="284.2935">Show QRCode</text><line style="stroke:#181818;stroke-width:1.0;" x1="640.5" x2="682.5" y1="318.4922" y2="318.4922"/><line style="stroke:#181818;stroke-width:1.0;" x1="682.5" x2="682.5" y1="318.4922" y2="331.4922"/><line style="stroke:#181818;stroke-width:1.0;" x1="641.5" x2="682.5" y1="331.4922" y2="331.4922"/><polygon fill="#181818" points="651.5,327.4922,641.5,331.4922,651.5,335.4922,647.5,331.4922" style="stroke:#181818;stroke-width:1.0;"/><text fill="#000000" font-family="sans-serif" font-size="13" font-weight="bold" lengthAdjust="spacing" textLength="9" x="647.5" y="313.4263">7</text><text fill="#000000" font-family="sans-serif" font-size="13" lengthAdjust="spacing" textLength="91" x="660.5" y="313.4263">Scan QR Code</text><line style="stroke:#181818;stroke-width:1.0;" x1="640.5" x2="682.5" y1="375.7578" y2="375.7578"/><line style="stroke:#181818;stroke-width:1.0;" x1="682.5" x2="682.5" y1="375.7578" y2="388.7578"/><line style="stroke:#181818;stroke-width:1.0;" x1="641.5" x2="682.5" y1="388.7578" y2="388.7578"/><polygon fill="#181818" points="651.5,384.7578,641.5,388.7578,651.5,392.7578,647.5,388.7578" style="stroke:#181818;stroke-width:1.0;"/><text fill="#000000" font-family="sans-serif" font-size="13" font-weight="bold" lengthAdjust="spacing" textLength="9" x="647.5" y="363.1255">8</text><text fill="#000000" font-family="sans-serif" font-size="13" lengthAdjust="spacing" textLength="128" x="660.5" y="355.5591">Extract Request URI</text><text fill="#000000" font-family="sans-serif" font-size="13" lengthAdjust="spacing" textLength="91" x="660.5" y="370.6919">from QR Code</text><polygon fill="#181818" points="399.5,429.0234,389.5,433.0234,399.5,437.0234,395.5,433.0234" style="stroke:#181818;stroke-width:1.0;"/><line style="stroke:#181818;stroke-width:1.0;" x1="393.5" x2="629.5" y1="433.0234" y2="433.0234"/><text fill="#000000" font-family="sans-serif" font-size="13" font-weight="bold" lengthAdjust="spacing" textLength="9" x="405.5" y="420.3911">9</text><text fill="#000000" font-family="sans-serif" font-size="13" lengthAdjust="spacing" textLength="128" x="418.5" y="412.8247">GET Request Object</text><text fill="#000000" font-family="sans-serif" font-size="13" lengthAdjust="spacing" textLength="98" x="418.5" y="427.9575">by Request URI</text><polygon fill="#181818" points="618.5,458.1563,628.5,462.1563,618.5,466.1563,622.5,462.1563" style="stroke:#181818;stroke-width:1.0;"/><line style="stroke:#181818;stroke-width:1.0;stroke-dasharray:2.0,2.0;" x1="383.5" x2="624.5" y1="462.1563" y2="462.1563"/><text fill="#000000" font-family="sans-serif" font-size="13" font-weight="bold" lengthAdjust="spacing" textLength="19" x="390.5" y="457.0903">10</text><text fill="#000000" font-family="sans-serif" font-size="13" lengthAdjust="spacing" textLength="98" x="413.5" y="457.0903">Request Object</text><line style="stroke:#181818;stroke-width:1.0;" x1="640.5" x2="682.5" y1="491.2891" y2="491.2891"/><line style="stroke:#181818;stroke-width:1.0;" x1="682.5" x2="682.5" y1="491.2891" y2="504.2891"/><line style="stroke:#181818;stroke-width:1.0;" x1="641.5" x2="682.5" y1="504.2891" y2="504.2891"/><polygon fill="#181818" points="651.5,500.2891,641.5,504.2891,651.5,508.2891,647.5,504.2891" style="stroke:#181818;stroke-width:1.0;"/><text fill="#000000" font-family="sans-serif" font-size="13" font-weight="bold" lengthAdjust="spacing" textLength="18" x="647.5" y="486.2231">11</text><text fill="#000000" font-family="sans-serif" font-size="13" lengthAdjust="spacing" textLength="146" x="669.5" y="486.2231">Validate JWT Signature</text><line style="stroke:#181818;stroke-width:1.0;" x1="640.5" x2="682.5" y1="548.5547" y2="548.5547"/><line style="stroke:#181818;stroke-width:1.0;" x1="682.5" x2="682.5" y1="548.5547" y2="561.5547"/><line style="stroke:#181818;stroke-width:1.0;" x1="641.5" x2="682.5" y1="561.5547" y2="561.5547"/><polygon fill="#181818" points="651.5,557.5547,641.5,561.5547,651.5,565.5547,647.5,561.5547" style="stroke:#181818;stroke-width:1.0;"/><text fill="#000000" font-family="sans-serif" font-size="13" font-weight="bold" lengthAdjust="spacing" textLength="18" x="647.5" y="535.9224">12</text><text fill="#000000" font-family="sans-serif" font-size="13" lengthAdjust="spacing" textLength="166" x="669.5" y="528.356">Process Request Object &amp;</text><text fill="#000000" font-family="sans-serif" font-size="13" lengthAdjust="spacing" textLength="115" x="669.5" y="543.4888">Authenticate User</text><polygon fill="#181818" points="399.5,586.6875,389.5,590.6875,399.5,594.6875,395.5,590.6875" style="stroke:#181818;stroke-width:1.0;"/><line style="stroke:#181818;stroke-width:1.0;" x1="393.5" x2="634.5" y1="590.6875" y2="590.6875"/><text fill="#000000" font-family="sans-serif" font-size="13" font-weight="bold" lengthAdjust="spacing" textLength="17" x="405.5" y="585.6216">13</text><text fill="#000000" font-family="sans-serif" font-size="13" lengthAdjust="spacing" textLength="190" x="426.5" y="585.6216">POST Authorization Response</text><line style="stroke:#181818;stroke-width:1.0;" x1="388.5" x2="430.5" y1="619.8203" y2="619.8203"/><line style="stroke:#181818;stroke-width:1.0;" x1="430.5" x2="430.5" y1="619.8203" y2="632.8203"/><line style="stroke:#181818;stroke-width:1.0;" x1="389.5" x2="430.5" y1="632.8203" y2="632.8203"/><polygon fill="#181818" points="399.5,628.8203,389.5,632.8203,399.5,636.8203,395.5,632.8203" style="stroke:#181818;stroke-width:1.0;"/><text fill="#000000" font-family="sans-serif" font-size="13" font-weight="bold" lengthAdjust="spacing" textLength="18" x="395.5" y="614.7544">14</text><text fill="#000000" font-family="sans-serif" font-size="13" lengthAdjust="spacing" textLength="146" x="417.5" y="614.7544">Validate JWT Signature</text><line style="stroke:#181818;stroke-width:1.0;" x1="388.5" x2="430.5" y1="666.9531" y2="666.9531"/><line style="stroke:#181818;stroke-width:1.0;" x1="430.5" x2="430.5" y1="666.9531" y2="679.9531"/><line style="stroke:#181818;stroke-width:1.0;" x1="383.5" x2="430.5" y1="679.9531" y2="679.9531"/><polygon fill="#181818" points="393.5,675.9531,383.5,679.9531,393.5,683.9531,389.5,679.9531" style="stroke:#181818;stroke-width:1.0;"/><text fill="#000000" font-family="sans-serif" font-size="13" font-weight="bold" lengthAdjust="spacing" textLength="18" x="395.5" y="661.8872">15</text><text fill="#000000" font-family="sans-serif" font-size="13" lengthAdjust="spacing" textLength="206" x="417.5" y="661.8872">Process Authorization Response</text><path d="M69.5,689.9531 L277.5,689.9531 L277.5,697.0859 L267.5,707.0859 L69.5,707.0859 L69.5,689.9531 " fill="#EEEEEE" style="stroke:#000000;stroke-width:1.5;"/><rect fill="none" height="189.9297" style="stroke:#000000;stroke-width:1.5;" width="501" x="69.5" y="689.9531"/><text fill="#000000" font-family="sans-serif" font-size="13" font-weight="bold" lengthAdjust="spacing" textLength="163" x="84.5" y="703.02">Polling until response</text><polygon fill="#181818" points="366.5,739.3516,376.5,743.3516,366.5,747.3516,370.5,743.3516" style="stroke:#181818;stroke-width:1.0;"/><line style="stroke:#181818;stroke-width:1.0;" x1="158.5" x2="372.5" y1="743.3516" y2="743.3516"/><text fill="#000000" font-family="sans-serif" font-size="13" font-weight="bold" lengthAdjust="spacing" textLength="18" x="165.5" y="730.7192">16</text><text fill="#000000" font-family="sans-serif" font-size="13" lengthAdjust="spacing" textLength="115" x="187.5" y="723.1528">GET Authorization</text><text fill="#000000" font-family="sans-serif" font-size="13" lengthAdjust="spacing" textLength="108" x="187.5" y="738.2856">by TransactionID</text><line style="stroke:#181818;stroke-width:1.0;" x1="388.5" x2="430.5" y1="772.4844" y2="772.4844"/><line style="stroke:#181818;stroke-width:1.0;" x1="430.5" x2="430.5" y1="772.4844" y2="785.4844"/><line style="stroke:#181818;stroke-width:1.0;" x1="389.5" x2="430.5" y1="785.4844" y2="785.4844"/><polygon fill="#181818" points="399.5,781.4844,389.5,785.4844,399.5,789.4844,395.5,785.4844" style="stroke:#181818;stroke-width:1.0;"/><text fill="#000000" font-family="sans-serif" font-size="13" font-weight="bold" lengthAdjust="spacing" textLength="18" x="395.5" y="767.4185">17</text><text fill="#000000" font-family="sans-serif" font-size="13" lengthAdjust="spacing" textLength="125" x="417.5" y="767.4185">Consume VP Token</text><line style="stroke:#181818;stroke-width:1.0;" x1="388.5" x2="430.5" y1="829.75" y2="829.75"/><line style="stroke:#181818;stroke-width:1.0;" x1="430.5" x2="430.5" y1="829.75" y2="842.75"/><line style="stroke:#181818;stroke-width:1.0;" x1="389.5" x2="430.5" y1="842.75" y2="842.75"/><polygon fill="#181818" points="399.5,838.75,389.5,842.75,399.5,846.75,395.5,842.75" style="stroke:#181818;stroke-width:1.0;"/><text fill="#000000" font-family="sans-serif" font-size="13" font-weight="bold" lengthAdjust="spacing" textLength="18" x="395.5" y="817.1177">18</text><text fill="#000000" font-family="sans-serif" font-size="13" lengthAdjust="spacing" textLength="141" x="417.5" y="809.5513">Invalidate Transaction</text><text fill="#000000" font-family="sans-serif" font-size="13" lengthAdjust="spacing" textLength="108" x="417.5" y="824.6841">by TransactionID</text><polygon fill="#181818" points="169.5,867.8828,159.5,871.8828,169.5,875.8828,165.5,871.8828" style="stroke:#181818;stroke-width:1.0;"/><line style="stroke:#181818;stroke-width:1.0;stroke-dasharray:2.0,2.0;" x1="163.5" x2="382.5" y1="871.8828" y2="871.8828"/><text fill="#000000" font-family="sans-serif" font-size="13" font-weight="bold" lengthAdjust="spacing" textLength="18" x="175.5" y="866.8169">19</text><text fill="#000000" font-family="sans-serif" font-size="13" lengthAdjust="spacing" textLength="18" x="197.5" y="866.8169">OK</text><polygon fill="#181818" points="38.5,904.0156,28.5,908.0156,38.5,912.0156,34.5,908.0156" style="stroke:#181818;stroke-width:1.0;"/><line style="stroke:#181818;stroke-width:1.0;" x1="32.5" x2="152.5" y1="908.0156" y2="908.0156"/><text fill="#000000" font-family="sans-serif" font-size="13" font-weight="bold" lengthAdjust="spacing" textLength="19" x="44.5" y="902.9497">20</text><text fill="#000000" font-family="sans-serif" font-size="13" lengthAdjust="spacing" textLength="69" x="67.5" y="902.9497">Authorized</text><!--SRC=[XLDTZzem47pthrXnKjK-z0yWKQb7wOcs4Ydak1TUd6G3xeKrzSVbwA_lEf34IG_rpTgTcPtnsj8xJVwOeH7Y98rJkJf9SZ1vj6Wc82ru8JBz2fCrLcT5UqWOTPx0tG-rFxZxokEGjqMZIeK6tdyrcjo2YW-DJ7aJTo_pvmwMeK0gW2UE_3p9ga87Ix9EKeuDk1PYDeFFtXsG62cTqWGmcmaF7pz1FMrQsgW_2BLo1xXe29axzI8TShJkM8iwS4gSmiRnt8xQY8e28sHtv4mb1bh6jBd1K1lmO8s_FTfe9EVBc78TTMt3utePZyXQtRBN_Rc6kIxQ1cVR77JDrQOOcRla2FrSKiTgYujNPnWS3zvHQVHnY0nv7XPf1rjblv1PEyhE0yzlnAgd8zOeMEjaAojLXDgtfnGsQa_IUTEt4wDpj7RiuDsEedKZX5VQMqvMc_IV1TYJ9eitDdZrVQ7ViDG3MbF_7y6wOc-qFq6Ygofy6y-MAp0jjdytuPu7WiqjfqQI3NAQbbzk-9spaZyYR1D8zJDIr5hIInicKdf3ENgCg- -Z1FmHnTMeZ_vI4SFAGMp_5m00]--></g></svg>