<?xml version="1.0" encoding="us-ascii" standalone="no"?><svg xmlns="http://www.w3.org/2000/svg" xmlns:xlink="http://www.w3.org/1999/xlink" contentStyleType="text/css" height="1029px" preserveAspectRatio="none" style="width:743px;height:1029px;background:#FFFFFF;" version="1.1" viewBox="0 0 743 1029" width="743px" zoomAndPan="magnify"><defs/><g><rect fill="#FFFFFF" height="29.1328" style="stroke:#181818;stroke-width:1.0;" width="10" x="22.5" y="651.6875"/><rect fill="#FFFFFF" height="752.3203" style="stroke:#181818;stroke-width:1.0;" width="10" x="233.5" y="223.9609"/><rect fill="#FFFFFF" height="113.3984" style="stroke:#181818;stroke-width:1.0;" width="10" x="479.5" y="110.5625"/><rect fill="#FFFFFF" height="71.2656" style="stroke:#181818;stroke-width:1.0;" width="10" x="479.5" y="382.7578"/><rect fill="#FFFFFF" height="209.0625" style="stroke:#181818;stroke-width:1.0;" width="10" x="479.5" y="767.2188"/><line style="stroke:#181818;stroke-width:0.5;stroke-dasharray:5.0,5.0;" x1="27" x2="27" y1="36.2969" y2="994.2813"/><line style="stroke:#181818;stroke-width:0.5;stroke-dasharray:5.0,5.0;" x1="238" x2="238" y1="36.2969" y2="994.2813"/><line style="stroke:#181818;stroke-width:0.5;stroke-dasharray:5.0,5.0;" x1="484" x2="484" y1="36.2969" y2="994.2813"/><rect fill="#E2E2F0" height="30.2969" rx="2.5" ry="2.5" style="stroke:#181818;stroke-width:0.5;" width="45" x="5" y="5"/><text fill="#000000" font-family="sans-serif" font-size="14" lengthAdjust="spacing" textLength="31" x="12" y="24.9951">User</text><rect fill="#E2E2F0" height="30.2969" rx="2.5" ry="2.5" style="stroke:#181818;stroke-width:0.5;" width="45" x="5" y="993.2813"/><text fill="#000000" font-family="sans-serif" font-size="14" lengthAdjust="spacing" textLength="31" x="12" y="1013.2764">User</text><rect fill="#E2E2F0" height="30.2969" rx="2.5" ry="2.5" style="stroke:#181818;stroke-width:0.5;" width="125" x="176" y="5"/><text fill="#000000" font-family="sans-serif" font-size="14" lengthAdjust="spacing" textLength="111" x="183" y="24.9951">Wallet Instance</text><rect fill="#E2E2F0" height="30.2969" rx="2.5" ry="2.5" style="stroke:#181818;stroke-width:0.5;" width="125" x="176" y="993.2813"/><text fill="#000000" font-family="sans-serif" font-size="14" lengthAdjust="spacing" textLength="111" x="183" y="1013.2764">Wallet Instance</text><rect fill="#E2E2F0" height="30.2969" rx="2.5" ry="2.5" style="stroke:#181818;stroke-width:0.5;" width="109" x="430" y="5"/><text fill="#000000" font-family="sans-serif" font-size="14" lengthAdjust="spacing" textLength="95" x="437" y="24.9951">Relying Party</text><rect fill="#E2E2F0" height="30.2969" rx="2.5" ry="2.5" style="stroke:#181818;stroke-width:0.5;" width="109" x="430" y="993.2813"/><text fill="#000000" font-family="sans-serif" font-size="14" lengthAdjust="spacing" textLength="95" x="437" y="1013.2764">Relying Party</text><rect fill="#FFFFFF" height="29.1328" style="stroke:#181818;stroke-width:1.0;" width="10" x="22.5" y="651.6875"/><rect fill="#FFFFFF" height="752.3203" style="stroke:#181818;stroke-width:1.0;" width="10" x="233.5" y="223.9609"/><rect fill="#FFFFFF" height="113.3984" style="stroke:#181818;stroke-width:1.0;" width="10" x="479.5" y="110.5625"/><rect fill="#FFFFFF" height="71.2656" style="stroke:#181818;stroke-width:1.0;" width="10" x="479.5" y="382.7578"/><rect fill="#FFFFFF" height="209.0625" style="stroke:#181818;stroke-width:1.0;" width="10" x="479.5" y="767.2188"/><rect fill="#EEEEEE" height="3" style="stroke:#EEEEEE;stroke-width:1.0;" width="736.5" x="0" y="66.8633"/><line style="stroke:#000000;stroke-width:1.0;" x1="0" x2="736.5" y1="66.8633" y2="66.8633"/><line style="stroke:#000000;stroke-width:1.0;" x1="0" x2="736.5" y1="69.8633" y2="69.8633"/><rect fill="#EEEEEE" height="23.1328" style="stroke:#000000;stroke-width:2.0;" width="138" x="299.25" y="56.2969"/><text fill="#000000" font-family="sans-serif" font-size="13" font-weight="bold" lengthAdjust="spacing" textLength="114" x="305.25" y="72.3638">Authentication</text><polygon fill="#181818" points="467.5,106.5625,477.5,110.5625,467.5,114.5625,471.5,110.5625" style="stroke:#181818;stroke-width:1.0;"/><line style="stroke:#181818;stroke-width:1.0;" x1="27.5" x2="473.5" y1="110.5625" y2="110.5625"/><text fill="#000000" font-family="sans-serif" font-size="13" font-weight="bold" lengthAdjust="spacing" textLength="9" x="34.5" y="105.4966">1</text><text fill="#000000" font-family="sans-serif" font-size="13" lengthAdjust="spacing" textLength="183" x="47.5" y="105.4966">Request Protected Resource</text><line style="stroke:#181818;stroke-width:1.0;" x1="489.5" x2="531.5" y1="139.6953" y2="139.6953"/><line style="stroke:#181818;stroke-width:1.0;" x1="531.5" x2="531.5" y1="139.6953" y2="152.6953"/><line style="stroke:#181818;stroke-width:1.0;" x1="490.5" x2="531.5" y1="152.6953" y2="152.6953"/><polygon fill="#181818" points="500.5,148.6953,490.5,152.6953,500.5,156.6953,496.5,152.6953" style="stroke:#181818;stroke-width:1.0;"/><text fill="#000000" font-family="sans-serif" font-size="13" font-weight="bold" lengthAdjust="spacing" textLength="9" x="496.5" y="134.6294">2</text><text fill="#000000" font-family="sans-serif" font-size="13" lengthAdjust="spacing" textLength="189" x="509.5" y="134.6294">Create Authorization Request</text><line style="stroke:#181818;stroke-width:1.0;" x1="489.5" x2="531.5" y1="181.8281" y2="181.8281"/><line style="stroke:#181818;stroke-width:1.0;" x1="531.5" x2="531.5" y1="181.8281" y2="194.8281"/><line style="stroke:#181818;stroke-width:1.0;" x1="490.5" x2="531.5" y1="194.8281" y2="194.8281"/><polygon fill="#181818" points="500.5,190.8281,490.5,194.8281,500.5,198.8281,496.5,194.8281" style="stroke:#181818;stroke-width:1.0;"/><text fill="#000000" font-family="sans-serif" font-size="13" font-weight="bold" lengthAdjust="spacing" textLength="8" x="496.5" y="176.7622">3</text><text fill="#000000" font-family="sans-serif" font-size="13" lengthAdjust="spacing" textLength="103" x="508.5" y="176.7622">Create QR Code</text><polygon fill="#181818" points="254.5,219.9609,244.5,223.9609,254.5,227.9609,250.5,223.9609" style="stroke:#181818;stroke-width:1.0;"/><line style="stroke:#181818;stroke-width:1.0;" x1="248.5" x2="483.5" y1="223.9609" y2="223.9609"/><text fill="#000000" font-family="sans-serif" font-size="13" font-weight="bold" lengthAdjust="spacing" textLength="9" x="260.5" y="218.895">4</text><text fill="#000000" font-family="sans-serif" font-size="13" lengthAdjust="spacing" textLength="91" x="273.5" y="218.895">Show QRCode</text><line style="stroke:#181818;stroke-width:1.0;" x1="243.5" x2="285.5" y1="253.0938" y2="253.0938"/><line style="stroke:#181818;stroke-width:1.0;" x1="285.5" x2="285.5" y1="253.0938" y2="266.0938"/><line style="stroke:#181818;stroke-width:1.0;" x1="244.5" x2="285.5" y1="266.0938" y2="266.0938"/><polygon fill="#181818" points="254.5,262.0938,244.5,266.0938,254.5,270.0938,250.5,266.0938" style="stroke:#181818;stroke-width:1.0;"/><text fill="#000000" font-family="sans-serif" font-size="13" font-weight="bold" lengthAdjust="spacing" textLength="9" x="250.5" y="248.0278">5</text><text fill="#000000" font-family="sans-serif" font-size="13" lengthAdjust="spacing" textLength="91" x="263.5" y="248.0278">Scan QR Code</text><line style="stroke:#181818;stroke-width:1.0;" x1="243.5" x2="285.5" y1="310.3594" y2="310.3594"/><line style="stroke:#181818;stroke-width:1.0;" x1="285.5" x2="285.5" y1="310.3594" y2="323.3594"/><line style="stroke:#181818;stroke-width:1.0;" x1="244.5" x2="285.5" y1="323.3594" y2="323.3594"/><polygon fill="#181818" points="254.5,319.3594,244.5,323.3594,254.5,327.3594,250.5,323.3594" style="stroke:#181818;stroke-width:1.0;"/><text fill="#000000" font-family="sans-serif" font-size="13" font-weight="bold" lengthAdjust="spacing" textLength="9" x="250.5" y="297.7271">6</text><text fill="#000000" font-family="sans-serif" font-size="13" lengthAdjust="spacing" textLength="128" x="263.5" y="290.1606">Extract Request URI</text><text fill="#000000" font-family="sans-serif" font-size="13" lengthAdjust="spacing" textLength="91" x="263.5" y="305.2935">from QR Code</text><polygon fill="#181818" points="467.5,378.7578,477.5,382.7578,467.5,386.7578,471.5,382.7578" style="stroke:#181818;stroke-width:1.0;"/><line style="stroke:#181818;stroke-width:1.0;" x1="243.5" x2="473.5" y1="382.7578" y2="382.7578"/><text fill="#000000" font-family="sans-serif" font-size="13" font-weight="bold" lengthAdjust="spacing" textLength="9" x="250.5" y="362.5591">7</text><text fill="#000000" font-family="sans-serif" font-size="13" lengthAdjust="spacing" textLength="136" x="263.5" y="347.4263">POST Request Object</text><text fill="#000000" font-family="sans-serif" font-size="13" lengthAdjust="spacing" textLength="98" x="263.5" y="362.5591">by Request URI</text><text fill="#000000" font-family="sans-serif" font-size="13" lengthAdjust="spacing" textLength="204" x="263.5" y="377.6919">with Wallet Instance Attestation</text><line style="stroke:#181818;stroke-width:1.0;" x1="489.5" x2="531.5" y1="411.8906" y2="411.8906"/><line style="stroke:#181818;stroke-width:1.0;" x1="531.5" x2="531.5" y1="411.8906" y2="424.8906"/><line style="stroke:#181818;stroke-width:1.0;" x1="490.5" x2="531.5" y1="424.8906" y2="424.8906"/><polygon fill="#181818" points="500.5,420.8906,490.5,424.8906,500.5,428.8906,496.5,424.8906" style="stroke:#181818;stroke-width:1.0;"/><text fill="#000000" font-family="sans-serif" font-size="13" font-weight="bold" lengthAdjust="spacing" textLength="9" x="496.5" y="406.8247">8</text><text fill="#000000" font-family="sans-serif" font-size="13" lengthAdjust="spacing" textLength="178" x="509.5" y="406.8247">Attest Wallet Instance Trust</text><polygon fill="#181818" points="254.5,450.0234,244.5,454.0234,254.5,458.0234,250.5,454.0234" style="stroke:#181818;stroke-width:1.0;"/><line style="stroke:#181818;stroke-width:1.0;stroke-dasharray:2.0,2.0;" x1="248.5" x2="483.5" y1="454.0234" y2="454.0234"/><text fill="#000000" font-family="sans-serif" font-size="13" font-weight="bold" lengthAdjust="spacing" textLength="9" x="260.5" y="448.9575">9</text><text fill="#000000" font-family="sans-serif" font-size="13" lengthAdjust="spacing" textLength="98" x="273.5" y="448.9575">Request Object</text><line style="stroke:#181818;stroke-width:1.0;" x1="243.5" x2="285.5" y1="483.1563" y2="483.1563"/><line style="stroke:#181818;stroke-width:1.0;" x1="285.5" x2="285.5" y1="483.1563" y2="496.1563"/><line style="stroke:#181818;stroke-width:1.0;" x1="244.5" x2="285.5" y1="496.1563" y2="496.1563"/><polygon fill="#181818" points="254.5,492.1563,244.5,496.1563,254.5,500.1563,250.5,496.1563" style="stroke:#181818;stroke-width:1.0;"/><text fill="#000000" font-family="sans-serif" font-size="13" font-weight="bold" lengthAdjust="spacing" textLength="19" x="250.5" y="478.0903">10</text><text fill="#000000" font-family="sans-serif" font-size="13" lengthAdjust="spacing" textLength="146" x="273.5" y="478.0903">Validate JWT Signature</text><line style="stroke:#181818;stroke-width:1.0;" x1="243.5" x2="285.5" y1="525.2891" y2="525.2891"/><line style="stroke:#181818;stroke-width:1.0;" x1="285.5" x2="285.5" y1="525.2891" y2="538.2891"/><line style="stroke:#181818;stroke-width:1.0;" x1="244.5" x2="285.5" y1="538.2891" y2="538.2891"/><polygon fill="#181818" points="254.5,534.2891,244.5,538.2891,254.5,542.2891,250.5,538.2891" style="stroke:#181818;stroke-width:1.0;"/><text fill="#000000" font-family="sans-serif" font-size="13" font-weight="bold" lengthAdjust="spacing" textLength="18" x="250.5" y="520.2231">11</text><text fill="#000000" font-family="sans-serif" font-size="13" lengthAdjust="spacing" textLength="165" x="272.5" y="520.2231">Attest Relying Party Trust</text><line style="stroke:#181818;stroke-width:1.0;" x1="243.5" x2="285.5" y1="567.4219" y2="567.4219"/><line style="stroke:#181818;stroke-width:1.0;" x1="285.5" x2="285.5" y1="567.4219" y2="580.4219"/><line style="stroke:#181818;stroke-width:1.0;" x1="244.5" x2="285.5" y1="580.4219" y2="580.4219"/><polygon fill="#181818" points="254.5,576.4219,244.5,580.4219,254.5,584.4219,250.5,580.4219" style="stroke:#181818;stroke-width:1.0;"/><text fill="#000000" font-family="sans-serif" font-size="13" font-weight="bold" lengthAdjust="spacing" textLength="18" x="250.5" y="562.356">12</text><text fill="#000000" font-family="sans-serif" font-size="13" lengthAdjust="spacing" textLength="191" x="272.5" y="562.356">Verify Relying Party Metadata</text><line style="stroke:#181818;stroke-width:1.0;" x1="243.5" x2="285.5" y1="609.5547" y2="609.5547"/><line style="stroke:#181818;stroke-width:1.0;" x1="285.5" x2="285.5" y1="609.5547" y2="622.5547"/><line style="stroke:#181818;stroke-width:1.0;" x1="244.5" x2="285.5" y1="622.5547" y2="622.5547"/><polygon fill="#181818" points="254.5,618.5547,244.5,622.5547,254.5,626.5547,250.5,622.5547" style="stroke:#181818;stroke-width:1.0;"/><text fill="#000000" font-family="sans-serif" font-size="13" font-weight="bold" lengthAdjust="spacing" textLength="17" x="250.5" y="604.4888">13</text><text fill="#000000" font-family="sans-serif" font-size="13" lengthAdjust="spacing" textLength="163" x="271.5" y="604.4888">Validate Requested VP(s)</text><polygon fill="#181818" points="43.5,647.6875,33.5,651.6875,43.5,655.6875,39.5,651.6875" style="stroke:#181818;stroke-width:1.0;"/><line style="stroke:#181818;stroke-width:1.0;" x1="37.5" x2="232.5" y1="651.6875" y2="651.6875"/><text fill="#000000" font-family="sans-serif" font-size="13" font-weight="bold" lengthAdjust="spacing" textLength="18" x="49.5" y="646.6216">14</text><text fill="#000000" font-family="sans-serif" font-size="13" lengthAdjust="spacing" textLength="160" x="71.5" y="646.6216">Request for confirmation</text><polygon fill="#181818" points="221.5,676.8203,231.5,680.8203,221.5,684.8203,225.5,680.8203" style="stroke:#181818;stroke-width:1.0;"/><line style="stroke:#181818;stroke-width:1.0;stroke-dasharray:2.0,2.0;" x1="27.5" x2="227.5" y1="680.8203" y2="680.8203"/><text fill="#000000" font-family="sans-serif" font-size="13" font-weight="bold" lengthAdjust="spacing" textLength="18" x="34.5" y="675.7544">15</text><text fill="#000000" font-family="sans-serif" font-size="13" lengthAdjust="spacing" textLength="67" x="56.5" y="675.7544">Confirmed</text><line style="stroke:#181818;stroke-width:1.0;" x1="243.5" x2="285.5" y1="725.0859" y2="725.0859"/><line style="stroke:#181818;stroke-width:1.0;" x1="285.5" x2="285.5" y1="725.0859" y2="738.0859"/><line style="stroke:#181818;stroke-width:1.0;" x1="244.5" x2="285.5" y1="738.0859" y2="738.0859"/><polygon fill="#181818" points="254.5,734.0859,244.5,738.0859,254.5,742.0859,250.5,738.0859" style="stroke:#181818;stroke-width:1.0;"/><text fill="#000000" font-family="sans-serif" font-size="13" font-weight="bold" lengthAdjust="spacing" textLength="18" x="250.5" y="712.4536">16</text><text fill="#000000" font-family="sans-serif" font-size="13" lengthAdjust="spacing" textLength="166" x="272.5" y="704.8872">Process Request Object &amp;</text><text fill="#000000" font-family="sans-serif" font-size="13" lengthAdjust="spacing" textLength="115" x="272.5" y="720.02">Authenticate User</text><polygon fill="#181818" points="467.5,763.2188,477.5,767.2188,467.5,771.2188,471.5,767.2188" style="stroke:#181818;stroke-width:1.0;"/><line style="stroke:#181818;stroke-width:1.0;" x1="243.5" x2="473.5" y1="767.2188" y2="767.2188"/><text fill="#000000" font-family="sans-serif" font-size="13" font-weight="bold" lengthAdjust="spacing" textLength="18" x="250.5" y="762.1528">17</text><text fill="#000000" font-family="sans-serif" font-size="13" lengthAdjust="spacing" textLength="190" x="272.5" y="762.1528">POST Authorization Response</text><line style="stroke:#181818;stroke-width:1.0;" x1="489.5" x2="531.5" y1="796.3516" y2="796.3516"/><line style="stroke:#181818;stroke-width:1.0;" x1="531.5" x2="531.5" y1="796.3516" y2="809.3516"/><line style="stroke:#181818;stroke-width:1.0;" x1="490.5" x2="531.5" y1="809.3516" y2="809.3516"/><polygon fill="#181818" points="500.5,805.3516,490.5,809.3516,500.5,813.3516,496.5,809.3516" style="stroke:#181818;stroke-width:1.0;"/><text fill="#000000" font-family="sans-serif" font-size="13" font-weight="bold" lengthAdjust="spacing" textLength="18" x="496.5" y="791.2856">18</text><text fill="#000000" font-family="sans-serif" font-size="13" lengthAdjust="spacing" textLength="146" x="518.5" y="791.2856">Validate JWT Signature</text><line style="stroke:#181818;stroke-width:1.0;" x1="489.5" x2="531.5" y1="838.4844" y2="838.4844"/><line style="stroke:#181818;stroke-width:1.0;" x1="531.5" x2="531.5" y1="838.4844" y2="851.4844"/><line style="stroke:#181818;stroke-width:1.0;" x1="490.5" x2="531.5" y1="851.4844" y2="851.4844"/><polygon fill="#181818" points="500.5,847.4844,490.5,851.4844,500.5,855.4844,496.5,851.4844" style="stroke:#181818;stroke-width:1.0;"/><text fill="#000000" font-family="sans-serif" font-size="13" font-weight="bold" lengthAdjust="spacing" textLength="18" x="496.5" y="833.4185">19</text><text fill="#000000" font-family="sans-serif" font-size="13" lengthAdjust="spacing" textLength="206" x="518.5" y="833.4185">Process Authorization Response</text><path d="M283,864.4844 L283,949.4844 L686,949.4844 L686,874.4844 L676,864.4844 L283,864.4844 " fill="#FEFFDD" style="stroke:#181818;stroke-width:0.5;"/><path d="M676,864.4844 L676,874.4844 L686,874.4844 L676,864.4844 " fill="#FEFFDD" style="stroke:#181818;stroke-width:0.5;"/><text fill="#000000" font-family="sans-serif" font-size="13" lengthAdjust="spacing" textLength="171" x="289" y="881.5513">Process phase requires to:</text><text fill="#000000" font-family="sans-serif" font-size="13" lengthAdjust="spacing" textLength="382" x="289" y="896.6841">- validate integrity, authenticity, and holder binding of VP(s)</text><text fill="#000000" font-family="sans-serif" font-size="13" lengthAdjust="spacing" textLength="256" x="289" y="911.8169">- ensure all VP(s) are linked with Verifier</text><text fill="#000000" font-family="sans-serif" font-size="13" lengthAdjust="spacing" textLength="351" x="289" y="926.9497">- ensure all VP(s) are linked with current session nonce</text><text fill="#000000" font-family="sans-serif" font-size="13" lengthAdjust="spacing" textLength="246" x="289" y="942.0825">- ensure all VC(s) requested is present</text><polygon fill="#181818" points="249.5,972.2813,239.5,976.2813,249.5,980.2813,245.5,976.2813" style="stroke:#181818;stroke-width:1.0;"/><line style="stroke:#181818;stroke-width:1.0;stroke-dasharray:2.0,2.0;" x1="243.5" x2="483.5" y1="976.2813" y2="976.2813"/><text fill="#000000" font-family="sans-serif" font-size="13" font-weight="bold" lengthAdjust="spacing" textLength="19" x="255.5" y="971.2153">20</text><text fill="#000000" font-family="sans-serif" font-size="13" lengthAdjust="spacing" textLength="18" x="278.5" y="971.2153">OK</text><!--SRC=[ZLF1Zfj03Btp5TOUgbRg_a2aL5f5FUnMLT8aktl9PG8cJ4iygSS3JR- -7WW4Y2Br1kRv-JtxOO8u2iSzSfAS38jDxScGmCEhHtu0uo6Cw- -cB57WcRmOIh61r6F86ikpfGEij7Xk01KcoNmEJq4A90KQiOu0vlCamECN_Jo3DVuEw0LMx0HJmKmhtWLECJ6fsCe8HfeAkuO5Own5JiVsRqjvORc5_LZ3mcLTVps3JU5ghJR538SZ-kSwIUeEdHhgERhYrp_22kwblwwVTvIpEuwHKSLgkTdskEN-fpg47UtFuzxQIW6J1SEJY08QUtSsqI9k6hSSBfjevOx7JqntdjvCQRDOUtdVmiOUo4ZWw-VBgD65BuDw1cIRdoUGxoX6QStjd8iglVVRwgF_r0B2LMtk6597kUNZP0SXXgTbMxG0p8QkGZzCCvMYzzC3VDZH8948CVAJaqtJvK-E_Br4tjdT5T3fkCDAcdnm5V88V2gCHs2LRXazY9jfSXwXwePP4ZombVDdC9sRzeqoA5oPAT_UKXQFuV9sov40oQiwqD2qDJ3wLbhwfQTeWjWSqYB_5pWDp3eQl4gEfiXf1AUTYzZ9_S6jcbDBsZP8wVBRy8Rw2uw3-Wy0]--></g></svg>