<?xml version="1.0" standalone="no"?>
<!DOCTYPE svg PUBLIC "-//W3C//DTD SVG 1.1//EN" "http://www.w3.org/Graphics/SVG/1.1/DTD/svg11.dtd" >
<svg xmlns="http://www.w3.org/2000/svg">
<metadata>Generated by IcoMoon</metadata>
<defs>
<font id="docs-italia" horiz-adv-x="1024">
<font-face units-per-em="1024" ascent="960" descent="-64" />
<missing-glyph horiz-adv-x="1024" />
<glyph unicode="&#x20;" horiz-adv-x="512" d="" />
<glyph unicode="&#xe900;" glyph-name="more" d="M607.573 813.227c0-52.784-42.79-95.573-95.573-95.573s-95.573 42.79-95.573 95.573c0 52.784 42.79 95.573 95.573 95.573s95.573-42.79 95.573-95.573zM607.573 448c0-52.784-42.79-95.573-95.573-95.573s-95.573 42.79-95.573 95.573c0 52.784 42.79 95.573 95.573 95.573s95.573-42.79 95.573-95.573zM607.573 82.773c0-52.784-42.79-95.573-95.573-95.573s-95.573 42.79-95.573 95.573c0 52.784 42.79 95.573 95.573 95.573s95.573-42.79 95.573-95.573z" />
<glyph unicode="&#xe901;" glyph-name="expand" d="M942.080 338.773l-358.4 361.813c-40.96 40.96-102.4 40.96-143.36 0l-358.4-361.813c-40.96-40.96-40.96-102.4 0-143.36 20.48-20.48 44.373-30.72 71.68-30.72s51.2 10.24 71.68 30.72l286.72 286.72 286.72-286.72c20.48-20.48 44.373-30.72 71.68-30.72s51.2 10.24 71.68 30.72c40.96 40.96 40.96 105.813 0 143.36z" />
<glyph unicode="&#xe902;" glyph-name="collapse" d="M942.080 700.587c-40.96 40.96-102.4 40.96-143.36 0l-286.72-290.133-286.72 290.133c-40.96 40.96-102.4 40.96-143.36 0s-40.96-102.4 0-143.36l358.4-358.4c20.48-20.48 44.373-30.72 71.68-30.72s51.2 10.24 71.68 30.72l358.4 358.4c40.96 37.547 40.96 102.4 0 143.36z" />
<glyph unicode="&#xe903;" glyph-name="plus" d="M907.947 512.853h-327.68v331.093c0 17.067-6.827 34.133-20.48 47.787-13.653 10.24-30.72 17.067-47.787 17.067s-34.133-6.827-47.787-20.48c-13.653-13.653-20.48-27.307-20.48-47.787v-327.68h-327.68c-17.067 0-34.133-6.827-47.787-20.48-10.24-10.24-17.067-27.307-17.067-44.373s6.827-34.133 20.48-47.787c13.653-13.653 27.307-20.48 47.787-20.48h327.68v-327.68c0-17.067 6.827-34.133 20.48-47.787s27.307-20.48 47.787-20.48 34.133 6.827 47.787 20.48c13.653 13.653 20.48 27.307 20.48 47.787v327.68h327.68c17.067 0 34.133 6.827 47.787 20.48s20.48 27.307 20.48 47.787-6.827 34.133-20.48 47.787c-20.48 10.24-34.133 17.067-51.2 17.067z" />
<glyph unicode="&#xe904;" glyph-name="minus" d="M907.947 512.853h-791.893c-17.067 0-34.133-6.827-47.787-20.48-10.24-10.24-17.067-27.307-17.067-44.373s6.827-34.133 20.48-47.787c13.653-13.653 27.307-20.48 47.787-20.48h788.48c17.067 0 34.133 6.827 47.787 20.48s20.48 27.307 20.48 47.787-6.827 34.133-20.48 47.787c-17.067 10.24-30.72 17.067-47.787 17.067z" />
<glyph unicode="&#xe905;" glyph-name="document" d="M839.68 707.413l-150.187 160.427c-6.827 10.24-20.48 17.067-34.133 23.893s-27.307 10.24-37.547 10.24h-426.667c-10.24-3.413-20.48-6.827-27.307-13.653s-10.24-17.067-10.24-27.307v-822.613c0-10.24 3.413-20.48 10.24-30.72 6.827-6.827 17.067-10.24 27.307-10.24h641.707c10.24 0 20.48 3.413 27.307 10.24s10.24 17.067 10.24 30.72v590.507c0 13.653-3.413 27.307-10.24 40.96-3.413 17.067-13.653 27.307-20.48 37.547zM624.64 850.773l10.24-3.413c10.24-3.413 17.067-6.827 23.893-13.653l150.187-160.427c3.413-3.413 10.24-13.653 13.653-23.893l3.413-10.24h-201.387v211.627zM826.027 45.227h-628.053v805.547h382.293v-221.867c0-10.24 3.413-20.48 10.24-30.72 6.827-6.827 17.067-10.24 27.307-10.24h208.213v-542.72zM682.667 331.947h-341.333c-20.48 0-34.133 13.653-34.133 34.133s13.653 34.133 34.133 34.133h341.333c20.48 0 34.133-13.653 34.133-34.133s-13.653-34.133-34.133-34.133zM682.667 195.413h-341.333c-20.48 0-34.133 13.653-34.133 34.133s13.653 34.133 34.133 34.133h341.333c20.48 0 34.133-13.653 34.133-34.133s-13.653-34.133-34.133-34.133z" />
<glyph unicode="&#xe906;" glyph-name="edit" d="M136.533 198.827h167.253c6.827 0 10.24 0 17.067 3.413 3.413 3.413 10.24 3.413 13.653 10.24l457.387 457.387c6.827 6.827 13.653 17.067 13.653 30.72 0 10.24-3.413 20.48-13.653 30.72l-167.253 167.253c-6.827 6.827-17.067 13.653-30.72 13.653-10.24 0-20.48-3.413-30.72-13.653l-457.387-464.213c-3.413-3.413-6.827-10.24-10.24-13.653s-3.413-10.24-3.413-17.067v-167.253c0-13.653 3.413-23.893 10.24-30.72s20.48-6.827 34.133-6.827zM177.493 389.973l416.427 419.84 109.227-109.227-416.427-419.84h-109.227v109.227zM887.467 72.533h-750.933c-13.653 0-23.893-3.413-30.72-10.24s-10.24-17.067-10.24-30.72c0-13.653 3.413-23.893 10.24-30.72s17.067-10.24 30.72-10.24h750.933c13.653 0 23.893 3.413 30.72 10.24s10.24 17.067 10.24 30.72c0 13.653-3.413 23.893-10.24 30.72s-17.067 10.24-30.72 10.24z" />
<glyph unicode="&#xe907;" glyph-name="download" d="M160.427 263.68c-6.827 6.827-17.067 10.24-27.307 10.24s-20.48-3.413-30.72-10.24c-6.827-6.827-10.24-17.067-10.24-27.307v-126.293c0-34.133 10.24-64.853 34.133-88.747s54.613-34.133 88.747-34.133h590.507c34.133 0 64.853 13.653 88.747 34.133 23.893 23.893 34.133 54.613 34.133 88.747v126.293c0 13.653-3.413 20.48-10.24 27.307s-17.067 10.24-27.307 10.24c-10.24 0-20.48-3.413-27.307-10.24s-10.24-17.067-10.24-27.307v-126.293c0-13.653-3.413-23.893-13.653-34.133-6.827-6.827-20.48-13.653-34.133-13.653h-590.507c-13.653 0-23.893 3.413-34.133 13.653-6.827 6.827-13.653 20.48-13.653 34.133v126.293c3.413 13.653 0 20.48-6.827 27.307zM539.307 898.56c-6.827 6.827-17.067 10.24-27.307 10.24s-20.48-3.413-27.307-10.24c-6.827-6.827-10.24-17.067-10.24-27.307v-498.347l-102.4 105.813c-6.827 6.827-17.067 10.24-27.307 10.24s-20.48-6.827-30.72-13.653c-6.827-6.827-10.24-17.067-10.24-27.307s3.413-20.48 10.24-27.307l170.667-170.667c3.413-3.413 3.413-3.413 6.827-3.413 0 0 3.413-3.413 3.413-3.413h3.413c0-3.413 3.413-3.413 6.827-3.413 6.827 0 10.24 0 17.067 0 3.413 0 3.413 0 6.827 3.413s6.827 3.413 6.827 6.827c0 0 3.413 0 3.413 3.413l170.667 170.667c6.827 6.827 10.24 17.067 10.24 27.307s-3.413 20.48-10.24 27.307c-6.827 6.827-17.067 10.24-27.307 10.24s-20.48-3.413-27.307-10.24l-102.4-105.813v498.347c-3.413 10.24-6.827 20.48-13.653 27.307z" />
<glyph unicode="&#xe908;" glyph-name="info" d="M512-16.213c-252.587 0-460.8 208.213-460.8 460.8s208.213 460.8 460.8 460.8c252.587 0 460.8-208.213 460.8-460.8 0-256-208.213-460.8-460.8-460.8zM512 833.707c-215.040 0-389.12-174.080-389.12-389.12s174.080-389.12 389.12-389.12 389.12 174.080 389.12 389.12c0 215.040-174.080 389.12-389.12 389.12zM395.947 564.053h163.84v-235.52h81.92v-61.44h-245.76v61.44h85.333v174.080h-85.333v61.44zM474.453 642.56c0 6.827 0 10.24 3.413 17.067 3.413 3.413 6.827 10.24 10.24 13.653s10.24 6.827 13.653 6.827c6.827 3.413 10.24 3.413 17.067 3.413 13.653 0 23.893-3.413 34.133-10.24s13.653-17.067 13.653-30.72-3.413-20.48-13.653-30.72-20.48-10.24-34.133-10.24c-6.827 0-13.653 0-17.067 3.413-6.827 3.413-10.24 3.413-13.653 6.827-6.827 3.413-10.24 10.24-10.24 13.653-3.413 6.827-3.413 10.24-3.413 17.067z" />
<glyph unicode="&#xe909;" glyph-name="compare" d="M617.813 553.813c-30.72 30.72-64.853 44.373-105.813 44.373s-78.507-13.653-105.813-44.373c-30.72-30.72-44.373-64.853-44.373-105.813s13.653-78.507 44.373-109.227c30.72-30.72 64.853-44.373 105.813-44.373s78.507 13.653 105.813 44.373c30.72 30.72 44.373 64.853 44.373 109.227 3.413 40.96-13.653 78.507-44.373 105.813zM566.613 393.387c-13.653-13.653-34.133-23.893-54.613-23.893s-40.96 6.827-54.613 23.893c-13.653 13.653-23.893 34.133-23.893 54.613s6.827 40.96 23.893 54.613c13.653 13.653 34.133 23.893 54.613 23.893s40.96-6.827 54.613-23.893c13.653-13.653 23.893-34.133 23.893-54.613s-6.827-40.96-23.893-54.613zM935.253 376.32c20.48 34.133 34.133 54.613 34.133 58.027s3.413 6.827 3.413 13.653 0 10.24-3.413 13.653c-3.413 3.413-13.653 23.893-34.133 58.027s-51.2 71.68-88.747 112.64c-37.547 40.96-85.333 78.507-143.36 109.227-54.613 34.133-119.467 47.787-191.147 47.787s-136.533-17.067-191.147-47.787c-54.613-34.133-102.4-68.267-139.947-109.227s-68.267-78.507-88.747-112.64c-20.48-34.133-30.72-54.613-34.133-58.027 0-6.827-3.413-10.24-3.413-17.067s0-10.24 3.413-17.067c3.413-3.413 13.653-20.48 34.133-54.613s51.2-71.68 88.747-112.64c37.547-40.96 85.333-75.093 139.947-109.227s119.467-47.787 191.147-47.787 136.533 17.067 191.147 47.787c54.613 34.133 102.4 68.267 143.36 109.227 37.547 40.96 68.267 78.507 88.747 116.053zM768 287.573c-30.72-30.72-71.68-54.613-112.64-78.507-44.373-23.893-92.16-34.133-143.36-34.133s-98.987 10.24-143.36 34.133c-40.96 20.48-81.92 47.787-112.64 78.507s-58.027 61.44-81.92 88.747c-20.48 30.72-37.547 54.613-44.373 68.267v0 0c6.827 13.653 23.893 37.547 44.373 68.267s47.787 61.44 81.92 88.747c30.72 30.72 71.68 54.613 112.64 78.507 44.373 23.893 92.16 34.133 143.36 34.133s98.987-10.24 143.36-34.133c40.96-23.893 81.92-47.787 112.64-78.507s58.027-61.44 81.92-88.747c20.48-30.72 37.547-51.2 44.373-68.267v0 0c-10.24-17.067-23.893-37.547-44.373-68.267-23.893-27.307-51.2-58.027-81.92-88.747z" />
<glyph unicode="&#xe90a;" glyph-name="github" d="M512 908.8c126.293 0 235.52-47.787 327.68-139.947 88.747-92.16 133.12-204.8 133.12-334.507 0-102.4-30.72-194.56-88.747-276.48s-133.12-139.947-225.28-170.667h-10.24c-17.067 0-23.893 6.827-23.893 23.893 0 0 0 17.067 0 47.787s0 58.027 0 81.92c0 40.96-10.24 68.267-34.133 88.747 61.44 6.827 112.64 27.307 153.6 61.44 37.547 30.72 58.027 88.747 58.027 170.667 0 47.787-17.067 92.16-47.787 126.293 13.653 40.96 13.653 81.92-3.413 126.293h-10.24c-30.72 0-71.68-17.067-116.053-47.787-40.96 10.24-78.507 17.067-116.053 17.067s-75.093-6.827-116.053-17.067c-47.787 34.133-85.333 47.787-116.053 47.787h-6.827c-17.067-44.373-17.067-85.333-3.413-126.293-30.72-34.133-47.787-78.507-47.787-126.293 0-81.92 20.48-139.947 58.027-170.667s88.747-51.2 153.6-61.44c-13.653-13.653-23.893-37.547-27.307-64.853-17.067-6.827-34.133-13.653-54.613-13.653-34.133 0-61.44 17.067-81.92 51.2-17.067 30.72-40.96 47.787-71.68 47.787-27.307 0-30.72-10.24-3.413-27.307 20.48-10.24 37.547-34.133 51.2-68.267 0-6.827 3.413-13.653 6.827-20.48s17.067-17.067 34.133-30.72c17.067-13.653 40.96-17.067 68.267-17.067 20.48 0 34.133 0 44.373 3.413v-81.92c0-13.653-6.827-23.893-23.893-23.893h-6.827c-92.16 30.72-170.667 88.747-228.693 170.667s-88.747 174.080-88.747 279.893c0 129.707 44.373 242.347 133.12 334.507 95.573 92.16 204.8 139.947 331.093 139.947z" />
<glyph unicode="&#xe90b;" glyph-name="share" d="M604.16 174.933c-13.653-47.787 13.653-105.813 47.787-139.947 64.853-64.853 167.253-64.853 232.107 0 122.88 122.88-17.067 344.747-180.907 266.24-20.48-10.24-37.547-20.48-51.2-37.547h-3.413l-232.107 136.533-3.413 3.413c10.24 17.067 10.24 47.787 6.827 68.267-3.413 6.827-3.413 13.653-6.827 23.893v3.413l228.693 133.12 3.413-3.413c17.067-13.653 34.133-27.307 54.613-37.547 61.44-27.307 133.12-10.24 180.907 34.133 64.853 64.853 64.853 170.667 0 232.107-61.44 68.267-167.253 68.267-232.107 3.413-34.133-34.133-58.027-88.747-44.373-139.947 3.413-6.827 3.413-13.653 6.827-23.893v-3.413h-3.413l-232.107-133.12-3.413 3.413c-13.653 13.653-30.72 27.307-51.2 34.133-61.44 27.307-133.12 10.24-180.907-34.133-64.853-64.853-64.853-167.253 0-232.107 47.787-47.787 119.467-61.44 180.907-34.133 20.48 10.24 37.547 20.48 51.2 34.133l3.413 3.413 3.413-3.413 232.107-136.533c0 3.413-6.827-13.653-6.827-20.48zM679.253 174.933c3.413 6.827 6.827 13.653 10.24 20.48 6.827 13.653 17.067 23.893 30.72 30.72 34.133 20.48 78.507 13.653 105.813-13.653 34.133-34.133 34.133-92.16 0-126.293s-92.16-34.133-126.293 0c-17.067 23.893-27.307 58.027-20.48 88.747zM703.147 806.4c34.133 34.133 92.16 34.133 126.293 0s34.133-92.16 0-126.293c-34.133-34.133-92.16-34.133-126.293 0-34.133 37.547-34.133 92.16 0 126.293zM320.853 383.147c-34.133-34.133-92.16-34.133-126.293 0s-34.133 92.16 0 126.293c81.92 81.92 208.213-44.373 126.293-126.293z" />
<glyph unicode="&#xe90c;" glyph-name="search" d="M955.733 72.533l-242.347 242.347c47.787 64.853 75.093 136.533 75.093 221.867 0 201.387-167.253 368.64-368.64 368.64s-365.227-167.253-365.227-368.64 167.253-368.64 368.64-368.64c85.333 0 163.84 30.72 221.867 75.093l242.347-242.347c10.24-10.24 23.893-13.653 34.133-13.653s23.893 3.413 34.133 13.653c20.48 23.893 20.48 51.2 0 71.68zM423.253 263.68c-146.773 0-269.653 122.88-269.653 269.653s122.88 269.653 269.653 269.653 269.653-122.88 269.653-269.653-122.88-269.653-269.653-269.653z" />
<glyph unicode="&#xe90d;" glyph-name="link" d="M692.907 403.627c-40.96-34.133-95.573-40.96-146.773-23.893-23.893 6.827-44.373 17.067-61.44 37.547-17.067 17.067-30.72 44.373-58.027 37.547-20.48-3.413-30.72-20.48-30.72-40.96 0-23.893 17.067-40.96 34.133-58.027 37.547-34.133 85.333-58.027 136.533-64.853 150.187-20.48 245.76 98.987 341.333 194.56 64.853 68.267 105.813 184.32 51.2 269.653-58.027 95.573-174.080 167.253-286.72 146.773-81.92-13.653-126.293-71.68-184.32-122.88-20.48-20.48-37.547-44.373-20.48-75.093 23.893-34.133 54.613-13.653 75.093 6.827 61.44 61.44 116.053 126.293 215.040 102.4 109.227-30.72 177.493-187.733 78.507-266.24zM488.107 198.827c-47.787-47.787-98.987-112.64-174.080-119.467-119.467-6.827-218.453 129.707-157.013 235.52 13.653 23.893 37.547 44.373 58.027 64.853 23.893 27.307 47.787 54.613 71.68 78.507 13.653 17.067 27.307 34.133 47.787 47.787 47.787 27.307 112.64 37.547 167.253 10.24 27.307-13.653 37.547-40.96 61.44-54.613 20.48-17.067 54.613-6.827 64.853 17.067 20.48 51.2-64.853 98.987-102.4 116.053-102.4 47.787-208.213 13.653-283.307-61.44-37.547-40.96-81.92-78.507-119.467-119.467-85.333-92.16-95.573-221.867-23.893-324.267 88.747-122.88 262.827-133.12 368.64-30.72 23.893 20.48 44.373 44.373 64.853 64.853 10.24 13.653 20.48 27.307 13.653 47.787 0 34.133-34.133 51.2-58.027 27.307z" />
<glyph unicode="&#xe90e;" glyph-name="external-link" d="M894.293 553.813c6.827-6.827 17.067-10.24 30.72-10.24s23.893 3.413 30.72 10.24c6.827 6.827 10.24 17.067 10.24 30.72v279.893c0 3.413 0 3.413 0 10.24 0 3.413 0 6.827-3.413 6.827v0c0 3.413-3.413 6.827-6.827 10.24s-6.827 6.827-13.653 10.24v0c0 0-3.413 3.413-6.827 3.413s-6.827 0-10.24 0h-276.48c-13.653 0-23.893-3.413-30.72-10.24s-10.24-17.067-10.24-30.72c0-13.653 3.413-23.893 10.24-30.72s17.067-10.24 30.72-10.24h174.080l-433.493-436.907c-10.24-10.24-13.653-17.067-13.653-30.72 0-10.24 3.413-20.48 13.653-30.72 3.413-3.413 6.827-6.827 13.653-10.24 3.413-3.413 10.24-3.413 17.067-3.413s10.24 0 17.067 3.413c3.413 3.413 10.24 3.413 13.653 10.24l433.493 436.907v-174.080c0-13.653 3.413-23.893 10.24-34.133zM464.213 765.44h-276.48c-37.547 0-68.267-10.24-95.573-37.547-23.893-23.893-37.547-58.027-37.547-95.573v-505.173c0-37.547 13.653-71.68 37.547-95.573 27.307-27.307 58.027-37.547 95.573-37.547h508.587c37.547 0 71.68 13.653 95.573 37.547 27.307 27.307 37.547 58.027 37.547 95.573v276.48c0 13.653-3.413 23.893-13.653 30.72-6.827 6.827-17.067 13.653-30.72 13.653s-23.893-3.413-30.72-13.653c-6.827-6.827-13.653-17.067-13.653-30.72v-276.48c0-13.653-3.413-27.307-13.653-37.547s-20.48-13.653-34.133-13.653h-505.173c-13.653 0-27.307 3.413-34.133 13.653-10.24 10.24-13.653 20.48-13.653 37.547v505.173c0 13.653 3.413 27.307 13.653 37.547s20.48 13.653 34.133 13.653h276.48c13.653 0 23.893 3.413 30.72 10.24s10.24 17.067 10.24 30.72c0 13.653-3.413 23.893-10.24 30.72s-17.067 10.24-30.72 10.24z" />
<glyph unicode="&#xe90f;" glyph-name="comment" d="M54.613 34.987c0-10.24 3.413-17.067 6.827-23.893s10.24-13.653 20.48-13.653v0 0c3.413-3.413 3.413-3.413 6.827-3.413s6.827 0 10.24 0 13.653 0 17.067 3.413 10.24 6.827 13.653 10.24l170.667 170.667h535.893c37.547 0 71.68 13.653 95.573 37.547 27.307 27.307 37.547 58.027 37.547 95.573v457.387c0 37.547-13.653 71.68-37.547 95.573-27.307 27.307-58.027 37.547-95.573 37.547h-648.533c-37.547 3.413-68.267-10.24-95.573-34.133-23.893-27.307-37.547-58.027-37.547-98.987v-733.867zM153.6 802.987c10.24 10.24 20.48 13.653 34.133 13.653h645.12c13.653 0 27.307-3.413 34.133-13.653 10.24-10.24 13.653-20.48 13.653-34.133v-457.387c0-13.653-3.413-27.307-13.653-34.133-10.24-10.24-20.48-13.653-34.133-13.653h-549.547c-6.827 0-13.653 0-17.067-3.413s-10.24-6.827-13.653-10.24l-109.227-109.227v628.053c0 0 0 27.307 10.24 34.133z" />
<glyph unicode="&#xe910;" glyph-name="attention" d="M925.013 891.733l-266.24-177.493h-382.293c-34.133 0-64.853-3.413-92.16-13.653-30.72-10.24-54.613-23.893-75.093-40.96-23.893-17.067-40.96-40.96-51.2-64.853s-17.067-54.613-17.067-88.747c0-27.307 3.413-54.613 13.653-75.093 10.24-23.893 20.48-44.373 37.547-61.44s34.133-34.133 58.027-44.373c20.48-10.24 44.373-20.48 71.68-23.893 0-3.413 0-13.653 0-40.96 0-23.893 0-51.2 0-81.92 0-27.307 0-54.613 0-78.507s0-37.547 0-37.547c0-17.067 6.827-30.72 17.067-40.96 6.827-10.24 20.48-17.067 37.547-17.067h88.747c17.067 0 30.72 6.827 40.96 17.067s17.067 23.893 17.067 40.96v235.52h235.52l266.24-177.493c17.067 0 30.72 6.827 40.96 17.067s17.067 23.893 17.067 40.96v655.36c0 17.067-6.827 30.72-17.067 40.96s-23.893 17.067-40.96 17.067zM358.4 72.533c-3.413-10.24-17.067-10.24-23.893-10.24h-30.72c-6.827 0-17.067 0-23.893 6.827s-6.827 17.067-6.827 23.893v208.213c0 0 13.653 0 37.547 0s40.96 0 51.2 0c0 0 0-157.013 0-208.213 0 0 0-17.067-3.413-20.48zM512 359.253h-235.52c-30.72 0-64.853 6.827-109.227 23.893s-68.267 58.027-68.267 122.88 20.48 105.813 64.853 122.88 81.92 23.893 112.64 23.893h235.52v-293.547zM658.773 359.253h-88.747v296.96h88.747c0 0 0-13.653 0-40.96s0-58.027 0-95.573c0-34.133 0-68.267 0-98.987 0-34.133 0-54.613 0-61.44zM925.013 181.76l-208.213 146.773v354.987l208.213 146.773v-648.533z" />
<glyph unicode="&#xe911;" glyph-name="example" d="M819.2 854.187c-68.267-30.72-139.947-40.96-208.213-20.48-95.573 30.72-180.907 75.093-283.307 75.093-44.373 0-85.333-3.413-122.88-23.893-17.067-6.827-51.2-17.067-61.44-34.133s-6.827-44.373-6.827-61.44c0-201.387 0-399.36 0-600.747 0-54.613-6.827-109.227 0-163.84 6.827-47.787 68.267-47.787 75.093 0 0 13.653 0 23.893 0 37.547 0 54.613 0 105.813 0 160.427 0 20.48-3.413 44.373 0 64.853 0 17.067 0 13.653 17.067 20.48 95.573 37.547 187.733 3.413 276.48-27.307 92.16-34.133 180.907-54.613 276.48-30.72 37.547 10.24 98.987 34.133 102.4 78.507 6.827 85.333 0 174.080 0 262.827 0 51.2 0 105.813 0 157.013 0 27.307 3.413 54.613 0 81.92 0 30.72-37.547 44.373-64.853 23.893zM812.373 342.187c-102.4-37.547-204.8-17.067-303.787 27.307-47.787 20.48-98.987 37.547-150.187 37.547-47.787 0-95.573-13.653-143.36-17.067 0 98.987 0 194.56 0 293.547 0 27.307 0 54.613 0 81.92 0 10.24 0 44.373 0 44.373s64.853 20.48 81.92 20.48c64.853 3.413 112.64-10.24 170.667-30.72s112.64-51.2 177.493-58.027c58.027-3.413 109.227 13.653 163.84 17.067 0-71.68 0-143.36 0-215.040 0-47.787 0-95.573 0-139.947 0-10.24 3.413-47.787 3.413-61.44z" />
<glyph unicode="&#xe912;" glyph-name="procedure" d="M208.213 400.213h64.853v-64.853h-64.853v64.853zM208.213 557.227h64.853v-64.853h-64.853v64.853zM208.213 246.613h64.853v-64.853h-64.853v64.853zM361.813 246.613h218.453v-64.853h-218.453v64.853zM948.907 881.493c-20.48 17.067-37.547 27.307-64.853 27.307h-744.107c-27.307 0-44.373-10.24-64.853-27.307-17.067-17.067-23.893-37.547-23.893-61.44v-740.693c0-27.307 10.24-44.373 27.307-64.853s37.547-27.307 64.853-27.307h583.68c3.413 0 10.24 3.413 13.653 6.827l232.107 273.067c3.413 3.413 3.413 6.827 3.413 10.24v542.72c0 23.893-10.24 47.787-27.307 61.44zM768 325.12c-27.307 0-47.787-10.24-64.853-27.307s-27.307-37.547-27.307-64.853v-184.32h-535.893c-6.827 0-13.653 3.413-20.48 6.827-6.827 6.827-6.827 10.24-6.827 20.48v576.853h795.307v-327.68h-139.947zM740.693 232.96c0 6.827 3.413 13.653 6.827 20.48 6.827 6.827 10.24 6.827 20.48 6.827h116.053l-139.947-167.253v139.947c0 0-3.413 0-3.413 0zM116.053 717.653v102.4c0 6.827 3.413 13.653 6.827 20.48s10.24 6.827 20.48 6.827h740.693c6.827 0 13.653-3.413 20.48-6.827 6.827-6.827 6.827-10.24 6.827-20.48v-105.813l-795.307 3.413zM361.813 400.213h283.307v-64.853h-283.307v64.853zM361.813 557.227h443.733v-64.853h-443.733v64.853z" />
<glyph unicode="&#xe913;" glyph-name="hint" d="M191.147 533.333c-27.307-3.413-44.373-13.653-54.613-30.72-10.24-20.48-13.653-40.96-3.413-64.853 20.48-47.787 64.853-112.64 133.12-180.907l-143.36-143.36c-17.067-17.067-34.133-37.547-51.2-68.267s-23.893-44.373-20.48-51.2c6.827-6.827 23.893 0 51.2 20.48 27.307 17.067 51.2 34.133 68.267 51.2l143.36 146.773c75.093-68.267 133.12-112.64 180.907-133.12 20.48-10.24 40.96-6.827 64.853 3.413s30.72 30.72 30.72 51.2c3.413 34.133-10.24 75.093-37.547 119.467l245.76 245.76c30.72-17.067 64.853-27.307 95.573-30.72 27.307-3.413 47.787 3.413 68.267 23.893 17.067 20.48 17.067 44.373 3.413 71.68-30.72 54.613-81.92 116.053-150.187 187.733-75.093 75.093-136.533 122.88-194.56 150.187-23.893 10.24-47.787 6.827-71.68-6.827s-34.133-30.72-27.307-58.027c3.413-30.72 13.653-64.853 30.72-98.987l-249.173-245.76c-40.96 30.72-78.507 40.96-112.64 40.96zM614.4 768.853c-13.653 27.307-23.893 51.2-27.307 75.093 47.787-23.893 109.227-71.68 174.080-136.533s112.64-122.88 136.533-170.667c-23.893 3.413-47.787 10.24-75.093 23.893l-40.96 20.48-320.853-320.853 27.307-44.373c20.48-34.133 30.72-64.853 27.307-85.333-47.787 20.48-112.64 71.68-187.733 143.36s-122.88 136.533-143.36 187.733c27.307 3.413 54.613-6.827 88.747-30.72l44.373-27.307 317.44 317.44-20.48 47.787z" />
<glyph unicode="&#xe914;" glyph-name="note" d="M942.080 881.493c-17.067 17.067-40.96 27.307-68.267 27.307h-730.453c-27.307 0-47.787-10.24-68.267-27.307-17.067-17.067-27.307-40.96-27.307-68.267v-730.453c0-27.307 10.24-47.787 27.307-68.267s40.96-27.307 68.267-27.307h580.267c3.413 0 10.24 3.413 13.653 6.827l232.107 269.653c3.413 3.413 3.413 6.827 3.413 10.24v539.307c-3.413 27.307-13.653 51.2-30.72 68.267zM122.88 717.653v95.573c0 6.827 3.413 10.24 6.827 13.653s6.827 6.827 13.653 6.827h730.453c6.827 0 10.24-3.413 13.653-6.827s6.827-6.827 6.827-13.653v-95.573c0 0-771.413 0-771.413 0zM894.293 331.947h-136.533c-27.307 0-47.787-10.24-68.267-27.307-17.067-17.067-27.307-40.96-27.307-68.267v-174.080h-518.827c-6.827 0-10.24 3.413-13.653 6.827s-6.827 6.827-6.827 13.653v559.787h771.413v-310.613zM737.28 113.493v122.88c0 6.827 3.413 10.24 6.827 13.653s6.827 6.827 13.653 6.827h102.4l-122.88-143.36z" />
<glyph unicode="&#xe915;" glyph-name="step" d="M744.107 908.8h-464.213c-34.133 0-61.44-27.307-61.44-61.44v-614.4c0-17.067 6.827-34.133 23.893-47.787l232.107-187.733c10.24-10.24 23.893-13.653 37.547-13.653s27.307 3.413 37.547 13.653l232.107 187.733c13.653 10.24 23.893 27.307 23.893 47.787v614.4c0 34.133-27.307 61.44-61.44 61.44z" />
<glyph unicode="&#xe916;" glyph-name="pdf" d="M245.76 652.8h535.893c27.307 0 47.787-10.24 68.267-27.307 17.067-17.067 27.307-40.96 27.307-68.267v-221.867c0-27.307-10.24-47.787-27.307-68.267-17.067-17.067-40.96-27.307-68.267-27.307h-535.893c-27.307 0-47.787 10.24-68.267 27.307-17.067 17.067-27.307 40.96-27.307 68.267v221.867c0 27.307 10.24 47.787 27.307 68.267 17.067 17.067 40.96 27.307 68.267 27.307zM245.76 622.080c-17.067 0-34.133-6.827-44.373-17.067-13.653-13.653-17.067-27.307-17.067-44.373v-221.867c0-17.067 6.827-34.133 17.067-44.373 13.653-13.653 27.307-17.067 44.373-17.067h535.893c17.067 0 34.133 6.827 44.373 17.067 13.653 13.653 17.067 27.307 17.067 44.373v221.867c0 17.067-6.827 34.133-17.067 44.373-13.653 13.653-27.307 17.067-44.373 17.067h-535.893zM655.36 465.067v61.44h126.293v30.72h-157.013v-221.867h30.72v95.573h95.573v30.72h-95.573zM245.76 495.787v61.44h95.573c17.067 0 34.133-6.827 44.373-17.067 13.653-13.653 17.067-27.307 17.067-44.373s-6.827-34.133-17.067-44.373c-13.653-13.653-27.307-17.067-44.373-17.067h-64.853v-95.573h-30.72v157.013zM276.48 526.507v-61.44h61.44c10.24 0 17.067 3.413 20.48 10.24 6.827 6.827 10.24 13.653 10.24 20.48 0 10.24-3.413 17.067-10.24 20.48-6.827 6.827-13.653 10.24-20.48 10.24h-61.44zM433.493 557.227h95.573c17.067 0 34.133-6.827 44.373-17.067 13.653-13.653 17.067-27.307 17.067-44.373v-95.573c0-17.067-6.827-34.133-17.067-44.373-13.653-13.653-27.307-17.067-44.373-17.067h-95.573v218.453zM464.213 526.507v-157.013h61.44c10.24 0 17.067 3.413 20.48 10.24 6.827 6.827 10.24 13.653 10.24 20.48v95.573c0 10.24-3.413 17.067-10.24 20.48-6.827 6.827-13.653 10.24-20.48 10.24h-61.44z" />
<glyph unicode="&#xe917;" glyph-name="html" d="M150.187 652.8h723.627c27.307 0 47.787-10.24 68.267-27.307 17.067-17.067 27.307-40.96 27.307-68.267v-218.453c0-27.307-10.24-47.787-27.307-68.267s-40.96-27.307-68.267-27.307h-723.627c-27.307 0-47.787 10.24-68.267 27.307s-27.307 40.96-27.307 68.267v218.453c0 27.307 10.24 47.787 27.307 68.267 20.48 17.067 40.96 27.307 68.267 27.307zM150.187 618.667c-17.067 0-30.72-6.827-44.373-20.48s-20.48-27.307-20.48-44.373v-218.453c0-17.067 6.827-34.133 20.48-44.373 13.653-13.653 27.307-17.067 44.373-17.067h723.627c17.067 0 30.72 6.827 44.373 20.48s20.48 27.307 20.48 44.373v218.453c0 17.067-6.827 34.133-20.48 44.373-13.653 13.653-27.307 17.067-44.373 17.067 0 0-723.627 0-723.627 0zM873.813 369.493v-30.72h-157.013v218.453h34.133v-191.147h122.88zM399.36 523.093v-191.147h30.72v191.147h64.853v30.72h-157.013v-30.72c0 0 61.44 0 61.44 0zM276.48 461.653v95.573h30.72v-218.453h-30.72v95.573h-95.573v-95.573h-30.72v218.453h30.72v-95.573c0 0 95.573 0 95.573 0zM607.573 461.653l-47.787 95.573h-30.72v-218.453h30.72v160.427l30.72-64.853h30.72l30.72 64.853v-160.427h30.72v218.453h-30.72l-44.373-95.573z" />
<glyph unicode="&#xe918;" glyph-name="user" horiz-adv-x="960" d="M684.8 345.6h-409.6c-35.2 0-67.2-6.4-99.2-19.2s-57.6-32-83.2-54.4-41.6-51.2-54.4-80c-12.8-32-19.2-64-19.2-102.4v-102.4c0-16 3.2-28.8 12.8-38.4s22.4-12.8 38.4-12.8c16 0 28.8 3.2 35.2 12.8 9.6 9.6 12.8 22.4 12.8 38.4v102.4c0 44.8 16 80 44.8 108.8s67.2 44.8 108.8 44.8h409.6c44.8 0 80-16 108.8-44.8s44.8-67.2 44.8-108.8v-102.4c0-16 3.2-28.8 12.8-38.4s22.4-12.8 35.2-12.8c16 0 28.8 3.2 38.4 12.8s12.8 22.4 12.8 38.4v102.4c0 35.2-6.4 70.4-19.2 102.4s-32 57.6-54.4 80-51.2 41.6-83.2 54.4c-22.4 12.8-57.6 19.2-92.8 19.2zM480 448c35.2 0 70.4 6.4 102.4 19.2s57.6 32 80 54.4c22.4 22.4 41.6 51.2 54.4 80 12.8 32 19.2 64 19.2 102.4 0 35.2-6.4 70.4-19.2 102.4s-32 57.6-54.4 80c-22.4 22.4-51.2 41.6-80 54.4-32 12.8-64 19.2-102.4 19.2s-70.4-6.4-102.4-19.2c-32-12.8-57.6-32-80-54.4s-41.6-51.2-54.4-80c-12.8-32-19.2-67.2-19.2-102.4s6.4-70.4 19.2-102.4c12.8-32 32-57.6 54.4-80s51.2-41.6 80-54.4c32-12.8 67.2-19.2 102.4-19.2zM480 857.6c44.8 0 80-16 108.8-44.8s44.8-67.2 44.8-108.8-16-80-44.8-108.8c-28.8-28.8-67.2-44.8-108.8-44.8s-80 16-108.8 44.8c-28.8 28.8-44.8 67.2-44.8 108.8s16 80 44.8 108.8 64 44.8 108.8 44.8z" />
<glyph unicode="&#xe919;" glyph-name="docs" d="M441.6 441.6h284.8c9.6 0 19.2 3.2 25.6 9.6s9.6 16 9.6 25.6c0 9.6-3.2 19.2-9.6 25.6s-16 9.6-25.6 9.6h-284.8c-9.6 0-19.2-3.2-25.6-9.6s-9.6-16-9.6-25.6c0-9.6 3.2-19.2 9.6-25.6s16-9.6 25.6-9.6zM729.6 960v0h-384c-35.2 0-64-12.8-89.6-41.6-25.6-25.6-38.4-54.4-41.6-86.4h-32c-35.2 0-64-12.8-89.6-41.6-22.4-25.6-35.2-54.4-35.2-89.6v-633.6c0-32 12.8-64 38.4-89.6 25.6-28.8 57.6-41.6 92.8-41.6h476.8c35.2 0 67.2 12.8 92.8 41.6 25.6 25.6 38.4 54.4 38.4 86.4h28.8c35.2 0 67.2 12.8 92.8 41.6 25.6 25.6 38.4 57.6 38.4 89.6v508.8l-227.2 256zM288 828.8c0 16 6.4 28.8 19.2 41.6s25.6 19.2 41.6 19.2h313.6v-124.8c0-35.2 12.8-64 38.4-89.6s57.6-38.4 92.8-38.4h89.6v-441.6c0-16-6.4-28.8-19.2-41.6s-25.6-19.2-41.6-19.2h-476.8c-16 0-28.8 6.4-41.6 19.2-9.6 12.8-16 25.6-16 41.6v633.6zM790.4 707.2c-16 0-28.8 9.6-41.6 32s-19.2 41.6-19.2 57.6v83.2l144-172.8h-83.2zM256 102.4c25.6-25.6 57.6-41.6 92.8-41.6h377.6c0-12.8-6.4-25.6-19.2-35.2-12.8-12.8-25.6-19.2-41.6-19.2h-476.8c-16 0-28.8 6.4-41.6 19.2s-19.2 25.6-19.2 41.6v633.6c0 16 6.4 28.8 16 41.6s25.6 19.2 38.4 19.2h28.8v-566.4c3.2-35.2 16-64 44.8-92.8zM441.6 284.8h284.8c9.6 0 19.2 3.2 25.6 9.6s9.6 16 9.6 25.6c0 9.6-3.2 19.2-9.6 25.6s-16 9.6-25.6 9.6h-284.8c-9.6 0-19.2-3.2-25.6-9.6s-9.6-16-9.6-25.6c0-9.6 3.2-19.2 9.6-25.6s16-9.6 25.6-9.6z" />
<glyph unicode="&#xe91a;" glyph-name="project" d="M1024 704c0 12.8-12.8 25.6-25.6 25.6h-547.2c-9.6 0-22.4 6.4-25.6 16l-44.8 73.6c-12.8 12.8-28.8 22.4-48 22.4h-332.8v-774.4c0-12.8 12.8-25.6 25.6-25.6h972.8c12.8 0 25.6 12.8 25.6 25.6v636.8zM966.4 134.4c0-16-12.8-32-32-32h-844.8c-16 0-32 12.8-32 32v332.8c0 0 0 3.2 3.2 3.2h902.4c0 0 3.2 0 3.2-3.2v-332.8zM966.4 531.2c0-3.2-3.2-3.2 0 0l-905.6-3.2c0 0-3.2 0-3.2 3.2v249.6c0 0 0 3.2 3.2 3.2h224c22.4 0 41.6-12.8 51.2-28.8l38.4-70.4c6.4-9.6 16-12.8 25.6-12.8h534.4c16 0 32-12.8 32-32v-108.8z" />
<glyph unicode="&#xe91b;" glyph-name="publisher" d="M1011.2 608l-476.8 339.2c-12.8 6.4-25.6 6.4-38.4 0l-483.2-339.2c-12.8-9.6-16-22.4-12.8-35.2s16-22.4 32-22.4h960c12.8 0 25.6 9.6 32 22.4 3.2 12.8-3.2 28.8-12.8 35.2zM134.4 614.4l380.8 265.6 374.4-265.6h-755.2zM950.4 137.6h-76.8v313.6c0 12.8-16 22.4-32 22.4-19.2 0-32-9.6-32-22.4v-313.6h-99.2v313.6c0 12.8-16 22.4-32 22.4s-32-9.6-32-22.4v-313.6h-102.4v313.6c0 12.8-16 22.4-32 22.4-19.2 0-32-9.6-32-22.4v-313.6h-99.2v313.6c0 12.8-16 22.4-32 22.4-19.2 0-32-9.6-32-22.4v-313.6h-102.4v313.6c0 12.8-16 22.4-32 22.4s-32-9.6-32-22.4v-313.6h-76.8c-19.2 0-35.2-16-35.2-35.2v-128c0-19.2 16-35.2 35.2-35.2h876.8c19.2 0 35.2 16 35.2 35.2v128c0 19.2-16 35.2-35.2 35.2zM918.4 9.6h-812.8v60.8h809.6v-60.8z" />
<glyph unicode="&#xe91c;" glyph-name="check" d="M936.589 534.4c-12.8 0-25.6-3.2-32-12.8-9.6-9.6-12.8-19.2-12.8-32v-41.6c0-54.4-9.6-108.8-32-156.8s-48-89.6-86.4-128c-35.2-35.2-80-64-128-86.4s-102.4-32-156.8-32v0 0c-54.4 0-108.8 9.6-156.8 32s-89.6 48-128 86.4c-35.2 35.2-64 80-86.4 128s-32 102.4-32 156.8 9.6 108.8 32 156.8 48 89.6 86.4 128c35.2 35.2 80 64 128 86.4s102.4 32 156.8 32v0 0c28.8 0 57.6-3.2 83.2-9.6s54.4-16 80-25.6c9.6-6.4 22.4-6.4 35.2 0 12.8 3.2 19.2 12.8 22.4 22.4 6.4 9.6 6.4 22.4 0 35.2-3.2 12.8-12.8 19.2-22.4 22.4-32 12.8-64 25.6-96 32s-67.2 9.6-102.4 9.6v0 0c-67.2 0-131.2-12.8-192-38.4-57.6-25.6-108.8-60.8-153.6-105.6s-80-96-105.6-156.8-38.4-124.8-38.4-192 12.8-131.2 38.4-192 60.8-112 105.6-156.8 96-80 156.8-105.6c57.6-25.6 121.6-38.4 192-38.4v0 0c67.2 0 131.2 12.8 192 38.4s112 60.8 156.8 105.6 80 96 105.6 156.8c25.6 57.6 38.4 121.6 38.4 192v38.4c0 12.8-3.2 25.6-12.8 32-12.8 12.8-22.4 19.2-35.2 19.2zM1010.189 880c-9.6 9.6-19.2 12.8-32 12.8s-22.4-3.2-32-12.8l-457.6-457.6-102.4 102.4c-9.6 9.6-19.2 12.8-32 12.8s-22.4-3.2-32-12.8c-9.6-9.6-12.8-19.2-12.8-32s3.2-22.4 12.8-32l134.4-134.4c6.4-3.2 9.6-6.4 16-9.6s9.6-3.2 16-3.2c3.2 0 9.6 0 16 3.2s12.8 6.4 16 9.6l489.6 492.8c9.6 9.6 12.8 19.2 12.8 32s-3.2 19.2-12.8 28.8z" />
<glyph unicode="&#xe91d;" glyph-name="not" d="M512 960c-70.4 0-137.6-12.8-198.4-41.6-64-25.6-118.4-64-163.2-108.8-44.8-48-83.2-99.2-108.8-163.2s-38.4-128-38.4-198.4c0-70.4 12.8-137.6 38.4-198.4 25.6-64 64-118.4 108.8-163.2s99.2-83.2 163.2-108.8c60.8-25.6 128-41.6 198.4-41.6s137.6 12.8 198.4 41.6c64 25.6 118.4 64 163.2 108.8s83.2 99.2 108.8 163.2c25.6 60.8 38.4 128 38.4 198.4s-12.8 137.6-38.4 198.4c-25.6 60.8-64 115.2-108.8 163.2s-99.2 83.2-163.2 108.8c-60.8 28.8-128 41.6-198.4 41.6zM512 28.8c-57.6 0-112 9.6-163.2 32s-96 51.2-134.4 89.6c-38.4 38.4-67.2 83.2-89.6 134.4s-32 105.6-32 163.2 9.6 112 32 163.2 51.2 96 89.6 134.4c38.4 38.4 83.2 67.2 134.4 89.6s105.6 32 163.2 32c57.6 0 112-9.6 163.2-32s96-51.2 134.4-89.6c38.4-38.4 67.2-83.2 89.6-134.4s32-105.6 32-163.2-9.6-112-32-163.2c-22.4-51.2-51.2-96-89.6-134.4s-83.2-67.2-134.4-89.6c-51.2-19.2-105.6-32-163.2-32zM684.8 620.8c-9.6 9.6-19.2 12.8-32 12.8s-22.4-3.2-32-12.8l-108.8-108.8-105.6 108.8c-9.6 9.6-19.2 12.8-32 12.8s-22.4-3.2-32-12.8c-9.6-9.6-12.8-19.2-12.8-32s3.2-22.4 12.8-32l105.6-108.8-105.6-105.6c-9.6-9.6-12.8-19.2-12.8-32s3.2-22.4 12.8-32c6.4-6.4 9.6-9.6 16-9.6 3.2-3.2 9.6-3.2 19.2-3.2 6.4 0 12.8 0 19.2 3.2 3.2 3.2 9.6 6.4 16 9.6l99.2 105.6 105.6-105.6c6.4-6.4 9.6-9.6 16-9.6 6.4-3.2 12.8-3.2 16-3.2s9.6 0 16 3.2c6.4 3.2 12.8 6.4 16 9.6 9.6 9.6 12.8 19.2 12.8 32s-3.2 22.4-12.8 32l-105.6 105.6 105.6 105.6c9.6 9.6 12.8 19.2 12.8 32 3.2 16 0 25.6-9.6 35.2z" />
<glyph unicode="user" glyph-name="user" horiz-adv-x="960" d="M684.8 345.6h-409.6c-35.2 0-67.2-6.4-99.2-19.2s-57.6-32-83.2-54.4-41.6-51.2-54.4-80c-12.8-32-19.2-64-19.2-102.4v-102.4c0-16 3.2-28.8 12.8-38.4s22.4-12.8 38.4-12.8c16 0 28.8 3.2 35.2 12.8 9.6 9.6 12.8 22.4 12.8 38.4v102.4c0 44.8 16 80 44.8 108.8s67.2 44.8 108.8 44.8h409.6c44.8 0 80-16 108.8-44.8s44.8-67.2 44.8-108.8v-102.4c0-16 3.2-28.8 12.8-38.4s22.4-12.8 35.2-12.8c16 0 28.8 3.2 38.4 12.8s12.8 22.4 12.8 38.4v102.4c0 35.2-6.4 70.4-19.2 102.4s-32 57.6-54.4 80-51.2 41.6-83.2 54.4c-22.4 12.8-57.6 19.2-92.8 19.2zM480 448c35.2 0 70.4 6.4 102.4 19.2s57.6 32 80 54.4c22.4 22.4 41.6 51.2 54.4 80 12.8 32 19.2 64 19.2 102.4 0 35.2-6.4 70.4-19.2 102.4s-32 57.6-54.4 80c-22.4 22.4-51.2 41.6-80 54.4-32 12.8-64 19.2-102.4 19.2s-70.4-6.4-102.4-19.2c-32-12.8-57.6-32-80-54.4s-41.6-51.2-54.4-80c-12.8-32-19.2-67.2-19.2-102.4s6.4-70.4 19.2-102.4c12.8-32 32-57.6 54.4-80s51.2-41.6 80-54.4c32-12.8 67.2-19.2 102.4-19.2zM480 857.6c44.8 0 80-16 108.8-44.8s44.8-67.2 44.8-108.8-16-80-44.8-108.8c-28.8-28.8-67.2-44.8-108.8-44.8s-80 16-108.8 44.8c-28.8 28.8-44.8 67.2-44.8 108.8s16 80 44.8 108.8 64 44.8 108.8 44.8z" />
<glyph unicode="step" glyph-name="step" d="M744.107 908.8h-464.213c-34.133 0-61.44-27.307-61.44-61.44v-614.4c0-17.067 6.827-34.133 23.893-47.787l232.107-187.733c10.24-10.24 23.893-13.653 37.547-13.653s27.307 3.413 37.547 13.653l232.107 187.733c13.653 10.24 23.893 27.307 23.893 47.787v614.4c0 34.133-27.307 61.44-61.44 61.44z" />
<glyph unicode="share" glyph-name="share" d="M604.16 174.933c-13.653-47.787 13.653-105.813 47.787-139.947 64.853-64.853 167.253-64.853 232.107 0 122.88 122.88-17.067 344.747-180.907 266.24-20.48-10.24-37.547-20.48-51.2-37.547h-3.413l-232.107 136.533-3.413 3.413c10.24 17.067 10.24 47.787 6.827 68.267-3.413 6.827-3.413 13.653-6.827 23.893v3.413l228.693 133.12 3.413-3.413c17.067-13.653 34.133-27.307 54.613-37.547 61.44-27.307 133.12-10.24 180.907 34.133 64.853 64.853 64.853 170.667 0 232.107-61.44 68.267-167.253 68.267-232.107 3.413-34.133-34.133-58.027-88.747-44.373-139.947 3.413-6.827 3.413-13.653 6.827-23.893v-3.413h-3.413l-232.107-133.12-3.413 3.413c-13.653 13.653-30.72 27.307-51.2 34.133-61.44 27.307-133.12 10.24-180.907-34.133-64.853-64.853-64.853-167.253 0-232.107 47.787-47.787 119.467-61.44 180.907-34.133 20.48 10.24 37.547 20.48 51.2 34.133l3.413 3.413 3.413-3.413 232.107-136.533c0 3.413-6.827-13.653-6.827-20.48zM679.253 174.933c3.413 6.827 6.827 13.653 10.24 20.48 6.827 13.653 17.067 23.893 30.72 30.72 34.133 20.48 78.507 13.653 105.813-13.653 34.133-34.133 34.133-92.16 0-126.293s-92.16-34.133-126.293 0c-17.067 23.893-27.307 58.027-20.48 88.747zM703.147 806.4c34.133 34.133 92.16 34.133 126.293 0s34.133-92.16 0-126.293c-34.133-34.133-92.16-34.133-126.293 0-34.133 37.547-34.133 92.16 0 126.293zM320.853 383.147c-34.133-34.133-92.16-34.133-126.293 0s-34.133 92.16 0 126.293c81.92 81.92 208.213-44.373 126.293-126.293z" />
<glyph unicode="search" glyph-name="search" d="M955.733 72.533l-242.347 242.347c47.787 64.853 75.093 136.533 75.093 221.867 0 201.387-167.253 368.64-368.64 368.64s-365.227-167.253-365.227-368.64 167.253-368.64 368.64-368.64c85.333 0 163.84 30.72 221.867 75.093l242.347-242.347c10.24-10.24 23.893-13.653 34.133-13.653s23.893 3.413 34.133 13.653c20.48 23.893 20.48 51.2 0 71.68zM423.253 263.68c-146.773 0-269.653 122.88-269.653 269.653s122.88 269.653 269.653 269.653 269.653-122.88 269.653-269.653-122.88-269.653-269.653-269.653z" />
<glyph unicode="publisher" glyph-name="publisher" d="M1011.2 608l-476.8 339.2c-12.8 6.4-25.6 6.4-38.4 0l-483.2-339.2c-12.8-9.6-16-22.4-12.8-35.2s16-22.4 32-22.4h960c12.8 0 25.6 9.6 32 22.4 3.2 12.8-3.2 28.8-12.8 35.2zM134.4 614.4l380.8 265.6 374.4-265.6h-755.2zM950.4 137.6h-76.8v313.6c0 12.8-16 22.4-32 22.4-19.2 0-32-9.6-32-22.4v-313.6h-99.2v313.6c0 12.8-16 22.4-32 22.4s-32-9.6-32-22.4v-313.6h-102.4v313.6c0 12.8-16 22.4-32 22.4-19.2 0-32-9.6-32-22.4v-313.6h-99.2v313.6c0 12.8-16 22.4-32 22.4-19.2 0-32-9.6-32-22.4v-313.6h-102.4v313.6c0 12.8-16 22.4-32 22.4s-32-9.6-32-22.4v-313.6h-76.8c-19.2 0-35.2-16-35.2-35.2v-128c0-19.2 16-35.2 35.2-35.2h876.8c19.2 0 35.2 16 35.2 35.2v128c0 19.2-16 35.2-35.2 35.2zM918.4 9.6h-812.8v60.8h809.6v-60.8z" />
<glyph unicode="project" glyph-name="project" d="M1024 704c0 12.8-12.8 25.6-25.6 25.6h-547.2c-9.6 0-22.4 6.4-25.6 16l-44.8 73.6c-12.8 12.8-28.8 22.4-48 22.4h-332.8v-774.4c0-12.8 12.8-25.6 25.6-25.6h972.8c12.8 0 25.6 12.8 25.6 25.6v636.8zM966.4 134.4c0-16-12.8-32-32-32h-844.8c-16 0-32 12.8-32 32v332.8c0 0 0 3.2 3.2 3.2h902.4c0 0 3.2 0 3.2-3.2v-332.8zM966.4 531.2c0-3.2-3.2-3.2 0 0l-905.6-3.2c0 0-3.2 0-3.2 3.2v249.6c0 0 0 3.2 3.2 3.2h224c22.4 0 41.6-12.8 51.2-28.8l38.4-70.4c6.4-9.6 16-12.8 25.6-12.8h534.4c16 0 32-12.8 32-32v-108.8z" />
<glyph unicode="procedure" glyph-name="procedure" d="M208.213 400.213h64.853v-64.853h-64.853v64.853zM208.213 557.227h64.853v-64.853h-64.853v64.853zM208.213 246.613h64.853v-64.853h-64.853v64.853zM361.813 246.613h218.453v-64.853h-218.453v64.853zM948.907 881.493c-20.48 17.067-37.547 27.307-64.853 27.307h-744.107c-27.307 0-44.373-10.24-64.853-27.307-17.067-17.067-23.893-37.547-23.893-61.44v-740.693c0-27.307 10.24-44.373 27.307-64.853s37.547-27.307 64.853-27.307h583.68c3.413 0 10.24 3.413 13.653 6.827l232.107 273.067c3.413 3.413 3.413 6.827 3.413 10.24v542.72c0 23.893-10.24 47.787-27.307 61.44zM768 325.12c-27.307 0-47.787-10.24-64.853-27.307s-27.307-37.547-27.307-64.853v-184.32h-535.893c-6.827 0-13.653 3.413-20.48 6.827-6.827 6.827-6.827 10.24-6.827 20.48v576.853h795.307v-327.68h-139.947zM740.693 232.96c0 6.827 3.413 13.653 6.827 20.48 6.827 6.827 10.24 6.827 20.48 6.827h116.053l-139.947-167.253v139.947c0 0-3.413 0-3.413 0zM116.053 717.653v102.4c0 6.827 3.413 13.653 6.827 20.48s10.24 6.827 20.48 6.827h740.693c6.827 0 13.653-3.413 20.48-6.827 6.827-6.827 6.827-10.24 6.827-20.48v-105.813l-795.307 3.413zM361.813 400.213h283.307v-64.853h-283.307v64.853zM361.813 557.227h443.733v-64.853h-443.733v64.853z" />
<glyph unicode="plus" glyph-name="plus" d="M907.947 512.853h-327.68v331.093c0 17.067-6.827 34.133-20.48 47.787-13.653 10.24-30.72 17.067-47.787 17.067s-34.133-6.827-47.787-20.48c-13.653-13.653-20.48-27.307-20.48-47.787v-327.68h-327.68c-17.067 0-34.133-6.827-47.787-20.48-10.24-10.24-17.067-27.307-17.067-44.373s6.827-34.133 20.48-47.787c13.653-13.653 27.307-20.48 47.787-20.48h327.68v-327.68c0-17.067 6.827-34.133 20.48-47.787s27.307-20.48 47.787-20.48 34.133 6.827 47.787 20.48c13.653 13.653 20.48 27.307 20.48 47.787v327.68h327.68c17.067 0 34.133 6.827 47.787 20.48s20.48 27.307 20.48 47.787-6.827 34.133-20.48 47.787c-20.48 10.24-34.133 17.067-51.2 17.067z" />
<glyph unicode="pdf" glyph-name="pdf" d="M245.76 652.8h535.893c27.307 0 47.787-10.24 68.267-27.307 17.067-17.067 27.307-40.96 27.307-68.267v-221.867c0-27.307-10.24-47.787-27.307-68.267-17.067-17.067-40.96-27.307-68.267-27.307h-535.893c-27.307 0-47.787 10.24-68.267 27.307-17.067 17.067-27.307 40.96-27.307 68.267v221.867c0 27.307 10.24 47.787 27.307 68.267 17.067 17.067 40.96 27.307 68.267 27.307zM245.76 622.080c-17.067 0-34.133-6.827-44.373-17.067-13.653-13.653-17.067-27.307-17.067-44.373v-221.867c0-17.067 6.827-34.133 17.067-44.373 13.653-13.653 27.307-17.067 44.373-17.067h535.893c17.067 0 34.133 6.827 44.373 17.067 13.653 13.653 17.067 27.307 17.067 44.373v221.867c0 17.067-6.827 34.133-17.067 44.373-13.653 13.653-27.307 17.067-44.373 17.067h-535.893zM655.36 465.067v61.44h126.293v30.72h-157.013v-221.867h30.72v95.573h95.573v30.72h-95.573zM245.76 495.787v61.44h95.573c17.067 0 34.133-6.827 44.373-17.067 13.653-13.653 17.067-27.307 17.067-44.373s-6.827-34.133-17.067-44.373c-13.653-13.653-27.307-17.067-44.373-17.067h-64.853v-95.573h-30.72v157.013zM276.48 526.507v-61.44h61.44c10.24 0 17.067 3.413 20.48 10.24 6.827 6.827 10.24 13.653 10.24 20.48 0 10.24-3.413 17.067-10.24 20.48-6.827 6.827-13.653 10.24-20.48 10.24h-61.44zM433.493 557.227h95.573c17.067 0 34.133-6.827 44.373-17.067 13.653-13.653 17.067-27.307 17.067-44.373v-95.573c0-17.067-6.827-34.133-17.067-44.373-13.653-13.653-27.307-17.067-44.373-17.067h-95.573v218.453zM464.213 526.507v-157.013h61.44c10.24 0 17.067 3.413 20.48 10.24 6.827 6.827 10.24 13.653 10.24 20.48v95.573c0 10.24-3.413 17.067-10.24 20.48-6.827 6.827-13.653 10.24-20.48 10.24h-61.44z" />
<glyph unicode="note" glyph-name="note" d="M942.080 881.493c-17.067 17.067-40.96 27.307-68.267 27.307h-730.453c-27.307 0-47.787-10.24-68.267-27.307-17.067-17.067-27.307-40.96-27.307-68.267v-730.453c0-27.307 10.24-47.787 27.307-68.267s40.96-27.307 68.267-27.307h580.267c3.413 0 10.24 3.413 13.653 6.827l232.107 269.653c3.413 3.413 3.413 6.827 3.413 10.24v539.307c-3.413 27.307-13.653 51.2-30.72 68.267zM122.88 717.653v95.573c0 6.827 3.413 10.24 6.827 13.653s6.827 6.827 13.653 6.827h730.453c6.827 0 10.24-3.413 13.653-6.827s6.827-6.827 6.827-13.653v-95.573c0 0-771.413 0-771.413 0zM894.293 331.947h-136.533c-27.307 0-47.787-10.24-68.267-27.307-17.067-17.067-27.307-40.96-27.307-68.267v-174.080h-518.827c-6.827 0-10.24 3.413-13.653 6.827s-6.827 6.827-6.827 13.653v559.787h771.413v-310.613zM737.28 113.493v122.88c0 6.827 3.413 10.24 6.827 13.653s6.827 6.827 13.653 6.827h102.4l-122.88-143.36z" />
<glyph unicode="more" glyph-name="more" d="M607.573 813.227c0-52.784-42.79-95.573-95.573-95.573s-95.573 42.79-95.573 95.573c0 52.784 42.79 95.573 95.573 95.573s95.573-42.79 95.573-95.573zM607.573 448c0-52.784-42.79-95.573-95.573-95.573s-95.573 42.79-95.573 95.573c0 52.784 42.79 95.573 95.573 95.573s95.573-42.79 95.573-95.573zM607.573 82.773c0-52.784-42.79-95.573-95.573-95.573s-95.573 42.79-95.573 95.573c0 52.784 42.79 95.573 95.573 95.573s95.573-42.79 95.573-95.573z" />
<glyph unicode="minus" glyph-name="minus" d="M907.947 512.853h-791.893c-17.067 0-34.133-6.827-47.787-20.48-10.24-10.24-17.067-27.307-17.067-44.373s6.827-34.133 20.48-47.787c13.653-13.653 27.307-20.48 47.787-20.48h788.48c17.067 0 34.133 6.827 47.787 20.48s20.48 27.307 20.48 47.787-6.827 34.133-20.48 47.787c-17.067 10.24-30.72 17.067-47.787 17.067z" />
<glyph unicode="link" glyph-name="link" d="M692.907 403.627c-40.96-34.133-95.573-40.96-146.773-23.893-23.893 6.827-44.373 17.067-61.44 37.547-17.067 17.067-30.72 44.373-58.027 37.547-20.48-3.413-30.72-20.48-30.72-40.96 0-23.893 17.067-40.96 34.133-58.027 37.547-34.133 85.333-58.027 136.533-64.853 150.187-20.48 245.76 98.987 341.333 194.56 64.853 68.267 105.813 184.32 51.2 269.653-58.027 95.573-174.080 167.253-286.72 146.773-81.92-13.653-126.293-71.68-184.32-122.88-20.48-20.48-37.547-44.373-20.48-75.093 23.893-34.133 54.613-13.653 75.093 6.827 61.44 61.44 116.053 126.293 215.040 102.4 109.227-30.72 177.493-187.733 78.507-266.24zM488.107 198.827c-47.787-47.787-98.987-112.64-174.080-119.467-119.467-6.827-218.453 129.707-157.013 235.52 13.653 23.893 37.547 44.373 58.027 64.853 23.893 27.307 47.787 54.613 71.68 78.507 13.653 17.067 27.307 34.133 47.787 47.787 47.787 27.307 112.64 37.547 167.253 10.24 27.307-13.653 37.547-40.96 61.44-54.613 20.48-17.067 54.613-6.827 64.853 17.067 20.48 51.2-64.853 98.987-102.4 116.053-102.4 47.787-208.213 13.653-283.307-61.44-37.547-40.96-81.92-78.507-119.467-119.467-85.333-92.16-95.573-221.867-23.893-324.267 88.747-122.88 262.827-133.12 368.64-30.72 23.893 20.48 44.373 44.373 64.853 64.853 10.24 13.653 20.48 27.307 13.653 47.787 0 34.133-34.133 51.2-58.027 27.307z" />
<glyph unicode="info" glyph-name="info" d="M512-16.213c-252.587 0-460.8 208.213-460.8 460.8s208.213 460.8 460.8 460.8c252.587 0 460.8-208.213 460.8-460.8 0-256-208.213-460.8-460.8-460.8zM512 833.707c-215.040 0-389.12-174.080-389.12-389.12s174.080-389.12 389.12-389.12 389.12 174.080 389.12 389.12c0 215.040-174.080 389.12-389.12 389.12zM395.947 564.053h163.84v-235.52h81.92v-61.44h-245.76v61.44h85.333v174.080h-85.333v61.44zM474.453 642.56c0 6.827 0 10.24 3.413 17.067 3.413 3.413 6.827 10.24 10.24 13.653s10.24 6.827 13.653 6.827c6.827 3.413 10.24 3.413 17.067 3.413 13.653 0 23.893-3.413 34.133-10.24s13.653-17.067 13.653-30.72-3.413-20.48-13.653-30.72-20.48-10.24-34.133-10.24c-6.827 0-13.653 0-17.067 3.413-6.827 3.413-10.24 3.413-13.653 6.827-6.827 3.413-10.24 10.24-10.24 13.653-3.413 6.827-3.413 10.24-3.413 17.067z" />
<glyph unicode="html" glyph-name="html" d="M150.187 652.8h723.627c27.307 0 47.787-10.24 68.267-27.307 17.067-17.067 27.307-40.96 27.307-68.267v-218.453c0-27.307-10.24-47.787-27.307-68.267s-40.96-27.307-68.267-27.307h-723.627c-27.307 0-47.787 10.24-68.267 27.307s-27.307 40.96-27.307 68.267v218.453c0 27.307 10.24 47.787 27.307 68.267 20.48 17.067 40.96 27.307 68.267 27.307zM150.187 618.667c-17.067 0-30.72-6.827-44.373-20.48s-20.48-27.307-20.48-44.373v-218.453c0-17.067 6.827-34.133 20.48-44.373 13.653-13.653 27.307-17.067 44.373-17.067h723.627c17.067 0 30.72 6.827 44.373 20.48s20.48 27.307 20.48 44.373v218.453c0 17.067-6.827 34.133-20.48 44.373-13.653 13.653-27.307 17.067-44.373 17.067 0 0-723.627 0-723.627 0zM873.813 369.493v-30.72h-157.013v218.453h34.133v-191.147h122.88zM399.36 523.093v-191.147h30.72v191.147h64.853v30.72h-157.013v-30.72c0 0 61.44 0 61.44 0zM276.48 461.653v95.573h30.72v-218.453h-30.72v95.573h-95.573v-95.573h-30.72v218.453h30.72v-95.573c0 0 95.573 0 95.573 0zM607.573 461.653l-47.787 95.573h-30.72v-218.453h30.72v160.427l30.72-64.853h30.72l30.72 64.853v-160.427h30.72v218.453h-30.72l-44.373-95.573z" />
<glyph unicode="hint" glyph-name="hint" d="M191.147 533.333c-27.307-3.413-44.373-13.653-54.613-30.72-10.24-20.48-13.653-40.96-3.413-64.853 20.48-47.787 64.853-112.64 133.12-180.907l-143.36-143.36c-17.067-17.067-34.133-37.547-51.2-68.267s-23.893-44.373-20.48-51.2c6.827-6.827 23.893 0 51.2 20.48 27.307 17.067 51.2 34.133 68.267 51.2l143.36 146.773c75.093-68.267 133.12-112.64 180.907-133.12 20.48-10.24 40.96-6.827 64.853 3.413s30.72 30.72 30.72 51.2c3.413 34.133-10.24 75.093-37.547 119.467l245.76 245.76c30.72-17.067 64.853-27.307 95.573-30.72 27.307-3.413 47.787 3.413 68.267 23.893 17.067 20.48 17.067 44.373 3.413 71.68-30.72 54.613-81.92 116.053-150.187 187.733-75.093 75.093-136.533 122.88-194.56 150.187-23.893 10.24-47.787 6.827-71.68-6.827s-34.133-30.72-27.307-58.027c3.413-30.72 13.653-64.853 30.72-98.987l-249.173-245.76c-40.96 30.72-78.507 40.96-112.64 40.96zM614.4 768.853c-13.653 27.307-23.893 51.2-27.307 75.093 47.787-23.893 109.227-71.68 174.080-136.533s112.64-122.88 136.533-170.667c-23.893 3.413-47.787 10.24-75.093 23.893l-40.96 20.48-320.853-320.853 27.307-44.373c20.48-34.133 30.72-64.853 27.307-85.333-47.787 20.48-112.64 71.68-187.733 143.36s-122.88 136.533-143.36 187.733c27.307 3.413 54.613-6.827 88.747-30.72l44.373-27.307 317.44 317.44-20.48 47.787z" />
<glyph unicode="github" glyph-name="github" d="M512 908.8c126.293 0 235.52-47.787 327.68-139.947 88.747-92.16 133.12-204.8 133.12-334.507 0-102.4-30.72-194.56-88.747-276.48s-133.12-139.947-225.28-170.667h-10.24c-17.067 0-23.893 6.827-23.893 23.893 0 0 0 17.067 0 47.787s0 58.027 0 81.92c0 40.96-10.24 68.267-34.133 88.747 61.44 6.827 112.64 27.307 153.6 61.44 37.547 30.72 58.027 88.747 58.027 170.667 0 47.787-17.067 92.16-47.787 126.293 13.653 40.96 13.653 81.92-3.413 126.293h-10.24c-30.72 0-71.68-17.067-116.053-47.787-40.96 10.24-78.507 17.067-116.053 17.067s-75.093-6.827-116.053-17.067c-47.787 34.133-85.333 47.787-116.053 47.787h-6.827c-17.067-44.373-17.067-85.333-3.413-126.293-30.72-34.133-47.787-78.507-47.787-126.293 0-81.92 20.48-139.947 58.027-170.667s88.747-51.2 153.6-61.44c-13.653-13.653-23.893-37.547-27.307-64.853-17.067-6.827-34.133-13.653-54.613-13.653-34.133 0-61.44 17.067-81.92 51.2-17.067 30.72-40.96 47.787-71.68 47.787-27.307 0-30.72-10.24-3.413-27.307 20.48-10.24 37.547-34.133 51.2-68.267 0-6.827 3.413-13.653 6.827-20.48s17.067-17.067 34.133-30.72c17.067-13.653 40.96-17.067 68.267-17.067 20.48 0 34.133 0 44.373 3.413v-81.92c0-13.653-6.827-23.893-23.893-23.893h-6.827c-92.16 30.72-170.667 88.747-228.693 170.667s-88.747 174.080-88.747 279.893c0 129.707 44.373 242.347 133.12 334.507 95.573 92.16 204.8 139.947 331.093 139.947z" />
<glyph unicode="external-link" glyph-name="external-link" d="M894.293 553.813c6.827-6.827 17.067-10.24 30.72-10.24s23.893 3.413 30.72 10.24c6.827 6.827 10.24 17.067 10.24 30.72v279.893c0 3.413 0 3.413 0 10.24 0 3.413 0 6.827-3.413 6.827v0c0 3.413-3.413 6.827-6.827 10.24s-6.827 6.827-13.653 10.24v0c0 0-3.413 3.413-6.827 3.413s-6.827 0-10.24 0h-276.48c-13.653 0-23.893-3.413-30.72-10.24s-10.24-17.067-10.24-30.72c0-13.653 3.413-23.893 10.24-30.72s17.067-10.24 30.72-10.24h174.080l-433.493-436.907c-10.24-10.24-13.653-17.067-13.653-30.72 0-10.24 3.413-20.48 13.653-30.72 3.413-3.413 6.827-6.827 13.653-10.24 3.413-3.413 10.24-3.413 17.067-3.413s10.24 0 17.067 3.413c3.413 3.413 10.24 3.413 13.653 10.24l433.493 436.907v-174.080c0-13.653 3.413-23.893 10.24-34.133zM464.213 765.44h-276.48c-37.547 0-68.267-10.24-95.573-37.547-23.893-23.893-37.547-58.027-37.547-95.573v-505.173c0-37.547 13.653-71.68 37.547-95.573 27.307-27.307 58.027-37.547 95.573-37.547h508.587c37.547 0 71.68 13.653 95.573 37.547 27.307 27.307 37.547 58.027 37.547 95.573v276.48c0 13.653-3.413 23.893-13.653 30.72-6.827 6.827-17.067 13.653-30.72 13.653s-23.893-3.413-30.72-13.653c-6.827-6.827-13.653-17.067-13.653-30.72v-276.48c0-13.653-3.413-27.307-13.653-37.547s-20.48-13.653-34.133-13.653h-505.173c-13.653 0-27.307 3.413-34.133 13.653-10.24 10.24-13.653 20.48-13.653 37.547v505.173c0 13.653 3.413 27.307 13.653 37.547s20.48 13.653 34.133 13.653h276.48c13.653 0 23.893 3.413 30.72 10.24s10.24 17.067 10.24 30.72c0 13.653-3.413 23.893-10.24 30.72s-17.067 10.24-30.72 10.24z" />
<glyph unicode="expand" glyph-name="expand" d="M942.080 338.773l-358.4 361.813c-40.96 40.96-102.4 40.96-143.36 0l-358.4-361.813c-40.96-40.96-40.96-102.4 0-143.36 20.48-20.48 44.373-30.72 71.68-30.72s51.2 10.24 71.68 30.72l286.72 286.72 286.72-286.72c20.48-20.48 44.373-30.72 71.68-30.72s51.2 10.24 71.68 30.72c40.96 40.96 40.96 105.813 0 143.36z" />
<glyph unicode="example" glyph-name="example" d="M819.2 854.187c-68.267-30.72-139.947-40.96-208.213-20.48-95.573 30.72-180.907 75.093-283.307 75.093-44.373 0-85.333-3.413-122.88-23.893-17.067-6.827-51.2-17.067-61.44-34.133s-6.827-44.373-6.827-61.44c0-201.387 0-399.36 0-600.747 0-54.613-6.827-109.227 0-163.84 6.827-47.787 68.267-47.787 75.093 0 0 13.653 0 23.893 0 37.547 0 54.613 0 105.813 0 160.427 0 20.48-3.413 44.373 0 64.853 0 17.067 0 13.653 17.067 20.48 95.573 37.547 187.733 3.413 276.48-27.307 92.16-34.133 180.907-54.613 276.48-30.72 37.547 10.24 98.987 34.133 102.4 78.507 6.827 85.333 0 174.080 0 262.827 0 51.2 0 105.813 0 157.013 0 27.307 3.413 54.613 0 81.92 0 30.72-37.547 44.373-64.853 23.893zM812.373 342.187c-102.4-37.547-204.8-17.067-303.787 27.307-47.787 20.48-98.987 37.547-150.187 37.547-47.787 0-95.573-13.653-143.36-17.067 0 98.987 0 194.56 0 293.547 0 27.307 0 54.613 0 81.92 0 10.24 0 44.373 0 44.373s64.853 20.48 81.92 20.48c64.853 3.413 112.64-10.24 170.667-30.72s112.64-51.2 177.493-58.027c58.027-3.413 109.227 13.653 163.84 17.067 0-71.68 0-143.36 0-215.040 0-47.787 0-95.573 0-139.947 0-10.24 3.413-47.787 3.413-61.44z" />
<glyph unicode="edit" glyph-name="edit" d="M136.533 198.827h167.253c6.827 0 10.24 0 17.067 3.413 3.413 3.413 10.24 3.413 13.653 10.24l457.387 457.387c6.827 6.827 13.653 17.067 13.653 30.72 0 10.24-3.413 20.48-13.653 30.72l-167.253 167.253c-6.827 6.827-17.067 13.653-30.72 13.653-10.24 0-20.48-3.413-30.72-13.653l-457.387-464.213c-3.413-3.413-6.827-10.24-10.24-13.653s-3.413-10.24-3.413-17.067v-167.253c0-13.653 3.413-23.893 10.24-30.72s20.48-6.827 34.133-6.827zM177.493 389.973l416.427 419.84 109.227-109.227-416.427-419.84h-109.227v109.227zM887.467 72.533h-750.933c-13.653 0-23.893-3.413-30.72-10.24s-10.24-17.067-10.24-30.72c0-13.653 3.413-23.893 10.24-30.72s17.067-10.24 30.72-10.24h750.933c13.653 0 23.893 3.413 30.72 10.24s10.24 17.067 10.24 30.72c0 13.653-3.413 23.893-10.24 30.72s-17.067 10.24-30.72 10.24z" />
<glyph unicode="download" glyph-name="download" d="M160.427 263.68c-6.827 6.827-17.067 10.24-27.307 10.24s-20.48-3.413-30.72-10.24c-6.827-6.827-10.24-17.067-10.24-27.307v-126.293c0-34.133 10.24-64.853 34.133-88.747s54.613-34.133 88.747-34.133h590.507c34.133 0 64.853 13.653 88.747 34.133 23.893 23.893 34.133 54.613 34.133 88.747v126.293c0 13.653-3.413 20.48-10.24 27.307s-17.067 10.24-27.307 10.24c-10.24 0-20.48-3.413-27.307-10.24s-10.24-17.067-10.24-27.307v-126.293c0-13.653-3.413-23.893-13.653-34.133-6.827-6.827-20.48-13.653-34.133-13.653h-590.507c-13.653 0-23.893 3.413-34.133 13.653-6.827 6.827-13.653 20.48-13.653 34.133v126.293c3.413 13.653 0 20.48-6.827 27.307zM539.307 898.56c-6.827 6.827-17.067 10.24-27.307 10.24s-20.48-3.413-27.307-10.24c-6.827-6.827-10.24-17.067-10.24-27.307v-498.347l-102.4 105.813c-6.827 6.827-17.067 10.24-27.307 10.24s-20.48-6.827-30.72-13.653c-6.827-6.827-10.24-17.067-10.24-27.307s3.413-20.48 10.24-27.307l170.667-170.667c3.413-3.413 3.413-3.413 6.827-3.413 0 0 3.413-3.413 3.413-3.413h3.413c0-3.413 3.413-3.413 6.827-3.413 6.827 0 10.24 0 17.067 0 3.413 0 3.413 0 6.827 3.413s6.827 3.413 6.827 6.827c0 0 3.413 0 3.413 3.413l170.667 170.667c6.827 6.827 10.24 17.067 10.24 27.307s-3.413 20.48-10.24 27.307c-6.827 6.827-17.067 10.24-27.307 10.24s-20.48-3.413-27.307-10.24l-102.4-105.813v498.347c-3.413 10.24-6.827 20.48-13.653 27.307z" />
<glyph unicode="document" glyph-name="document" d="M839.68 707.413l-150.187 160.427c-6.827 10.24-20.48 17.067-34.133 23.893s-27.307 10.24-37.547 10.24h-426.667c-10.24-3.413-20.48-6.827-27.307-13.653s-10.24-17.067-10.24-27.307v-822.613c0-10.24 3.413-20.48 10.24-30.72 6.827-6.827 17.067-10.24 27.307-10.24h641.707c10.24 0 20.48 3.413 27.307 10.24s10.24 17.067 10.24 30.72v590.507c0 13.653-3.413 27.307-10.24 40.96-3.413 17.067-13.653 27.307-20.48 37.547zM624.64 850.773l10.24-3.413c10.24-3.413 17.067-6.827 23.893-13.653l150.187-160.427c3.413-3.413 10.24-13.653 13.653-23.893l3.413-10.24h-201.387v211.627zM826.027 45.227h-628.053v805.547h382.293v-221.867c0-10.24 3.413-20.48 10.24-30.72 6.827-6.827 17.067-10.24 27.307-10.24h208.213v-542.72zM682.667 331.947h-341.333c-20.48 0-34.133 13.653-34.133 34.133s13.653 34.133 34.133 34.133h341.333c20.48 0 34.133-13.653 34.133-34.133s-13.653-34.133-34.133-34.133zM682.667 195.413h-341.333c-20.48 0-34.133 13.653-34.133 34.133s13.653 34.133 34.133 34.133h341.333c20.48 0 34.133-13.653 34.133-34.133s-13.653-34.133-34.133-34.133z" />
<glyph unicode="docs" glyph-name="docs" d="M441.6 441.6h284.8c9.6 0 19.2 3.2 25.6 9.6s9.6 16 9.6 25.6c0 9.6-3.2 19.2-9.6 25.6s-16 9.6-25.6 9.6h-284.8c-9.6 0-19.2-3.2-25.6-9.6s-9.6-16-9.6-25.6c0-9.6 3.2-19.2 9.6-25.6s16-9.6 25.6-9.6zM729.6 960v0h-384c-35.2 0-64-12.8-89.6-41.6-25.6-25.6-38.4-54.4-41.6-86.4h-32c-35.2 0-64-12.8-89.6-41.6-22.4-25.6-35.2-54.4-35.2-89.6v-633.6c0-32 12.8-64 38.4-89.6 25.6-28.8 57.6-41.6 92.8-41.6h476.8c35.2 0 67.2 12.8 92.8 41.6 25.6 25.6 38.4 54.4 38.4 86.4h28.8c35.2 0 67.2 12.8 92.8 41.6 25.6 25.6 38.4 57.6 38.4 89.6v508.8l-227.2 256zM288 828.8c0 16 6.4 28.8 19.2 41.6s25.6 19.2 41.6 19.2h313.6v-124.8c0-35.2 12.8-64 38.4-89.6s57.6-38.4 92.8-38.4h89.6v-441.6c0-16-6.4-28.8-19.2-41.6s-25.6-19.2-41.6-19.2h-476.8c-16 0-28.8 6.4-41.6 19.2-9.6 12.8-16 25.6-16 41.6v633.6zM790.4 707.2c-16 0-28.8 9.6-41.6 32s-19.2 41.6-19.2 57.6v83.2l144-172.8h-83.2zM256 102.4c25.6-25.6 57.6-41.6 92.8-41.6h377.6c0-12.8-6.4-25.6-19.2-35.2-12.8-12.8-25.6-19.2-41.6-19.2h-476.8c-16 0-28.8 6.4-41.6 19.2s-19.2 25.6-19.2 41.6v633.6c0 16 6.4 28.8 16 41.6s25.6 19.2 38.4 19.2h28.8v-566.4c3.2-35.2 16-64 44.8-92.8zM441.6 284.8h284.8c9.6 0 19.2 3.2 25.6 9.6s9.6 16 9.6 25.6c0 9.6-3.2 19.2-9.6 25.6s-16 9.6-25.6 9.6h-284.8c-9.6 0-19.2-3.2-25.6-9.6s-9.6-16-9.6-25.6c0-9.6 3.2-19.2 9.6-25.6s16-9.6 25.6-9.6z" />
<glyph unicode="compare" glyph-name="compare" d="M617.813 553.813c-30.72 30.72-64.853 44.373-105.813 44.373s-78.507-13.653-105.813-44.373c-30.72-30.72-44.373-64.853-44.373-105.813s13.653-78.507 44.373-109.227c30.72-30.72 64.853-44.373 105.813-44.373s78.507 13.653 105.813 44.373c30.72 30.72 44.373 64.853 44.373 109.227 3.413 40.96-13.653 78.507-44.373 105.813zM566.613 393.387c-13.653-13.653-34.133-23.893-54.613-23.893s-40.96 6.827-54.613 23.893c-13.653 13.653-23.893 34.133-23.893 54.613s6.827 40.96 23.893 54.613c13.653 13.653 34.133 23.893 54.613 23.893s40.96-6.827 54.613-23.893c13.653-13.653 23.893-34.133 23.893-54.613s-6.827-40.96-23.893-54.613zM935.253 376.32c20.48 34.133 34.133 54.613 34.133 58.027s3.413 6.827 3.413 13.653 0 10.24-3.413 13.653c-3.413 3.413-13.653 23.893-34.133 58.027s-51.2 71.68-88.747 112.64c-37.547 40.96-85.333 78.507-143.36 109.227-54.613 34.133-119.467 47.787-191.147 47.787s-136.533-17.067-191.147-47.787c-54.613-34.133-102.4-68.267-139.947-109.227s-68.267-78.507-88.747-112.64c-20.48-34.133-30.72-54.613-34.133-58.027 0-6.827-3.413-10.24-3.413-17.067s0-10.24 3.413-17.067c3.413-3.413 13.653-20.48 34.133-54.613s51.2-71.68 88.747-112.64c37.547-40.96 85.333-75.093 139.947-109.227s119.467-47.787 191.147-47.787 136.533 17.067 191.147 47.787c54.613 34.133 102.4 68.267 143.36 109.227 37.547 40.96 68.267 78.507 88.747 116.053zM768 287.573c-30.72-30.72-71.68-54.613-112.64-78.507-44.373-23.893-92.16-34.133-143.36-34.133s-98.987 10.24-143.36 34.133c-40.96 20.48-81.92 47.787-112.64 78.507s-58.027 61.44-81.92 88.747c-20.48 30.72-37.547 54.613-44.373 68.267v0 0c6.827 13.653 23.893 37.547 44.373 68.267s47.787 61.44 81.92 88.747c30.72 30.72 71.68 54.613 112.64 78.507 44.373 23.893 92.16 34.133 143.36 34.133s98.987-10.24 143.36-34.133c40.96-23.893 81.92-47.787 112.64-78.507s58.027-61.44 81.92-88.747c20.48-30.72 37.547-51.2 44.373-68.267v0 0c-10.24-17.067-23.893-37.547-44.373-68.267-23.893-27.307-51.2-58.027-81.92-88.747z" />
<glyph unicode="comment" glyph-name="comment" d="M54.613 34.987c0-10.24 3.413-17.067 6.827-23.893s10.24-13.653 20.48-13.653v0 0c3.413-3.413 3.413-3.413 6.827-3.413s6.827 0 10.24 0 13.653 0 17.067 3.413 10.24 6.827 13.653 10.24l170.667 170.667h535.893c37.547 0 71.68 13.653 95.573 37.547 27.307 27.307 37.547 58.027 37.547 95.573v457.387c0 37.547-13.653 71.68-37.547 95.573-27.307 27.307-58.027 37.547-95.573 37.547h-648.533c-37.547 3.413-68.267-10.24-95.573-34.133-23.893-27.307-37.547-58.027-37.547-98.987v-733.867zM153.6 802.987c10.24 10.24 20.48 13.653 34.133 13.653h645.12c13.653 0 27.307-3.413 34.133-13.653 10.24-10.24 13.653-20.48 13.653-34.133v-457.387c0-13.653-3.413-27.307-13.653-34.133-10.24-10.24-20.48-13.653-34.133-13.653h-549.547c-6.827 0-13.653 0-17.067-3.413s-10.24-6.827-13.653-10.24l-109.227-109.227v628.053c0 0 0 27.307 10.24 34.133z" />
<glyph unicode="collapse" glyph-name="collapse" d="M942.080 700.587c-40.96 40.96-102.4 40.96-143.36 0l-286.72-290.133-286.72 290.133c-40.96 40.96-102.4 40.96-143.36 0s-40.96-102.4 0-143.36l358.4-358.4c20.48-20.48 44.373-30.72 71.68-30.72s51.2 10.24 71.68 30.72l358.4 358.4c40.96 37.547 40.96 102.4 0 143.36z" />
<glyph unicode="attention" glyph-name="attention" d="M925.013 891.733l-266.24-177.493h-382.293c-34.133 0-64.853-3.413-92.16-13.653-30.72-10.24-54.613-23.893-75.093-40.96-23.893-17.067-40.96-40.96-51.2-64.853s-17.067-54.613-17.067-88.747c0-27.307 3.413-54.613 13.653-75.093 10.24-23.893 20.48-44.373 37.547-61.44s34.133-34.133 58.027-44.373c20.48-10.24 44.373-20.48 71.68-23.893 0-3.413 0-13.653 0-40.96 0-23.893 0-51.2 0-81.92 0-27.307 0-54.613 0-78.507s0-37.547 0-37.547c0-17.067 6.827-30.72 17.067-40.96 6.827-10.24 20.48-17.067 37.547-17.067h88.747c17.067 0 30.72 6.827 40.96 17.067s17.067 23.893 17.067 40.96v235.52h235.52l266.24-177.493c17.067 0 30.72 6.827 40.96 17.067s17.067 23.893 17.067 40.96v655.36c0 17.067-6.827 30.72-17.067 40.96s-23.893 17.067-40.96 17.067zM358.4 72.533c-3.413-10.24-17.067-10.24-23.893-10.24h-30.72c-6.827 0-17.067 0-23.893 6.827s-6.827 17.067-6.827 23.893v208.213c0 0 13.653 0 37.547 0s40.96 0 51.2 0c0 0 0-157.013 0-208.213 0 0 0-17.067-3.413-20.48zM512 359.253h-235.52c-30.72 0-64.853 6.827-109.227 23.893s-68.267 58.027-68.267 122.88 20.48 105.813 64.853 122.88 81.92 23.893 112.64 23.893h235.52v-293.547zM658.773 359.253h-88.747v296.96h88.747c0 0 0-13.653 0-40.96s0-58.027 0-95.573c0-34.133 0-68.267 0-98.987 0-34.133 0-54.613 0-61.44zM925.013 181.76l-208.213 146.773v354.987l208.213 146.773v-648.533z" />
</font>
</defs>
</svg>
