<?xml version="1.0" encoding="windows-1252" standalone="no"?>
<svg xmlns="http://www.w3.org/2000/svg" xmlns:xlink="http://www.w3.org/1999/xlink" contentStyleType="text/css" height="1580px" preserveAspectRatio="none" style="width:1498px;height:1580px;background:#FFFFFF;" version="1.1" viewBox="0 0 1498 1580" width="1498px" zoomAndPan="magnify"><defs/><g><rect fill="#ADD8E6" height="1568.9688" style="stroke:#181818;stroke-width:0.5;" width="353.5" x="336" y="6"/><text fill="#000000" font-family="sans-serif" font-size="13" font-weight="bold" lengthAdjust="spacing" textLength="108" x="458.75" y="18.0669">User's Devices</text><rect fill="#FFFFFF" height="29.1328" style="stroke:#181818;stroke-width:1.0;" width="10" x="33.5" y="845.4844"/><rect fill="#FFFFFF" height="1014.7813" style="stroke:#181818;stroke-width:1.0;" width="10" x="397.5" y="313.2266"/><rect fill="#FFFFFF" height="171.6641" style="stroke:#181818;stroke-width:1.0;" width="10" x="1167.5" y="141.5625"/><rect fill="#FFFFFF" height="71.2656" style="stroke:#181818;stroke-width:1.0;" width="10" x="1167.5" y="576.5547"/><rect fill="#FFFFFF" height="409.125" style="stroke:#181818;stroke-width:1.0;" width="10" x="1167.5" y="918.8828"/><rect fill="none" height="220.1953" style="stroke:#000000;stroke-width:1.5;" width="685.5" x="10" y="328.2266"/><rect fill="none" height="46.2656" style="stroke:#000000;stroke-width:1.5;" width="365.5" x="330" y="1343.0078"/><rect fill="none" height="75.3984" style="stroke:#000000;stroke-width:1.5;" width="653.5" x="583.5" y="1403.2734"/><line style="stroke:#181818;stroke-width:0.5;stroke-dasharray:5.0,5.0;" x1="38" x2="38" y1="81.2969" y2="1495.6719"/><line style="stroke:#181818;stroke-width:0.5;stroke-dasharray:5.0,5.0;" x1="402" x2="402" y1="81.2969" y2="1495.6719"/><line style="stroke:#181818;stroke-width:0.5;stroke-dasharray:5.0,5.0;" x1="639.5" x2="639.5" y1="81.2969" y2="1495.6719"/><line style="stroke:#181818;stroke-width:0.5;stroke-dasharray:5.0,5.0;" x1="1172" x2="1172" y1="81.2969" y2="1495.6719"/><text fill="#000000" font-family="sans-serif" font-size="14" lengthAdjust="spacing" textLength="31" x="20" y="77.9951">User</text><ellipse cx="38.5" cy="13.5" fill="#E2E2F0" rx="8" ry="8" style="stroke:#181818;stroke-width:0.5;"/><path d="M38.5,21.5 L38.5,48.5 M25.5,29.5 L51.5,29.5 M38.5,48.5 L25.5,63.5 M38.5,48.5 L51.5,63.5 " fill="none" style="stroke:#181818;stroke-width:0.5;"/><text fill="#000000" font-family="sans-serif" font-size="14" lengthAdjust="spacing" textLength="31" x="20" y="1507.667">User</text><ellipse cx="38.5" cy="1519.4688" fill="#E2E2F0" rx="8" ry="8" style="stroke:#181818;stroke-width:0.5;"/><path d="M38.5,1527.4688 L38.5,1554.4688 M25.5,1535.4688 L51.5,1535.4688 M38.5,1554.4688 L25.5,1569.4688 M38.5,1554.4688 L51.5,1569.4688 " fill="none" style="stroke:#181818;stroke-width:0.5;"/><rect fill="#E2E2F0" height="30.2969" rx="2.5" ry="2.5" style="stroke:#181818;stroke-width:0.5;" width="125" x="340" y="50"/><text fill="#000000" font-family="sans-serif" font-size="14" lengthAdjust="spacing" textLength="111" x="347" y="69.9951">Wallet Instance</text><rect fill="#E2E2F0" height="30.2969" rx="2.5" ry="2.5" style="stroke:#181818;stroke-width:0.5;" width="125" x="340" y="1494.6719"/><text fill="#000000" font-family="sans-serif" font-size="14" lengthAdjust="spacing" textLength="111" x="347" y="1514.667">Wallet Instance</text><rect fill="#E2E2F0" height="30.2969" rx="2.5" ry="2.5" style="stroke:#181818;stroke-width:0.5;" width="92" x="593.5" y="50"/><text fill="#000000" font-family="sans-serif" font-size="14" lengthAdjust="spacing" textLength="78" x="600.5" y="69.9951">user-agent</text><rect fill="#E2E2F0" height="30.2969" rx="2.5" ry="2.5" style="stroke:#181818;stroke-width:0.5;" width="92" x="593.5" y="1494.6719"/><text fill="#000000" font-family="sans-serif" font-size="14" lengthAdjust="spacing" textLength="78" x="600.5" y="1514.667">user-agent</text><rect fill="#E2E2F0" height="30.2969" rx="2.5" ry="2.5" style="stroke:#181818;stroke-width:0.5;" width="109" x="1118" y="50"/><text fill="#000000" font-family="sans-serif" font-size="14" lengthAdjust="spacing" textLength="95" x="1125" y="69.9951">Relying Party</text><rect fill="#E2E2F0" height="30.2969" rx="2.5" ry="2.5" style="stroke:#181818;stroke-width:0.5;" width="109" x="1118" y="1494.6719"/><text fill="#000000" font-family="sans-serif" font-size="14" lengthAdjust="spacing" textLength="95" x="1125" y="1514.667">Relying Party</text><rect fill="#FFFFFF" height="29.1328" style="stroke:#181818;stroke-width:1.0;" width="10" x="33.5" y="845.4844"/><rect fill="#FFFFFF" height="1014.7813" style="stroke:#181818;stroke-width:1.0;" width="10" x="397.5" y="313.2266"/><rect fill="#FFFFFF" height="171.6641" style="stroke:#181818;stroke-width:1.0;" width="10" x="1167.5" y="141.5625"/><rect fill="#FFFFFF" height="71.2656" style="stroke:#181818;stroke-width:1.0;" width="10" x="1167.5" y="576.5547"/><rect fill="#FFFFFF" height="409.125" style="stroke:#181818;stroke-width:1.0;" width="10" x="1167.5" y="918.8828"/><polygon fill="#181818" points="627.5,108.4297,637.5,112.4297,627.5,116.4297,631.5,112.4297" style="stroke:#181818;stroke-width:1.0;"/><line style="stroke:#181818;stroke-width:1.0;" x1="38.5" x2="633.5" y1="112.4297" y2="112.4297"/><text fill="#000000" font-family="sans-serif" font-size="13" font-weight="bold" lengthAdjust="spacing" textLength="9" x="45.5" y="107.3638">1</text><text fill="#000000" font-family="sans-serif" font-size="13" lengthAdjust="spacing" textLength="151" x="58.5" y="107.3638">Web Service navigation</text><polygon fill="#181818" points="1155.5,137.5625,1165.5,141.5625,1155.5,145.5625,1159.5,141.5625" style="stroke:#181818;stroke-width:1.0;"/><line style="stroke:#181818;stroke-width:1.0;" x1="639.5" x2="1161.5" y1="141.5625" y2="141.5625"/><text fill="#000000" font-family="sans-serif" font-size="13" font-weight="bold" lengthAdjust="spacing" textLength="9" x="646.5" y="136.4966">2</text><text fill="#000000" font-family="sans-serif" font-size="13" lengthAdjust="spacing" textLength="183" x="659.5" y="136.4966">Request Protected Resource</text><rect fill="#EEEEEE" height="3" style="stroke:#EEEEEE;stroke-width:1.0;" width="1491.5" x="0" y="170.1289"/><line style="stroke:#000000;stroke-width:1.0;" x1="0" x2="1491.5" y1="170.1289" y2="170.1289"/><line style="stroke:#000000;stroke-width:1.0;" x1="0" x2="1491.5" y1="173.1289" y2="173.1289"/><rect fill="#EEEEEE" height="23.1328" style="stroke:#000000;stroke-width:2.0;" width="339" x="576.25" y="159.5625"/><text fill="#000000" font-family="sans-serif" font-size="13" font-weight="bold" lengthAdjust="spacing" textLength="320" x="582.25" y="175.6294">User Authentication (Presentation Phase)</text><line style="stroke:#181818;stroke-width:1.0;" x1="1177.5" x2="1219.5" y1="228.9609" y2="228.9609"/><line style="stroke:#181818;stroke-width:1.0;" x1="1219.5" x2="1219.5" y1="228.9609" y2="241.9609"/><line style="stroke:#181818;stroke-width:1.0;" x1="1178.5" x2="1219.5" y1="241.9609" y2="241.9609"/><polygon fill="#181818" points="1188.5,237.9609,1178.5,241.9609,1188.5,245.9609,1184.5,241.9609" style="stroke:#181818;stroke-width:1.0;"/><text fill="#000000" font-family="sans-serif" font-size="13" font-weight="bold" lengthAdjust="spacing" textLength="8" x="1184.5" y="216.3286">3</text><text fill="#000000" font-family="sans-serif" font-size="13" lengthAdjust="spacing" textLength="55" x="1196.5" y="208.7622">Create a</text><text fill="#000000" font-family="sans-serif" font-size="13" font-weight="bold" lengthAdjust="spacing" textLength="42" x="1255.5" y="208.7622">state</text><text fill="#000000" font-family="sans-serif" font-size="13" lengthAdjust="spacing" textLength="35" x="1301.5" y="208.7622">value</text><text fill="#000000" font-family="sans-serif" font-size="13" lengthAdjust="spacing" textLength="176" x="1196.5" y="223.895">bound to user-agent cookie</text><line style="stroke:#181818;stroke-width:1.0;" x1="1177.5" x2="1219.5" y1="271.0938" y2="271.0938"/><line style="stroke:#181818;stroke-width:1.0;" x1="1219.5" x2="1219.5" y1="271.0938" y2="284.0938"/><line style="stroke:#181818;stroke-width:1.0;" x1="1178.5" x2="1219.5" y1="284.0938" y2="284.0938"/><polygon fill="#181818" points="1188.5,280.0938,1178.5,284.0938,1188.5,288.0938,1184.5,284.0938" style="stroke:#181818;stroke-width:1.0;"/><text fill="#000000" font-family="sans-serif" font-size="13" font-weight="bold" lengthAdjust="spacing" textLength="9" x="1184.5" y="266.0278">4</text><text fill="#000000" font-family="sans-serif" font-size="13" lengthAdjust="spacing" textLength="179" x="1197.5" y="266.0278">Create request_uri resource</text><polygon fill="#181818" points="650.5,309.2266,640.5,313.2266,650.5,317.2266,646.5,313.2266" style="stroke:#181818;stroke-width:1.0;"/><line style="stroke:#181818;stroke-width:1.0;" x1="644.5" x2="1171.5" y1="313.2266" y2="313.2266"/><text fill="#000000" font-family="sans-serif" font-size="13" font-weight="bold" lengthAdjust="spacing" textLength="9" x="656.5" y="308.1606">5</text><text fill="#000000" font-family="sans-serif" font-size="13" lengthAdjust="spacing" textLength="491" x="669.5" y="308.1606">QRCode OR HTTP Redirect (302) with client_id, request_uri and discovery_uri</text><path d="M10,328.2266 L188,328.2266 L188,335.3594 L178,345.3594 L10,345.3594 L10,328.2266 " fill="#EEEEEE" style="stroke:#000000;stroke-width:1.5;"/><rect fill="none" height="220.1953" style="stroke:#000000;stroke-width:1.5;" width="685.5" x="10" y="328.2266"/><text fill="#000000" font-family="sans-serif" font-size="13" font-weight="bold" lengthAdjust="spacing" textLength="133" x="25" y="341.2935">Cross Device only</text><polygon fill="#181818" points="49.5,362.4922,39.5,366.4922,49.5,370.4922,45.5,366.4922" style="stroke:#181818;stroke-width:1.0;"/><line style="stroke:#181818;stroke-width:1.0;" x1="43.5" x2="638.5" y1="366.4922" y2="366.4922"/><text fill="#000000" font-family="sans-serif" font-size="13" font-weight="bold" lengthAdjust="spacing" textLength="9" x="55.5" y="361.4263">6</text><text fill="#000000" font-family="sans-serif" font-size="13" lengthAdjust="spacing" textLength="152" x="68.5" y="361.4263">Show the QRCode page</text><polygon fill="#181818" points="385.5,391.625,395.5,395.625,385.5,399.625,389.5,395.625" style="stroke:#181818;stroke-width:1.0;"/><line style="stroke:#181818;stroke-width:1.0;stroke-dasharray:2.0,2.0;" x1="38.5" x2="391.5" y1="395.625" y2="395.625"/><text fill="#000000" font-family="sans-serif" font-size="13" font-weight="bold" lengthAdjust="spacing" textLength="9" x="45.5" y="390.5591">7</text><text fill="#000000" font-family="sans-serif" font-size="13" lengthAdjust="spacing" textLength="322" x="58.5" y="390.5591">Open the Wallet Instance app, local authentication</text><line style="stroke:#181818;stroke-width:1.0;" x1="407.5" x2="449.5" y1="424.7578" y2="424.7578"/><line style="stroke:#181818;stroke-width:1.0;" x1="449.5" x2="449.5" y1="424.7578" y2="437.7578"/><line style="stroke:#181818;stroke-width:1.0;" x1="408.5" x2="449.5" y1="437.7578" y2="437.7578"/><polygon fill="#181818" points="418.5,433.7578,408.5,437.7578,418.5,441.7578,414.5,437.7578" style="stroke:#181818;stroke-width:1.0;"/><text fill="#000000" font-family="sans-serif" font-size="13" font-weight="bold" lengthAdjust="spacing" textLength="9" x="414.5" y="419.6919">8</text><text fill="#000000" font-family="sans-serif" font-size="13" lengthAdjust="spacing" textLength="91" x="427.5" y="419.6919">Scan QR Code</text><line style="stroke:#181818;stroke-width:1.0;" x1="407.5" x2="449.5" y1="527.4219" y2="527.4219"/><line style="stroke:#181818;stroke-width:1.0;" x1="449.5" x2="449.5" y1="527.4219" y2="540.4219"/><line style="stroke:#181818;stroke-width:1.0;" x1="408.5" x2="449.5" y1="540.4219" y2="540.4219"/><polygon fill="#181818" points="418.5,536.4219,408.5,540.4219,418.5,544.4219,414.5,540.4219" style="stroke:#181818;stroke-width:1.0;"/><text fill="#000000" font-family="sans-serif" font-size="13" font-weight="bold" lengthAdjust="spacing" textLength="9" x="414.5" y="492.0903">9</text><text fill="#000000" font-family="sans-serif" font-size="13" lengthAdjust="spacing" textLength="46" x="427.5" y="461.8247">Extract</text><text fill="#000000" font-family="sans-serif" font-size="13" lengthAdjust="spacing" textLength="52" x="427.5" y="476.9575">client_id</text><text fill="#000000" font-family="sans-serif" font-size="13" lengthAdjust="spacing" textLength="72" x="427.5" y="492.0903">request_uri</text><text fill="#000000" font-family="sans-serif" font-size="13" lengthAdjust="spacing" textLength="113" x="427.5" y="507.2231">and discovery_uri</text><text fill="#000000" font-family="sans-serif" font-size="13" lengthAdjust="spacing" textLength="116" x="427.5" y="522.356">from the QR Code</text><polygon fill="#181818" points="1155.5,572.5547,1165.5,576.5547,1155.5,580.5547,1159.5,576.5547" style="stroke:#181818;stroke-width:1.0;"/><line style="stroke:#181818;stroke-width:1.0;" x1="407.5" x2="1161.5" y1="576.5547" y2="576.5547"/><text fill="#000000" font-family="sans-serif" font-size="13" font-weight="bold" lengthAdjust="spacing" textLength="19" x="414.5" y="571.4888">10</text><text fill="#000000" font-family="sans-serif" font-size="13" lengthAdjust="spacing" textLength="410" x="437.5" y="571.4888">POST Wallet Technical Capabilities to the discovery_uri endpoint</text><line style="stroke:#181818;stroke-width:1.0;" x1="1177.5" x2="1219.5" y1="605.6875" y2="605.6875"/><line style="stroke:#181818;stroke-width:1.0;" x1="1219.5" x2="1219.5" y1="605.6875" y2="618.6875"/><line style="stroke:#181818;stroke-width:1.0;" x1="1178.5" x2="1219.5" y1="618.6875" y2="618.6875"/><polygon fill="#181818" points="1188.5,614.6875,1178.5,618.6875,1188.5,622.6875,1184.5,618.6875" style="stroke:#181818;stroke-width:1.0;"/><text fill="#000000" font-family="sans-serif" font-size="13" font-weight="bold" lengthAdjust="spacing" textLength="18" x="1184.5" y="600.6216">11</text><text fill="#000000" font-family="sans-serif" font-size="13" lengthAdjust="spacing" textLength="273" x="1206.5" y="600.6216">evaluates the Wallet Technical Capabilities</text><polygon fill="#181818" points="418.5,643.8203,408.5,647.8203,418.5,651.8203,414.5,647.8203" style="stroke:#181818;stroke-width:1.0;"/><line style="stroke:#181818;stroke-width:1.0;stroke-dasharray:2.0,2.0;" x1="412.5" x2="1171.5" y1="647.8203" y2="647.8203"/><text fill="#000000" font-family="sans-serif" font-size="13" font-weight="bold" lengthAdjust="spacing" textLength="18" x="424.5" y="642.7544">12</text><text fill="#000000" font-family="sans-serif" font-size="13" lengthAdjust="spacing" textLength="98" x="446.5" y="642.7544">Request Object</text><line style="stroke:#181818;stroke-width:1.0;" x1="407.5" x2="449.5" y1="676.9531" y2="676.9531"/><line style="stroke:#181818;stroke-width:1.0;" x1="449.5" x2="449.5" y1="676.9531" y2="689.9531"/><line style="stroke:#181818;stroke-width:1.0;" x1="408.5" x2="449.5" y1="689.9531" y2="689.9531"/><polygon fill="#181818" points="418.5,685.9531,408.5,689.9531,418.5,693.9531,414.5,689.9531" style="stroke:#181818;stroke-width:1.0;"/><text fill="#000000" font-family="sans-serif" font-size="13" font-weight="bold" lengthAdjust="spacing" textLength="17" x="414.5" y="671.8872">13</text><text fill="#000000" font-family="sans-serif" font-size="13" lengthAdjust="spacing" textLength="165" x="435.5" y="671.8872">Attest Relying Party Trust</text><line style="stroke:#181818;stroke-width:1.0;" x1="407.5" x2="449.5" y1="719.0859" y2="719.0859"/><line style="stroke:#181818;stroke-width:1.0;" x1="449.5" x2="449.5" y1="719.0859" y2="732.0859"/><line style="stroke:#181818;stroke-width:1.0;" x1="408.5" x2="449.5" y1="732.0859" y2="732.0859"/><polygon fill="#181818" points="418.5,728.0859,408.5,732.0859,418.5,736.0859,414.5,732.0859" style="stroke:#181818;stroke-width:1.0;"/><text fill="#000000" font-family="sans-serif" font-size="13" font-weight="bold" lengthAdjust="spacing" textLength="18" x="414.5" y="714.02">14</text><text fill="#000000" font-family="sans-serif" font-size="13" lengthAdjust="spacing" textLength="191" x="436.5" y="714.02">Verify Relying Party Metadata</text><line style="stroke:#181818;stroke-width:1.0;" x1="407.5" x2="449.5" y1="761.2188" y2="761.2188"/><line style="stroke:#181818;stroke-width:1.0;" x1="449.5" x2="449.5" y1="761.2188" y2="774.2188"/><line style="stroke:#181818;stroke-width:1.0;" x1="408.5" x2="449.5" y1="774.2188" y2="774.2188"/><polygon fill="#181818" points="418.5,770.2188,408.5,774.2188,418.5,778.2188,414.5,774.2188" style="stroke:#181818;stroke-width:1.0;"/><text fill="#000000" font-family="sans-serif" font-size="13" font-weight="bold" lengthAdjust="spacing" textLength="18" x="414.5" y="756.1528">15</text><text fill="#000000" font-family="sans-serif" font-size="13" lengthAdjust="spacing" textLength="146" x="436.5" y="756.1528">Validate JWT Signature</text><line style="stroke:#181818;stroke-width:1.0;" x1="407.5" x2="449.5" y1="803.3516" y2="803.3516"/><line style="stroke:#181818;stroke-width:1.0;" x1="449.5" x2="449.5" y1="803.3516" y2="816.3516"/><line style="stroke:#181818;stroke-width:1.0;" x1="408.5" x2="449.5" y1="816.3516" y2="816.3516"/><polygon fill="#181818" points="418.5,812.3516,408.5,816.3516,418.5,820.3516,414.5,816.3516" style="stroke:#181818;stroke-width:1.0;"/><text fill="#000000" font-family="sans-serif" font-size="13" font-weight="bold" lengthAdjust="spacing" textLength="18" x="414.5" y="798.2856">16</text><text fill="#000000" font-family="sans-serif" font-size="13" lengthAdjust="spacing" textLength="163" x="436.5" y="798.2856">Validate Requested VP(s)</text><polygon fill="#181818" points="54.5,841.4844,44.5,845.4844,54.5,849.4844,50.5,845.4844" style="stroke:#181818;stroke-width:1.0;"/><line style="stroke:#181818;stroke-width:1.0;" x1="48.5" x2="396.5" y1="845.4844" y2="845.4844"/><text fill="#000000" font-family="sans-serif" font-size="13" font-weight="bold" lengthAdjust="spacing" textLength="18" x="60.5" y="840.4185">17</text><text fill="#000000" font-family="sans-serif" font-size="13" lengthAdjust="spacing" textLength="130" x="82.5" y="840.4185">Request for consent</text><polygon fill="#181818" points="385.5,870.6172,395.5,874.6172,385.5,878.6172,389.5,874.6172" style="stroke:#181818;stroke-width:1.0;"/><line style="stroke:#181818;stroke-width:1.0;stroke-dasharray:2.0,2.0;" x1="38.5" x2="391.5" y1="874.6172" y2="874.6172"/><text fill="#000000" font-family="sans-serif" font-size="13" font-weight="bold" lengthAdjust="spacing" textLength="18" x="45.5" y="869.5513">18</text><text fill="#000000" font-family="sans-serif" font-size="13" lengthAdjust="spacing" textLength="67" x="67.5" y="869.5513">Confirmed</text><polygon fill="#181818" points="1155.5,914.8828,1165.5,918.8828,1155.5,922.8828,1159.5,918.8828" style="stroke:#181818;stroke-width:1.0;"/><line style="stroke:#181818;stroke-width:1.0;" x1="407.5" x2="1161.5" y1="918.8828" y2="918.8828"/><text fill="#000000" font-family="sans-serif" font-size="13" font-weight="bold" lengthAdjust="spacing" textLength="18" x="414.5" y="906.2505">19</text><text fill="#000000" font-family="sans-serif" font-size="13" lengthAdjust="spacing" textLength="190" x="436.5" y="898.6841">POST Authorization Response</text><text fill="#000000" font-family="sans-serif" font-size="13" lengthAdjust="spacing" textLength="90" x="440.5" y="913.8169">with vp_token</text><line style="stroke:#181818;stroke-width:1.0;" x1="1177.5" x2="1219.5" y1="948.0156" y2="948.0156"/><line style="stroke:#181818;stroke-width:1.0;" x1="1219.5" x2="1219.5" y1="948.0156" y2="961.0156"/><line style="stroke:#181818;stroke-width:1.0;" x1="1178.5" x2="1219.5" y1="961.0156" y2="961.0156"/><polygon fill="#181818" points="1188.5,957.0156,1178.5,961.0156,1188.5,965.0156,1184.5,961.0156" style="stroke:#181818;stroke-width:1.0;"/><text fill="#000000" font-family="sans-serif" font-size="13" font-weight="bold" lengthAdjust="spacing" textLength="19" x="1184.5" y="942.9497">20</text><text fill="#000000" font-family="sans-serif" font-size="13" lengthAdjust="spacing" textLength="270" x="1207.5" y="942.9497">Evaluate the Verifiable Presentation token</text><line style="stroke:#181818;stroke-width:1.0;" x1="1177.5" x2="1219.5" y1="1035.5469" y2="1035.5469"/><line style="stroke:#181818;stroke-width:1.0;" x1="1219.5" x2="1219.5" y1="1035.5469" y2="1048.5469"/><line style="stroke:#181818;stroke-width:1.0;" x1="1178.5" x2="1219.5" y1="1048.5469" y2="1048.5469"/><polygon fill="#181818" points="1188.5,1044.5469,1178.5,1048.5469,1188.5,1052.5469,1184.5,1048.5469" style="stroke:#181818;stroke-width:1.0;"/><text fill="#000000" font-family="sans-serif" font-size="13" font-weight="bold" lengthAdjust="spacing" textLength="18" x="1184.5" y="1007.7817">21</text><text fill="#000000" font-family="sans-serif" font-size="13" lengthAdjust="spacing" textLength="258" x="1206.5" y="985.0825">Validate the Wallet Instance Attestation.</text><text fill="#000000" font-family="sans-serif" font-size="13" lengthAdjust="spacing" textLength="165" x="1206.5" y="1000.2153">Attest the Wallet Provider</text><text fill="#000000" font-family="sans-serif" font-size="13" lengthAdjust="spacing" textLength="154" x="1210.5" y="1015.3481">is part of the Federation</text><text fill="#000000" font-family="sans-serif" font-size="13" lengthAdjust="spacing" textLength="250" x="1210.5" y="1030.481">and the Wallet Instance is not revoked.</text><line style="stroke:#181818;stroke-width:1.0;" x1="1177.5" x2="1219.5" y1="1092.8125" y2="1092.8125"/><line style="stroke:#181818;stroke-width:1.0;" x1="1219.5" x2="1219.5" y1="1092.8125" y2="1105.8125"/><line style="stroke:#181818;stroke-width:1.0;" x1="1178.5" x2="1219.5" y1="1105.8125" y2="1105.8125"/><polygon fill="#181818" points="1188.5,1101.8125,1178.5,1105.8125,1188.5,1109.8125,1184.5,1105.8125" style="stroke:#181818;stroke-width:1.0;"/><text fill="#000000" font-family="sans-serif" font-size="13" font-weight="bold" lengthAdjust="spacing" textLength="18" x="1184.5" y="1080.1802">22</text><text fill="#000000" font-family="sans-serif" font-size="13" lengthAdjust="spacing" textLength="187" x="1206.5" y="1072.6138">Attest Credential Issuer Trust</text><text fill="#000000" font-family="sans-serif" font-size="13" lengthAdjust="spacing" textLength="174" x="1210.5" y="1087.7466">and Validate JWT Signature</text><line style="stroke:#181818;stroke-width:1.0;" x1="1177.5" x2="1219.5" y1="1134.9453" y2="1134.9453"/><line style="stroke:#181818;stroke-width:1.0;" x1="1219.5" x2="1219.5" y1="1134.9453" y2="1147.9453"/><line style="stroke:#181818;stroke-width:1.0;" x1="1178.5" x2="1219.5" y1="1147.9453" y2="1147.9453"/><polygon fill="#181818" points="1188.5,1143.9453,1178.5,1147.9453,1188.5,1151.9453,1184.5,1147.9453" style="stroke:#181818;stroke-width:1.0;"/><text fill="#000000" font-family="sans-serif" font-size="13" font-weight="bold" lengthAdjust="spacing" textLength="17" x="1184.5" y="1129.8794">23</text><text fill="#000000" font-family="sans-serif" font-size="13" lengthAdjust="spacing" textLength="142" x="1205.5" y="1129.8794">Process the credential</text><rect fill="#90EE90" height="83" style="stroke:#181818;stroke-width:0.5;" width="543" x="901" y="1160.9453"/><text fill="#000000" font-family="sans-serif" font-size="13" lengthAdjust="spacing" textLength="147" x="905" y="1177.0122">Process the credential:</text><text fill="#000000" font-family="sans-serif" font-size="13" lengthAdjust="spacing" textLength="325" x="909" y="1192.145">Check Holder Key Binding and Proof of Possession:</text><text fill="#000000" font-family="sans-serif" font-size="13" lengthAdjust="spacing" textLength="449" x="909" y="1207.2778">- using the public key bound in\n the Credential to verify the VP token.</text><text fill="#000000" font-family="sans-serif" font-size="13" lengthAdjust="spacing" textLength="4" x="905" y="1222.4106"> </text><text fill="#000000" font-family="sans-serif" font-size="13" lengthAdjust="spacing" textLength="531" x="909" y="1237.5435">Then Extract the disclosed attributes: \n Check if all the required data are available</text><line style="stroke:#181818;stroke-width:1.0;" x1="1177.5" x2="1219.5" y1="1270.7422" y2="1270.7422"/><line style="stroke:#181818;stroke-width:1.0;" x1="1219.5" x2="1219.5" y1="1270.7422" y2="1283.7422"/><line style="stroke:#181818;stroke-width:1.0;" x1="1178.5" x2="1219.5" y1="1283.7422" y2="1283.7422"/><polygon fill="#181818" points="1188.5,1279.7422,1178.5,1283.7422,1188.5,1287.7422,1184.5,1283.7422" style="stroke:#181818;stroke-width:1.0;"/><text fill="#000000" font-family="sans-serif" font-size="13" font-weight="bold" lengthAdjust="spacing" textLength="18" x="1184.5" y="1265.6763">24</text><text fill="#000000" font-family="sans-serif" font-size="13" lengthAdjust="spacing" textLength="268" x="1206.5" y="1265.6763">Update the User session (cookie updated)</text><polygon fill="#181818" points="413.5,1324.0078,403.5,1328.0078,413.5,1332.0078,409.5,1328.0078" style="stroke:#181818;stroke-width:1.0;"/><line style="stroke:#181818;stroke-width:1.0;stroke-dasharray:2.0,2.0;" x1="407.5" x2="1171.5" y1="1328.0078" y2="1328.0078"/><text fill="#000000" font-family="sans-serif" font-size="13" font-weight="bold" lengthAdjust="spacing" textLength="18" x="419.5" y="1315.3755">25</text><text fill="#000000" font-family="sans-serif" font-size="13" lengthAdjust="spacing" textLength="107" x="441.5" y="1307.8091">HTTP/1.1 200 OK</text><text fill="#000000" font-family="sans-serif" font-size="13" lengthAdjust="spacing" textLength="298" x="445.5" y="1322.9419">{"redirect_uri": https url with response_code }</text><path d="M330,1343.0078 L506,1343.0078 L506,1350.1406 L496,1360.1406 L330,1360.1406 L330,1343.0078 " fill="#EEEEEE" style="stroke:#000000;stroke-width:1.5;"/><rect fill="none" height="46.2656" style="stroke:#000000;stroke-width:1.5;" width="365.5" x="330" y="1343.0078"/><text fill="#000000" font-family="sans-serif" font-size="13" font-weight="bold" lengthAdjust="spacing" textLength="131" x="345" y="1356.0747">Same Device only</text><polygon fill="#181818" points="627.5,1377.2734,637.5,1381.2734,627.5,1385.2734,631.5,1381.2734" style="stroke:#181818;stroke-width:1.0;"/><line style="stroke:#181818;stroke-width:1.0;" x1="402.5" x2="633.5" y1="1381.2734" y2="1381.2734"/><text fill="#000000" font-family="sans-serif" font-size="13" font-weight="bold" lengthAdjust="spacing" textLength="18" x="409.5" y="1376.2075">26</text><text fill="#000000" font-family="sans-serif" font-size="13" lengthAdjust="spacing" textLength="125" x="431.5" y="1376.2075">Use the redirect_uri</text><path d="M583.5,1403.2734 L761.5,1403.2734 L761.5,1410.4063 L751.5,1420.4063 L583.5,1420.4063 L583.5,1403.2734 " fill="#EEEEEE" style="stroke:#000000;stroke-width:1.5;"/><rect fill="none" height="75.3984" style="stroke:#000000;stroke-width:1.5;" width="653.5" x="583.5" y="1403.2734"/><text fill="#000000" font-family="sans-serif" font-size="13" font-weight="bold" lengthAdjust="spacing" textLength="133" x="598.5" y="1416.3403">Cross Device only</text><polygon fill="#181818" points="1160.5,1437.5391,1170.5,1441.5391,1160.5,1445.5391,1164.5,1441.5391" style="stroke:#181818;stroke-width:1.0;"/><line style="stroke:#181818;stroke-width:1.0;" x1="639.5" x2="1166.5" y1="1441.5391" y2="1441.5391"/><text fill="#000000" font-family="sans-serif" font-size="13" font-weight="bold" lengthAdjust="spacing" textLength="18" x="646.5" y="1436.4731">27</text><text fill="#000000" font-family="sans-serif" font-size="13" lengthAdjust="spacing" textLength="425" x="668.5" y="1436.4731">QRCode JS: Check authentication state (HTTP request with cookie)</text><polygon fill="#181818" points="650.5,1466.6719,640.5,1470.6719,650.5,1474.6719,646.5,1470.6719" style="stroke:#181818;stroke-width:1.0;"/><line style="stroke:#181818;stroke-width:1.0;stroke-dasharray:2.0,2.0;" x1="644.5" x2="1171.5" y1="1470.6719" y2="1470.6719"/><text fill="#000000" font-family="sans-serif" font-size="13" font-weight="bold" lengthAdjust="spacing" textLength="18" x="656.5" y="1465.606">28</text><text fill="#000000" font-family="sans-serif" font-size="13" lengthAdjust="spacing" textLength="457" x="678.5" y="1465.606">Authentication state given with HTTP codes, untill expired or successful</text><!--SRC=[VLLDRnit4BtpLmoKGoN3Tfta9i017DMDdRIL8YdnHO11SKSIwpMvvSVAIj7_dXbo9QrikO0F5dTc-DxCcqSPWpNnSOvE276bWdNG-URHTK1wY4BCxLC- -CN3RrXhXRu3R_xGorNuM4OKbNH1Arr94w1p9yiI0zmQ7wHHc6gi3qCYbJgJIpGXto05cWBebiEmCPORRPOmeiDDYgnHY0Xd7oYb3tSuXmawXWD6rdefWxP6HCa1DVPXZFz4z056pWPK0GiwyJOwHLKkBu49mLKCAyAXLKg6xiYXfz_vrsWbFVRWyb985NGj0pA26hSN31pocOIJ4o8RyEG4QaaDcPcvZSGeMDXJ1MNjWpwIxZBC- -Wq_Ty0p55Cy-juO0k4uHXkfjCHKIYq8pRGVN_nhWTh7LQWIaqNtElYzA2O90Y5zihMw3Py8Wfi4n5xMciXbix6YZ1PlnqoM5Dkcdx6FanMTWtKhIsYYcZnDEZhkW_32atw-cp-8Alg54ghP0doeDbY3JbregIXei1LTuVNJy4Hl9dPaPkP5hcPUS5kPXREFZO8Sp6IbSWLkT-ZuMIwXJT5jJAQGGra9UUwr46Zvubn_a5Te2gLrIQ8LsI0F7GwzMt-noz8MPdWLft3-TyqpXUZsVRXAWIEEjW5cBhemoxaEpgzs3mB-HE3B6IG-oXPweBBVxwRmaGlZGpHuSlF3IxQbk-Zhk_bWBZ7ko1tKDRmbkpx4VT265YpqEuHYpQb-6mAl7RMwHzvpsWjAwu8CvC5NLVtmJwWUQNXrqt3KxyJUotd9SB1ykO2-wGTmMCYpLrEYUU4ecbwAv8yfDO5EaAeFR1DWLsaWD-HZbCcVMDH7gjFESO6siwQK1NdBLZDLUG51Qy6wUNM-qZEb6RSb7nbTlig18zCEGjGxKe9uUXMscEICeMHPTz-kfb-6bzV_oMEP_G535Qe7k36baGBlk06FcfJiAuO26KHRVeRaKrGEh6cb3EoEOxWMbMSbrh10oLc4zJS5_xIeaXhLcVHfWcEyh3EXO0f6SHsztUhM5fFSfGXE3sFrAu-2oNZr0kWLgT8TWUoHd85aZr8HzPJIrsoCjW8KYj4gsVVgfqSqbFGy85kDcg8wNlHWzRIiWN_-lRyBRoxk83X5uBnRySrZinUqUd3AeIAtZHNPYcxHjltYZtpl_PIh9ylVRRWYNp40mTURvy2WjamtT-OFUx_pPlPDgRzUT9lEdTenf0UCEYcDwRnsUPnITteRPl0EAwEfIvrZStwfYBCrvz2f3WQ43vLQJPa7ZugLjuYbepz9m00]--></g></svg>