<?xml version="1.0" encoding="us-ascii" standalone="no"?><svg xmlns="http://www.w3.org/2000/svg" xmlns:xlink="http://www.w3.org/1999/xlink" contentStyleType="text/css" height="648px" preserveAspectRatio="none" style="width:1061px;height:648px;background:#FFFFFF;" version="1.1" viewBox="0 0 1061 648" width="1061px" zoomAndPan="magnify"><defs/><g><line style="stroke:#181818;stroke-width:0.5;stroke-dasharray:5.0,5.0;" x1="27.5" x2="27.5" y1="36.2969" y2="612.5547"/><line style="stroke:#181818;stroke-width:0.5;stroke-dasharray:5.0,5.0;" x1="276.5" x2="276.5" y1="36.2969" y2="612.5547"/><line style="stroke:#181818;stroke-width:0.5;stroke-dasharray:5.0,5.0;" x1="741.5" x2="741.5" y1="36.2969" y2="612.5547"/><rect fill="#FFFFFF" height="231.7969" style="stroke:#181818;stroke-width:1.0;" width="10" x="736.5" y="331.4922"/><rect fill="#E2E2F0" height="30.2969" rx="2.5" ry="2.5" style="stroke:#181818;stroke-width:0.5;" width="45" x="5" y="5"/><text fill="#000000" font-family="sans-serif" font-size="14" lengthAdjust="spacing" textLength="31" x="12" y="24.9951">User</text><rect fill="#E2E2F0" height="30.2969" rx="2.5" ry="2.5" style="stroke:#181818;stroke-width:0.5;" width="125" x="214" y="5"/><text fill="#000000" font-family="sans-serif" font-size="14" lengthAdjust="spacing" textLength="111" x="221" y="24.9951">Wallet Instance</text><rect fill="#E2E2F0" height="30.2969" rx="2.5" ry="2.5" style="stroke:#181818;stroke-width:0.5;" width="124" x="679.5" y="5"/><text fill="#000000" font-family="sans-serif" font-size="14" lengthAdjust="spacing" textLength="110" x="686.5" y="24.9951">Wallet Provider</text><rect fill="#E2E2F0" height="30.2969" rx="2.5" ry="2.5" style="stroke:#181818;stroke-width:0.5;" width="45" x="5" y="612.5547"/><text fill="#000000" font-family="sans-serif" font-size="14" lengthAdjust="spacing" textLength="31" x="12" y="632.5498">User</text><rect fill="#E2E2F0" height="30.2969" rx="2.5" ry="2.5" style="stroke:#181818;stroke-width:0.5;" width="125" x="214" y="612.5547"/><text fill="#000000" font-family="sans-serif" font-size="14" lengthAdjust="spacing" textLength="111" x="221" y="632.5498">Wallet Instance</text><rect fill="#E2E2F0" height="30.2969" rx="2.5" ry="2.5" style="stroke:#181818;stroke-width:0.5;" width="124" x="679.5" y="612.5547"/><text fill="#000000" font-family="sans-serif" font-size="14" lengthAdjust="spacing" textLength="110" x="686.5" y="632.5498">Wallet Provider</text><polygon fill="#181818" points="264.5,76.5625,274.5,80.5625,264.5,84.5625,268.5,80.5625" style="stroke:#181818;stroke-width:1.0;"/><line style="stroke:#181818;stroke-width:1.0;" x1="27.5" x2="270.5" y1="80.5625" y2="80.5625"/><text fill="#000000" font-family="sans-serif" font-size="13" font-weight="bold" lengthAdjust="spacing" textLength="9" x="34.5" y="67.9302">1</text><text fill="#000000" font-family="sans-serif" font-size="13" lengthAdjust="spacing" textLength="151" x="47.5" y="60.3638">Initialize wallet instance</text><text fill="#000000" font-family="sans-serif" font-size="13" lengthAdjust="spacing" textLength="193" x="47.5" y="75.4966">or request/present credentials</text><polygon fill="#181818" points="729.5,105.6953,739.5,109.6953,729.5,113.6953,733.5,109.6953" style="stroke:#181818;stroke-width:1.0;"/><line style="stroke:#181818;stroke-width:1.0;" x1="276.5" x2="735.5" y1="109.6953" y2="109.6953"/><text fill="#000000" font-family="sans-serif" font-size="13" font-weight="bold" lengthAdjust="spacing" textLength="9" x="283.5" y="104.6294">2</text><text fill="#000000" font-family="sans-serif" font-size="13" lengthAdjust="spacing" textLength="189" x="296.5" y="104.6294">Get wallet provider metadata</text><polygon fill="#181818" points="287.5,134.8281,277.5,138.8281,287.5,142.8281,283.5,138.8281" style="stroke:#181818;stroke-width:1.0;"/><line style="stroke:#181818;stroke-width:1.0;stroke-dasharray:2.0,2.0;" x1="281.5" x2="740.5" y1="138.8281" y2="138.8281"/><text fill="#000000" font-family="sans-serif" font-size="13" font-weight="bold" lengthAdjust="spacing" textLength="8" x="293.5" y="133.7622">3</text><text fill="#000000" font-family="sans-serif" font-size="13" lengthAdjust="spacing" textLength="429" x="305.5" y="133.7622">Metadata containing credential types, key requirements, endpoints</text><line style="stroke:#181818;stroke-width:1.0;" x1="276.5" x2="318.5" y1="167.9609" y2="167.9609"/><line style="stroke:#181818;stroke-width:1.0;" x1="318.5" x2="318.5" y1="167.9609" y2="180.9609"/><line style="stroke:#181818;stroke-width:1.0;" x1="277.5" x2="318.5" y1="180.9609" y2="180.9609"/><polygon fill="#181818" points="287.5,176.9609,277.5,180.9609,287.5,184.9609,283.5,180.9609" style="stroke:#181818;stroke-width:1.0;"/><text fill="#000000" font-family="sans-serif" font-size="13" font-weight="bold" lengthAdjust="spacing" textLength="9" x="283.5" y="162.895">4</text><text fill="#000000" font-family="sans-serif" font-size="13" lengthAdjust="spacing" textLength="207" x="296.5" y="162.895">Validate wallet provider trust list</text><line style="stroke:#181818;stroke-width:1.0;" x1="276.5" x2="318.5" y1="210.0938" y2="210.0938"/><line style="stroke:#181818;stroke-width:1.0;" x1="318.5" x2="318.5" y1="210.0938" y2="223.0938"/><line style="stroke:#181818;stroke-width:1.0;" x1="277.5" x2="318.5" y1="223.0938" y2="223.0938"/><polygon fill="#181818" points="287.5,219.0938,277.5,223.0938,287.5,227.0938,283.5,223.0938" style="stroke:#181818;stroke-width:1.0;"/><text fill="#000000" font-family="sans-serif" font-size="13" font-weight="bold" lengthAdjust="spacing" textLength="9" x="283.5" y="205.0278">5</text><text fill="#000000" font-family="sans-serif" font-size="13" lengthAdjust="spacing" textLength="122" x="296.5" y="205.0278">Generate key pairs</text><polygon fill="#181818" points="729.5,248.2266,739.5,252.2266,729.5,256.2266,733.5,252.2266" style="stroke:#181818;stroke-width:1.0;"/><line style="stroke:#181818;stroke-width:1.0;" x1="276.5" x2="735.5" y1="252.2266" y2="252.2266"/><text fill="#000000" font-family="sans-serif" font-size="13" font-weight="bold" lengthAdjust="spacing" textLength="9" x="283.5" y="247.1606">6</text><text fill="#000000" font-family="sans-serif" font-size="13" lengthAdjust="spacing" textLength="96" x="296.5" y="247.1606">Request nonce</text><polygon fill="#181818" points="287.5,277.3594,277.5,281.3594,287.5,285.3594,283.5,281.3594" style="stroke:#181818;stroke-width:1.0;"/><line style="stroke:#181818;stroke-width:1.0;stroke-dasharray:2.0,2.0;" x1="281.5" x2="740.5" y1="281.3594" y2="281.3594"/><text fill="#000000" font-family="sans-serif" font-size="13" font-weight="bold" lengthAdjust="spacing" textLength="9" x="293.5" y="276.2935">7</text><text fill="#000000" font-family="sans-serif" font-size="13" lengthAdjust="spacing" textLength="39" x="306.5" y="276.2935">nonce</text><line style="stroke:#181818;stroke-width:1.0;" x1="276.5" x2="318.5" y1="310.4922" y2="310.4922"/><line style="stroke:#181818;stroke-width:1.0;" x1="318.5" x2="318.5" y1="310.4922" y2="323.4922"/><line style="stroke:#181818;stroke-width:1.0;" x1="277.5" x2="318.5" y1="323.4922" y2="323.4922"/><polygon fill="#181818" points="287.5,319.4922,277.5,323.4922,287.5,327.4922,283.5,323.4922" style="stroke:#181818;stroke-width:1.0;"/><text fill="#000000" font-family="sans-serif" font-size="13" font-weight="bold" lengthAdjust="spacing" textLength="9" x="283.5" y="305.4263">8</text><text fill="#000000" font-family="sans-serif" font-size="13" lengthAdjust="spacing" textLength="295" x="296.5" y="305.4263">Create Wallet Instance Assertion Request JWT</text><polygon fill="#181818" points="724.5,348.625,734.5,352.625,724.5,356.625,728.5,352.625" style="stroke:#181818;stroke-width:1.0;"/><line style="stroke:#181818;stroke-width:1.0;" x1="276.5" x2="730.5" y1="352.625" y2="352.625"/><text fill="#000000" font-family="sans-serif" font-size="13" font-weight="bold" lengthAdjust="spacing" textLength="9" x="283.5" y="347.5591">9</text><text fill="#000000" font-family="sans-serif" font-size="13" lengthAdjust="spacing" textLength="319" x="296.5" y="347.5591">Get assertion (Wallet Instance Assertion Request)</text><line style="stroke:#181818;stroke-width:1.0;" x1="746.5" x2="788.5" y1="381.7578" y2="381.7578"/><line style="stroke:#181818;stroke-width:1.0;" x1="788.5" x2="788.5" y1="381.7578" y2="394.7578"/><line style="stroke:#181818;stroke-width:1.0;" x1="747.5" x2="788.5" y1="394.7578" y2="394.7578"/><polygon fill="#181818" points="757.5,390.7578,747.5,394.7578,757.5,398.7578,753.5,394.7578" style="stroke:#181818;stroke-width:1.0;"/><text fill="#000000" font-family="sans-serif" font-size="13" font-weight="bold" lengthAdjust="spacing" textLength="19" x="753.5" y="376.6919">10</text><text fill="#000000" font-family="sans-serif" font-size="13" lengthAdjust="spacing" textLength="237" x="776.5" y="376.6919">Validate wallet instance genuineness</text><line style="stroke:#181818;stroke-width:1.0;" x1="746.5" x2="788.5" y1="423.8906" y2="423.8906"/><line style="stroke:#181818;stroke-width:1.0;" x1="788.5" x2="788.5" y1="423.8906" y2="436.8906"/><line style="stroke:#181818;stroke-width:1.0;" x1="747.5" x2="788.5" y1="436.8906" y2="436.8906"/><polygon fill="#181818" points="757.5,432.8906,747.5,436.8906,757.5,440.8906,753.5,436.8906" style="stroke:#181818;stroke-width:1.0;"/><text fill="#000000" font-family="sans-serif" font-size="13" font-weight="bold" lengthAdjust="spacing" textLength="18" x="753.5" y="418.8247">11</text><text fill="#000000" font-family="sans-serif" font-size="13" lengthAdjust="spacing" textLength="116" x="775.5" y="418.8247">Validate signature</text><line style="stroke:#181818;stroke-width:1.0;" x1="746.5" x2="788.5" y1="466.0234" y2="466.0234"/><line style="stroke:#181818;stroke-width:1.0;" x1="788.5" x2="788.5" y1="466.0234" y2="479.0234"/><line style="stroke:#181818;stroke-width:1.0;" x1="747.5" x2="788.5" y1="479.0234" y2="479.0234"/><polygon fill="#181818" points="757.5,475.0234,747.5,479.0234,757.5,483.0234,753.5,479.0234" style="stroke:#181818;stroke-width:1.0;"/><text fill="#000000" font-family="sans-serif" font-size="13" font-weight="bold" lengthAdjust="spacing" textLength="18" x="753.5" y="460.9575">12</text><text fill="#000000" font-family="sans-serif" font-size="13" lengthAdjust="spacing" textLength="279" x="775.5" y="460.9575">generate and sign wallet instance assertion</text><polygon fill="#181818" points="287.5,504.1563,277.5,508.1563,287.5,512.1563,283.5,508.1563" style="stroke:#181818;stroke-width:1.0;"/><line style="stroke:#181818;stroke-width:1.0;stroke-dasharray:2.0,2.0;" x1="281.5" x2="735.5" y1="508.1563" y2="508.1563"/><text fill="#000000" font-family="sans-serif" font-size="13" font-weight="bold" lengthAdjust="spacing" textLength="17" x="293.5" y="503.0903">13</text><text fill="#000000" font-family="sans-serif" font-size="13" lengthAdjust="spacing" textLength="162" x="314.5" y="503.0903">Wallet Instance Assertion</text><line style="stroke:#181818;stroke-width:1.0;" x1="276.5" x2="318.5" y1="537.2891" y2="537.2891"/><line style="stroke:#181818;stroke-width:1.0;" x1="318.5" x2="318.5" y1="537.2891" y2="550.2891"/><line style="stroke:#181818;stroke-width:1.0;" x1="277.5" x2="318.5" y1="550.2891" y2="550.2891"/><polygon fill="#181818" points="287.5,546.2891,277.5,550.2891,287.5,554.2891,283.5,550.2891" style="stroke:#181818;stroke-width:1.0;"/><text fill="#000000" font-family="sans-serif" font-size="13" font-weight="bold" lengthAdjust="spacing" textLength="18" x="283.5" y="532.2231">14</text><text fill="#000000" font-family="sans-serif" font-size="13" lengthAdjust="spacing" textLength="215" x="305.5" y="532.2231">Validate wallet instance assertion</text><polygon fill="#181818" points="38.5,590.5547,28.5,594.5547,38.5,598.5547,34.5,594.5547" style="stroke:#181818;stroke-width:1.0;"/><line style="stroke:#181818;stroke-width:1.0;stroke-dasharray:2.0,2.0;" x1="32.5" x2="275.5" y1="594.5547" y2="594.5547"/><text fill="#000000" font-family="sans-serif" font-size="13" font-weight="bold" lengthAdjust="spacing" textLength="18" x="44.5" y="581.9224">15</text><text fill="#000000" font-family="sans-serif" font-size="13" lengthAdjust="spacing" textLength="161" x="66.5" y="574.356">Wallet instance initialized</text><text fill="#000000" font-family="sans-serif" font-size="13" lengthAdjust="spacing" textLength="203" x="66.5" y="589.4888">ready to obtain new credentials</text><!--SRC=[XP8zJyD038Rt_0hJ2IGYzWwL44C54X92G9SkJc955ealtFaQjRyUvwEXds9APBz-RB- -cyPZMICekHseZvHWL2UnpiWdIODUEUS6HM7s6SZF00F4u_WAgueKdYKeIawzfEMBcZVlDboCc3PBaWZfmiHpgsPbh7X7q0vQ7dbhSHuy_KGA-j1u2cJ0t5DXNwi8ISlfeitciBIYiROP-q1DYWKg9csMcieQlOuHo9qeih2K1pJGRKFX7hvfs_TaJxLbB49ID8xjT-Xdf2yRrqXqrjHi30eL1pNjVi4b2VbEtQ4RP1_sIHlzVLWFnDd2DYkaOzKGc5e-UUeG9ux3Ox3JA3kPG2-hZmHpvKq_NtRa4Kxgstz1TvrnVUNfjllpG4aIMMox4Cx5WKj1ZPwcLBdt0QNeqsV0QRw_ersTy-enBj0AEd4aNSG9FUbvUeZ5MipkOWlgm6NTMm6Xzl3f_G80]--></g></svg>