<?xml version="1.0" encoding="utf-8"?>
<!-- Generator: Adobe Illustrator 22.1.0, SVG Export Plug-In . SVG Version: 6.00 Build 0)  -->
<svg version="1.1" id="Livello_1" xmlns="http://www.w3.org/2000/svg" xmlns:xlink="http://www.w3.org/1999/xlink" x="0px" y="0px"
	 viewBox="0 0 48 12" style="enable-background:new 0 0 48 12;" xml:space="preserve">
<style type="text/css">
	.st0{fill:#004080;}
</style>
<g>
	<path class="st0" d="M42,1.1c2.7,0,4.9,2.2,4.9,4.9s-2.2,4.9-4.9,4.9S37.1,8.7,37.1,6S39.3,1.1,42,1.1 M42,0c-3.3,0-6,2.7-6,6
		s2.7,6,6,6s6-2.7,6-6S45.3,0,42,0L42,0z"/>
</g>
<g>
	<path class="st0" d="M24,1.1c2.7,0,4.9,2.2,4.9,4.9s-2.2,4.9-4.9,4.9S19.1,8.7,19.1,6S21.3,1.1,24,1.1 M24,0c-3.3,0-6,2.7-6,6
		s2.7,6,6,6s6-2.7,6-6S27.3,0,24,0L24,0z"/>
</g>
<g id="_x2013_-Documento">
	<g id="docs_article_nav_1-cap_02" transform="translate(-585.000000, -9105.000000)">
		<g id="Group-32" transform="translate(520.000000, 9105.000000)">
			<g id="Group-24" transform="translate(40.000000, 0.000000)">
				<g id="Group-31" transform="translate(24.268396, 0.000000)">
					<path id="Fill-1" class="st0" d="M12.2,5C12,5,11.9,5,11.8,5.1c-0.1,0.1-0.1,0.2-0.1,0.4V6c0,0.7-0.1,1.3-0.4,1.9
						c-0.3,0.6-0.6,1.1-1,1.6c-0.4,0.4-1,0.8-1.6,1c-0.6,0.3-1.2,0.4-1.9,0.4l0,0l0,0c-0.7,0-1.3-0.1-1.9-0.4
						c-0.6-0.3-1.1-0.6-1.6-1c-0.4-0.4-0.8-1-1-1.6C1.9,7.3,1.8,6.7,1.8,6s0.1-1.3,0.4-1.9c0.3-0.6,0.6-1.1,1-1.6
						c0.4-0.4,1-0.8,1.6-1C5.4,1.2,6,1.1,6.7,1.1l0,0l0,0c0.4,0,0.7,0,1,0.1c0.3,0.1,0.7,0.2,1,0.3c0.1,0.1,0.3,0.1,0.4,0
						c0.1-0.1,0.2-0.1,0.3-0.3c0.1-0.1,0.1-0.3,0-0.4C9.4,0.7,9.3,0.6,9.2,0.5C8.8,0.4,8.4,0.2,8,0.1C7.6,0,7.2,0,6.7,0l0,0l0,0
						C5.9,0,5.1,0.2,4.4,0.5C3.7,0.8,3,1.2,2.5,1.8s-1,1.2-1.3,1.9C0.9,4.4,0.7,5.2,0.7,6c0,0.8,0.2,1.6,0.5,2.3
						c0.3,0.7,0.7,1.4,1.3,1.9s1.2,1,1.9,1.3C5.1,11.8,5.9,12,6.7,12l0,0l0,0c0.8,0,1.6-0.2,2.3-0.5c0.7-0.3,1.4-0.7,1.9-1.3
						c0.5-0.5,1-1.2,1.3-1.9c0.3-0.7,0.5-1.5,0.5-2.3V5.5c0-0.2,0-0.3-0.1-0.4C12.5,5,12.3,5,12.2,5z M13.1,0.7
						c-0.1-0.1-0.2-0.2-0.4-0.2s-0.3,0.1-0.4,0.2L6.7,6.3L5.5,5.1C5.4,5,5.2,4.9,5.1,4.9C4.9,4.9,4.8,5,4.7,5.1
						C4.6,5.2,4.5,5.3,4.5,5.5s0.1,0.3,0.2,0.4l1.6,1.6c0.1,0.1,0.1,0.1,0.2,0.1c0.1,0,0.1,0,0.2,0c0.1,0,0.1,0,0.2,0
						C7,7.6,7,7.5,7.1,7.5l6-6c0.1-0.1,0.2-0.2,0.2-0.4S13.2,0.8,13.1,0.7z"/>
				</g>
			</g>
		</g>
	</g>
</g>
</svg>
