<svg xmlns="http://www.w3.org/2000/svg" xmlns:xlink="http://www.w3.org/1999/xlink" contentStyleType="text/css" height="673px" preserveAspectRatio="none" style="width:1445px;height:673px;background:#FFFFFF;" version="1.1" viewBox="0 0 1445 673" width="1445px" zoomAndPan="magnify"><defs/><g><rect fill="#FFFFFF" height="504.9922" style="stroke:#181818;stroke-width:1.0;" width="10" x="252.4019" y="136.5625"/><rect fill="#FFFFFF" height="71.2656" style="stroke:#181818;stroke-width:1.0;" width="10" x="1120.0889" y="256.0938"/><rect fill="#FFFFFF" height="155.5313" style="stroke:#181818;stroke-width:1.0;" width="10" x="1120.0889" y="456.8906"/><rect fill="none" height="551.2578" style="stroke:#000000;stroke-width:1.5;" width="1429.5801" x="10" y="98.2969"/><line style="stroke:#181818;stroke-width:0.5;stroke-dasharray:5.0,5.0;" x1="38" x2="38" y1="81.2969" y2="666.5547"/><line style="stroke:#181818;stroke-width:0.5;stroke-dasharray:5.0,5.0;" x1="257.251" x2="257.251" y1="81.2969" y2="666.5547"/><line style="stroke:#181818;stroke-width:0.5;stroke-dasharray:5.0,5.0;" x1="930.6362" x2="930.6362" y1="81.2969" y2="666.5547"/><line style="stroke:#181818;stroke-width:0.5;stroke-dasharray:5.0,5.0;" x1="1124.5679" x2="1124.5679" y1="81.2969" y2="666.5547"/><text fill="#000000" font-family="sans-serif" font-size="14" lengthAdjust="spacing" textLength="31.9102" x="20" y="77.9951">User</text><ellipse cx="38.9551" cy="13.5" fill="#E2E2F0" rx="8" ry="8" style="stroke:#181818;stroke-width:0.5;"/><path d="M38.9551,21.5 L38.9551,48.5 M25.9551,29.5 L51.9551,29.5 M38.9551,48.5 L25.9551,63.5 M38.9551,48.5 L51.9551,63.5 " fill="none" style="stroke:#181818;stroke-width:0.5;"/><rect fill="#E2E2F0" height="30.2969" rx="2.5" ry="2.5" style="stroke:#181818;stroke-width:0.5;" width="122.3018" x="196.251" y="50"/><text fill="#000000" font-family="sans-serif" font-size="14" lengthAdjust="spacing" textLength="108.3018" x="203.251" y="69.9951">Wallet Instance</text><rect fill="#00FF7F" height="30.2969" rx="2.5" ry="2.5" style="stroke:#181818;stroke-width:0.5;" width="181.9316" x="840.6362" y="50"/><text fill="#000000" font-family="sans-serif" font-size="14" lengthAdjust="spacing" textLength="167.9316" x="847.6362" y="69.9951">Device Integrity Service</text><rect fill="#E2E2F0" height="30.2969" rx="2.5" ry="2.5" style="stroke:#181818;stroke-width:0.5;" width="185.042" x="1032.5679" y="50"/><text fill="#000000" font-family="sans-serif" font-size="14" lengthAdjust="spacing" textLength="171.042" x="1039.5679" y="69.9951">Wallet Provider backend</text><rect fill="#FFFFFF" height="504.9922" style="stroke:#181818;stroke-width:1.0;" width="10" x="252.4019" y="136.5625"/><rect fill="#FFFFFF" height="71.2656" style="stroke:#181818;stroke-width:1.0;" width="10" x="1120.0889" y="256.0938"/><rect fill="#FFFFFF" height="155.5313" style="stroke:#181818;stroke-width:1.0;" width="10" x="1120.0889" y="456.8906"/><path d="M10,98.2969 L329.7266,98.2969 L329.7266,105.4297 L319.7266,115.4297 L10,115.4297 L10,98.2969 " fill="#EEEEEE" style="stroke:#000000;stroke-width:1.5;"/><rect fill="none" height="551.2578" style="stroke:#000000;stroke-width:1.5;" width="1429.5801" x="10" y="98.2969"/><text fill="#000000" font-family="sans-serif" font-size="13" font-weight="bold" lengthAdjust="spacing" textLength="274.7266" x="25" y="111.3638">only upon first installation of the app</text><polygon fill="#181818" points="240.4019,132.5625,250.4019,136.5625,240.4019,140.5625,244.4019,136.5625" style="stroke:#181818;stroke-width:1.0;"/><line style="stroke:#181818;stroke-width:1.0;" x1="38.9551" x2="246.4019" y1="136.5625" y2="136.5625"/><text fill="#000000" font-family="sans-serif" font-size="13" font-weight="bold" lengthAdjust="spacing" textLength="9.0454" x="45.9551" y="131.4966">1</text><text fill="#000000" font-family="sans-serif" font-size="13" lengthAdjust="spacing" textLength="157.9424" x="59.0005" y="131.4966">starts the app (first use)</text><line style="stroke:#181818;stroke-width:1.0;" x1="262.4019" x2="304.4019" y1="180.8281" y2="180.8281"/><line style="stroke:#181818;stroke-width:1.0;" x1="304.4019" x2="304.4019" y1="180.8281" y2="193.8281"/><line style="stroke:#181818;stroke-width:1.0;" x1="263.4019" x2="304.4019" y1="193.8281" y2="193.8281"/><polygon fill="#181818" points="273.4019,189.8281,263.4019,193.8281,273.4019,197.8281,269.4019,193.8281" style="stroke:#181818;stroke-width:1.0;"/><text fill="#000000" font-family="sans-serif" font-size="13" font-weight="bold" lengthAdjust="spacing" textLength="9.0454" x="269.4019" y="168.1958">2</text><text fill="#000000" font-family="sans-serif" font-size="13" lengthAdjust="spacing" textLength="408.2939" x="282.4473" y="160.6294">Check if the device meets the minimum security requirements</text><text fill="#000000" font-family="sans-serif" font-size="13" lengthAdjust="spacing" textLength="36.7783" x="282.4473" y="175.7622">and if</text><text fill="#000000" font-family="sans-serif" font-size="13" font-weight="bold" lengthAdjust="spacing" textLength="176.1411" x="323.3579" y="175.7622">Device Integrity Service</text><text fill="#000000" font-family="sans-serif" font-size="13" lengthAdjust="spacing" textLength="73.1948" x="503.6313" y="175.7622">is available</text><rect fill="#90EE90" height="23" style="stroke:#181818;stroke-width:0.5;" width="1016" x="183" y="206.8281"/><text fill="#000000" font-family="sans-serif" font-size="13" lengthAdjust="spacing" textLength="465.5371" x="458.4109" y="222.895">Check Wallet Provider is part of the Federation and obtain its metadata</text><polygon fill="#181818" points="1108.0889,252.0938,1118.0889,256.0938,1108.0889,260.0938,1112.0889,256.0938" style="stroke:#181818;stroke-width:1.0;"/><line style="stroke:#181818;stroke-width:1.0;" x1="262.4019" x2="1114.0889" y1="256.0938" y2="256.0938"/><text fill="#000000" font-family="sans-serif" font-size="13" font-weight="bold" lengthAdjust="spacing" textLength="9.0454" x="269.4019" y="251.0278">3</text><text fill="#000000" font-family="sans-serif" font-size="13" lengthAdjust="spacing" textLength="23.1689" x="282.4473" y="251.0278">Get</text><text fill="#000000" font-family="sans-serif" font-size="13" font-weight="bold" lengthAdjust="spacing" textLength="70.8398" x="309.7485" y="251.0278">challenge</text><line style="stroke:#181818;stroke-width:1.0;" x1="1130.0889" x2="1172.0889" y1="285.2266" y2="285.2266"/><line style="stroke:#181818;stroke-width:1.0;" x1="1172.0889" x2="1172.0889" y1="285.2266" y2="298.2266"/><line style="stroke:#181818;stroke-width:1.0;" x1="1131.0889" x2="1172.0889" y1="298.2266" y2="298.2266"/><polygon fill="#181818" points="1141.0889,294.2266,1131.0889,298.2266,1141.0889,302.2266,1137.0889,298.2266" style="stroke:#181818;stroke-width:1.0;"/><text fill="#000000" font-family="sans-serif" font-size="13" font-weight="bold" lengthAdjust="spacing" textLength="9.0454" x="1137.0889" y="280.1606">4</text><text fill="#000000" font-family="sans-serif" font-size="13" lengthAdjust="spacing" textLength="149.6841" x="1150.1343" y="280.1606">Generate one time use</text><text fill="#000000" font-family="sans-serif" font-size="13" font-weight="bold" lengthAdjust="spacing" textLength="70.8398" x="1303.9507" y="280.1606">challenge</text><polygon fill="#181818" points="273.4019,323.3594,263.4019,327.3594,273.4019,331.3594,269.4019,327.3594" style="stroke:#181818;stroke-width:1.0;"/><line style="stroke:#181818;stroke-width:1.0;stroke-dasharray:2.0,2.0;" x1="267.4019" x2="1124.0889" y1="327.3594" y2="327.3594"/><text fill="#000000" font-family="sans-serif" font-size="13" font-weight="bold" lengthAdjust="spacing" textLength="9.0454" x="279.4019" y="322.2935">5</text><text fill="#000000" font-family="sans-serif" font-size="13" font-weight="bold" lengthAdjust="spacing" textLength="70.8398" x="292.4473" y="322.2935">challenge</text><line style="stroke:#181818;stroke-width:1.0;" x1="262.4019" x2="304.4019" y1="356.4922" y2="356.4922"/><line style="stroke:#181818;stroke-width:1.0;" x1="304.4019" x2="304.4019" y1="356.4922" y2="369.4922"/><line style="stroke:#181818;stroke-width:1.0;" x1="263.4019" x2="304.4019" y1="369.4922" y2="369.4922"/><polygon fill="#181818" points="273.4019,365.4922,263.4019,369.4922,273.4019,373.4922,269.4019,369.4922" style="stroke:#181818;stroke-width:1.0;"/><text fill="#000000" font-family="sans-serif" font-size="13" font-weight="bold" lengthAdjust="spacing" textLength="9.0454" x="269.4019" y="351.4263">6</text><text fill="#000000" font-family="sans-serif" font-size="13" lengthAdjust="spacing" textLength="60.7153" x="282.4473" y="351.4263">Generate</text><text fill="#000000" font-family="sans-serif" font-size="13" font-weight="bold" lengthAdjust="spacing" textLength="219.6226" x="347.2949" y="351.4263">Cryptographic Hardware Keys</text><text fill="#000000" font-family="sans-serif" font-size="13" lengthAdjust="spacing" textLength="91.0635" x="571.0498" y="351.4263">pair and store</text><text fill="#000000" font-family="sans-serif" font-size="13" font-weight="bold" lengthAdjust="spacing" textLength="243.3564" x="666.2456" y="351.4263">Cryptographic Hardware Key Tag</text><polygon fill="#181818" points="919.6021,394.625,929.6021,398.625,919.6021,402.625,923.6021,398.625" style="stroke:#181818;stroke-width:1.0;"/><line style="stroke:#181818;stroke-width:1.0;" x1="262.4019" x2="925.6021" y1="398.625" y2="398.625"/><text fill="#000000" font-family="sans-serif" font-size="13" font-weight="bold" lengthAdjust="spacing" textLength="9.0454" x="269.4019" y="393.5591">7</text><text fill="#000000" font-family="sans-serif" font-size="13" lengthAdjust="spacing" textLength="360.001" x="282.4473" y="393.5591">attestKey(challenge, Cryptographic Hardware Key Tag)</text><polygon fill="#181818" points="273.4019,423.7578,263.4019,427.7578,273.4019,431.7578,269.4019,427.7578" style="stroke:#181818;stroke-width:1.0;"/><line style="stroke:#181818;stroke-width:1.0;stroke-dasharray:2.0,2.0;" x1="267.4019" x2="930.6021" y1="427.7578" y2="427.7578"/><text fill="#000000" font-family="sans-serif" font-size="13" font-weight="bold" lengthAdjust="spacing" textLength="9.0454" x="279.4019" y="422.6919">8</text><text fill="#000000" font-family="sans-serif" font-size="13" font-weight="bold" lengthAdjust="spacing" textLength="114.7783" x="292.4473" y="422.6919">Key Attestation</text><text fill="#000000" font-family="sans-serif" font-size="13" lengthAdjust="spacing" textLength="96.9985" x="411.3579" y="422.6919">signed by OEM</text><polygon fill="#181818" points="1108.0889,452.8906,1118.0889,456.8906,1108.0889,460.8906,1112.0889,456.8906" style="stroke:#181818;stroke-width:1.0;"/><line style="stroke:#181818;stroke-width:1.0;" x1="262.4019" x2="1114.0889" y1="456.8906" y2="456.8906"/><text fill="#000000" font-family="sans-serif" font-size="13" font-weight="bold" lengthAdjust="spacing" textLength="9.0454" x="269.4019" y="451.8247">9</text><text fill="#000000" font-family="sans-serif" font-size="13" lengthAdjust="spacing" textLength="32.7412" x="282.4473" y="451.8247">Send</text><text fill="#000000" font-family="sans-serif" font-size="13" font-weight="bold" lengthAdjust="spacing" textLength="70.8398" x="319.3208" y="451.8247">challenge</text><text fill="#000000" font-family="sans-serif" font-size="13" lengthAdjust="spacing" textLength="4.1323" x="390.1606" y="451.8247">,</text><text fill="#000000" font-family="sans-serif" font-size="13" font-weight="bold" lengthAdjust="spacing" textLength="114.7783" x="398.4253" y="451.8247">Key Attestation</text><text fill="#000000" font-family="sans-serif" font-size="13" lengthAdjust="spacing" textLength="24.4575" x="517.3359" y="451.8247">and</text><text fill="#000000" font-family="sans-serif" font-size="13" font-weight="bold" lengthAdjust="spacing" textLength="243.3564" x="545.9258" y="451.8247">Cryptographic Hardware Key Tag</text><line style="stroke:#181818;stroke-width:1.0;" x1="1130.0889" x2="1172.0889" y1="486.0234" y2="486.0234"/><line style="stroke:#181818;stroke-width:1.0;" x1="1172.0889" x2="1172.0889" y1="486.0234" y2="499.0234"/><line style="stroke:#181818;stroke-width:1.0;" x1="1131.0889" x2="1172.0889" y1="499.0234" y2="499.0234"/><polygon fill="#181818" points="1141.0889,495.0234,1131.0889,499.0234,1141.0889,503.0234,1137.0889,499.0234" style="stroke:#181818;stroke-width:1.0;"/><text fill="#000000" font-family="sans-serif" font-size="13" font-weight="bold" lengthAdjust="spacing" textLength="18.0908" x="1137.0889" y="480.9575">10</text><text fill="#000000" font-family="sans-serif" font-size="13" lengthAdjust="spacing" textLength="53.3965" x="1159.1797" y="480.9575">Validate</text><text fill="#000000" font-family="sans-serif" font-size="13" font-weight="bold" lengthAdjust="spacing" textLength="70.8398" x="1216.7085" y="480.9575">challenge</text><line style="stroke:#181818;stroke-width:1.0;" x1="1130.0889" x2="1172.0889" y1="528.1563" y2="528.1563"/><line style="stroke:#181818;stroke-width:1.0;" x1="1172.0889" x2="1172.0889" y1="528.1563" y2="541.1563"/><line style="stroke:#181818;stroke-width:1.0;" x1="1131.0889" x2="1172.0889" y1="541.1563" y2="541.1563"/><polygon fill="#181818" points="1141.0889,537.1563,1131.0889,541.1563,1141.0889,545.1563,1137.0889,541.1563" style="stroke:#181818;stroke-width:1.0;"/><text fill="#000000" font-family="sans-serif" font-size="13" font-weight="bold" lengthAdjust="spacing" textLength="18.0908" x="1137.0889" y="523.0903">11</text><text fill="#000000" font-family="sans-serif" font-size="13" lengthAdjust="spacing" textLength="53.3965" x="1159.1797" y="523.0903">Validate</text><text fill="#000000" font-family="sans-serif" font-size="13" font-weight="bold" lengthAdjust="spacing" textLength="114.7783" x="1216.7085" y="523.0903">Key Attestation</text><line style="stroke:#181818;stroke-width:1.0;" x1="1130.0889" x2="1172.0889" y1="570.2891" y2="570.2891"/><line style="stroke:#181818;stroke-width:1.0;" x1="1172.0889" x2="1172.0889" y1="570.2891" y2="583.2891"/><line style="stroke:#181818;stroke-width:1.0;" x1="1131.0889" x2="1172.0889" y1="583.2891" y2="583.2891"/><polygon fill="#181818" points="1141.0889,579.2891,1131.0889,583.2891,1141.0889,587.2891,1137.0889,583.2891" style="stroke:#181818;stroke-width:1.0;"/><text fill="#000000" font-family="sans-serif" font-size="13" font-weight="bold" lengthAdjust="spacing" textLength="18.0908" x="1137.0889" y="565.2231">12</text><text fill="#000000" font-family="sans-serif" font-size="13" lengthAdjust="spacing" textLength="34.6455" x="1159.1797" y="565.2231">Store</text><text fill="#000000" font-family="sans-serif" font-size="13" font-weight="bold" lengthAdjust="spacing" textLength="219.6226" x="1197.9575" y="565.2231">Cryptographic Hardware Keys</text><polygon fill="#181818" points="273.4019,608.4219,263.4019,612.4219,273.4019,616.4219,269.4019,612.4219" style="stroke:#181818;stroke-width:1.0;"/><line style="stroke:#181818;stroke-width:1.0;stroke-dasharray:2.0,2.0;" x1="267.4019" x2="1124.0889" y1="612.4219" y2="612.4219"/><text fill="#000000" font-family="sans-serif" font-size="13" font-weight="bold" lengthAdjust="spacing" textLength="18.0908" x="279.4019" y="607.356">13</text><text fill="#000000" font-family="sans-serif" font-size="13" lengthAdjust="spacing" textLength="18.7573" x="301.4927" y="607.356">OK</text><polygon fill="#181818" points="49.9551,637.5547,39.9551,641.5547,49.9551,645.5547,45.9551,641.5547" style="stroke:#181818;stroke-width:1.0;"/><line style="stroke:#181818;stroke-width:1.0;stroke-dasharray:2.0,2.0;" x1="43.9551" x2="256.4019" y1="641.5547" y2="641.5547"/><text fill="#000000" font-family="sans-serif" font-size="13" font-weight="bold" lengthAdjust="spacing" textLength="18.0908" x="55.9551" y="636.4888">14</text><text fill="#000000" font-family="sans-serif" font-size="13" lengthAdjust="spacing" textLength="167.356" x="78.0459" y="636.4888">Wallet Instance Initialized</text><!--SRC=[XLHDRzim3BthLn3fOPsH_e4S2WnTbXRTrc7fjiikjCquH6p9e-XisQyVPQVvQjOU30ZIU-HxZvAnq-2x9YTnIou95Y5e7lwuDosASi4jUdKE2mq2es-HP0GOeRE5Eq30w0VMDIdS-QZe2-fHsBPmZ7fFQox8K4gLi6vWJf9s1ZXgX8lO2lkg4Y9_jiCN2MiJAf1ZiI9VzjIyM3bNIUXQ2BxUGDS63mkMgC19KLsZics51UYIaZ2NB5nTsse21X1hlJs1ou5eWBV9EAzH1ufzMyRDaeeLy52j74mrHDiY3NjkkWOY5LtlKkXNnq8DUOq_FVeoKRFiVsba6R35iKQkCQ_9EV7198IrkRRsOtCB5n_lPhUFiw_JwMStg3dDnqga_9uyVo3R75980aAko1xO93UaMAAYipJxJiuDLgtF16PMCykAPQhkAzEspoIbRjyEw5C3q-a9b1jA2PvG4teRuV51IKTLzqdlgcRPZMnQ3PLWk-G2Rb7AtoW4zxI9bbYBBBspQ5VrPJWyOfLyz4tiqaq0LIcg7LtkH8tXvG9sDuowTvEst_Lb-f1DKUJAKmdv1XwcdmuIdLlEn_R7P_dOmrwtSNuStx7cSWZkT0BF0Czw7y3chyOPZmVxS7zkcbVNwS5DuEG_OGjMDYL_gJoafUTcCVq3]--></g></svg>