<?xml version="1.0" encoding="windows-1252" standalone="no"?>
<svg xmlns="http://www.w3.org/2000/svg" xmlns:xlink="http://www.w3.org/1999/xlink" contentStyleType="text/css" height="1538px" preserveAspectRatio="none" style="width:1466px;height:1538px;background:#FFFFFF;" version="1.1" viewBox="0 0 1466 1538" width="1466px" zoomAndPan="magnify"><defs/><g><rect fill="#ADD8E6" height="1526.8359" style="stroke:#181818;stroke-width:0.5;" width="362" x="336" y="6"/><text fill="#000000" font-family="sans-serif" font-size="13" font-weight="bold" lengthAdjust="spacing" textLength="108" x="463" y="18.0669">User's Devices</text><rect fill="#FFFFFF" height="29.1328" style="stroke:#181818;stroke-width:1.0;" width="10" x="33.5" y="890.8828"/><rect fill="#FFFFFF" height="972.6484" style="stroke:#181818;stroke-width:1.0;" width="10" x="397.5" y="313.2266"/><rect fill="#FFFFFF" height="171.6641" style="stroke:#181818;stroke-width:1.0;" width="10" x="1137.5" y="141.5625"/><rect fill="#FFFFFF" height="116.6641" style="stroke:#181818;stroke-width:1.0;" width="10" x="1137.5" y="576.5547"/><rect fill="#FFFFFF" height="321.5938" style="stroke:#181818;stroke-width:1.0;" width="10" x="1137.5" y="964.2813"/><rect fill="none" height="174.7969" style="stroke:#000000;stroke-width:1.5;" width="694" x="10" y="328.2266"/><rect fill="none" height="46.2656" style="stroke:#000000;stroke-width:1.5;" width="374" x="330" y="1300.875"/><rect fill="none" height="75.3984" style="stroke:#000000;stroke-width:1.5;" width="632" x="575" y="1361.1406"/><line style="stroke:#181818;stroke-width:0.5;stroke-dasharray:5.0,5.0;" x1="38" x2="38" y1="81.2969" y2="1453.5391"/><line style="stroke:#181818;stroke-width:0.5;stroke-dasharray:5.0,5.0;" x1="402" x2="402" y1="81.2969" y2="1453.5391"/><line style="stroke:#181818;stroke-width:0.5;stroke-dasharray:5.0,5.0;" x1="639" x2="639" y1="81.2969" y2="1453.5391"/><line style="stroke:#181818;stroke-width:0.5;stroke-dasharray:5.0,5.0;" x1="1142" x2="1142" y1="81.2969" y2="1453.5391"/><text fill="#000000" font-family="sans-serif" font-size="14" lengthAdjust="spacing" textLength="31" x="20" y="77.9951">User</text><ellipse cx="38.5" cy="13.5" fill="#E2E2F0" rx="8" ry="8" style="stroke:#181818;stroke-width:0.5;"/><path d="M38.5,21.5 L38.5,48.5 M25.5,29.5 L51.5,29.5 M38.5,48.5 L25.5,63.5 M38.5,48.5 L51.5,63.5 " fill="none" style="stroke:#181818;stroke-width:0.5;"/><text fill="#000000" font-family="sans-serif" font-size="14" lengthAdjust="spacing" textLength="31" x="20" y="1465.5342">User</text><ellipse cx="38.5" cy="1477.3359" fill="#E2E2F0" rx="8" ry="8" style="stroke:#181818;stroke-width:0.5;"/><path d="M38.5,1485.3359 L38.5,1512.3359 M25.5,1493.3359 L51.5,1493.3359 M38.5,1512.3359 L25.5,1527.3359 M38.5,1512.3359 L51.5,1527.3359 " fill="none" style="stroke:#181818;stroke-width:0.5;"/><rect fill="#E2E2F0" height="30.2969" rx="2.5" ry="2.5" style="stroke:#181818;stroke-width:0.5;" width="125" x="340" y="50"/><text fill="#000000" font-family="sans-serif" font-size="14" lengthAdjust="spacing" textLength="111" x="347" y="69.9951">Wallet Instance</text><rect fill="#E2E2F0" height="30.2969" rx="2.5" ry="2.5" style="stroke:#181818;stroke-width:0.5;" width="125" x="340" y="1452.5391"/><text fill="#000000" font-family="sans-serif" font-size="14" lengthAdjust="spacing" textLength="111" x="347" y="1472.5342">Wallet Instance</text><rect fill="#E2E2F0" height="30.2969" rx="2.5" ry="2.5" style="stroke:#181818;stroke-width:0.5;" width="109" x="585" y="50"/><text fill="#000000" font-family="sans-serif" font-size="14" lengthAdjust="spacing" textLength="95" x="592" y="69.9951">Web Browser</text><rect fill="#E2E2F0" height="30.2969" rx="2.5" ry="2.5" style="stroke:#181818;stroke-width:0.5;" width="109" x="585" y="1452.5391"/><text fill="#000000" font-family="sans-serif" font-size="14" lengthAdjust="spacing" textLength="95" x="592" y="1472.5342">Web Browser</text><rect fill="#E2E2F0" height="30.2969" rx="2.5" ry="2.5" style="stroke:#181818;stroke-width:0.5;" width="109" x="1088" y="50"/><text fill="#000000" font-family="sans-serif" font-size="14" lengthAdjust="spacing" textLength="95" x="1095" y="69.9951">Relying Party</text><rect fill="#E2E2F0" height="30.2969" rx="2.5" ry="2.5" style="stroke:#181818;stroke-width:0.5;" width="109" x="1088" y="1452.5391"/><text fill="#000000" font-family="sans-serif" font-size="14" lengthAdjust="spacing" textLength="95" x="1095" y="1472.5342">Relying Party</text><rect fill="#FFFFFF" height="29.1328" style="stroke:#181818;stroke-width:1.0;" width="10" x="33.5" y="890.8828"/><rect fill="#FFFFFF" height="972.6484" style="stroke:#181818;stroke-width:1.0;" width="10" x="397.5" y="313.2266"/><rect fill="#FFFFFF" height="171.6641" style="stroke:#181818;stroke-width:1.0;" width="10" x="1137.5" y="141.5625"/><rect fill="#FFFFFF" height="116.6641" style="stroke:#181818;stroke-width:1.0;" width="10" x="1137.5" y="576.5547"/><rect fill="#FFFFFF" height="321.5938" style="stroke:#181818;stroke-width:1.0;" width="10" x="1137.5" y="964.2813"/><polygon fill="#181818" points="627.5,108.4297,637.5,112.4297,627.5,116.4297,631.5,112.4297" style="stroke:#181818;stroke-width:1.0;"/><line style="stroke:#181818;stroke-width:1.0;" x1="38.5" x2="633.5" y1="112.4297" y2="112.4297"/><text fill="#000000" font-family="sans-serif" font-size="13" font-weight="bold" lengthAdjust="spacing" textLength="9" x="45.5" y="107.3638">1</text><text fill="#000000" font-family="sans-serif" font-size="13" lengthAdjust="spacing" textLength="151" x="58.5" y="107.3638">Web Service navigation</text><polygon fill="#181818" points="1125.5,137.5625,1135.5,141.5625,1125.5,145.5625,1129.5,141.5625" style="stroke:#181818;stroke-width:1.0;"/><line style="stroke:#181818;stroke-width:1.0;" x1="639.5" x2="1131.5" y1="141.5625" y2="141.5625"/><text fill="#000000" font-family="sans-serif" font-size="13" font-weight="bold" lengthAdjust="spacing" textLength="9" x="646.5" y="136.4966">2</text><text fill="#000000" font-family="sans-serif" font-size="13" lengthAdjust="spacing" textLength="183" x="659.5" y="136.4966">Request Protected Resource</text><rect fill="#EEEEEE" height="3" style="stroke:#EEEEEE;stroke-width:1.0;" width="1459.5" x="0" y="170.1289"/><line style="stroke:#000000;stroke-width:1.0;" x1="0" x2="1459.5" y1="170.1289" y2="170.1289"/><line style="stroke:#000000;stroke-width:1.0;" x1="0" x2="1459.5" y1="173.1289" y2="173.1289"/><rect fill="#EEEEEE" height="23.1328" style="stroke:#000000;stroke-width:2.0;" width="339" x="560.25" y="159.5625"/><text fill="#000000" font-family="sans-serif" font-size="13" font-weight="bold" lengthAdjust="spacing" textLength="320" x="566.25" y="175.6294">User Authentication (Presentation Phase)</text><line style="stroke:#181818;stroke-width:1.0;" x1="1147.5" x2="1189.5" y1="228.9609" y2="228.9609"/><line style="stroke:#181818;stroke-width:1.0;" x1="1189.5" x2="1189.5" y1="228.9609" y2="241.9609"/><line style="stroke:#181818;stroke-width:1.0;" x1="1148.5" x2="1189.5" y1="241.9609" y2="241.9609"/><polygon fill="#181818" points="1158.5,237.9609,1148.5,241.9609,1158.5,245.9609,1154.5,241.9609" style="stroke:#181818;stroke-width:1.0;"/><text fill="#000000" font-family="sans-serif" font-size="13" font-weight="bold" lengthAdjust="spacing" textLength="8" x="1154.5" y="216.3286">3</text><text fill="#000000" font-family="sans-serif" font-size="13" lengthAdjust="spacing" textLength="189" x="1166.5" y="208.7622">Create Authorization Request</text><text fill="#000000" font-family="sans-serif" font-size="13" lengthAdjust="spacing" textLength="5" x="1166.5" y="223.895">(</text><text fill="#000000" font-family="sans-serif" font-size="13" font-weight="bold" lengthAdjust="spacing" textLength="42" x="1171.5" y="223.895">state</text><text fill="#000000" font-family="sans-serif" font-size="13" lengthAdjust="spacing" textLength="196" x="1217.5" y="223.895">bound to Web Browser cookie)</text><line style="stroke:#181818;stroke-width:1.0;" x1="1147.5" x2="1189.5" y1="271.0938" y2="271.0938"/><line style="stroke:#181818;stroke-width:1.0;" x1="1189.5" x2="1189.5" y1="271.0938" y2="284.0938"/><line style="stroke:#181818;stroke-width:1.0;" x1="1148.5" x2="1189.5" y1="284.0938" y2="284.0938"/><polygon fill="#181818" points="1158.5,280.0938,1148.5,284.0938,1158.5,288.0938,1154.5,284.0938" style="stroke:#181818;stroke-width:1.0;"/><text fill="#000000" font-family="sans-serif" font-size="13" font-weight="bold" lengthAdjust="spacing" textLength="9" x="1154.5" y="266.0278">4</text><text fill="#000000" font-family="sans-serif" font-size="13" lengthAdjust="spacing" textLength="179" x="1167.5" y="266.0278">Create request_uri resource</text><polygon fill="#181818" points="650.5,309.2266,640.5,313.2266,650.5,317.2266,646.5,313.2266" style="stroke:#181818;stroke-width:1.0;"/><line style="stroke:#181818;stroke-width:1.0;" x1="644.5" x2="1141.5" y1="313.2266" y2="313.2266"/><text fill="#000000" font-family="sans-serif" font-size="13" font-weight="bold" lengthAdjust="spacing" textLength="9" x="656.5" y="308.1606">5</text><text fill="#000000" font-family="sans-serif" font-size="13" lengthAdjust="spacing" textLength="399" x="669.5" y="308.1606">QRCode OR HTTP Redirect (302) with the request_uri endpoint</text><path d="M10,328.2266 L188,328.2266 L188,335.3594 L178,345.3594 L10,345.3594 L10,328.2266 " fill="#EEEEEE" style="stroke:#000000;stroke-width:1.5;"/><rect fill="none" height="174.7969" style="stroke:#000000;stroke-width:1.5;" width="694" x="10" y="328.2266"/><text fill="#000000" font-family="sans-serif" font-size="13" font-weight="bold" lengthAdjust="spacing" textLength="133" x="25" y="341.2935">Cross Device only</text><polygon fill="#181818" points="49.5,362.4922,39.5,366.4922,49.5,370.4922,45.5,366.4922" style="stroke:#181818;stroke-width:1.0;"/><line style="stroke:#181818;stroke-width:1.0;" x1="43.5" x2="638.5" y1="366.4922" y2="366.4922"/><text fill="#000000" font-family="sans-serif" font-size="13" font-weight="bold" lengthAdjust="spacing" textLength="9" x="55.5" y="361.4263">6</text><text fill="#000000" font-family="sans-serif" font-size="13" lengthAdjust="spacing" textLength="152" x="68.5" y="361.4263">Show the QRCode page</text><polygon fill="#181818" points="385.5,391.625,395.5,395.625,385.5,399.625,389.5,395.625" style="stroke:#181818;stroke-width:1.0;"/><line style="stroke:#181818;stroke-width:1.0;stroke-dasharray:2.0,2.0;" x1="38.5" x2="391.5" y1="395.625" y2="395.625"/><text fill="#000000" font-family="sans-serif" font-size="13" font-weight="bold" lengthAdjust="spacing" textLength="9" x="45.5" y="390.5591">7</text><text fill="#000000" font-family="sans-serif" font-size="13" lengthAdjust="spacing" textLength="322" x="58.5" y="390.5591">Open the Wallet Instance app, local authentication</text><line style="stroke:#181818;stroke-width:1.0;" x1="407.5" x2="449.5" y1="424.7578" y2="424.7578"/><line style="stroke:#181818;stroke-width:1.0;" x1="449.5" x2="449.5" y1="424.7578" y2="437.7578"/><line style="stroke:#181818;stroke-width:1.0;" x1="408.5" x2="449.5" y1="437.7578" y2="437.7578"/><polygon fill="#181818" points="418.5,433.7578,408.5,437.7578,418.5,441.7578,414.5,437.7578" style="stroke:#181818;stroke-width:1.0;"/><text fill="#000000" font-family="sans-serif" font-size="13" font-weight="bold" lengthAdjust="spacing" textLength="9" x="414.5" y="419.6919">8</text><text fill="#000000" font-family="sans-serif" font-size="13" lengthAdjust="spacing" textLength="91" x="427.5" y="419.6919">Scan QR Code</text><line style="stroke:#181818;stroke-width:1.0;" x1="407.5" x2="449.5" y1="482.0234" y2="482.0234"/><line style="stroke:#181818;stroke-width:1.0;" x1="449.5" x2="449.5" y1="482.0234" y2="495.0234"/><line style="stroke:#181818;stroke-width:1.0;" x1="408.5" x2="449.5" y1="495.0234" y2="495.0234"/><polygon fill="#181818" points="418.5,491.0234,408.5,495.0234,418.5,499.0234,414.5,495.0234" style="stroke:#181818;stroke-width:1.0;"/><text fill="#000000" font-family="sans-serif" font-size="13" font-weight="bold" lengthAdjust="spacing" textLength="9" x="414.5" y="469.3911">9</text><text fill="#000000" font-family="sans-serif" font-size="13" lengthAdjust="spacing" textLength="128" x="427.5" y="461.8247">Extract Request URI</text><text fill="#000000" font-family="sans-serif" font-size="13" lengthAdjust="spacing" textLength="91" x="427.5" y="476.9575">from QR Code</text><polygon fill="#181818" points="1125.5,572.5547,1135.5,576.5547,1125.5,580.5547,1129.5,576.5547" style="stroke:#181818;stroke-width:1.0;"/><line style="stroke:#181818;stroke-width:1.0;" x1="407.5" x2="1131.5" y1="576.5547" y2="576.5547"/><text fill="#000000" font-family="sans-serif" font-size="13" font-weight="bold" lengthAdjust="spacing" textLength="19" x="414.5" y="548.7896">10</text><text fill="#000000" font-family="sans-serif" font-size="13" lengthAdjust="spacing" textLength="128" x="437.5" y="526.0903">GET Request Object</text><text fill="#000000" font-family="sans-serif" font-size="13" lengthAdjust="spacing" textLength="98" x="437.5" y="541.2231">by Request URI</text><text fill="#000000" font-family="sans-serif" font-size="13" lengthAdjust="spacing" textLength="204" x="437.5" y="556.356">with Wallet Instance Attestation</text><text fill="#000000" font-family="sans-serif" font-size="13" lengthAdjust="spacing" textLength="93" x="437.5" y="571.4888">as DPoP token</text><line style="stroke:#181818;stroke-width:1.0;" x1="1147.5" x2="1189.5" y1="651.0859" y2="651.0859"/><line style="stroke:#181818;stroke-width:1.0;" x1="1189.5" x2="1189.5" y1="651.0859" y2="664.0859"/><line style="stroke:#181818;stroke-width:1.0;" x1="1148.5" x2="1189.5" y1="664.0859" y2="664.0859"/><polygon fill="#181818" points="1158.5,660.0859,1148.5,664.0859,1158.5,668.0859,1154.5,664.0859" style="stroke:#181818;stroke-width:1.0;"/><text fill="#000000" font-family="sans-serif" font-size="13" font-weight="bold" lengthAdjust="spacing" textLength="18" x="1154.5" y="623.3208">11</text><text fill="#000000" font-family="sans-serif" font-size="13" lengthAdjust="spacing" textLength="195" x="1176.5" y="600.6216">Attest that the Wallet Provider</text><text fill="#000000" font-family="sans-serif" font-size="13" lengthAdjust="spacing" textLength="154" x="1180.5" y="615.7544">is part of the Federation</text><text fill="#000000" font-family="sans-serif" font-size="13" lengthAdjust="spacing" textLength="250" x="1180.5" y="630.8872">and the Wallet Instance is not revoked,</text><text fill="#000000" font-family="sans-serif" font-size="13" lengthAdjust="spacing" textLength="237" x="1180.5" y="646.02">then evaluate the Wallet capabilities.</text><polygon fill="#181818" points="418.5,689.2188,408.5,693.2188,418.5,697.2188,414.5,693.2188" style="stroke:#181818;stroke-width:1.0;"/><line style="stroke:#181818;stroke-width:1.0;stroke-dasharray:2.0,2.0;" x1="412.5" x2="1141.5" y1="693.2188" y2="693.2188"/><text fill="#000000" font-family="sans-serif" font-size="13" font-weight="bold" lengthAdjust="spacing" textLength="18" x="424.5" y="688.1528">12</text><text fill="#000000" font-family="sans-serif" font-size="13" lengthAdjust="spacing" textLength="98" x="446.5" y="688.1528">Request Object</text><line style="stroke:#181818;stroke-width:1.0;" x1="407.5" x2="449.5" y1="722.3516" y2="722.3516"/><line style="stroke:#181818;stroke-width:1.0;" x1="449.5" x2="449.5" y1="722.3516" y2="735.3516"/><line style="stroke:#181818;stroke-width:1.0;" x1="408.5" x2="449.5" y1="735.3516" y2="735.3516"/><polygon fill="#181818" points="418.5,731.3516,408.5,735.3516,418.5,739.3516,414.5,735.3516" style="stroke:#181818;stroke-width:1.0;"/><text fill="#000000" font-family="sans-serif" font-size="13" font-weight="bold" lengthAdjust="spacing" textLength="17" x="414.5" y="717.2856">13</text><text fill="#000000" font-family="sans-serif" font-size="13" lengthAdjust="spacing" textLength="165" x="435.5" y="717.2856">Attest Relying Party Trust</text><line style="stroke:#181818;stroke-width:1.0;" x1="407.5" x2="449.5" y1="764.4844" y2="764.4844"/><line style="stroke:#181818;stroke-width:1.0;" x1="449.5" x2="449.5" y1="764.4844" y2="777.4844"/><line style="stroke:#181818;stroke-width:1.0;" x1="408.5" x2="449.5" y1="777.4844" y2="777.4844"/><polygon fill="#181818" points="418.5,773.4844,408.5,777.4844,418.5,781.4844,414.5,777.4844" style="stroke:#181818;stroke-width:1.0;"/><text fill="#000000" font-family="sans-serif" font-size="13" font-weight="bold" lengthAdjust="spacing" textLength="18" x="414.5" y="759.4185">14</text><text fill="#000000" font-family="sans-serif" font-size="13" lengthAdjust="spacing" textLength="191" x="436.5" y="759.4185">Verify Relying Party Metadata</text><line style="stroke:#181818;stroke-width:1.0;" x1="407.5" x2="449.5" y1="806.6172" y2="806.6172"/><line style="stroke:#181818;stroke-width:1.0;" x1="449.5" x2="449.5" y1="806.6172" y2="819.6172"/><line style="stroke:#181818;stroke-width:1.0;" x1="408.5" x2="449.5" y1="819.6172" y2="819.6172"/><polygon fill="#181818" points="418.5,815.6172,408.5,819.6172,418.5,823.6172,414.5,819.6172" style="stroke:#181818;stroke-width:1.0;"/><text fill="#000000" font-family="sans-serif" font-size="13" font-weight="bold" lengthAdjust="spacing" textLength="18" x="414.5" y="801.5513">15</text><text fill="#000000" font-family="sans-serif" font-size="13" lengthAdjust="spacing" textLength="146" x="436.5" y="801.5513">Validate JWT Signature</text><line style="stroke:#181818;stroke-width:1.0;" x1="407.5" x2="449.5" y1="848.75" y2="848.75"/><line style="stroke:#181818;stroke-width:1.0;" x1="449.5" x2="449.5" y1="848.75" y2="861.75"/><line style="stroke:#181818;stroke-width:1.0;" x1="408.5" x2="449.5" y1="861.75" y2="861.75"/><polygon fill="#181818" points="418.5,857.75,408.5,861.75,418.5,865.75,414.5,861.75" style="stroke:#181818;stroke-width:1.0;"/><text fill="#000000" font-family="sans-serif" font-size="13" font-weight="bold" lengthAdjust="spacing" textLength="18" x="414.5" y="843.6841">16</text><text fill="#000000" font-family="sans-serif" font-size="13" lengthAdjust="spacing" textLength="163" x="436.5" y="843.6841">Validate Requested VP(s)</text><polygon fill="#181818" points="54.5,886.8828,44.5,890.8828,54.5,894.8828,50.5,890.8828" style="stroke:#181818;stroke-width:1.0;"/><line style="stroke:#181818;stroke-width:1.0;" x1="48.5" x2="396.5" y1="890.8828" y2="890.8828"/><text fill="#000000" font-family="sans-serif" font-size="13" font-weight="bold" lengthAdjust="spacing" textLength="18" x="60.5" y="885.8169">17</text><text fill="#000000" font-family="sans-serif" font-size="13" lengthAdjust="spacing" textLength="130" x="82.5" y="885.8169">Request for consent</text><polygon fill="#181818" points="385.5,916.0156,395.5,920.0156,385.5,924.0156,389.5,920.0156" style="stroke:#181818;stroke-width:1.0;"/><line style="stroke:#181818;stroke-width:1.0;stroke-dasharray:2.0,2.0;" x1="38.5" x2="391.5" y1="920.0156" y2="920.0156"/><text fill="#000000" font-family="sans-serif" font-size="13" font-weight="bold" lengthAdjust="spacing" textLength="18" x="45.5" y="914.9497">18</text><text fill="#000000" font-family="sans-serif" font-size="13" lengthAdjust="spacing" textLength="67" x="67.5" y="914.9497">Confirmed</text><polygon fill="#181818" points="1125.5,960.2813,1135.5,964.2813,1125.5,968.2813,1129.5,964.2813" style="stroke:#181818;stroke-width:1.0;"/><line style="stroke:#181818;stroke-width:1.0;" x1="407.5" x2="1131.5" y1="964.2813" y2="964.2813"/><text fill="#000000" font-family="sans-serif" font-size="13" font-weight="bold" lengthAdjust="spacing" textLength="18" x="414.5" y="951.6489">19</text><text fill="#000000" font-family="sans-serif" font-size="13" lengthAdjust="spacing" textLength="190" x="436.5" y="944.0825">POST Authorization Response</text><text fill="#000000" font-family="sans-serif" font-size="13" lengthAdjust="spacing" textLength="90" x="440.5" y="959.2153">with vp_token</text><line style="stroke:#181818;stroke-width:1.0;" x1="1147.5" x2="1189.5" y1="993.4141" y2="993.4141"/><line style="stroke:#181818;stroke-width:1.0;" x1="1189.5" x2="1189.5" y1="993.4141" y2="1006.4141"/><line style="stroke:#181818;stroke-width:1.0;" x1="1148.5" x2="1189.5" y1="1006.4141" y2="1006.4141"/><polygon fill="#181818" points="1158.5,1002.4141,1148.5,1006.4141,1158.5,1010.4141,1154.5,1006.4141" style="stroke:#181818;stroke-width:1.0;"/><text fill="#000000" font-family="sans-serif" font-size="13" font-weight="bold" lengthAdjust="spacing" textLength="19" x="1154.5" y="988.3481">20</text><text fill="#000000" font-family="sans-serif" font-size="13" lengthAdjust="spacing" textLength="270" x="1177.5" y="988.3481">Evaluate the Verifiable Presentation token</text><line style="stroke:#181818;stroke-width:1.0;" x1="1147.5" x2="1189.5" y1="1050.6797" y2="1050.6797"/><line style="stroke:#181818;stroke-width:1.0;" x1="1189.5" x2="1189.5" y1="1050.6797" y2="1063.6797"/><line style="stroke:#181818;stroke-width:1.0;" x1="1148.5" x2="1189.5" y1="1063.6797" y2="1063.6797"/><polygon fill="#181818" points="1158.5,1059.6797,1148.5,1063.6797,1158.5,1067.6797,1154.5,1063.6797" style="stroke:#181818;stroke-width:1.0;"/><text fill="#000000" font-family="sans-serif" font-size="13" font-weight="bold" lengthAdjust="spacing" textLength="18" x="1154.5" y="1038.0474">21</text><text fill="#000000" font-family="sans-serif" font-size="13" lengthAdjust="spacing" textLength="187" x="1176.5" y="1030.481">Attest Credential Issuer Trust</text><text fill="#000000" font-family="sans-serif" font-size="13" lengthAdjust="spacing" textLength="174" x="1180.5" y="1045.6138">and Validate JWT Signature</text><line style="stroke:#181818;stroke-width:1.0;" x1="1147.5" x2="1189.5" y1="1092.8125" y2="1092.8125"/><line style="stroke:#181818;stroke-width:1.0;" x1="1189.5" x2="1189.5" y1="1092.8125" y2="1105.8125"/><line style="stroke:#181818;stroke-width:1.0;" x1="1148.5" x2="1189.5" y1="1105.8125" y2="1105.8125"/><polygon fill="#181818" points="1158.5,1101.8125,1148.5,1105.8125,1158.5,1109.8125,1154.5,1105.8125" style="stroke:#181818;stroke-width:1.0;"/><text fill="#000000" font-family="sans-serif" font-size="13" font-weight="bold" lengthAdjust="spacing" textLength="18" x="1154.5" y="1087.7466">22</text><text fill="#000000" font-family="sans-serif" font-size="13" lengthAdjust="spacing" textLength="142" x="1176.5" y="1087.7466">Process the credential</text><rect fill="#90EE90" height="83" style="stroke:#181818;stroke-width:0.5;" width="543" x="871" y="1118.8125"/><text fill="#000000" font-family="sans-serif" font-size="13" lengthAdjust="spacing" textLength="147" x="875" y="1134.8794">Process the credential:</text><text fill="#000000" font-family="sans-serif" font-size="13" lengthAdjust="spacing" textLength="325" x="879" y="1150.0122">Check Holder Key Binding and Proof of Possession:</text><text fill="#000000" font-family="sans-serif" font-size="13" lengthAdjust="spacing" textLength="449" x="879" y="1165.145">- using the public key bound in\n the Credential to verify the VP token.</text><text fill="#000000" font-family="sans-serif" font-size="13" lengthAdjust="spacing" textLength="4" x="875" y="1180.2778"> </text><text fill="#000000" font-family="sans-serif" font-size="13" lengthAdjust="spacing" textLength="531" x="879" y="1195.4106">Then Extract the disclosed attributes: \n Check if all the required data are available</text><line style="stroke:#181818;stroke-width:1.0;" x1="1147.5" x2="1189.5" y1="1228.6094" y2="1228.6094"/><line style="stroke:#181818;stroke-width:1.0;" x1="1189.5" x2="1189.5" y1="1228.6094" y2="1241.6094"/><line style="stroke:#181818;stroke-width:1.0;" x1="1148.5" x2="1189.5" y1="1241.6094" y2="1241.6094"/><polygon fill="#181818" points="1158.5,1237.6094,1148.5,1241.6094,1158.5,1245.6094,1154.5,1241.6094" style="stroke:#181818;stroke-width:1.0;"/><text fill="#000000" font-family="sans-serif" font-size="13" font-weight="bold" lengthAdjust="spacing" textLength="17" x="1154.5" y="1223.5435">23</text><text fill="#000000" font-family="sans-serif" font-size="13" lengthAdjust="spacing" textLength="268" x="1175.5" y="1223.5435">Update the User session (cookie updated)</text><polygon fill="#181818" points="413.5,1281.875,403.5,1285.875,413.5,1289.875,409.5,1285.875" style="stroke:#181818;stroke-width:1.0;"/><line style="stroke:#181818;stroke-width:1.0;stroke-dasharray:2.0,2.0;" x1="407.5" x2="1141.5" y1="1285.875" y2="1285.875"/><text fill="#000000" font-family="sans-serif" font-size="13" font-weight="bold" lengthAdjust="spacing" textLength="18" x="419.5" y="1273.2427">24</text><text fill="#000000" font-family="sans-serif" font-size="13" lengthAdjust="spacing" textLength="107" x="441.5" y="1265.6763">HTTP/1.1 200 OK</text><text fill="#000000" font-family="sans-serif" font-size="13" lengthAdjust="spacing" textLength="298" x="445.5" y="1280.8091">{"redirect_uri": https url with response_code }</text><path d="M330,1300.875 L506,1300.875 L506,1308.0078 L496,1318.0078 L330,1318.0078 L330,1300.875 " fill="#EEEEEE" style="stroke:#000000;stroke-width:1.5;"/><rect fill="none" height="46.2656" style="stroke:#000000;stroke-width:1.5;" width="374" x="330" y="1300.875"/><text fill="#000000" font-family="sans-serif" font-size="13" font-weight="bold" lengthAdjust="spacing" textLength="131" x="345" y="1313.9419">Same Device only</text><polygon fill="#181818" points="627.5,1335.1406,637.5,1339.1406,627.5,1343.1406,631.5,1339.1406" style="stroke:#181818;stroke-width:1.0;"/><line style="stroke:#181818;stroke-width:1.0;" x1="402.5" x2="633.5" y1="1339.1406" y2="1339.1406"/><text fill="#000000" font-family="sans-serif" font-size="13" font-weight="bold" lengthAdjust="spacing" textLength="18" x="409.5" y="1334.0747">25</text><text fill="#000000" font-family="sans-serif" font-size="13" lengthAdjust="spacing" textLength="125" x="431.5" y="1334.0747">Use the redirect_uri</text><path d="M575,1361.1406 L753,1361.1406 L753,1368.2734 L743,1378.2734 L575,1378.2734 L575,1361.1406 " fill="#EEEEEE" style="stroke:#000000;stroke-width:1.5;"/><rect fill="none" height="75.3984" style="stroke:#000000;stroke-width:1.5;" width="632" x="575" y="1361.1406"/><text fill="#000000" font-family="sans-serif" font-size="13" font-weight="bold" lengthAdjust="spacing" textLength="133" x="590" y="1374.2075">Cross Device only</text><polygon fill="#181818" points="1130.5,1395.4063,1140.5,1399.4063,1130.5,1403.4063,1134.5,1399.4063" style="stroke:#181818;stroke-width:1.0;"/><line style="stroke:#181818;stroke-width:1.0;" x1="639.5" x2="1136.5" y1="1399.4063" y2="1399.4063"/><text fill="#000000" font-family="sans-serif" font-size="13" font-weight="bold" lengthAdjust="spacing" textLength="18" x="646.5" y="1394.3403">26</text><text fill="#000000" font-family="sans-serif" font-size="13" lengthAdjust="spacing" textLength="425" x="668.5" y="1394.3403">QRCode JS: Check authentication state (HTTP request with cookie)</text><polygon fill="#181818" points="650.5,1424.5391,640.5,1428.5391,650.5,1432.5391,646.5,1428.5391" style="stroke:#181818;stroke-width:1.0;"/><line style="stroke:#181818;stroke-width:1.0;stroke-dasharray:2.0,2.0;" x1="644.5" x2="1141.5" y1="1428.5391" y2="1428.5391"/><text fill="#000000" font-family="sans-serif" font-size="13" font-weight="bold" lengthAdjust="spacing" textLength="18" x="656.5" y="1423.4731">27</text><text fill="#000000" font-family="sans-serif" font-size="13" lengthAdjust="spacing" textLength="457" x="678.5" y="1423.4731">Authentication state given with HTTP codes, untill expired or successful</text><!--SRC=[VLLDRnit4BtpLmoKGsN3SPtq9i05R4UrdOzgAyd9HO11xOuarcjoouzTgqN-UsR8bRIId08-MEJCSDwRDszby4Q7vpbQ8SHLxes5teD3smFf80WnDo_fu1S77x1MEReUlFcibYj_NGOKbRHUvQgIsaFlconBz72ldPSwnrYZEGZ1ELnRqsoVa09r0VJCVjmOoxNIIyZeS1qZQnGYmDlVAMK0N6Q2bli1BMkrb5uPBOBaW1e7CCP_0ZeFcJKUSuy5dJWJR4vLBY-14S5Ly2lKz6PCXdvcqT7lz2jRIOSdS7afPEvLBJro1pLk7hYno6TSmrZrRqhQl3hJ_TDJ8i7ZwIbX2uJG6-XWXzoO9qNrZolQLECnM4N_jpsdA4R-r_Z650YZCTnDfnczM2XB0A7_syNx4sYKNm6Xsgj215T6QIyAx68HEsID44jhGaKz6BSPD1XThbjAmm0cAzF4qcq7bLmY3uHkcm6CAjJnza038Alg34gJonBa7j-YWPGwoQMcei1LjuV35s-flIsZ3-FxcLvOyxoD95GYXJDvjyFfDdOq_viPcUdvkfjF1v6Ummwll4VNJdscIMaVCfFHl9vGYvyCFwKGNkcxe4bijIhGpZGe1wndC8iOy0VISNo2xYJBuHMgA4SRJwEhwUtYR1O9rO2rB0EtqCd9PINdgbHUeJkFZINQzYau6lY6tRR_lIM3gGtERqE-ebMBzK785_Ioa5xkecIf2Yx_yTiK9cgffGyMZw_RlcWDlsPzTv82mgxVXU6LqBn-Eyh3JbutHY-KVSQY2odinf-D9jEZNNGLLwIPfhMegySqrDTdEkpI7D4hEIyHzbmX5JWI0grkmSecaTyx5sY_8vdjh7z2qguAwOPyrSMNysqf8Ip9WTQmfdeK_ERp_UtTz7Oy7FufNiyO2BXPOVu4TwOalS4dNCErqWKFa1kXBD8Z_MMqvPHEY2ZbBGJ74Loh2lDIvV14YScsb4uox48aAwkJEY9LxQwS2m5JrkjcTVcoK2ulZQEvI- -jcWUYQy0JINsg1P2UjuP5JbO0wmka9UUefIfv1BpgaGhHuUoXAZR3YcRUue5-SbO8yRve7JQfY1tprtVdx-3znGMCFb4R__LiQw3ibBq1hBolwAjaowGPsuheCMVB-zvLNtEuNSb19_8PzmoqsJWtjTaYtRsONEp_lPVHjfxxSJ9ecTltKeZV6kZ7Jq9h_Gb0-vtPaC1zNBsMkbGrjdiIYp1UTmQ1ucX0-5B5sT2Mkf2pyXQXvDv_0000]--></g></svg>