<?xml version="1.0" encoding="UTF-8" standalone="no"?>
<svg
   height="659.33929"
   width="659.33911"
   class="pyqrcode"
   version="1.1"
   id="svg6"
   sodipodi:docname="verifier_qr_code.svg"
   inkscape:version="1.1.2 (0a00cf5339, 2022-02-04)"
   xmlns:inkscape="http://www.inkscape.org/namespaces/inkscape"
   xmlns:sodipodi="http://sodipodi.sourceforge.net/DTD/sodipodi-0.dtd"
   xmlns="http://www.w3.org/2000/svg"
   xmlns:svg="http://www.w3.org/2000/svg">
  <defs
     id="defs10" />
  <sodipodi:namedview
     id="namedview8"
     pagecolor="#ffffff"
     bordercolor="#666666"
     borderopacity="1.0"
     inkscape:pageshadow="2"
     inkscape:pageopacity="0.0"
     inkscape:pagecheckerboard="true"
     showgrid="false"
     inkscape:zoom="0.44657534"
     inkscape:cx="391.87117"
     inkscape:cy="529.58589"
     inkscape:window-width="1920"
     inkscape:window-height="990"
     inkscape:window-x="0"
     inkscape:window-y="28"
     inkscape:window-maximized="1"
     inkscape:current-layer="svg6"
     width="7299px"
     fit-margin-top="0"
     fit-margin-left="0"
     fit-margin-right="0"
     fit-margin-bottom="0" />
  <path
     stroke="#000000"
     class="pyqrline"
     d="m 0,5.0718999 h 71.005722 m 10.143704,0 h 10.143656 m 10.143758,0 h 10.14362 m 10.14375,0 h 10.14361 m 20.28736,0 h 20.28739 m 10.14372,0 h 10.14364 m 20.28731,0 h 10.14367 m 30.43112,0 h 10.14362 m 10.14368,0 h 40.57479 m 40.57461,0 h 50.71837 m 10.14372,0 h 20.28739 m 10.14367,0 h 10.14368 m 20.28733,0 h 30.43106 m 10.14372,0 h 10.14363 m 30.43099,0 h 10.14375 m 20.28735,0 h 71.00573 M 0,15.215547 h 10.143717 m 50.718371,0 h 10.143634 m 10.143704,0 h 10.143656 m 10.143758,0 h 10.14362 m 10.14375,0 h 20.28729 m 20.28737,0 h 10.1437 m 10.14372,0 h 40.57462 m 30.43112,0 h 20.2873 m 50.71841,0 h 30.43099 m 10.14375,0 h 10.14364 m 20.28735,0 h 10.14363 m 20.28737,0 h 10.14374 m 10.14367,0 h 30.43101 m 30.43106,0 h 40.5747 m 20.28739,0 h 10.14366 m 10.14369,0 h 10.14364 m 50.71828,0 h 10.14381 M 0,25.359266 h 10.143717 m 10.143644,0 H 50.71844 m 10.143648,0 h 10.143634 m 10.143704,0 h 10.143656 m 10.143758,0 h 30.43098 m 30.43105,0 h 50.71837 m 10.14367,0 h 20.28739 m 30.43103,0 h 30.43106 m 20.28735,0 h 10.14364 m 10.14369,0 h 30.43105 m 20.28735,0 h 10.14363 m 50.71846,0 h 10.14365 m 50.71846,0 h 20.28725 m 10.14373,0 h 10.14364 m 10.14375,0 h 10.14366 m 10.14369,0 h 10.14364 m 10.14367,0 h 30.43103 m 10.14358,0 h 10.14381 M 0,35.50291 h 10.143717 m 10.143644,0 H 50.71844 m 10.143648,0 h 10.143634 m 40.574738,0 h 10.14375 m 30.43097,0 h 20.28739 m 20.28736,0 h 50.71837 m 20.28735,0 h 10.14368 m 10.14367,0 h 10.1437 m 10.14369,0 h 20.28735 m 30.43099,0 h 10.14375 m 30.43099,0 h 20.28735 m 10.14365,0 h 10.14374 m 10.14367,0 h 20.28733 m 20.28735,0 h 20.28739 m 30.43097,0 h 30.43112 m 20.28735,0 h 10.14364 m 10.14367,0 h 30.43103 m 10.14358,0 h 10.14381 M 0,45.646628 h 10.143717 m 10.143644,0 H 50.71844 m 10.143648,0 h 10.143634 m 40.574738,0 h 10.14375 m 10.14361,0 h 10.14368 m 30.43107,0 h 10.14372 m 30.43095,0 h 40.57479 m 10.14362,0 h 10.14368 m 10.14367,0 h 10.1437 m 10.14369,0 h 50.71834 m 50.71837,0 h 50.71846 m 20.28733,0 h 10.14367 m 10.14374,0 h 10.14365 m 30.43097,0 h 10.14373 m 20.28739,0 h 10.14366 m 10.14369,0 h 10.14364 m 10.14367,0 h 30.43103 m 10.14358,0 h 10.14381 M 0,55.79027 h 10.143717 m 50.718371,0 h 10.143634 m 10.143704,0 h 10.143656 m 10.143758,0 h 20.28737 m 10.14361,0 h 30.43105 m 30.43106,0 h 30.43098 m 20.28739,0 h 10.14373 m 20.2873,0 H 284.023 m 20.28739,0 h 10.14373 m 30.43095,0 h 10.14366 m 20.28739,0 h 40.5747 m 10.14365,0 h 20.28741 m 10.14368,0 h 20.28733 m 10.14367,0 h 30.43111 m 30.43098,0 h 10.14364 m 30.4311,0 h 10.14364 m 50.71828,0 h 10.14381 M 0,65.933988 h 71.005722 m 10.143704,0 h 10.143656 m 10.143758,0 h 10.14362 m 10.14375,0 h 10.14361 m 10.14368,0 h 10.14368 m 10.14369,0 h 10.1437 m 10.14372,0 h 10.14364 m 10.14362,0 h 10.14369 m 10.14367,0 h 10.14375 m 10.14364,0 h 10.14373 m 10.14362,0 h 10.14368 m 10.14367,0 h 10.1437 m 10.14369,0 h 10.14373 m 10.14362,0 h 10.14364 m 10.14369,0 h 10.14366 m 10.14375,0 h 10.14364 m 10.14373,0 h 10.14362 m 10.14363,0 h 10.14372 m 10.14365,0 h 10.14374 m 10.14367,0 h 10.14368 m 10.14365,0 h 10.14368 m 10.14367,0 h 10.14374 m 10.14365,0 h 10.14372 m 10.14363,0 h 10.14362 m 10.14373,0 h 10.14364 m 10.14375,0 h 10.14366 m 10.14369,0 h 71.00573 M 81.149426,76.077607 h 20.287414 m 20.28737,0 h 30.43097 m 20.28739,0 h 10.14372 m 10.14364,0 h 10.14362 m 10.14369,0 h 30.43106 m 10.14373,0 h 10.14362 m 10.14368,0 H 284.023 m 20.28739,0 h 10.14373 m 30.43095,0 h 10.14366 m 30.43112,0 h 10.14362 m 10.14363,0 h 10.14372 m 20.28739,0 h 10.14367 m 10.14368,0 h 10.14365 m 10.14368,0 h 10.14367 m 40.57474,0 h 30.43099 m 10.14375,0 H 578.1897 M 20.287361,86.22135 H 50.71844 m 10.143648,0 h 10.143634 m 10.143704,0 h 10.143656 m 10.143758,0 h 10.14362 m 10.14375,0 h 50.71836 m 10.14372,0 h 20.28726 m 10.14369,0 h 10.14367 m 20.28739,0 h 10.14373 m 10.14362,0 h 10.14368 m 20.28737,0 h 60.86203 m 10.14375,0 h 10.14364 m 10.14373,0 h 30.43097 m 10.14365,0 h 10.14374 m 30.431,0 h 50.71846 m 20.28725,0 h 71.00578 m 20.28741,0 h 30.43101 M 20.287361,96.364969 H 30.43108 m 10.143646,0 h 20.287362 m 20.287338,0 h 10.143656 m 10.143758,0 h 20.28737 m 20.28729,0 h 20.28737 m 10.1437,0 h 20.28736 m 30.43098,0 h 30.43112 m 20.2873,0 h 30.43106 m 10.14373,0 h 20.28726 m 20.28735,0 h 20.28739 m 30.43098,0 h 10.14372 m 10.14365,0 h 20.28741 m 30.43101,0 h 30.43106 m 10.14372,0 h 10.14363 m 10.14362,0 h 30.43112 m 10.14366,0 h 10.14369 m 40.57472,0 h 10.14362 m 10.14358,0 h 10.14381 M 0,106.50867 h 20.287361 m 10.143719,0 h 10.143646 m 20.287362,0 h 20.287338 m 20.287414,0 h 10.14362 m 30.43104,0 h 10.14368 m 20.28739,0 h 10.14372 m 30.43095,0 h 50.71841 m 10.14368,0 H 284.023 m 10.1437,0 h 10.14369 m 20.28735,0 h 40.57474 m 10.14364,0 h 20.28735 m 10.14363,0 h 10.14372 m 10.14365,0 h 10.14374 m 30.431,0 h 10.14368 m 10.14367,0 h 10.14374 m 71.00574,0 h 60.86207 m 10.14362,0 h 10.14358 M 0,116.65239 h 10.143717 m 10.143644,0 H 30.43108 m 10.143646,0 h 20.287362 m 40.574752,0 h 20.28737 m 10.14361,0 h 20.28736 m 30.43111,0 h 20.28726 m 20.28736,0 h 10.14375 m 10.14364,0 h 10.14373 m 20.2873,0 H 284.023 m 10.1437,0 h 30.43104 m 10.14364,0 h 10.14369 m 20.28741,0 h 20.28737 m 20.28725,0 h 20.28737 m 20.28741,0 h 20.28733 m 10.14368,0 h 10.14367 m 40.57474,0 h 10.14362 m 20.28737,0 h 10.14375 m 10.14366,0 h 10.14369 m 10.14364,0 h 10.14367 m 10.14364,0 h 10.14377 m 10.14362,0 h 10.14358 M 10.143717,126.79603 h 10.143644 m 10.143719,0 h 50.718346 m 10.143656,0 h 10.143758 m 40.57466,0 h 10.14368 m 10.14369,0 h 50.71837 m 20.28742,0 h 20.28737 m 20.2873,0 h 30.43106 m 10.14373,0 h 10.14362 m 10.14364,0 h 20.28735 m 20.28739,0 h 10.14373 m 10.14362,0 h 10.14363 m 20.28737,0 h 20.28741 m 30.43101,0 h 30.43106 m 30.43097,0 h 20.28737 m 10.14375,0 h 50.7183 m 10.14377,0 h 10.14362 M 10.143717,136.93972 h 10.143644 m 30.431079,0 h 10.143648 m 10.143634,0 h 10.143704 m 20.287414,0 h 20.28737 m 10.14361,0 h 10.14368 m 20.28737,0 h 10.1437 m 20.28736,0 h 10.14362 m 81.14945,0 h 30.43112 m 20.28726,0 h 20.28735 m 40.57474,0 h 20.28735 m 10.14365,0 h 30.43109 m 20.28733,0 h 20.28741 m 20.28737,0 h 40.57462 m 40.57474,0 h 20.28731 m 30.43097,0 h 10.14381 M 0,147.08336 h 10.143717 m 10.143644,0 H 30.43108 m 30.431008,0 h 10.143634 m 10.143704,0 h 40.574784 m 10.14361,0 h 20.28736 m 10.14369,0 h 10.1437 m 60.86209,0 h 10.14364 m 10.14373,0 h 10.14362 m 10.14368,0 h 20.28737 m 10.14369,0 h 40.57468 m 10.14366,0 h 10.14375 m 10.14364,0 h 20.28735 m 30.431,0 h 81.14948 m 30.43097,0 h 10.14373 m 10.14364,0 h 10.14375 m 20.28735,0 h 30.43095 M 10.143717,157.22708 H 30.43108 m 40.574642,0 h 10.143704 m 10.143656,0 h 20.287378 m 20.28736,0 h 20.28736 m 50.71837,0 h 10.14369 m 50.71841,0 h 10.14368 m 10.14367,0 h 30.43112 m 10.14362,0 h 20.28733 m 20.28741,0 h 60.86199 m 10.14374,0 h 20.28735 m 10.14365,0 h 10.14368 m 20.28741,0 h 20.28737 m 10.14363,0 h 20.28735 m 20.28739,0 h 10.14366 m 40.57464,0 h 10.14377 m 20.2872,0 h 10.14381 M 0,167.37077 h 10.143717 m 10.143644,0 H 30.43108 m 10.143646,0 H 50.71844 m 10.143648,0 h 10.143634 m 10.143704,0 h 20.287414 m 20.28737,0 h 40.57466 m 10.1437,0 h 10.14372 m 30.43095,0 h 20.28742 m 30.43099,0 h 10.14368 m 20.28737,0 h 20.28742 m 10.14362,0 h 10.14364 m 10.14369,0 h 20.28741 m 10.14364,0 h 10.14373 m 10.14362,0 h 30.431 m 10.14374,0 h 10.14367 m 10.14368,0 h 60.86211 m 20.28725,0 h 10.14373 m 60.86205,0 h 10.14364 m 10.14377,0 h 10.14362 m 10.14358,0 h 10.14381 M 10.143717,177.51446 h 10.143644 m 10.143719,0 h 10.143646 m 10.143714,0 h 10.143648 m 10.143634,0 h 20.28736 m 10.143758,0 h 10.14362 m 10.14375,0 h 20.28729 m 10.14368,0 h 20.28739 m 10.14372,0 h 40.57462 m 20.28739,0 h 10.14373 m 10.14362,0 h 10.14368 m 10.14367,0 h 10.1437 m 10.14369,0 h 30.43099 m 20.28735,0 h 10.14375 m 10.14364,0 h 10.14373 m 50.71836,0 h 10.14367 m 20.28733,0 h 10.14368 m 40.57478,0 h 10.14363 m 10.14362,0 h 30.43112 m 10.14366,0 h 10.14369 m 10.14364,0 h 30.43108 M 10.143717,187.65813 H 50.71844 m 10.143648,0 h 30.430994 m 10.143758,0 h 20.28737 m 10.14361,0 h 20.28736 m 20.28739,0 h 10.14372 m 20.28726,0 h 10.14369 m 10.14367,0 h 10.14375 m 50.71834,0 h 10.1437 m 10.14369,0 h 20.28735 m 10.14364,0 h 40.57474 m 20.28735,0 h 10.14363 m 10.14372,0 h 10.14365 m 10.14374,0 h 10.14367 m 10.14368,0 h 10.14365 m 20.28735,0 h 10.14374 m 10.14365,0 h 10.14372 m 50.71837,0 h 10.14366 m 10.14369,0 h 30.43095 m 20.28739,0 h 20.28739 M 81.149426,197.80182 h 10.143656 m 10.143758,0 h 10.14362 m 30.43104,0 h 10.14368 m 20.28739,0 h 10.14372 m 10.14364,0 h 20.28731 m 10.14367,0 h 10.14375 m 10.14364,0 h 30.43103 m 10.14367,0 h 30.43112 m 10.14362,0 h 10.14364 m 20.28735,0 h 30.43112 m 20.28725,0 h 10.14372 m 30.43106,0 h 10.14368 m 20.28733,0 h 10.14367 m 20.28739,0 h 30.43097 m 10.14373,0 h 10.14364 m 20.28741,0 h 10.14369 m 30.43095,0 h 10.14377 m 10.14362,0 h 10.14358 M 20.287361,207.94544 h 20.287365 m 10.143714,0 h 30.430986 m 10.143656,0 H 142.0115 m 30.43107,0 h 20.28736 m 40.57473,0 h 30.43099 m 20.28735,0 h 10.1437 m 10.14369,0 h 10.14373 m 50.71836,0 h 10.14364 m 60.86209,0 h 10.14367 m 30.43101,0 h 30.43106 m 10.14372,0 h 10.14363 m 20.28735,0 h 30.43105 m 10.14369,0 h 10.14364 m 10.14367,0 h 20.28741 m 10.14362,0 h 10.14358 M 0,218.08919 h 10.143717 m 20.287363,0 h 10.143646 m 10.143714,0 h 10.143648 m 10.143634,0 h 10.143704 m 10.143656,0 h 10.143758 m 10.14362,0 h 10.14375 m 20.28729,0 h 40.57479 m 20.28726,0 h 10.14369 m 20.28742,0 h 30.43099 m 10.14368,0 H 284.023 m 71.00573,0 h 40.57474 m 10.14363,0 h 10.14372 m 10.14365,0 h 10.14374 m 10.14367,0 h 10.14368 m 40.57474,0 h 10.14365 m 10.14372,0 h 40.57462 m 40.57474,0 h 10.14367 m 10.14364,0 h 10.14377 m 10.14362,0 h 20.28739 M 0,228.23279 h 30.43108 m 30.431008,0 h 10.143634 m 10.143704,0 h 30.431034 m 10.14375,0 h 10.14361 m 10.14368,0 h 20.28737 m 10.1437,0 h 10.14372 m 50.71837,0 h 10.14364 m 10.14373,0 h 10.14362 m 10.14368,0 h 20.28737 m 20.28742,0 h 10.14362 m 30.43099,0 h 10.14375 m 50.71834,0 h 40.57474 m 10.14365,0 h 20.28735 m 20.28739,0 h 40.5747 m 10.14364,0 h 10.14375 m 10.14366,0 h 10.14369 m 10.14364,0 h 30.43108 m 10.14362,0 h 10.14358 M 10.143717,238.3765 H 50.71844 m 20.287282,0 h 20.28736 m 30.431128,0 h 10.14361 m 10.14368,0 h 10.14368 m 40.57475,0 h 40.57473 m 30.43099,0 h 10.14368 m 30.43106,0 h 20.28735 m 30.43099,0 h 10.14375 m 10.14364,0 h 10.14373 m 10.14362,0 h 10.14363 m 71.00579,0 h 10.14367 m 10.14374,0 h 40.57462 m 10.14373,0 h 10.14364 m 10.14375,0 h 20.28735 m 10.14364,0 H 608.6207 M 0,248.52022 h 20.287361 m 10.143719,0 h 20.28736 m 10.143648,0 h 30.430994 m 20.287378,0 h 40.57472 m 30.43111,0 h 10.14364 m 10.14362,0 h 20.28736 m 30.43112,0 h 10.14362 m 10.14368,0 H 284.023 m 10.1437,0 h 20.28742 m 50.71836,0 h 10.14364 m 20.28735,0 h 20.28735 m 10.14365,0 h 40.57474 m 10.14368,0 h 40.57478 m 20.28725,0 h 40.57478 m 20.28733,0 h 40.5747 m 10.14358,0 h 10.14381 M 0,258.66387 h 10.143717 m 10.143644,0 h 40.574727 m 10.143634,0 h 20.28736 m 10.143758,0 h 10.14362 m 20.28736,0 h 10.14368 m 10.14368,0 h 30.43111 m 20.28726,0 h 20.28736 m 10.14375,0 h 30.43099 m 10.14368,0 h 40.57479 m 10.14362,0 h 20.28733 m 10.14366,0 h 10.14375 m 20.28737,0 h 50.71836 m 10.14367,0 h 10.14368 m 20.28733,0 h 20.28741 m 20.28737,0 h 10.14363 m 10.14362,0 h 30.43112 m 40.57466,0 h 10.14364 m 20.28739,0 h 20.28739 M 30.43108,268.80755 h 50.718346 m 10.143656,0 h 10.143758 m 30.43098,0 h 10.14368 m 10.14368,0 h 40.57475 m 10.14362,0 h 20.28736 m 81.14948,0 h 20.28735 m 10.14364,0 h 10.14369 m 20.28741,0 h 10.14364 m 10.14373,0 h 10.14362 m 10.14363,0 h 20.28737 m 10.14374,0 h 20.28735 m 30.431,0 h 10.14374 m 10.14365,0 h 10.14372 m 10.14363,0 h 20.28735 m 10.14364,0 h 40.57474 M 0,278.9512 h 20.287361 m 20.287365,0 H 50.71844 m 60.86202,0 h 40.57472 m 20.28739,0 h 10.14372 m 20.28726,0 h 30.43111 m 30.43099,0 H 284.023 m 10.1437,0 h 10.14369 m 10.14373,0 h 10.14362 m 10.14364,0 h 30.4311 m 30.43099,0 h 10.14363 m 10.14372,0 h 10.14365 m 20.28741,0 h 10.14368 m 20.28733,0 h 20.28741 m 10.14365,0 h 30.43097 m 10.14373,0 h 30.43105 m 20.28733,0 h 10.14367 m 10.14364,0 h 10.14377 m 10.14362,0 h 20.28739 M 0,289.0949 h 10.143717 m 30.431009,0 h 30.430996 m 50.718488,0 h 50.71836 m 40.57467,0 h 10.14367 m 50.71842,0 H 284.023 m 30.43112,0 h 20.28726 m 30.4311,0 h 10.14364 m 50.71835,0 h 20.28741 m 40.57468,0 h 20.28739 m 10.14372,0 h 10.14363 m 40.57474,0 h 10.14366 m 20.28733,0 h 20.28731 m 10.14377,0 h 20.2872 M 10.143717,299.23861 H 30.43108 m 10.143646,0 H 50.71844 m 20.287282,0 h 10.143704 m 10.143656,0 h 40.574738 m 10.14368,0 h 40.57479 m 60.86201,0 h 40.5747 m 10.1437,0 h 10.14369 m 10.14373,0 h 10.14362 m 10.14364,0 h 20.28735 m 10.14375,0 h 20.28737 m 10.14362,0 h 40.57474 m 40.57468,0 h 20.28741 m 20.28737,0 h 50.71837 m 30.43099,0 h 20.28731 m 30.43097,0 h 10.14381 M 10.143717,309.38229 h 81.149365 m 40.574738,0 h 10.14368 m 10.14368,0 h 10.14369 m 10.1437,0 h 10.14372 m 20.28726,0 h 20.28736 m 60.86209,0 h 71.00573 m 10.14375,0 h 10.14364 m 10.14373,0 h 10.14362 m 40.57474,0 h 10.14367 m 10.14368,0 h 20.28733 m 10.14367,0 h 10.14374 m 10.14365,0 h 30.43097 m 30.43112,0 h 50.7183 m 10.14377,0 h 10.14362 M 0,319.52596 h 10.143717 m 10.143644,0 H 30.43108 m 10.143646,0 H 50.71844 m 30.430986,0 h 20.287414 m 20.28737,0 h 50.71836 m 10.14372,0 h 10.14364 m 10.14362,0 h 10.14369 m 10.14367,0 h 10.14375 m 10.14364,0 h 10.14373 m 20.2873,0 H 284.023 m 20.28739,0 h 10.14373 m 30.43095,0 h 30.43105 m 20.28735,0 h 81.14942 m 40.57478,0 h 10.14363 m 10.14362,0 h 10.14373 m 20.28739,0 h 10.14366 m 30.431,0 h 20.28741 m 20.2872,0 h 10.14381 M 0,329.66964 h 50.71844 m 10.143648,0 h 10.143634 m 10.143704,0 h 20.287414 m 10.14362,0 h 20.28736 m 20.28736,0 h 30.43111 m 40.57462,0 h 10.14375 m 10.14364,0 h 10.14373 m 10.14362,0 H 284.023 m 10.1437,0 h 20.28742 m 10.14362,0 h 10.14364 m 10.14369,0 h 10.14366 m 10.14375,0 h 20.28737 m 40.57462,0 h 20.28741 m 10.14368,0 h 10.14365 m 10.14368,0 h 20.28741 m 10.14365,0 h 10.14372 m 10.14363,0 h 30.43099 m 10.14375,0 h 10.14366 m 10.14369,0 h 10.14364 m 10.14367,0 h 10.14364 m 10.14377,0 h 10.14362 m 10.14358,0 h 10.14381 M 10.143717,339.81327 H 30.43108 m 10.143646,0 H 50.71844 m 30.430986,0 h 20.287414 m 20.28737,0 h 40.57466 m 30.43106,0 h 40.57473 m 10.14364,0 h 10.14373 m 20.2873,0 h 20.28737 m 10.14369,0 h 10.14373 m 30.43095,0 h 30.43105 m 10.14373,0 h 71.00571 m 40.57474,0 h 10.14365 m 10.14372,0 h 40.57462 m 10.14375,0 h 10.14366 m 30.431,0 h 10.14364 m 10.14377,0 h 10.14362 m 10.14358,0 h 10.14381 M 0,349.95701 h 30.43108 m 10.143646,0 h 50.718356 m 30.431128,0 h 10.14361 m 10.14368,0 h 10.14368 m 20.28739,0 h 20.28736 m 10.14362,0 h 30.43111 m 20.28737,0 h 10.14362 m 10.14368,0 H 284.023 m 20.28739,0 h 60.86209 m 30.43099,0 h 30.431 m 10.14374,0 h 40.57468 m 10.14367,0 h 10.14374 m 10.14365,0 h 10.14372 m 10.14363,0 h 10.14362 m 20.28737,0 h 71.00582 M 0,360.10062 h 40.574726 m 30.430996,0 h 10.143704 m 30.431034,0 h 20.28736 m 10.14368,0 h 20.28737 m 10.1437,0 h 10.14372 m 10.14364,0 h 10.14362 m 20.28736,0 h 10.14375 m 10.14364,0 h 40.5747 m 10.1437,0 h 10.14369 m 10.14373,0 h 20.28726 m 50.71847,0 h 10.14362 m 10.14363,0 h 10.14372 m 10.14365,0 h 10.14374 m 10.14367,0 h 10.14368 m 20.28733,0 h 10.14367 m 10.14374,0 h 10.14365 m 20.28735,0 h 71.00573 m -588.333313,10.1437 h 10.143644 m 30.431079,0 h 20.287282 m 20.28736,0 h 30.431128 m 20.28729,0 h 10.14368 m 10.14369,0 h 10.1437 m 30.43098,0 h 30.43111 m 40.57467,0 h 20.28737 m 50.71837,0 h 10.14366 m 20.28739,0 h 40.5747 m 60.86207,0 h 20.28741 m 20.28737,0 h 10.14363 m 50.7184,0 h 30.431 m 20.28741,0 h 10.14362 m 10.14358,0 h 10.14381 M 0,380.38805 h 40.574726 m 50.718356,0 h 10.143758 m 10.14362,0 h 30.43104 m 30.43107,0 h 10.14372 m 10.14364,0 h 10.14362 m 30.43111,0 h 20.28737 m 30.43097,0 h 20.28739 m 40.57468,0 h 10.14366 m 10.14375,0 h 50.71834 m 20.28739,0 h 10.14367 m 30.43101,0 h 30.43106 m 30.43097,0 h 20.28737 m 10.14375,0 h 91.29308 m -649.195403,10.1437 h 30.431009 m 10.143714,0 h 20.287282 m 10.143704,0 h 10.143656 m 30.431128,0 h 10.14361 m 40.57475,0 h 20.28736 m 20.28731,0 h 30.43106 m 10.14373,0 h 10.14362 m 10.14368,0 H 284.023 m 10.1437,0 h 10.14369 m 20.28735,0 h 20.28733 m 30.43105,0 h 30.43098 m 10.14372,0 h 30.43106 m 10.14368,0 h 60.86211 m 20.28725,0 h 10.14373 m 20.28739,0 h 10.14366 m 20.28733,0 h 30.43108 m 10.14362,0 h 10.14358 M 10.143717,400.67538 h 10.143644 m 30.431079,0 h 10.143648 m 10.143634,0 h 10.143704 m 20.287414,0 h 20.28737 m 10.14361,0 h 10.14368 m 40.57479,0 h 10.14364 m 10.14362,0 h 10.14369 m 30.43106,0 h 10.14373 m 10.14362,0 h 10.14368 m 10.14367,0 h 10.1437 m 30.43104,0 h 30.43099 m 71.00574,0 h 10.14374 m 10.14367,0 h 10.14368 m 20.28733,0 h 10.14367 m 10.14374,0 h 20.28737 m 10.14363,0 h 20.28735 m 10.14364,0 h 10.14375 m 10.14366,0 h 50.71841 M 0,410.81908 h 71.005722 m 60.862098,0 h 20.28736 m 20.28739,0 h 10.14372 m 20.28726,0 h 10.14369 m 40.57479,0 h 50.71836 m 50.71834,0 h 10.14375 m 20.28737,0 h 10.14362 m 20.28735,0 h 10.14365 m 50.71842,0 h 20.28741 m 71.00574,0 h 10.14366 m 40.57464,0 h 30.43097 M 0,420.96273 h 20.287361 m 20.287365,0 h 20.287362 m 40.574752,0 h 10.14362 m 20.28736,0 h 10.14368 m 101.4368,0 h 30.43103 m 20.28737,0 h 10.14369 m 10.14373,0 h 20.28726 m 40.57474,0 h 10.14373 m 10.14362,0 h 10.14363 m 30.43111,0 h 30.431 m 10.14368,0 h 30.43106 m 30.43097,0 h 20.28737 m 10.14375,0 h 20.28735 m 10.14364,0 h 20.28731 m 30.43097,0 h 10.14381 M 30.43108,431.1065 h 10.143646 m 20.287362,0 h 10.143634 m 10.143704,0 h 10.143656 m 20.287378,0 h 20.28736 m 40.57475,0 h 20.28736 m 10.14362,0 h 10.14369 m 10.14367,0 h 10.14375 m 10.14364,0 h 10.14373 m 10.14362,0 h 10.14368 m 30.43106,0 h 20.28735 m 20.28733,0 h 30.43105 m 10.14373,0 h 10.14362 m 10.14363,0 h 20.28737 m 10.14374,0 h 10.14367 m 20.28733,0 h 20.28735 m 10.14374,0 h 20.28737 m 101.43667,0 h 20.28739 M 20.287361,441.25012 H 30.43108 m 10.143646,0 H 50.71844 m 20.287282,0 h 20.28736 m 30.431128,0 h 20.28729 m 10.14368,0 h 10.14369 m 10.1437,0 h 30.43098 m 10.14369,0 h 20.28742 m 20.28737,0 H 284.023 m 20.28739,0 h 20.28735 m 20.28733,0 h 30.43105 m 10.14373,0 h 30.43097 m 50.71839,0 h 10.14368 m 50.71841,0 h 10.14362 m 10.14373,0 h 30.43105 m 10.14369,0 h 40.57472 m 20.2872,0 h 10.14381 M 30.43108,451.39384 h 10.143646 m 10.143714,0 h 40.574642 m 50.718418,0 h 50.71843 m 30.43098,0 h 20.28739 m 10.14373,0 h 10.14362 m 10.14368,0 H 284.023 m 10.1437,0 h 20.28742 m 20.28726,0 h 10.14369 m 30.43105,0 h 10.14373 m 20.28725,0 h 40.57478 m 10.14368,0 h 50.71839 m 81.14944,0 h 20.28731 m 20.28741,0 h 20.2872 M 0,461.53747 h 10.143717 m 40.574723,0 h 10.143648 m 10.143634,0 h 10.143704 m 30.431034,0 h 10.14375 m 10.14361,0 h 10.14368 m 10.14368,0 h 10.14369 m 10.1437,0 h 20.28736 m 10.14362,0 h 30.43111 m 20.28737,0 h 20.2873 m 10.14367,0 h 40.57474 m 30.43099,0 h 10.14375 m 20.28737,0 h 30.43097 m 20.28739,0 h 20.28735 m 20.28733,0 h 30.43106 m 30.43097,0 h 20.28737 m 10.14375,0 h 10.14366 m 30.431,0 h 10.14364 m 30.43097,0 h 10.14381 M 0,471.68109 h 10.143717 m 10.143644,0 H 30.43108 m 10.143646,0 h 60.862114 m 10.14362,0 h 50.71841 m 10.1437,0 h 50.71834 m 10.14375,0 h 10.14364 m 20.28735,0 h 10.14368 m 10.14367,0 h 10.1437 m 10.14369,0 h 40.57468 m 10.14366,0 h 30.43112 m 20.28725,0 h 10.14372 m 10.14365,0 h 10.14374 m 20.28735,0 h 20.28733 m 30.43106,0 h 10.14372 m 50.71837,0 h 10.14366 m 20.28733,0 h 20.28731 m 10.14377,0 h 10.14362 M 10.143717,481.82484 h 10.143644 m 10.143719,0 h 20.28736 m 20.287282,0 h 20.28736 m 30.431128,0 h 20.28729 m 30.43107,0 h 10.14372 m 20.28726,0 h 10.14369 m 10.14367,0 H 284.023 m 10.1437,0 h 20.28742 m 10.14362,0 h 10.14364 m 10.14369,0 h 10.14366 m 10.14375,0 h 10.14364 m 20.28735,0 h 30.431 m 10.14374,0 h 20.28735 m 10.14365,0 h 20.28735 m 10.14374,0 h 10.14365 m 10.14372,0 h 60.86203 m 10.14369,0 h 40.57472 m -618.764393,10.1436 h 30.431009 m 10.143714,0 h 20.287282 m 10.143704,0 h 40.574784 m 50.71836,0 h 10.14372 m 10.14364,0 h 30.43098 m 30.43112,0 h 10.14362 m 20.28735,0 h 20.28739 m 30.43099,0 h 20.28735 m 20.28739,0 h 20.28735 m 40.57474,0 h 10.14367 m 10.14368,0 h 10.14365 m 10.14368,0 h 30.43106 m 40.5747,0 h 10.14364 m 30.4311,0 h 10.14364 m 30.43108,0 h 10.14362 m 10.14358,0 h 10.14381 M 40.574726,502.11221 H 50.71844 m 20.287282,0 h 20.28736 m 10.143758,0 h 20.28737 m 10.14361,0 h 30.43105 m 30.43106,0 h 10.14362 m 30.43111,0 h 10.14364 m 50.7184,0 h 10.14369 m 20.28735,0 h 20.28733 m 50.7184,0 h 20.28735 m 10.14365,0 h 20.28741 m 40.57468,0 h 20.28739 m 10.14372,0 h 20.28725 m 10.14373,0 h 10.14364 m 10.14375,0 h 30.43099 m 10.14367,0 h 50.71842 M 0,512.25587 h 20.287361 m 20.287365,0 H 50.71844 m 10.143648,0 h 10.143634 m 40.574738,0 h 10.14375 m 10.14361,0 h 10.14368 m 10.14368,0 h 20.28739 m 10.14372,0 h 20.28726 m 30.43111,0 h 20.28737 m 10.14362,0 H 284.023 m 20.28739,0 h 10.14373 m 10.14362,0 h 10.14364 m 20.28735,0 h 10.14375 m 10.14364,0 h 10.14373 m 20.28725,0 h 20.28737 m 10.14374,0 h 10.14367 m 10.14368,0 h 20.28733 m 10.14367,0 h 10.14374 m 10.14365,0 h 20.28735 m 30.43099,0 h 10.14375 m 30.43099,0 h 10.14367 m 10.14364,0 h 10.14377 M 40.574726,522.39958 H 50.71844 m 50.7184,0 h 10.14362 m 10.14375,0 h 30.43097 m 10.14369,0 h 30.43106 m 10.14362,0 h 10.14369 m 20.28742,0 h 10.14364 m 30.43103,0 h 50.71841 m 10.14364,0 h 10.14369 m 10.14366,0 h 10.14375 m 40.57462,0 h 20.28737 m 20.28741,0 h 10.14368 m 20.28733,0 h 10.14367 m 10.14374,0 h 10.14365 m 20.28735,0 H 628.90811 M 0,532.5432 h 10.143717 m 10.143644,0 h 60.862065 m 20.287414,0 h 20.28737 m 30.43097,0 h 10.14369 m 30.43106,0 h 40.57473 m 10.14364,0 h 91.29308 m 20.28735,0 h 20.28739 m 20.28735,0 h 10.14363 m 30.43111,0 h 10.14367 m 10.14368,0 h 10.14365 m 10.14368,0 h 20.28741 m 40.57462,0 h 20.28737 m 20.28741,0 h 10.14369 m 10.14364,0 h 10.14367 m 20.28741,0 h 30.43101 M 10.143717,542.68691 h 30.431009 m 30.430996,0 h 40.574738 m 10.14375,0 h 30.43097 m 50.71837,0 h 20.28736 m 10.14375,0 h 20.28737 m 10.14362,0 h 10.14368 m 30.43106,0 h 30.43099 m 10.14369,0 h 10.14366 m 20.28739,0 h 20.28735 m 20.28735,0 h 10.14365 m 10.14374,0 h 10.14367 m 30.43101,0 h 30.43106 m 10.14372,0 h 10.14363 m 20.28735,0 H 659.33912 M 20.287361,552.83055 h 20.287365 m 10.143714,0 h 20.287282 m 10.143704,0 h 10.143656 m 20.287378,0 h 30.43104 m 20.28737,0 h 20.28742 m 10.14364,0 h 10.14362 m 40.57475,0 h 10.14373 m 20.2873,0 h 50.71841 m 10.14364,0 h 30.4311 m 20.28737,0 h 10.14362 m 20.28735,0 h 10.14365 m 50.71842,0 h 60.86203 m 10.14373,0 h 10.14364 m 40.57474,0 h 20.28731 m 10.14377,0 h 10.14362 M 0,562.97432 h 10.143717 m 20.287363,0 h 10.143646 m 50.718356,0 h 10.143758 m 30.43098,0 h 20.28736 m 20.28739,0 h 10.14372 m 60.86201,0 h 10.14373 m 10.14362,0 h 10.14368 m 30.43106,0 h 10.14373 m 20.28726,0 h 10.14369 m 10.14366,0 h 30.43112 m 30.43097,0 h 10.14365 m 10.14374,0 h 20.28735 m 10.14365,0 h 10.14368 m 20.28741,0 h 60.86199 m 10.14375,0 h 30.43099 m 10.14367,0 h 20.28741 M 10.143717,573.11794 H 30.43108 m 10.143646,0 H 50.71844 m 10.143648,0 h 10.143634 m 20.28736,0 h 10.143758 m 60.86203,0 h 10.1437 m 10.14372,0 h 10.14364 m 20.28731,0 h 142.01149 m 20.28739,0 h 30.43098 m 10.14372,0 h 10.14365 m 10.14374,0 h 10.14367 m 10.14368,0 h 40.57474 m 10.14365,0 h 20.28735 m 10.14362,0 h 10.14373 m 20.28739,0 h 50.7183 m 10.14377,0 h 30.43101 M 81.149426,583.26167 h 10.143656 m 30.431128,0 h 30.43097 m 40.57475,0 h 10.14362 m 30.43111,0 h 20.28737 m 10.14362,0 h 10.14368 m 30.43106,0 h 10.14373 m 30.43095,0 h 10.14366 m 10.14375,0 h 20.28737 m 20.28725,0 h 20.28737 m 71.00583,0 h 20.28737 m 10.14363,0 h 10.14362 m 10.14373,0 h 10.14364 m 10.14375,0 h 10.14366 m 30.431,0 h 50.71842 M 0,593.40533 h 71.005722 m 20.28736,0 h 20.287378 m 60.86211,0 h 10.14372 m 20.28726,0 h 10.14369 m 40.57479,0 h 10.14362 m 20.28735,0 h 30.43112 m 10.14362,0 h 10.14364 m 10.14369,0 h 10.14366 m 10.14375,0 h 20.28737 m 10.14362,0 h 10.14363 m 20.28737,0 h 60.86209 m 50.71836,0 h 10.14373 m 10.14364,0 h 20.28741 m 10.14369,0 h 10.14364 m 10.14367,0 h 10.14364 M 0,603.54894 h 10.143717 m 50.718371,0 h 10.143634 m 30.431118,0 h 10.14362 m 20.28736,0 h 20.28736 m 10.14369,0 h 20.28742 m 30.43095,0 h 30.43106 m 10.14373,0 h 10.14362 m 20.28735,0 h 10.1437 m 10.14369,0 h 10.14373 m 30.43095,0 h 30.43105 m 20.28735,0 h 20.28735 m 30.43106,0 h 20.28733 m 10.14368,0 h 10.14367 m 10.14374,0 h 20.28737 m 10.14363,0 h 10.14362 m 10.14373,0 h 10.14364 m 10.14375,0 h 10.14366 m 30.431,0 h 20.28741 m 10.14362,0 h 10.14358 M 0,613.69268 h 10.143717 m 10.143644,0 H 50.71844 m 10.143648,0 h 10.143634 m 10.143704,0 h 20.287414 m 10.14362,0 h 10.14375 m 10.14361,0 h 10.14368 m 10.14368,0 h 20.28739 m 10.14372,0 h 20.28726 m 10.14369,0 h 20.28742 m 10.14364,0 h 20.28735 m 40.57474,0 h 50.71834 m 20.28739,0 h 20.28735 m 10.14363,0 h 10.14372 m 10.14365,0 h 20.28741 m 30.43101,0 h 40.57478 m 20.28725,0 h 10.14373 m 20.28739,0 h 50.7183 m 10.14377,0 h 30.43101 M 0,623.83631 h 10.143717 m 10.143644,0 H 50.71844 m 10.143648,0 h 10.143634 m 10.143704,0 h 10.143656 m 40.574738,0 h 30.43105 m 10.1437,0 h 10.14372 m 30.43095,0 h 10.14367 m 20.28739,0 h 50.7184 m 30.43104,0 h 20.28733 m 10.14366,0 h 71.00574 m 10.14374,0 h 30.431 m 10.14368,0 h 10.14367 m 10.14374,0 h 10.14365 m 10.14372,0 h 60.86203 m 30.431,0 h 40.57461 M 0,633.98007 h 10.143717 m 10.143644,0 H 50.71844 m 10.143648,0 h 10.143634 m 10.143704,0 h 91.293144 m 10.14372,0 h 10.14364 m 20.28731,0 h 10.14367 m 10.14375,0 h 20.28737 m 20.2873,0 H 284.023 m 40.57474,0 h 20.28733 m 10.14366,0 h 10.14375 m 20.28737,0 h 30.43097 m 20.28739,0 h 20.28735 m 20.28733,0 h 10.14367 m 20.28739,0 h 20.28735 m 30.43099,0 h 10.14375 m 30.43099,0 h 50.71828 M 0,644.12368 h 10.143717 m 50.718371,0 h 10.143634 m 20.28736,0 h 20.287378 m 20.28736,0 h 20.28736 m 10.14369,0 h 20.28742 m 10.14364,0 H 284.023 m 10.1437,0 h 20.28742 m 40.57461,0 h 20.28739 m 10.14373,0 h 10.14362 m 50.71841,0 h 10.14368 m 40.57474,0 h 10.14365 m 20.28735,0 h 10.14362 m 10.14373,0 h 10.14364 m 20.28741,0 h 10.14369 m 30.43095,0 h 10.14377 m 10.14362,0 h 10.14358 M 0,654.2674 h 71.005722 m 20.28736,0 h 10.143758 m 40.57466,0 h 10.14368 m 20.28739,0 h 10.14372 m 10.14364,0 h 20.28731 m 10.14367,0 h 20.28739 m 30.43103,0 H 284.023 m 10.1437,0 h 20.28742 m 30.43095,0 h 10.14366 m 10.14375,0 h 30.43099 m 10.14363,0 h 10.14372 m 10.14365,0 h 20.28741 m 10.14368,0 h 10.14365 m 10.14368,0 h 30.43106 m 10.14372,0 h 10.14363 m 10.14362,0 h 10.14373 m 10.14364,0 h 10.14375 m 20.28735,0 h 10.14364 m 10.14367,0 h 30.43103"
     id="path4"
     style="stroke-width:10.1438" />
</svg>
