<?xml version="1.0" encoding="UTF-8" standalone="no"?>
<svg
   height="415.64551"
   width="415.64539"
   class="pyqrcode"
   version="1.1"
   id="svg6"
   sodipodi:docname="verifier_qr_code.svg"
   inkscape:version="1.1.2 (0a00cf5339, 2022-02-04)"
   xmlns:inkscape="http://www.inkscape.org/namespaces/inkscape"
   xmlns:sodipodi="http://sodipodi.sourceforge.net/DTD/sodipodi-0.dtd"
   xmlns="http://www.w3.org/2000/svg"
   xmlns:svg="http://www.w3.org/2000/svg">
  <defs
     id="defs10" />
  <sodipodi:namedview
     id="namedview8"
     pagecolor="#ffffff"
     bordercolor="#666666"
     borderopacity="1.0"
     inkscape:pageshadow="2"
     inkscape:pageopacity="0.0"
     inkscape:pagecheckerboard="true"
     showgrid="false"
     inkscape:zoom="0.44657534"
     inkscape:cx="391.87117"
     inkscape:cy="529.58589"
     inkscape:window-width="1920"
     inkscape:window-height="990"
     inkscape:window-x="0"
     inkscape:window-y="28"
     inkscape:window-maximized="1"
     inkscape:current-layer="svg6"
     width="7299px"
     fit-margin-top="0"
     fit-margin-left="0"
     fit-margin-right="0"
     fit-margin-bottom="0" />
  <path
     stroke="#000000"
     class="pyqrline"
     d="m 0,3.19731 h 44.761794 m 6.39456,0 h 6.39453 m 6.394595,0 h 6.394507 m 6.39459,0 h 6.394501 m 12.789091,0 h 12.789112 m 6.39457,0 h 6.39452 m 12.78906,0 h 6.39454 m 19.18368,0 h 6.39451 m 6.39455,0 h 25.57822 m 25.57811,0 h 31.97271 m 6.39457,0 h 12.78911 m 6.39454,0 h 6.39455 m 12.78907,0 h 19.18365 m 6.39457,0 h 6.39451 m 19.18361,0 h 6.39459 m 12.78908,0 h 44.7618 M 0,9.5918347 h 6.3945687 m 31.9727083,0 h 6.394517 m 6.39456,0 h 6.39453 m 6.394595,0 h 6.394507 m 6.39459,0 h 12.789047 m 12.789097,0 h 6.39456 m 6.39457,0 h 25.57812 m 19.18368,0 h 12.78906 m 31.97273,0 h 19.1836 m 6.39459,0 h 6.39452 m 12.78909,0 h 6.39451 m 12.7891,0 h 6.39458 m 6.39454,0 h 19.18362 m 19.18365,0 h 25.57817 m 12.78911,0 h 6.39453 m 6.39455,0 h 6.39452 m 31.97265,0 h 6.39463 M 0,15.986405 h 6.3945687 m 6.3945223,0 h 19.183661 m 6.394525,0 h 6.394517 m 6.39456,0 h 6.39453 m 6.394595,0 h 19.183598 m 19.183643,0 h 31.97271 m 6.39454,0 h 12.78911 m 19.18363,0 h 19.18364 m 12.78909,0 h 6.39452 m 6.39455,0 h 19.18364 m 12.78909,0 h 6.39451 m 31.97277,0 h 6.39452 m 31.97277,0 h 12.78902 m 6.39458,0 h 6.39452 m 6.39459,0 h 6.39453 m 6.39455,0 h 6.39452 m 6.39454,0 h 19.18363 m 6.39448,0 h 6.39463 M 0,22.380928 h 6.3945687 m 6.3945223,0 h 19.183661 m 6.394525,0 h 6.394517 m 25.578192,0 h 6.39459 m 19.183592,0 h 12.789112 m 12.78909,0 h 31.97271 m 12.78908,0 h 6.39455 m 6.39454,0 h 6.39455 m 6.39455,0 h 12.78909 m 19.1836,0 h 6.39459 m 19.18361,0 h 12.78908 m 6.39453,0 h 6.39458 m 6.39454,0 h 12.78907 m 12.78909,0 h 12.78911 m 19.18359,0 h 19.18369 m 12.78908,0 h 6.39452 m 6.39454,0 h 19.18363 m 6.39448,0 h 6.39463 M 0,28.775497 h 6.3945687 m 6.3945223,0 h 19.183661 m 6.394525,0 h 6.394517 m 25.578192,0 h 6.39459 m 6.394501,0 h 6.394546 m 19.183657,0 h 6.39457 m 19.18358,0 h 25.57822 m 6.39451,0 h 6.39455 m 6.39454,0 h 6.39455 m 6.39455,0 h 31.97269 m 31.97271,0 h 31.97277 m 12.78907,0 h 6.39454 m 6.39458,0 h 6.39453 m 19.18359,0 h 6.39458 m 12.78911,0 h 6.39453 m 6.39455,0 h 6.39452 m 6.39454,0 h 19.18363 m 6.39448,0 h 6.39463 M 0,35.170018 h 6.3945687 m 31.9727083,0 h 6.394517 m 6.39456,0 h 6.39453 m 6.394595,0 h 12.789097 m 6.394501,0 h 19.183643 m 19.18365,0 h 19.1836 m 12.78911,0 h 6.39457 m 12.78906,0 h 6.39454 m 12.7891,0 h 6.39458 m 19.18358,0 h 6.39453 m 12.78911,0 h 25.57817 m 6.39453,0 h 12.78912 m 6.39455,0 h 12.78907 m 6.39454,0 h 19.18368 m 19.1836,0 h 6.39452 m 19.18367,0 h 6.39452 m 31.97265,0 h 6.39463 M 0,41.564588 h 44.761794 m 6.39456,0 h 6.39453 m 6.394595,0 h 6.394507 m 6.39459,0 h 6.394501 m 6.394546,0 h 6.394545 m 6.394552,0 h 6.39456 m 6.39457,0 h 6.39452 m 6.39451,0 h 6.39455 m 6.39454,0 h 6.39459 m 6.39452,0 h 6.39457 m 6.39451,0 h 6.39455 m 6.39454,0 h 6.39455 m 6.39455,0 h 6.39458 m 6.39451,0 h 6.39452 m 6.39455,0 h 6.39453 m 6.39459,0 h 6.39452 m 6.39458,0 h 6.39451 m 6.39451,0 h 6.39457 m 6.39453,0 h 6.39458 m 6.39454,0 h 6.39455 m 6.39452,0 h 6.39455 m 6.39454,0 h 6.39458 m 6.39453,0 h 6.39457 m 6.39451,0 h 6.39451 m 6.39458,0 h 6.39452 m 6.39459,0 h 6.39453 m 6.39455,0 h 44.7618 M 51.156354,47.959095 h 12.789125 m 12.789097,0 h 19.183592 m 12.789112,0 h 6.39457 m 6.39452,0 h 6.39451 m 6.39455,0 h 19.18365 m 6.39457,0 h 6.39451 m 6.39455,0 h 6.39454 m 12.7891,0 h 6.39458 m 19.18358,0 h 6.39453 m 19.18369,0 h 6.39451 m 6.39451,0 h 6.39457 m 12.78911,0 h 6.39454 m 6.39455,0 h 6.39452 m 6.39455,0 h 6.39454 m 25.57819,0 h 19.18361 m 6.39459,0 h 6.39453 M 12.789091,54.35368 h 19.183661 m 6.394525,0 h 6.394517 m 6.39456,0 h 6.39453 m 6.394595,0 h 6.394507 m 6.39459,0 h 31.972704 m 6.39457,0 h 12.78903 m 6.39455,0 h 6.39454 m 12.78911,0 h 6.39457 m 6.39451,0 h 6.39455 m 12.78909,0 h 38.36724 m 6.39459,0 h 6.39452 m 6.39458,0 h 19.18359 m 6.39453,0 h 6.39458 m 19.18361,0 h 31.97277 m 12.78902,0 h 44.76183 m 12.78912,0 H 415.6454 M 12.789091,60.748187 h 6.39457 m 6.394524,0 h 12.789092 m 12.789077,0 h 6.39453 m 6.394595,0 h 12.789097 m 12.789047,0 h 12.789097 m 6.39456,0 h 12.78909 m 19.1836,0 h 19.18368 m 12.78906,0 h 19.18364 m 6.39458,0 h 12.78903 m 12.78908,0 h 12.78911 m 19.1836,0 h 6.39457 m 6.39453,0 h 12.78912 m 19.18362,0 h 19.18365 m 6.39457,0 h 6.39451 m 6.39451,0 h 19.18369 m 6.39453,0 h 6.39455 m 25.57818,0 h 6.39451 m 6.39448,0 h 6.39463 M 0,67.142745 h 12.789091 m 6.39457,0 h 6.394524 m 12.789092,0 h 12.789077 m 12.789125,0 h 6.394507 m 19.183637,0 h 6.394545 m 12.789112,0 h 6.39457 m 19.18358,0 h 31.97273 m 6.39455,0 h 6.39454 m 6.39455,0 h 6.39455 m 12.78909,0 h 25.57819 m 6.39452,0 h 12.78909 m 6.39451,0 h 6.39457 m 6.39453,0 h 6.39458 m 19.18361,0 h 6.39455 m 6.39454,0 h 6.39458 m 44.76181,0 h 38.36726 m 6.39451,0 h 6.39448 M 0,73.537316 h 6.3945687 m 6.3945223,0 h 6.39457 m 6.394524,0 h 12.789092 m 25.578202,0 h 12.789097 m 6.394501,0 h 12.789091 m 19.183682,0 h 12.78903 m 12.78909,0 h 6.39459 m 6.39452,0 h 6.39457 m 12.78906,0 h 6.39454 m 6.39455,0 h 19.18364 m 6.39452,0 h 6.39455 m 12.78912,0 h 12.7891 m 12.78902,0 h 12.7891 m 12.78912,0 h 12.78907 m 6.39455,0 h 6.39454 m 25.57819,0 h 6.39451 m 12.7891,0 h 6.39459 m 6.39453,0 h 6.39455 m 6.39452,0 h 6.39454 m 6.39452,0 h 6.3946 m 6.39451,0 h 6.39448 M 6.3945687,79.931836 h 6.3945223 m 6.39457,0 h 31.972693 m 6.39453,0 h 6.394595 m 25.578144,0 h 6.394545 m 6.394552,0 h 31.97271 m 12.78913,0 h 12.78909 m 12.78906,0 h 19.18364 m 6.39458,0 h 6.39451 m 6.39452,0 h 12.78908 m 12.78911,0 h 6.39458 m 6.39451,0 h 6.39451 m 12.7891,0 h 12.78912 m 19.18362,0 h 19.18365 m 19.18359,0 h 12.7891 m 6.39459,0 h 31.97266 m 6.3946,0 h 6.39451 M 6.3945687,86.326388 h 6.3945223 m 19.183661,0 h 6.394525 m 6.394517,0 h 6.39456 m 12.789125,0 h 12.789097 m 6.394501,0 h 6.394546 m 12.789097,0 h 6.39456 m 12.78909,0 h 6.39451 m 51.15637,0 h 19.18368 m 12.78903,0 h 12.78908 m 25.5782,0 h 12.78908 m 6.39453,0 h 19.18367 m 12.78907,0 h 12.78912 m 12.7891,0 h 25.57812 m 25.57819,0 h 12.78906 m 19.18359,0 h 6.39463 M 0,92.720908 h 6.3945687 m 6.3945223,0 h 6.39457 m 19.183616,0 h 6.394517 m 6.39456,0 h 25.578222 m 6.394501,0 h 12.789091 m 6.394552,0 h 6.39456 m 38.36728,0 h 6.39452 m 6.39457,0 h 6.39451 m 6.39455,0 h 12.78909 m 6.39455,0 h 25.57816 m 6.39453,0 h 6.39459 m 6.39452,0 h 12.78909 m 19.18361,0 h 51.15639 m 19.18359,0 h 6.39458 m 6.39452,0 h 6.39459 m 12.78908,0 h 19.18358 M 6.3945687,99.115478 H 19.183661 m 25.578133,0 h 6.39456 m 6.39453,0 h 12.789102 m 12.789091,0 h 12.789091 m 31.972712,0 h 6.39455 m 31.97273,0 h 6.39455 m 6.39454,0 h 19.18368 m 6.39451,0 h 12.78907 m 12.78912,0 h 38.36722 m 6.39458,0 h 12.78909 m 6.39452,0 h 6.39455 m 12.78912,0 h 12.7891 m 6.39451,0 h 12.78909 m 12.78911,0 h 6.39453 m 25.57813,0 h 6.3946 m 12.78899,0 h 6.39463 M 0,105.51003 h 6.3945687 m 6.3945223,0 h 6.39457 m 6.394524,0 h 6.394567 m 6.394525,0 h 6.394517 m 6.39456,0 h 12.789125 m 12.789097,0 h 25.578144 m 6.39456,0 h 6.39457 m 19.18358,0 h 12.78913 m 19.1836,0 h 6.39455 m 12.78909,0 h 12.78913 m 6.39451,0 h 6.39452 m 6.39455,0 h 12.78912 m 6.39452,0 h 6.39458 m 6.39451,0 h 19.18361 m 6.39458,0 h 6.39454 m 6.39455,0 h 38.36729 m 12.78902,0 h 6.39458 m 38.36725,0 h 6.39452 m 6.3946,0 h 6.39451 m 6.39448,0 h 6.39463 M 6.3945687,111.90458 h 6.3945223 m 6.39457,0 h 6.394524 m 6.394567,0 h 6.394525 m 6.394517,0 h 12.78909 m 6.394595,0 h 6.394507 m 6.39459,0 h 12.789047 m 6.394545,0 h 12.789112 m 6.39457,0 h 25.57812 m 12.78911,0 h 6.39457 m 6.39451,0 h 6.39455 m 6.39454,0 h 6.39455 m 6.39455,0 h 19.18361 m 12.78908,0 h 6.39459 m 6.39452,0 h 6.39458 m 31.9727,0 h 6.39454 m 12.78907,0 h 6.39455 m 25.57822,0 h 6.39451 m 6.39451,0 h 19.18369 m 6.39453,0 h 6.39455 m 6.39452,0 h 19.18366 M 6.3945687,118.29912 H 31.972752 m 6.394525,0 h 19.183607 m 6.394595,0 h 12.789097 m 6.394501,0 h 12.789091 m 12.789112,0 h 6.39457 m 12.78903,0 h 6.39455 m 6.39454,0 h 6.39459 m 31.97269,0 h 6.39455 m 6.39455,0 h 12.78909 m 6.39452,0 h 25.57819 m 12.78909,0 h 6.39451 m 6.39457,0 h 6.39453 m 6.39458,0 h 6.39454 m 6.39455,0 h 6.39452 m 12.78909,0 h 6.39458 m 6.39453,0 h 6.39457 m 31.97271,0 h 6.39453 m 6.39455,0 h 19.18358 m 12.78911,0 h 12.78911 m -364.489046,6.39455 h 6.39453 m 6.394595,0 h 6.394507 m 19.183637,0 h 6.394545 m 12.789112,0 h 6.39457 m 6.39452,0 h 12.78906 m 6.39454,0 h 6.39459 m 6.39452,0 h 19.18363 m 6.39454,0 h 19.18368 m 6.39451,0 h 6.39452 m 12.78908,0 h 19.18369 m 12.78902,0 h 6.39457 m 19.18365,0 h 6.39455 m 12.78907,0 h 6.39454 m 12.78911,0 h 19.18359 m 6.39458,0 h 6.39452 m 12.78912,0 h 6.39455 m 19.18358,0 h 6.3946 m 6.39451,0 h 6.39448 m -396.461679,6.39451 h 12.789094 m 6.394567,0 h 19.183602 m 6.39453,0 h 31.972739 m 19.183657,0 h 12.78909 m 25.57819,0 h 19.1836 m 12.78909,0 h 6.39455 m 6.39455,0 h 6.39458 m 31.9727,0 h 6.39452 m 38.36728,0 h 6.39454 m 19.18362,0 h 19.18365 m 6.39457,0 h 6.39451 m 12.78909,0 h 19.18364 m 6.39455,0 h 6.39452 m 6.39454,0 h 12.78912 m 6.39451,0 h 6.39448 M 0,137.48277 h 6.3945687 m 12.7890923,0 h 6.394524 m 6.394567,0 h 6.394525 m 6.394517,0 h 6.39456 m 6.39453,0 h 6.394595 m 6.394507,0 h 6.39459 m 12.789047,0 h 25.578227 m 12.78903,0 h 6.39455 m 12.78913,0 h 19.1836 m 6.39455,0 h 6.39454 m 44.76179,0 h 25.5782 m 6.39451,0 h 6.39457 m 6.39453,0 h 6.39458 m 6.39454,0 h 6.39455 m 25.57819,0 h 6.39453 m 6.39457,0 h 25.57812 m 25.57819,0 h 6.39454 m 6.39452,0 h 6.3946 m 6.39451,0 H 415.6454 M 0,143.87726 h 19.183661 m 19.183616,0 h 6.394517 m 6.39456,0 h 19.183632 m 6.39459,0 h 6.394501 m 6.394546,0 h 12.789097 m 6.39456,0 h 6.39457 m 31.97271,0 h 6.39452 m 6.39457,0 h 6.39451 m 6.39455,0 h 12.78909 m 12.78913,0 h 6.39451 m 19.1836,0 h 6.39459 m 31.97269,0 h 25.5782 m 6.39452,0 h 12.78909 m 12.78911,0 h 25.57817 m 6.39452,0 h 6.39459 m 6.39453,0 h 6.39455 m 6.39452,0 h 19.18366 m 6.39451,0 h 6.39448 M 6.3945687,150.27183 H 31.972752 m 12.789042,0 h 12.78909 m 19.183692,0 h 6.394501 m 6.394546,0 h 6.394545 m 25.578202,0 h 25.57819 m 19.1836,0 h 6.39455 m 19.18364,0 h 12.78909 m 19.1836,0 h 6.39459 m 6.39452,0 h 6.39458 m 6.39451,0 h 6.39451 m 44.76184,0 h 6.39454 m 6.39458,0 h 25.57812 m 6.39458,0 h 6.39452 m 6.39459,0 h 12.78908 m 6.39452,0 h 6.39454 M 0,156.6664 h 12.789091 m 6.39457,0 h 12.789091 m 6.394525,0 h 19.183607 m 12.789102,0 h 25.578182 m 19.183682,0 h 6.39452 m 6.39451,0 h 12.78909 m 19.18368,0 h 6.39451 m 6.39455,0 h 6.39454 m 6.39455,0 h 12.78913 m 31.9727,0 h 6.39452 m 12.78909,0 h 12.78908 m 6.39453,0 h 25.57819 m 6.39455,0 h 25.57822 m 12.78902,0 h 25.57822 m 12.78907,0 h 25.57817 m 6.39448,0 h 6.39463 M 0,163.06093 h 6.3945687 m 6.3945223,0 h 25.578186 m 6.394517,0 h 12.78909 m 6.394595,0 h 6.394507 m 12.789091,0 h 6.394546 m 6.394545,0 h 19.183682 m 12.78903,0 h 12.78909 m 6.39459,0 h 19.1836 m 6.39455,0 h 25.57822 m 6.39451,0 h 12.78907 m 6.39453,0 h 6.39459 m 12.7891,0 h 31.9727 m 6.39454,0 h 6.39455 m 12.78907,0 h 12.78912 m 12.7891,0 h 6.39451 m 6.39451,0 h 19.18369 m 25.57814,0 h 6.39452 m 12.78911,0 h 12.78911 m -396.461739,6.39454 h 31.972693 m 6.39453,0 h 6.394595 m 19.183598,0 h 6.394546 m 6.394545,0 h 25.578202 m 6.39451,0 h 12.78909 m 51.15638,0 h 12.78909 m 6.39452,0 h 6.39455 m 12.78912,0 h 6.39452 m 6.39458,0 h 6.39451 m 6.39451,0 h 12.7891 m 6.39458,0 h 12.78909 m 19.18361,0 h 6.39458 m 6.39453,0 h 6.39457 m 6.39451,0 h 12.78909 m 6.39452,0 h 25.57819 M 0,175.85 h 12.789091 m 12.789094,0 h 6.394567 m 38.367234,0 h 25.578182 m 12.789112,0 h 6.39457 m 12.78903,0 h 19.18368 m 19.1836,0 h 12.78909 m 6.39455,0 h 6.39455 m 6.39458,0 h 6.39451 m 6.39452,0 h 19.18367 m 19.18361,0 h 6.39451 m 6.39457,0 h 6.39453 m 12.78912,0 h 6.39455 m 12.78907,0 h 12.78912 m 6.39453,0 h 19.18359 m 6.39458,0 h 19.18364 m 12.78907,0 h 6.39454 m 6.39452,0 h 6.3946 m 6.39451,0 H 415.6454 M 0,182.24456 h 6.3945687 m 19.1836163,0 h 19.183609 m 31.972782,0 h 31.972704 m 25.57815,0 h 6.39454 m 31.97274,0 h 6.39454 m 19.18368,0 h 12.78903 m 19.18367,0 h 6.39452 m 31.9727,0 h 12.78912 m 25.57816,0 h 12.78911 m 6.39457,0 h 6.39451 m 25.5782,0 h 6.39453 m 12.78907,0 h 12.78906 m 6.3946,0 h 12.78899 M 6.3945687,188.63912 H 19.183661 m 6.394524,0 h 6.394567 m 12.789042,0 h 6.39456 m 6.39453,0 h 25.578193 m 6.394546,0 h 25.578227 m 38.36723,0 h 25.57817 m 6.39455,0 h 6.39455 m 6.39458,0 h 6.39451 m 6.39452,0 h 12.78908 m 6.39459,0 h 12.7891 m 6.39451,0 h 25.57819 m 25.57816,0 h 12.78912 m 12.7891,0 h 31.97271 m 19.1836,0 h 12.78906 m 19.18359,0 h 6.39463 M 6.3945687,195.03367 H 57.550884 m 25.578193,0 h 6.394546 m 6.394545,0 h 6.394552 m 6.39456,0 h 6.39457 m 12.78903,0 h 12.78909 m 38.36728,0 h 44.76179 m 6.39459,0 h 6.39452 m 6.39458,0 h 6.39451 m 25.57819,0 h 6.39454 m 6.39455,0 h 12.78907 m 6.39454,0 h 6.39458 m 6.39453,0 h 19.18359 m 19.18369,0 h 31.97266 m 6.3946,0 h 6.39451 M 0,201.4282 h 6.3945687 m 6.3945223,0 h 6.39457 m 6.394524,0 h 6.394567 m 19.183602,0 h 12.789125 m 12.789097,0 h 31.972704 m 6.39457,0 h 6.39452 m 6.39451,0 h 6.39455 m 6.39454,0 h 6.39459 m 6.39452,0 h 6.39457 m 12.78906,0 h 6.39454 m 12.7891,0 h 6.39458 m 19.18358,0 h 19.18364 m 12.78909,0 h 51.15635 m 25.57822,0 h 6.39451 m 6.39451,0 h 6.39458 m 12.78911,0 h 6.39453 m 19.18361,0 h 12.78912 m 12.78899,0 h 6.39463 M 0,207.82275 h 31.972752 m 6.394525,0 h 6.394517 m 6.39456,0 h 12.789125 m 6.394507,0 h 12.789091 m 12.789091,0 h 19.183682 m 25.57812,0 h 6.39459 m 6.39452,0 h 6.39457 m 6.39451,0 h 12.78909 m 6.39455,0 h 12.78913 m 6.39451,0 h 6.39452 m 6.39455,0 h 6.39453 m 6.39459,0 h 12.7891 m 25.57812,0 h 12.78912 m 6.39455,0 h 6.39452 m 6.39455,0 h 12.78912 m 6.39453,0 h 6.39457 m 6.39451,0 h 19.18361 m 6.39459,0 h 6.39453 m 6.39455,0 h 6.39452 m 6.39454,0 h 6.39452 m 6.3946,0 h 6.39451 m 6.39448,0 h 6.39463 M 6.3945687,214.21726 H 19.183661 m 6.394524,0 h 6.394567 m 19.183602,0 h 12.789125 m 12.789097,0 h 25.578144 m 19.18365,0 h 25.57819 m 6.39452,0 h 6.39457 m 12.78906,0 h 12.78909 m 6.39455,0 h 6.39458 m 19.18358,0 h 19.18364 m 6.39458,0 h 44.76179 m 25.57819,0 h 6.39453 m 6.39457,0 h 25.57812 m 6.39459,0 h 6.39453 m 19.18361,0 h 6.39452 m 6.3946,0 h 6.39451 m 6.39448,0 h 6.39463 M 0,220.61185 h 19.183661 m 6.394524,0 h 31.972699 m 19.183692,0 h 6.394501 m 6.394546,0 h 6.394545 m 12.789112,0 h 12.78909 m 6.39451,0 h 19.18368 m 12.78909,0 h 6.39451 m 6.39455,0 h 6.39454 m 12.7891,0 h 38.36728 m 19.18361,0 h 19.18361 m 6.39458,0 h 25.57816 m 6.39454,0 h 6.39458 m 6.39453,0 h 6.39457 m 6.39451,0 h 6.39451 m 12.7891,0 h 44.76185 M 0,227.00635 h 25.578185 m 19.183609,0 h 6.39456 m 19.183632,0 h 12.789091 m 6.394546,0 h 12.789097 m 6.39456,0 h 6.39457 m 6.39452,0 h 6.39451 m 12.78909,0 h 6.39459 m 6.39452,0 h 25.57817 m 6.39455,0 h 6.39455 m 6.39458,0 h 12.78903 m 31.97277,0 h 6.39451 m 6.39451,0 h 6.39457 m 6.39453,0 h 6.39458 m 6.39454,0 h 6.39455 m 12.78907,0 h 6.39454 m 6.39458,0 h 6.39453 m 12.78908,0 h 44.7618 M 6.3945687,233.40091 h 6.3945223 m 19.183661,0 h 12.789042 m 12.78909,0 h 19.183692 m 12.789047,0 h 6.394545 m 6.394552,0 h 6.39456 m 19.1836,0 h 19.18368 m 25.57815,0 h 12.78909 m 31.97271,0 h 6.39453 m 12.78911,0 h 25.57817 m 38.36727,0 h 12.78912 m 12.7891,0 h 6.39451 m 31.97273,0 h 19.18361 m 12.78912,0 h 6.39451 m 6.39448,0 h 6.39463 M 0,239.79548 h 25.578185 m 31.972699,0 h 6.394595 m 6.394507,0 h 19.183637 m 19.183657,0 h 6.39457 m 6.39452,0 h 6.39451 m 19.18368,0 h 12.78909 m 19.1836,0 h 12.7891 m 25.57816,0 h 6.39453 m 6.39459,0 h 31.97269 m 12.78911,0 h 6.39454 m 19.18362,0 h 19.18365 m 19.18359,0 h 12.7891 m 6.39459,0 H 415.6454 M 6.3945687,246.19004 H 25.578185 m 6.394567,0 h 12.789042 m 6.39456,0 h 6.39453 m 19.183692,0 h 6.394501 m 25.578203,0 h 12.78909 m 12.78906,0 h 19.18365 m 6.39457,0 h 6.39451 m 6.39455,0 h 6.39454 m 6.39455,0 h 6.39455 m 12.78909,0 h 12.78907 m 19.18364,0 h 19.1836 m 6.39457,0 h 19.18365 m 6.39455,0 h 38.36729 m 12.78902,0 h 6.39458 m 12.78911,0 h 6.39453 m 12.78907,0 h 19.18366 m 6.39451,0 h 6.39448 M 6.3945687,252.58455 h 6.3945223 m 19.183661,0 h 6.394525 m 6.394517,0 h 6.39456 m 12.789125,0 h 12.789097 m 6.394501,0 h 6.394546 m 25.578227,0 h 6.39452 m 6.39451,0 h 6.39455 m 19.18365,0 h 6.39457 m 6.39451,0 h 6.39455 m 6.39454,0 h 6.39455 m 19.18364,0 h 19.1836 m 44.76181,0 h 6.39458 m 6.39454,0 h 6.39455 m 12.78907,0 h 6.39454 m 6.39458,0 h 12.7891 m 6.39451,0 h 12.78909 m 6.39452,0 h 6.39459 m 6.39453,0 h 31.97273 M 0,258.97911 h 44.761794 m 38.367283,0 h 12.789091 m 12.789112,0 h 6.39457 m 12.78903,0 h 6.39455 m 25.57822,0 h 31.9727 m 31.97269,0 h 6.39459 m 12.7891,0 h 6.39451 m 12.78908,0 h 6.39453 m 31.97274,0 h 12.78912 m 44.76181,0 h 6.39453 m 25.57813,0 h 19.18359 M 0,265.37364 h 12.789091 m 12.789094,0 h 12.789092 m 25.578202,0 h 6.394507 m 12.789091,0 h 6.394546 m 63.945457,0 h 19.18363 m 12.78909,0 h 6.39455 m 6.39458,0 h 12.78903 m 25.57819,0 h 6.39458 m 6.39451,0 h 6.39451 m 19.18368,0 h 19.18361 m 6.39455,0 h 19.18365 m 19.18359,0 h 12.7891 m 6.39459,0 h 12.78908 m 6.39452,0 h 12.78906 m 19.18359,0 h 6.39463 m -396.461739,6.3946 h 6.394524 m 12.789092,0 h 6.394517 m 6.39456,0 h 6.39453 m 12.789102,0 h 12.789091 m 25.578203,0 h 12.78909 m 6.39451,0 h 6.39455 m 6.39454,0 h 6.39459 m 6.39452,0 h 6.39457 m 6.39451,0 h 6.39455 m 19.18364,0 h 12.78909 m 12.78907,0 h 19.18364 m 6.39458,0 h 6.39451 m 6.39451,0 h 12.7891 m 6.39458,0 h 6.39454 m 12.78907,0 h 12.78909 m 6.39458,0 h 12.7891 m 63.94537,0 h 12.78911 m -390.067199,6.39451 h 6.39457 m 6.394524,0 h 6.394567 m 12.789042,0 h 12.78909 m 19.183692,0 h 12.789047 m 6.394545,0 h 6.394552 m 6.39456,0 h 19.1836 m 6.39455,0 h 12.78913 m 12.78909,0 h 19.1836 m 12.7891,0 h 12.78909 m 12.78907,0 h 19.18364 m 6.39458,0 h 19.18359 m 31.97272,0 h 6.39455 m 31.97273,0 h 6.39451 m 6.39458,0 h 19.18364 m 6.39455,0 h 25.57818 m 12.78899,0 h 6.39463 m -396.461739,6.39457 h 6.394524 m 6.394567,0 h 25.578132 m 31.972739,0 h 31.972747 m 19.1836,0 h 12.78911 m 6.39457,0 h 6.39451 m 6.39455,0 h 6.39454 m 6.39455,0 h 12.78913 m 12.78903,0 h 6.39455 m 19.18364,0 h 6.39458 m 12.78902,0 h 25.57822 m 6.39455,0 h 31.97272 m 51.15636,0 h 12.78906 m 12.78912,0 h 12.78899 M 0,290.95183 h 6.3945687 m 25.5781833,0 h 6.394525 m 6.394517,0 h 6.39456 m 19.183632,0 h 6.39459 m 6.394501,0 h 6.394546 m 6.394545,0 h 6.394552 m 6.39456,0 h 12.78909 m 6.39451,0 h 19.18368 m 12.78909,0 h 12.78906 m 6.39454,0 h 25.57819 m 19.1836,0 h 6.39459 m 12.7891,0 h 19.18359 m 12.78911,0 h 12.78909 m 12.78907,0 h 19.18365 m 19.18359,0 h 12.7891 m 6.39459,0 h 6.39453 m 19.18361,0 h 6.39452 m 19.18359,0 h 6.39463 M 0,297.34634 h 6.3945687 m 6.3945223,0 h 6.39457 m 6.394524,0 h 38.367294 m 6.394507,0 h 31.972734 m 6.39456,0 h 31.97269 m 6.39459,0 h 6.39452 m 12.78908,0 h 6.39455 m 6.39454,0 h 6.39455 m 6.39455,0 h 25.57816 m 6.39453,0 h 19.18369 m 12.78902,0 h 6.39457 m 6.39453,0 h 6.39458 m 12.78909,0 h 12.78907 m 19.18365,0 h 6.39457 m 31.97271,0 h 6.39453 m 12.78907,0 h 12.78906 m 6.3946,0 h 6.39451 M 6.3945687,303.74093 h 6.3945223 m 6.39457,0 h 12.789091 m 12.789042,0 h 12.78909 m 19.183692,0 h 12.789047 m 19.183657,0 h 6.39457 m 12.78903,0 h 6.39455 m 6.39454,0 h 38.36728 m 6.39455,0 h 12.78913 m 6.39451,0 h 6.39452 m 6.39455,0 h 6.39453 m 6.39459,0 h 6.39452 m 12.78909,0 h 19.18361 m 6.39458,0 h 12.78909 m 6.39452,0 h 12.78909 m 6.39458,0 h 6.39453 m 6.39457,0 h 38.36724 m 6.39455,0 h 25.57818 M 6.3945687,310.13543 H 25.578185 m 6.394567,0 h 12.789042 m 6.39456,0 h 25.578222 m 31.972704,0 h 6.39457 m 6.39452,0 h 19.1836 m 19.18368,0 h 6.39451 m 12.78909,0 h 12.7891 m 19.18361,0 h 12.78908 m 12.78911,0 h 12.78909 m 25.57819,0 h 6.39454 m 6.39455,0 h 6.39452 m 6.39455,0 h 19.18365 m 25.57817,0 h 6.39452 m 19.18367,0 h 6.39452 m 19.18366,0 h 6.39451 m 6.39448,0 h 6.39463 m -390.067215,6.3946 h 6.394567 m 12.789042,0 h 12.78909 m 6.394595,0 h 12.789097 m 6.394501,0 h 19.183643 m 19.18365,0 h 6.39451 m 19.18368,0 h 6.39452 m 31.97272,0 h 6.39455 m 12.78909,0 h 12.78907 m 31.97273,0 h 12.78908 m 6.39453,0 h 12.78912 m 25.57816,0 h 12.78911 m 6.39457,0 h 12.78902 m 6.39458,0 h 6.39452 m 6.39459,0 h 19.1836 m 6.39454,0 H 415.6454 M 0,322.92456 h 12.789091 m 12.789094,0 h 6.394567 m 6.394525,0 h 6.394517 m 25.578192,0 h 6.39459 m 6.394501,0 h 6.394546 m 6.394545,0 h 12.789112 m 6.39457,0 h 12.78903 m 19.18368,0 h 12.78909 m 6.39451,0 h 12.78909 m 12.7891,0 h 6.39458 m 6.39451,0 h 6.39452 m 12.78908,0 h 6.39459 m 6.39452,0 h 6.39458 m 12.78902,0 h 12.7891 m 6.39458,0 h 6.39454 m 6.39455,0 h 12.78907 m 6.39454,0 h 6.39458 m 6.39453,0 h 12.78908 m 19.18361,0 h 6.39459 m 19.1836,0 h 6.39454 m 6.39452,0 h 6.3946 m -370.883595,6.39456 h 6.394567 m 31.972727,0 h 6.394507 m 6.39459,0 h 19.183592 m 6.394552,0 h 19.18365 m 6.39451,0 h 6.39455 m 12.78913,0 h 6.39452 m 19.18363,0 h 31.97273 m 6.39452,0 h 6.39455 m 6.39453,0 h 6.39459 m 25.57812,0 h 12.7891 m 12.78912,0 h 6.39455 m 12.78907,0 h 6.39454 m 6.39458,0 h 6.39453 m 12.78908,0 h 63.94546 M 0,335.71363 h 6.3945687 m 6.3945223,0 h 38.367263 m 12.789125,0 h 12.789097 m 19.183592,0 h 6.394552 m 19.18365,0 h 25.57819 m 6.39452,0 h 57.55088 m 12.78908,0 h 12.78911 m 12.78909,0 h 6.39451 m 19.18368,0 h 6.39454 m 6.39455,0 h 6.39452 m 6.39455,0 h 12.78912 m 25.57812,0 h 12.7891 m 12.78912,0 h 6.39455 m 6.39452,0 h 6.39454 m 12.78912,0 H 415.6454 M 6.3945687,342.1082 H 25.578185 m 19.183609,0 h 25.578192 m 6.39459,0 h 19.183592 m 31.972712,0 h 12.78909 m 6.39459,0 h 12.78909 m 6.39451,0 h 6.39455 m 19.18364,0 h 19.18361 m 6.39455,0 h 6.39453 m 12.78911,0 h 12.78909 m 12.78908,0 h 6.39453 m 6.39458,0 h 6.39454 m 19.18362,0 h 19.18365 m 6.39457,0 h 6.39451 m 12.78909,0 h 70.33999 m -402.856309,6.39452 h 12.789094 m 6.394567,0 h 12.789042 m 6.39456,0 h 6.39453 m 12.789102,0 h 19.183637 m 12.789097,0 h 12.78913 m 6.39452,0 h 6.39451 m 25.5782,0 h 6.39457 m 12.78906,0 h 31.97273 m 6.39452,0 h 19.18367 m 12.7891,0 h 6.39451 m 12.78908,0 h 6.39453 m 31.97274,0 h 38.36724 m 6.39458,0 h 6.39452 m 25.57819,0 h 12.78906 m 6.3946,0 h 6.39451 M 0,354.89732 h 6.3945687 m 12.7890923,0 h 6.394524 m 31.972699,0 h 6.394595 m 19.183598,0 h 12.789091 m 12.789112,0 h 6.39457 m 38.36723,0 h 6.39457 m 6.39451,0 h 6.39455 m 19.18364,0 h 6.39458 m 12.78903,0 h 6.39455 m 6.39453,0 h 19.18369 m 19.18359,0 h 6.39453 m 6.39458,0 h 12.78909 m 6.39452,0 h 6.39455 m 12.78912,0 h 38.36722 m 6.39459,0 h 19.1836 m 6.39454,0 h 12.78912 M 6.3945687,361.29183 H 19.183661 m 6.394524,0 h 6.394567 m 6.394525,0 h 6.394517 m 12.78909,0 h 6.394595 m 38.367241,0 h 6.39456 m 6.39457,0 h 6.39452 m 12.78906,0 h 89.52361 m 12.78911,0 h 19.1836 m 6.39457,0 h 6.39453 m 6.39458,0 h 6.39454 m 6.39455,0 h 25.57819 m 6.39453,0 h 12.78908 m 6.39451,0 h 6.39458 m 12.78911,0 h 31.97266 m 6.3946,0 H 415.6454 M 51.156354,367.6864 h 6.39453 m 19.183692,0 h 19.183592 m 25.578202,0 h 6.39451 m 19.18368,0 h 12.78909 m 6.39451,0 h 6.39455 m 19.18364,0 h 6.39458 m 19.18358,0 h 6.39453 m 6.39459,0 h 12.7891 m 12.78902,0 h 12.7891 m 44.76186,0 h 12.7891 m 6.39451,0 h 6.39451 m 6.39458,0 h 6.39452 m 6.39459,0 h 6.39453 m 19.18361,0 H 415.6454 M 0,374.08094 h 44.761794 m 12.78909,0 h 12.789102 m 38.367294,0 h 6.39457 m 12.78903,0 h 6.39455 m 25.57822,0 h 6.39451 m 12.78909,0 h 19.18368 m 6.39451,0 h 6.39452 m 6.39455,0 h 6.39453 m 6.39459,0 h 12.7891 m 6.39451,0 h 6.39451 m 12.7891,0 h 38.36728 m 31.9727,0 h 6.39458 m 6.39452,0 h 12.78912 m 6.39455,0 h 6.39452 m 6.39454,0 h 6.39452 M 0,380.47544 h 6.3945687 m 31.9727083,0 h 6.394517 m 19.183685,0 h 6.394507 m 12.789091,0 h 12.789091 m 6.394552,0 h 12.78913 m 19.18358,0 h 19.18365 m 6.39457,0 h 6.39451 m 12.78909,0 h 6.39455 m 6.39455,0 h 6.39458 m 19.18358,0 h 19.18364 m 12.78909,0 h 12.78908 m 19.18365,0 h 12.78907 m 6.39455,0 h 6.39454 m 6.39458,0 h 12.7891 m 6.39451,0 h 6.39451 m 6.39458,0 h 6.39452 m 6.39459,0 h 6.39453 m 19.18361,0 h 12.78912 m 6.39451,0 h 6.39448 M 0,386.87002 h 6.3945687 m 6.3945223,0 h 19.183661 m 6.394525,0 h 6.394517 m 6.39456,0 h 12.789125 m 6.394507,0 h 6.39459 m 6.394501,0 h 6.394546 m 6.394545,0 h 12.789112 m 6.39457,0 h 12.78903 m 6.39455,0 h 12.78913 m 6.39452,0 h 12.78908 m 25.57819,0 h 31.97269 m 12.78911,0 h 12.78909 m 6.39451,0 h 6.39457 m 6.39453,0 h 12.78912 m 19.18362,0 h 25.57822 m 12.78902,0 h 6.39458 m 12.78911,0 h 31.97266 m 6.3946,0 H 415.6454 M 0,393.26453 h 6.3945687 m 6.3945223,0 h 19.183661 m 6.394525,0 h 6.394517 m 6.39456,0 h 6.39453 m 25.578193,0 h 19.183643 m 6.39456,0 h 6.39457 m 19.18358,0 h 6.39454 m 12.78911,0 h 31.97272 m 19.18364,0 h 12.78907 m 6.39453,0 h 44.76181 m 6.39458,0 h 19.18361 m 6.39455,0 h 6.39454 m 6.39458,0 h 6.39453 m 6.39457,0 h 38.36724 m 19.18361,0 h 25.57811 M 0,399.65913 h 6.3945687 m 6.3945223,0 h 19.183661 m 6.394525,0 h 6.394517 m 6.39456,0 h 57.550926 m 6.39457,0 h 6.39452 m 12.78906,0 h 6.39454 m 6.39459,0 h 12.78909 m 12.78906,0 h 6.39454 m 25.57819,0 h 12.78907 m 6.39453,0 h 6.39459 m 12.7891,0 h 19.18359 m 12.78911,0 h 12.78909 m 12.78907,0 h 6.39454 m 12.78911,0 h 12.78908 m 19.18361,0 h 6.39459 m 19.1836,0 h 31.97265 M 0,406.05363 h 6.3945687 m 31.9727083,0 h 6.394517 m 12.78909,0 h 12.789102 m 12.789091,0 h 12.789091 m 6.394552,0 h 12.78913 m 6.39452,0 h 57.55088 m 6.39455,0 h 12.78913 m 25.57811,0 h 12.78911 m 6.39458,0 h 6.39451 m 31.97273,0 h 6.39455 m 25.57819,0 h 6.39453 m 12.78908,0 h 6.39451 m 6.39458,0 h 6.39452 m 12.78912,0 h 6.39455 m 19.18358,0 h 6.3946 m 6.39451,0 h 6.39448 M 0,412.4482 h 44.761794 m 12.78909,0 h 6.394595 m 25.578144,0 h 6.394545 m 12.789112,0 h 6.39457 m 6.39452,0 h 12.78906 m 6.39454,0 h 12.78911 m 19.18363,0 h 6.39454 m 6.39455,0 h 12.78913 m 19.18358,0 h 6.39453 m 6.39459,0 h 19.18361 m 6.39451,0 h 6.39457 m 6.39453,0 h 12.78912 m 6.39455,0 h 6.39452 m 6.39455,0 h 19.18365 m 6.39457,0 h 6.39451 m 6.39451,0 h 6.39458 m 6.39452,0 h 6.39459 m 12.78908,0 h 6.39452 m 6.39454,0 h 19.18363"
     id="path4"
     style="stroke-width:6.39462" />
</svg>
