<?xml version="1.0" encoding="utf-8"?>
<!-- Generator: Adobe Illustrator 22.1.0, SVG Export Plug-In . SVG Version: 6.00 Build 0)  -->
<svg version="1.1" id="Livello_1" xmlns="http://www.w3.org/2000/svg" xmlns:xlink="http://www.w3.org/1999/xlink" x="0px" y="0px"
	 viewBox="0 0 48 12" style="enable-background:new 0 0 48 12;" xml:space="preserve">
<style type="text/css">
	.st0{fill:#004080;}
</style>
<g id="_x2013_-Documento">
	<g id="docs_article_nav_1-cap_02" transform="translate(-585.000000, -9317.000000)">
		<g id="Group-32-Copy-4" transform="translate(520.000000, 9317.000000)">
			<g id="Group-24" transform="translate(40.000000, 0.000000)">
				<path id="Fill-1" class="st0" d="M31,0c-0.8,0-1.6,0.2-2.3,0.5c-0.7,0.3-1.4,0.7-1.9,1.3c-0.5,0.5-1,1.2-1.3,1.9
					C25.2,4.4,25,5.2,25,6c0,0.8,0.2,1.6,0.5,2.3c0.3,0.7,0.7,1.4,1.3,1.9c0.5,0.5,1.2,1,1.9,1.3c0.7,0.3,1.5,0.5,2.3,0.5
					c0.8,0,1.6-0.2,2.3-0.5c0.7-0.3,1.4-0.7,1.9-1.3c0.5-0.5,1-1.2,1.3-1.9C36.8,7.6,37,6.8,37,6c0-0.8-0.2-1.6-0.5-2.3
					c-0.3-0.7-0.7-1.4-1.3-1.9c-0.5-0.5-1.2-1-1.9-1.3C32.6,0.2,31.8,0,31,0z M31,10.9c-0.7,0-1.3-0.1-1.9-0.4
					c-0.6-0.3-1.1-0.6-1.6-1c-0.4-0.4-0.8-1-1-1.6S26.1,6.7,26.1,6s0.1-1.3,0.4-1.9s0.6-1.1,1-1.6c0.4-0.4,1-0.8,1.6-1
					c0.6-0.3,1.2-0.4,1.9-0.4c0.7,0,1.3,0.1,1.9,0.4c0.6,0.3,1.1,0.6,1.6,1s0.8,1,1,1.6s0.4,1.2,0.4,1.9s-0.1,1.3-0.4,1.9
					s-0.6,1.1-1,1.6c-0.4,0.4-1,0.8-1.6,1C32.3,10.8,31.7,10.9,31,10.9z M33,4c-0.1-0.1-0.2-0.2-0.4-0.2c-0.1,0-0.3,0.1-0.4,0.2
					L31,5.2L29.7,4c-0.1-0.1-0.2-0.2-0.4-0.2c-0.1,0-0.3,0.1-0.4,0.2c-0.1,0.1-0.2,0.2-0.2,0.4s0.1,0.3,0.2,0.4L30.2,6L29,7.2
					c-0.1,0.1-0.2,0.2-0.2,0.4S28.9,7.9,29,8c0.1,0.1,0.1,0.1,0.2,0.1s0.1,0,0.2,0c0.1,0,0.2,0,0.2,0s0.1-0.1,0.2-0.1L31,6.8L32.2,8
					c0.1,0.1,0.1,0.1,0.2,0.1c0.1,0,0.1,0,0.2,0c0.1,0,0.1,0,0.2,0S33,8.1,33,8c0.1-0.1,0.2-0.2,0.2-0.4S33.1,7.4,33,7.2L31.8,6
					L33,4.7c0.1-0.1,0.2-0.2,0.2-0.4S33.1,4.1,33,4z"/>
			</g>
		</g>
	</g>
</g>
<g id="_x2013_-Documento_1_">
	<g id="docs_article_nav_1-cap_02_1_" transform="translate(-585.000000, -9317.000000)">
		<g id="Group-32-Copy-4_1_" transform="translate(520.000000, 9317.000000)">
			<g id="Group-24_1_" transform="translate(40.000000, 0.000000)">
				<path id="Fill-1_1_" class="st0" d="M49,0c-0.8,0-1.6,0.2-2.3,0.5c-0.7,0.3-1.4,0.7-1.9,1.3c-0.5,0.5-1,1.2-1.3,1.9
					C43.2,4.4,43,5.2,43,6c0,0.8,0.2,1.6,0.5,2.3c0.3,0.7,0.7,1.4,1.3,1.9c0.5,0.5,1.2,1,1.9,1.3c0.7,0.3,1.5,0.5,2.3,0.5
					s1.6-0.2,2.3-0.5c0.7-0.3,1.4-0.7,1.9-1.3s1-1.2,1.3-1.9C54.8,7.6,55,6.8,55,6c0-0.8-0.2-1.6-0.5-2.3c-0.3-0.7-0.7-1.4-1.3-1.9
					s-1.2-1-1.9-1.3C50.6,0.2,49.8,0,49,0z M49,10.9c-0.7,0-1.3-0.1-1.9-0.4c-0.6-0.3-1.1-0.6-1.6-1c-0.4-0.4-0.8-1-1-1.6
					S44.1,6.7,44.1,6s0.1-1.3,0.4-1.9s0.6-1.1,1-1.6c0.4-0.4,1-0.8,1.6-1s1.2-0.4,1.9-0.4s1.3,0.1,1.9,0.4c0.6,0.3,1.1,0.6,1.6,1
					c0.4,0.4,0.8,1,1,1.6c0.3,0.6,0.4,1.2,0.4,1.9s-0.1,1.3-0.4,1.9c-0.3,0.6-0.6,1.1-1,1.6c-0.4,0.4-1,0.8-1.6,1
					C50.3,10.8,49.7,10.9,49,10.9z M51,4c-0.1-0.1-0.2-0.2-0.4-0.2c-0.1,0-0.3,0.1-0.4,0.2L49,5.2L47.7,4c-0.1-0.1-0.2-0.2-0.4-0.2
					c-0.1,0-0.3,0.1-0.4,0.2c-0.1,0.1-0.2,0.2-0.2,0.4s0.1,0.3,0.2,0.4L48.2,6L47,7.2c-0.1,0.1-0.2,0.2-0.2,0.4S46.9,7.9,47,8
					c0.1,0.1,0.1,0.1,0.2,0.1s0.1,0,0.2,0c0.1,0,0.2,0,0.2,0s0.1-0.1,0.2-0.1L49,6.8L50.3,8c0.1,0.1,0.1,0.1,0.2,0.1
					c0.1,0,0.1,0,0.2,0c0.1,0,0.1,0,0.2,0S51,8.1,51,8c0.1-0.1,0.2-0.2,0.2-0.4S51.1,7.4,51,7.2L49.8,6L51,4.7
					c0.1-0.1,0.2-0.2,0.2-0.4S51.1,4.1,51,4z"/>
			</g>
		</g>
	</g>
</g>
<g id="_x2013_-Documento_2_">
	<g id="docs_article_nav_1-cap_02_2_" transform="translate(-585.000000, -9317.000000)">
		<g id="Group-32-Copy-4_2_" transform="translate(520.000000, 9317.000000)">
			<g id="Group-24_2_" transform="translate(40.000000, 0.000000)">
				<path id="Fill-1_2_" class="st0" d="M67,0c-0.8,0-1.6,0.2-2.3,0.5c-0.7,0.3-1.4,0.7-1.9,1.3s-1,1.2-1.3,1.9
					C61.2,4.4,61,5.2,61,6c0,0.8,0.2,1.6,0.5,2.3c0.3,0.7,0.7,1.4,1.3,1.9s1.2,1,1.9,1.3c0.7,0.3,1.5,0.5,2.3,0.5
					c0.8,0,1.6-0.2,2.3-0.5c0.7-0.3,1.4-0.7,1.9-1.3s1-1.2,1.3-1.9C72.8,7.6,73,6.8,73,6c0-0.8-0.2-1.6-0.5-2.3
					c-0.3-0.7-0.7-1.4-1.3-1.9s-1.2-1-1.9-1.3C68.6,0.2,67.8,0,67,0z M67,10.9c-0.7,0-1.3-0.1-1.9-0.4c-0.6-0.3-1.1-0.6-1.6-1
					c-0.4-0.4-0.8-1-1-1.6S62.1,6.7,62.1,6s0.1-1.3,0.4-1.9s0.6-1.1,1-1.6c0.4-0.4,1-0.8,1.6-1c0.6-0.3,1.2-0.4,1.9-0.4
					s1.3,0.1,1.9,0.4s1.1,0.6,1.6,1c0.4,0.4,0.8,1,1,1.6c0.3,0.6,0.4,1.2,0.4,1.9s-0.1,1.3-0.4,1.9c-0.3,0.6-0.6,1.1-1,1.6
					c-0.4,0.4-1,0.8-1.6,1C68.3,10.8,67.7,10.9,67,10.9z M69,4c-0.1-0.1-0.2-0.2-0.4-0.2S68.4,3.9,68.3,4L67,5.2L65.8,4
					c-0.1-0.1-0.2-0.2-0.4-0.2S65.1,3.9,65,4c-0.1,0.1-0.2,0.2-0.2,0.4s0.1,0.3,0.2,0.4L66.2,6L65,7.2c-0.1,0.1-0.2,0.2-0.2,0.4
					S64.9,7.9,65,8c0.1,0.1,0.1,0.1,0.2,0.1c0.1,0,0.1,0,0.2,0c0.1,0,0.2,0,0.2,0c0.1,0,0.1-0.1,0.2-0.1L67,6.8L68.3,8
					c0.1,0.1,0.1,0.1,0.2,0.1s0.1,0,0.2,0s0.1,0,0.2,0S69,8.1,69,8c0.1-0.1,0.2-0.2,0.2-0.4S69.1,7.4,69,7.2L67.8,6L69,4.7
					c0.1-0.1,0.2-0.2,0.2-0.4S69.1,4.1,69,4z"/>
			</g>
		</g>
	</g>
</g>
</svg>
