<svg xmlns="http://www.w3.org/2000/svg" xmlns:xlink="http://www.w3.org/1999/xlink" contentStyleType="text/css" height="685px" preserveAspectRatio="none" style="width:657px;height:685px;background:#FFFFFF;" version="1.1" viewBox="0 0 657 685" width="657px" zoomAndPan="magnify"><defs/><g><rect fill="none" height="178.0625" style="stroke:#000000;stroke-width:1.5;" width="641.4277" x="10" y="168.8281"/><rect fill="none" height="103.3984" style="stroke:#000000;stroke-width:1.5;" width="322.3662" x="10" y="403.0234"/><line style="stroke:#181818;stroke-width:0.5;stroke-dasharray:5.0,5.0;" x1="49" x2="49" y1="36.2969" y2="649.8203"/><line style="stroke:#181818;stroke-width:0.5;stroke-dasharray:5.0,5.0;" x1="365.6113" x2="365.6113" y1="36.2969" y2="649.8203"/><line style="stroke:#181818;stroke-width:0.5;stroke-dasharray:5.0,5.0;" x1="541.3857" x2="541.3857" y1="36.2969" y2="649.8203"/><rect fill="#E2E2F0" height="30.2969" rx="2.5" ry="2.5" style="stroke:#181818;stroke-width:0.5;" width="58.3037" x="20" y="5"/><text fill="#000000" font-family="sans-serif" font-size="14" lengthAdjust="spacing" textLength="44.3037" x="27" y="24.9951">Wallet</text><rect fill="#E2E2F0" height="30.2969" rx="2.5" ry="2.5" style="stroke:#181818;stroke-width:0.5;" width="58.3037" x="20" y="648.8203"/><text fill="#000000" font-family="sans-serif" font-size="14" lengthAdjust="spacing" textLength="44.3037" x="27" y="668.8154">Wallet</text><rect fill="#E2E2F0" height="30.2969" rx="2.5" ry="2.5" style="stroke:#181818;stroke-width:0.5;" width="132.7744" x="299.6113" y="5"/><text fill="#000000" font-family="sans-serif" font-size="14" lengthAdjust="spacing" textLength="118.7744" x="306.6113" y="24.9951">Credential Issuer</text><rect fill="#E2E2F0" height="30.2969" rx="2.5" ry="2.5" style="stroke:#181818;stroke-width:0.5;" width="132.7744" x="299.6113" y="648.8203"/><text fill="#000000" font-family="sans-serif" font-size="14" lengthAdjust="spacing" textLength="118.7744" x="306.6113" y="668.8154">Credential Issuer</text><rect fill="#E2E2F0" height="30.2969" rx="2.5" ry="2.5" style="stroke:#181818;stroke-width:0.5;" width="199.042" x="442.3857" y="5"/><text fill="#000000" font-family="sans-serif" font-size="14" lengthAdjust="spacing" textLength="185.042" x="449.3857" y="24.9951">Intermediate/Trust Anchor</text><rect fill="#E2E2F0" height="30.2969" rx="2.5" ry="2.5" style="stroke:#181818;stroke-width:0.5;" width="199.042" x="442.3857" y="648.8203"/><text fill="#000000" font-family="sans-serif" font-size="14" lengthAdjust="spacing" textLength="185.042" x="449.3857" y="668.8154">Intermediate/Trust Anchor</text><line style="stroke:#181818;stroke-width:1.0;" x1="363.9985" x2="353.9985" y1="82.5625" y2="78.5625"/><line style="stroke:#181818;stroke-width:1.0;" x1="363.9985" x2="353.9985" y1="82.5625" y2="86.5625"/><line style="stroke:#181818;stroke-width:1.0;" x1="49.1519" x2="364.9985" y1="82.5625" y2="82.5625"/><text fill="#000000" font-family="sans-serif" font-size="13" lengthAdjust="spacing" textLength="197.7295" x="56.1519" y="62.3638">Fetch CI's Entity Configuration</text><text fill="#000000" font-family="sans-serif" font-size="13" lengthAdjust="spacing" textLength="276.6563" x="60.2842" y="77.4966">at .well-known/openid-federation endpoint</text><line style="stroke:#181818;stroke-width:1.0;" x1="50.1519" x2="60.1519" y1="111.6953" y2="107.6953"/><line style="stroke:#181818;stroke-width:1.0;" x1="50.1519" x2="60.1519" y1="111.6953" y2="115.6953"/><line style="stroke:#181818;stroke-width:1.0;" x1="49.1519" x2="364.9985" y1="111.6953" y2="111.6953"/><text fill="#000000" font-family="sans-serif" font-size="13" lengthAdjust="spacing" textLength="178.3311" x="66.1519" y="106.6294">Return Entity Configuration</text><line style="stroke:#181818;stroke-width:1.0;" x1="49.1519" x2="91.1519" y1="140.8281" y2="140.8281"/><line style="stroke:#181818;stroke-width:1.0;" x1="91.1519" x2="91.1519" y1="140.8281" y2="153.8281"/><line style="stroke:#181818;stroke-width:1.0;" x1="49.1519" x2="91.1519" y1="153.8281" y2="153.8281"/><line style="stroke:#181818;stroke-width:1.0;" x1="50.1519" x2="60.1519" y1="153.8281" y2="149.8281"/><line style="stroke:#181818;stroke-width:1.0;" x1="50.1519" x2="60.1519" y1="153.8281" y2="157.8281"/><text fill="#000000" font-family="sans-serif" font-size="13" lengthAdjust="spacing" textLength="302.8467" x="56.1519" y="135.7622">Extract Authority Hints from CI's Configuration</text><path d="M10,168.8281 L86.624,168.8281 L86.624,175.9609 L76.624,185.9609 L10,185.9609 L10,168.8281 " fill="#EEEEEE" style="stroke:#000000;stroke-width:1.5;"/><rect fill="none" height="178.0625" style="stroke:#000000;stroke-width:1.5;" width="641.4277" x="10" y="168.8281"/><text fill="#000000" font-family="sans-serif" font-size="13" font-weight="bold" lengthAdjust="spacing" textLength="31.624" x="25" y="181.895">loop</text><text fill="#000000" font-family="sans-serif" font-size="11" font-weight="bold" lengthAdjust="spacing" textLength="153.2266" x="101.624" y="181.0386">[for each Authority Hint]</text><line style="stroke:#181818;stroke-width:1.0;" x1="539.9067" x2="529.9067" y1="222.2266" y2="218.2266"/><line style="stroke:#181818;stroke-width:1.0;" x1="539.9067" x2="529.9067" y1="222.2266" y2="226.2266"/><line style="stroke:#181818;stroke-width:1.0;" x1="49.1519" x2="540.9067" y1="222.2266" y2="222.2266"/><text fill="#000000" font-family="sans-serif" font-size="13" lengthAdjust="spacing" textLength="170.3394" x="56.1519" y="202.0278">Fetch Entity Configuration</text><text fill="#000000" font-family="sans-serif" font-size="13" lengthAdjust="spacing" textLength="276.6563" x="60.2842" y="217.1606">at .well-known/openid-federation endpoint</text><line style="stroke:#181818;stroke-width:1.0;" x1="539.9067" x2="529.9067" y1="266.4922" y2="262.4922"/><line style="stroke:#181818;stroke-width:1.0;" x1="539.9067" x2="529.9067" y1="266.4922" y2="270.4922"/><line style="stroke:#181818;stroke-width:1.0;" x1="49.1519" x2="540.9067" y1="266.4922" y2="266.4922"/><text fill="#000000" font-family="sans-serif" font-size="13" lengthAdjust="spacing" textLength="191.8389" x="56.1519" y="246.2935">Fetch Subordinate Statement</text><text fill="#000000" font-family="sans-serif" font-size="13" lengthAdjust="spacing" textLength="112.0298" x="60.2842" y="261.4263">at fetch endpoint</text><line style="stroke:#181818;stroke-width:1.0;" x1="49.1519" x2="91.1519" y1="325.8906" y2="325.8906"/><line style="stroke:#181818;stroke-width:1.0;" x1="91.1519" x2="91.1519" y1="325.8906" y2="338.8906"/><line style="stroke:#181818;stroke-width:1.0;" x1="49.1519" x2="91.1519" y1="338.8906" y2="338.8906"/><line style="stroke:#181818;stroke-width:1.0;" x1="50.1519" x2="60.1519" y1="338.8906" y2="334.8906"/><line style="stroke:#181818;stroke-width:1.0;" x1="50.1519" x2="60.1519" y1="338.8906" y2="342.8906"/><text fill="#000000" font-family="sans-serif" font-size="13" lengthAdjust="spacing" textLength="209.9233" x="56.1519" y="290.5591">Validate the previous statement</text><text fill="#000000" font-family="sans-serif" font-size="13" lengthAdjust="spacing" textLength="211.8594" x="56.1519" y="305.6919">using the Federation Entity Keys</text><text fill="#000000" font-family="sans-serif" font-size="13" lengthAdjust="spacing" textLength="254.687" x="56.1519" y="320.8247">provided in the Subordinate Statement</text><line style="stroke:#181818;stroke-width:1.0;" x1="49.1519" x2="91.1519" y1="375.0234" y2="375.0234"/><line style="stroke:#181818;stroke-width:1.0;" x1="91.1519" x2="91.1519" y1="375.0234" y2="388.0234"/><line style="stroke:#181818;stroke-width:1.0;" x1="49.1519" x2="91.1519" y1="388.0234" y2="388.0234"/><line style="stroke:#181818;stroke-width:1.0;" x1="50.1519" x2="60.1519" y1="388.0234" y2="384.0234"/><line style="stroke:#181818;stroke-width:1.0;" x1="50.1519" x2="60.1519" y1="388.0234" y2="392.0234"/><text fill="#000000" font-family="sans-serif" font-size="13" lengthAdjust="spacing" textLength="132.1899" x="56.1519" y="369.9575">Validate Trust Chain</text><path d="M10,403.0234 L74.4429,403.0234 L74.4429,410.1563 L64.4429,420.1563 L10,420.1563 L10,403.0234 " fill="#EEEEEE" style="stroke:#000000;stroke-width:1.5;"/><rect fill="none" height="103.3984" style="stroke:#000000;stroke-width:1.5;" width="322.3662" x="10" y="403.0234"/><text fill="#000000" font-family="sans-serif" font-size="13" font-weight="bold" lengthAdjust="spacing" textLength="19.4429" x="25" y="416.0903">alt</text><text fill="#000000" font-family="sans-serif" font-size="11" font-weight="bold" lengthAdjust="spacing" textLength="237.9233" x="89.4429" y="415.2339">[If Trust Chain is Valid and Unexpired]</text><line style="stroke:#181818;stroke-width:1.0;" x1="49.1519" x2="91.1519" y1="441.2891" y2="441.2891"/><line style="stroke:#181818;stroke-width:1.0;" x1="91.1519" x2="91.1519" y1="441.2891" y2="454.2891"/><line style="stroke:#181818;stroke-width:1.0;" x1="49.1519" x2="91.1519" y1="454.2891" y2="454.2891"/><line style="stroke:#181818;stroke-width:1.0;" x1="50.1519" x2="60.1519" y1="454.2891" y2="450.2891"/><line style="stroke:#181818;stroke-width:1.0;" x1="50.1519" x2="60.1519" y1="454.2891" y2="458.2891"/><text fill="#000000" font-family="sans-serif" font-size="13" lengthAdjust="spacing" textLength="212.2783" x="56.1519" y="436.2231">Proceed with Federation Process</text><line style="stroke:#000000;stroke-width:1.0;stroke-dasharray:2.0,2.0;" x1="10" x2="332.3662" y1="463.2891" y2="463.2891"/><line style="stroke:#181818;stroke-width:1.0;" x1="49.1519" x2="91.1519" y1="485.4219" y2="485.4219"/><line style="stroke:#181818;stroke-width:1.0;" x1="91.1519" x2="91.1519" y1="485.4219" y2="498.4219"/><line style="stroke:#181818;stroke-width:1.0;" x1="49.1519" x2="91.1519" y1="498.4219" y2="498.4219"/><line style="stroke:#181818;stroke-width:1.0;" x1="50.1519" x2="60.1519" y1="498.4219" y2="494.4219"/><line style="stroke:#181818;stroke-width:1.0;" x1="50.1519" x2="60.1519" y1="498.4219" y2="502.4219"/><text fill="#000000" font-family="sans-serif" font-size="13" lengthAdjust="spacing" textLength="157.5488" x="56.1519" y="480.356">Abort Process with Error</text><line style="stroke:#181818;stroke-width:1.0;" x1="49.1519" x2="91.1519" y1="534.5547" y2="534.5547"/><line style="stroke:#181818;stroke-width:1.0;" x1="91.1519" x2="91.1519" y1="534.5547" y2="547.5547"/><line style="stroke:#181818;stroke-width:1.0;" x1="49.1519" x2="91.1519" y1="547.5547" y2="547.5547"/><line style="stroke:#181818;stroke-width:1.0;" x1="50.1519" x2="60.1519" y1="547.5547" y2="543.5547"/><line style="stroke:#181818;stroke-width:1.0;" x1="50.1519" x2="60.1519" y1="547.5547" y2="551.5547"/><text fill="#000000" font-family="sans-serif" font-size="13" lengthAdjust="spacing" textLength="100.0708" x="56.1519" y="529.4888">Applies Policies</text><line style="stroke:#181818;stroke-width:1.0;" x1="49.1519" x2="91.1519" y1="576.6875" y2="576.6875"/><line style="stroke:#181818;stroke-width:1.0;" x1="91.1519" x2="91.1519" y1="576.6875" y2="589.6875"/><line style="stroke:#181818;stroke-width:1.0;" x1="49.1519" x2="91.1519" y1="589.6875" y2="589.6875"/><line style="stroke:#181818;stroke-width:1.0;" x1="50.1519" x2="60.1519" y1="589.6875" y2="585.6875"/><line style="stroke:#181818;stroke-width:1.0;" x1="50.1519" x2="60.1519" y1="589.6875" y2="593.6875"/><text fill="#000000" font-family="sans-serif" font-size="13" lengthAdjust="spacing" textLength="169.3237" x="56.1519" y="571.6216">Derive CI's final metadata</text><line style="stroke:#181818;stroke-width:1.0;" x1="49.1519" x2="91.1519" y1="618.8203" y2="618.8203"/><line style="stroke:#181818;stroke-width:1.0;" x1="91.1519" x2="91.1519" y1="618.8203" y2="631.8203"/><line style="stroke:#181818;stroke-width:1.0;" x1="49.1519" x2="91.1519" y1="631.8203" y2="631.8203"/><line style="stroke:#181818;stroke-width:1.0;" x1="50.1519" x2="60.1519" y1="631.8203" y2="627.8203"/><line style="stroke:#181818;stroke-width:1.0;" x1="50.1519" x2="60.1519" y1="631.8203" y2="635.8203"/><text fill="#000000" font-family="sans-serif" font-size="13" lengthAdjust="spacing" textLength="301.1265" x="56.1519" y="613.7544">Get available Credentials allowed for issuance</text><!--SRC=[fPC_Rzj03CLtVGeYIoSdUuO0XgkaGfUWwPyb2wEZ8g9dte57sSctBot5YHr8KpK8qkdntUzHl8ngt796CVY3CP9L-MHfqm0MkDWe1H9ZZD2KCf1UdAcQUbGrOgHR2en6LpzrA0PhQVlawchoXjNDZNjUmorPs_lJbmAr-zehR99q_3me6YTv5423opt5kFehQIzNAPDmM7NECKc09EJ4OfKp7cod7QxX1zcWCcjxXd7Kro-cs3hgO8vwgFdchWKwJTk9y9D7J2b3bnG8FSDvMGL-dMpIrCUi_nrpqVbXU4eQMBphy61-t_glcgoxKR1aSUp0RumS3jNM4sIb7QUXGFcm6WhBy_ZrzWFiBT1tUYsFaZNjE500bb4torGvoEmlU0UOXcRJ8tkVCVfaTQThm6NI0ag0Nq8lcNqobtBTQsh9cVPi_Idvk5vAHR7GKktQ-Used1ngrQIB6TOvHwO2zodwiQ0of_bAoZkQXghpvaJOag4dnpdrdR_Z3ZdYK_IYzoDOm0Lfxy4EGyX-7b5Q-WS0]--></g></svg>