<?xml version="1.0" encoding="us-ascii" standalone="no"?><svg xmlns="http://www.w3.org/2000/svg" xmlns:xlink="http://www.w3.org/1999/xlink" contentStyleType="text/css" height="902px" preserveAspectRatio="none" style="width:1427px;height:902px;background:#FFFFFF;" version="1.1" viewBox="0 0 1427 902" width="1427px" zoomAndPan="magnify"><defs/><g><rect fill="#FFFFFF" height="749.9219" style="stroke:#181818;stroke-width:1.0;" width="10" x="267.5" y="127.5625"/><rect fill="#FFFFFF" height="71.2656" style="stroke:#181818;stroke-width:1.0;" width="10" x="1168" y="274.0938"/><rect fill="#FFFFFF" height="288.0625" style="stroke:#181818;stroke-width:1.0;" width="10" x="1168" y="589.4219"/><line style="stroke:#181818;stroke-width:0.5;stroke-dasharray:5.0,5.0;" x1="23" x2="23" y1="81.2969" y2="895.4844"/><line style="stroke:#181818;stroke-width:0.5;stroke-dasharray:5.0,5.0;" x1="272" x2="272" y1="81.2969" y2="895.4844"/><line style="stroke:#181818;stroke-width:0.5;stroke-dasharray:5.0,5.0;" x1="974" x2="974" y1="81.2969" y2="895.4844"/><line style="stroke:#181818;stroke-width:0.5;stroke-dasharray:5.0,5.0;" x1="1173" x2="1173" y1="81.2969" y2="895.4844"/><text fill="#000000" font-family="sans-serif" font-size="14" lengthAdjust="spacing" textLength="31" x="5" y="77.9951">User</text><ellipse cx="23.5" cy="13.5" fill="#E2E2F0" rx="8" ry="8" style="stroke:#181818;stroke-width:0.5;"/><path d="M23.5,21.5 L23.5,48.5 M10.5,29.5 L36.5,29.5 M23.5,48.5 L10.5,63.5 M23.5,48.5 L36.5,63.5 " fill="none" style="stroke:#181818;stroke-width:0.5;"/><rect fill="#E2E2F0" height="30.2969" rx="2.5" ry="2.5" style="stroke:#181818;stroke-width:0.5;" width="125" x="210" y="50"/><text fill="#000000" font-family="sans-serif" font-size="14" lengthAdjust="spacing" textLength="111" x="217" y="69.9951">Wallet Instance</text><rect fill="#00FF7F" height="30.2969" rx="2.5" ry="2.5" style="stroke:#181818;stroke-width:0.5;" width="187" x="881" y="50"/><text fill="#000000" font-family="sans-serif" font-size="14" lengthAdjust="spacing" textLength="173" x="888" y="69.9951">Device Integrity Service</text><rect fill="#E2E2F0" height="30.2969" rx="2.5" ry="2.5" style="stroke:#181818;stroke-width:0.5;" width="190" x="1078" y="50"/><text fill="#000000" font-family="sans-serif" font-size="14" lengthAdjust="spacing" textLength="176" x="1085" y="69.9951">Wallet Provider backend</text><rect fill="#FFFFFF" height="749.9219" style="stroke:#181818;stroke-width:1.0;" width="10" x="267.5" y="127.5625"/><rect fill="#FFFFFF" height="71.2656" style="stroke:#181818;stroke-width:1.0;" width="10" x="1168" y="274.0938"/><rect fill="#FFFFFF" height="288.0625" style="stroke:#181818;stroke-width:1.0;" width="10" x="1168" y="589.4219"/><polygon fill="#181818" points="255.5,123.5625,265.5,127.5625,255.5,131.5625,259.5,127.5625" style="stroke:#181818;stroke-width:1.0;"/><line style="stroke:#181818;stroke-width:1.0;" x1="23.5" x2="261.5" y1="127.5625" y2="127.5625"/><text fill="#000000" font-family="sans-serif" font-size="13" font-weight="bold" lengthAdjust="spacing" textLength="9" x="30.5" y="114.9302">1</text><text fill="#000000" font-family="sans-serif" font-size="13" lengthAdjust="spacing" textLength="191" x="43.5" y="107.3638">Request a new operation that</text><text fill="#000000" font-family="sans-serif" font-size="13" lengthAdjust="spacing" textLength="64" x="43.5" y="122.4966">requires a</text><text fill="#000000" font-family="sans-serif" font-size="13" font-weight="bold" lengthAdjust="spacing" textLength="144" x="111.5" y="122.4966">Wallet Attestation</text><line style="stroke:#181818;stroke-width:1.0;" x1="277.5" x2="319.5" y1="156.6953" y2="156.6953"/><line style="stroke:#181818;stroke-width:1.0;" x1="319.5" x2="319.5" y1="156.6953" y2="169.6953"/><line style="stroke:#181818;stroke-width:1.0;" x1="278.5" x2="319.5" y1="169.6953" y2="169.6953"/><polygon fill="#181818" points="288.5,165.6953,278.5,169.6953,288.5,173.6953,284.5,169.6953" style="stroke:#181818;stroke-width:1.0;"/><text fill="#000000" font-family="sans-serif" font-size="13" font-weight="bold" lengthAdjust="spacing" textLength="9" x="284.5" y="151.6294">2</text><text fill="#000000" font-family="sans-serif" font-size="13" lengthAdjust="spacing" textLength="51" x="297.5" y="151.6294">Check if</text><text fill="#000000" font-family="sans-serif" font-size="13" font-weight="bold" lengthAdjust="spacing" textLength="166" x="352.5" y="151.6294">Wallet Hardware Keys</text><text fill="#000000" font-family="sans-serif" font-size="13" lengthAdjust="spacing" textLength="71" x="522.5" y="151.6294">is available</text><line style="stroke:#181818;stroke-width:1.0;" x1="277.5" x2="319.5" y1="198.8281" y2="198.8281"/><line style="stroke:#181818;stroke-width:1.0;" x1="319.5" x2="319.5" y1="198.8281" y2="211.8281"/><line style="stroke:#181818;stroke-width:1.0;" x1="278.5" x2="319.5" y1="211.8281" y2="211.8281"/><polygon fill="#181818" points="288.5,207.8281,278.5,211.8281,288.5,215.8281,284.5,211.8281" style="stroke:#181818;stroke-width:1.0;"/><text fill="#000000" font-family="sans-serif" font-size="13" font-weight="bold" lengthAdjust="spacing" textLength="8" x="284.5" y="193.7622">3</text><text fill="#000000" font-family="sans-serif" font-size="13" lengthAdjust="spacing" textLength="215" x="296.5" y="193.7622">Generates an ephemeral key pair</text><text fill="#000000" font-family="sans-serif" font-size="13" font-weight="bold" lengthAdjust="spacing" textLength="29" x="515.5" y="193.7622">JWK</text><rect fill="#90EE90" height="23" style="stroke:#181818;stroke-width:0.5;" width="1053" x="196" y="224.8281"/><text fill="#000000" font-family="sans-serif" font-size="13" lengthAdjust="spacing" textLength="456" x="494.5" y="240.895">Check Wallet Provider is part of the Federation and obtain its metadata</text><polygon fill="#181818" points="1156,270.0938,1166,274.0938,1156,278.0938,1160,274.0938" style="stroke:#181818;stroke-width:1.0;"/><line style="stroke:#181818;stroke-width:1.0;" x1="277.5" x2="1162" y1="274.0938" y2="274.0938"/><text fill="#000000" font-family="sans-serif" font-size="13" font-weight="bold" lengthAdjust="spacing" textLength="9" x="284.5" y="269.0278">4</text><text fill="#000000" font-family="sans-serif" font-size="13" lengthAdjust="spacing" textLength="23" x="297.5" y="269.0278">Get</text><text fill="#000000" font-family="sans-serif" font-size="13" font-weight="bold" lengthAdjust="spacing" textLength="70" x="324.5" y="269.0278">challenge</text><line style="stroke:#181818;stroke-width:1.0;" x1="1178" x2="1220" y1="303.2266" y2="303.2266"/><line style="stroke:#181818;stroke-width:1.0;" x1="1220" x2="1220" y1="303.2266" y2="316.2266"/><line style="stroke:#181818;stroke-width:1.0;" x1="1179" x2="1220" y1="316.2266" y2="316.2266"/><polygon fill="#181818" points="1189,312.2266,1179,316.2266,1189,320.2266,1185,316.2266" style="stroke:#181818;stroke-width:1.0;"/><text fill="#000000" font-family="sans-serif" font-size="13" font-weight="bold" lengthAdjust="spacing" textLength="9" x="1185" y="298.1606">5</text><text fill="#000000" font-family="sans-serif" font-size="13" lengthAdjust="spacing" textLength="148" x="1198" y="298.1606">Generate one time use</text><text fill="#000000" font-family="sans-serif" font-size="13" font-weight="bold" lengthAdjust="spacing" textLength="70" x="1350" y="298.1606">challenge</text><polygon fill="#181818" points="288.5,341.3594,278.5,345.3594,288.5,349.3594,284.5,345.3594" style="stroke:#181818;stroke-width:1.0;"/><line style="stroke:#181818;stroke-width:1.0;stroke-dasharray:2.0,2.0;" x1="282.5" x2="1172" y1="345.3594" y2="345.3594"/><text fill="#000000" font-family="sans-serif" font-size="13" font-weight="bold" lengthAdjust="spacing" textLength="9" x="294.5" y="340.2935">6</text><text fill="#000000" font-family="sans-serif" font-size="13" font-weight="bold" lengthAdjust="spacing" textLength="70" x="307.5" y="340.2935">challenge</text><line style="stroke:#181818;stroke-width:1.0;" x1="277.5" x2="319.5" y1="374.4922" y2="374.4922"/><line style="stroke:#181818;stroke-width:1.0;" x1="319.5" x2="319.5" y1="374.4922" y2="387.4922"/><line style="stroke:#181818;stroke-width:1.0;" x1="278.5" x2="319.5" y1="387.4922" y2="387.4922"/><polygon fill="#181818" points="288.5,383.4922,278.5,387.4922,288.5,391.4922,284.5,387.4922" style="stroke:#181818;stroke-width:1.0;"/><text fill="#000000" font-family="sans-serif" font-size="13" font-weight="bold" lengthAdjust="spacing" textLength="9" x="284.5" y="369.4263">7</text><text fill="#000000" font-family="sans-serif" font-size="13" lengthAdjust="spacing" textLength="60" x="297.5" y="369.4263">Generate</text><text fill="#000000" font-family="sans-serif" font-size="13" font-weight="bold" lengthAdjust="spacing" textLength="126" x="361.5" y="369.4263">client_data_hash</text><text fill="#000000" font-family="sans-serif" font-size="13" lengthAdjust="spacing" textLength="213" x="491.5" y="369.4263">as SHA256(challenge, public_jwk)</text><line style="stroke:#181818;stroke-width:1.0;" x1="277.5" x2="319.5" y1="431.7578" y2="431.7578"/><line style="stroke:#181818;stroke-width:1.0;" x1="319.5" x2="319.5" y1="431.7578" y2="444.7578"/><line style="stroke:#181818;stroke-width:1.0;" x1="278.5" x2="319.5" y1="444.7578" y2="444.7578"/><polygon fill="#181818" points="288.5,440.7578,278.5,444.7578,288.5,448.7578,284.5,444.7578" style="stroke:#181818;stroke-width:1.0;"/><text fill="#000000" font-family="sans-serif" font-size="13" font-weight="bold" lengthAdjust="spacing" textLength="9" x="284.5" y="419.1255">8</text><text fill="#000000" font-family="sans-serif" font-size="13" lengthAdjust="spacing" textLength="60" x="297.5" y="411.5591">Generate</text><text fill="#000000" font-family="sans-serif" font-size="13" font-weight="bold" lengthAdjust="spacing" textLength="158" x="361.5" y="411.5591">Wallet Hardware Key</text><text fill="#000000" font-family="sans-serif" font-size="13" lengthAdjust="spacing" textLength="24" x="523.5" y="411.5591">PoP</text><text fill="#000000" font-family="sans-serif" font-size="13" font-weight="bold" lengthAdjust="spacing" textLength="150" x="297.5" y="426.6919">hardware_signature</text><text fill="#000000" font-family="sans-serif" font-size="13" lengthAdjust="spacing" textLength="330" x="451.5" y="426.6919">= sign(client_data_hash, wallet_hardware_key_tag)</text><polygon fill="#181818" points="962.5,469.8906,972.5,473.8906,962.5,477.8906,966.5,473.8906" style="stroke:#181818;stroke-width:1.0;"/><line style="stroke:#181818;stroke-width:1.0;" x1="277.5" x2="968.5" y1="473.8906" y2="473.8906"/><text fill="#000000" font-family="sans-serif" font-size="13" font-weight="bold" lengthAdjust="spacing" textLength="9" x="284.5" y="468.8247">9</text><text fill="#000000" font-family="sans-serif" font-size="13" lengthAdjust="spacing" textLength="289" x="297.5" y="468.8247">generateIntegrityAssertion(client_data_hash)</text><polygon fill="#181818" points="288.5,499.0234,278.5,503.0234,288.5,507.0234,284.5,503.0234" style="stroke:#181818;stroke-width:1.0;"/><line style="stroke:#181818;stroke-width:1.0;stroke-dasharray:2.0,2.0;" x1="282.5" x2="973.5" y1="503.0234" y2="503.0234"/><text fill="#000000" font-family="sans-serif" font-size="13" font-weight="bold" lengthAdjust="spacing" textLength="19" x="294.5" y="497.9575">10</text><text fill="#000000" font-family="sans-serif" font-size="13" font-weight="bold" lengthAdjust="spacing" textLength="145" x="317.5" y="497.9575">integrity_assertion</text><line style="stroke:#181818;stroke-width:1.0;" x1="277.5" x2="319.5" y1="547.2891" y2="547.2891"/><line style="stroke:#181818;stroke-width:1.0;" x1="319.5" x2="319.5" y1="547.2891" y2="560.2891"/><line style="stroke:#181818;stroke-width:1.0;" x1="278.5" x2="319.5" y1="560.2891" y2="560.2891"/><polygon fill="#181818" points="288.5,556.2891,278.5,560.2891,288.5,564.2891,284.5,560.2891" style="stroke:#181818;stroke-width:1.0;"/><text fill="#000000" font-family="sans-serif" font-size="13" font-weight="bold" lengthAdjust="spacing" textLength="18" x="284.5" y="534.6567">11</text><text fill="#000000" font-family="sans-serif" font-size="13" lengthAdjust="spacing" textLength="267" x="306.5" y="527.0903">Generate Wallet Attestation Request with</text><text fill="#000000" font-family="sans-serif" font-size="13" font-weight="bold" lengthAdjust="spacing" textLength="145" x="577.5" y="527.0903">integrity_assertion</text><text fill="#000000" font-family="sans-serif" font-size="13" lengthAdjust="spacing" textLength="4" x="722.5" y="527.0903">,</text><text fill="#000000" font-family="sans-serif" font-size="13" font-weight="bold" lengthAdjust="spacing" textLength="150" x="730.5" y="527.0903">hardware_signature</text><text fill="#000000" font-family="sans-serif" font-size="13" lengthAdjust="spacing" textLength="4" x="880.5" y="527.0903">,</text><text fill="#000000" font-family="sans-serif" font-size="13" font-weight="bold" lengthAdjust="spacing" textLength="70" x="888.5" y="527.0903">challenge</text><text fill="#000000" font-family="sans-serif" font-size="13" lengthAdjust="spacing" textLength="4" x="958.5" y="527.0903">,</text><text fill="#000000" font-family="sans-serif" font-size="13" font-weight="bold" lengthAdjust="spacing" textLength="192" x="306.5" y="542.2231">Wallet Hardware Key Tag</text><text fill="#000000" font-family="sans-serif" font-size="13" lengthAdjust="spacing" textLength="4" x="498.5" y="542.2231">,</text><text fill="#000000" font-family="sans-serif" font-size="13" font-weight="bold" lengthAdjust="spacing" textLength="75" x="506.5" y="542.2231">public_jwk</text><text fill="#000000" font-family="sans-serif" font-size="13" lengthAdjust="spacing" textLength="146" x="585.5" y="542.2231">signed with ephemeral</text><text fill="#000000" font-family="sans-serif" font-size="13" font-weight="bold" lengthAdjust="spacing" textLength="29" x="735.5" y="542.2231">JWK</text><polygon fill="#181818" points="1156,585.4219,1166,589.4219,1156,593.4219,1160,589.4219" style="stroke:#181818;stroke-width:1.0;"/><line style="stroke:#181818;stroke-width:1.0;" x1="277.5" x2="1162" y1="589.4219" y2="589.4219"/><text fill="#000000" font-family="sans-serif" font-size="13" font-weight="bold" lengthAdjust="spacing" textLength="18" x="284.5" y="584.356">12</text><text fill="#000000" font-family="sans-serif" font-size="13" lengthAdjust="spacing" textLength="208" x="306.5" y="584.356">Send Wallet Attestation Request</text><rect fill="#90EE90" height="38" style="stroke:#181818;stroke-width:0.5;" width="387" x="979" y="602.4219"/><text fill="#000000" font-family="sans-serif" font-size="13" lengthAdjust="spacing" textLength="292" x="983" y="618.4888">Check if Wallet Instance is initialized and valid</text><text fill="#000000" font-family="sans-serif" font-size="13" lengthAdjust="spacing" textLength="225" x="983" y="633.6216">using Wallet Hardware Key tag and</text><text fill="#000000" font-family="sans-serif" font-size="13" font-weight="bold" lengthAdjust="spacing" textLength="150" x="1212" y="633.6216">hardware_signature</text><line style="stroke:#181818;stroke-width:1.0;" x1="1178" x2="1220" y1="666.8203" y2="666.8203"/><line style="stroke:#181818;stroke-width:1.0;" x1="1220" x2="1220" y1="666.8203" y2="679.8203"/><line style="stroke:#181818;stroke-width:1.0;" x1="1179" x2="1220" y1="679.8203" y2="679.8203"/><polygon fill="#181818" points="1189,675.8203,1179,679.8203,1189,683.8203,1185,679.8203" style="stroke:#181818;stroke-width:1.0;"/><text fill="#000000" font-family="sans-serif" font-size="13" font-weight="bold" lengthAdjust="spacing" textLength="17" x="1185" y="661.7544">13</text><text fill="#000000" font-family="sans-serif" font-size="13" lengthAdjust="spacing" textLength="52" x="1206" y="661.7544">Validate</text><text fill="#000000" font-family="sans-serif" font-size="13" font-weight="bold" lengthAdjust="spacing" textLength="70" x="1262" y="661.7544">challenge</text><line style="stroke:#181818;stroke-width:1.0;" x1="1178" x2="1220" y1="708.9531" y2="708.9531"/><line style="stroke:#181818;stroke-width:1.0;" x1="1220" x2="1220" y1="708.9531" y2="721.9531"/><line style="stroke:#181818;stroke-width:1.0;" x1="1179" x2="1220" y1="721.9531" y2="721.9531"/><polygon fill="#181818" points="1189,717.9531,1179,721.9531,1189,725.9531,1185,721.9531" style="stroke:#181818;stroke-width:1.0;"/><text fill="#000000" font-family="sans-serif" font-size="13" font-weight="bold" lengthAdjust="spacing" textLength="18" x="1185" y="703.8872">14</text><text fill="#000000" font-family="sans-serif" font-size="13" lengthAdjust="spacing" textLength="52" x="1207" y="703.8872">Validate</text><text fill="#000000" font-family="sans-serif" font-size="13" font-weight="bold" lengthAdjust="spacing" textLength="145" x="1263" y="703.8872">integrity_assertion</text><line style="stroke:#181818;stroke-width:1.0;" x1="1178" x2="1220" y1="751.0859" y2="751.0859"/><line style="stroke:#181818;stroke-width:1.0;" x1="1220" x2="1220" y1="751.0859" y2="764.0859"/><line style="stroke:#181818;stroke-width:1.0;" x1="1179" x2="1220" y1="764.0859" y2="764.0859"/><polygon fill="#181818" points="1189,760.0859,1179,764.0859,1189,768.0859,1185,764.0859" style="stroke:#181818;stroke-width:1.0;"/><text fill="#000000" font-family="sans-serif" font-size="13" font-weight="bold" lengthAdjust="spacing" textLength="18" x="1185" y="746.02">15</text><text fill="#000000" font-family="sans-serif" font-size="13" lengthAdjust="spacing" textLength="52" x="1207" y="746.02">Validate</text><text fill="#000000" font-family="sans-serif" font-size="13" font-weight="bold" lengthAdjust="spacing" textLength="150" x="1263" y="746.02">hardware_signature</text><line style="stroke:#181818;stroke-width:1.0;" x1="1178" x2="1220" y1="793.2188" y2="793.2188"/><line style="stroke:#181818;stroke-width:1.0;" x1="1220" x2="1220" y1="793.2188" y2="806.2188"/><line style="stroke:#181818;stroke-width:1.0;" x1="1179" x2="1220" y1="806.2188" y2="806.2188"/><polygon fill="#181818" points="1189,802.2188,1179,806.2188,1189,810.2188,1185,806.2188" style="stroke:#181818;stroke-width:1.0;"/><text fill="#000000" font-family="sans-serif" font-size="13" font-weight="bold" lengthAdjust="spacing" textLength="18" x="1185" y="788.1528">16</text><text fill="#000000" font-family="sans-serif" font-size="13" lengthAdjust="spacing" textLength="52" x="1207" y="788.1528">Validate</text><text fill="#000000" font-family="sans-serif" font-size="13" font-weight="bold" lengthAdjust="spacing" textLength="29" x="1263" y="788.1528">JWK</text><text fill="#000000" font-family="sans-serif" font-size="13" lengthAdjust="spacing" textLength="24" x="1296" y="788.1528">PoP</text><line style="stroke:#181818;stroke-width:1.0;" x1="1178" x2="1220" y1="835.3516" y2="835.3516"/><line style="stroke:#181818;stroke-width:1.0;" x1="1220" x2="1220" y1="835.3516" y2="848.3516"/><line style="stroke:#181818;stroke-width:1.0;" x1="1179" x2="1220" y1="848.3516" y2="848.3516"/><polygon fill="#181818" points="1189,844.3516,1179,848.3516,1189,852.3516,1185,848.3516" style="stroke:#181818;stroke-width:1.0;"/><text fill="#000000" font-family="sans-serif" font-size="13" font-weight="bold" lengthAdjust="spacing" textLength="18" x="1185" y="830.2856">17</text><text fill="#000000" font-family="sans-serif" font-size="13" lengthAdjust="spacing" textLength="43" x="1207" y="830.2856">Create</text><text fill="#000000" font-family="sans-serif" font-size="13" font-weight="bold" lengthAdjust="spacing" textLength="144" x="1254" y="830.2856">Wallet Attestation</text><polygon fill="#181818" points="283.5,873.4844,273.5,877.4844,283.5,881.4844,279.5,877.4844" style="stroke:#181818;stroke-width:1.0;"/><line style="stroke:#181818;stroke-width:1.0;stroke-dasharray:2.0,2.0;" x1="277.5" x2="1172" y1="877.4844" y2="877.4844"/><text fill="#000000" font-family="sans-serif" font-size="13" font-weight="bold" lengthAdjust="spacing" textLength="18" x="289.5" y="872.4185">18</text><text fill="#000000" font-family="sans-serif" font-size="13" font-weight="bold" lengthAdjust="spacing" textLength="144" x="311.5" y="872.4185">Wallet Attestation</text><!--SRC=[VLJ1Rjim3BthAuZqi3R8BWEsGu4DABgkxJeCGTEjbm86RRCs5qVoP2PPzlMZ72UEKtK70vPDFZu-FWgNuknoaP8t9US4pyv9wlwODpLwuOnhj68CPk8yZ7uqv4U03IprnHn4mEWHgue4RcqZQ3Dgex2kOHZrcLQSaKO95Pvb0pFouSis7AM1awRsR8l24zbeXQbtAoNg8SLiJZPlKzDiRem9hDv-qghdS4-_bzG885XQWwl9ex2p82NAa_NwbprfIHYFEzmB4KreeyRZq32lK2ZqOFJfO2zBokR0pttQ3VfyZPxWZZRDU0oie2la2jEAp47cDTd08TIqG7L92prMCASDrCXU0Ry-tcbXuwtJicwb7MhYH3k3as-trpSFr_TNLz_Dbi6n5berQ0NkMJia-4Bvhc6qERXKa2smohiWmHm5ZIhNLZ8TIQqJI8eIoSg0RWiwr24ehCy-SDiDE4iWlA3WYAFK4DqrF_oHqm3Ln6GAAHMJbIImJKfiIXLN9psxkNZt_iFf7cy2zJAjE4j-hUTdho15HgLWKpTzqb6NtTUauSAYBBrIX8yGJgV752QmRg6IVPBEBn4izfNLmkTGTANtDhzer9bX72yGpqn8wNNYNKg2knob4-thfM_thb-pbA-1JI3UysGufKdG9Y8SF62n3UvrLuO1YF9juTxTErFt3fkfx_x3VEYtWrNGuokheCjuTFU4RM3BmbZnNoKLLc2bxxbU47grGAmhdM4R5zUctvP-1Nu6nCwfHwv_4H0TH3mqMZuQsKeRN7pm-zBJmFB3IssmaT68uzKyE6lQFm00]--></g></svg>