<?xml version="1.0" encoding="UTF-8" standalone="no"?>
<svg
   height="1200"
   width="1200"
   class="pyqrcode"
   version="1.1"
   id="svg6"
   sodipodi:docname="verifier_qr_code.svg"
   inkscape:version="1.1.2 (0a00cf5339, 2022-02-04)"
   xmlns:inkscape="http://www.inkscape.org/namespaces/inkscape"
   xmlns:sodipodi="http://sodipodi.sourceforge.net/DTD/sodipodi-0.dtd"
   xmlns="http://www.w3.org/2000/svg"
   xmlns:svg="http://www.w3.org/2000/svg">
  <defs
     id="defs10" />
  <sodipodi:namedview
     id="namedview8"
     pagecolor="#ffffff"
     bordercolor="#666666"
     borderopacity="1.0"
     inkscape:pageshadow="2"
     inkscape:pageopacity="0.0"
     inkscape:pagecheckerboard="0"
     showgrid="false"
     inkscape:zoom="0.078944113"
     inkscape:cx="-1051.3767"
     inkscape:cy="3185.798"
     inkscape:window-width="1920"
     inkscape:window-height="990"
     inkscape:window-x="0"
     inkscape:window-y="28"
     inkscape:window-maximized="1"
     inkscape:current-layer="svg6"
     width="7299px" />
  <path
     stroke="#000000"
     class="pyqrline"
     d="M 63.049146,96.656771 H 173.32605 m 15.7539,0 h 15.7538 m 15.7539,0 h 15.7538 m 15.7539,0 h 15.7538 m 31.5077,0 h 31.5077 m 15.7539,0 h 15.7538 m 31.5077,0 h 15.7538 m 47.2616,0 h 15.7538 m 15.7539,0 h 63.0154 m 63.0153,0 h 78.7692 m 15.7539,0 h 31.5077 m 15.7538,0 h 15.7539 m 31.5077,0 h 47.2615 m 15.7539,0 h 15.7538 m 47.2615,0 h 15.7539 m 31.5077,0 H 1087.0491 M 63.049146,112.41057 h 15.7539 m 78.769204,0 h 15.7538 m 15.7539,0 h 15.7538 m 15.7539,0 h 15.7538 m 15.7539,0 h 31.5077 m 31.5077,0 h 15.7538 m 15.7539,0 h 63.0153 m 47.2616,0 h 31.5077 m 78.7692,0 h 47.2615 m 15.7539,0 h 15.7538 m 31.5077,0 h 15.7538 m 31.5077,0 h 15.7539 m 15.7538,0 h 47.2616 m 47.2615,0 h 63.0154 m 31.5077,0 h 15.7538 m 15.7539,0 h 15.7538 m 78.76925,0 h 15.7538 M 63.049146,128.16447 h 15.7539 m 15.7538,0 h 47.261604 m 15.7538,0 h 15.7538 m 15.7539,0 h 15.7538 m 15.7539,0 h 47.2615 m 47.2616,0 h 78.7692 m 15.7538,0 h 31.5077 m 47.2616,0 h 47.2615 m 31.5077,0 h 15.7538 m 15.7539,0 h 47.2615 m 31.5077,0 h 15.7538 m 78.7693,0 h 15.7538 m 78.7693,0 h 31.5076 m 15.7539,0 h 15.7538 m 15.7539,0 h 15.7538 m 15.7539,0 h 15.7538 m 15.75385,0 h 47.2615 m 15.7539,0 h 15.7538 M 63.049146,143.91827 h 15.7539 m 15.7538,0 h 47.261604 m 15.7538,0 h 15.7538 m 63.0154,0 h 15.7539 m 47.2615,0 h 31.5077 m 31.5077,0 h 78.7692 m 31.5077,0 h 15.7539 m 15.7538,0 h 15.7539 m 15.7538,0 h 31.5077 m 47.2615,0 h 15.7539 m 47.2615,0 h 31.5077 m 15.7538,0 h 15.7539 m 15.7538,0 h 31.5077 m 31.5077,0 h 31.5077 m 47.2615,0 h 47.2616 m 31.5077,0 h 15.7538 m 15.75385,0 h 47.2615 m 15.7539,0 h 15.7538 M 63.049146,159.67217 h 15.7539 m 15.7538,0 h 47.261604 m 15.7538,0 h 15.7538 m 63.0154,0 h 15.7539 m 15.7538,0 h 15.7539 m 47.2615,0 h 15.7539 m 47.2615,0 h 63.0154 m 15.7538,0 h 15.7539 m 15.7538,0 h 15.7539 m 15.7538,0 h 78.7692 m 78.7692,0 h 78.7693 m 31.5077,0 h 15.7538 m 15.7539,0 h 15.7538 m 47.2615,0 h 15.7539 m 31.5077,0 h 15.7538 m 15.7539,0 h 15.7538 m 15.75385,0 h 47.2615 m 15.7539,0 h 15.7538 M 63.049146,175.42597 h 15.7539 m 78.769204,0 h 15.7538 m 15.7539,0 h 15.7538 m 15.7539,0 h 31.5077 m 15.7538,0 h 47.2616 m 47.2615,0 h 47.2615 m 31.5077,0 h 15.7539 m 31.5077,0 h 15.7538 m 31.5077,0 h 15.7539 m 47.2615,0 h 15.7538 m 31.5077,0 h 63.0154 m 15.7538,0 h 31.5077 m 15.7539,0 h 31.5077 m 15.7538,0 h 47.2616 m 47.2615,0 h 15.7538 m 47.2616,0 h 15.7538 m 78.76925,0 h 15.7538 M 63.049146,191.17987 H 173.32605 m 15.7539,0 h 15.7538 m 15.7539,0 h 15.7538 m 15.7539,0 h 15.7538 m 15.7539,0 h 15.7538 m 15.7539,0 h 15.7538 m 15.7539,0 h 15.7538 m 15.7538,0 h 15.7539 m 15.7538,0 h 15.7539 m 15.7538,0 h 15.7539 m 15.7538,0 h 15.7539 m 15.7538,0 h 15.7539 m 15.7538,0 h 15.7539 m 15.7538,0 h 15.7538 m 15.7539,0 h 15.7538 m 15.7539,0 h 15.7538 m 15.7539,0 h 15.7538 m 15.7538,0 h 15.7539 m 15.7538,0 h 15.7539 m 15.7538,0 h 15.7539 m 15.7538,0 h 15.7539 m 15.7538,0 h 15.7539 m 15.7538,0 h 15.7539 m 15.7538,0 h 15.7538 m 15.7539,0 h 15.7538 m 15.7539,0 h 15.7538 m 15.7539,0 h 110.27685 m -897.96915,15.7538 h 31.5077 m 31.5077,0 h 47.2615 m 31.5077,0 h 15.7539 m 15.7538,0 h 15.7538 m 15.7539,0 h 47.2615 m 15.7539,0 h 15.7538 m 15.7539,0 h 15.7538 m 31.5077,0 h 15.7539 m 47.2615,0 h 15.7538 m 47.2616,0 h 15.7538 m 15.7538,0 h 15.7539 m 31.5077,0 h 15.7538 m 15.7539,0 h 15.7538 m 15.7539,0 h 15.7538 m 63.0154,0 h 47.2615 m 15.7539,0 h 15.7538 m -866.461504,15.7539 h 47.261604 m 15.7538,0 h 15.7538 m 15.7539,0 h 15.7538 m 15.7539,0 h 15.7538 m 15.7539,0 h 78.7692 m 15.7539,0 h 31.5076 m 15.7539,0 h 15.7538 m 31.5077,0 h 15.7539 m 15.7538,0 h 15.7539 m 31.5077,0 h 94.523 m 15.7539,0 h 15.7538 m 15.7539,0 h 47.2615 m 15.7538,0 h 15.7539 m 47.2615,0 h 78.7693 m 31.5076,0 h 110.27695 m 31.5077,0 h 47.2615 m -992.492254,15.7538 h 15.753904 m 15.7538,0 h 31.5077 m 31.5077,0 h 15.7538 m 15.7539,0 h 31.5077 m 31.5077,0 h 31.5077 m 15.7538,0 h 31.5077 m 47.2615,0 h 47.2616 m 31.5077,0 h 47.2615 m 15.7539,0 h 31.5076 m 31.5077,0 h 31.5077 m 47.2615,0 h 15.7539 m 15.7538,0 h 31.5077 m 47.2616,0 h 47.2615 m 15.7539,0 h 15.7538 m 15.7538,0 h 47.2616 m 15.7538,0 h 15.7539 m 63.01535,0 h 15.7538 m 15.7539,0 h 15.7538 M 63.049146,254.19517 h 31.5077 m 15.753904,0 h 15.7538 m 31.5077,0 h 31.5077 m 31.5077,0 h 15.7538 m 47.2616,0 h 15.7538 m 31.5077,0 h 15.7539 m 47.2615,0 h 78.7692 m 15.7539,0 h 15.7538 m 15.7539,0 h 15.7538 m 31.5077,0 h 63.0154 m 15.7538,0 h 31.5077 m 15.7538,0 h 15.7539 m 15.7538,0 h 15.7539 m 47.2615,0 h 15.7539 m 15.7538,0 h 15.7539 m 110.2769,0 h 94.52305 m 15.7538,0 h 15.7539 M 63.049146,269.94907 h 15.7539 m 15.7538,0 h 15.753904 m 15.7538,0 h 31.5077 m 63.0154,0 h 31.5077 m 15.7538,0 h 31.5077 m 47.2616,0 h 31.5076 m 31.5077,0 h 15.7539 m 15.7538,0 h 15.7539 m 31.5077,0 h 15.7538 m 15.7539,0 h 47.2615 m 15.7538,0 h 15.7539 m 31.5077,0 h 31.5077 m 31.5076,0 h 31.5077 m 31.5077,0 h 31.5077 m 15.7539,0 h 15.7538 m 63.0154,0 h 15.7538 m 31.5077,0 h 15.7539 m 15.7538,0 h 15.7539 m 15.7538,0 h 15.75385 m 15.7538,0 h 15.7539 m 15.7538,0 h 15.7539 m -992.492254,15.7538 h 15.7538 m 15.753904,0 h 78.7692 m 15.7538,0 h 15.7539 m 63.0154,0 h 15.7538 m 15.7539,0 h 78.7692 m 31.5077,0 h 31.5077 m 31.5077,0 h 47.2615 m 15.7539,0 h 15.7538 m 15.7538,0 h 31.5077 m 31.5077,0 h 15.7539 m 15.7538,0 h 15.7538 m 31.5077,0 h 31.5077 m 47.2616,0 h 47.2615 m 47.2615,0 h 31.5077 m 15.7539,0 h 78.76915 m 15.7539,0 h 15.7538 m -976.738354,15.7539 h 15.7538 m 47.261604,0 h 15.7538 m 15.7538,0 h 15.7539 m 31.5077,0 h 31.5077 m 15.7538,0 h 15.7539 m 31.5077,0 h 15.7538 m 31.5077,0 h 15.7538 m 126.0308,0 h 47.2616 m 31.5076,0 h 31.5077 m 63.0154,0 h 31.5077 m 15.7538,0 h 47.2616 m 31.5077,0 h 31.5077 m 31.5077,0 h 63.0153 m 63.0154,0 h 31.50765 m 47.2616,0 h 15.7538 M 63.049146,317.21057 h 15.7539 m 15.7538,0 h 15.753904 m 47.2615,0 h 15.7538 m 15.7539,0 h 63.0154 m 15.7538,0 h 31.5077 m 15.7539,0 h 15.7538 m 94.5231,0 h 15.7538 m 15.7539,0 h 15.7538 m 15.7539,0 h 31.5077 m 15.7538,0 h 63.0154 m 15.7538,0 h 15.7539 m 15.7538,0 h 31.5077 m 47.2615,0 h 126.0308 m 47.2615,0 h 15.7539 m 15.7538,0 h 15.7539 m 31.5077,0 h 47.26145 m -945.230654,15.7539 h 31.507704 m 63.0153,0 h 15.7539 m 15.7538,0 h 31.5077 m 31.5077,0 h 31.5077 m 78.7692,0 h 15.7539 m 78.7692,0 h 15.7539 m 15.7538,0 h 47.2616 m 15.7538,0 h 31.5077 m 31.5077,0 h 94.523 m 15.7539,0 h 31.5077 m 15.7538,0 h 15.7539 m 31.5077,0 h 31.5077 m 15.7538,0 h 31.5077 m 31.5077,0 h 15.7538 m 63.01535,0 h 15.7539 m 31.5077,0 h 15.7538 M 63.049146,348.71827 h 15.7539 m 15.7538,0 h 15.753904 m 15.7538,0 h 15.7539 m 15.7538,0 h 15.7538 m 15.7539,0 h 31.5077 m 31.5077,0 h 63.0154 m 15.7538,0 h 15.7539 m 47.2615,0 h 31.5077 m 47.2615,0 h 15.7539 m 31.5077,0 h 31.5077 m 15.7538,0 h 15.7538 m 15.7539,0 h 31.5077 m 15.7538,0 h 15.7539 m 15.7538,0 h 47.2615 m 15.7539,0 h 15.7538 m 15.7539,0 h 94.5231 m 31.5076,0 h 15.7539 m 94.52305,0 h 15.7538 m 15.7539,0 h 15.7538 m 15.7539,0 h 15.7538 M 78.803046,364.47217 h 15.7538 m 15.753904,0 h 15.7538 m 15.7539,0 h 15.7538 m 15.7538,0 h 31.5077 m 15.7539,0 h 15.7538 m 15.7539,0 h 31.5077 m 15.7538,0 h 31.5077 m 15.7539,0 h 63.0153 m 31.5077,0 h 15.7539 m 15.7538,0 h 15.7539 m 15.7538,0 h 15.7539 m 15.7538,0 h 47.2615 m 31.5077,0 h 15.7539 m 15.7538,0 h 15.7539 m 78.7692,0 h 15.7538 m 31.5077,0 h 15.7539 m 63.0154,0 h 15.7538 m 15.7538,0 h 47.2616 m 15.7538,0 h 15.7539 m 15.7538,0 h 47.26155 m -960.984554,15.7538 h 63.015404 m 15.7538,0 h 47.2615 m 15.7539,0 h 31.5077 m 15.7538,0 h 31.5077 m 31.5077,0 h 15.7539 m 31.5076,0 h 15.7539 m 15.7538,0 h 15.7539 m 78.7692,0 h 15.7539 m 15.7538,0 h 31.5077 m 15.7538,0 h 63.0154 m 31.5077,0 h 15.7538 m 15.7539,0 h 15.7538 m 15.7539,0 h 15.7538 m 15.7539,0 h 15.7538 m 31.5077,0 h 15.7539 m 15.7538,0 h 15.7539 m 78.7692,0 h 15.7538 m 15.7539,0 h 47.26145 m 31.5077,0 h 31.5077 m -897.96915,15.7539 h 15.7538 m 15.7539,0 h 15.7538 m 47.2616,0 h 15.7538 m 31.5077,0 h 15.7539 m 15.7538,0 h 31.5077 m 15.7538,0 h 15.7539 m 15.7538,0 h 47.2616 m 15.7538,0 h 47.2616 m 15.7538,0 h 15.7538 m 31.5077,0 h 47.2616 m 31.5076,0 h 15.7539 m 47.2615,0 h 15.7539 m 31.5077,0 h 15.7538 m 31.5077,0 h 47.2615 m 15.7539,0 h 15.7538 m 31.5077,0 h 15.7539 m 47.26145,0 h 15.7539 m 15.7538,0 h 15.7539 m -976.738454,15.7538 h 31.507704 m 15.7539,0 h 47.2615 m 15.7538,0 h 78.7693 m 47.2615,0 h 31.5077 m 63.0154,0 h 47.2615 m 31.5077,0 h 15.7539 m 15.7538,0 h 15.7539 m 78.7692,0 h 15.7538 m 94.5231,0 h 15.7538 m 47.2616,0 h 47.2615 m 15.7539,0 h 15.7538 m 31.5077,0 h 47.2615 m 15.7539,0 h 15.7538 m 15.75385,0 h 31.5077 m 15.7538,0 h 15.7539 M 63.049146,427.48757 h 15.7539 m 31.507704,0 h 15.7538 m 15.7539,0 h 15.7538 m 15.7538,0 h 15.7539 m 15.7538,0 h 15.7539 m 15.7538,0 h 15.7539 m 31.5077,0 h 63.0154 m 31.5076,0 h 15.7539 m 31.5077,0 h 47.2615 m 15.7539,0 h 15.7538 m 110.2769,0 h 63.0154 m 15.7538,0 h 15.7539 m 15.7538,0 h 15.7539 m 15.7538,0 h 15.7539 m 63.0154,0 h 15.7538 m 15.7539,0 h 63.0153 m 63.0154,0 h 15.75385 m 15.7538,0 h 15.7539 m 15.7538,0 h 31.5077 M 63.049146,443.24137 h 47.261604 m 47.2615,0 h 15.7538 m 15.7539,0 h 47.2615 m 15.7539,0 h 15.7538 m 15.7539,0 h 31.5077 m 15.7538,0 h 15.7539 m 78.7692,0 h 15.7538 m 15.7539,0 h 15.7538 m 15.7539,0 h 31.5077 m 31.5077,0 h 15.7538 m 47.2615,0 h 15.7539 m 78.7692,0 h 63.0154 m 15.7538,0 h 31.5077 m 31.5077,0 h 63.0154 m 15.7538,0 h 15.7539 m 15.7538,0 h 15.7539 m 15.7538,0 h 47.26155 m 15.7538,0 h 15.7539 m -992.492254,15.7538 h 63.015404 m 31.5076,0 h 31.5077 m 47.2616,0 h 15.7538 m 15.7539,0 h 15.7538 m 63.0154,0 h 63.0154 m 47.2615,0 h 15.7539 m 47.2615,0 h 31.5077 m 47.2615,0 h 15.7539 m 15.7538,0 h 15.7539 m 15.7538,0 h 15.7538 m 110.277,0 h 15.7538 m 15.7539,0 h 63.0153 m 15.7539,0 h 15.7538 m 15.7539,0 h 31.5077 m 15.7538,0 h 15.75385 m -945.230754,15.7539 h 31.5077 m 15.753904,0 h 31.5077 m 15.7538,0 h 47.2615 m 31.5077,0 h 63.0154 m 47.2616,0 h 15.7538 m 15.7538,0 h 31.5077 m 47.2616,0 h 15.7538 m 15.7539,0 h 15.7538 m 15.7539,0 h 31.5077 m 78.7692,0 h 15.7538 m 31.5077,0 h 31.5077 m 15.7538,0 h 63.0154 m 15.7539,0 h 63.0154 m 31.5076,0 h 63.0154 m 31.5077,0 h 63.01535 m 15.7539,0 h 15.7538 M 63.049146,490.50287 h 15.7539 m 15.7538,0 h 63.015404 m 15.7538,0 h 31.5077 m 15.7539,0 h 15.7538 m 31.5077,0 h 15.7539 m 15.7538,0 h 47.2616 m 31.5076,0 h 31.5077 m 15.7539,0 h 47.2615 m 15.7539,0 h 63.0154 m 15.7538,0 h 31.5077 m 15.7538,0 h 15.7539 m 31.5077,0 h 78.7692 m 15.7538,0 h 15.7539 m 31.5077,0 h 31.5077 m 31.5077,0 h 15.7538 m 15.7538,0 h 47.2616 m 63.01535,0 h 15.7538 m 31.5077,0 h 31.5077 m -976.73835,15.7539 h 78.7692 m 15.7538,0 h 15.7539 m 47.2615,0 h 15.7539 m 15.7538,0 h 63.0154 m 15.7538,0 h 31.5077 m 126.0308,0 h 31.5077 m 15.7538,0 h 15.7539 m 31.5077,0 h 15.7538 m 15.7539,0 h 15.7538 m 15.7538,0 h 31.5077 m 15.7539,0 h 31.5077 m 47.2615,0 h 15.7539 m 15.7538,0 h 15.7539 m 15.7538,0 h 31.5077 m 15.7538,0 h 63.0154 m -929.476904,15.7538 h 31.5077 m 31.507704,0 h 15.7539 m 94.523,0 h 63.0154 m 31.5077,0 h 15.7539 m 31.5076,0 h 47.2616 m 47.2615,0 h 31.5077 m 15.7539,0 h 15.7538 m 15.7539,0 h 15.7538 m 15.7538,0 h 47.2616 m 47.2615,0 h 15.7538 m 15.7539,0 h 15.7538 m 31.5077,0 h 15.7539 m 31.5077,0 h 31.5077 m 15.7538,0 h 47.2615 m 15.7539,0 h 47.2615 m 31.5077,0 h 15.75385 m 15.7538,0 h 15.7539 m 15.7538,0 h 31.5077 M 63.049146,537.76447 h 15.7539 m 47.261504,0 h 47.2615 m 78.7693,0 h 78.7692 m 63.0154,0 h 15.7538 m 78.7693,0 h 15.7538 m 47.2616,0 h 31.5076 m 47.2616,0 h 15.7538 m 78.7692,0 h 31.5077 m 63.0154,0 h 31.5077 m 15.7539,0 h 15.7538 m 63.0154,0 h 15.7538 m 31.5077,0 h 31.50765 m 15.7539,0 h 31.5077 m -992.492254,15.7538 h 31.507704 m 15.7538,0 h 15.7539 m 31.5076,0 h 15.7539 m 15.7538,0 h 63.0154 m 15.7539,0 h 63.0154 m 94.523,0 h 63.0154 m 15.7539,0 h 15.7538 m 15.7539,0 h 15.7538 m 15.7538,0 h 31.5077 m 15.7539,0 h 31.5077 m 15.7538,0 h 63.0154 m 63.0154,0 h 31.5077 m 31.5077,0 h 78.7692 m 47.2615,0 h 31.50765 m 47.2616,0 h 15.7538 M 78.803046,569.27217 H 204.83375 m 63.0154,0 h 15.7539 m 15.7538,0 h 15.7539 m 15.7538,0 h 15.7539 m 31.5076,0 h 31.5077 m 94.5231,0 h 110.2769 m 15.7539,0 h 15.7538 m 15.7539,0 h 15.7538 m 63.0154,0 h 15.7538 m 15.7539,0 h 31.5077 m 15.7538,0 h 15.7539 m 15.7538,0 h 47.2615 m 47.2616,0 h 78.76915 m 15.7539,0 h 15.7538 m -992.492254,15.7538 h 15.7539 m 15.7538,0 h 15.753904 m 15.7538,0 h 15.7539 m 47.2615,0 h 31.5077 m 31.5077,0 h 78.7692 m 15.7539,0 h 15.7538 m 15.7538,0 h 15.7539 m 15.7538,0 h 15.7539 m 15.7538,0 h 15.7539 m 31.5077,0 h 15.7538 m 31.5077,0 h 15.7539 m 47.2615,0 h 47.2615 m 31.5077,0 h 126.0308 m 63.0154,0 h 15.7538 m 15.7538,0 h 15.7539 m 31.5077,0 h 15.7538 m 47.26155,0 h 31.5077 m 31.5077,0 h 15.7538 M 63.049146,600.77987 h 78.769304 m 15.7538,0 h 15.7538 m 15.7539,0 h 31.5077 m 15.7538,0 h 31.5077 m 31.5077,0 h 47.2616 m 63.0153,0 h 15.7539 m 15.7538,0 h 15.7539 m 15.7538,0 h 31.5077 m 15.7539,0 h 31.5077 m 15.7538,0 h 15.7538 m 15.7539,0 h 15.7538 m 15.7539,0 h 31.5077 m 63.0153,0 h 31.5077 m 15.7539,0 h 15.7538 m 15.7539,0 h 31.5077 m 15.7538,0 h 15.7539 m 15.7538,0 h 47.2615 m 15.7539,0 h 15.7538 m 15.7539,0 h 15.7538 m 15.75385,0 h 15.7538 m 15.7539,0 h 15.7538 m 15.7539,0 h 15.7538 M 78.803046,616.53367 h 31.507704 m 15.7538,0 h 15.7539 m 47.2615,0 h 31.5077 m 31.5077,0 h 63.0154 m 47.2615,0 h 63.0154 m 15.7538,0 h 15.7539 m 31.5077,0 h 31.5077 m 15.7538,0 h 15.7539 m 47.2615,0 h 47.2615 m 15.7539,0 h 110.2769 m 63.0154,0 h 15.7538 m 15.7539,0 h 63.0153 m 15.7539,0 h 15.7538 m 47.26155,0 h 15.7538 m 15.7539,0 h 15.7538 m 15.7539,0 h 15.7538 M 63.049146,632.28757 h 47.261604 m 15.7538,0 h 78.7692 m 47.2616,0 h 15.7538 m 15.7539,0 h 15.7538 m 31.5077,0 h 31.5077 m 15.7538,0 h 47.2616 m 31.5077,0 h 15.7538 m 15.7539,0 h 15.7538 m 31.5077,0 h 94.5231 m 47.2615,0 h 47.2615 m 15.7539,0 h 63.0154 m 15.7538,0 h 15.7539 m 15.7538,0 h 15.7539 m 15.7538,0 h 15.7538 m 31.5077,0 h 110.27695 m -976.738454,15.7538 h 63.015404 m 47.2615,0 h 15.7539 m 47.2615,0 h 31.5077 m 15.7539,0 h 31.5077 m 15.7538,0 h 15.7539 m 15.7538,0 h 15.7538 m 31.5077,0 h 15.7539 m 15.7538,0 h 63.0154 m 15.7539,0 h 15.7538 m 15.7539,0 h 31.5076 m 78.7693,0 h 15.7538 m 15.7538,0 h 15.7539 m 15.7538,0 h 15.7539 m 15.7538,0 h 15.7539 m 31.5077,0 h 15.7538 m 15.7539,0 h 15.7538 m 31.5077,0 h 110.2769 m -913.723004,15.7538 h 15.7538 m 47.261604,0 h 31.5076 m 31.5077,0 h 47.2616 m 31.5077,0 h 15.7538 m 15.7539,0 h 15.7538 m 47.2615,0 h 47.2616 m 63.0154,0 h 31.5077 m 78.7692,0 h 15.7538 m 31.5077,0 h 63.0154 m 94.5231,0 h 31.5077 m 31.5077,0 h 15.7538 m 78.7692,0 h 47.26155 m 31.5077,0 h 15.7538 m 15.7539,0 h 15.7538 M 63.049146,679.54907 h 63.015404 m 78.7692,0 h 15.7539 m 15.7538,0 h 47.2616 m 47.2615,0 h 15.7539 m 15.7538,0 h 15.7538 m 47.2616,0 h 31.5077 m 47.2615,0 h 31.5077 m 63.0154,0 h 15.7538 m 15.7539,0 h 78.7692 m 31.5077,0 h 15.7538 m 47.2616,0 h 47.2615 m 47.2615,0 h 31.5077 m 15.7539,0 H 1087.0491 M 78.803046,695.30297 h 47.261504 m 15.7539,0 h 31.5076 m 15.7539,0 h 15.7538 m 47.2616,0 h 15.7538 m 63.0154,0 h 31.5077 m 31.5077,0 h 47.2615 m 15.7539,0 h 15.7538 m 15.7539,0 h 15.7538 m 15.7539,0 h 15.7538 m 31.5077,0 h 31.5077 m 47.2615,0 h 47.2615 m 15.7539,0 h 47.2615 m 15.7539,0 h 94.5231 m 31.5076,0 h 15.7539 m 31.5077,0 h 15.7538 m 31.5077,0 h 47.26155 m 15.7538,0 h 15.7539 m -992.492254,15.7538 h 15.7538 m 47.261604,0 h 15.7538 m 15.7538,0 h 15.7539 m 31.5077,0 h 31.5077 m 15.7538,0 h 15.7539 m 63.0154,0 h 15.7538 m 15.7538,0 h 15.7539 m 47.2615,0 h 15.7539 m 15.7538,0 h 15.7539 m 15.7538,0 h 15.7539 m 47.2615,0 h 47.2615 m 110.2769,0 h 15.7539 m 15.7538,0 h 15.7539 m 31.5077,0 h 15.7538 m 15.7539,0 h 31.5077 m 15.7538,0 h 31.5077 m 15.7538,0 h 15.7539 m 15.7538,0 h 78.76925 M 63.049146,726.81067 H 173.32605 m 94.5231,0 h 31.5077 m 31.5077,0 h 15.7539 m 31.5076,0 h 15.7539 m 63.0154,0 h 78.7692 m 78.7692,0 h 15.7539 m 31.5077,0 h 15.7538 m 31.5077,0 h 15.7538 m 78.7693,0 h 31.5077 m 110.2769,0 h 15.7538 m 63.01535,0 h 47.2616 M 63.049146,742.56447 h 31.5077 m 31.507704,0 h 31.5077 m 63.0154,0 h 15.7538 m 31.5077,0 h 15.7539 m 157.5384,0 h 47.2616 m 31.5077,0 h 15.7538 m 15.7539,0 h 31.5076 m 63.0154,0 h 15.7539 m 15.7538,0 h 15.7538 m 47.2616,0 h 47.2615 m 15.7539,0 h 47.2615 m 47.2615,0 h 31.5077 m 15.7539,0 h 31.5077 m 15.7538,0 h 31.50765 m 47.2616,0 h 15.7538 m -976.73835,15.7539 h 15.7538 m 31.5077,0 h 15.7538 m 15.7539,0 h 15.7538 m 31.5077,0 h 31.5077 m 63.0154,0 h 31.5077 m 15.7538,0 h 15.7539 m 15.7538,0 h 15.7539 m 15.7538,0 h 15.7539 m 15.7538,0 h 15.7539 m 47.2615,0 h 31.5077 m 31.5077,0 h 47.2615 m 15.7539,0 h 15.7538 m 15.7538,0 h 31.5077 m 15.7539,0 h 15.7538 m 31.5077,0 h 31.5077 m 15.7539,0 h 31.5077 m 157.53835,0 h 31.5077 m -960.984554,15.7538 h 15.753904 m 15.7538,0 h 15.7539 m 31.5076,0 h 31.5077 m 47.2616,0 h 31.5077 m 15.7538,0 h 15.7539 m 15.7538,0 h 47.2615 m 15.7539,0 h 31.5077 m 31.5077,0 h 47.2615 m 31.5077,0 h 31.5077 m 31.5077,0 h 47.2615 m 15.7539,0 h 47.2615 m 78.7692,0 h 15.7539 m 78.7692,0 h 15.7538 m 15.7539,0 h 47.2615 m 15.7539,0 h 63.01535 m 31.5077,0 h 15.7538 m -976.73835,15.7539 h 15.7538 m 15.7539,0 h 63.0153 m 78.7693,0 h 78.7692 m 47.2615,0 h 31.5077 m 15.7539,0 h 15.7538 m 15.7539,0 h 15.7538 m 15.7539,0 h 31.5077 m 31.5076,0 h 15.7539 m 47.2615,0 h 15.7539 m 31.5076,0 h 63.0154 m 15.7539,0 h 78.7692 m 126.0308,0 h 31.50765 m 31.5077,0 h 31.5077 M 63.049146,805.57987 h 15.7539 m 63.015404,0 h 15.7538 m 15.7538,0 h 15.7539 m 47.2615,0 h 15.7539 m 15.7538,0 h 15.7539 m 15.7538,0 h 15.7539 m 15.7538,0 h 31.5077 m 15.7538,0 h 47.2616 m 31.5077,0 h 31.5077 m 15.7538,0 h 63.0154 m 47.2615,0 h 15.7539 m 31.5077,0 h 47.2615 m 31.5077,0 h 31.5077 m 31.5077,0 h 47.2615 m 47.2615,0 h 31.5077 m 15.7539,0 h 15.7538 m 47.26155,0 h 15.7538 m 47.2616,0 h 15.7538 M 63.049146,821.33367 h 15.7539 m 15.7538,0 h 15.753904 m 15.7538,0 h 94.5231 m 15.7538,0 h 78.7693 m 15.7538,0 h 78.7692 m 15.7539,0 h 15.7538 m 31.5077,0 h 15.7539 m 15.7538,0 h 15.7539 m 15.7538,0 h 63.0154 m 15.7538,0 h 47.2616 m 31.5076,0 h 15.7539 m 15.7538,0 h 15.7539 m 31.5077,0 h 31.5077 m 47.2615,0 h 15.7539 m 78.7692,0 h 15.7538 m 31.5077,0 h 31.50765 m 15.7539,0 h 15.7538 m -976.738354,15.7539 h 15.7538 m 15.753904,0 h 31.5077 m 31.5076,0 h 31.5077 m 47.2616,0 h 31.5077 m 47.2615,0 h 15.7539 m 31.5076,0 h 15.7539 m 15.7538,0 h 94.5231 m 15.7539,0 h 31.5077 m 15.7538,0 h 15.7538 m 15.7539,0 h 15.7538 m 15.7539,0 h 15.7538 m 31.5077,0 h 47.2615 m 15.7539,0 h 31.5077 m 15.7538,0 h 31.5077 m 15.7539,0 h 15.7538 m 15.7539,0 h 94.523 m 15.7539,0 h 63.01535 m -960.984554,15.7538 h 47.261504 m 15.7539,0 h 31.5076 m 15.7539,0 h 63.0154 m 78.7692,0 h 15.7539 m 15.7538,0 h 47.2615 m 47.2616,0 h 15.7538 m 31.5077,0 h 31.5077 m 47.2615,0 h 31.5077 m 31.5077,0 h 31.5077 m 63.0154,0 h 15.7538 m 15.7539,0 h 15.7538 m 15.7539,0 h 47.2615 m 63.0154,0 h 15.7538 m 47.2616,0 h 15.7538 m 47.26155,0 h 15.7538 m 15.7539,0 h 15.7538 m -960.98455,15.7539 h 15.7539 m 31.5076,0 h 31.5077 m 15.7539,0 h 31.5077 m 15.7538,0 h 47.2616 m 47.2615,0 h 15.7538 m 47.2616,0 h 15.7538 m 78.7693,0 h 15.7538 m 31.5077,0 h 31.5077 m 78.7692,0 h 31.5077 m 15.7538,0 h 31.5077 m 63.0154,0 h 31.5077 m 15.7539,0 h 31.5076 m 15.7539,0 h 15.7538 m 15.7539,0 h 47.2615 m 15.75385,0 h 78.7692 M 63.049146,884.34907 h 31.5077 m 31.507704,0 h 15.7539 m 15.7538,0 h 15.7538 m 63.0154,0 h 15.7539 m 15.7538,0 h 15.7539 m 15.7538,0 h 31.5077 m 15.7539,0 h 31.5076 m 47.2616,0 h 31.5077 m 15.7538,0 h 31.5077 m 31.5077,0 h 15.7539 m 15.7538,0 h 15.7538 m 31.5077,0 h 15.7539 m 15.7538,0 h 15.7539 m 31.5076,0 h 31.5077 m 15.7539,0 h 15.7538 m 15.7539,0 h 31.5077 m 15.7538,0 h 15.7539 m 15.7538,0 h 31.5077 m 47.2615,0 h 15.7539 m 47.2615,0 h 15.75385 m 15.7538,0 h 15.7539 m -913.72305,15.7539 h 15.7539 m 78.7692,0 h 15.7538 m 15.7539,0 h 47.2615 m 15.7539,0 h 47.2615 m 15.7538,0 h 15.7539 m 31.5077,0 h 15.7538 m 47.2616,0 h 78.7692 m 15.7538,0 h 15.7539 m 15.7538,0 h 15.7539 m 63.0153,0 h 31.5077 m 31.5077,0 h 15.7539 m 31.5077,0 h 15.7538 m 15.7539,0 h 15.7538 m 31.5077,0 h 157.53845 m -976.738454,15.7538 h 15.7539 m 15.7538,0 h 94.523104 m 31.5077,0 h 31.5077 m 47.2615,0 h 15.7539 m 47.2615,0 h 63.0154 m 15.7538,0 h 141.7846 m 31.5077,0 h 31.5077 m 31.5077,0 h 15.7538 m 47.2616,0 h 15.7538 m 15.7539,0 h 15.7538 m 15.7539,0 h 31.5077 m 63.0153,0 h 31.5077 m 31.5077,0 h 15.7539 m 15.7538,0 h 15.75385 m 31.5077,0 h 47.2615 M 78.803046,931.61067 h 47.261504 m 47.2615,0 h 63.0154 m 15.7539,0 h 47.2615 m 78.7692,0 h 31.5077 m 15.7539,0 h 31.5077 m 15.7538,0 h 15.7539 m 47.2615,0 h 47.2615 m 15.7539,0 h 15.7538 m 31.5077,0 h 31.5077 m 31.5077,0 h 15.7538 m 15.7539,0 h 15.7538 m 47.2616,0 h 47.2615 m 15.7539,0 h 15.7538 m 31.5077,0 h 173.29225 m -992.492254,15.7538 h 31.507704 m 15.7539,0 h 31.5076 m 15.7539,0 h 15.7538 m 31.5077,0 h 47.2616 m 31.5077,0 h 31.5077 m 15.7538,0 h 15.7538 m 63.0154,0 h 15.7539 m 31.5077,0 h 78.7692 m 15.7538,0 h 47.2616 m 31.5077,0 h 15.7538 m 31.5077,0 h 15.7538 m 78.7693,0 h 94.523 m 15.7539,0 h 15.7538 m 63.0154,0 h 31.50765 m 15.7539,0 h 15.7538 m -992.492254,15.7539 h 15.7539 m 31.507704,0 h 15.7538 m 78.7692,0 h 15.7539 m 47.2615,0 h 31.5077 m 31.5077,0 h 15.7539 m 94.523,0 h 15.7539 m 15.7538,0 h 15.7539 m 47.2615,0 h 15.7539 m 31.5076,0 h 15.7539 m 15.7538,0 h 47.2616 m 47.2615,0 h 15.7538 m 15.7539,0 h 31.5077 m 15.7538,0 h 15.7539 m 31.5077,0 h 94.523 m 15.7539,0 h 47.2615 m 15.75385,0 h 31.5077 m -960.984554,15.7538 h 31.507704 m 15.7538,0 h 15.7539 m 15.7538,0 h 15.7538 m 31.5077,0 h 15.7539 m 94.5231,0 h 15.7538 m 15.7539,0 h 15.7538 m 31.5077,0 h 220.5538 m 31.5077,0 h 47.2615 m 15.7539,0 h 15.7538 m 15.7539,0 h 15.7538 m 15.7539,0 h 63.0154 m 15.7538,0 h 31.5077 m 15.7538,0 h 15.7539 m 31.5077,0 h 78.76915 m 15.7539,0 h 47.2615 m -897.96915,15.7539 h 15.7538 m 47.2616,0 h 47.2615 m 63.0154,0 h 15.7538 m 47.2616,0 h 31.5077 m 15.7538,0 h 15.7539 m 47.2615,0 h 15.7539 m 47.2615,0 h 15.7538 m 15.7539,0 h 31.5077 m 31.5076,0 h 31.5077 m 110.277,0 h 31.5077 m 15.7538,0 h 15.7538 m 15.7539,0 h 15.7538 m 15.7539,0 h 15.7538 m 47.26155,0 h 78.7692 M 63.049146,1010.3799 H 173.32605 m 31.5077,0 h 31.5077 m 94.5231,0 h 15.7539 m 31.5076,0 h 15.7539 m 63.0154,0 h 15.7538 m 31.5077,0 h 47.2616 m 15.7538,0 h 15.7538 m 15.7539,0 h 15.7538 m 15.7539,0 h 31.5077 m 15.7538,0 h 15.7538 m 31.5077,0 h 94.5231 m 78.7692,0 h 15.7539 m 15.7538,0 h 31.5077 m 15.7539,0 h 15.7538 m 15.75385,0 h 15.7538 m -960.984554,15.7538 h 15.7539 m 78.769204,0 h 15.7538 m 47.2616,0 h 15.7538 m 31.5077,0 h 31.5077 m 15.7539,0 h 31.5077 m 47.2615,0 h 47.2615 m 15.7539,0 h 15.7538 m 31.5077,0 h 15.7539 m 15.7538,0 h 15.7539 m 47.2615,0 h 47.2615 m 31.5077,0 h 31.5077 m 47.2615,0 h 31.5077 m 15.7539,0 h 15.7538 m 15.7539,0 h 31.5077 m 15.7538,0 h 15.7538 m 15.7539,0 h 15.7538 m 15.7539,0 h 15.7538 m 47.26155,0 h 31.5077 m 15.7538,0 h 15.7539 M 63.049146,1041.8876 h 15.7539 m 15.7538,0 h 47.261604 m 15.7538,0 h 15.7538 m 15.7539,0 h 31.5077 m 15.7538,0 h 15.7539 m 15.7538,0 h 15.7539 m 15.7538,0 h 31.5077 m 15.7539,0 h 31.5076 m 15.7539,0 h 31.5077 m 15.7538,0 h 31.5077 m 63.0154,0 h 78.7692 m 31.5077,0 h 31.5077 m 15.7538,0 h 15.7539 m 15.7538,0 h 31.5077 m 47.2616,0 h 63.0154 m 31.5076,0 h 15.7539 m 31.5077,0 h 78.76915 m 15.7539,0 h 47.2615 M 63.049146,1057.6414 h 15.7539 m 15.7538,0 h 47.261604 m 15.7538,0 h 15.7538 m 15.7539,0 h 15.7538 m 63.0154,0 h 47.2616 m 15.7538,0 h 15.7539 m 47.2615,0 h 15.7538 m 31.5077,0 h 78.7693 m 47.2615,0 h 31.5077 m 15.7538,0 h 110.2769 m 15.7539,0 h 47.2615 m 15.7539,0 h 15.7538 m 15.7539,0 h 15.7538 m 15.7539,0 h 94.523 m 47.26155,0 h 63.0154 M 63.049146,1073.3953 h 15.7539 m 15.7538,0 h 47.261604 m 15.7538,0 h 15.7538 m 15.7539,0 h 141.7846 m 15.7539,0 h 15.7538 m 31.5077,0 h 15.7538 m 15.7539,0 h 31.5077 m 31.5077,0 h 15.7538 m 63.0154,0 h 31.5077 m 15.7538,0 h 15.7539 m 31.5077,0 h 47.2615 m 31.5077,0 h 31.5077 m 31.5077,0 h 15.7538 m 31.5077,0 h 31.5077 m 47.2615,0 h 15.7539 m 47.2615,0 h 78.76925 M 63.049146,1089.1491 h 15.7539 m 78.769204,0 h 15.7538 m 31.5077,0 h 31.5077 m 31.5077,0 h 31.5077 m 15.7539,0 h 31.5077 m 15.7538,0 h 141.7846 m 15.7539,0 h 31.5077 m 63.0153,0 h 31.5077 m 15.7539,0 h 15.7538 m 78.7692,0 h 15.7539 m 63.0154,0 h 15.7538 m 31.5077,0 h 15.7538 m 15.7539,0 h 15.7538 m 31.5077,0 h 15.7539 m 47.26145,0 h 15.7539 m 15.7538,0 h 15.7539 M 63.049146,1104.903 H 173.32605 m 31.5077,0 h 15.7539 m 63.0154,0 h 15.7538 m 31.5077,0 h 15.7539 m 15.7538,0 h 31.5077 m 15.7538,0 h 31.5077 m 47.2616,0 h 15.7538 m 15.7539,0 h 31.5077 m 47.2615,0 h 15.7538 m 15.7539,0 h 47.2615 m 15.7538,0 h 15.7539 m 15.7538,0 h 31.5077 m 15.7539,0 h 15.7538 m 15.7539,0 h 47.2615 m 15.7539,0 h 15.7538 m 15.7538,0 h 15.7539 m 15.7538,0 h 15.7539 m 31.5077,0 h 15.7538 m 15.75385,0 h 47.2615"
     id="path4"
     style="stroke-width:15.7538" />
</svg>
