<?xml version="1.0" encoding="UTF-8" standalone="no"?>
<svg
   height="7300"
   width="7300"
   class="pyqrcode"
   version="1.1"
   id="svg6"
   sodipodi:docname="verifier_qr_code.svg"
   inkscape:version="1.1.2 (0a00cf5339, 2022-02-04)"
   xmlns:inkscape="http://www.inkscape.org/namespaces/inkscape"
   xmlns:sodipodi="http://sodipodi.sourceforge.net/DTD/sodipodi-0.dtd"
   xmlns="http://www.w3.org/2000/svg"
   xmlns:svg="http://www.w3.org/2000/svg">
  <defs
     id="defs10" />
  <sodipodi:namedview
     id="namedview8"
     pagecolor="#ffffff"
     bordercolor="#666666"
     borderopacity="1.0"
     inkscape:pageshadow="2"
     inkscape:pageopacity="0.0"
     inkscape:pagecheckerboard="0"
     showgrid="false"
     inkscape:zoom="0.078944113"
     inkscape:cx="3603.8153"
     inkscape:cy="2172.4229"
     inkscape:window-width="1920"
     inkscape:window-height="990"
     inkscape:window-x="0"
     inkscape:window-y="28"
     inkscape:window-maximized="1"
     inkscape:current-layer="svg6" />
  <path
     fill="white"
     d="M0 0h7300v7300h-7300z"
     id="path2" />
  <path
     stroke="#000000"
     class="pyqrline"
     d="m 400,407.87692 h 110.27692 m 15.75385,0 h 15.75385 m 15.75384,0 h 15.75385 m 15.75384,0 H 604.8 m 31.50769,0 h 31.50769 m 15.75385,0 h 15.75385 m 31.50769,0 h 15.75385 m 47.26153,0 H 809.6 m 15.75385,0 h 63.01538 m 63.01539,0 h 78.76918 m 15.7539,0 h 31.5077 m 15.7538,0 h 15.7539 m 31.5077,0 h 47.2615 m 15.7539,0 H 1219.2 m 47.2615,0 h 15.7539 m 31.5077,0 H 1424 M 400,423.63077 h 15.75385 m 78.76923,0 h 15.75384 m 15.75385,0 h 15.75385 m 15.75384,0 h 15.75385 m 15.75384,0 h 31.5077 m 31.50769,0 h 15.75384 m 15.75385,0 h 63.01539 m 47.26153,0 h 31.5077 m 78.76923,0 h 47.26154 m 15.75384,0 h 15.75385 m 31.50769,0 h 15.7538 m 31.5077,0 h 15.7539 m 15.7538,0 h 47.2616 m 47.2615,0 h 63.0154 m 31.5077,0 h 15.7538 m 15.7539,0 h 15.7538 m 78.7693,0 H 1424 M 400,439.38462 h 15.75385 m 15.75384,0 h 47.26154 m 15.75385,0 h 15.75384 m 15.75385,0 h 15.75385 m 15.75384,0 H 604.8 m 47.26154,0 h 78.76923 m 15.75385,0 h 31.50769 m 47.26154,0 h 47.26153 m 31.5077,0 h 15.75384 m 15.75385,0 h 47.26154 m 31.50769,0 h 15.7538 m 78.7693,0 h 15.7538 m 78.7693,0 h 31.5076 m 15.7539,0 h 15.7538 m 15.7539,0 h 15.7538 m 15.7539,0 h 15.7538 m 15.7539,0 h 47.2615 m 15.7539,0 H 1424 M 400,455.13846 h 15.75385 m 15.75384,0 h 47.26154 m 15.75385,0 h 15.75384 m 63.01539,0 h 15.75384 m 47.26154,0 h 31.50769 m 31.5077,0 h 78.76923 m 31.50769,0 h 15.75385 m 15.75384,0 h 15.75385 m 15.75384,0 h 31.5077 m 47.26154,0 h 15.75384 m 47.26154,0 h 31.5077 m 15.7538,0 h 15.7539 m 15.7538,0 h 31.5077 m 31.5077,0 h 31.5077 m 47.2615,0 h 47.2616 m 31.5077,0 h 15.7538 m 15.7539,0 h 47.2615 m 15.7539,0 H 1424 M 400,470.89231 h 15.75385 m 15.75384,0 h 47.26154 m 15.75385,0 h 15.75384 m 63.01539,0 h 15.75384 m 15.75385,0 h 15.75385 m 47.26153,0 h 15.75385 m 47.26154,0 h 63.01538 m 15.75385,0 h 15.75385 m 15.75384,0 h 15.75385 m 15.75384,0 h 78.76924 m 78.76918,0 h 78.7693 m 31.5077,0 h 15.7538 m 15.7539,0 h 15.7538 m 47.2615,0 h 15.7539 m 31.5077,0 h 15.7538 m 15.7539,0 h 15.7538 m 15.7539,0 h 47.2615 m 15.7539,0 H 1424 M 400,486.64615 h 15.75385 m 78.76923,0 h 15.75384 m 15.75385,0 h 15.75385 m 15.75384,0 h 31.50769 m 15.75385,0 h 47.26154 m 47.26154,0 h 47.26154 m 31.50769,0 h 15.75384 m 31.5077,0 h 15.75384 m 31.50769,0 h 15.75385 m 47.26154,0 h 15.75385 m 31.50769,0 h 63.01539 m 15.7538,0 h 31.5077 m 15.7539,0 h 31.5077 m 15.7538,0 h 47.2616 m 47.2615,0 h 15.7538 m 47.2616,0 h 15.7538 m 78.7693,0 H 1424 M 400,502.4 h 110.27692 m 15.75385,0 h 15.75385 m 15.75384,0 h 15.75385 m 15.75384,0 H 604.8 m 15.75385,0 h 15.75384 m 15.75385,0 h 15.75384 m 15.75385,0 h 15.75385 m 15.75384,0 h 15.75385 m 15.75385,0 h 15.75384 m 15.75385,0 h 15.75384 m 15.75385,0 h 15.75385 m 15.75384,0 h 15.75385 m 15.75384,0 h 15.75385 m 15.75385,0 h 15.75384 m 15.75385,0 h 15.75385 m 15.75384,0 h 15.75385 m 15.75384,0 H 1014.4 m 15.7538,0 h 15.7539 m 15.7538,0 h 15.7539 m 15.7538,0 h 15.7539 m 15.7538,0 h 15.7539 m 15.7538,0 h 15.7539 m 15.7538,0 h 15.7539 m 15.7538,0 h 15.7538 m 15.7539,0 h 15.7538 m 15.7539,0 h 15.7538 m 15.7539,0 H 1424 m -897.96923,15.75385 h 31.50769 m 31.50769,0 h 47.26154 m 31.50769,0 h 15.75385 m 15.75385,0 h 15.75384 m 15.75385,0 h 47.26154 m 15.75384,0 H 809.6 m 15.75385,0 h 15.75384 m 31.50769,0 h 15.75385 m 47.26154,0 h 15.75385 m 47.26153,0 H 1014.4 m 15.7538,0 h 15.7539 m 31.5077,0 h 15.7538 m 15.7539,0 h 15.7538 m 15.7539,0 h 15.7538 m 63.0154,0 h 47.2615 m 15.7539,0 h 15.7538 m -866.46151,15.75384 h 47.26154 m 15.75385,0 h 15.75384 m 15.75385,0 h 15.75385 m 15.75384,0 h 15.75385 m 15.75384,0 h 78.76923 m 15.75385,0 h 31.50769 m 15.75385,0 h 15.75385 m 31.50769,0 h 15.75384 m 15.75385,0 h 15.75385 m 31.50769,0 h 94.52308 m 15.75384,0 h 15.75385 m 15.75384,0 h 47.26155 m 15.7538,0 h 15.7539 m 47.2615,0 h 78.7693 m 31.5076,0 h 110.277 m 31.5077,0 H 1424 m -992.49231,15.75385 h 15.75385 m 15.75384,0 h 31.5077 m 31.50769,0 h 15.75385 m 15.75384,0 h 31.50769 m 31.5077,0 h 31.50769 m 15.75384,0 h 31.5077 m 47.26154,0 h 47.26153 m 31.5077,0 h 47.26153 m 15.75385,0 h 31.50769 m 31.5077,0 h 31.50769 m 47.26149,0 h 15.7539 m 15.7538,0 h 31.5077 m 47.2616,0 h 47.2615 m 15.7539,0 H 1219.2 m 15.7538,0 h 47.2616 m 15.7538,0 h 15.7539 m 63.0154,0 h 15.7538 m 15.7539,0 H 1424 M 400,565.41538 h 31.50769 m 15.75385,0 h 15.75384 m 31.5077,0 h 31.50769 m 31.50769,0 h 15.75385 m 47.26154,0 h 15.75384 m 31.50769,0 h 15.75385 m 47.26154,0 H 809.6 m 15.75385,0 h 15.75384 m 15.75385,0 h 15.75384 m 31.5077,0 h 63.01538 m 15.75385,0 H 1014.4 m 15.7538,0 h 15.7539 m 15.7538,0 h 15.7539 m 47.2615,0 h 15.7539 m 15.7538,0 h 15.7539 m 110.2769,0 h 94.5231 m 15.7538,0 h 15.7539 M 400,581.16923 h 15.75385 m 15.75384,0 h 15.75385 m 15.75384,0 h 31.5077 m 63.01538,0 h 31.50769 m 15.75385,0 h 31.50769 m 47.26154,0 h 31.50769 m 31.5077,0 h 15.75384 m 15.75385,0 h 15.75384 m 31.5077,0 h 15.75384 m 15.75385,0 h 47.26154 m 15.75384,0 h 15.75385 m 31.50769,0 h 31.50769 m 31.50765,0 h 31.5077 m 31.5077,0 h 31.5077 m 15.7539,0 h 15.7538 m 63.0154,0 h 15.7538 m 31.5077,0 h 15.7539 m 15.7538,0 h 15.7539 m 15.7538,0 h 15.7539 m 15.7538,0 h 15.7539 m 15.7538,0 h 15.7539 m -992.49235,15.75385 h 15.75384 m 15.75385,0 h 78.76923 m 15.75385,0 h 15.75384 m 63.01539,0 h 15.75384 m 15.75385,0 h 78.76923 m 31.50769,0 h 31.50769 m 31.5077,0 h 47.26153 m 15.75385,0 h 15.75385 m 15.75384,0 h 31.5077 m 31.50769,0 h 15.75384 m 15.75385,0 h 15.7538 m 31.5077,0 h 31.5077 m 47.2616,0 h 47.2615 m 47.2615,0 h 31.5077 m 15.7539,0 h 78.7692 m 15.7539,0 h 15.7538 m -976.73845,15.75384 h 15.75384 m 47.26154,0 h 15.75385 m 15.75384,0 h 15.75385 m 31.50769,0 h 31.50769 m 15.75385,0 h 15.75385 m 31.50769,0 h 15.75384 m 31.5077,0 h 15.75384 m 126.03077,0 h 47.26154 m 31.50769,0 h 31.5077 m 63.01538,0 h 31.5077 m 15.7538,0 h 47.2616 m 31.5077,0 h 31.5077 m 31.5077,0 h 63.0153 m 63.0154,0 h 31.5077 m 47.2616,0 H 1424 M 400,628.43077 h 15.75385 m 15.75384,0 h 15.75385 m 47.26154,0 h 15.75384 m 15.75385,0 h 63.01538 m 15.75385,0 h 31.50769 m 15.75385,0 h 15.75384 m 94.52308,0 h 15.75385 m 15.75384,0 H 809.6 m 15.75385,0 h 31.50769 m 15.75384,0 h 63.01539 m 15.75385,0 h 15.75384 m 15.75385,0 H 1014.4 m 47.2615,0 h 126.0308 m 47.2615,0 h 15.7539 m 15.7538,0 h 15.7539 m 31.5077,0 h 47.2615 m -945.23075,15.75385 h 31.50769 m 63.01538,0 h 15.75385 m 15.75385,0 h 31.50769 m 31.50769,0 h 31.50769 m 78.76923,0 h 15.75385 m 78.76923,0 h 15.75385 m 15.75384,0 h 47.26154 m 15.75385,0 h 31.50769 m 31.50769,0 h 94.52304 m 15.7539,0 h 31.5077 m 15.7538,0 h 15.7539 m 31.5077,0 h 31.5077 m 15.7538,0 h 31.5077 m 31.5077,0 h 15.7538 m 63.0154,0 h 15.7539 m 31.5077,0 H 1424 M 400,659.93846 h 15.75385 m 15.75384,0 h 15.75385 m 15.75384,0 h 15.75385 m 15.75385,0 h 15.75384 m 15.75385,0 h 31.50769 m 31.50769,0 h 63.01539 m 15.75384,0 h 15.75385 m 47.26154,0 h 31.50769 m 47.26154,0 h 15.75385 m 31.50769,0 h 31.50769 m 15.75385,0 h 15.75384 m 15.75385,0 h 31.50769 m 15.75385,0 h 15.75384 m 15.75385,0 h 47.2615 m 15.7539,0 h 15.7538 m 15.7539,0 h 94.5231 m 31.5076,0 h 15.7539 m 94.5231,0 h 15.7538 m 15.7539,0 h 15.7538 m 15.7539,0 H 1424 M 415.75385,675.69231 h 15.75384 m 15.75385,0 h 15.75384 m 15.75385,0 h 15.75385 m 15.75384,0 h 31.5077 m 15.75384,0 h 15.75385 m 15.75384,0 h 31.5077 m 15.75384,0 h 31.50769 m 15.75385,0 h 63.01539 m 31.50769,0 h 15.75384 m 15.75385,0 h 15.75385 m 15.75384,0 h 15.75385 m 15.75384,0 h 47.26154 m 31.5077,0 h 15.75384 m 15.75385,0 h 15.75384 m 78.76925,0 h 15.7538 m 31.5077,0 h 15.7539 m 63.0154,0 H 1219.2 m 15.7538,0 h 47.2616 m 15.7538,0 h 15.7539 m 15.7538,0 h 47.2616 m -960.98465,15.75384 h 63.01538 m 15.75385,0 h 47.26154 m 15.75384,0 h 31.50769 m 15.75385,0 h 31.50769 m 31.50769,0 h 15.75385 m 31.50769,0 h 15.75385 m 15.75385,0 h 15.75384 m 78.76923,0 h 15.75385 m 15.75384,0 h 31.5077 m 15.75384,0 h 63.01539 m 31.50769,0 h 15.7538 m 15.7539,0 h 15.7538 m 15.7539,0 h 15.7538 m 15.7539,0 h 15.7538 m 31.5077,0 h 15.7539 m 15.7538,0 h 15.7539 m 78.7692,0 h 15.7538 m 15.7539,0 h 47.2615 m 31.5077,0 H 1424 M 526.03077,707.2 h 15.75385 m 15.75384,0 h 15.75385 m 47.26154,0 h 15.75384 m 31.50769,0 h 15.75385 m 15.75385,0 h 31.50769 m 15.75385,0 h 15.75384 m 15.75385,0 h 47.26154 m 15.75384,0 h 47.26154 m 15.75385,0 h 15.75384 m 31.5077,0 h 47.26153 m 31.50765,0 h 15.7539 m 47.2615,0 h 15.7539 m 31.5077,0 h 15.7538 m 31.5077,0 h 47.2615 m 15.7539,0 h 15.7538 m 31.5077,0 h 15.7539 m 47.2615,0 h 15.7539 m 15.7538,0 h 15.7539 m -976.73851,15.75385 h 31.50769 m 15.75385,0 h 47.26154 m 15.75385,0 h 78.76923 m 47.26153,0 h 31.5077 m 63.01538,0 H 809.6 m 31.50769,0 h 15.75385 m 15.75384,0 h 15.75385 m 78.76923,0 h 15.75385 m 94.52309,0 h 15.7538 m 47.2616,0 h 47.2615 m 15.7539,0 H 1219.2 m 31.5077,0 h 47.2615 m 15.7539,0 h 15.7538 m 15.7539,0 h 31.5077 m 15.7538,0 h 15.7539 M 400,738.70769 h 15.75385 m 31.50769,0 h 15.75384 m 15.75385,0 h 15.75385 m 15.75384,0 h 15.75385 m 15.75385,0 h 15.75384 m 15.75385,0 h 15.75384 m 31.5077,0 h 63.01538 m 31.50769,0 h 15.75385 m 31.50769,0 H 809.6 m 15.75385,0 h 15.75384 m 110.27693,0 H 1014.4 m 15.7538,0 h 15.7539 m 15.7538,0 h 15.7539 m 15.7538,0 h 15.7539 m 63.0154,0 h 15.7538 m 15.7539,0 h 63.0153 m 63.0154,0 h 15.7539 m 15.7538,0 h 15.7539 m 15.7538,0 H 1424 M 400,754.46154 h 47.26154 m 47.26154,0 h 15.75384 m 15.75385,0 h 47.26154 m 15.75384,0 H 604.8 m 15.75385,0 h 31.50769 m 15.75384,0 h 15.75385 m 78.76923,0 h 15.75385 m 15.75384,0 H 809.6 m 15.75385,0 h 31.50769 m 31.50769,0 h 15.75385 m 47.26154,0 h 15.75384 m 78.76924,0 h 63.0154 m 15.7538,0 h 31.5077 m 31.5077,0 h 63.0154 m 15.7538,0 h 15.7539 m 15.7538,0 h 15.7539 m 15.7538,0 h 47.2616 m 15.7538,0 h 15.7539 m -992.49235,15.75384 h 63.01538 m 31.50769,0 h 31.5077 m 47.26153,0 H 604.8 m 15.75385,0 h 15.75384 m 63.01539,0 h 63.01538 m 47.26154,0 h 15.75385 m 47.26153,0 h 31.5077 m 47.26154,0 h 15.75384 m 15.75385,0 h 15.75384 m 15.75385,0 h 15.7538 m 110.277,0 h 15.7538 m 15.7539,0 h 63.0153 m 15.7539,0 h 15.7538 m 15.7539,0 h 31.5077 m 15.7538,0 h 15.7539 M 400,785.96923 h 31.50769 m 15.75385,0 h 31.50769 m 15.75385,0 h 47.26154 m 31.50769,0 h 63.01538 m 47.26154,0 h 15.75385 m 15.75384,0 h 31.5077 m 47.26153,0 H 809.6 m 15.75385,0 h 15.75384 m 15.75385,0 h 31.50769 m 78.76923,0 h 15.75385 m 31.50769,0 h 31.5077 m 15.7538,0 h 63.0154 m 15.7539,0 h 63.0154 m 31.5076,0 h 63.0154 m 31.5077,0 h 63.0154 m 15.7539,0 H 1424 M 400,801.72308 h 15.75385 m 15.75384,0 h 63.01539 m 15.75384,0 h 31.5077 m 15.75384,0 h 15.75385 m 31.50769,0 h 15.75385 m 15.75384,0 h 47.26154 m 31.50769,0 h 31.5077 m 15.75384,0 H 809.6 m 15.75385,0 h 63.01538 m 15.75385,0 h 31.50769 m 15.75385,0 h 15.75384 m 31.50769,0 h 78.76925 m 15.7538,0 h 15.7539 m 31.5077,0 h 31.5077 m 31.5077,0 H 1219.2 m 15.7538,0 h 47.2616 m 63.0154,0 h 15.7538 m 31.5077,0 H 1424 m -976.73846,15.75384 h 78.76923 m 15.75385,0 h 15.75384 m 47.26154,0 h 15.75385 m 15.75384,0 h 63.01539 m 15.75384,0 h 31.5077 m 126.03076,0 h 31.5077 m 15.75384,0 h 15.75385 m 31.50769,0 h 15.75385 m 15.75384,0 H 1014.4 m 15.7538,0 h 31.5077 m 15.7539,0 h 31.5077 m 47.2615,0 h 15.7539 m 15.7538,0 h 15.7539 m 15.7538,0 h 31.5077 m 15.7538,0 h 63.0154 M 400,833.23077 h 31.50769 m 31.50769,0 h 15.75385 m 94.52308,0 h 63.01538 m 31.50769,0 h 15.75385 m 31.50769,0 h 47.26154 m 47.26154,0 h 31.50769 m 15.75385,0 h 15.75384 m 15.75385,0 h 15.75385 m 15.75384,0 h 47.26154 m 47.26154,0 h 15.7538 m 15.7539,0 h 15.7538 m 31.5077,0 h 15.7539 m 31.5077,0 h 31.5077 m 15.7538,0 h 47.2615 m 15.7539,0 h 47.2615 m 31.5077,0 h 15.7539 m 15.7538,0 h 15.7539 m 15.7538,0 H 1424 M 400,848.98462 h 15.75385 m 47.26153,0 h 47.26154 m 78.76923,0 h 78.76923 m 63.01539,0 h 15.75385 m 78.76923,0 h 15.75384 m 47.26154,0 h 31.50769 m 47.26154,0 h 15.75385 m 78.76919,0 h 31.5077 m 63.0154,0 h 31.5077 m 15.7539,0 H 1219.2 m 63.0154,0 h 15.7538 m 31.5077,0 h 31.5077 m 15.7539,0 h 31.5077 m -992.49235,15.75384 h 31.50769 m 15.75384,0 h 15.75385 m 31.50769,0 h 15.75385 m 15.75385,0 H 604.8 m 15.75385,0 h 63.01538 m 94.52308,0 h 63.01538 m 15.75385,0 h 15.75384 m 15.75385,0 h 15.75385 m 15.75384,0 h 31.5077 m 15.75384,0 h 31.50769 m 15.75385,0 h 63.0154 m 63.0154,0 h 31.5077 m 31.5077,0 h 78.7692 m 47.2615,0 h 31.5077 m 47.2616,0 H 1424 M 415.75385,880.49231 h 126.03077 m 63.01538,0 h 15.75385 m 15.75384,0 h 15.75385 m 15.75384,0 h 15.75385 m 31.50769,0 h 31.5077 m 94.52307,0 h 110.27693 m 15.75384,0 h 15.75385 m 15.75384,0 H 1014.4 m 63.0154,0 h 15.7538 m 15.7539,0 h 31.5077 m 15.7538,0 h 15.7539 m 15.7538,0 h 47.2615 m 47.2616,0 h 78.7692 m 15.7539,0 h 15.7538 M 400,896.24615 h 15.75385 m 15.75384,0 h 15.75385 m 15.75384,0 h 15.75385 m 47.26154,0 h 31.50769 m 31.50769,0 h 78.76923 m 15.75385,0 h 15.75385 m 15.75384,0 h 15.75385 m 15.75385,0 h 15.75384 m 15.75385,0 h 15.75384 m 31.5077,0 h 15.75384 m 31.50769,0 h 15.75385 m 47.26154,0 h 47.26154 m 31.50769,0 h 126.0308 m 63.0154,0 H 1219.2 m 15.7538,0 h 15.7539 m 31.5077,0 h 15.7538 m 47.2616,0 h 31.5077 m 31.5077,0 H 1424 M 400,912 h 78.76923 m 15.75385,0 h 15.75384 m 15.75385,0 h 31.50769 m 15.75385,0 H 604.8 m 31.50769,0 h 47.26154 m 63.01539,0 h 15.75384 m 15.75385,0 h 15.75384 M 809.6,912 h 31.50769 m 15.75385,0 h 31.50769 m 15.75385,0 h 15.75384 m 15.75385,0 h 15.75385 m 15.75384,0 h 31.50769 m 63.01535,0 h 31.5077 m 15.7539,0 h 15.7538 m 15.7539,0 h 31.5077 m 15.7538,0 h 15.7539 m 15.7538,0 h 47.2615 m 15.7539,0 h 15.7538 m 15.7539,0 h 15.7538 m 15.7539,0 h 15.7538 m 15.7539,0 h 15.7538 m 15.7539,0 H 1424 M 415.75385,927.75385 h 31.50769 m 15.75384,0 h 15.75385 m 47.26154,0 h 31.50769 m 31.50769,0 h 63.01539 m 47.26154,0 h 63.01538 m 15.75385,0 h 15.75384 m 31.5077,0 h 31.50769 m 15.75384,0 h 15.75385 m 47.26154,0 h 47.26154 m 15.75384,0 h 110.27695 m 63.0154,0 h 15.7538 m 15.7539,0 h 63.0153 m 15.7539,0 h 15.7538 m 47.2616,0 h 15.7538 m 15.7539,0 h 15.7538 m 15.7539,0 H 1424 M 400,943.50769 h 47.26154 m 15.75384,0 h 78.76924 m 47.26153,0 H 604.8 m 15.75385,0 h 15.75384 m 31.50769,0 h 31.5077 m 15.75384,0 h 47.26154 m 31.50769,0 H 809.6 m 15.75385,0 h 15.75384 m 31.50769,0 h 94.52308 m 47.26154,0 h 47.2615 m 15.7539,0 h 63.0154 m 15.7538,0 h 15.7539 m 15.7538,0 h 15.7539 m 15.7538,0 h 15.7538 m 31.5077,0 h 110.277 M 400,959.26154 h 63.01538 m 47.26154,0 h 15.75385 m 47.26154,0 H 604.8 m 15.75385,0 h 31.50769 m 15.75384,0 h 15.75385 m 15.75385,0 h 15.75384 m 31.5077,0 h 15.75384 m 15.75385,0 h 63.01538 m 15.75385,0 h 15.75384 m 15.75385,0 h 31.50769 m 78.76923,0 H 1014.4 m 15.7538,0 h 15.7539 m 15.7538,0 h 15.7539 m 15.7538,0 h 15.7539 m 31.5077,0 h 15.7538 m 15.7539,0 h 15.7538 m 31.5077,0 h 110.2769 m -913.72305,15.75384 h 15.75384 m 47.26154,0 h 31.50769 m 31.5077,0 h 47.26153 m 31.5077,0 h 15.75384 m 15.75385,0 h 15.75384 m 47.26154,0 h 47.26154 m 63.01539,0 h 31.50769 m 78.76923,0 h 15.75385 m 31.50769,0 h 63.01539 m 94.5231,0 h 31.5077 m 31.5077,0 H 1219.2 m 78.7692,0 h 47.2616 m 31.5077,0 h 15.7538 m 15.7539,0 H 1424 M 400,990.76923 h 63.01538 m 78.76924,0 h 15.75384 m 15.75385,0 h 47.26154 m 47.26153,0 h 15.75385 m 15.75385,0 h 15.75384 m 47.26154,0 h 31.50769 m 47.26154,0 h 31.50769 m 63.01539,0 h 15.75385 m 15.75384,0 h 78.76924 m 31.5077,0 h 15.7538 m 47.2616,0 h 47.2615 m 47.2615,0 h 31.5077 m 15.7539,0 H 1424 M 415.75385,1006.5231 h 47.26153 m 15.75385,0 h 31.50769 m 15.75385,0 h 15.75385 m 47.26153,0 H 604.8 m 63.01538,0 h 31.5077 m 31.50769,0 h 47.26154 m 15.75384,0 H 809.6 m 15.75385,0 h 15.75384 m 15.75385,0 h 15.75384 m 31.5077,0 h 31.50769 m 47.26154,0 h 47.26149 m 15.7539,0 h 47.2615 m 15.7539,0 h 94.5231 m 31.5076,0 h 15.7539 m 31.5077,0 h 15.7538 m 31.5077,0 h 47.2616 m 15.7538,0 h 15.7539 m -992.49235,15.7538 h 15.75384 m 47.26154,0 h 15.75385 m 15.75384,0 h 15.75385 m 31.50769,0 h 31.50769 m 15.75385,0 h 15.75385 m 63.01538,0 h 15.75385 m 15.75384,0 h 15.75385 m 47.26154,0 h 15.75384 m 15.75385,0 h 15.75385 m 15.75384,0 h 15.75385 m 47.26154,0 h 47.26154 m 110.27688,0 h 15.7539 m 15.7538,0 h 15.7539 m 31.5077,0 h 15.7538 m 15.7539,0 h 31.5077 m 15.7538,0 h 31.5077 m 15.7538,0 h 15.7539 m 15.7538,0 h 78.7693 M 400,1038.0308 h 110.27692 m 94.52308,0 h 31.50769 m 31.50769,0 h 15.75385 m 31.50769,0 h 15.75385 m 63.01538,0 h 78.76923 m 78.76924,0 h 15.75384 m 31.50769,0 H 1014.4 m 31.5077,0 h 15.7538 m 78.7693,0 h 31.5077 m 110.2769,0 h 15.7538 m 63.0154,0 h 47.2616 M 400,1053.7846 h 31.50769 m 31.50769,0 h 31.5077 m 63.01538,0 h 15.75385 m 31.50769,0 h 15.75385 m 157.53846,0 h 47.26154 m 31.50769,0 h 15.75384 m 15.75385,0 h 31.50769 m 63.01539,0 h 15.75384 m 15.75385,0 h 15.7538 m 47.2616,0 h 47.2615 m 15.7539,0 h 47.2615 m 47.2615,0 h 31.5077 m 15.7539,0 h 31.5077 m 15.7538,0 h 31.5077 m 47.2616,0 H 1424 m -976.73846,15.7539 h 15.75384 m 31.5077,0 h 15.75384 m 15.75385,0 h 15.75385 m 31.50769,0 H 604.8 m 63.01538,0 h 31.5077 m 15.75384,0 h 15.75385 m 15.75385,0 h 15.75384 m 15.75385,0 h 15.75384 m 15.75385,0 h 15.75385 m 47.26153,0 h 31.5077 m 31.50769,0 h 47.26154 m 15.75384,0 H 1014.4 m 15.7538,0 h 31.5077 m 15.7539,0 h 15.7538 m 31.5077,0 h 31.5077 m 15.7539,0 h 31.5077 m 157.5384,0 h 31.5077 m -960.98461,15.7538 h 15.75385 m 15.75384,0 h 15.75385 m 31.50769,0 h 31.5077 m 47.26153,0 h 31.5077 m 15.75384,0 h 15.75385 m 15.75384,0 h 47.26154 m 15.75385,0 h 31.50769 m 31.50769,0 h 47.26154 m 31.50769,0 h 31.5077 m 31.50769,0 h 47.26154 m 15.75384,0 h 47.26155 m 78.7692,0 h 15.7539 m 78.7692,0 h 15.7538 m 15.7539,0 h 47.2615 m 15.7539,0 h 63.0154 m 31.5077,0 H 1424 m -976.73846,15.7539 h 15.75384 m 15.75385,0 h 63.01539 m 78.76923,0 h 78.76923 m 47.26154,0 h 31.50769 m 15.75384,0 H 809.6 m 15.75385,0 h 15.75384 m 15.75385,0 h 31.50769 m 31.50769,0 h 15.75385 m 47.26154,0 h 15.75384 m 31.50765,0 h 63.0154 m 15.7539,0 h 78.7692 m 126.0308,0 h 31.5077 m 31.5077,0 h 31.5077 M 400,1116.8 h 15.75385 m 63.01538,0 h 15.75385 m 15.75384,0 h 15.75385 m 47.26154,0 h 15.75384 m 15.75385,0 h 15.75385 m 15.75384,0 h 15.75385 m 15.75384,0 h 31.5077 m 15.75384,0 h 47.26154 m 31.50769,0 h 31.5077 m 15.75384,0 h 63.01539 m 47.26154,0 h 15.75384 m 31.50769,0 h 47.26155 m 31.5077,0 h 31.5077 m 31.5077,0 h 47.2615 m 47.2615,0 h 31.5077 m 15.7539,0 h 15.7538 m 47.2616,0 h 15.7538 m 47.2616,0 H 1424 m -1024,15.7538 h 15.75385 m 15.75384,0 h 15.75385 m 15.75384,0 h 94.52308 m 15.75385,0 h 78.76923 m 15.75384,0 h 78.76924 m 15.75384,0 h 15.75385 m 31.50769,0 h 15.75385 m 15.75384,0 h 15.75385 m 15.75384,0 h 63.01539 m 15.75385,0 h 47.26153 m 31.50765,0 h 15.7539 m 15.7538,0 h 15.7539 m 31.5077,0 h 31.5077 m 47.2615,0 h 15.7539 m 78.7692,0 h 15.7538 m 31.5077,0 h 31.5077 m 15.7539,0 h 15.7538 m -976.73845,15.7539 h 15.75384 m 15.75385,0 h 31.50769 m 31.50769,0 h 31.5077 m 47.26153,0 h 31.5077 m 47.26153,0 h 15.75385 m 31.50769,0 h 15.75385 m 15.75385,0 h 94.52307 m 15.75385,0 h 31.50769 m 15.75385,0 h 15.75384 m 15.75385,0 h 15.75385 m 15.75384,0 h 15.75385 m 31.50769,0 h 47.2615 m 15.7539,0 h 31.5077 m 15.7538,0 h 31.5077 m 15.7539,0 h 15.7538 m 15.7539,0 h 94.523 m 15.7539,0 h 63.0154 m -960.98465,15.7538 h 47.26153 m 15.75385,0 h 31.50769 m 15.75385,0 h 63.01538 m 78.76923,0 h 15.75385 m 15.75385,0 h 47.26154 m 47.26153,0 H 809.6 m 31.50769,0 h 31.50769 m 47.26154,0 h 31.5077 m 31.50769,0 H 1014.4 m 63.0154,0 h 15.7538 m 15.7539,0 h 15.7538 m 15.7539,0 h 47.2615 m 63.0154,0 h 15.7538 m 47.2616,0 h 15.7538 m 47.2616,0 h 15.7538 m 15.7539,0 H 1424 m -960.98462,15.7539 h 15.75385 m 31.50769,0 h 31.5077 m 15.75384,0 h 31.50769 m 15.75385,0 h 47.26154 m 47.26154,0 h 15.75384 m 47.26154,0 h 15.75385 m 78.76923,0 h 15.75384 m 31.5077,0 h 31.50769 m 78.76923,0 h 31.5077 m 15.7538,0 h 31.5077 m 63.0154,0 h 31.5077 m 15.7539,0 h 31.5076 m 15.7539,0 h 15.7538 m 15.7539,0 h 47.2615 m 15.7539,0 H 1424 m -1024,15.7538 h 31.50769 m 31.50769,0 h 15.75385 m 15.75385,0 h 15.75384 m 63.01539,0 h 15.75384 m 15.75385,0 h 15.75385 m 15.75384,0 h 31.50769 m 15.75385,0 h 31.50769 m 47.26154,0 h 31.50769 m 15.75385,0 h 31.50769 m 31.50769,0 h 15.75385 m 15.75385,0 h 15.75384 m 31.5077,0 h 15.75384 m 15.75385,0 h 15.75384 m 31.50765,0 h 31.5077 m 15.7539,0 h 15.7538 m 15.7539,0 h 31.5077 m 15.7538,0 h 15.7539 m 15.7538,0 H 1219.2 m 47.2615,0 h 15.7539 m 47.2615,0 h 15.7539 m 15.7538,0 h 15.7539 m -913.72312,15.7539 h 15.75385 m 78.76923,0 h 15.75385 m 15.75384,0 h 47.26154 m 15.75385,0 h 47.26154 m 15.75384,0 h 15.75385 m 31.50769,0 h 15.75385 m 47.26154,0 h 78.76923 m 15.75384,0 h 15.75385 m 15.75385,0 h 15.75384 m 63.01534,0 h 31.5077 m 31.5077,0 h 15.7539 m 31.5077,0 h 15.7538 m 15.7539,0 h 15.7538 m 31.5077,0 h 157.5385 M 400,1227.0769 h 15.75385 m 15.75384,0 h 94.52308 m 31.50769,0 h 31.50769 m 47.26154,0 h 15.75385 m 47.26154,0 h 63.01538 m 15.75385,0 h 141.78461 m 31.5077,0 h 31.50769 m 31.50769,0 h 15.7538 m 47.2616,0 h 15.7538 m 15.7539,0 h 15.7538 m 15.7539,0 h 31.5077 m 63.0153,0 h 31.5077 m 31.5077,0 h 15.7539 m 15.7538,0 h 15.7539 m 31.5077,0 H 1424 m -1008.24615,15.7539 h 47.26153 m 47.26154,0 h 63.01539 m 15.75384,0 h 47.26154 m 78.76923,0 h 31.5077 m 15.75384,0 h 31.50769 m 15.75385,0 h 15.75385 m 47.26153,0 h 47.26154 m 15.75385,0 h 15.75385 m 31.50769,0 H 1014.4 m 31.5077,0 h 15.7538 m 15.7539,0 h 15.7538 m 47.2616,0 h 47.2615 m 15.7539,0 H 1219.2 m 31.5077,0 H 1424 m -992.49231,15.7538 h 31.50769 m 15.75385,0 h 31.50769 m 15.75385,0 h 15.75385 m 31.50769,0 h 47.26154 m 31.50769,0 h 31.50769 m 15.75385,0 h 15.75384 m 63.01539,0 h 15.75384 m 31.5077,0 h 78.76923 m 15.75384,0 h 47.26154 m 31.50769,0 H 1014.4 m 31.5077,0 h 15.7538 m 78.7693,0 h 94.523 m 15.7539,0 h 15.7538 m 63.0154,0 h 31.5077 m 15.7539,0 h 15.7538 M 400,1274.3385 h 15.75385 m 31.50769,0 h 15.75384 m 78.76924,0 h 15.75384 m 47.26154,0 h 31.50769 m 31.50769,0 h 15.75385 m 94.52308,0 h 15.75384 m 15.75385,0 h 15.75385 m 47.26153,0 h 15.75385 m 31.50769,0 h 15.75385 m 15.75385,0 h 47.26153 m 47.26155,0 h 15.7538 m 15.7539,0 h 31.5077 m 15.7538,0 h 15.7539 m 31.5077,0 h 94.523 m 15.7539,0 h 47.2615 m 15.7539,0 h 31.5077 m -960.98465,15.7538 h 31.50769 m 15.75384,0 h 15.75385 m 15.75385,0 h 15.75384 m 31.5077,0 h 15.75384 m 94.52308,0 h 15.75384 m 15.75385,0 h 15.75385 m 31.50769,0 h 220.55385 m 31.50769,0 h 47.26149 m 15.7539,0 h 15.7538 m 15.7539,0 h 15.7538 m 15.7539,0 h 63.0154 m 15.7538,0 H 1219.2 m 15.7538,0 h 15.7539 m 31.5077,0 h 78.7692 m 15.7539,0 H 1424 m -897.96923,15.7539 h 15.75385 m 47.26153,0 h 47.26154 m 63.01539,0 h 15.75384 m 47.26154,0 h 31.50769 m 15.75385,0 h 15.75385 m 47.26153,0 h 15.75385 m 47.26154,0 h 15.75385 m 15.75384,0 h 31.50769 m 31.50765,0 h 31.5077 m 110.277,0 h 31.5077 m 15.7538,0 h 15.7538 m 15.7539,0 h 15.7538 m 15.7539,0 h 15.7538 m 47.2616,0 H 1424 M 400,1321.6 h 110.27692 m 31.5077,0 h 31.50769 m 94.52307,0 h 15.75385 m 31.50769,0 h 15.75385 m 63.01538,0 H 809.6 m 31.50769,0 h 47.26154 m 15.75385,0 h 15.75384 m 15.75385,0 h 15.75385 m 15.75384,0 h 31.50769 m 15.75385,0 h 15.7538 m 31.5077,0 h 94.5231 m 78.7692,0 h 15.7539 m 15.7538,0 h 31.5077 m 15.7539,0 h 15.7538 m 15.7539,0 h 15.7538 M 400,1337.3538 h 15.75385 m 78.76923,0 h 15.75384 m 47.26154,0 h 15.75385 m 31.50769,0 h 31.50769 m 15.75385,0 h 31.50769 m 47.26154,0 h 47.26154 m 15.75384,0 H 809.6 m 31.50769,0 h 15.75385 m 15.75384,0 h 15.75385 m 47.26154,0 h 47.26154 m 31.50769,0 h 31.5077 m 47.2615,0 h 31.5077 m 15.7539,0 h 15.7538 m 15.7539,0 h 31.5077 m 15.7538,0 h 15.7538 m 15.7539,0 h 15.7538 m 15.7539,0 h 15.7538 m 47.2616,0 h 31.5077 m 15.7538,0 h 15.7539 M 400,1353.1077 h 15.75385 m 15.75384,0 h 47.26154 m 15.75385,0 h 15.75384 m 15.75385,0 h 31.50769 m 15.75385,0 h 15.75384 m 15.75385,0 h 15.75385 m 15.75384,0 h 31.50769 m 15.75385,0 h 31.50769 m 15.75385,0 h 31.50769 m 15.75385,0 H 809.6 m 63.01538,0 h 78.76924 m 31.50769,0 H 1014.4 m 15.7538,0 h 15.7539 m 15.7538,0 h 31.5077 m 47.2616,0 h 63.0154 m 31.5076,0 h 15.7539 m 31.5077,0 h 78.7692 m 15.7539,0 H 1424 m -1024,15.7538 h 15.75385 m 15.75384,0 h 47.26154 m 15.75385,0 h 15.75384 m 15.75385,0 h 15.75385 m 63.01538,0 h 47.26154 m 15.75384,0 h 15.75385 m 47.26154,0 h 15.75385 m 31.50769,0 h 78.76923 m 47.26154,0 h 31.50769 m 15.75385,0 h 110.27688 m 15.7539,0 h 47.2615 m 15.7539,0 h 15.7538 m 15.7539,0 h 15.7538 m 15.7539,0 h 94.523 m 47.2616,0 h 63.0154 M 400,1384.6154 h 15.75385 m 15.75384,0 h 47.26154 m 15.75385,0 h 15.75384 m 15.75385,0 h 141.78461 m 15.75385,0 h 15.75385 m 31.50769,0 h 15.75385 m 15.75384,0 h 31.50769 m 31.5077,0 h 15.75384 m 63.01539,0 h 31.50769 m 15.75385,0 h 15.75384 m 31.50769,0 h 47.26155 m 31.5077,0 h 31.5077 m 31.5077,0 h 15.7538 m 31.5077,0 H 1219.2 m 47.2615,0 h 15.7539 m 47.2615,0 h 78.7693 M 400,1400.3692 h 15.75385 m 78.76923,0 h 15.75384 m 31.5077,0 h 31.50769 m 31.50769,0 h 31.50769 m 15.75385,0 h 31.50769 m 15.75385,0 h 141.78461 m 15.75385,0 h 31.50769 m 63.01539,0 h 31.50769 m 15.75384,0 H 1014.4 m 78.7692,0 h 15.7539 m 63.0154,0 h 15.7538 m 31.5077,0 h 15.7538 m 15.7539,0 h 15.7538 m 31.5077,0 h 15.7539 m 47.2615,0 h 15.7539 m 15.7538,0 h 15.7539 M 400,1416.1231 h 110.27692 m 31.5077,0 h 15.75384 m 63.01539,0 h 15.75384 m 31.50769,0 h 15.75385 m 15.75385,0 h 31.50769 m 15.75385,0 h 31.50769 m 47.26154,0 h 15.75384 m 15.75385,0 h 31.50769 m 47.26154,0 h 15.75385 m 15.75384,0 H 1014.4 m 15.7538,0 h 15.7539 m 15.7538,0 h 31.5077 m 15.7539,0 h 15.7538 m 15.7539,0 h 47.2615 m 15.7539,0 H 1219.2 m 15.7538,0 h 15.7539 m 15.7538,0 h 15.7539 m 31.5077,0 h 15.7538 m 15.7539,0 h 47.2615"
     id="path4"
     style="stroke-width:15.7538" />
</svg>
