<?xml version="1.0" encoding="UTF-8"?>
<svg xmlns="http://www.w3.org/2000/svg" height="7300" width="7300" class="pyqrcode"><path fill="white" d="M0 0h7300v7300h-7300z"/><path transform="scale(100)" stroke="black" class="pyqrline" d="M4 4.5h7m1 0h1m1 0h1m1 0h1m2 0h2m1 0h1m2 0h1m3 0h1m1 0h4m4 0h5m1 0h2m1 0h1m2 0h3m1 0h1m3 0h1m2 0h7m-65 1h1m5 0h1m1 0h1m1 0h1m1 0h2m2 0h1m1 0h4m3 0h2m5 0h3m1 0h1m2 0h1m2 0h1m1 0h3m3 0h4m2 0h1m1 0h1m5 0h1m-65 1h1m1 0h3m1 0h1m1 0h1m1 0h3m3 0h5m1 0h2m3 0h3m2 0h1m1 0h3m2 0h1m5 0h1m5 0h2m1 0h1m1 0h1m1 0h1m1 0h3m1 0h1m-65 1h1m1 0h3m1 0h1m4 0h1m3 0h2m2 0h5m2 0h1m1 0h1m1 0h2m3 0h1m3 0h2m1 0h1m1 0h2m2 0h2m3 0h3m2 0h1m1 0h3m1 0h1m-65 1h1m1 0h3m1 0h1m4 0h1m1 0h1m3 0h1m3 0h4m1 0h1m1 0h1m1 0h5m5 0h5m2 0h1m1 0h1m3 0h1m2 0h1m1 0h1m1 0h3m1 0h1m-65 1h1m5 0h1m1 0h1m1 0h2m1 0h3m3 0h3m2 0h1m2 0h1m2 0h1m3 0h1m2 0h4m1 0h2m1 0h2m1 0h3m3 0h1m3 0h1m5 0h1m-65 1h7m1 0h1m1 0h1m1 0h1m1 0h1m1 0h1m1 0h1m1 0h1m1 0h1m1 0h1m1 0h1m1 0h1m1 0h1m1 0h1m1 0h1m1 0h1m1 0h1m1 0h1m1 0h1m1 0h1m1 0h1m1 0h1m1 0h1m1 0h1m1 0h1m1 0h1m1 0h7m-57 1h2m2 0h3m2 0h1m1 0h1m1 0h3m1 0h1m1 0h1m2 0h1m3 0h1m3 0h1m1 0h1m2 0h1m1 0h1m1 0h1m4 0h3m1 0h1m-55 1h3m1 0h1m1 0h1m1 0h1m1 0h5m1 0h2m1 0h1m2 0h1m1 0h1m2 0h6m1 0h1m1 0h3m1 0h1m3 0h5m2 0h7m2 0h3m-63 1h1m1 0h2m2 0h1m1 0h2m2 0h2m1 0h2m3 0h3m2 0h3m1 0h2m2 0h2m3 0h1m1 0h2m3 0h3m1 0h1m1 0h3m1 0h1m4 0h1m1 0h1m-65 1h2m1 0h1m2 0h2m2 0h1m3 0h1m2 0h1m3 0h5m1 0h1m1 0h1m2 0h4m1 0h2m1 0h1m1 0h1m3 0h1m1 0h1m7 0h6m1 0h1m-64 1h1m1 0h1m1 0h2m4 0h2m1 0h2m3 0h2m2 0h1m1 0h1m2 0h1m1 0h3m1 0h1m2 0h2m2 0h2m2 0h2m1 0h1m4 0h1m2 0h1m1 0h1m1 0h1m1 0h1m1 0h1m-63 1h1m1 0h5m1 0h1m4 0h1m1 0h5m2 0h2m2 0h3m1 0h1m1 0h2m2 0h1m1 0h1m2 0h2m3 0h3m3 0h2m1 0h5m1 0h1m-62 1h1m3 0h1m1 0h1m2 0h2m1 0h1m2 0h1m2 0h1m8 0h3m2 0h2m4 0h2m1 0h3m2 0h2m2 0h4m4 0h2m3 0h1m-65 1h1m1 0h1m3 0h1m1 0h4m1 0h2m1 0h1m6 0h1m1 0h1m1 0h2m1 0h4m1 0h1m1 0h2m3 0h8m3 0h1m1 0h1m2 0h3m-60 1h2m4 0h1m1 0h2m2 0h2m5 0h1m5 0h1m1 0h3m1 0h2m2 0h6m1 0h2m1 0h1m2 0h2m1 0h2m2 0h1m4 0h1m2 0h1m-65 1h1m1 0h1m1 0h1m1 0h1m1 0h2m2 0h4m1 0h1m3 0h2m3 0h1m2 0h2m1 0h1m1 0h2m1 0h1m1 0h3m1 0h1m1 0h6m2 0h1m6 0h1m1 0h1m1 0h1m-64 1h1m1 0h1m1 0h1m1 0h2m1 0h1m1 0h2m1 0h2m1 0h4m2 0h1m1 0h1m1 0h1m1 0h3m2 0h1m1 0h1m5 0h1m2 0h1m4 0h1m1 0h3m1 0h1m1 0h3m-61 1h4m1 0h3m1 0h2m1 0h2m2 0h1m2 0h1m1 0h1m5 0h1m1 0h2m1 0h4m2 0h1m1 0h1m1 0h1m1 0h1m2 0h1m1 0h1m5 0h1m1 0h3m2 0h2m-57 1h1m1 0h1m3 0h1m2 0h1m1 0h2m1 0h1m1 0h3m1 0h3m1 0h1m2 0h3m2 0h1m3 0h1m2 0h1m2 0h3m1 0h1m2 0h1m3 0h1m1 0h1m-62 1h2m1 0h3m1 0h5m3 0h2m4 0h3m2 0h1m1 0h1m5 0h1m6 0h1m3 0h3m1 0h1m2 0h3m1 0h1m1 0h2m1 0h1m-64 1h1m2 0h1m1 0h1m1 0h1m1 0h1m1 0h1m2 0h4m2 0h1m2 0h3m1 0h1m7 0h4m1 0h1m1 0h1m1 0h1m4 0h1m1 0h4m4 0h1m1 0h1m1 0h2m-65 1h3m3 0h1m1 0h3m1 0h1m1 0h2m1 0h1m5 0h1m1 0h1m1 0h2m2 0h1m3 0h1m5 0h4m1 0h2m2 0h4m1 0h1m1 0h1m1 0h3m1 0h1m-63 1h4m2 0h2m3 0h1m1 0h1m4 0h4m3 0h1m3 0h2m3 0h1m1 0h1m1 0h1m7 0h1m1 0h4m1 0h1m1 0h2m1 0h1m-60 1h2m1 0h2m1 0h3m2 0h4m3 0h1m1 0h2m3 0h1m1 0h1m1 0h2m5 0h1m2 0h2m1 0h4m1 0h4m2 0h4m2 0h4m1 0h1m-65 1h1m1 0h4m1 0h2m1 0h1m2 0h1m1 0h3m2 0h2m1 0h3m1 0h4m1 0h2m1 0h1m2 0h5m1 0h1m2 0h2m2 0h1m1 0h3m4 0h1m2 0h2m-62 1h5m1 0h1m3 0h1m1 0h4m1 0h2m8 0h2m1 0h1m2 0h1m1 0h1m1 0h2m1 0h2m3 0h1m1 0h1m1 0h2m1 0h4m-59 1h2m2 0h1m6 0h4m2 0h1m2 0h3m3 0h2m1 0h1m1 0h1m1 0h3m3 0h1m1 0h1m2 0h1m2 0h2m1 0h3m1 0h3m2 0h1m1 0h1m1 0h2m-65 1h1m3 0h3m5 0h5m4 0h1m5 0h1m3 0h2m3 0h1m5 0h2m4 0h2m1 0h1m4 0h1m2 0h2m1 0h2m-63 1h2m1 0h1m2 0h1m1 0h4m1 0h4m6 0h4m1 0h1m1 0h1m1 0h2m1 0h2m1 0h4m4 0h2m2 0h5m3 0h2m3 0h1m-64 1h8m4 0h1m1 0h1m1 0h1m2 0h2m6 0h7m1 0h1m1 0h1m4 0h1m1 0h2m1 0h1m1 0h3m3 0h5m1 0h1m-63 1h1m1 0h1m1 0h1m3 0h2m2 0h5m1 0h1m1 0h1m1 0h1m1 0h1m2 0h1m2 0h1m3 0h3m2 0h8m4 0h1m1 0h1m2 0h1m3 0h2m2 0h1m-65 1h5m1 0h1m1 0h2m1 0h2m2 0h3m4 0h1m1 0h1m1 0h2m1 0h2m1 0h1m1 0h1m1 0h2m4 0h2m1 0h1m1 0h2m1 0h1m1 0h3m1 0h1m1 0h1m1 0h1m1 0h1m1 0h1m-64 1h2m1 0h1m3 0h2m2 0h4m3 0h4m1 0h1m2 0h2m1 0h1m3 0h3m1 0h7m4 0h1m1 0h4m1 0h1m3 0h1m1 0h1m1 0h1m-65 1h3m1 0h5m3 0h1m1 0h1m2 0h2m1 0h3m2 0h1m1 0h1m2 0h6m3 0h3m1 0h4m1 0h1m1 0h1m1 0h1m2 0h7m-62 1h4m3 0h1m3 0h2m1 0h2m1 0h1m1 0h1m2 0h1m1 0h4m1 0h1m1 0h2m5 0h1m1 0h1m1 0h1m1 0h1m2 0h1m1 0h1m2 0h7m-58 1h1m3 0h2m2 0h3m2 0h1m1 0h1m3 0h3m4 0h2m5 0h1m2 0h4m6 0h2m2 0h1m5 0h3m2 0h1m1 0h1m-65 1h4m5 0h1m1 0h3m3 0h1m1 0h1m3 0h2m3 0h2m4 0h1m1 0h5m2 0h1m3 0h3m3 0h2m1 0h9m-64 1h3m1 0h2m1 0h1m3 0h1m4 0h2m2 0h3m1 0h1m1 0h1m1 0h1m2 0h2m3 0h3m1 0h3m1 0h6m2 0h1m2 0h1m2 0h3m1 0h1m-63 1h1m3 0h1m1 0h1m2 0h2m1 0h1m4 0h1m1 0h1m3 0h1m1 0h1m1 0h1m3 0h3m7 0h1m1 0h1m2 0h1m1 0h2m1 0h2m1 0h1m1 0h5m-62 1h7m6 0h2m2 0h1m2 0h1m4 0h5m5 0h1m2 0h1m2 0h1m5 0h2m7 0h1m4 0h3m-64 1h2m2 0h2m4 0h1m2 0h1m10 0h3m2 0h1m1 0h2m4 0h1m1 0h1m3 0h3m1 0h3m3 0h2m1 0h2m1 0h2m3 0h1m-62 1h1m2 0h1m1 0h1m2 0h2m4 0h2m1 0h1m1 0h1m1 0h1m1 0h1m3 0h2m2 0h3m1 0h1m1 0h2m1 0h1m2 0h2m1 0h2m10 0h2m-61 1h1m1 0h1m2 0h2m3 0h2m1 0h1m1 0h3m1 0h2m2 0h3m2 0h2m2 0h3m1 0h3m5 0h1m5 0h1m1 0h3m1 0h4m2 0h1m-62 1h1m1 0h4m5 0h5m3 0h2m1 0h1m1 0h1m1 0h2m2 0h1m3 0h1m2 0h4m1 0h5m8 0h2m2 0h2m-64 1h1m4 0h1m1 0h1m3 0h1m1 0h1m1 0h1m1 0h2m1 0h3m2 0h2m1 0h4m3 0h1m2 0h3m2 0h2m2 0h3m3 0h2m1 0h1m3 0h1m3 0h1m-65 1h1m1 0h1m1 0h6m1 0h5m1 0h5m1 0h1m2 0h1m1 0h1m1 0h4m1 0h3m2 0h1m1 0h1m2 0h2m3 0h1m5 0h1m2 0h2m1 0h1m-62 1h1m1 0h2m2 0h2m3 0h2m3 0h1m2 0h1m1 0h6m1 0h2m1 0h1m1 0h1m1 0h1m2 0h3m1 0h2m1 0h2m1 0h1m1 0h6m1 0h4m-61 1h3m1 0h2m1 0h4m5 0h1m1 0h3m3 0h1m2 0h2m3 0h2m2 0h2m4 0h1m1 0h1m1 0h3m4 0h1m3 0h1m3 0h1m1 0h1m-61 1h1m2 0h2m1 0h2m1 0h3m3 0h1m3 0h1m5 0h1m2 0h2m5 0h2m1 0h2m4 0h2m1 0h2m1 0h1m1 0h3m1 0h5m-65 1h2m2 0h1m1 0h1m4 0h1m1 0h1m1 0h2m1 0h2m3 0h2m1 0h2m2 0h1m1 0h1m2 0h1m1 0h1m2 0h2m1 0h1m1 0h2m1 0h1m1 0h2m3 0h1m3 0h1m1 0h1m-58 1h1m5 0h1m1 0h3m1 0h3m1 0h1m2 0h1m3 0h5m1 0h1m1 0h1m4 0h2m2 0h1m2 0h1m1 0h1m2 0h10m-62 1h1m1 0h6m2 0h2m3 0h1m3 0h4m1 0h9m2 0h2m2 0h1m3 0h1m1 0h1m1 0h2m4 0h2m2 0h1m1 0h1m2 0h3m-64 1h3m3 0h4m1 0h3m5 0h2m1 0h2m1 0h1m3 0h3m1 0h1m2 0h2m2 0h1m1 0h1m3 0h3m1 0h1m2 0h11m-63 1h2m1 0h2m1 0h1m2 0h3m2 0h2m1 0h1m4 0h1m2 0h5m1 0h3m2 0h1m2 0h1m5 0h6m1 0h1m4 0h2m1 0h1m-63 1h1m2 0h1m5 0h1m3 0h2m2 0h1m6 0h1m1 0h1m3 0h1m2 0h1m1 0h3m3 0h1m1 0h2m1 0h1m2 0h6m1 0h3m1 0h2m-61 1h2m1 0h1m1 0h1m2 0h1m6 0h1m1 0h1m2 0h14m2 0h3m1 0h1m1 0h1m1 0h4m1 0h2m1 0h1m2 0h5m1 0h3m-57 1h1m3 0h3m4 0h1m3 0h2m1 0h1m3 0h1m3 0h1m1 0h2m2 0h2m7 0h2m1 0h1m1 0h1m1 0h1m3 0h5m-65 1h7m2 0h2m6 0h1m2 0h1m4 0h1m2 0h3m1 0h1m1 0h1m1 0h2m1 0h1m2 0h6m5 0h1m1 0h2m1 0h1m1 0h1m-61 1h1m5 0h1m3 0h1m2 0h2m1 0h2m3 0h3m1 0h1m2 0h1m1 0h1m3 0h3m2 0h2m3 0h2m1 0h1m1 0h2m1 0h1m1 0h1m1 0h1m3 0h2m1 0h1m-64 1h1m1 0h3m1 0h1m1 0h2m1 0h1m1 0h1m1 0h2m1 0h2m1 0h2m1 0h2m4 0h5m2 0h2m1 0h1m1 0h2m3 0h4m2 0h1m2 0h5m1 0h3m-65 1h1m1 0h3m1 0h1m1 0h1m4 0h3m1 0h1m3 0h1m2 0h5m3 0h2m1 0h7m1 0h3m1 0h1m1 0h1m1 0h6m3 0h4m-64 1h1m1 0h3m1 0h1m1 0h9m1 0h1m2 0h1m1 0h2m2 0h1m4 0h2m1 0h1m2 0h3m2 0h2m2 0h1m2 0h2m3 0h1m3 0h5m-64 1h1m5 0h1m2 0h2m2 0h2m1 0h2m1 0h9m1 0h2m4 0h2m1 0h1m5 0h1m4 0h1m2 0h1m1 0h1m2 0h1m3 0h1m1 0h1m-64 1h7m2 0h1m4 0h1m2 0h1m1 0h2m1 0h2m3 0h1m1 0h2m3 0h1m1 0h3m1 0h1m1 0h2m1 0h1m1 0h3m1 0h1m1 0h1m1 0h1m2 0h1m1 0h3"/></svg>
