<?xml version="1.0" encoding="windows-1252" standalone="no"?>
<svg xmlns="http://www.w3.org/2000/svg" xmlns:xlink="http://www.w3.org/1999/xlink" contentStyleType="text/css" height="1086px" preserveAspectRatio="none" style="width:718px;height:1086px;background:#FFFFFF;" version="1.1" viewBox="0 0 718 1086" width="718px" zoomAndPan="magnify"><defs/><g><rect fill="#FFFFFF" height="29.1328" style="stroke:#181818;stroke-width:1.0;" width="10" x="22.5" y="666.8203"/><rect fill="#FFFFFF" height="809.5859" style="stroke:#181818;stroke-width:1.0;" width="10" x="203.5" y="223.9609"/><rect fill="#FFFFFF" height="113.3984" style="stroke:#181818;stroke-width:1.0;" width="10" x="453.5" y="110.5625"/><rect fill="#FFFFFF" height="71.2656" style="stroke:#181818;stroke-width:1.0;" width="10" x="453.5" y="397.8906"/><rect fill="#FFFFFF" height="293.3281" style="stroke:#181818;stroke-width:1.0;" width="10" x="453.5" y="740.2188"/><line style="stroke:#181818;stroke-width:0.5;stroke-dasharray:5.0,5.0;" x1="27" x2="27" y1="36.2969" y2="1051.5469"/><line style="stroke:#181818;stroke-width:0.5;stroke-dasharray:5.0,5.0;" x1="208" x2="208" y1="36.2969" y2="1051.5469"/><line style="stroke:#181818;stroke-width:0.5;stroke-dasharray:5.0,5.0;" x1="458" x2="458" y1="36.2969" y2="1051.5469"/><rect fill="#E2E2F0" height="30.2969" rx="2.5" ry="2.5" style="stroke:#181818;stroke-width:0.5;" width="45" x="5" y="5"/><text fill="#000000" font-family="sans-serif" font-size="14" lengthAdjust="spacing" textLength="31" x="12" y="24.9951">User</text><rect fill="#E2E2F0" height="30.2969" rx="2.5" ry="2.5" style="stroke:#181818;stroke-width:0.5;" width="45" x="5" y="1050.5469"/><text fill="#000000" font-family="sans-serif" font-size="14" lengthAdjust="spacing" textLength="31" x="12" y="1070.542">User</text><rect fill="#E2E2F0" height="30.2969" rx="2.5" ry="2.5" style="stroke:#181818;stroke-width:0.5;" width="125" x="146" y="5"/><text fill="#000000" font-family="sans-serif" font-size="14" lengthAdjust="spacing" textLength="111" x="153" y="24.9951">Wallet Instance</text><rect fill="#E2E2F0" height="30.2969" rx="2.5" ry="2.5" style="stroke:#181818;stroke-width:0.5;" width="125" x="146" y="1050.5469"/><text fill="#000000" font-family="sans-serif" font-size="14" lengthAdjust="spacing" textLength="111" x="153" y="1070.542">Wallet Instance</text><rect fill="#E2E2F0" height="30.2969" rx="2.5" ry="2.5" style="stroke:#181818;stroke-width:0.5;" width="109" x="404" y="5"/><text fill="#000000" font-family="sans-serif" font-size="14" lengthAdjust="spacing" textLength="95" x="411" y="24.9951">Relying Party</text><rect fill="#E2E2F0" height="30.2969" rx="2.5" ry="2.5" style="stroke:#181818;stroke-width:0.5;" width="109" x="404" y="1050.5469"/><text fill="#000000" font-family="sans-serif" font-size="14" lengthAdjust="spacing" textLength="95" x="411" y="1070.542">Relying Party</text><rect fill="#FFFFFF" height="29.1328" style="stroke:#181818;stroke-width:1.0;" width="10" x="22.5" y="666.8203"/><rect fill="#FFFFFF" height="809.5859" style="stroke:#181818;stroke-width:1.0;" width="10" x="203.5" y="223.9609"/><rect fill="#FFFFFF" height="113.3984" style="stroke:#181818;stroke-width:1.0;" width="10" x="453.5" y="110.5625"/><rect fill="#FFFFFF" height="71.2656" style="stroke:#181818;stroke-width:1.0;" width="10" x="453.5" y="397.8906"/><rect fill="#FFFFFF" height="293.3281" style="stroke:#181818;stroke-width:1.0;" width="10" x="453.5" y="740.2188"/><rect fill="#EEEEEE" height="3" style="stroke:#EEEEEE;stroke-width:1.0;" width="711.5" x="0" y="66.8633"/><line style="stroke:#000000;stroke-width:1.0;" x1="0" x2="711.5" y1="66.8633" y2="66.8633"/><line style="stroke:#000000;stroke-width:1.0;" x1="0" x2="711.5" y1="69.8633" y2="69.8633"/><rect fill="#EEEEEE" height="23.1328" style="stroke:#000000;stroke-width:2.0;" width="138" x="286.75" y="56.2969"/><text fill="#000000" font-family="sans-serif" font-size="13" font-weight="bold" lengthAdjust="spacing" textLength="114" x="292.75" y="72.3638">Authentication</text><polygon fill="#181818" points="441.5,106.5625,451.5,110.5625,441.5,114.5625,445.5,110.5625" style="stroke:#181818;stroke-width:1.0;"/><line style="stroke:#181818;stroke-width:1.0;" x1="27.5" x2="447.5" y1="110.5625" y2="110.5625"/><text fill="#000000" font-family="sans-serif" font-size="13" font-weight="bold" lengthAdjust="spacing" textLength="9" x="34.5" y="105.4966">1</text><text fill="#000000" font-family="sans-serif" font-size="13" lengthAdjust="spacing" textLength="183" x="47.5" y="105.4966">Request Protected Resource</text><line style="stroke:#181818;stroke-width:1.0;" x1="463.5" x2="505.5" y1="139.6953" y2="139.6953"/><line style="stroke:#181818;stroke-width:1.0;" x1="505.5" x2="505.5" y1="139.6953" y2="152.6953"/><line style="stroke:#181818;stroke-width:1.0;" x1="464.5" x2="505.5" y1="152.6953" y2="152.6953"/><polygon fill="#181818" points="474.5,148.6953,464.5,152.6953,474.5,156.6953,470.5,152.6953" style="stroke:#181818;stroke-width:1.0;"/><text fill="#000000" font-family="sans-serif" font-size="13" font-weight="bold" lengthAdjust="spacing" textLength="9" x="470.5" y="134.6294">2</text><text fill="#000000" font-family="sans-serif" font-size="13" lengthAdjust="spacing" textLength="189" x="483.5" y="134.6294">Create Authorization Request</text><line style="stroke:#181818;stroke-width:1.0;" x1="463.5" x2="505.5" y1="181.8281" y2="181.8281"/><line style="stroke:#181818;stroke-width:1.0;" x1="505.5" x2="505.5" y1="181.8281" y2="194.8281"/><line style="stroke:#181818;stroke-width:1.0;" x1="464.5" x2="505.5" y1="194.8281" y2="194.8281"/><polygon fill="#181818" points="474.5,190.8281,464.5,194.8281,474.5,198.8281,470.5,194.8281" style="stroke:#181818;stroke-width:1.0;"/><text fill="#000000" font-family="sans-serif" font-size="13" font-weight="bold" lengthAdjust="spacing" textLength="8" x="470.5" y="176.7622">3</text><text fill="#000000" font-family="sans-serif" font-size="13" lengthAdjust="spacing" textLength="103" x="482.5" y="176.7622">Create QR Code</text><polygon fill="#181818" points="224.5,219.9609,214.5,223.9609,224.5,227.9609,220.5,223.9609" style="stroke:#181818;stroke-width:1.0;"/><line style="stroke:#181818;stroke-width:1.0;" x1="218.5" x2="457.5" y1="223.9609" y2="223.9609"/><text fill="#000000" font-family="sans-serif" font-size="13" font-weight="bold" lengthAdjust="spacing" textLength="9" x="230.5" y="218.895">4</text><text fill="#000000" font-family="sans-serif" font-size="13" lengthAdjust="spacing" textLength="91" x="243.5" y="218.895">Show QRCode</text><line style="stroke:#181818;stroke-width:1.0;" x1="213.5" x2="255.5" y1="253.0938" y2="253.0938"/><line style="stroke:#181818;stroke-width:1.0;" x1="255.5" x2="255.5" y1="253.0938" y2="266.0938"/><line style="stroke:#181818;stroke-width:1.0;" x1="214.5" x2="255.5" y1="266.0938" y2="266.0938"/><polygon fill="#181818" points="224.5,262.0938,214.5,266.0938,224.5,270.0938,220.5,266.0938" style="stroke:#181818;stroke-width:1.0;"/><text fill="#000000" font-family="sans-serif" font-size="13" font-weight="bold" lengthAdjust="spacing" textLength="9" x="220.5" y="248.0278">5</text><text fill="#000000" font-family="sans-serif" font-size="13" lengthAdjust="spacing" textLength="91" x="233.5" y="248.0278">Scan QR Code</text><line style="stroke:#181818;stroke-width:1.0;" x1="213.5" x2="255.5" y1="310.3594" y2="310.3594"/><line style="stroke:#181818;stroke-width:1.0;" x1="255.5" x2="255.5" y1="310.3594" y2="323.3594"/><line style="stroke:#181818;stroke-width:1.0;" x1="214.5" x2="255.5" y1="323.3594" y2="323.3594"/><polygon fill="#181818" points="224.5,319.3594,214.5,323.3594,224.5,327.3594,220.5,323.3594" style="stroke:#181818;stroke-width:1.0;"/><text fill="#000000" font-family="sans-serif" font-size="13" font-weight="bold" lengthAdjust="spacing" textLength="9" x="220.5" y="297.7271">6</text><text fill="#000000" font-family="sans-serif" font-size="13" lengthAdjust="spacing" textLength="128" x="233.5" y="290.1606">Extract Request URI</text><text fill="#000000" font-family="sans-serif" font-size="13" lengthAdjust="spacing" textLength="91" x="233.5" y="305.2935">from QR Code</text><polygon fill="#181818" points="441.5,393.8906,451.5,397.8906,441.5,401.8906,445.5,397.8906" style="stroke:#181818;stroke-width:1.0;"/><line style="stroke:#181818;stroke-width:1.0;" x1="213.5" x2="447.5" y1="397.8906" y2="397.8906"/><text fill="#000000" font-family="sans-serif" font-size="13" font-weight="bold" lengthAdjust="spacing" textLength="9" x="220.5" y="370.1255">7</text><text fill="#000000" font-family="sans-serif" font-size="13" lengthAdjust="spacing" textLength="128" x="233.5" y="347.4263">GET Request Object</text><text fill="#000000" font-family="sans-serif" font-size="13" lengthAdjust="spacing" textLength="98" x="233.5" y="362.5591">by Request URI</text><text fill="#000000" font-family="sans-serif" font-size="13" lengthAdjust="spacing" textLength="204" x="233.5" y="377.6919">with Wallet Instance Attestation</text><text fill="#000000" font-family="sans-serif" font-size="13" lengthAdjust="spacing" textLength="93" x="233.5" y="392.8247">as DPoP token</text><line style="stroke:#181818;stroke-width:1.0;" x1="463.5" x2="505.5" y1="427.0234" y2="427.0234"/><line style="stroke:#181818;stroke-width:1.0;" x1="505.5" x2="505.5" y1="427.0234" y2="440.0234"/><line style="stroke:#181818;stroke-width:1.0;" x1="464.5" x2="505.5" y1="440.0234" y2="440.0234"/><polygon fill="#181818" points="474.5,436.0234,464.5,440.0234,474.5,444.0234,470.5,440.0234" style="stroke:#181818;stroke-width:1.0;"/><text fill="#000000" font-family="sans-serif" font-size="13" font-weight="bold" lengthAdjust="spacing" textLength="9" x="470.5" y="421.9575">8</text><text fill="#000000" font-family="sans-serif" font-size="13" lengthAdjust="spacing" textLength="178" x="483.5" y="421.9575">Attest Wallet Instance Trust</text><polygon fill="#181818" points="224.5,465.1563,214.5,469.1563,224.5,473.1563,220.5,469.1563" style="stroke:#181818;stroke-width:1.0;"/><line style="stroke:#181818;stroke-width:1.0;stroke-dasharray:2.0,2.0;" x1="218.5" x2="457.5" y1="469.1563" y2="469.1563"/><text fill="#000000" font-family="sans-serif" font-size="13" font-weight="bold" lengthAdjust="spacing" textLength="9" x="230.5" y="464.0903">9</text><text fill="#000000" font-family="sans-serif" font-size="13" lengthAdjust="spacing" textLength="98" x="243.5" y="464.0903">Request Object</text><line style="stroke:#181818;stroke-width:1.0;" x1="213.5" x2="255.5" y1="498.2891" y2="498.2891"/><line style="stroke:#181818;stroke-width:1.0;" x1="255.5" x2="255.5" y1="498.2891" y2="511.2891"/><line style="stroke:#181818;stroke-width:1.0;" x1="214.5" x2="255.5" y1="511.2891" y2="511.2891"/><polygon fill="#181818" points="224.5,507.2891,214.5,511.2891,224.5,515.2891,220.5,511.2891" style="stroke:#181818;stroke-width:1.0;"/><text fill="#000000" font-family="sans-serif" font-size="13" font-weight="bold" lengthAdjust="spacing" textLength="19" x="220.5" y="493.2231">10</text><text fill="#000000" font-family="sans-serif" font-size="13" lengthAdjust="spacing" textLength="165" x="243.5" y="493.2231">Attest Relying Party Trust</text><line style="stroke:#181818;stroke-width:1.0;" x1="213.5" x2="255.5" y1="540.4219" y2="540.4219"/><line style="stroke:#181818;stroke-width:1.0;" x1="255.5" x2="255.5" y1="540.4219" y2="553.4219"/><line style="stroke:#181818;stroke-width:1.0;" x1="214.5" x2="255.5" y1="553.4219" y2="553.4219"/><polygon fill="#181818" points="224.5,549.4219,214.5,553.4219,224.5,557.4219,220.5,553.4219" style="stroke:#181818;stroke-width:1.0;"/><text fill="#000000" font-family="sans-serif" font-size="13" font-weight="bold" lengthAdjust="spacing" textLength="18" x="220.5" y="535.356">11</text><text fill="#000000" font-family="sans-serif" font-size="13" lengthAdjust="spacing" textLength="191" x="242.5" y="535.356">Verify Relying Party Metadata</text><line style="stroke:#181818;stroke-width:1.0;" x1="213.5" x2="255.5" y1="582.5547" y2="582.5547"/><line style="stroke:#181818;stroke-width:1.0;" x1="255.5" x2="255.5" y1="582.5547" y2="595.5547"/><line style="stroke:#181818;stroke-width:1.0;" x1="214.5" x2="255.5" y1="595.5547" y2="595.5547"/><polygon fill="#181818" points="224.5,591.5547,214.5,595.5547,224.5,599.5547,220.5,595.5547" style="stroke:#181818;stroke-width:1.0;"/><text fill="#000000" font-family="sans-serif" font-size="13" font-weight="bold" lengthAdjust="spacing" textLength="18" x="220.5" y="577.4888">12</text><text fill="#000000" font-family="sans-serif" font-size="13" lengthAdjust="spacing" textLength="146" x="242.5" y="577.4888">Validate JWT Signature</text><line style="stroke:#181818;stroke-width:1.0;" x1="213.5" x2="255.5" y1="624.6875" y2="624.6875"/><line style="stroke:#181818;stroke-width:1.0;" x1="255.5" x2="255.5" y1="624.6875" y2="637.6875"/><line style="stroke:#181818;stroke-width:1.0;" x1="214.5" x2="255.5" y1="637.6875" y2="637.6875"/><polygon fill="#181818" points="224.5,633.6875,214.5,637.6875,224.5,641.6875,220.5,637.6875" style="stroke:#181818;stroke-width:1.0;"/><text fill="#000000" font-family="sans-serif" font-size="13" font-weight="bold" lengthAdjust="spacing" textLength="17" x="220.5" y="619.6216">13</text><text fill="#000000" font-family="sans-serif" font-size="13" lengthAdjust="spacing" textLength="163" x="241.5" y="619.6216">Validate Requested VP(s)</text><polygon fill="#181818" points="43.5,662.8203,33.5,666.8203,43.5,670.8203,39.5,666.8203" style="stroke:#181818;stroke-width:1.0;"/><line style="stroke:#181818;stroke-width:1.0;" x1="37.5" x2="202.5" y1="666.8203" y2="666.8203"/><text fill="#000000" font-family="sans-serif" font-size="13" font-weight="bold" lengthAdjust="spacing" textLength="18" x="49.5" y="661.7544">14</text><text fill="#000000" font-family="sans-serif" font-size="13" lengthAdjust="spacing" textLength="130" x="71.5" y="661.7544">Request for consent</text><polygon fill="#181818" points="191.5,691.9531,201.5,695.9531,191.5,699.9531,195.5,695.9531" style="stroke:#181818;stroke-width:1.0;"/><line style="stroke:#181818;stroke-width:1.0;stroke-dasharray:2.0,2.0;" x1="27.5" x2="197.5" y1="695.9531" y2="695.9531"/><text fill="#000000" font-family="sans-serif" font-size="13" font-weight="bold" lengthAdjust="spacing" textLength="18" x="34.5" y="690.8872">15</text><text fill="#000000" font-family="sans-serif" font-size="13" lengthAdjust="spacing" textLength="67" x="56.5" y="690.8872">Confirmed</text><polygon fill="#181818" points="441.5,736.2188,451.5,740.2188,441.5,744.2188,445.5,740.2188" style="stroke:#181818;stroke-width:1.0;"/><line style="stroke:#181818;stroke-width:1.0;" x1="213.5" x2="447.5" y1="740.2188" y2="740.2188"/><text fill="#000000" font-family="sans-serif" font-size="13" font-weight="bold" lengthAdjust="spacing" textLength="18" x="220.5" y="727.5864">16</text><text fill="#000000" font-family="sans-serif" font-size="13" lengthAdjust="spacing" textLength="190" x="242.5" y="720.02">POST Authorization Response</text><text fill="#000000" font-family="sans-serif" font-size="13" lengthAdjust="spacing" textLength="90" x="246.5" y="735.1528">with vp_token</text><line style="stroke:#181818;stroke-width:1.0;" x1="463.5" x2="505.5" y1="769.3516" y2="769.3516"/><line style="stroke:#181818;stroke-width:1.0;" x1="505.5" x2="505.5" y1="769.3516" y2="782.3516"/><line style="stroke:#181818;stroke-width:1.0;" x1="464.5" x2="505.5" y1="782.3516" y2="782.3516"/><polygon fill="#181818" points="474.5,778.3516,464.5,782.3516,474.5,786.3516,470.5,782.3516" style="stroke:#181818;stroke-width:1.0;"/><text fill="#000000" font-family="sans-serif" font-size="13" font-weight="bold" lengthAdjust="spacing" textLength="18" x="470.5" y="764.2856">17</text><text fill="#000000" font-family="sans-serif" font-size="13" lengthAdjust="spacing" textLength="187" x="492.5" y="764.2856">Attest Credential Issuer Trust</text><line style="stroke:#181818;stroke-width:1.0;" x1="463.5" x2="505.5" y1="811.4844" y2="811.4844"/><line style="stroke:#181818;stroke-width:1.0;" x1="505.5" x2="505.5" y1="811.4844" y2="824.4844"/><line style="stroke:#181818;stroke-width:1.0;" x1="464.5" x2="505.5" y1="824.4844" y2="824.4844"/><polygon fill="#181818" points="474.5,820.4844,464.5,824.4844,474.5,828.4844,470.5,824.4844" style="stroke:#181818;stroke-width:1.0;"/><text fill="#000000" font-family="sans-serif" font-size="13" font-weight="bold" lengthAdjust="spacing" textLength="18" x="470.5" y="806.4185">18</text><text fill="#000000" font-family="sans-serif" font-size="13" lengthAdjust="spacing" textLength="146" x="492.5" y="806.4185">Validate JWT Signature</text><line style="stroke:#181818;stroke-width:1.0;" x1="463.5" x2="505.5" y1="853.6172" y2="853.6172"/><line style="stroke:#181818;stroke-width:1.0;" x1="505.5" x2="505.5" y1="853.6172" y2="866.6172"/><line style="stroke:#181818;stroke-width:1.0;" x1="464.5" x2="505.5" y1="866.6172" y2="866.6172"/><polygon fill="#181818" points="474.5,862.6172,464.5,866.6172,474.5,870.6172,470.5,866.6172" style="stroke:#181818;stroke-width:1.0;"/><text fill="#000000" font-family="sans-serif" font-size="13" font-weight="bold" lengthAdjust="spacing" textLength="18" x="470.5" y="848.5513">19</text><text fill="#000000" font-family="sans-serif" font-size="13" lengthAdjust="spacing" textLength="142" x="492.5" y="848.5513">Process the credential</text><line style="stroke:#181818;stroke-width:1.0;" x1="463.5" x2="505.5" y1="895.75" y2="895.75"/><line style="stroke:#181818;stroke-width:1.0;" x1="505.5" x2="505.5" y1="895.75" y2="908.75"/><line style="stroke:#181818;stroke-width:1.0;" x1="464.5" x2="505.5" y1="908.75" y2="908.75"/><polygon fill="#181818" points="474.5,904.75,464.5,908.75,474.5,912.75,470.5,908.75" style="stroke:#181818;stroke-width:1.0;"/><text fill="#000000" font-family="sans-serif" font-size="13" font-weight="bold" lengthAdjust="spacing" textLength="19" x="470.5" y="890.6841">20</text><text fill="#000000" font-family="sans-serif" font-size="13" lengthAdjust="spacing" textLength="206" x="493.5" y="890.6841">Process Authorization Response</text><path d="M257,921.75 L257,1006.75 L660,1006.75 L660,931.75 L650,921.75 L257,921.75 " fill="#FEFFDD" style="stroke:#181818;stroke-width:0.5;"/><path d="M650,921.75 L650,931.75 L660,931.75 L650,921.75 " fill="#FEFFDD" style="stroke:#181818;stroke-width:0.5;"/><text fill="#000000" font-family="sans-serif" font-size="13" lengthAdjust="spacing" textLength="171" x="263" y="938.8169">Process phase requires to:</text><text fill="#000000" font-family="sans-serif" font-size="13" lengthAdjust="spacing" textLength="382" x="263" y="953.9497">- validate integrity, authenticity, and holder binding of VP(s)</text><text fill="#000000" font-family="sans-serif" font-size="13" lengthAdjust="spacing" textLength="256" x="263" y="969.0825">- ensure all VP(s) are linked with Verifier</text><text fill="#000000" font-family="sans-serif" font-size="13" lengthAdjust="spacing" textLength="351" x="263" y="984.2153">- ensure all VP(s) are linked with current session nonce</text><text fill="#000000" font-family="sans-serif" font-size="13" lengthAdjust="spacing" textLength="246" x="263" y="999.3481">- ensure all VC(s) requested is present</text><polygon fill="#181818" points="219.5,1029.5469,209.5,1033.5469,219.5,1037.5469,215.5,1033.5469" style="stroke:#181818;stroke-width:1.0;"/><line style="stroke:#181818;stroke-width:1.0;stroke-dasharray:2.0,2.0;" x1="213.5" x2="457.5" y1="1033.5469" y2="1033.5469"/><text fill="#000000" font-family="sans-serif" font-size="13" font-weight="bold" lengthAdjust="spacing" textLength="18" x="225.5" y="1028.481">21</text><text fill="#000000" font-family="sans-serif" font-size="13" lengthAdjust="spacing" textLength="18" x="247.5" y="1028.481">OK</text><!--SRC=[ZLDTRzim37ptho3wj07h7mYG0KLM3Damn4lIzgN0eDXCejMXCegob_twKNRybRH0tspgUBeZJoQ8et3O82V9qR3Op1uD2TmyUEGRC1x2kFvaYW85vkJ5K8Orf1f3bbYSBEqWrUAf1fIO9DCft0NP8odGY7K4C9qc0Mu_w_44blWde1T8sGbcWhbMl0kSOM8oiQKHZ3GbjWqpnbYBd8xjluRop78D-xc4cSlR_ce2gxshj5eNSnnUqNrNILArwCnGnz4Mx_yAAxYJ_h2SFzEMtM6CZ2g-tgyxs6BpMmt2CsrEmrOjL5RsS35Wk1DHH6FlcNIONrANWhWNf3ScqtHS4Qqvd2VJo1_hkHX2w_7CDLhfcQc5F2BRxUa2yWF5v4PCZpA5pIFvjwSrhEoEZ0J6w-EpAjt_O_h1Vsm0eLUxTGoP8wyvwks7cAE6QEPeQ_c0-T1Gw3UHBbRhgz3uOsJKyKAzWlBuwntprMJbCSscWBdt0NamuGRuXkSUe67Fq7lGPm5PH_SAu7N12UbR0LVgrKFmSM_K3El0BAEIkuawkuMoLMD9SCTMJf_0j2-o-QCSzgx8bMzZAO_RTDjc3v40oQjyq5WrDJ3wLrXwqMNLSwkJO97V1Su2iruDNYL7K-Gqf9UTizZ9NIIicbDBSVTzZXVVXwlMHpkEydy0]--></g></svg>