<?xml version="1.0" encoding="us-ascii" standalone="no"?><svg xmlns="http://www.w3.org/2000/svg" xmlns:xlink="http://www.w3.org/1999/xlink" contentStyleType="text/css" height="363px" preserveAspectRatio="none" style="width:666px;height:363px;background:#FFFFFF;" version="1.1" viewBox="0 0 666 363" width="666px" zoomAndPan="magnify"><defs/><g><!--entity user--><g id="elem_user"><ellipse cx="438" cy="14" fill="#F1F1F1" rx="8" ry="8" style="stroke:#181818;stroke-width:0.5;"/><path d="M438,22 L438,49 M425,30 L451,30 M438,49 L425,64 M438,49 L451,64 " fill="none" style="stroke:#181818;stroke-width:0.5;"/><text fill="#000000" font-family="sans-serif" font-size="14" lengthAdjust="spacing" textLength="31" x="422.5" y="78.4951">User</text></g><!--entity wallet_provider--><g id="elem_wallet_provider"><ellipse cx="604" cy="167" fill="#F1F1F1" rx="8" ry="8" style="stroke:#181818;stroke-width:0.5;"/><path d="M604,175 L604,202 M591,183 L617,183 M604,202 L591,217 M604,202 L617,217 " fill="none" style="stroke:#181818;stroke-width:0.5;"/><text fill="#000000" font-family="sans-serif" font-size="14" lengthAdjust="spacing" textLength="111" x="548.5" y="231.4951">Wallet provider</text></g><!--entity wallet_solution--><g id="elem_wallet_solution"><rect fill="#EE82EE" height="46.2969" rx="2.5" ry="2.5" style="stroke:#181818;stroke-width:0.5;" width="147" x="364.5" y="311.5"/><rect fill="#EE82EE" height="10" style="stroke:#181818;stroke-width:0.5;" width="15" x="491.5" y="316.5"/><rect fill="#EE82EE" height="2" style="stroke:#181818;stroke-width:0.5;" width="4" x="489.5" y="318.5"/><rect fill="#EE82EE" height="2" style="stroke:#181818;stroke-width:0.5;" width="4" x="489.5" y="322.5"/><text fill="#000000" font-family="sans-serif" font-size="14" lengthAdjust="spacing" textLength="107" x="379.5" y="344.4951">Wallet solution</text></g><!--entity wallet_instance--><g id="elem_wallet_instance"><rect fill="#FFFF00" height="46.2969" rx="2.5" ry="2.5" style="stroke:#181818;stroke-width:0.5;" width="151" x="362.5" y="173.5"/><rect fill="#FFFF00" height="10" style="stroke:#181818;stroke-width:0.5;" width="15" x="493.5" y="178.5"/><rect fill="#FFFF00" height="2" style="stroke:#181818;stroke-width:0.5;" width="4" x="491.5" y="180.5"/><rect fill="#FFFF00" height="2" style="stroke:#181818;stroke-width:0.5;" width="4" x="491.5" y="184.5"/><text fill="#000000" font-family="sans-serif" font-size="14" lengthAdjust="spacing" textLength="111" x="377.5" y="206.4951">Wallet instance</text></g><!--entity wallet_backend--><g id="elem_wallet_backend"><rect fill="#F1F1F1" height="46.2969" rx="2.5" ry="2.5" style="stroke:#181818;stroke-width:0.5;" width="152" x="7" y="173.5"/><rect fill="#F1F1F1" height="10" style="stroke:#181818;stroke-width:0.5;" width="15" x="139" y="178.5"/><rect fill="#F1F1F1" height="2" style="stroke:#181818;stroke-width:0.5;" width="4" x="137" y="180.5"/><rect fill="#F1F1F1" height="2" style="stroke:#181818;stroke-width:0.5;" width="4" x="137" y="184.5"/><text fill="#000000" font-family="sans-serif" font-size="14" lengthAdjust="spacing" textLength="112" x="22" y="206.4951">Wallet backend</text></g><!--link wallet_backend to wallet_solution--><g id="link_wallet_backend_wallet_solution"><path d="M140.431,219.502 C204.917,244.206 309.205,284.159 375.64,309.6099 " fill="none" id="wallet_backend-to-wallet_solution" style="stroke:#181818;stroke-width:1.0;"/><polygon fill="#181818" points="380.357,311.4169,373.3852,304.4603,375.6883,309.6271,370.5215,311.9302,380.357,311.4169" style="stroke:#181818;stroke-width:1.0;"/><text fill="#000000" font-family="sans-serif" font-size="13" lengthAdjust="spacing" textLength="57" x="294" y="277.5669">Is part of</text></g><!--link wallet_backend to wallet_instance--><g id="link_wallet_backend_wallet_instance"><path d="M159.156,196.5 C217.398,196.5 297.531,196.5 356.952,196.5 " fill="none" id="wallet_backend-to-wallet_instance" style="stroke:#181818;stroke-width:1.0;"/><polygon fill="#181818" points="362.275,196.5,353.275,192.5,357.275,196.5,353.275,200.5,362.275,196.5" style="stroke:#181818;stroke-width:1.0;"/><text fill="#000000" font-family="sans-serif" font-size="13" lengthAdjust="spacing" textLength="167" x="177.25" y="189.5669">Provides wallet assertions</text></g><!--link user to wallet_instance--><g id="link_user_wallet_instance"><path d="M438,81.826 C438,108.458 438,143.689 438,167.829 " fill="none" id="user-to-wallet_instance" style="stroke:#181818;stroke-width:1.0;"/><polygon fill="#181818" points="438,173.108,442,164.108,438,168.108,434,164.108,438,173.108" style="stroke:#181818;stroke-width:1.0;"/><text fill="#000000" font-family="sans-serif" font-size="13" lengthAdjust="spacing" textLength="108" x="439" y="124.5669">control / activate</text></g><!--link wallet_instance to wallet_solution--><g id="link_wallet_instance_wallet_solution"><path d="M438,219.653 C438,243.264 438,280.6777 438,306.1183 " fill="none" id="wallet_instance-to-wallet_solution" style="stroke:#181818;stroke-width:1.0;"/><polygon fill="#181818" points="438,311.356,442,302.356,438,306.356,434,302.356,438,311.356" style="stroke:#181818;stroke-width:1.0;"/><text fill="#000000" font-family="sans-serif" font-size="13" lengthAdjust="spacing" textLength="105" x="439" y="277.5669">Is an instance of</text></g><!--link wallet_provider to wallet_solution--><g id="link_wallet_provider_wallet_solution"><path d="M587.547,234.883 C579.059,250.853 567.431,268.7171 553,281.5 C540.365,292.6916 524.922,301.8563 509.504,309.2005 " fill="none" id="wallet_provider-to-wallet_solution" style="stroke:#181818;stroke-width:1.0;"/><polygon fill="#181818" points="504.723,311.4215,514.5705,311.2564,509.2574,309.3145,511.1993,304.0014,504.723,311.4215" style="stroke:#181818;stroke-width:1.0;"/><text fill="#000000" font-family="sans-serif" font-size="13" lengthAdjust="spacing" textLength="48" x="569" y="277.5669">Provide</text></g><!--SRC=[XP4z3y8W48PtViN5piIzWxkRYt4q9qKb8jV0jOt_Nle18KsD6td2mxttWeh9m-uSjDy11kZY0GJEz8BMQeRMKs-QvS8miMjY88IYTqjEEyv28Dkn8LSAYK7L6ufWopCkC3gbIoyng3xQMXg4s39lg5xQDQMu81Y55PBUF9ui3-jiDHm3jEWPwFvNIi5gECrTfCanGonnV2_4qLEXSajJvDYJXJt4kasFhFFClBJy4H9TBglCcdzbqrjoVW40]--></g></svg>