<?xml version="1.0" encoding="us-ascii" standalone="no"?><svg xmlns="http://www.w3.org/2000/svg" xmlns:xlink="http://www.w3.org/1999/xlink" contentStyleType="text/css" height="658px" preserveAspectRatio="none" style="width:1270px;height:658px;background:#FFFFFF;" version="1.1" viewBox="0 0 1270 658" width="1270px" zoomAndPan="magnify"><defs/><g><rect fill="#FFFFFF" height="489.8594" style="stroke:#181818;stroke-width:1.0;" width="10" x="245.5" y="136.5625"/><rect fill="#FFFFFF" height="71.2656" style="stroke:#181818;stroke-width:1.0;" width="10" x="1000" y="240.9609"/><rect fill="#FFFFFF" height="155.5313" style="stroke:#181818;stroke-width:1.0;" width="10" x="1000" y="441.7578"/><rect fill="none" height="536.125" style="stroke:#000000;stroke-width:1.5;" width="1254" x="10" y="98.2969"/><line style="stroke:#181818;stroke-width:0.5;stroke-dasharray:5.0,5.0;" x1="38" x2="38" y1="81.2969" y2="651.4219"/><line style="stroke:#181818;stroke-width:0.5;stroke-dasharray:5.0,5.0;" x1="250" x2="250" y1="81.2969" y2="651.4219"/><line style="stroke:#181818;stroke-width:0.5;stroke-dasharray:5.0,5.0;" x1="806" x2="806" y1="81.2969" y2="651.4219"/><line style="stroke:#181818;stroke-width:0.5;stroke-dasharray:5.0,5.0;" x1="1005" x2="1005" y1="81.2969" y2="651.4219"/><text fill="#000000" font-family="sans-serif" font-size="14" lengthAdjust="spacing" textLength="31" x="20" y="77.9951">User</text><ellipse cx="38.5" cy="13.5" fill="#E2E2F0" rx="8" ry="8" style="stroke:#181818;stroke-width:0.5;"/><path d="M38.5,21.5 L38.5,48.5 M25.5,29.5 L51.5,29.5 M38.5,48.5 L25.5,63.5 M38.5,48.5 L51.5,63.5 " fill="none" style="stroke:#181818;stroke-width:0.5;"/><rect fill="#E2E2F0" height="30.2969" rx="2.5" ry="2.5" style="stroke:#181818;stroke-width:0.5;" width="125" x="188" y="50"/><text fill="#000000" font-family="sans-serif" font-size="14" lengthAdjust="spacing" textLength="111" x="195" y="69.9951">Wallet Instance</text><rect fill="#00FF7F" height="30.2969" rx="2.5" ry="2.5" style="stroke:#181818;stroke-width:0.5;" width="187" x="713" y="50"/><text fill="#000000" font-family="sans-serif" font-size="14" lengthAdjust="spacing" textLength="173" x="720" y="69.9951">Device Integrity Service</text><rect fill="#E2E2F0" height="30.2969" rx="2.5" ry="2.5" style="stroke:#181818;stroke-width:0.5;" width="190" x="910" y="50"/><text fill="#000000" font-family="sans-serif" font-size="14" lengthAdjust="spacing" textLength="176" x="917" y="69.9951">Wallet Provider backend</text><rect fill="#FFFFFF" height="489.8594" style="stroke:#181818;stroke-width:1.0;" width="10" x="245.5" y="136.5625"/><rect fill="#FFFFFF" height="71.2656" style="stroke:#181818;stroke-width:1.0;" width="10" x="1000" y="240.9609"/><rect fill="#FFFFFF" height="155.5313" style="stroke:#181818;stroke-width:1.0;" width="10" x="1000" y="441.7578"/><path d="M10,98.2969 L343,98.2969 L343,105.4297 L333,115.4297 L10,115.4297 L10,98.2969 " fill="#EEEEEE" style="stroke:#000000;stroke-width:1.5;"/><rect fill="none" height="536.125" style="stroke:#000000;stroke-width:1.5;" width="1254" x="10" y="98.2969"/><text fill="#000000" font-family="sans-serif" font-size="13" font-weight="bold" lengthAdjust="spacing" textLength="288" x="25" y="111.3638">only upon first installation of the app</text><polygon fill="#181818" points="233.5,132.5625,243.5,136.5625,233.5,140.5625,237.5,136.5625" style="stroke:#181818;stroke-width:1.0;"/><line style="stroke:#181818;stroke-width:1.0;" x1="38.5" x2="239.5" y1="136.5625" y2="136.5625"/><text fill="#000000" font-family="sans-serif" font-size="13" font-weight="bold" lengthAdjust="spacing" textLength="9" x="45.5" y="131.4966">1</text><text fill="#000000" font-family="sans-serif" font-size="13" lengthAdjust="spacing" textLength="156" x="58.5" y="131.4966">starts the app (first use)</text><line style="stroke:#181818;stroke-width:1.0;" x1="255.5" x2="297.5" y1="165.6953" y2="165.6953"/><line style="stroke:#181818;stroke-width:1.0;" x1="297.5" x2="297.5" y1="165.6953" y2="178.6953"/><line style="stroke:#181818;stroke-width:1.0;" x1="256.5" x2="297.5" y1="178.6953" y2="178.6953"/><polygon fill="#181818" points="266.5,174.6953,256.5,178.6953,266.5,182.6953,262.5,178.6953" style="stroke:#181818;stroke-width:1.0;"/><text fill="#000000" font-family="sans-serif" font-size="13" font-weight="bold" lengthAdjust="spacing" textLength="9" x="262.5" y="160.6294">2</text><text fill="#000000" font-family="sans-serif" font-size="13" lengthAdjust="spacing" textLength="282" x="275.5" y="160.6294">Check if Device Integrity Service is available</text><rect fill="#90EE90" height="23" style="stroke:#181818;stroke-width:0.5;" width="907" x="174" y="191.6953"/><text fill="#000000" font-family="sans-serif" font-size="13" lengthAdjust="spacing" textLength="456" x="399.5" y="207.7622">Check Wallet Provider is part of the Federation and obtain its metadata</text><polygon fill="#181818" points="988,236.9609,998,240.9609,988,244.9609,992,240.9609" style="stroke:#181818;stroke-width:1.0;"/><line style="stroke:#181818;stroke-width:1.0;" x1="255.5" x2="994" y1="240.9609" y2="240.9609"/><text fill="#000000" font-family="sans-serif" font-size="13" font-weight="bold" lengthAdjust="spacing" textLength="8" x="262.5" y="235.895">3</text><text fill="#000000" font-family="sans-serif" font-size="13" lengthAdjust="spacing" textLength="23" x="274.5" y="235.895">Get</text><text fill="#000000" font-family="sans-serif" font-size="13" font-weight="bold" lengthAdjust="spacing" textLength="70" x="301.5" y="235.895">challenge</text><line style="stroke:#181818;stroke-width:1.0;" x1="1010" x2="1052" y1="270.0938" y2="270.0938"/><line style="stroke:#181818;stroke-width:1.0;" x1="1052" x2="1052" y1="270.0938" y2="283.0938"/><line style="stroke:#181818;stroke-width:1.0;" x1="1011" x2="1052" y1="283.0938" y2="283.0938"/><polygon fill="#181818" points="1021,279.0938,1011,283.0938,1021,287.0938,1017,283.0938" style="stroke:#181818;stroke-width:1.0;"/><text fill="#000000" font-family="sans-serif" font-size="13" font-weight="bold" lengthAdjust="spacing" textLength="9" x="1017" y="265.0278">4</text><text fill="#000000" font-family="sans-serif" font-size="13" lengthAdjust="spacing" textLength="148" x="1030" y="265.0278">Generate one time use</text><text fill="#000000" font-family="sans-serif" font-size="13" font-weight="bold" lengthAdjust="spacing" textLength="70" x="1182" y="265.0278">challenge</text><polygon fill="#181818" points="266.5,308.2266,256.5,312.2266,266.5,316.2266,262.5,312.2266" style="stroke:#181818;stroke-width:1.0;"/><line style="stroke:#181818;stroke-width:1.0;stroke-dasharray:2.0,2.0;" x1="260.5" x2="1004" y1="312.2266" y2="312.2266"/><text fill="#000000" font-family="sans-serif" font-size="13" font-weight="bold" lengthAdjust="spacing" textLength="9" x="272.5" y="307.1606">5</text><text fill="#000000" font-family="sans-serif" font-size="13" font-weight="bold" lengthAdjust="spacing" textLength="70" x="285.5" y="307.1606">challenge</text><line style="stroke:#181818;stroke-width:1.0;" x1="255.5" x2="297.5" y1="341.3594" y2="341.3594"/><line style="stroke:#181818;stroke-width:1.0;" x1="297.5" x2="297.5" y1="341.3594" y2="354.3594"/><line style="stroke:#181818;stroke-width:1.0;" x1="256.5" x2="297.5" y1="354.3594" y2="354.3594"/><polygon fill="#181818" points="266.5,350.3594,256.5,354.3594,266.5,358.3594,262.5,354.3594" style="stroke:#181818;stroke-width:1.0;"/><text fill="#000000" font-family="sans-serif" font-size="13" font-weight="bold" lengthAdjust="spacing" textLength="9" x="262.5" y="336.2935">6</text><text fill="#000000" font-family="sans-serif" font-size="13" lengthAdjust="spacing" textLength="60" x="275.5" y="336.2935">Generate</text><text fill="#000000" font-family="sans-serif" font-size="13" font-weight="bold" lengthAdjust="spacing" textLength="166" x="339.5" y="336.2935">Cryptographic Hardware Keys</text><text fill="#000000" font-family="sans-serif" font-size="13" lengthAdjust="spacing" textLength="89" x="509.5" y="336.2935">pair and store</text><text fill="#000000" font-family="sans-serif" font-size="13" font-weight="bold" lengthAdjust="spacing" textLength="192" x="602.5" y="336.2935">Cryptographic Hardware Key Tag</text><polygon fill="#181818" points="794.5,379.4922,804.5,383.4922,794.5,387.4922,798.5,383.4922" style="stroke:#181818;stroke-width:1.0;"/><line style="stroke:#181818;stroke-width:1.0;" x1="255.5" x2="800.5" y1="383.4922" y2="383.4922"/><text fill="#000000" font-family="sans-serif" font-size="13" font-weight="bold" lengthAdjust="spacing" textLength="9" x="262.5" y="378.4263">7</text><text fill="#000000" font-family="sans-serif" font-size="13" lengthAdjust="spacing" textLength="303" x="275.5" y="378.4263">attestKey(challenge, Cryptographic Hardware Key Tag)</text><polygon fill="#181818" points="266.5,408.625,256.5,412.625,266.5,416.625,262.5,412.625" style="stroke:#181818;stroke-width:1.0;"/><line style="stroke:#181818;stroke-width:1.0;stroke-dasharray:2.0,2.0;" x1="260.5" x2="805.5" y1="412.625" y2="412.625"/><text fill="#000000" font-family="sans-serif" font-size="13" font-weight="bold" lengthAdjust="spacing" textLength="9" x="272.5" y="407.5591">8</text><text fill="#000000" font-family="sans-serif" font-size="13" font-weight="bold" lengthAdjust="spacing" textLength="123" x="285.5" y="407.5591">Key Attestation</text><text fill="#000000" font-family="sans-serif" font-size="13" lengthAdjust="spacing" textLength="94" x="412.5" y="407.5591">signed by OEM</text><polygon fill="#181818" points="988,437.7578,998,441.7578,988,445.7578,992,441.7578" style="stroke:#181818;stroke-width:1.0;"/><line style="stroke:#181818;stroke-width:1.0;" x1="255.5" x2="994" y1="441.7578" y2="441.7578"/><text fill="#000000" font-family="sans-serif" font-size="13" font-weight="bold" lengthAdjust="spacing" textLength="9" x="262.5" y="436.6919">9</text><text fill="#000000" font-family="sans-serif" font-size="13" lengthAdjust="spacing" textLength="32" x="275.5" y="436.6919">Send</text><text fill="#000000" font-family="sans-serif" font-size="13" font-weight="bold" lengthAdjust="spacing" textLength="70" x="311.5" y="436.6919">challenge</text><text fill="#000000" font-family="sans-serif" font-size="13" lengthAdjust="spacing" textLength="4" x="381.5" y="436.6919">,</text><text fill="#000000" font-family="sans-serif" font-size="13" font-weight="bold" lengthAdjust="spacing" textLength="123" x="389.5" y="436.6919">Key Attestation</text><text fill="#000000" font-family="sans-serif" font-size="13" lengthAdjust="spacing" textLength="24" x="516.5" y="436.6919">and</text><text fill="#000000" font-family="sans-serif" font-size="13" font-weight="bold" lengthAdjust="spacing" textLength="192" x="544.5" y="436.6919">Cryptographic Hardware Key Tag</text><line style="stroke:#181818;stroke-width:1.0;" x1="1010" x2="1052" y1="470.8906" y2="470.8906"/><line style="stroke:#181818;stroke-width:1.0;" x1="1052" x2="1052" y1="470.8906" y2="483.8906"/><line style="stroke:#181818;stroke-width:1.0;" x1="1011" x2="1052" y1="483.8906" y2="483.8906"/><polygon fill="#181818" points="1021,479.8906,1011,483.8906,1021,487.8906,1017,483.8906" style="stroke:#181818;stroke-width:1.0;"/><text fill="#000000" font-family="sans-serif" font-size="13" font-weight="bold" lengthAdjust="spacing" textLength="19" x="1017" y="465.8247">10</text><text fill="#000000" font-family="sans-serif" font-size="13" lengthAdjust="spacing" textLength="52" x="1040" y="465.8247">Validate</text><text fill="#000000" font-family="sans-serif" font-size="13" font-weight="bold" lengthAdjust="spacing" textLength="70" x="1096" y="465.8247">challenge</text><line style="stroke:#181818;stroke-width:1.0;" x1="1010" x2="1052" y1="513.0234" y2="513.0234"/><line style="stroke:#181818;stroke-width:1.0;" x1="1052" x2="1052" y1="513.0234" y2="526.0234"/><line style="stroke:#181818;stroke-width:1.0;" x1="1011" x2="1052" y1="526.0234" y2="526.0234"/><polygon fill="#181818" points="1021,522.0234,1011,526.0234,1021,530.0234,1017,526.0234" style="stroke:#181818;stroke-width:1.0;"/><text fill="#000000" font-family="sans-serif" font-size="13" font-weight="bold" lengthAdjust="spacing" textLength="18" x="1017" y="507.9575">11</text><text fill="#000000" font-family="sans-serif" font-size="13" lengthAdjust="spacing" textLength="52" x="1039" y="507.9575">Validate</text><text fill="#000000" font-family="sans-serif" font-size="13" font-weight="bold" lengthAdjust="spacing" textLength="123" x="1095" y="507.9575">Key Attestation</text><line style="stroke:#181818;stroke-width:1.0;" x1="1010" x2="1052" y1="555.1563" y2="555.1563"/><line style="stroke:#181818;stroke-width:1.0;" x1="1052" x2="1052" y1="555.1563" y2="568.1563"/><line style="stroke:#181818;stroke-width:1.0;" x1="1011" x2="1052" y1="568.1563" y2="568.1563"/><polygon fill="#181818" points="1021,564.1563,1011,568.1563,1021,572.1563,1017,568.1563" style="stroke:#181818;stroke-width:1.0;"/><text fill="#000000" font-family="sans-serif" font-size="13" font-weight="bold" lengthAdjust="spacing" textLength="18" x="1017" y="550.0903">12</text><text fill="#000000" font-family="sans-serif" font-size="13" lengthAdjust="spacing" textLength="34" x="1039" y="550.0903">Store</text><text fill="#000000" font-family="sans-serif" font-size="13" font-weight="bold" lengthAdjust="spacing" textLength="166" x="1077" y="550.0903">Cryptographic Hardware Keys</text><polygon fill="#181818" points="266.5,593.2891,256.5,597.2891,266.5,601.2891,262.5,597.2891" style="stroke:#181818;stroke-width:1.0;"/><line style="stroke:#181818;stroke-width:1.0;stroke-dasharray:2.0,2.0;" x1="260.5" x2="1004" y1="597.2891" y2="597.2891"/><text fill="#000000" font-family="sans-serif" font-size="13" font-weight="bold" lengthAdjust="spacing" textLength="17" x="272.5" y="592.2231">13</text><text fill="#000000" font-family="sans-serif" font-size="13" lengthAdjust="spacing" textLength="18" x="293.5" y="592.2231">OK</text><polygon fill="#181818" points="49.5,622.4219,39.5,626.4219,49.5,630.4219,45.5,626.4219" style="stroke:#181818;stroke-width:1.0;"/><line style="stroke:#181818;stroke-width:1.0;stroke-dasharray:2.0,2.0;" x1="43.5" x2="249.5" y1="626.4219" y2="626.4219"/><text fill="#000000" font-family="sans-serif" font-size="13" font-weight="bold" lengthAdjust="spacing" textLength="18" x="55.5" y="621.356">14</text><text fill="#000000" font-family="sans-serif" font-size="13" lengthAdjust="spacing" textLength="161" x="77.5" y="621.356">Wallet Instance Initialized</text><!--SRC=[VLF1Rjim3BthAuZaqCv8Vo270iEMfK7RTLYwxKnRZ4F4aGo9zfPz_IWxI-8qwK60GBr7llSaOIFUDTkSWbcp9LXvBxd_Osvg3C85r-Z462p41nZzY1H6W14QtPWJ18n-OLMHmC95GLTGXyAwXY7gCxLSaAA4oi2oWoM5LEdXA176iGxioZ8GkOiJlWNVgj00EHORShQZviN6c3BufWRlgXqqjNUmuX05E2cgAXJMab-1h2a9Cyd2tRtkfg20eAFt9t3R4nNm8Hdd5gMdwDepFgsfs02lu9eXOFNJ8bUOLsHCS5vx-5PbAt-YSc7yj9W_lCw_psPVJT_ktA2sI07y5_s5jDZRG6V1vuBiW5NubWGj2XgDevjaJAzLvqnXhZsph5YdxgwaB3kQIh7fEW1T6g0w7O7mbb84PzI4tcSmFB0qw7gCwj0ro_O67p3OtnW87caNiqnDSkWiHNraLt3mYcLIthNLTp855A4eUdHxa361AqozH-KSXQVonuxVvQaQ8fUEBEGxU9azduItr4Y7JYSN-TZ1tX5-EVAVMB7jmpbF-GtWpT0JsF9wSd5uQo-FbwxgxZvzXocS_MBTiB1A-4lsb9O-WmRp3m00]--></g></svg>