<?xml version="1.0" encoding="windows-1252" standalone="no"?>
<svg xmlns="http://www.w3.org/2000/svg" xmlns:xlink="http://www.w3.org/1999/xlink" contentStyleType="text/css" height="1117px" preserveAspectRatio="none" style="width:849px;height:1117px;background:#FFFFFF;" version="1.1" viewBox="0 0 849 1117" width="849px" zoomAndPan="magnify"><defs/><g><rect fill="#FFFFFF" height="29.1328" style="stroke:#181818;stroke-width:1.0;" width="10" x="22.5" y="697.9531"/><rect fill="#FFFFFF" height="840.7188" style="stroke:#181818;stroke-width:1.0;" width="10" x="203.5" y="223.9609"/><rect fill="#FFFFFF" height="113.3984" style="stroke:#181818;stroke-width:1.0;" width="10" x="584.5" y="110.5625"/><rect fill="#FFFFFF" height="71.2656" style="stroke:#181818;stroke-width:1.0;" width="10" x="584.5" y="429.0234"/><rect fill="#FFFFFF" height="293.3281" style="stroke:#181818;stroke-width:1.0;" width="10" x="584.5" y="771.3516"/><rect fill="none" height="116.5313" style="stroke:#000000;stroke-width:1.5;" width="237.5" x="136" y="238.9609"/><line style="stroke:#181818;stroke-width:0.5;stroke-dasharray:5.0,5.0;" x1="27" x2="27" y1="36.2969" y2="1082.6797"/><line style="stroke:#181818;stroke-width:0.5;stroke-dasharray:5.0,5.0;" x1="208" x2="208" y1="36.2969" y2="1082.6797"/><line style="stroke:#181818;stroke-width:0.5;stroke-dasharray:5.0,5.0;" x1="589" x2="589" y1="36.2969" y2="1082.6797"/><rect fill="#E2E2F0" height="30.2969" rx="2.5" ry="2.5" style="stroke:#181818;stroke-width:0.5;" width="45" x="5" y="5"/><text fill="#000000" font-family="sans-serif" font-size="14" lengthAdjust="spacing" textLength="31" x="12" y="24.9951">User</text><rect fill="#E2E2F0" height="30.2969" rx="2.5" ry="2.5" style="stroke:#181818;stroke-width:0.5;" width="45" x="5" y="1081.6797"/><text fill="#000000" font-family="sans-serif" font-size="14" lengthAdjust="spacing" textLength="31" x="12" y="1101.6748">User</text><rect fill="#E2E2F0" height="30.2969" rx="2.5" ry="2.5" style="stroke:#181818;stroke-width:0.5;" width="125" x="146" y="5"/><text fill="#000000" font-family="sans-serif" font-size="14" lengthAdjust="spacing" textLength="111" x="153" y="24.9951">Wallet Instance</text><rect fill="#E2E2F0" height="30.2969" rx="2.5" ry="2.5" style="stroke:#181818;stroke-width:0.5;" width="125" x="146" y="1081.6797"/><text fill="#000000" font-family="sans-serif" font-size="14" lengthAdjust="spacing" textLength="111" x="153" y="1101.6748">Wallet Instance</text><rect fill="#E2E2F0" height="30.2969" rx="2.5" ry="2.5" style="stroke:#181818;stroke-width:0.5;" width="109" x="535" y="5"/><text fill="#000000" font-family="sans-serif" font-size="14" lengthAdjust="spacing" textLength="95" x="542" y="24.9951">Relying Party</text><rect fill="#E2E2F0" height="30.2969" rx="2.5" ry="2.5" style="stroke:#181818;stroke-width:0.5;" width="109" x="535" y="1081.6797"/><text fill="#000000" font-family="sans-serif" font-size="14" lengthAdjust="spacing" textLength="95" x="542" y="1101.6748">Relying Party</text><rect fill="#FFFFFF" height="29.1328" style="stroke:#181818;stroke-width:1.0;" width="10" x="22.5" y="697.9531"/><rect fill="#FFFFFF" height="840.7188" style="stroke:#181818;stroke-width:1.0;" width="10" x="203.5" y="223.9609"/><rect fill="#FFFFFF" height="113.3984" style="stroke:#181818;stroke-width:1.0;" width="10" x="584.5" y="110.5625"/><rect fill="#FFFFFF" height="71.2656" style="stroke:#181818;stroke-width:1.0;" width="10" x="584.5" y="429.0234"/><rect fill="#FFFFFF" height="293.3281" style="stroke:#181818;stroke-width:1.0;" width="10" x="584.5" y="771.3516"/><rect fill="#EEEEEE" height="3" style="stroke:#EEEEEE;stroke-width:1.0;" width="842.5" x="0" y="66.8633"/><line style="stroke:#000000;stroke-width:1.0;" x1="0" x2="842.5" y1="66.8633" y2="66.8633"/><line style="stroke:#000000;stroke-width:1.0;" x1="0" x2="842.5" y1="69.8633" y2="69.8633"/><rect fill="#EEEEEE" height="23.1328" style="stroke:#000000;stroke-width:2.0;" width="138" x="352.25" y="56.2969"/><text fill="#000000" font-family="sans-serif" font-size="13" font-weight="bold" lengthAdjust="spacing" textLength="114" x="358.25" y="72.3638">Authentication</text><polygon fill="#181818" points="572.5,106.5625,582.5,110.5625,572.5,114.5625,576.5,110.5625" style="stroke:#181818;stroke-width:1.0;"/><line style="stroke:#181818;stroke-width:1.0;" x1="27.5" x2="578.5" y1="110.5625" y2="110.5625"/><text fill="#000000" font-family="sans-serif" font-size="13" font-weight="bold" lengthAdjust="spacing" textLength="9" x="34.5" y="105.4966">1</text><text fill="#000000" font-family="sans-serif" font-size="13" lengthAdjust="spacing" textLength="183" x="47.5" y="105.4966">Request Protected Resource</text><line style="stroke:#181818;stroke-width:1.0;" x1="594.5" x2="636.5" y1="139.6953" y2="139.6953"/><line style="stroke:#181818;stroke-width:1.0;" x1="636.5" x2="636.5" y1="139.6953" y2="152.6953"/><line style="stroke:#181818;stroke-width:1.0;" x1="595.5" x2="636.5" y1="152.6953" y2="152.6953"/><polygon fill="#181818" points="605.5,148.6953,595.5,152.6953,605.5,156.6953,601.5,152.6953" style="stroke:#181818;stroke-width:1.0;"/><text fill="#000000" font-family="sans-serif" font-size="13" font-weight="bold" lengthAdjust="spacing" textLength="9" x="601.5" y="134.6294">2</text><text fill="#000000" font-family="sans-serif" font-size="13" lengthAdjust="spacing" textLength="189" x="614.5" y="134.6294">Create Authorization Request</text><line style="stroke:#181818;stroke-width:1.0;" x1="594.5" x2="636.5" y1="181.8281" y2="181.8281"/><line style="stroke:#181818;stroke-width:1.0;" x1="636.5" x2="636.5" y1="181.8281" y2="194.8281"/><line style="stroke:#181818;stroke-width:1.0;" x1="595.5" x2="636.5" y1="194.8281" y2="194.8281"/><polygon fill="#181818" points="605.5,190.8281,595.5,194.8281,605.5,198.8281,601.5,194.8281" style="stroke:#181818;stroke-width:1.0;"/><text fill="#000000" font-family="sans-serif" font-size="13" font-weight="bold" lengthAdjust="spacing" textLength="8" x="601.5" y="176.7622">3</text><text fill="#000000" font-family="sans-serif" font-size="13" lengthAdjust="spacing" textLength="179" x="613.5" y="176.7622">Create request_uri resource</text><polygon fill="#181818" points="224.5,219.9609,214.5,223.9609,224.5,227.9609,220.5,223.9609" style="stroke:#181818;stroke-width:1.0;"/><line style="stroke:#181818;stroke-width:1.0;" x1="218.5" x2="588.5" y1="223.9609" y2="223.9609"/><text fill="#000000" font-family="sans-serif" font-size="13" font-weight="bold" lengthAdjust="spacing" textLength="9" x="230.5" y="218.895">4</text><text fill="#000000" font-family="sans-serif" font-size="13" lengthAdjust="spacing" textLength="339" x="243.5" y="218.895">QRCode OR HTTP Redirect (302) with the request_uri</text><path d="M136,238.9609 L314,238.9609 L314,246.0938 L304,256.0938 L136,256.0938 L136,238.9609 " fill="#EEEEEE" style="stroke:#000000;stroke-width:1.5;"/><rect fill="none" height="116.5313" style="stroke:#000000;stroke-width:1.5;" width="237.5" x="136" y="238.9609"/><text fill="#000000" font-family="sans-serif" font-size="13" font-weight="bold" lengthAdjust="spacing" textLength="133" x="151" y="252.0278">Cross Device only</text><line style="stroke:#181818;stroke-width:1.0;" x1="213.5" x2="255.5" y1="277.2266" y2="277.2266"/><line style="stroke:#181818;stroke-width:1.0;" x1="255.5" x2="255.5" y1="277.2266" y2="290.2266"/><line style="stroke:#181818;stroke-width:1.0;" x1="214.5" x2="255.5" y1="290.2266" y2="290.2266"/><polygon fill="#181818" points="224.5,286.2266,214.5,290.2266,224.5,294.2266,220.5,290.2266" style="stroke:#181818;stroke-width:1.0;"/><text fill="#000000" font-family="sans-serif" font-size="13" font-weight="bold" lengthAdjust="spacing" textLength="9" x="220.5" y="272.1606">5</text><text fill="#000000" font-family="sans-serif" font-size="13" lengthAdjust="spacing" textLength="91" x="233.5" y="272.1606">Scan QR Code</text><line style="stroke:#181818;stroke-width:1.0;" x1="213.5" x2="255.5" y1="334.4922" y2="334.4922"/><line style="stroke:#181818;stroke-width:1.0;" x1="255.5" x2="255.5" y1="334.4922" y2="347.4922"/><line style="stroke:#181818;stroke-width:1.0;" x1="214.5" x2="255.5" y1="347.4922" y2="347.4922"/><polygon fill="#181818" points="224.5,343.4922,214.5,347.4922,224.5,351.4922,220.5,347.4922" style="stroke:#181818;stroke-width:1.0;"/><text fill="#000000" font-family="sans-serif" font-size="13" font-weight="bold" lengthAdjust="spacing" textLength="9" x="220.5" y="321.8599">6</text><text fill="#000000" font-family="sans-serif" font-size="13" lengthAdjust="spacing" textLength="128" x="233.5" y="314.2935">Extract Request URI</text><text fill="#000000" font-family="sans-serif" font-size="13" lengthAdjust="spacing" textLength="91" x="233.5" y="329.4263">from QR Code</text><polygon fill="#181818" points="572.5,425.0234,582.5,429.0234,572.5,433.0234,576.5,429.0234" style="stroke:#181818;stroke-width:1.0;"/><line style="stroke:#181818;stroke-width:1.0;" x1="213.5" x2="578.5" y1="429.0234" y2="429.0234"/><text fill="#000000" font-family="sans-serif" font-size="13" font-weight="bold" lengthAdjust="spacing" textLength="9" x="220.5" y="401.2583">7</text><text fill="#000000" font-family="sans-serif" font-size="13" lengthAdjust="spacing" textLength="128" x="233.5" y="378.5591">GET Request Object</text><text fill="#000000" font-family="sans-serif" font-size="13" lengthAdjust="spacing" textLength="98" x="233.5" y="393.6919">by Request URI</text><text fill="#000000" font-family="sans-serif" font-size="13" lengthAdjust="spacing" textLength="204" x="233.5" y="408.8247">with Wallet Instance Attestation</text><text fill="#000000" font-family="sans-serif" font-size="13" lengthAdjust="spacing" textLength="93" x="233.5" y="423.9575">as DPoP token</text><line style="stroke:#181818;stroke-width:1.0;" x1="594.5" x2="636.5" y1="458.1563" y2="458.1563"/><line style="stroke:#181818;stroke-width:1.0;" x1="636.5" x2="636.5" y1="458.1563" y2="471.1563"/><line style="stroke:#181818;stroke-width:1.0;" x1="595.5" x2="636.5" y1="471.1563" y2="471.1563"/><polygon fill="#181818" points="605.5,467.1563,595.5,471.1563,605.5,475.1563,601.5,471.1563" style="stroke:#181818;stroke-width:1.0;"/><text fill="#000000" font-family="sans-serif" font-size="13" font-weight="bold" lengthAdjust="spacing" textLength="9" x="601.5" y="453.0903">8</text><text fill="#000000" font-family="sans-serif" font-size="13" lengthAdjust="spacing" textLength="178" x="614.5" y="453.0903">Attest Wallet Instance Trust</text><polygon fill="#181818" points="224.5,496.2891,214.5,500.2891,224.5,504.2891,220.5,500.2891" style="stroke:#181818;stroke-width:1.0;"/><line style="stroke:#181818;stroke-width:1.0;stroke-dasharray:2.0,2.0;" x1="218.5" x2="588.5" y1="500.2891" y2="500.2891"/><text fill="#000000" font-family="sans-serif" font-size="13" font-weight="bold" lengthAdjust="spacing" textLength="9" x="230.5" y="495.2231">9</text><text fill="#000000" font-family="sans-serif" font-size="13" lengthAdjust="spacing" textLength="98" x="243.5" y="495.2231">Request Object</text><line style="stroke:#181818;stroke-width:1.0;" x1="213.5" x2="255.5" y1="529.4219" y2="529.4219"/><line style="stroke:#181818;stroke-width:1.0;" x1="255.5" x2="255.5" y1="529.4219" y2="542.4219"/><line style="stroke:#181818;stroke-width:1.0;" x1="214.5" x2="255.5" y1="542.4219" y2="542.4219"/><polygon fill="#181818" points="224.5,538.4219,214.5,542.4219,224.5,546.4219,220.5,542.4219" style="stroke:#181818;stroke-width:1.0;"/><text fill="#000000" font-family="sans-serif" font-size="13" font-weight="bold" lengthAdjust="spacing" textLength="19" x="220.5" y="524.356">10</text><text fill="#000000" font-family="sans-serif" font-size="13" lengthAdjust="spacing" textLength="165" x="243.5" y="524.356">Attest Relying Party Trust</text><line style="stroke:#181818;stroke-width:1.0;" x1="213.5" x2="255.5" y1="571.5547" y2="571.5547"/><line style="stroke:#181818;stroke-width:1.0;" x1="255.5" x2="255.5" y1="571.5547" y2="584.5547"/><line style="stroke:#181818;stroke-width:1.0;" x1="214.5" x2="255.5" y1="584.5547" y2="584.5547"/><polygon fill="#181818" points="224.5,580.5547,214.5,584.5547,224.5,588.5547,220.5,584.5547" style="stroke:#181818;stroke-width:1.0;"/><text fill="#000000" font-family="sans-serif" font-size="13" font-weight="bold" lengthAdjust="spacing" textLength="18" x="220.5" y="566.4888">11</text><text fill="#000000" font-family="sans-serif" font-size="13" lengthAdjust="spacing" textLength="191" x="242.5" y="566.4888">Verify Relying Party Metadata</text><line style="stroke:#181818;stroke-width:1.0;" x1="213.5" x2="255.5" y1="613.6875" y2="613.6875"/><line style="stroke:#181818;stroke-width:1.0;" x1="255.5" x2="255.5" y1="613.6875" y2="626.6875"/><line style="stroke:#181818;stroke-width:1.0;" x1="214.5" x2="255.5" y1="626.6875" y2="626.6875"/><polygon fill="#181818" points="224.5,622.6875,214.5,626.6875,224.5,630.6875,220.5,626.6875" style="stroke:#181818;stroke-width:1.0;"/><text fill="#000000" font-family="sans-serif" font-size="13" font-weight="bold" lengthAdjust="spacing" textLength="18" x="220.5" y="608.6216">12</text><text fill="#000000" font-family="sans-serif" font-size="13" lengthAdjust="spacing" textLength="146" x="242.5" y="608.6216">Validate JWT Signature</text><line style="stroke:#181818;stroke-width:1.0;" x1="213.5" x2="255.5" y1="655.8203" y2="655.8203"/><line style="stroke:#181818;stroke-width:1.0;" x1="255.5" x2="255.5" y1="655.8203" y2="668.8203"/><line style="stroke:#181818;stroke-width:1.0;" x1="214.5" x2="255.5" y1="668.8203" y2="668.8203"/><polygon fill="#181818" points="224.5,664.8203,214.5,668.8203,224.5,672.8203,220.5,668.8203" style="stroke:#181818;stroke-width:1.0;"/><text fill="#000000" font-family="sans-serif" font-size="13" font-weight="bold" lengthAdjust="spacing" textLength="17" x="220.5" y="650.7544">13</text><text fill="#000000" font-family="sans-serif" font-size="13" lengthAdjust="spacing" textLength="163" x="241.5" y="650.7544">Validate Requested VP(s)</text><polygon fill="#181818" points="43.5,693.9531,33.5,697.9531,43.5,701.9531,39.5,697.9531" style="stroke:#181818;stroke-width:1.0;"/><line style="stroke:#181818;stroke-width:1.0;" x1="37.5" x2="202.5" y1="697.9531" y2="697.9531"/><text fill="#000000" font-family="sans-serif" font-size="13" font-weight="bold" lengthAdjust="spacing" textLength="18" x="49.5" y="692.8872">14</text><text fill="#000000" font-family="sans-serif" font-size="13" lengthAdjust="spacing" textLength="130" x="71.5" y="692.8872">Request for consent</text><polygon fill="#181818" points="191.5,723.0859,201.5,727.0859,191.5,731.0859,195.5,727.0859" style="stroke:#181818;stroke-width:1.0;"/><line style="stroke:#181818;stroke-width:1.0;stroke-dasharray:2.0,2.0;" x1="27.5" x2="197.5" y1="727.0859" y2="727.0859"/><text fill="#000000" font-family="sans-serif" font-size="13" font-weight="bold" lengthAdjust="spacing" textLength="18" x="34.5" y="722.02">15</text><text fill="#000000" font-family="sans-serif" font-size="13" lengthAdjust="spacing" textLength="67" x="56.5" y="722.02">Confirmed</text><polygon fill="#181818" points="572.5,767.3516,582.5,771.3516,572.5,775.3516,576.5,771.3516" style="stroke:#181818;stroke-width:1.0;"/><line style="stroke:#181818;stroke-width:1.0;" x1="213.5" x2="578.5" y1="771.3516" y2="771.3516"/><text fill="#000000" font-family="sans-serif" font-size="13" font-weight="bold" lengthAdjust="spacing" textLength="18" x="220.5" y="758.7192">16</text><text fill="#000000" font-family="sans-serif" font-size="13" lengthAdjust="spacing" textLength="190" x="242.5" y="751.1528">POST Authorization Response</text><text fill="#000000" font-family="sans-serif" font-size="13" lengthAdjust="spacing" textLength="90" x="246.5" y="766.2856">with vp_token</text><line style="stroke:#181818;stroke-width:1.0;" x1="594.5" x2="636.5" y1="800.4844" y2="800.4844"/><line style="stroke:#181818;stroke-width:1.0;" x1="636.5" x2="636.5" y1="800.4844" y2="813.4844"/><line style="stroke:#181818;stroke-width:1.0;" x1="595.5" x2="636.5" y1="813.4844" y2="813.4844"/><polygon fill="#181818" points="605.5,809.4844,595.5,813.4844,605.5,817.4844,601.5,813.4844" style="stroke:#181818;stroke-width:1.0;"/><text fill="#000000" font-family="sans-serif" font-size="13" font-weight="bold" lengthAdjust="spacing" textLength="18" x="601.5" y="795.4185">17</text><text fill="#000000" font-family="sans-serif" font-size="13" lengthAdjust="spacing" textLength="187" x="623.5" y="795.4185">Attest Credential Issuer Trust</text><line style="stroke:#181818;stroke-width:1.0;" x1="594.5" x2="636.5" y1="842.6172" y2="842.6172"/><line style="stroke:#181818;stroke-width:1.0;" x1="636.5" x2="636.5" y1="842.6172" y2="855.6172"/><line style="stroke:#181818;stroke-width:1.0;" x1="595.5" x2="636.5" y1="855.6172" y2="855.6172"/><polygon fill="#181818" points="605.5,851.6172,595.5,855.6172,605.5,859.6172,601.5,855.6172" style="stroke:#181818;stroke-width:1.0;"/><text fill="#000000" font-family="sans-serif" font-size="13" font-weight="bold" lengthAdjust="spacing" textLength="18" x="601.5" y="837.5513">18</text><text fill="#000000" font-family="sans-serif" font-size="13" lengthAdjust="spacing" textLength="146" x="623.5" y="837.5513">Validate JWT Signature</text><line style="stroke:#181818;stroke-width:1.0;" x1="594.5" x2="636.5" y1="884.75" y2="884.75"/><line style="stroke:#181818;stroke-width:1.0;" x1="636.5" x2="636.5" y1="884.75" y2="897.75"/><line style="stroke:#181818;stroke-width:1.0;" x1="595.5" x2="636.5" y1="897.75" y2="897.75"/><polygon fill="#181818" points="605.5,893.75,595.5,897.75,605.5,901.75,601.5,897.75" style="stroke:#181818;stroke-width:1.0;"/><text fill="#000000" font-family="sans-serif" font-size="13" font-weight="bold" lengthAdjust="spacing" textLength="18" x="601.5" y="879.6841">19</text><text fill="#000000" font-family="sans-serif" font-size="13" lengthAdjust="spacing" textLength="142" x="623.5" y="879.6841">Process the credential</text><line style="stroke:#181818;stroke-width:1.0;" x1="594.5" x2="636.5" y1="926.8828" y2="926.8828"/><line style="stroke:#181818;stroke-width:1.0;" x1="636.5" x2="636.5" y1="926.8828" y2="939.8828"/><line style="stroke:#181818;stroke-width:1.0;" x1="595.5" x2="636.5" y1="939.8828" y2="939.8828"/><polygon fill="#181818" points="605.5,935.8828,595.5,939.8828,605.5,943.8828,601.5,939.8828" style="stroke:#181818;stroke-width:1.0;"/><text fill="#000000" font-family="sans-serif" font-size="13" font-weight="bold" lengthAdjust="spacing" textLength="19" x="601.5" y="921.8169">20</text><text fill="#000000" font-family="sans-serif" font-size="13" lengthAdjust="spacing" textLength="206" x="624.5" y="921.8169">Process Authorization Response</text><path d="M388,952.8828 L388,1037.8828 L791,1037.8828 L791,962.8828 L781,952.8828 L388,952.8828 " fill="#FEFFDD" style="stroke:#181818;stroke-width:0.5;"/><path d="M781,952.8828 L781,962.8828 L791,962.8828 L781,952.8828 " fill="#FEFFDD" style="stroke:#181818;stroke-width:0.5;"/><text fill="#000000" font-family="sans-serif" font-size="13" lengthAdjust="spacing" textLength="171" x="394" y="969.9497">Process phase requires to:</text><text fill="#000000" font-family="sans-serif" font-size="13" lengthAdjust="spacing" textLength="382" x="394" y="985.0825">- validate integrity, authenticity, and holder binding of VP(s)</text><text fill="#000000" font-family="sans-serif" font-size="13" lengthAdjust="spacing" textLength="256" x="394" y="1000.2153">- ensure all VP(s) are linked with Verifier</text><text fill="#000000" font-family="sans-serif" font-size="13" lengthAdjust="spacing" textLength="351" x="394" y="1015.3481">- ensure all VP(s) are linked with current session nonce</text><text fill="#000000" font-family="sans-serif" font-size="13" lengthAdjust="spacing" textLength="246" x="394" y="1030.481">- ensure all VC(s) requested is present</text><polygon fill="#181818" points="219.5,1060.6797,209.5,1064.6797,219.5,1068.6797,215.5,1064.6797" style="stroke:#181818;stroke-width:1.0;"/><line style="stroke:#181818;stroke-width:1.0;stroke-dasharray:2.0,2.0;" x1="213.5" x2="588.5" y1="1064.6797" y2="1064.6797"/><text fill="#000000" font-family="sans-serif" font-size="13" font-weight="bold" lengthAdjust="spacing" textLength="18" x="225.5" y="1059.6138">21</text><text fill="#000000" font-family="sans-serif" font-size="13" lengthAdjust="spacing" textLength="18" x="247.5" y="1059.6138">OK</text><!--SRC=[ZLF1Rjim3BtxAuYUMc05XkqM80EAjDYoOOYNkkqbGA7OJABLeJnASkPz_QZ8iPsa1NgpgSV7H_9HUMV8RvV8IL8fTZhNbI875myM-GAK1NySVr9bYGwcP9sY7FUGtJ5aZcMZQGsf19izeCOa6O_XnhiDaW2LquO0nkF4m_KNUHx17Fzuj0vIDWvpXuL4hF6SOw9ofslbCD3KU4YOC8POu3Ii_qNAbkKSnl7XsREMxvOuedOZ-3MVc09XDeTlMPOAIw5PHC3bvu-Vhc2dtGP4-P0aAN0eg_lU9ScQZQ-ahh4MRh7MEOAXiabsRR7xN95KX52o2zxzTImatHWUvjC5hTXiEoHI4T6XgwztMGUTBNy7hGjQDiDq2Uo5domCRfmJH1pNWcGvjwb9mPaNf3Sc7JFEY3BsxQHZ2yTwJWPqwBFbEh98otI0F2BhLNC2-ObE5Sgf7gLANGJoxqyPtEirAUSPpvzRLUAdn_JINaM0xzMk34Dko8el-_Pzy6KacXXQQTvYCMp8zvj8P_VPcGbj5HXblD4xTVNyZlcAKujm7Qg4gRKUUJ3X27oZvnuWnvEZs2wODU_eNW6yBZWXkJqmjPGUWgkDij7ySXL2RaRIsJNK1pMQ7AvPk-O3gCE5npygO6FAGlYMcegmJREAUmW4I5RaWzWgna39NwdfHPQrdzlU2HhvNU3SCqjfi28vD4L6J7gQEGcPt5b2ItFIKjXzx-FPZ-6gvQ2FhVmV]--></g></svg>