<?xml version="1.0" encoding="us-ascii" standalone="no"?><svg xmlns="http://www.w3.org/2000/svg" xmlns:xlink="http://www.w3.org/1999/xlink" contentStyleType="text/css" height="1136px" preserveAspectRatio="none" style="width:1651px;height:1136px;background:#FFFFFF;" version="1.1" viewBox="0 0 1651 1136" width="1651px" zoomAndPan="magnify"><defs/><g><rect fill="#ADD8E6" height="1124.6484" style="stroke:#181818;stroke-width:0.5;" width="431.5" x="91" y="6"/><text fill="#000000" font-family="sans-serif" font-size="13" font-weight="bold" lengthAdjust="spacing" textLength="143" x="235.25" y="18.0669">User's smartphone</text><rect fill="none" height="98.2031" style="stroke:#000000;stroke-width:1.5;" width="1560" x="9" y="463.1563"/><line style="stroke:#181818;stroke-width:0.5;stroke-dasharray:5.0,5.0;" x1="62" x2="62" y1="56.4297" y2="1096.3516"/><line style="stroke:#181818;stroke-width:0.5;stroke-dasharray:5.0,5.0;" x1="131" x2="131" y1="56.4297" y2="1096.3516"/><line style="stroke:#181818;stroke-width:0.5;stroke-dasharray:5.0,5.0;" x1="455.5" x2="455.5" y1="56.4297" y2="1096.3516"/><line style="stroke:#181818;stroke-width:0.5;stroke-dasharray:5.0,5.0;" x1="875" x2="875" y1="56.4297" y2="1096.3516"/><line style="stroke:#181818;stroke-width:0.5;stroke-dasharray:5.0,5.0;" x1="1516" x2="1516" y1="56.4297" y2="1096.3516"/><rect fill="#E2E2F0" height="30.2969" rx="2.5" ry="2.5" style="stroke:#181818;stroke-width:0.5;" width="45" x="40" y="25.1328"/><text fill="#000000" font-family="sans-serif" font-size="14" lengthAdjust="spacing" textLength="31" x="47" y="45.1279">User</text><rect fill="#E2E2F0" height="30.2969" rx="2.5" ry="2.5" style="stroke:#181818;stroke-width:0.5;" width="45" x="40" y="1095.3516"/><text fill="#000000" font-family="sans-serif" font-size="14" lengthAdjust="spacing" textLength="31" x="47" y="1115.3467">User</text><rect fill="#E2E2F0" height="30.2969" rx="2.5" ry="2.5" style="stroke:#181818;stroke-width:0.5;" width="72" x="95" y="25.1328"/><text fill="#000000" font-family="sans-serif" font-size="14" lengthAdjust="spacing" textLength="58" x="102" y="45.1279">Browser</text><rect fill="#E2E2F0" height="30.2969" rx="2.5" ry="2.5" style="stroke:#181818;stroke-width:0.5;" width="72" x="95" y="1095.3516"/><text fill="#000000" font-family="sans-serif" font-size="14" lengthAdjust="spacing" textLength="58" x="102" y="1115.3467">Browser</text><rect fill="#E2E2F0" height="30.2969" rx="2.5" ry="2.5" style="stroke:#181818;stroke-width:0.5;" width="125" x="393.5" y="25.1328"/><text fill="#000000" font-family="sans-serif" font-size="14" lengthAdjust="spacing" textLength="111" x="400.5" y="45.1279">Wallet Instance</text><rect fill="#E2E2F0" height="30.2969" rx="2.5" ry="2.5" style="stroke:#181818;stroke-width:0.5;" width="125" x="393.5" y="1095.3516"/><text fill="#000000" font-family="sans-serif" font-size="14" lengthAdjust="spacing" textLength="111" x="400.5" y="1115.3467">Wallet Instance</text><rect fill="#E2E2F0" height="30.2969" rx="2.5" ry="2.5" style="stroke:#181818;stroke-width:0.5;" width="124" x="813" y="25.1328"/><text fill="#000000" font-family="sans-serif" font-size="14" lengthAdjust="spacing" textLength="110" x="820" y="45.1279">Wallet Provider</text><rect fill="#E2E2F0" height="30.2969" rx="2.5" ry="2.5" style="stroke:#181818;stroke-width:0.5;" width="124" x="813" y="1095.3516"/><text fill="#000000" font-family="sans-serif" font-size="14" lengthAdjust="spacing" textLength="110" x="820" y="1115.3467">Wallet Provider</text><rect fill="#E2E2F0" height="30.2969" rx="2.5" ry="2.5" style="stroke:#181818;stroke-width:0.5;" width="138" x="1447" y="25.1328"/><text fill="#000000" font-family="sans-serif" font-size="14" lengthAdjust="spacing" textLength="124" x="1454" y="45.1279">PID/(Q)EAA Issuer</text><rect fill="#E2E2F0" height="30.2969" rx="2.5" ry="2.5" style="stroke:#181818;stroke-width:0.5;" width="138" x="1447" y="1095.3516"/><text fill="#000000" font-family="sans-serif" font-size="14" lengthAdjust="spacing" textLength="124" x="1454" y="1115.3467">PID/(Q)EAA Issuer</text><polygon fill="#181818" points="73.5,83.5625,63.5,87.5625,73.5,91.5625,69.5,87.5625" style="stroke:#181818;stroke-width:1.0;"/><line style="stroke:#181818;stroke-width:1.0;" x1="67.5" x2="455" y1="87.5625" y2="87.5625"/><text fill="#000000" font-family="sans-serif" font-size="13" font-weight="bold" lengthAdjust="spacing" textLength="9" x="79.5" y="82.4966">1</text><text fill="#000000" font-family="sans-serif" font-size="13" lengthAdjust="spacing" textLength="148" x="92.5" y="82.4966">obtain your PID/(Q)EAA</text><polygon fill="#181818" points="444,112.6953,454,116.6953,444,120.6953,448,116.6953" style="stroke:#181818;stroke-width:1.0;"/><line style="stroke:#181818;stroke-width:1.0;stroke-dasharray:2.0,2.0;" x1="62.5" x2="450" y1="116.6953" y2="116.6953"/><text fill="#000000" font-family="sans-serif" font-size="13" font-weight="bold" lengthAdjust="spacing" textLength="9" x="69.5" y="111.6294">2</text><text fill="#000000" font-family="sans-serif" font-size="13" lengthAdjust="spacing" textLength="23" x="82.5" y="111.6294">yes</text><rect fill="#FFFFFF" height="23" style="stroke:#181818;stroke-width:0.5;" width="269" x="321" y="129.6953"/><text fill="#000000" font-family="sans-serif" font-size="13" lengthAdjust="spacing" textLength="261" x="325" y="145.7622">obtain a list of Trusted PID/(Q)EAA Issuer</text><polygon fill="#181818" points="73.5,174.9609,63.5,178.9609,73.5,182.9609,69.5,178.9609" style="stroke:#181818;stroke-width:1.0;"/><line style="stroke:#181818;stroke-width:1.0;" x1="67.5" x2="455" y1="178.9609" y2="178.9609"/><text fill="#000000" font-family="sans-serif" font-size="13" font-weight="bold" lengthAdjust="spacing" textLength="8" x="79.5" y="173.895">3</text><text fill="#000000" font-family="sans-serif" font-size="13" lengthAdjust="spacing" textLength="269" x="91.5" y="173.895">confirm the selection of PID/(Q)EAA Issuer</text><polygon fill="#181818" points="444,204.0938,454,208.0938,444,212.0938,448,208.0938" style="stroke:#181818;stroke-width:1.0;"/><line style="stroke:#181818;stroke-width:1.0;stroke-dasharray:2.0,2.0;" x1="62.5" x2="450" y1="208.0938" y2="208.0938"/><text fill="#000000" font-family="sans-serif" font-size="13" font-weight="bold" lengthAdjust="spacing" textLength="9" x="69.5" y="203.0278">4</text><text fill="#000000" font-family="sans-serif" font-size="13" lengthAdjust="spacing" textLength="15" x="82.5" y="203.0278">ok</text><rect fill="#90EE90" height="23" style="stroke:#181818;stroke-width:0.5;" width="1186" x="392" y="221.0938"/><text fill="#000000" font-family="sans-serif" font-size="13" lengthAdjust="spacing" textLength="641" x="664.75" y="237.1606">Wallet Instance checks that the PID/(Q)EAA Issuer is part of the Federation and obtains its metadata</text><line style="stroke:#181818;stroke-width:1.0;" x1="456" x2="498" y1="270.3594" y2="270.3594"/><line style="stroke:#181818;stroke-width:1.0;" x1="498" x2="498" y1="270.3594" y2="283.3594"/><line style="stroke:#181818;stroke-width:1.0;" x1="457" x2="498" y1="283.3594" y2="283.3594"/><polygon fill="#181818" points="467,279.3594,457,283.3594,467,287.3594,463,283.3594" style="stroke:#181818;stroke-width:1.0;"/><text fill="#000000" font-family="sans-serif" font-size="13" font-weight="bold" lengthAdjust="spacing" textLength="9" x="463" y="265.2935">5</text><text fill="#000000" font-family="sans-serif" font-size="13" lengthAdjust="spacing" textLength="162" x="476" y="265.2935">create PKCE code verifier</text><polygon fill="#181818" points="1504,308.4922,1514,312.4922,1504,316.4922,1508,312.4922" style="stroke:#181818;stroke-width:1.0;"/><line style="stroke:#181818;stroke-width:1.0;" x1="456" x2="1510" y1="312.4922" y2="312.4922"/><text fill="#000000" font-family="sans-serif" font-size="13" font-weight="bold" lengthAdjust="spacing" textLength="9" x="463" y="307.4263">6</text><text fill="#000000" font-family="sans-serif" font-size="13" lengthAdjust="spacing" textLength="1023" x="476" y="307.4263">PAR Request (response_type, client_id, code_challenge, code_challenge_method, request, client_assertion_type, client_assertion=$WalletInstanceAttestation$)</text><rect fill="#90EE90" height="38" style="stroke:#181818;stroke-width:0.5;" width="767" x="812" y="325.4922"/><text fill="#000000" font-family="sans-serif" font-size="13" lengthAdjust="spacing" textLength="475" x="924.5" y="341.5591">PID/(Q)EAA Issuer checks that the Wallet Provider is part of the Federation</text><text fill="#000000" font-family="sans-serif" font-size="13" lengthAdjust="spacing" textLength="538" x="924.5" y="356.6919">PID/(Q)EAA Issuer checks that the signature of the Wallet Attestation and its validity</text><polygon fill="#181818" points="467,385.8906,457,389.8906,467,393.8906,463,389.8906" style="stroke:#181818;stroke-width:1.0;"/><line style="stroke:#181818;stroke-width:1.0;stroke-dasharray:2.0,2.0;" x1="461" x2="1515" y1="389.8906" y2="389.8906"/><text fill="#000000" font-family="sans-serif" font-size="13" font-weight="bold" lengthAdjust="spacing" textLength="9" x="473" y="384.8247">7</text><text fill="#000000" font-family="sans-serif" font-size="13" lengthAdjust="spacing" textLength="252" x="486" y="384.8247">PAR Response (request_uri, expires_in)</text><polygon fill="#181818" points="142,415.0234,132,419.0234,142,423.0234,138,419.0234" style="stroke:#181818;stroke-width:1.0;"/><line style="stroke:#181818;stroke-width:1.0;stroke-dasharray:2.0,2.0;" x1="136" x2="455" y1="419.0234" y2="419.0234"/><text fill="#000000" font-family="sans-serif" font-size="13" font-weight="bold" lengthAdjust="spacing" textLength="9" x="148" y="413.9575">8</text><text fill="#000000" font-family="sans-serif" font-size="13" lengthAdjust="spacing" textLength="288" x="161" y="413.9575">Authorization Request (client_id, request_uri)</text><polygon fill="#181818" points="1504,444.1563,1514,448.1563,1504,452.1563,1508,448.1563" style="stroke:#181818;stroke-width:1.0;"/><line style="stroke:#181818;stroke-width:1.0;stroke-dasharray:2.0,2.0;" x1="131" x2="1510" y1="448.1563" y2="448.1563"/><text fill="#000000" font-family="sans-serif" font-size="13" font-weight="bold" lengthAdjust="spacing" textLength="9" x="138" y="443.0903">9</text><text fill="#000000" font-family="sans-serif" font-size="13" lengthAdjust="spacing" textLength="288" x="151" y="443.0903">Authorization Request (client_id, request_uri)</text><path d="M9,463.1563 L75,463.1563 L75,470.2891 L65,480.2891 L9,480.2891 L9,463.1563 " fill="#EEEEEE" style="stroke:#000000;stroke-width:1.5;"/><rect fill="none" height="98.2031" style="stroke:#000000;stroke-width:1.5;" width="1560" x="9" y="463.1563"/><text fill="#000000" font-family="sans-serif" font-size="13" font-weight="bold" lengthAdjust="spacing" textLength="21" x="24" y="476.2231">alt</text><text fill="#000000" font-family="sans-serif" font-size="11" font-weight="bold" lengthAdjust="spacing" textLength="116" x="90" y="475.3667">[(Q)EAA issuance]</text><rect fill="#FFFFFF" height="23" style="stroke:#181818;stroke-width:0.5;" width="1540" x="19" y="485.2891"/><text fill="#000000" font-family="sans-serif" font-size="13" lengthAdjust="spacing" textLength="264" x="657" y="501.356">User authentication with PID and consent</text><line style="stroke:#000000;stroke-width:1.0;stroke-dasharray:2.0,2.0;" x1="9" x2="1569" y1="514.4219" y2="514.4219"/><text fill="#000000" font-family="sans-serif" font-size="11" font-weight="bold" lengthAdjust="spacing" textLength="93" x="14" y="524.6323">[PID issuance]</text><rect fill="#FFFFFF" height="23" style="stroke:#181818;stroke-width:0.5;" width="1540" x="19" y="533.2266"/><text fill="#000000" font-family="sans-serif" font-size="13" lengthAdjust="spacing" textLength="341" x="618.5" y="549.2935">User authentication with eIDAS LoA High and consent</text><polygon fill="#181818" points="142,585.4922,132,589.4922,142,593.4922,138,589.4922" style="stroke:#181818;stroke-width:1.0;"/><line style="stroke:#181818;stroke-width:1.0;stroke-dasharray:2.0,2.0;" x1="136" x2="1515" y1="589.4922" y2="589.4922"/><text fill="#000000" font-family="sans-serif" font-size="13" font-weight="bold" lengthAdjust="spacing" textLength="19" x="148" y="584.4263">10</text><text fill="#000000" font-family="sans-serif" font-size="13" lengthAdjust="spacing" textLength="238" x="171" y="584.4263">Authorization Response (code, state)</text><polygon fill="#181818" points="444,614.625,454,618.625,444,622.625,448,618.625" style="stroke:#181818;stroke-width:1.0;"/><line style="stroke:#181818;stroke-width:1.0;stroke-dasharray:2.0,2.0;" x1="131" x2="450" y1="618.625" y2="618.625"/><text fill="#000000" font-family="sans-serif" font-size="13" font-weight="bold" lengthAdjust="spacing" textLength="18" x="138" y="613.5591">11</text><text fill="#000000" font-family="sans-serif" font-size="13" lengthAdjust="spacing" textLength="238" x="160" y="613.5591">Authorization Response (code, state)</text><line style="stroke:#181818;stroke-width:1.0;" x1="456" x2="498" y1="647.7578" y2="647.7578"/><line style="stroke:#181818;stroke-width:1.0;" x1="498" x2="498" y1="647.7578" y2="660.7578"/><line style="stroke:#181818;stroke-width:1.0;" x1="457" x2="498" y1="660.7578" y2="660.7578"/><polygon fill="#181818" points="467,656.7578,457,660.7578,467,664.7578,463,660.7578" style="stroke:#181818;stroke-width:1.0;"/><text fill="#000000" font-family="sans-serif" font-size="13" font-weight="bold" lengthAdjust="spacing" textLength="18" x="463" y="642.6919">12</text><text fill="#000000" font-family="sans-serif" font-size="13" lengthAdjust="spacing" textLength="123" x="485" y="642.6919">generate DPoP key</text><line style="stroke:#181818;stroke-width:1.0;" x1="456" x2="498" y1="689.8906" y2="689.8906"/><line style="stroke:#181818;stroke-width:1.0;" x1="498" x2="498" y1="689.8906" y2="702.8906"/><line style="stroke:#181818;stroke-width:1.0;" x1="457" x2="498" y1="702.8906" y2="702.8906"/><polygon fill="#181818" points="467,698.8906,457,702.8906,467,706.8906,463,702.8906" style="stroke:#181818;stroke-width:1.0;"/><text fill="#000000" font-family="sans-serif" font-size="13" font-weight="bold" lengthAdjust="spacing" textLength="17" x="463" y="684.8247">13</text><text fill="#000000" font-family="sans-serif" font-size="13" lengthAdjust="spacing" textLength="377" x="484" y="684.8247">generate DPoP proof for PID/(Q)EAA Issuer  token endpoint</text><polygon fill="#181818" points="1504,728.0234,1514,732.0234,1504,736.0234,1508,732.0234" style="stroke:#181818;stroke-width:1.0;"/><line style="stroke:#181818;stroke-width:1.0;" x1="456" x2="1510" y1="732.0234" y2="732.0234"/><text fill="#000000" font-family="sans-serif" font-size="13" font-weight="bold" lengthAdjust="spacing" textLength="18" x="463" y="726.9575">14</text><text fill="#000000" font-family="sans-serif" font-size="13" lengthAdjust="spacing" textLength="809" x="485" y="726.9575">Token Request with DPoP proof (client_id, grant_type, code, code_verifier, client_assertion_type, client_assertion, redirect_uri)</text><polygon fill="#181818" points="467,757.1563,457,761.1563,467,765.1563,463,761.1563" style="stroke:#181818;stroke-width:1.0;"/><line style="stroke:#181818;stroke-width:1.0;" x1="461" x2="1515" y1="761.1563" y2="761.1563"/><text fill="#000000" font-family="sans-serif" font-size="13" font-weight="bold" lengthAdjust="spacing" textLength="18" x="473" y="756.0903">15</text><text fill="#000000" font-family="sans-serif" font-size="13" lengthAdjust="spacing" textLength="554" x="495" y="756.0903">Token Response (access_token, token_type, expires_in, c_nonce, c_nonce_expires_in)</text><line style="stroke:#181818;stroke-width:1.0;" x1="456" x2="498" y1="790.2891" y2="790.2891"/><line style="stroke:#181818;stroke-width:1.0;" x1="498" x2="498" y1="790.2891" y2="803.2891"/><line style="stroke:#181818;stroke-width:1.0;" x1="457" x2="498" y1="803.2891" y2="803.2891"/><polygon fill="#181818" points="467,799.2891,457,803.2891,467,807.2891,463,803.2891" style="stroke:#181818;stroke-width:1.0;"/><text fill="#000000" font-family="sans-serif" font-size="13" font-weight="bold" lengthAdjust="spacing" textLength="18" x="463" y="785.2231">16</text><text fill="#000000" font-family="sans-serif" font-size="13" lengthAdjust="spacing" textLength="211" x="485" y="785.2231">generate fresh key for credential</text><line style="stroke:#181818;stroke-width:1.0;" x1="456" x2="498" y1="832.4219" y2="832.4219"/><line style="stroke:#181818;stroke-width:1.0;" x1="498" x2="498" y1="832.4219" y2="845.4219"/><line style="stroke:#181818;stroke-width:1.0;" x1="457" x2="498" y1="845.4219" y2="845.4219"/><polygon fill="#181818" points="467,841.4219,457,845.4219,467,849.4219,463,845.4219" style="stroke:#181818;stroke-width:1.0;"/><text fill="#000000" font-family="sans-serif" font-size="13" font-weight="bold" lengthAdjust="spacing" textLength="18" x="463" y="827.356">17</text><text fill="#000000" font-family="sans-serif" font-size="13" lengthAdjust="spacing" textLength="238" x="485" y="827.356">create proof of possession (c_nonce)</text><line style="stroke:#181818;stroke-width:1.0;" x1="456" x2="498" y1="874.5547" y2="874.5547"/><line style="stroke:#181818;stroke-width:1.0;" x1="498" x2="498" y1="874.5547" y2="887.5547"/><line style="stroke:#181818;stroke-width:1.0;" x1="457" x2="498" y1="887.5547" y2="887.5547"/><polygon fill="#181818" points="467,883.5547,457,887.5547,467,891.5547,463,887.5547" style="stroke:#181818;stroke-width:1.0;"/><text fill="#000000" font-family="sans-serif" font-size="13" font-weight="bold" lengthAdjust="spacing" textLength="18" x="463" y="869.4888">18</text><text fill="#000000" font-family="sans-serif" font-size="13" lengthAdjust="spacing" textLength="383" x="485" y="869.4888">create DPoP proof for PID/(Q)EAA Issuer credential endpoint</text><polygon fill="#181818" points="1504,912.6875,1514,916.6875,1504,920.6875,1508,916.6875" style="stroke:#181818;stroke-width:1.0;"/><line style="stroke:#181818;stroke-width:1.0;" x1="456" x2="1510" y1="916.6875" y2="916.6875"/><text fill="#000000" font-family="sans-serif" font-size="13" font-weight="bold" lengthAdjust="spacing" textLength="18" x="463" y="911.6216">19</text><text fill="#000000" font-family="sans-serif" font-size="13" lengthAdjust="spacing" textLength="623" x="485" y="911.6216">Credential Request with DPoP access_token and DPoP proof (credential_definition, format, proof)</text><rect fill="#ADD8E6" height="38" style="stroke:#181818;stroke-width:0.5;" width="259" x="1386" y="929.6875"/><text fill="#000000" font-family="sans-serif" font-size="13" lengthAdjust="spacing" textLength="213" x="1390" y="945.7544">Register all the credential-related</text><text fill="#000000" font-family="sans-serif" font-size="13" lengthAdjust="spacing" textLength="243" x="1390" y="960.8872">information for verification/revocation</text><polygon fill="#181818" points="467,990.0859,457,994.0859,467,998.0859,463,994.0859" style="stroke:#181818;stroke-width:1.0;"/><line style="stroke:#181818;stroke-width:1.0;" x1="461" x2="1515" y1="994.0859" y2="994.0859"/><text fill="#000000" font-family="sans-serif" font-size="13" font-weight="bold" lengthAdjust="spacing" textLength="19" x="473" y="989.02">20</text><text fill="#000000" font-family="sans-serif" font-size="13" lengthAdjust="spacing" textLength="455" x="496" y="989.02">Credential Response (format, credential, c_nonce, c_nonce_expires_in)</text><line style="stroke:#181818;stroke-width:1.0;" x1="456" x2="498" y1="1023.2188" y2="1023.2188"/><line style="stroke:#181818;stroke-width:1.0;" x1="498" x2="498" y1="1023.2188" y2="1036.2188"/><line style="stroke:#181818;stroke-width:1.0;" x1="457" x2="498" y1="1036.2188" y2="1036.2188"/><polygon fill="#181818" points="467,1032.2188,457,1036.2188,467,1040.2188,463,1036.2188" style="stroke:#181818;stroke-width:1.0;"/><text fill="#000000" font-family="sans-serif" font-size="13" font-weight="bold" lengthAdjust="spacing" textLength="18" x="463" y="1018.1528">21</text><text fill="#000000" font-family="sans-serif" font-size="13" lengthAdjust="spacing" textLength="234" x="485" y="1018.1528">PID/(Q)EAA validity and status check</text><line style="stroke:#181818;stroke-width:1.0;" x1="456" x2="498" y1="1065.3516" y2="1065.3516"/><line style="stroke:#181818;stroke-width:1.0;" x1="498" x2="498" y1="1065.3516" y2="1078.3516"/><line style="stroke:#181818;stroke-width:1.0;" x1="457" x2="498" y1="1078.3516" y2="1078.3516"/><polygon fill="#181818" points="467,1074.3516,457,1078.3516,467,1082.3516,463,1078.3516" style="stroke:#181818;stroke-width:1.0;"/><text fill="#000000" font-family="sans-serif" font-size="13" font-weight="bold" lengthAdjust="spacing" textLength="18" x="463" y="1060.2856">22</text><text fill="#000000" font-family="sans-serif" font-size="13" lengthAdjust="spacing" textLength="100" x="485" y="1060.2856">store credential</text><!--SRC=[dPLjJnf14CVVxwUOg4abWVZUf2QeL4bDGwt6bvVbRe09n-vr7qJwwJkxonrte2sjyOMoy_ZxpmpIEwtyQef6Y4eQHpbLKZauURPeJa1Qy49CzLlwu9C5ksAhQg4Ldi3f0yqNxhhqsFMzDdhTkClksuiiItGmLjP9bMEqMGjK1N0MyQxjnEXNAhRnfdisa_7jnVdttcWuXB6rVcj5Wd_MCBW2VmbwwYGfs6XlO6SkF0puVNq96xH26AKTWdv50siuVRaVFut4rb52ITQ1di6JyTPX0GT9GmCn0cSTN77ENAiPcHMu1OB54dD7MeKGXwx2SnrSXbvsg-WJ0nxVtJ_TFOv6tyGUECWNc2yj9v0kPZa836GXe0fPWy4NP8OorY4PTsgEKJaBAtIoa4wssmZmri2T69HSq-JhpOYxAX2uE9fHA3pQ4DjCXe_mY3yzCgPpWxRIocBcDXNs8Iy9bSkew4VtB5-4HjGSz__Fk8g5PZEJ8ZMkql8mXRgx4PkFFvybDZMQeNFi7Zizwq6RAVMd7QQ7pFQfxetW7vWU4SpIN4dd3TRks-YjWgCqGP9NML91RWCjJGIbaMs89z01UIIMUKDzmBUAM8ECL2yjGTW2UGb3ptWD_Kfv6hbQ-hJ2z8INqPF-sL78abyJ268GGPAk2BvUi71JG79u3aHvYhycjmZ374daeJ_bTWomj77K_pioZc-7F-113-6UZzS7ILHHisOAXm1gx65- -n2KmuRN-bZxtORDKOKXGhYTw0aiSVFXMsKqJyvCctUs7PnUeWAklTB4tRJMyoc-rC953ArmRI7dXezglMQnshYZzSeVlP9X90gUmhoU2QeRgckfcSWyHskpM7m_zR2DkPjZZfyfpM8tVsIT8J-aDUEtHK0POV49Ay8SoFBmhYK6_5jfBjxQeDZvDaiClMV_LnrsoLfQD5BSx5uFzMYpY9FPKQdnp0gSaQB4cOjOIRwLqQhNsORjgRj-U1w9HvppTrZOYRACfsSNRc2mbE5RJP1AqGA3q5oIFMtFXS5NlLsazargXErqLgjRLxVBThIMBRBDBGnCmlfucsvhozmwRTfT_GO0]--></g></svg>