<?xml version="1.0" encoding="us-ascii" standalone="no"?><svg xmlns="http://www.w3.org/2000/svg" xmlns:xlink="http://www.w3.org/1999/xlink" contentStyleType="text/css" height="419px" preserveAspectRatio="none" style="width:753px;height:419px;background:#FFFFFF;" version="1.1" viewBox="0 0 753 419" width="753px" zoomAndPan="magnify"><defs/><g><line style="stroke:#181818;stroke-width:0.5;stroke-dasharray:5.0,5.0;" x1="67" x2="67" y1="52.5938" y2="368.0547"/><line style="stroke:#181818;stroke-width:0.5;stroke-dasharray:5.0,5.0;" x1="485" x2="485" y1="52.5938" y2="368.0547"/><line style="stroke:#181818;stroke-width:0.5;stroke-dasharray:5.0,5.0;" x1="690" x2="690" y1="52.5938" y2="368.0547"/><rect fill="#E2E2F0" height="30.2969" rx="2.5" ry="2.5" style="stroke:#181818;stroke-width:0.5;" width="125" x="5" y="21.2969"/><text fill="#000000" font-family="sans-serif" font-size="14" lengthAdjust="spacing" textLength="111" x="12" y="41.292">Wallet Instance</text><rect fill="#E2E2F0" height="30.2969" rx="2.5" ry="2.5" style="stroke:#181818;stroke-width:0.5;" width="125" x="5" y="367.0547"/><text fill="#000000" font-family="sans-serif" font-size="14" lengthAdjust="spacing" textLength="111" x="12" y="387.0498">Wallet Instance</text><rect fill="#E2E2F0" height="30.2969" rx="2.5" ry="2.5" style="stroke:#181818;stroke-width:0.5;" width="55" x="458" y="21.2969"/><text fill="#000000" font-family="sans-serif" font-size="14" lengthAdjust="spacing" textLength="41" x="465" y="41.292">Issuer</text><rect fill="#E2E2F0" height="30.2969" rx="2.5" ry="2.5" style="stroke:#181818;stroke-width:0.5;" width="55" x="458" y="367.0547"/><text fill="#000000" font-family="sans-serif" font-size="14" lengthAdjust="spacing" textLength="41" x="465" y="387.0498">Issuer</text><rect fill="#E2E2F0" height="46.5938" rx="2.5" ry="2.5" style="stroke:#181818;stroke-width:0.5;" width="85" x="648" y="5"/><text fill="#000000" font-family="sans-serif" font-size="14" lengthAdjust="spacing" textLength="71" x="655" y="24.9951">Authentic</text><text fill="#000000" font-family="sans-serif" font-size="14" lengthAdjust="spacing" textLength="49" x="666" y="41.292">Source</text><rect fill="#E2E2F0" height="46.5938" rx="2.5" ry="2.5" style="stroke:#181818;stroke-width:0.5;" width="85" x="648" y="367.0547"/><text fill="#000000" font-family="sans-serif" font-size="14" lengthAdjust="spacing" textLength="71" x="655" y="387.0498">Authentic</text><text fill="#000000" font-family="sans-serif" font-size="14" lengthAdjust="spacing" textLength="49" x="666" y="403.3467">Source</text><polygon fill="#181818" points="473.5,79.7266,483.5,83.7266,473.5,87.7266,477.5,83.7266" style="stroke:#181818;stroke-width:1.0;"/><line style="stroke:#181818;stroke-width:1.0;" x1="67.5" x2="479.5" y1="83.7266" y2="83.7266"/><text fill="#000000" font-family="sans-serif" font-size="13" font-weight="bold" lengthAdjust="spacing" textLength="9" x="74.5" y="78.6606">1</text><text fill="#000000" font-family="sans-serif" font-size="13" lengthAdjust="spacing" textLength="381" x="87.5" y="78.6606">POST /status request(credential_proof=$CredentialPoPJWT)</text><line style="stroke:#181818;stroke-width:1.0;" x1="485.5" x2="527.5" y1="112.8594" y2="112.8594"/><line style="stroke:#181818;stroke-width:1.0;" x1="527.5" x2="527.5" y1="112.8594" y2="125.8594"/><line style="stroke:#181818;stroke-width:1.0;" x1="486.5" x2="527.5" y1="125.8594" y2="125.8594"/><polygon fill="#181818" points="496.5,121.8594,486.5,125.8594,496.5,129.8594,492.5,125.8594" style="stroke:#181818;stroke-width:1.0;"/><text fill="#000000" font-family="sans-serif" font-size="13" font-weight="bold" lengthAdjust="spacing" textLength="9" x="492.5" y="107.7935">2</text><text fill="#000000" font-family="sans-serif" font-size="13" lengthAdjust="spacing" textLength="178" x="505.5" y="107.7935">Validate Credential PoP JWT</text><path d="M430,138.8594 L430,208.8594 L746,208.8594 L746,148.8594 L736,138.8594 L430,138.8594 " fill="#FEFFDD" style="stroke:#181818;stroke-width:0.5;"/><path d="M736,138.8594 L736,148.8594 L746,148.8594 L736,138.8594 " fill="#FEFFDD" style="stroke:#181818;stroke-width:0.5;"/><text fill="#000000" font-family="sans-serif" font-size="13" lengthAdjust="spacing" textLength="290" x="436" y="155.9263">The Issuer obtains from the Authentic Source</text><text fill="#000000" font-family="sans-serif" font-size="13" lengthAdjust="spacing" textLength="291" x="436" y="171.0591">the updated attributes and the validity status</text><text fill="#000000" font-family="sans-serif" font-size="13" lengthAdjust="spacing" textLength="288" x="436" y="186.1919">of them through an out-of-band mechanism,</text><text fill="#000000" font-family="sans-serif" font-size="13" lengthAdjust="spacing" textLength="232" x="436" y="201.3247">(e.g. though the PDND APIs system)</text><line style="stroke:#181818;stroke-width:1.0;" x1="485.5" x2="527.5" y1="250.6563" y2="250.6563"/><line style="stroke:#181818;stroke-width:1.0;" x1="527.5" x2="527.5" y1="250.6563" y2="263.6563"/><line style="stroke:#181818;stroke-width:1.0;" x1="486.5" x2="527.5" y1="263.6563" y2="263.6563"/><polygon fill="#181818" points="496.5,259.6563,486.5,263.6563,496.5,267.6563,492.5,263.6563" style="stroke:#181818;stroke-width:1.0;"/><text fill="#000000" font-family="sans-serif" font-size="13" font-weight="bold" lengthAdjust="spacing" textLength="8" x="492.5" y="238.0239">3</text><text fill="#000000" font-family="sans-serif" font-size="13" lengthAdjust="spacing" textLength="127" x="504.5" y="230.4575">Check for attributes</text><text fill="#000000" font-family="sans-serif" font-size="13" lengthAdjust="spacing" textLength="123" x="504.5" y="245.5903">update and validity</text><line style="stroke:#181818;stroke-width:1.0;" x1="485.5" x2="527.5" y1="307.9219" y2="307.9219"/><line style="stroke:#181818;stroke-width:1.0;" x1="527.5" x2="527.5" y1="307.9219" y2="320.9219"/><line style="stroke:#181818;stroke-width:1.0;" x1="486.5" x2="527.5" y1="320.9219" y2="320.9219"/><polygon fill="#181818" points="496.5,316.9219,486.5,320.9219,496.5,324.9219,492.5,320.9219" style="stroke:#181818;stroke-width:1.0;"/><text fill="#000000" font-family="sans-serif" font-size="13" font-weight="bold" lengthAdjust="spacing" textLength="9" x="492.5" y="295.2896">4</text><text fill="#000000" font-family="sans-serif" font-size="13" lengthAdjust="spacing" textLength="88" x="505.5" y="287.7231">Create Status</text><text fill="#000000" font-family="sans-serif" font-size="13" lengthAdjust="spacing" textLength="100" x="505.5" y="302.856">Attestation JWT</text><polygon fill="#181818" points="78.5,346.0547,68.5,350.0547,78.5,354.0547,74.5,350.0547" style="stroke:#181818;stroke-width:1.0;"/><line style="stroke:#181818;stroke-width:1.0;stroke-dasharray:2.0,2.0;" x1="72.5" x2="484.5" y1="350.0547" y2="350.0547"/><text fill="#000000" font-family="sans-serif" font-size="13" font-weight="bold" lengthAdjust="spacing" textLength="9" x="84.5" y="344.9888">5</text><text fill="#000000" font-family="sans-serif" font-size="13" lengthAdjust="spacing" textLength="243" x="97.5" y="344.9888">Response with Status Attestation JWT</text><!--SRC=[NP3BRi8m44Nt-OeHwW8ae7kaLaAmeOisAgXi8bKccH2hoKngZq7yVSS9hxApVSyT7zi4OGhD3btI6YSsjwqXWS7Mr3KAhCYBeHm7O3mSxNzcvNr0rqKFoJn8XQJxZDOStBblV98SBKnUmSuW_LXlu5cdI_3Wy3UWbs7ki8WzKt-tZhbyULfSJr9EtxQRKP9S9doPsXP646uCA0HA9Gcn1dn01tPi_0ms5KBl2xmJOyb3wRW1zOIhBVIoa54y3csSNe0HSNON1FK5L7IDGxpQoWdE_Xbn6OCupt7OLqe21vbmETd5KeDvPSZwPgpi4AVxgP8T6CUbo_SbpDEL1t_oWiq8RgzSL9Z_GCdkpYEZtgtpkRZSLHp6SDsvPJGNhUZQClL_evo2HoK_qRTC7dKZrRa03_mV]--></g></svg>