<?xml version="1.0" encoding="us-ascii" standalone="no"?><svg xmlns="http://www.w3.org/2000/svg" xmlns:xlink="http://www.w3.org/1999/xlink" contentStyleType="text/css" height="387px" preserveAspectRatio="none" style="width:755px;height:387px;background:#FFFFFF;" version="1.1" viewBox="0 0 755 387" width="755px" zoomAndPan="magnify"><defs/><g><line style="stroke:#181818;stroke-width:0.5;stroke-dasharray:5.0,5.0;" x1="67" x2="67" y1="36.2969" y2="351.7578"/><line style="stroke:#181818;stroke-width:0.5;stroke-dasharray:5.0,5.0;" x1="475" x2="475" y1="36.2969" y2="351.7578"/><line style="stroke:#181818;stroke-width:0.5;stroke-dasharray:5.0,5.0;" x1="680.5" x2="680.5" y1="36.2969" y2="351.7578"/><rect fill="#E2E2F0" height="30.2969" rx="2.5" ry="2.5" style="stroke:#181818;stroke-width:0.5;" width="125" x="5" y="5"/><text fill="#000000" font-family="sans-serif" font-size="14" lengthAdjust="spacing" textLength="111" x="12" y="24.9951">Wallet Instance</text><rect fill="#E2E2F0" height="30.2969" rx="2.5" ry="2.5" style="stroke:#181818;stroke-width:0.5;" width="125" x="5" y="350.7578"/><text fill="#000000" font-family="sans-serif" font-size="14" lengthAdjust="spacing" textLength="111" x="12" y="370.7529">Wallet Instance</text><rect fill="#E2E2F0" height="30.2969" rx="2.5" ry="2.5" style="stroke:#181818;stroke-width:0.5;" width="55" x="448" y="5"/><text fill="#000000" font-family="sans-serif" font-size="14" lengthAdjust="spacing" textLength="41" x="455" y="24.9951">Issuer</text><rect fill="#E2E2F0" height="30.2969" rx="2.5" ry="2.5" style="stroke:#181818;stroke-width:0.5;" width="55" x="448" y="350.7578"/><text fill="#000000" font-family="sans-serif" font-size="14" lengthAdjust="spacing" textLength="41" x="455" y="370.7529">Issuer</text><rect fill="#E2E2F0" height="30.2969" rx="2.5" ry="2.5" style="stroke:#181818;stroke-width:0.5;" width="138" x="611.5" y="5"/><text fill="#000000" font-family="sans-serif" font-size="14" lengthAdjust="spacing" textLength="124" x="618.5" y="24.9951">Authentic Source</text><rect fill="#E2E2F0" height="30.2969" rx="2.5" ry="2.5" style="stroke:#181818;stroke-width:0.5;" width="138" x="611.5" y="350.7578"/><text fill="#000000" font-family="sans-serif" font-size="14" lengthAdjust="spacing" textLength="124" x="618.5" y="370.7529">Authentic Source</text><polygon fill="#181818" points="463.5,63.4297,473.5,67.4297,463.5,71.4297,467.5,67.4297" style="stroke:#181818;stroke-width:1.0;"/><line style="stroke:#181818;stroke-width:1.0;" x1="67.5" x2="469.5" y1="67.4297" y2="67.4297"/><text fill="#000000" font-family="sans-serif" font-size="13" font-weight="bold" lengthAdjust="spacing" textLength="9" x="74.5" y="62.3638">1</text><text fill="#000000" font-family="sans-serif" font-size="13" lengthAdjust="spacing" textLength="371" x="87.5" y="62.3638">POST /status request(credential_pop=$CredentialPoPJWT)</text><line style="stroke:#181818;stroke-width:1.0;" x1="475.5" x2="517.5" y1="96.5625" y2="96.5625"/><line style="stroke:#181818;stroke-width:1.0;" x1="517.5" x2="517.5" y1="96.5625" y2="109.5625"/><line style="stroke:#181818;stroke-width:1.0;" x1="476.5" x2="517.5" y1="109.5625" y2="109.5625"/><polygon fill="#181818" points="486.5,105.5625,476.5,109.5625,486.5,113.5625,482.5,109.5625" style="stroke:#181818;stroke-width:1.0;"/><text fill="#000000" font-family="sans-serif" font-size="13" font-weight="bold" lengthAdjust="spacing" textLength="9" x="482.5" y="91.4966">2</text><text fill="#000000" font-family="sans-serif" font-size="13" lengthAdjust="spacing" textLength="178" x="495.5" y="91.4966">Validate Credential PoP JWT</text><path d="M420,122.5625 L420,192.5625 L736,192.5625 L736,132.5625 L726,122.5625 L420,122.5625 " fill="#FEFFDD" style="stroke:#181818;stroke-width:0.5;"/><path d="M726,122.5625 L726,132.5625 L736,132.5625 L726,122.5625 " fill="#FEFFDD" style="stroke:#181818;stroke-width:0.5;"/><text fill="#000000" font-family="sans-serif" font-size="13" lengthAdjust="spacing" textLength="290" x="426" y="139.6294">The Issuer obtains from the Authentic Source</text><text fill="#000000" font-family="sans-serif" font-size="13" lengthAdjust="spacing" textLength="291" x="426" y="154.7622">the updated attributes and the validity status</text><text fill="#000000" font-family="sans-serif" font-size="13" lengthAdjust="spacing" textLength="288" x="426" y="169.895">of them through an out-of-band mechanism,</text><text fill="#000000" font-family="sans-serif" font-size="13" lengthAdjust="spacing" textLength="232" x="426" y="185.0278">(e.g. though the PDND APIs system)</text><line style="stroke:#181818;stroke-width:1.0;" x1="475.5" x2="517.5" y1="234.3594" y2="234.3594"/><line style="stroke:#181818;stroke-width:1.0;" x1="517.5" x2="517.5" y1="234.3594" y2="247.3594"/><line style="stroke:#181818;stroke-width:1.0;" x1="476.5" x2="517.5" y1="247.3594" y2="247.3594"/><polygon fill="#181818" points="486.5,243.3594,476.5,247.3594,486.5,251.3594,482.5,247.3594" style="stroke:#181818;stroke-width:1.0;"/><text fill="#000000" font-family="sans-serif" font-size="13" font-weight="bold" lengthAdjust="spacing" textLength="8" x="482.5" y="221.7271">3</text><text fill="#000000" font-family="sans-serif" font-size="13" lengthAdjust="spacing" textLength="127" x="494.5" y="214.1606">Check for attributes</text><text fill="#000000" font-family="sans-serif" font-size="13" lengthAdjust="spacing" textLength="123" x="494.5" y="229.2935">update and validity</text><line style="stroke:#181818;stroke-width:1.0;" x1="475.5" x2="517.5" y1="291.625" y2="291.625"/><line style="stroke:#181818;stroke-width:1.0;" x1="517.5" x2="517.5" y1="291.625" y2="304.625"/><line style="stroke:#181818;stroke-width:1.0;" x1="476.5" x2="517.5" y1="304.625" y2="304.625"/><polygon fill="#181818" points="486.5,300.625,476.5,304.625,486.5,308.625,482.5,304.625" style="stroke:#181818;stroke-width:1.0;"/><text fill="#000000" font-family="sans-serif" font-size="13" font-weight="bold" lengthAdjust="spacing" textLength="9" x="482.5" y="278.9927">4</text><text fill="#000000" font-family="sans-serif" font-size="13" lengthAdjust="spacing" textLength="88" x="495.5" y="271.4263">Create Status</text><text fill="#000000" font-family="sans-serif" font-size="13" lengthAdjust="spacing" textLength="100" x="495.5" y="286.5591">Attestation JWT</text><polygon fill="#181818" points="78.5,329.7578,68.5,333.7578,78.5,337.7578,74.5,333.7578" style="stroke:#181818;stroke-width:1.0;"/><line style="stroke:#181818;stroke-width:1.0;stroke-dasharray:2.0,2.0;" x1="72.5" x2="474.5" y1="333.7578" y2="333.7578"/><text fill="#000000" font-family="sans-serif" font-size="13" font-weight="bold" lengthAdjust="spacing" textLength="9" x="84.5" y="328.6919">5</text><text fill="#000000" font-family="sans-serif" font-size="13" lengthAdjust="spacing" textLength="243" x="97.5" y="328.6919">Response with Status Attestation JWT</text><!--SRC=[NP31Ri8m38RlVGeBxG0Ii3lI9Y6um66h1XgNIbFQkZHQQtU90-BjvnGOZ5kS__kThpL1c4AReqiwuyGMjZCaCDYPfa615NanLE00Z8UZ_S-il0_e-kWXcGUfaNI63GTtgHkV94SBarUmCqZVDrjurkKIF3Zy2UXbM3WiOyqqNnrtBq-BlpdbTBtRZfBaslyqZIsD8DmOK0YKIX9Y3VY03kpO-1biQuIpB70knfA7od4BAWcFgf1Hl0vTt5w24N4s3uBgJsNVECIdhPpWOfyHLp68-no7VQqaS909LvCybbeiQaFMjsDbXpZTJvNimRWkNRujOPwkFFYJ5sn7SFlAHOt5DrJixZmoEhlrFbUNkuh366vwjupceXKzMwRplr5EmQEI7-Wx9eywI7qfm0F_2m00]--></g></svg>