<?xml version="1.0" encoding="us-ascii" standalone="no"?><svg xmlns="http://www.w3.org/2000/svg" xmlns:xlink="http://www.w3.org/1999/xlink" contentStyleType="text/css" height="1094px" preserveAspectRatio="none" style="width:1656px;height:1094px;background:#FFFFFF;" version="1.1" viewBox="0 0 1656 1094" width="1656px" zoomAndPan="magnify"><defs/><g><rect fill="#ADD8E6" height="1082.5156" style="stroke:#181818;stroke-width:0.5;" width="431.5" x="96" y="6"/><text fill="#000000" font-family="sans-serif" font-size="13" font-weight="bold" lengthAdjust="spacing" textLength="143" x="240.25" y="18.0669">User's smartphone</text><rect fill="none" height="98.2031" style="stroke:#000000;stroke-width:1.5;" width="1569.5" x="9" y="463.1563"/><line style="stroke:#181818;stroke-width:0.5;stroke-dasharray:5.0,5.0;" x1="67" x2="67" y1="56.4297" y2="1054.2188"/><line style="stroke:#181818;stroke-width:0.5;stroke-dasharray:5.0,5.0;" x1="136" x2="136" y1="56.4297" y2="1054.2188"/><line style="stroke:#181818;stroke-width:0.5;stroke-dasharray:5.0,5.0;" x1="460.5" x2="460.5" y1="56.4297" y2="1054.2188"/><line style="stroke:#181818;stroke-width:0.5;stroke-dasharray:5.0,5.0;" x1="880" x2="880" y1="56.4297" y2="1054.2188"/><line style="stroke:#181818;stroke-width:0.5;stroke-dasharray:5.0,5.0;" x1="1520.5" x2="1520.5" y1="56.4297" y2="1054.2188"/><rect fill="#E2E2F0" height="30.2969" rx="2.5" ry="2.5" style="stroke:#181818;stroke-width:0.5;" width="45" x="45" y="25.1328"/><text fill="#000000" font-family="sans-serif" font-size="14" lengthAdjust="spacing" textLength="31" x="52" y="45.1279">User</text><rect fill="#E2E2F0" height="30.2969" rx="2.5" ry="2.5" style="stroke:#181818;stroke-width:0.5;" width="45" x="45" y="1053.2188"/><text fill="#000000" font-family="sans-serif" font-size="14" lengthAdjust="spacing" textLength="31" x="52" y="1073.2139">User</text><rect fill="#E2E2F0" height="30.2969" rx="2.5" ry="2.5" style="stroke:#181818;stroke-width:0.5;" width="72" x="100" y="25.1328"/><text fill="#000000" font-family="sans-serif" font-size="14" lengthAdjust="spacing" textLength="58" x="107" y="45.1279">Browser</text><rect fill="#E2E2F0" height="30.2969" rx="2.5" ry="2.5" style="stroke:#181818;stroke-width:0.5;" width="72" x="100" y="1053.2188"/><text fill="#000000" font-family="sans-serif" font-size="14" lengthAdjust="spacing" textLength="58" x="107" y="1073.2139">Browser</text><rect fill="#E2E2F0" height="30.2969" rx="2.5" ry="2.5" style="stroke:#181818;stroke-width:0.5;" width="125" x="398.5" y="25.1328"/><text fill="#000000" font-family="sans-serif" font-size="14" lengthAdjust="spacing" textLength="111" x="405.5" y="45.1279">Wallet Instance</text><rect fill="#E2E2F0" height="30.2969" rx="2.5" ry="2.5" style="stroke:#181818;stroke-width:0.5;" width="125" x="398.5" y="1053.2188"/><text fill="#000000" font-family="sans-serif" font-size="14" lengthAdjust="spacing" textLength="111" x="405.5" y="1073.2139">Wallet Instance</text><rect fill="#E2E2F0" height="30.2969" rx="2.5" ry="2.5" style="stroke:#181818;stroke-width:0.5;" width="124" x="818" y="25.1328"/><text fill="#000000" font-family="sans-serif" font-size="14" lengthAdjust="spacing" textLength="110" x="825" y="45.1279">Wallet Provider</text><rect fill="#E2E2F0" height="30.2969" rx="2.5" ry="2.5" style="stroke:#181818;stroke-width:0.5;" width="124" x="818" y="1053.2188"/><text fill="#000000" font-family="sans-serif" font-size="14" lengthAdjust="spacing" textLength="110" x="825" y="1073.2139">Wallet Provider</text><rect fill="#E2E2F0" height="30.2969" rx="2.5" ry="2.5" style="stroke:#181818;stroke-width:0.5;" width="157" x="1442.5" y="25.1328"/><text fill="#000000" font-family="sans-serif" font-size="14" lengthAdjust="spacing" textLength="143" x="1449.5" y="45.1279">PID/(Q)EAA Provider</text><rect fill="#E2E2F0" height="30.2969" rx="2.5" ry="2.5" style="stroke:#181818;stroke-width:0.5;" width="157" x="1442.5" y="1053.2188"/><text fill="#000000" font-family="sans-serif" font-size="14" lengthAdjust="spacing" textLength="143" x="1449.5" y="1073.2139">PID/(Q)EAA Provider</text><polygon fill="#181818" points="78.5,83.5625,68.5,87.5625,78.5,91.5625,74.5,87.5625" style="stroke:#181818;stroke-width:1.0;"/><line style="stroke:#181818;stroke-width:1.0;" x1="72.5" x2="460" y1="87.5625" y2="87.5625"/><text fill="#000000" font-family="sans-serif" font-size="13" font-weight="bold" lengthAdjust="spacing" textLength="9" x="84.5" y="82.4966">1</text><text fill="#000000" font-family="sans-serif" font-size="13" lengthAdjust="spacing" textLength="148" x="97.5" y="82.4966">obtain your PID/(Q)EAA</text><polygon fill="#181818" points="449,112.6953,459,116.6953,449,120.6953,453,116.6953" style="stroke:#181818;stroke-width:1.0;"/><line style="stroke:#181818;stroke-width:1.0;stroke-dasharray:2.0,2.0;" x1="67.5" x2="455" y1="116.6953" y2="116.6953"/><text fill="#000000" font-family="sans-serif" font-size="13" font-weight="bold" lengthAdjust="spacing" textLength="9" x="74.5" y="111.6294">2</text><text fill="#000000" font-family="sans-serif" font-size="13" lengthAdjust="spacing" textLength="23" x="87.5" y="111.6294">yes</text><rect fill="#FFFFFF" height="23" style="stroke:#181818;stroke-width:0.5;" width="284" x="319" y="129.6953"/><text fill="#000000" font-family="sans-serif" font-size="13" lengthAdjust="spacing" textLength="276" x="323" y="145.7622">obtain a list of Trusted PID/(Q)EAA Provider</text><polygon fill="#181818" points="78.5,174.9609,68.5,178.9609,78.5,182.9609,74.5,178.9609" style="stroke:#181818;stroke-width:1.0;"/><line style="stroke:#181818;stroke-width:1.0;" x1="72.5" x2="460" y1="178.9609" y2="178.9609"/><text fill="#000000" font-family="sans-serif" font-size="13" font-weight="bold" lengthAdjust="spacing" textLength="8" x="84.5" y="173.895">3</text><text fill="#000000" font-family="sans-serif" font-size="13" lengthAdjust="spacing" textLength="284" x="96.5" y="173.895">confirm the selection of PID/(Q)EAA Provider</text><polygon fill="#181818" points="449,204.0938,459,208.0938,449,212.0938,453,208.0938" style="stroke:#181818;stroke-width:1.0;"/><line style="stroke:#181818;stroke-width:1.0;stroke-dasharray:2.0,2.0;" x1="67.5" x2="455" y1="208.0938" y2="208.0938"/><text fill="#000000" font-family="sans-serif" font-size="13" font-weight="bold" lengthAdjust="spacing" textLength="9" x="74.5" y="203.0278">4</text><text fill="#000000" font-family="sans-serif" font-size="13" lengthAdjust="spacing" textLength="15" x="87.5" y="203.0278">ok</text><rect fill="#90EE90" height="23" style="stroke:#181818;stroke-width:0.5;" width="1196" x="393" y="221.0938"/><text fill="#000000" font-family="sans-serif" font-size="13" lengthAdjust="spacing" textLength="638" x="672" y="237.1606">Wallet Instance checks that the PID/(Q)EAA Issuer is part of the Federation and obtains its Metadata</text><line style="stroke:#181818;stroke-width:1.0;" x1="461" x2="503" y1="270.3594" y2="270.3594"/><line style="stroke:#181818;stroke-width:1.0;" x1="503" x2="503" y1="270.3594" y2="283.3594"/><line style="stroke:#181818;stroke-width:1.0;" x1="462" x2="503" y1="283.3594" y2="283.3594"/><polygon fill="#181818" points="472,279.3594,462,283.3594,472,287.3594,468,283.3594" style="stroke:#181818;stroke-width:1.0;"/><text fill="#000000" font-family="sans-serif" font-size="13" font-weight="bold" lengthAdjust="spacing" textLength="9" x="468" y="265.2935">5</text><text fill="#000000" font-family="sans-serif" font-size="13" lengthAdjust="spacing" textLength="162" x="481" y="265.2935">create PKCE code verifier</text><polygon fill="#181818" points="1509,308.4922,1519,312.4922,1509,316.4922,1513,312.4922" style="stroke:#181818;stroke-width:1.0;"/><line style="stroke:#181818;stroke-width:1.0;" x1="461" x2="1515" y1="312.4922" y2="312.4922"/><text fill="#000000" font-family="sans-serif" font-size="13" font-weight="bold" lengthAdjust="spacing" textLength="9" x="468" y="307.4263">6</text><text fill="#000000" font-family="sans-serif" font-size="13" lengthAdjust="spacing" textLength="1023" x="481" y="307.4263">PAR Request (response_type, client_id, code_challenge, code_challenge_method, request, client_assertion_type, client_assertion=$WalletInstanceAttestation$)</text><rect fill="#90EE90" height="38" style="stroke:#181818;stroke-width:0.5;" width="776" x="812" y="325.4922"/><text fill="#000000" font-family="sans-serif" font-size="13" lengthAdjust="spacing" textLength="490" x="892.75" y="341.5591">PID/(Q)EAA Provider checks that the Wallet Provider is part of the Federation</text><text fill="#000000" font-family="sans-serif" font-size="13" lengthAdjust="spacing" textLength="611" x="892.75" y="356.6919">PID/(Q)EAA Provider checks that the signature of the Wallet Instance Attestation and its validity</text><polygon fill="#181818" points="472,385.8906,462,389.8906,472,393.8906,468,389.8906" style="stroke:#181818;stroke-width:1.0;"/><line style="stroke:#181818;stroke-width:1.0;stroke-dasharray:2.0,2.0;" x1="466" x2="1520" y1="389.8906" y2="389.8906"/><text fill="#000000" font-family="sans-serif" font-size="13" font-weight="bold" lengthAdjust="spacing" textLength="9" x="478" y="384.8247">7</text><text fill="#000000" font-family="sans-serif" font-size="13" lengthAdjust="spacing" textLength="252" x="491" y="384.8247">PAR Response (request_uri, expires_in)</text><polygon fill="#181818" points="147,415.0234,137,419.0234,147,423.0234,143,419.0234" style="stroke:#181818;stroke-width:1.0;"/><line style="stroke:#181818;stroke-width:1.0;stroke-dasharray:2.0,2.0;" x1="141" x2="460" y1="419.0234" y2="419.0234"/><text fill="#000000" font-family="sans-serif" font-size="13" font-weight="bold" lengthAdjust="spacing" textLength="9" x="153" y="413.9575">8</text><text fill="#000000" font-family="sans-serif" font-size="13" lengthAdjust="spacing" textLength="288" x="166" y="413.9575">Authorization Request (client_id, request_uri)</text><polygon fill="#181818" points="1509,444.1563,1519,448.1563,1509,452.1563,1513,448.1563" style="stroke:#181818;stroke-width:1.0;"/><line style="stroke:#181818;stroke-width:1.0;stroke-dasharray:2.0,2.0;" x1="136" x2="1515" y1="448.1563" y2="448.1563"/><text fill="#000000" font-family="sans-serif" font-size="13" font-weight="bold" lengthAdjust="spacing" textLength="9" x="143" y="443.0903">9</text><text fill="#000000" font-family="sans-serif" font-size="13" lengthAdjust="spacing" textLength="288" x="156" y="443.0903">Authorization Request (client_id, request_uri)</text><path d="M9,463.1563 L75,463.1563 L75,470.2891 L65,480.2891 L9,480.2891 L9,463.1563 " fill="#EEEEEE" style="stroke:#000000;stroke-width:1.5;"/><rect fill="none" height="98.2031" style="stroke:#000000;stroke-width:1.5;" width="1569.5" x="9" y="463.1563"/><text fill="#000000" font-family="sans-serif" font-size="13" font-weight="bold" lengthAdjust="spacing" textLength="21" x="24" y="476.2231">alt</text><text fill="#000000" font-family="sans-serif" font-size="11" font-weight="bold" lengthAdjust="spacing" textLength="116" x="90" y="475.3667">[(Q)EAA issuance]</text><rect fill="#FFFFFF" height="23" style="stroke:#181818;stroke-width:0.5;" width="1549" x="19" y="485.2891"/><text fill="#000000" font-family="sans-serif" font-size="13" lengthAdjust="spacing" textLength="264" x="661.75" y="501.356">User authentication with PID and consent</text><line style="stroke:#000000;stroke-width:1.0;stroke-dasharray:2.0,2.0;" x1="9" x2="1578.5" y1="514.4219" y2="514.4219"/><text fill="#000000" font-family="sans-serif" font-size="11" font-weight="bold" lengthAdjust="spacing" textLength="93" x="14" y="524.6323">[PID issuance]</text><rect fill="#FFFFFF" height="23" style="stroke:#181818;stroke-width:0.5;" width="1549" x="19" y="533.2266"/><text fill="#000000" font-family="sans-serif" font-size="13" lengthAdjust="spacing" textLength="341" x="623.25" y="549.2935">User authentication with eIDAS LoA High and consent</text><polygon fill="#181818" points="147,585.4922,137,589.4922,147,593.4922,143,589.4922" style="stroke:#181818;stroke-width:1.0;"/><line style="stroke:#181818;stroke-width:1.0;stroke-dasharray:2.0,2.0;" x1="141" x2="1520" y1="589.4922" y2="589.4922"/><text fill="#000000" font-family="sans-serif" font-size="13" font-weight="bold" lengthAdjust="spacing" textLength="19" x="153" y="584.4263">10</text><text fill="#000000" font-family="sans-serif" font-size="13" lengthAdjust="spacing" textLength="263" x="176" y="584.4263">Authorization Response (code, state, iss)</text><polygon fill="#181818" points="449,614.625,459,618.625,449,622.625,453,618.625" style="stroke:#181818;stroke-width:1.0;"/><line style="stroke:#181818;stroke-width:1.0;stroke-dasharray:2.0,2.0;" x1="136" x2="455" y1="618.625" y2="618.625"/><text fill="#000000" font-family="sans-serif" font-size="13" font-weight="bold" lengthAdjust="spacing" textLength="18" x="143" y="613.5591">11</text><text fill="#000000" font-family="sans-serif" font-size="13" lengthAdjust="spacing" textLength="263" x="165" y="613.5591">Authorization Response (code, state, iss)</text><line style="stroke:#181818;stroke-width:1.0;" x1="461" x2="503" y1="647.7578" y2="647.7578"/><line style="stroke:#181818;stroke-width:1.0;" x1="503" x2="503" y1="647.7578" y2="660.7578"/><line style="stroke:#181818;stroke-width:1.0;" x1="462" x2="503" y1="660.7578" y2="660.7578"/><polygon fill="#181818" points="472,656.7578,462,660.7578,472,664.7578,468,660.7578" style="stroke:#181818;stroke-width:1.0;"/><text fill="#000000" font-family="sans-serif" font-size="13" font-weight="bold" lengthAdjust="spacing" textLength="18" x="468" y="642.6919">12</text><text fill="#000000" font-family="sans-serif" font-size="13" lengthAdjust="spacing" textLength="123" x="490" y="642.6919">generate DPoP key</text><line style="stroke:#181818;stroke-width:1.0;" x1="461" x2="503" y1="689.8906" y2="689.8906"/><line style="stroke:#181818;stroke-width:1.0;" x1="503" x2="503" y1="689.8906" y2="702.8906"/><line style="stroke:#181818;stroke-width:1.0;" x1="462" x2="503" y1="702.8906" y2="702.8906"/><polygon fill="#181818" points="472,698.8906,462,702.8906,472,706.8906,468,702.8906" style="stroke:#181818;stroke-width:1.0;"/><text fill="#000000" font-family="sans-serif" font-size="13" font-weight="bold" lengthAdjust="spacing" textLength="17" x="468" y="684.8247">13</text><text fill="#000000" font-family="sans-serif" font-size="13" lengthAdjust="spacing" textLength="377" x="489" y="684.8247">generate DPoP proof for PID/(Q)EAA Issuer  token endpoint</text><polygon fill="#181818" points="1509,728.0234,1519,732.0234,1509,736.0234,1513,732.0234" style="stroke:#181818;stroke-width:1.0;"/><line style="stroke:#181818;stroke-width:1.0;" x1="461" x2="1515" y1="732.0234" y2="732.0234"/><text fill="#000000" font-family="sans-serif" font-size="13" font-weight="bold" lengthAdjust="spacing" textLength="18" x="468" y="726.9575">14</text><text fill="#000000" font-family="sans-serif" font-size="13" lengthAdjust="spacing" textLength="809" x="490" y="726.9575">Token Request with DPoP proof (client_id, grant_type, code, code_verifier, client_assertion_type, client_assertion, redirect_uri)</text><polygon fill="#181818" points="472,757.1563,462,761.1563,472,765.1563,468,761.1563" style="stroke:#181818;stroke-width:1.0;"/><line style="stroke:#181818;stroke-width:1.0;" x1="466" x2="1520" y1="761.1563" y2="761.1563"/><text fill="#000000" font-family="sans-serif" font-size="13" font-weight="bold" lengthAdjust="spacing" textLength="18" x="478" y="756.0903">15</text><text fill="#000000" font-family="sans-serif" font-size="13" lengthAdjust="spacing" textLength="554" x="500" y="756.0903">Token Response (access_token, token_type, expires_in, c_nonce, c_nonce_expires_in)</text><line style="stroke:#181818;stroke-width:1.0;" x1="461" x2="503" y1="790.2891" y2="790.2891"/><line style="stroke:#181818;stroke-width:1.0;" x1="503" x2="503" y1="790.2891" y2="803.2891"/><line style="stroke:#181818;stroke-width:1.0;" x1="462" x2="503" y1="803.2891" y2="803.2891"/><polygon fill="#181818" points="472,799.2891,462,803.2891,472,807.2891,468,803.2891" style="stroke:#181818;stroke-width:1.0;"/><text fill="#000000" font-family="sans-serif" font-size="13" font-weight="bold" lengthAdjust="spacing" textLength="18" x="468" y="785.2231">16</text><text fill="#000000" font-family="sans-serif" font-size="13" lengthAdjust="spacing" textLength="238" x="490" y="785.2231">create proof of possession (c_nonce)</text><line style="stroke:#181818;stroke-width:1.0;" x1="461" x2="503" y1="832.4219" y2="832.4219"/><line style="stroke:#181818;stroke-width:1.0;" x1="503" x2="503" y1="832.4219" y2="845.4219"/><line style="stroke:#181818;stroke-width:1.0;" x1="462" x2="503" y1="845.4219" y2="845.4219"/><polygon fill="#181818" points="472,841.4219,462,845.4219,472,849.4219,468,845.4219" style="stroke:#181818;stroke-width:1.0;"/><text fill="#000000" font-family="sans-serif" font-size="13" font-weight="bold" lengthAdjust="spacing" textLength="18" x="468" y="827.356">17</text><text fill="#000000" font-family="sans-serif" font-size="13" lengthAdjust="spacing" textLength="383" x="490" y="827.356">create DPoP proof for PID/(Q)EAA Issuer credential endpoint</text><polygon fill="#181818" points="1509,870.5547,1519,874.5547,1509,878.5547,1513,874.5547" style="stroke:#181818;stroke-width:1.0;"/><line style="stroke:#181818;stroke-width:1.0;" x1="461" x2="1515" y1="874.5547" y2="874.5547"/><text fill="#000000" font-family="sans-serif" font-size="13" font-weight="bold" lengthAdjust="spacing" textLength="18" x="468" y="869.4888">18</text><text fill="#000000" font-family="sans-serif" font-size="13" lengthAdjust="spacing" textLength="623" x="490" y="869.4888">Credential Request with DPoP access_token and DPoP proof (credential_definition, format, proof)</text><rect fill="#ADD8E6" height="38" style="stroke:#181818;stroke-width:0.5;" width="259" x="1391" y="887.5547"/><text fill="#000000" font-family="sans-serif" font-size="13" lengthAdjust="spacing" textLength="213" x="1395" y="903.6216">Register all the credential-related</text><text fill="#000000" font-family="sans-serif" font-size="13" lengthAdjust="spacing" textLength="243" x="1395" y="918.7544">information for verification/revocation</text><polygon fill="#181818" points="472,947.9531,462,951.9531,472,955.9531,468,951.9531" style="stroke:#181818;stroke-width:1.0;"/><line style="stroke:#181818;stroke-width:1.0;" x1="466" x2="1520" y1="951.9531" y2="951.9531"/><text fill="#000000" font-family="sans-serif" font-size="13" font-weight="bold" lengthAdjust="spacing" textLength="18" x="478" y="946.8872">19</text><text fill="#000000" font-family="sans-serif" font-size="13" lengthAdjust="spacing" textLength="455" x="500" y="946.8872">Credential Response (format, credential, c_nonce, c_nonce_expires_in)</text><line style="stroke:#181818;stroke-width:1.0;" x1="461" x2="503" y1="981.0859" y2="981.0859"/><line style="stroke:#181818;stroke-width:1.0;" x1="503" x2="503" y1="981.0859" y2="994.0859"/><line style="stroke:#181818;stroke-width:1.0;" x1="462" x2="503" y1="994.0859" y2="994.0859"/><polygon fill="#181818" points="472,990.0859,462,994.0859,472,998.0859,468,994.0859" style="stroke:#181818;stroke-width:1.0;"/><text fill="#000000" font-family="sans-serif" font-size="13" font-weight="bold" lengthAdjust="spacing" textLength="19" x="468" y="976.02">20</text><text fill="#000000" font-family="sans-serif" font-size="13" lengthAdjust="spacing" textLength="234" x="491" y="976.02">PID/(Q)EAA validity and status check</text><line style="stroke:#181818;stroke-width:1.0;" x1="461" x2="503" y1="1023.2188" y2="1023.2188"/><line style="stroke:#181818;stroke-width:1.0;" x1="503" x2="503" y1="1023.2188" y2="1036.2188"/><line style="stroke:#181818;stroke-width:1.0;" x1="462" x2="503" y1="1036.2188" y2="1036.2188"/><polygon fill="#181818" points="472,1032.2188,462,1036.2188,472,1040.2188,468,1036.2188" style="stroke:#181818;stroke-width:1.0;"/><text fill="#000000" font-family="sans-serif" font-size="13" font-weight="bold" lengthAdjust="spacing" textLength="18" x="468" y="1018.1528">21</text><text fill="#000000" font-family="sans-serif" font-size="13" lengthAdjust="spacing" textLength="100" x="490" y="1018.1528">store credential</text><!--SRC=[dPNRJXj138RlvoaiG2gHWhX7AbA05ABIAgKWBbUJNIUnifdPpY4XVVfwPhARtH1QA4BYCFPl-_CXqZkj_7A2HeXA6aSvLL8vE7goQ8v0Ml12JFHB-iSd2tR9LjLSApo2utkQpTrLwR7hUsNqkd6NtRTdMPReOAIiaoh7QBCMg0hWAEAWxTZe5HLRlScUpNXqStxwepSS3Bfs9FXh3MUNu2z0Jvma1Hlj3UmSX8SpVbzVm0Qj44PfXw1NQ60DnyzteyUXs3fAACawq5DuDDuwBE10s514rE2uPvSSDTTgIcO9RevWiSJSaLP1v92py9mBfw8NtKpwn9X7jtUFjm_3uNUnXm_oEUOBoo6aYt5QqYDhFIkGXG0in0q6Nv2ZoPY9PEYfGCRbB7n39mlfPBkG070DN8j1oJcDlruFkQu2WPEZAON4emsnpNZm00_uooEZEZLeAwqiPcvJOH_oab2vZ8f-TC_oUIX4pN3_xso9RgxPp2IbnbLQ7gcGTrUn-VVdayIcHZDmZjrZfISzQ3Eb_gJ3z40xNd7T6yM_K7sNdAMPaiuRh0Ns-zhAFlOfz6SbIoh8RQ3L845fXXlyYNhW7_5btb0VyAKYRaX6gfUs8go5l821PzQ6VgSuJUzQpMh9z8INqPC-x2XaoQ-92V5OXXAx7V7rneKp0vBbMOZofBycDm-J7KdaeJxbTWomj77k_riPHpU3dt2l1t37z-oD8AgeMJE5rm1gx66O-n0wnpyueGRQ-aDEkyMReGgJXN0prcDOuERDjyfe7gQfDWUE03YzG0LSHQM9wsfjxMDygLiOWRJasYsT6RwuzVR5bEFgrfVWtPiQXgFWUSphwQ2we3gN6epCSxGsYydtKmrRpTr4itwcDBUz-INhZFl-2KjryNUbEI5hGojEjvxHVC_-dspPhWWZ9SiMtmRlzUxrDUDsVN7kEkGRpwp0AIbAx3Y9fUIp6ArwdLdVNhMh-wUXUC0PVsI5YI_BU65sScS6Ina-n0Iff1OOXE9IAzDkd1jSwUsQj2zEqwnEPNN7wknsqTxTdnRPvj859c4ll4qdj6LkdJRjglu0]--></g></svg>