<?xml version="1.0" encoding="UTF-8"?>
<svg enable-background="new 0 0 519.8 128.9" version="1.1" viewBox="0 0 519.8 128.9" xml:space="preserve" xmlns="http://www.w3.org/2000/svg">
<style type="text/css">
	.st0{enable-background:new;}
	.st1{fill:#FFFFFF;}
</style>
<title>Logo dell&amp;Agenzia per l&amp;Italia Digitale</title>
<desc>Emblema della Repubblica Italiana con accanto l&amp;acronimo AGID</desc>
<g class="st0">
<path class="st1" d="m142.1 126.8l28-124.4h47.9l28 124.4h-25.3l-4.9-22.5h-43.6l-4.9 22.5h-25.2zm47.6-103.6l-12.6 59.1h34l-12.6-59.1h-8.8z"/>
<path class="st1" d="m312.7 82.1v-22h36.2v64.6c-17.4 2.8-31.6 4.2-42.5 4.2-19.4 0-32.7-5.2-40-15.6s-10.9-26.8-10.9-49.4 3.8-38.9 11.3-48.9c7.6-10 20.4-15 38.6-15 11.3 0 23.6 1.3 36.8 3.8l6.6 1.3-0.7 19.6c-14.6-1.6-26.6-2.4-36-2.4-9.3 0-15.9 1.1-19.7 3.3s-6.6 6.3-8.3 12.2c-1.8 5.9-2.7 16-2.7 30.4 0 14.3 1.8 24.4 5.3 30.1s10.9 8.6 22 8.6l15.3-0.6v-24.2h-11.3z"/>
<path class="st1" d="M372.7,126.8V2.4H398v124.4H372.7z"/>
<path class="st1" d="m466.9 126.8h-41.9v-124.4h41.9c10.7 0 19.6 1.1 26.5 3.4 7 2.3 12.4 6 16.2 11.2s6.5 11.3 8 18.3 2.2 16.1 2.2 27.4c0 11.2-0.7 20.5-2 27.9s-3.9 14-7.6 19.8-9.1 10-16.2 12.6c-7.1 2.5-16.1 3.8-27.1 3.8zm26.6-49.4c0.2-3.9 0.4-9.3 0.4-16.2s-0.2-12.4-0.7-16.6c-0.5-4.1-1.6-7.9-3.5-11.3-1.8-3.4-4.5-5.8-8.1-7-3.6-1.3-8.5-1.9-14.5-1.9h-16.7v80.5h16.7c9.1 0 15.8-2.3 19.9-7 3.4-3.8 5.6-10.6 6.5-20.5z"/>
</g>
<path class="st1" d="m87.8 84.7c0.7 0 1.6 0.4 1.1 0.7-0.4 0.3-0.4 1.1-0.8 1.6-0.7 0-1.1-0.4-1.6-1.1-0.1-0.5 0.3-1 0.9-1.1h0.4z"/>
<path class="st1" d="m37 100.6c0.6 0.4 1.3 0.4 1.9 0l-0.7-0.7-1.2-0.8c-0.7-0.4-1.1 0-1.6 0.7l1.6 0.8z"/>
<path class="st1" d="m69.9 122.6c0 0.4 0 0.7 0.4 0.7 0.3 0.3 0.7 0.4 1.1 0.4l-1.5-1.1z"/>
<path class="st1" d="m113.8 60c0.4-2.3 0-3.8-0.7-4.6-0.7-0.7-1.9-0.4-3.4 0.7-0.7-0.4-1.9 0-3 1.1 0.4-0.4 0.4-1 0-1.6 1.1-0.4 1.9-0.7 2.3-1.9 0.4-1.1 0.7-1.9 0.4-3 0.4-1.6 1.6-3 2.3-4.6 1.1-2.3 0.4-3-1.9-2.3 0.9-0.7 1.7-1.9 1.9-3 0-1.1-0.4-2.2-1.1-3-0.4-0.7-0.7-0.7-1.6-0.4 0.3-0.4 0.4-0.9 0.4-1.6-0.4-1.6-0.7-2.7-1.1-4.1 0-2.7-0.7-3.7-1.9-3.4 0-1.6-0.7-2.7-1.6-4.1-1.1-1.6-1.9-2.3-2.7-1.1-1.9-2.7-3.4-3.8-5-3.4 0-1.1-0.4-2.2-1.1-3 0.3-1.5-0.1-3-1.1-4.1-0.7-0.4-1.6 0-1.9 1.6 0-1-0.3-2.2-0.8-3.1-0.2-1-1.1-1.9-2.3-1.9h-1.1c-0.5-0.5-1.2-0.7-1.9-0.7-1.6-1.6-3-1.9-4.1-0.4v-1.4c-0.4-1.6-1.6-1.9-2.7-1.1-1.7-1.7-3.6-3.1-5.7-4.1-1.3-0.5-2.4-0.5-2.8 0.4-0.6-0.6-1.5-1-2.3-1.1-0.9-0.2-1.6-0.4-2.3-0.8-1.1 0-1.6 0.4-1.6 1.9-1.1 0.1-2.3 0.3-3.4 0.7-0.7 0.4-0.7 1.1-0.4 1.9 0.5 0.8 1.1 1.6 1.9 2.3-0.4 0.4-0.4 0.7-0.4 1.6 0 0.7 0.7 1.1 2.3 1.6 0.9 0.4 2.1 0.4 3 0-0.3 0.7 0 1.6 0.6 1.9 0 0 0.1 0 0.1 0.1h0.4c1.1 1.5 3.2 2 5 1.1l-0.5 1.4 2.7 1c0 1.2 0.7 2.3 1.9 2.7l1.6 0.4c-0.4 0-1.1 0.7-1.1 0.7-0.4 0.4-0.4 1 0 1.6 0.2 0.2 0.5 0.3 0.7 0.4h3.4c0 0.4 0.4 0.7 0.4 1.1 0.4 0.7 0.9 1.3 1.6 1.9 1 0.8 2.2 1.5 3.4 1.9-0.4 0.7-0.4 1.1-0.7 1.9-0.4 1.1-0.4 2.3 0 3.4-0.4 0.2-0.8 0.4-1.1 0.7-0.7 1.1 0.7 3 1.1 3.8-0.3 0-0.5 0.2-0.7 0.4-0.7 0.4-0.4 2.7 1.6 3 1.2 0.7 2.4 1.7 3.4 2.7l1.6 2.3c0.7 1.1 0.7 1.6 1.9 1.6 1 3.2 2.6 6.2 4.6 9 1.1 1 1.9 2.3 2.3 3.8 0 0.7-0.4 1.6 0 2.3-0.2 2.1-0.6 4-1.1 6-1.9-0.7-2.3 0.4-2.7 1.6-0.4-0.2-0.9 0-1.1 0.4-0.1-0.8-0.9-1.3-1.7-1.2-0.1 0-0.2 0-0.2 0.1-0.4 0.4-0.7 0.4-1.1 0.7-0.6-0.3-0.7-0.7-0.7-1.1v-2.3c0.4-0.4 0.4-0.7 0.7-1.1 0.4-2.2 0.3-4.4-0.4-6.4 0-0.6-0.5-1.1-1.1-1.1 0 0-1.1 0-1.6 0.7 0-0.4-0.7-0.7-1.1-0.7-1.6-0.4-3 2.3-3 5.3-1.1-0.7-2.7-0.4-2.3 0.7 0.4 1.9 3.4 5.7 3.4 7.2-0.7-0.7-3-0.7-3 1.1 0.1 0.8 0.3 1.6 0.7 2.3-0.4 2.3 1.9 3.8 4.1 5.7-0.1 0.5 0.1 1 0.4 1.6-0.4 0.7-2.7 4.1-2.7 4.1s-1.9-0.7-2.3-0.4-0.7 1.1-1.1 1.6l0.4 2.7c0.1 1.3-0.4 2.6-1.6 3.4-1 1-1.9 2.2-2.7 3.4-0.5 1.2-1.5 2.2-2.7 2.7l-1.1-1.2s-0.4-0.4-0.4 0c-3.2 1.2-6.2 2.7-9.1 4.6-1.6 1-2.7 2.5-3.4 4.1h-2.6l-2.3-2.3c-1-0.4-2.2-0.3-3 0.4-1.5-0.3-2.9-0.1-4.1 0.7-0.6 0.3-1.2 0.4-1.9 0.4l-3.4-3.8c-3.6-1.9-7.5-3.1-11.4-3.8-0.7 0.4-1.1 1.1-1.6 1.6-1.1-0.7-2.2-1.6-3-2.7l-1.9-2.3c-1.1-1.2-1.9-2.8-1.9-4.6l0.3-2c0-0.4 0-0.7-0.4-0.7-0.5-0.5-1.2-0.7-1.9-0.7 0 0-0.4 0-0.7 1.1 0 0.4-2.3-3-2.3-3 1.1-1.5 2-3.1 2.3-4.9 0.4-2.3 0.7-4.1 1.1-6.4 0-0.2 0.2-0.4 0.3-0.4 1.6-3.1 2.3-6.7 1.9-10.3-0.2-0.3-0.3-0.7-0.4-1.1h-0.4l0.4-0.7c0.4-0.7 0.4-0.7 0-1.1-0.8-0.1-1.6 0.1-2.3 0.4l-1.3-3.8h-0.4c-1.9 1.9-3.1 4.3-3.4 6.8l-0.3 0.4c-2.5 3.1-4.4 6.7-5.4 10.6-0.4-0.7-0.7-1.9-1.1-2.7-0.3-0.7-0.4-1.5-0.4-2.3 0.4-0.7 0.4-1.6-0.4-1.9-0.8-2-1.5-3.9-1.9-6 0.4-1.6 0.7-3 1.1-4.1 1.1-2.3 2.3-5 3.4-7.2 0 0 0.7-0.7 1.1-0.7 2.3-0.7 13-14 11.8-20.4 1.9-3 3.4-6 5-9.1h0.7l0.7-0.4c2.3-0.7 4.1-1.9 6.1-2.7l2.7-1.5c2-0.7 3.8-2 5.4-3.4 1.6-1.2 2.7-3 3-5-0.4-0.7-1.1-0.7-2.7-0.7 0.7-0.8 1.1-1.9 1.1-3-0.7-0.7-2.3-0.7-5.4-0.4-3 0.7-5.8 2-8.3 3.7-4.7 3-8.3 7.2-10.7 12.1l1.6-3c0.7-1.6 1.6-3.4 2.3-5.3 0.4-0.7 0.4-1.6 0-2.3-0.3-0.3-0.7-0.3-1.5-0.3-1.6 0.6-2.9 1.6-4.1 2.7-2.3 2.3-4.1 5-5.3 8-1.3 2.3-2.5 4.7-3.4 7.2 0.4-1.8 0.4-3.5 0-5.3 0-0.4-0.7-0.7-1.6-0.4-0.8 0.6-1.5 1.5-2 2.3-0.7 1.1-1.6 1.9-2.3 3-0.8 1.2-1.7 2.5-2.3 3.7-1.1 1.9-2 3.9-2.3 6-0.8 3.1-1.3 6.2-1.6 9.4-0.2 2.7-0.1 5.3 0.4 8 0.4 2.2 1.1 4.4 1.9 6.4 0.5 0.9 1.3 1.8 2.3 2.3 0.4 1.1 0.7 2.7 1.6 5 0.3 0.8 0.5 1.8 0.4 2.7-0.1 0.4 0.1 0.8 0.4 1.1 0.5 0.3 0.8 0.9 0.8 1.6 0.4 2.3 1.6 4.1 2.3 6 0 1.1-0.4 1.9-0.4 3-2.5-6.1-3.9-11-5.5-14.4-2.7-5.7-4.6-8.3-6.1-8-0.2-0.1-0.9 0.7-0.9 1.8v3c0 1.9 0.4 3.4 0.4 5.3 1 5.6 3.4 10.8 6.8 15.2l5 5.7c1 0.6 2.1 1.5 3 2.3 0.8 0.5 1.8 0.6 2.7 0.4 1.2 2 2.6 3.8 4.1 5.7 1.1 1.6 2.3 2.7 3.4 2.3 0.3 1 1.2 1.7 2.3 1.6h1.3c1.1 1.2 2.5 2.4 3.8 3.4l-1.1 3.8c-2 0.3-4 0.4-6.1 0.4-1.9-1.1-4.1-3-7.7-5.3v-4.1c-0.1-1.1 0.1-2.4 0.7-3.4-0.1-0.8-0.5-1.7-1.1-2.3-0.7-0.7-2.3-1.1-2.7-0.7s0 0.4 0 0.7v0.7c0-0.4 0-0.4 0.4-0.4 1.9 0.4 2.7 1.1 2.7 1.9-0.6 1-0.8 2.2-0.7 3.4v3.4c-2.4-1.6-5-3-7.7-4.1h1.1c0.4 0 0.7 0 0.7-0.4s0-0.4-0.7-0.4c-0.9-0.1-1.9 0.1-2.7 0.4-0.3 0.2-0.4 0.6-0.2 0.9 0 0.1 0.1 0.1 0.2 0.2 3 1.6 5.7 3 8.8 5 3.1 1.9 6.2 3.8 9.1 6 2.3 0 5-0.4 8.8-0.7l5.7-1.1c2.3-0.4 5-0.7 7.7-1.1 1.1-0.3 2.3-0.4 3.4-0.4 1.3 0.1 2.8-0.1 4.1-0.4 1 1.8 1.9 3.6 2.3 5.7 0 0.7 0 1.6-0.4 1.6-3.8 1.6-7.7 2.7-11.4 3.8l-6.4 1.6c-4.6 0.7-9.5 1.6-14.1 1.9-3.4-1.6-6.8-3.4-10.3-5.3-3-1.6-5.7-3.8-8.4-5.7s-3-3-3-3.4c1.1-1.6 2-3.4 2.3-5.3v-1.6c-0.4-1.6 0-2.3 1.1-2.3h6.1c0.4 0 0.7 0 0.7-0.4l1.1-1.9-0.5-0.5-0.7 1.6v0.4h-6.6c-0.6 0-1.1 0.3-1.6 0.7-0.4 0.8-0.4 1.8 0 2.7v1.1c-0.6 1.9-1.6 3.6-2.7 5.3 0 0.5 0.1 1 0.4 1.6 0.7 1.1 1.6 2.2 2.7 3 0.7 0.7 1.9 1.6 2.7 2.3 2.1 1.3 4.3 2.7 6.5 3.8 3.4 1.9 6.8 3.8 10.3 5.3 0.7 0 5.3-0.7 13.7-1.9v0.7c-2.3 1.9-3.8 2.7-4.6 2.3-0.7-0.4-1.1 0.7-0.7 2.3 0.4 0.7 0.7 1.1 1.6 1.1l0.7 0.7 2.3 1.6c0.8 0.4 1.9 0.4 2.7 0 0.8-0.3 1.3-1 1.6-1.9l0.4-0.4 2.7-2.7 1.9-1.5c1.1-0.1 2.3-0.6 3.1-1.6 0-0.6 0.3-1.1 0.7-1.6l2.3-1.6c0-0.4 1.1 0 3 1.1 0.7 0.4 1.6 0.4 2.3 0l1.9-1.1c3.2 1.5 6 3.5 8.4 6 0 0.4 0 0.7 0.7 1.6 0.7 0.7 1.7 1.1 2.7 1.1l0.7 1.9 0.7 0.4c1.5 0.1 2.8-0.5 3.8-1.6l1.6-0.4c0.7-0.3 1.1-1.1 1.1-1.9l-0.7-0.4-1.1-0.4c-1.8-0.8-3.4-1.8-5-3l-1.1-0.7c6 0.9 12.1 1.6 18.3 1.9 1.5 0.1 2.8-0.5 3.8-1.6 1.6-1.1 6.1-4.6 13.7-9.9 1.1-1.2 2-2.6 2.7-4.1-0.8-0.7-1.5-1.7-1.9-2.7-0.4-0.9-0.7-2-0.7-3v-1.9c0-0.7 0-1.1-0.7-1.6-0.4-0.4-0.9-0.6-1.6-0.7h-5c-0.7 0-1.6-0.4-1.6-0.7v-2.3c0-0.7 0-1.1-0.7-0.7-1.3 0.3-2.6 0.8-3.8 1.6-0.5 0.4-0.6 1.2-0.1 1.8l0.1 0.1c0.5 0.3 0.7 0.9 0.7 1.6-0.1 2.1-0.3 4-0.7 6-2.1 2-4.4 3.6-6.8 5-2.2 0.2-4.4 0.1-6.5-0.4-0.9-0.9-1.5-2.1-1.6-3.4 1.2-0.8 2.5-1.6 3.8-2.3l2.3-0.4c0.7 0 0.7-0.7 0.7-1.6 0.7-0.4 1.1-0.7 1.1-1.6l3.8-4.6c1.1-1 2.6-1.7 4.1-1.9 2.6-0.4 5.1-1.5 7.3-3 0.4-0.6 0.4-1.3 0-1.9 1.6-1.1 3-2.6 4.1-4.1 0.8-1 1-2.6 0.4-3.8 1.6-1.5 2.6-3.2 3.1-5.3 0.4-1.2 0.4-2.6 0-3.8 0.7-0.4 1.3-0.9 1.9-1.6 0.8-1 0.7-2.6-0.3-3.4 1.5-1.4 1.7-3.7 0.9-5.6zm-63.4-54.1c-0.1 1.1-0.6 2.3-1.6 3-1.9 1.6-3.9 3-6.1 4.1-3 1.1-6 2.5-8.8 4.1v-0.4c3.9-3.2 8.1-6 12.5-8.3 1.1-0.7 0.7-0.7-0.4-0.4-1.7 0.7-3.2 1.6-4.6 2.7l-8.3 5v-0.7c3.8-3.5 8.2-6.4 13-8.7 1.4-0.7 2.8-0.8 4.3-0.4zm-15.2 1.6c2.5-2.2 5.5-3.7 8.8-4.6 1.3-0.4 2.7-0.7 4.1-0.7 0.7 0 0.7 0.4 0.4 1.1l-1.5 1.9c-2 0.3-3.7 1.1-5.4 2.3-2.6 1.7-5.2 3.4-7.7 5.3l-0.4 0.4c-0.9 0-1.9 0.3-2.7 0.7 3.3-3 6.8-5.6 10.7-8 1.3-0.5 2.5-1.1 3.5-1.9-1.5 0.4-2.9 1-4.1 1.9-3 1.9-6.1 3.7-9.1 6l-4.1 3.7c2.2-2.9 4.7-5.7 7.3-8.3-0.2 0.1 0.2 0.2 0.2 0.2zm-4.2 7.5c0.4-0.4 0.7-0.4 1.6-0.4v1.9c-0.4 1.8-1 3.4-1.9 5l-2.3 5c-1.9 0.3-3.5 1-5 2.3 0.7-1.6 1.9-3 3-5 1.1-1.9 3-4.6 5.3-8 0.4-0.7 0.4-0.7 0-0.4-1.1 1.1-2.2 2.4-3 3.8-1.6 2.3-3.8 5.7-6.8 10.6-0.7 1.1-2.7 3.8-5.7 8.3l0.4-1.1 4.1-7.2 3.8-7.2c1.5-2.9 3.8-5.5 6.5-7.6zm-16.5 16.6c2.4-4 4.6-8.2 6.5-12.4 0.8-2 2.1-3.7 3.4-5.3 0.4-1.1 0-1.1-0.7 0-3 3.9-5.6 8.3-7.7 12.9l1.1-3.4c0.7-1.6 1.1-3.4 2.3-5 0.9-2 2.1-3.9 3.4-5.7 0.8-0.9 1.6-2 2.3-3 0.7-0.8 1.7-1.5 2.7-1.9 0.2 0.2 0.3 0.4 0.4 0.7l-3.4 8.7c-2.4 4.8-5.4 9.1-8.8 13.3-1.6 1.6-2.3 2.7-2.7 3s-0.7 0.7-0.7 1.1l0.4-1.1c0.1 0 1.5-1.9 1.5-1.9zm1.6 7.6l-2.3 4.6h-0.4l1.1-4.6h1.6zm-5 11.4l0.3-1.9 0.4-1.9 1.1-0.4-1.6 3.7-0.7 3c0.1 0.1 0.5-2.5 0.5-2.5zm-0.8-7.1l1.1-5.7 0.4 0.7-1.5 5zm-2.6 13.1v-0.4c0-2.7 0.5-5.4 1.6-8-0.9 4-1.3 6.6-1.6 8.4zm-0.9-3.7c-0.3-4-0.1-7.9 0.8-11.7 0.5-4.3 1.5-8.4 3-12.4 0.7-1.1 0.7-1.6 0-0.7-3.1 6.4-4.9 13.6-5 20.7-0.1 2.2 0.1 4.5 0.4 6.8 0.4 1.6 0.7 2.3 1.6 2.7 0.2 0.3 0.7 0.4 1 0.1 0.1 0 0.1-0.1 0.1-0.1 0.1 0.5-0.1 1-0.4 1.6-1-0.6-1.9-1.6-2.3-2.7-0.7-1.6-1.1-3.2-1.6-5-0.6-2.6-0.9-5.3-0.7-8 0.3-3.3 0.8-6.6 1.6-9.9 1.1-5 3.8-9.1 6.8-12.9 0.7-0.7 1.1-1.1 1.6-0.7v5.3c-0.3 2-0.8 3.8-1.6 5.7-1.1 3.8-2.3 8-3 11.7-0.7 2.6-1.4 6.1-2.3 9.5zm2 6.8v-1.1c1.1-1.6 2-3.4 2.3-5.3l2.3-6 2.7-6.4c1.8-3.5 3.9-6.8 6.5-9.9 0.8-1.6 2.4-2.7 4.1-3 0.4 0.4 0.4 1.1 0 2.7s-1.1 3-1.6 4.6c-2.2 4.3-5.1 8.3-8.4 11.7l4.7-7.6 2.3-4.1c0.7-1.6 0.7-2.3 0-1.9-4.6 7.2-7.3 11.4-8 13.3s-1.9 3.4-2.7 5c-0.8 1-1.5 2.2-1.9 3.4-0.4 1.4-1.1 3.2-2.3 4.6zm18.3 2.6c-0.3 2.6-0.8 5.1-1.6 7.6 0.1-1.7-0.1-3.3-0.4-5l0.7-2c0-0.7 0-0.7-0.4 0l-0.2 0.8v-1.5l1.1-1.1c0.8-0.6 0.8-0.2 0.8 1.2zm-1.2-3.7c0.7 0 0.7 0 0.4 0.7l-1.1 1.9c0-0.7-0.4-1.1-0.4-1.9 0.4-0.4 0.8-0.4 1.1-0.7zm-5.3 3c0.7-3.8 1.9-5.7 2.7-6 0.7 2.3 1.1 4.8 1.1 7.2 0.4 3.1 0.4 6.3 0 9.4 0 2.5-0.7 5-1.9 7.2l-0.8 2v-14c0-3 0.4-6 0.7-9.9v-0.5c-0.7 4.8-1.1 9.5-1.1 14.4v9.1l-0.7-1.2c-0.6-3.2-0.9-6.5-0.7-9.9 0.1-2.5 0.3-5.2 0.7-7.8zm-5.8 11.4c1-3.7 2.8-7.3 5.3-10.3-0.5 1.3-0.9 2.7-1.1 4.1-1.9 3.3-3.4 6.8-4.6 10.6-0.4 1.1-0.4 2.7-0.7 3.8 0.1-2.7 0.5-5.5 1.1-8.2zm4.2 5.7l-1.6-1.9 1.1-2.7c0.1 1.5 0.3 3.1 0.5 4.6zm13.8 28l0.7-2.7 3 1.9s-3.7 0.8-3.7 0.8zm7.5-1.1l-5.3-3.1-4.6-3-0.7-1.1c-0.3-0.3-0.7-0.4-1.1-0.4-0.4 0.4-0.7 0-1.1-0.7-1.2 0.7-2.9 0.4-3.8-0.7l-2.3-2.7-1.9-3.4-1.1-0.7c-0.5 0.2-0.8 0.2-1.6 0.2-1.2-0.2-2.3-0.9-3-1.9-1.5-2.2-2.7-4.5-3.8-6.8-2-3.8-3.8-8-5.8-11.7-0.7-2.3-1.1-3.8-1.6-4.1s-0.4-0.7-0.4 0c0.4 1.1 0.4 2.7 1.1 3.8 1.1 3 2.3 5.7 3.4 8.3 1.6 3 3 5.7 4.6 8.3-2.9-2.9-5.3-6.3-7.3-9.9-1.5-2.8-2.4-5.7-3-8.7-0.3-1.3-0.4-2.8-0.4-4.1v-3.3c0.4-0.9 0.4-0.9 0.9-0.9s0.7 0.7 1.9 1.9c1.7 2.7 2.9 5.7 3.8 8.7 1.6 4.6 2.7 7.6 3 8.7s0.7 2.7 1.1 3.8c0.3 1 0.8 2.1 1.6 3 0.6 1.2 1.3 2.4 2.3 3.4 1.1 0.7 1.9 0.7 2.3 0.4l-2.3-4.6h-0.6v-1.6c0.2-1.3 0.4-2.8 0.7-4.1 1.1-3.4 2.5-6.6 4.1-9.9-0.3 1.2-0.4 2.5-0.4 3.8-1.6 3.8-3 6.8-3.8 9.1-0.4 1.6-0.4 2.3 0 2.3l0.4-0.4-0.3-1.2 0.4-0.7 0.7 1.6 0.4-0.4 0.4 0.7-0.4 0.7 2.7 3.8 0.7-0.7 0.4 0.7c-0.6 0.5-1 1.2-1.1 2 0.7 1.1 1.6 2.7 2.3 3.8 1.6 1.9 2.7 2.7 3.4 1.6 0.4-0.4 0.7 0 1.1 0.4 0.6 0.5 1.1 1.1 1.6 1.9v-1.6l-2.3-2.7-1.6-3c-0.7-1.1-1.9-2.7-2.7-3.8l-1.9-3.4c-0.7-1.1-1.6-2.7-2.7-4.1v-0.8l2.3 3c1.6 1.8 2.9 3.7 4.1 5.7 0.7 1.1 1.1 1.6 1.6 0.7l0.4-1.1 0.8 0.3-0.7 2.7v0.7c0 0.7 0 1.1 0.4 1.1s0.4 0.4 0.7 1.1c0.7 1.1 1.6 1.9 2.3 3 1.2 1.5 2.6 2.7 4.1 3.8 1.6 0.7 2.7 1.9 3.4 2.3s1.6 1.1 1.1 1.9l1.1 0.4-0.3-1.5h1c0.5 0.4 0.8 0.9 1.1 1.6 1.1 0.7 1.9 1.6 3 2.3l-2.8-0.7zm-22.4-22l0.4-0.4 1.9 3v0.4l-2.3-3zm3.5 6.4l0.7-0.7 1.9 2.7 1.1 1.9 0.4 1.1c-0.7-0.4-1.1-1.1-1.6-1.6l-1.1-1.6-1.4-1.8zm23.6 14.7l-3-2.3c-0.8-1-1.7-2.1-2.7-3-0.4-0.4-0.7-1.1-1.6-1.6-0.6-0.3-1.2-0.5-1.9-0.4-0.4 0-0.7 0.4-1.1 1.6l-0.4-0.4c0-0.6 0.3-1.1 0.7-1.6 0.4-0.4 1-0.4 1.6 0l3.4 1.6 5.7 1.9c1 0.8 2 1.9 2.7 3-1 0.6-2.1 1-3.4 1.2zm1.6 14c-2 2-4.1 3.7-6.5 5.3l-0.4-0.4c2.1-1.2 4.1-2.6 6.1-4.1l1.1-1.1h-0.7c-0.9 0.8-2 1.6-3 2.3-1.2 0.8-2.5 1.6-3.8 2.3l-1.9 0.7 0.4 0.4h1.6c0.6 0.3 1 0.8 1.1 1.6 0 0.4-1.1 0.7-2.3 0.4l-1.6-0.7c-0.5-0.6-1.1-1-1.9-1.1l-0.7-0.4 0.4-0.7 1.9 0.7h0.7l-0.4-1.1 2.3-1.8c0.7-0.4 0.7-0.7 0.7-1.1v-1.1c1.1 0.2 2.4 0.1 3.4-0.4 1.1-0.4 2.3-0.7 3.4-0.7s1.2 0.3 0.1 1zm28.6-105.2v-1.6l-1.2 0.4c-1.3 0.4-2.9 0-3.8-1.1-0.7 0-1.1-0.4-1.1-0.7 0-0.4 0.4-1.1-0.4-1.1l-1.9 0.4c-0.9 0-1.8-0.4-2.3-1.1-0.4-0.4 0-1.1 0.4-1.9-0.8-0.4-1.7-0.8-2.3-1.6-0.4-0.4 0-1.1 0.4-1.6 1.2-0.4 2.6-0.4 3.8 0-0.3-0.4-0.4-0.9-0.4-1.5 0-0.4 1.1-0.4 3.4 0.7l1.6 0.7c0.4-0.7 0.8-0.7 2-0.7 1.1 0.5 2.1 1.1 3 1.9 1.2 0.8 2.3 1.9 3 3 0.4-0.5 1-0.5 1.6-0.2 0.2 0.1 0.3 0.3 0.3 0.5v1.6c-0.9-1-2.6-1.1-3.6-0.2l-0.2 0.2-0.7-0.3c-1-0.9-1.8-2.1-2.3-3.4-0.5-1.1-0.5-1.1-0.5-0.4 0.3 1.2 0.8 2.4 1.6 3.4-1.7-0.6-3.2-1.5-4.6-2.7-0.8-0.8-1.7-1.7-2.3-2.7-0.4-0.7-0.7-0.7-0.7 0 0.4 1.1 1.2 2.1 2.3 2.7l-1.6-0.4c-1.1-0.4-2.7-0.7-3.8-1.1-0.4 0-0.4 0 0 0.4 1.1 0.4 2.7 0.7 3.8 1.1 0.7 0 1.1 0.4 1.9 1.1-1.2 0.4-2.5 0.7-3.8 0.7h-1.1c0.4 0 0.4 0.4 0.7 0.4 1.7 0.1 3.3-0.1 5-0.4 1.6 0.7 2.7 1.1 4.1 1.9-1-0.3-2.3-0.1-3 0.7-0.4 0.4 0 0.4 0.4 0l3.4-1.1 1.1 0.4c0.1 1.2 0.3 2.6 0.7 3.7l-0.7 0.4-2.2-0.5zm7.7 7.2c-2.3 0-3 0-3-0.4s0-0.7 0.7-1.1l0.3-0.7c-1.6-0.7-2.7-1.6-3-3.4l1.1-0.4c0.4-0.7 0.4-1.1 0-1.6-0.6-0.7-0.8-1.7-0.7-2.7 0.4-1.1 1.9-1.1 3.8 0 0.7-1.6 1.9-2.3 3-1.6-1.1 0-2.3 0.7-2.3 1.6v2.7c-0.4-0.7-1.1-1.1-1.6-1.6-1.1-0.4-1.6-0.4-0.7 0 0.7 0.6 1.3 1.5 1.9 2.3-0.9 0.8-2.2 1.2-3.4 1.1-0.4 0-0.4 0.4 0 0.4 0.6 0 1.3-0.1 1.9-0.4-0.4 1.7 0.3 3.4 1.9 4.1 0.8 0.9 0.4 1.3 0.1 1.7zm1.4 1.2c0-0.4 0.4-0.7 1.6-0.7s1.1-0.4 0.4-0.7c-1.1-0.6-2.2-1.6-3-2.7-0.7-0.7-0.7-1.1 0-1.6l0.7-0.4 0.4-0.7-0.4-2.3c-0.4-1.1 0-1.9 1.1-2.7 1.3 0 2.7 0.4 3.8 1.1 0-0.7 0.4-0.7 1.1-0.7s1.6 1.9 2.3 5l1.1 0.4c0.2-0.4 0.4-0.8 0.7-1.1 0.5 0.6 0.9 1.5 1.1 2.3 1.1 1 1.6 2.7 1.1 4.1-0.8 0.7-1.1 2-0.7 3l-0.2-1.2c-0.3-1.3-0.4-2.8-0.4-4.1v3.4c-1-1.6-2.4-2.9-3.8-4.1-0.3-1.1-0.4-2.3-0.4-3.4s-0.4-1.6-0.4-0.7c-0.4 1.2-0.4 2.6 0 3.7-1.3-1.5-2.7-2.9-3.8-4.6-0.4-0.7-0.4-0.7-0.4-0.4 0.6 1.3 1.3 2.6 2.3 3.7 0.7 1.1 1.9 1.9 2.3 2.7-1.1-0.4-1.9-0.4-3-0.7-0.8-0.1-1.6-0.3-2.3-0.7-0.7 0-0.7 0 0 0.4 0.8 0.5 1.8 0.7 2.7 0.7l3.4 1.1c1 0.6 1.9 1.6 2.3 2.6l0.7 1.9c-1.2-0.7-2.7-1.2-4.1-1.6-0.9 0-1.9-0.3-2.7-0.7-1.1-0.4-1.1-0.4-0.4 0.4 0.9 0.5 2 0.7 3 0.7 1.7 0.4 3.3 1 4.9 1.9v0.4c-0.4 0.4-0.4 0.7-0.4 1.6l0.4 1.5c-0.4-0.4-0.7-0.4-1.9 0.7 0.4-0.4 0.4-1 0-1.6-0.9-1.3-2.5-2.4-4.4-2.9l-0.4 0.4c-1.9-0.1-3.5-1.6-4.3-3.4zm16.5 33.6c-0.4-0.7-1.1-1.9-1.9-3.4-0.7-1.6-1.6-2.7-1.9-3.4-0.4-0.8-0.4-1.8 0-2.7 0.4-0.7 0.4-1.6 0.7-2.3v-0.4c-0.4 0.7-0.7 1.9-1.1 2.7l-1.6-3.7c0.3-2.2 1.1-4.3 2.3-6 0.4-0.7 0.4-0.7 0-0.4-1.2 1.6-2.2 3.3-2.7 5.3l-2.3-4.6c0.3-1.7 0.8-3.3 1.6-5 0.7-1.1 0.4-1.1-0.4 0-0.6 1.1-1.1 2.5-1.6 3.8-0.7-2.7-1.1-5-1.9-6.4l-0.4-0.4 0.4 0.7c0.3 2.1 0.8 4 1.6 6-0.8-0.8-1.9-1.5-3-1.9 1 0.6 2.1 1.5 3 2.3 0.4 1.1 1.1 2.3 1.6 3.4-1.3-0.8-2.7-1.6-4.1-2.3-0.7 0-0.7 0 0 0.4 1.9 0.4 3.5 1.5 4.6 3l1.6 3.8c-0.4 0-1.1-0.7-1.9-2.3-1.2-1.8-3-3.1-5.1-3.8-0.5-0.3-0.7-0.9-0.7-1.6 0-0.4 0.4-0.7 1.6-0.7-0.4-0.7-0.4-1.1-0.7-1.9l-0.4-0.7c-0.7-1.6-0.3-2.3 1.1-2.3-1.1 0.4-1.1-0.4-1.1-0.7-0.1-0.9 0.2-1.9 0.7-2.7 0.4-0.4 0.4-1.1 0.7-1.6l2.3 1.1c0.7 0.3 1.1 1.1 1.1 1.9l-0.4 1.9c0 0.4 0.4 0.4 1.1-0.4 0.3-0.7 0.8-1.2 1.6-1.6 0.4 0.4 1.1 0.7 1.6 1.1 0.4 1.6 0.3 3.1-0.4 4.6l-0.8 2.2c1.6-1.9 2.7-3 3.8-3v4.1c0 0.7-0.2 1.3-0.7 1.9-0.7 0.6-1.2 1.7-1.1 2.7 1.6-1.1 1.9-0.7 1.9 0.4l-0.7 3c-0.4 1.6 0 2.3 0.7 1.9s1.1 0 1.1 0.4v1.6c-0.3 0.5-0.5 1.2-0.4 1.9 0 0.4 0.4 0.4 0.4 0.7h1.1c0.4 0 1.1 0 1.1 0.7v1.9c0 0.7 0.3 1.3 0.7 1.9 0.4 0.4 0.7 0.7 1.1 0.7l0.7-0.7c-0.7 0-1.1-0.4-1.1-1.9v-3c-0.4-0.7-0.7-1.6-1.1-1.6-1-2.2-2-4.5-2.7-6.8h1.6c1.1 3.8 1.9 5.7 2.3 6s0.7 0.7 0.7 1.1c0 0.9 0.1 1.8 0.4 2.7 1.5-0.8 2-2.7 1.1-4.1 0-0.4-0.4-0.4-0.7-0.7-0.7-0.3-1.2-0.8-1.6-1.6-0.4-0.7 0-1.1 0.7-1.6 0.7-0.4-0.7-1.6-3.8-3.4-1.6-1.1-1.9-1.9-1.6-2.7s0.7-0.4 1.1 0c0.3 0.2 0.7 0.4 1.1 0.4 0 0 0-1.1-0.7-1.1s-1.1-0.4-1.1-0.7v-5c-0.4-0.7-1.6-0.7-2.7 0 0.3-0.7 0.4-1.5 0.4-2.3s-0.4-1.6-1.1-1.9l-0.8-1.9c0-0.7 0.4-1.1 1.1-1.6-0.4-0.9-0.4-2.1 0-3 0.4-0.4 0.4-1.1 0.7-1.6 0-0.4 0.4-0.4 1.1 0 1.3 1 2.5 2.4 3.4 3.8 0.7-0.7 1.6-0.4 1.9 0.7 0.8 1.3 1 3 0.7 4.6 1.9-0.4 2.3 0.4 1.9 2.3 0.7 1 1.1 2.2 1.1 3.4 0.1 0.7-0.1 1.6-0.4 2.3-0.4 0.4-0.4 1.1-0.7 1.6 0 0.4 0 0.4 0.4 0 0.4-0.7 1.1-1.1 1.9-1.1 0.5 0.8 0.7 1.8 0.7 2.7 0 0.6-0.3 1.1-0.7 1.6-0.4 0.6-0.8 1.2-1.1 1.9 0 0.4 0 0.7 0.7 0.7l1.1-0.4c0.7 0 0.7 0.4 0 1.6-0.4 1.1-1.1 1.9-1.6 3-0.3 0.6-0.4 1.2-0.4 1.9 0 0.6-0.2 1.2-0.4 1.9v-4.1c-0.4-1.6-0.4-3.4-0.7-5 0.6-0.9 1.1-2 1.6-3 0.4-0.7 0.4-1.1 0-0.4-0.3 1-0.8 1.9-1.6 2.7-0.4-1.6-1.1-3.8-1.6-6 0.7-1.2 1.1-2.7 1.1-4.1 0-1.6 0-1.6-0.4-0.4 0 1.6-0.7 2.7-1.6 4.1-0.4-1.9-1-3.6-1.9-5.4 0.3-1.1 0.4-2.3 0.4-3.4s0-1.1-0.4-0.4c0.1 0.7-0.1 1.6-0.4 2.3l-1.6-3.7-0.7-2.3c-0.4-0.7-0.4-0.7-0.4 0l0.7 2.7c-0.4-0.7-1.1-1.2-1.9-1.6-0.7-0.4-0.7-0.4-0.4 0 0.9 0.8 1.9 1.7 2.7 2.7l1.9 4.6c-1-1.1-2.4-1.9-3.8-2.3-0.7-0.4-0.7 0 0 0.4 1.6 1.1 3 2.6 4.1 4.1l1.6 4.6c-1.2-0.8-2.3-1.9-3-3-0.4-0.4-0.7-0.4 0 0.4 1 1.3 2.2 2.6 3.4 3.8l1.1 4.1c-1.2-1.2-2.6-2.3-4.1-3-0.7-0.4-0.7-0.4 0 0.4 1.8 1.3 3.2 2.8 4.6 4.6 0.4 2.3 0.7 4.6 0.7 6.8 0 0.7-0.7 1.6-1.9 1.9l-0.4 3.4h-1.9c0.2-1.2-0.7-2-1.5-2.8zm2.3 3.4h1.6c-0.7 3.4-1.6 7.2-1.9 9.4l-0.7-0.4c0.6-2.9 1-5.9 1-9zm-11.8 19.4c-0.4 0-1.1-0.7-2.3-1.9-1.1-1.1-1.6-1.9-1.1-3-0.5-0.3-0.7-0.9-0.7-1.6-0.4-0.4-0.4-1 0-1.6 0.4-0.4 1.1-0.4 2.7 0.7 0.4-0.7 0.4-1.6 0-2.3l-1.2-1.9c-0.4-1-1-2-1.9-2.7-0.4-1.1-0.7-1.6-0.4-1.9s0.7 0 1.1 0.4c1.1-1.1 1.9-1.6 2.3-1.1 0.5 0.8 0.7 1.8 0.7 2.7 0.4 1.2 0.4 2.6 0 3.7l-0.5 0.6 0.4 0.4c0.1 1 0 2.1-0.4 3-0.1 0.4 0.1 0.8 0.4 1.1v-1.1c0-0.5 0.1-1 0.4-1.5 0-0.4 0.4-1.1 0.4-1.6l-0.4-0.4c0.4 0 0.4-0.4 0.7-0.4v-3c0.1-0.9 0-1.8-0.3-2.7 0-0.4-0.4-1.1-0.4-1.6 0-0.4-0.3-0.7-0.7-0.7s-1.1 0.4-1.9 1.6c0.4-1.1 0.7-2.7 1.1-3.8 0.4-0.7 0.7-0.7 1.1-0.7s0.7 0.3 0.7 0.7 0.4 0.4 0.7-0.4 0.4-0.7 0.7-0.4l0.7 0.7c0 0.4 0.4 0.7 0.4 1.1 0 0.7 0.4 1.6 0.4 2.7 0.1 0.7-0.1 1.6-0.4 2.3-0.4 0.4-0.4 0.7-0.4 1.6 0 1.1 0.1 2.3 0.4 3.4 0.3 0 0.5-0.2 0.7-0.4 0.3-0.3 0.7-0.4 1.1-0.4s0.4 0.7 0.4 1.9c0 1.1 0 1.6 0.4 0.4 0.4-1.1 0.4-1.6 1.1-1.6s0.7 1.1 0.4 3.8c-1.5 1-2.7 2.4-3.8 3.8-0.4-0.7-0.4-1.6 0-2.3 0.4-0.4 0.4-1.1 0.7-1.6 0-0.4 0.4-1.1 0.4-1.6 0.4-1.1 0.4-1.1 0-0.4-0.4 0.4-0.4 0.7-0.7 1.6-0.4 0.4-0.4 0.7-0.7 1.1-0.4-1.1-0.4-2.7-0.7-3.8s-0.4-1.1-0.4 0c0.4 2 0.7 4 0.7 6-0.6-0.7-1.5-1.3-2.3-1.9-0.7-0.7-1.6-1.1-1.9-1.9-0.4-0.4-0.7-0.4-0.4 0.4s1.6 1.6 2.3 2.7 1.9 1.6 1.9 1.9c0.4 0.4 0.4 0.4 0.4 0.7-0.4 0.4-0.7 1.1-1.6 1.6-0.4-0.4-0.4-0.4-0.4-0.7 0.4 0.6 0.4 0.3 0.1 0.3zm-24.5 24.6c0.5-0.6 1.1-1.1 1.9-1.6 2.3-1.1 5-2.3 7.7-3.4h0.6l0.4 0.7-0.7 0.4c-0.6 0.3-1.2 0.5-1.9 0.4-0.8 0.1-1.6 0.3-2.3 0.7-0.9 0.2-1.6 1-1.6 1.9 0 0.4-0.4 0.7-0.7 1.1l-2.7 1.6h-1.9l1.2-1.8zm5.7 2.3h-1.1l-2.3-0.4 2.3-1.1 1.1 1.5v-0.4l-0.4-1.1c-0.3-0.7 0-1.6 0.6-1.9 0 0 0.1 0 0.1-0.1 0.7-0.4 1.5-0.7 2.3-0.7 0.4 0 0.4 0.7 0 1.9-0.6 0.9-1.6 1.6-2.6 2.3zm-9.9 8.7l-0.4-1.1-1.9 2.3-1.6 1.1c-0.5 0.5-1.2 0.7-1.9 0.7l-2.3-1.1 1.1-0.7 0.4 0.4c-0.4 0.7 0 0.7 0.7-0.4l1.9-1.9c0-1.6-0.3-3.1-0.7-4.6-0.3-1.3-0.8-2.6-1.6-3.8 0-0.4-1.1-0.4-3-0.4 1.3-0.4 2.8-0.4 4.1 0l1.6 0.7 0.7-0.4-1.6-0.7h0.7l0.7 0.7 0.4 0.4c1.5 1.5 2.8 3.1 3.8 5 0.4 0.8 0.4 1.8 0 2.7 0.1 1.1-0.8 1.4-1.1 1.1zm16 9.4l0.7 0.4-0.4 0.4-1.9 0.4c-0.8 0.6-1.7 1.1-2.7 1.6l-1.1-0.4-0.4-0.7c0.4-0.4 0.7-0.7 1.1-0.7 0.4-0.3 1-0.4 1.6-0.4l1.6 0.4c-0.1-0.1 1.5-1 1.5-1zm-2.3 0c-1.1 0-1.9 0.7-2.3 0.7h-0.7c-0.9-1.1-2-2.1-3-3l-3-2.7c0.7-0.4 1.9 0 3.8 0.4l5.2 4.6zm9.6-14.3h3c2.8-1.6 5.4-3.4 7.7-5.7 2.9-2.3 6.1-4.1 9.5-5.7 0.7-0.4 0.7-0.7 0-0.7-1-0.3-2-0.4-3-0.4-0.4 0.4-0.4 0.7 0 0.7h1.6c-2.7 1.6-5.4 3-7.7 4.6 0-1.1 0.4-3 0.4-5.3-0.1-0.8-0.3-1.6-0.7-2.3-0.4-0.4 0-0.7 1.1-1.1l0.7-0.4v1.6l-1.1-0.4v0.7c0.4 0.5 0.9 0.8 1.6 1.1h5.4c1.9 0 3 0.4 2.7 1.6v2.7c0.4 2 1.2 3.9 2.3 5.7-0.5 1.1-1.1 2.1-1.9 3l-3.4 2.2c-3 2.3-7.3 5-12.7 8.3-8.8 0.1-17.5-1.2-25.9-3.8l-1.1-0.4 0.4-0.4c0.4-0.7 1.1-1.1 1.1-1.9 0-2.5-1-4.9-3-6.4v-0.4l1.1-0.4c2.6 0 5.2 0.4 7.7 1.1 2.3 0.4 5 1.1 8 1.6 1.8 0.3 4 0.6 6.2 0.8zm-5-1.6c-1.1-0.4-3-0.4-5.7-1.1l2.3-0.7c0.8 0.4 1.9 0.1 2.3-0.7 0.4 0.6 0.8 1.7 1.1 2.5zm14.5-20.1c-0.8 0.7-1.1 2-0.7 3-1.5 0.8-2.7 1.9-3.8 3-1 1-1.9 2.2-2.7 3.4-0.3 0.8-1 1.3-1.9 1.6-0.9 0.2-1.9 0.1-2.7-0.4l-0.4 1.6-4.6 2.7-2.3 1.1c0.3-0.7 0.4-1.5 0.4-2.3l0.7-0.7c3-1.6 5-3 5.4-4.6 0.4-1 1-2 1.9-2.7 0.6-0.8 1.1-1.7 1.6-2.7v-3c0.7 0.7 1.6 1.1 1.9 0.4 0.8-1.8 1.9-3.4 3.1-5 1-1.5 2.2-2.8 3.4-4.1l3-3.4v1.6c-1.8 2.2-3.4 4.5-5 6.8-1.9 2.6-3.4 5.3-4.6 8.3-0.4 1.1-1.2 2.1-2.3 2.7-0.6 0.3-1.1 0.6-1.6 1.1-0.4 0.7 0 0.7 0.4 0.4 0.4-0.4 0.9-0.8 1.6-1.1 2.5-2.1 4.7-4.6 6.5-7.2v-2.2l0.7-1.1c0 1.1 0 2.3 0.4 2.3s0.7-0.4 1.1-1.1 1.6-3.4 3.4-7.2c-0.4 0.9-0.4 2.1 0 3-1.1 0.7-1.6 1.9-0.7 3.8l-2.2 2zm15.2-15.1c0 1.1-0.4 2.2-1.1 3-1.9 2.3-2.7 3.4-2.3 3.8 0.4 1 0.3 2.2-0.4 3-1.1 1.5-2.5 2.9-3.8 4.1 0.4 0.7 0 1.6-1.1 2.3-1.5 0.8-3 1.5-4.6 1.9 2.7-1.6 4.7-4.1 5.4-7.2 0.6-0.6 1.5-1.1 2.3-1.6 0.7-0.4 0.7-0.7 0.4-0.4-0.9 0.3-1.9 0.8-2.7 1.5 0.8-1.9 1.5-3.7 1.9-5.7 1.2-1.3 2.4-2.7 3.4-4.1 0.7-0.7 0.7-1.1 0-0.4-0.8 1.5-1.9 2.7-3 3.8 0.7-1.9 1.1-4.1 1.9-6.4 0.4-1.6 0-1.6 0-0.7l-0.4 1.6-1.1-2.3 0.7 3c-0.4 1.6-0.7 3.4-1.1 5-0.6-1.8-1.6-3.4-2.7-5-0.7-1.1-1.1-1.1-0.4 0 1.1 1.9 2 3.9 2.7 6-0.4 1.9-1 3.6-1.9 5.3-0.4-0.7-1.1-1.2-1.9-1.6-0.4-0.4-0.4 0 0 0.4 0.6 0.5 1.1 1.2 1.6 1.9-0.5 1.2-1.2 2.5-2.3 3.4-0.8 0.9-1.7 1.9-2.7 2.7 1.1-1.7 1.6-3.6 1.1-5.6 0-0.4 0.3-0.7 0.7-0.7s0.7-0.3 0.7-0.7c-0.4-0.7-0.7-1.5-0.7-2.3h1.6c0.7-0.4 0.4-0.7 0-1.6-0.8-0.9-1.2-2.2-1.1-3.4 0-0.7 0.4-1.1 1.6-0.7 0.4 0 0.4-0.4 0-1.9l-1-1.6c-0.7-1.9-0.4-2.3 1.1-1.9l1.9 1.1c1.1 0.4 1.9-0.4 1.9-2.3 0-0.4 0.4-0.4 1.1-0.4 0.9 0 1.7-0.6 2-1.5 0.7-0.7 1.1 0 1.6 1.9 0.4 1.9 0.4 3.4 1.9 3.4-1.2-0.3-1.2 0.1-1.2 0.9zm2-6c0 0.4-0.1 0.8-0.4 1.1-0.4 0.4-0.9 0.6-1.6 0.7l-0.7-1.1c0-1.1-0.4-2.2-1.1-3 0.4-0.5 0.9-0.7 1.6-0.7 0.4-0.4 0.4 0-0.4 0s-1.1 0.7-1.9 0.7c0.4-1.5 1-2.9 1.9-4.1 0.4-0.7 0-0.7-0.4 0-0.7 1-1.5 2.2-1.9 3.3-0.4-0.4-0.4-1.1-0.7-1.6 0-0.7-0.4-0.7-0.4 0 0.1 0.8 0.3 1.6 0.7 2.3-1.1 1.6-1.9 2.3-2.3 1.9 0.3-2.3 0.8-4.6 1.6-6.8 1.1-1.1 1.9-1.6 2.7-1.1 1.1-0.7 1.9-1.1 2.7-0.4 0.4 0.7 0.7 1.1 0.4 1.9-0.1 0.8-0.3 1.6-0.7 2.3 0.7 0 1.1 0.4 1.6 1.1-0.3 1.5-1.1 2.7-2.3 3.4 1.2-0.4 1.6 0.1 1.6 0.1z"/>
<path class="st1" d="m16.8 109.7c0.7 0.4 1.6 0.4 1.9-0.4 0.4-0.4 0.4-1 0-1.6l-0.4-0.4c-0.4-0.4-0.4-0.4-0.7 0.4-0.1 0-0.8 2-0.8 2zm-8.8-6c0.7 0.7 1.1 1.1 2.3 0 0.4-0.4 0.4-1 0-1.6l-0.4-0.4h-0.4l-1.5 2zm12.9 6.4c0-0.7 0.4-1.1-0.4-1.6 0.4 0 0.7 0.3 0.7 0.7 0.3 0.3 0.7 0.4 1.1 0.4 0 0-0.7-0.4-0.7 0-0.1 0.8-0.3 1.6-0.7 2.3l-0.4 2.7 2.3-1.6c0.4-0.4 1.6-1.6 1.6-1.9s0-0.7-0.4-0.7v-0.4l0.7 0.4c0.4 0 0.4 0.4 0.7 0.4-0.7-0.4-1.1 0.4-1.9 0.7l-3.8 3.8-0.4-0.4 1.6-4.8zm-5.2 0.8c0 0.4-0.4 1.1-0.4 1.6 0 0.4 0 0.4 0.4 0.7v0.4l-1.1-1.1c-0.3 0-0.5-0.2-0.7-0.4v-0.4c0.4 0 0.7 0.4 0.7 0 0.4-0.4 0.7-0.7 0.7-1.1l1.6-2.3c0-0.4 0.7-0.7 0.7-1.1s0-0.7-0.4-0.7c0.4 0.4 0.7 0.4 1.1 0.7s0.7 0.4 1.1 0.7c0.8 0.4 1.1 1.5 0.8 2.3v0.4c-0.5 0.8-1.5 1.1-2.3 0.7-0.2 0-0.4-0.2-0.4-0.3-0.4 0-0.4 0-0.4-0.4 0-0.2-1.4 0.3-1.4 0.3zm-3.5-5.3c0-0.4 0.7-0.7 0.7-1.1s0-0.7-0.4-0.7h0.5l3.4 2.3-1.1 1.1c0.7-0.7 0.4-1.1-0.4-1.9l-0.4-0.4c0-0.4 0-0.4-0.4 0l-1.1 1.9c0.4 0.5 1 0.5 1.6 0.2 0.2-0.1 0.3-0.3 0.3-0.5-0.4 0.4-0.7 0.7-0.7 1.1s-0.4 0.7-0.7 1.1v-0.4c0.7-0.7 0.4-1.1-0.4-1.6l-1.6 2c0 0.4-0.4 0.4-0.4 0.7 0 0.4 0.3 0.7 0.7 0.7 0.6 0.4 1.3 0.4 1.9 0l-0.7 1.6-4.1-2.7v-0.4h0.7c0.4-0.4 0.7-0.7 0.7-1.1l1.9-1.9zm-3.8 2.1c-0.1 0.4 0.1 0.8 0.4 1.1l-0.4-0.4c-0.3 0-0.5-0.2-0.7-0.4v-3.4c0-0.4 0-0.4-0.4-0.7l-0.4 0.7c-0.4 0.4-0.4 0.7-0.7 1.1 0 0.4 0 0.4 0.4 0.7-0.3 0-0.5-0.2-0.7-0.4-0.4-0.4-0.7-0.4-1.1-0.7 0.4 0 0.4 0.4 0.7 0s0.7-0.7 0.7-1.1l1.6-2.3c0.4-0.4 0.4-0.7 0.7-1.1 0-0.4 0-0.4-0.4-0.7 0.4 0.4 0.7 0.7 1.1 0.7s0.7 0.3 0.7 0.7c0.7 0.7 1.6 1.1 0.7 2.3 0 0.7-1.1 1.1-1.9 0.7h-0.3v3.2zm44.7 2l-1.1-2.3-0.4 2.7 1.5-0.4zm-19.9 4.5c-0.1 0.4 0.1 0.8 0.4 1.1 0.4 0.4 0.4 0.4 0.7 0.4 0.7-0.4 0.7-0.7 0.7-1.6 0-0.4-0.4-0.7-0.7-1.1s-0.7 0-1.1 0v1.2zm0-1.5c0.2-0.2 0.5-0.3 0.7-0.4 0.4-0.4 0.4-0.7 0.4-1.6 0-0.6-0.4-1-0.9-1.1h-0.6v0.4l0.4 2.7zm-5 2.3c-0.1 0.4 0.1 0.8 0.4 1.1 0 0.4 0.4 0.4 0.7 0s1.1-0.4 1.1-1.6c0-0.7-0.4-0.7-0.7-1.1h-1.1v1.6h-0.4zm-0.4-1.6c0.7 0 0.7-0.4 1.1-0.4 0-0.4 0.4-0.7 0.4-1.1 0.1-0.5-0.3-1-0.9-1.1h-0.2c-0.2 0-0.4 0.2-0.4 0.3v2.3zm23.7-2.5c0 0.4-0.4 1.1 0 1.6 0.4 0.4 0.4 0.4 0.7 0.4v0.4h-1.5c0.4 0 0.7-0.3 0.7-0.7-0.1-0.6 0.1-1.3 0.4-1.9l0.7-4.1h0.4l2.3 4.6c0 0.4 0.4 0.7 0.7 1.1s0.4 0.4 0.7 0.4v0.4h-1.1c-0.4 0-0.7 0.4-1.1 0.4v-0.5s0.7 0 0.4-0.7 0-0.4 0-0.7l-0.7-1.1-1.9 0.4h-0.7zm-3.1-3.9l0.4 1.9c-0.4-1.1-1.1-1.9-1.9-1.6-1.6 0-1.6 1.9-1.6 3.4 0 1.6 0.7 3 2.7 2.7s1.1-1.1 1.1-2.3l0.4 2.3-0.4-0.4c-0.4 0.4-0.9 0.7-1.6 0.8-1.6 0.4-3-0.7-3.4-2.7s0.7-3.8 2.3-3.8c0.6-0.1 1.3 0.1 1.9 0.4v-0.7h0.1zm-6 2.7c0-0.4-0.4-0.7-0.4-1.1-0.4 0-0.4-0.4-0.7-0.4h-0.4c0.4 0 0.7-0.4 1.1-0.4s0.7-0.4 1.1-0.4v-0.4c-0.4 0-0.4 0.4-0.7 0.4-0.1 0.4 0.1 0.8 0.4 1.1l0.4 3c-0.1 0.4 0.1 0.8 0.4 1.1 0 0.4 0.4 0.4 0.7 0.4v0.4h-1.1c-0.4 0-0.7 0.4-1.1 0.4v-0.3c0.4 0 0.7 0 0.7-0.4v-1.1l-0.4-2.3zm-5.4 1.2v-1.6c-0.4-0.4-0.4-0.4-0.7 0v-0.4c0.4 0 0.8-0.1 1.1-0.4h1.1v0.4c-0.4 0-0.7 0-0.7 0.4s0.4 1.1 0.4 1.6l0.4 3c0 1.1 0.4 1.6 1.6 1.1 0.4 0 0.8-0.1 1.1-0.4s0.4-0.7 0.4-1.1l0.4-0.4 0.4 1.9h-0.4c-1.5 0-2.8 0.3-4.1 0.7 0.2-0.2 0.5-0.3 0.7-0.4v-1.6l-0.7-2.7-1-0.1zm-5 0.7c0.1-0.4-0.1-0.8-0.4-1.1-0.4-0.4-0.4-0.4-0.7-0.4 0.4 0 0.7-0.4 1.1-0.4h0.7c0.8-0.3 1.9 0.1 2.2 0.9 0 0.1 0.1 0.1 0.1 0.2 0 0.8-0.4 1.6-1.1 1.9 0.4 0 0.8 0.1 1.1 0.4 0.4 0.4 0.7 0.7 0.7 1.1 0 0.6-0.3 1.1-0.7 1.6 0.4 0.4-0.4 0.7-0.7 0.7 0 0.4-0.7 0.4-0.7 0.4-0.5 0-1 0.1-1.6 0.4v-0.4s0.7 0 0.7-0.4v-1.1c0.1-0.1-0.7-3.8-0.7-3.8zm-4.9 1.1c0-0.4-0.4-1.1-0.4-1.6 0-0.4-0.4-0.4-0.7 0v-0.4h2.3c0.7 0 1.9 0 2.3 1.1 0.4 0.7 0 1.6-0.7 1.6 0.4 0 0.8 0.1 1.1 0.4 0.4 0.4 0.7 0.7 0.7 1.1 0 0.7 0 1.1-0.7 1.6-0.4 0.3-1 0.4-1.6 0.4h-1.1c-0.7 0-0.7 0.4-1.6 0.4v-0.3c0.4 0 0.7 0 0.7-0.4s-0.4-1.1-0.4-1.6l0.1-2.3zm51.5 0.9l-0.4-2.7-1.1 2.7h1.5zm10.4-0.9v-1.1c-0.2-0.2-0.5-0.3-0.7-0.4v-0.4h2.3v0.4c-0.4 0-0.4 0-0.7 0.4v1.6l0.4 2.7v1.6c0 0.4 0.4 0.4 0.7 0.4h-2.3s0.7 0 0.7-0.4v-1.1l-0.4-3.7zm-6.1-0.3v-1.6c0-0.4-0.4-0.4-0.7-0.4v-0.4c0.4 0 0.7 0.4 1.1 0.4h1.6v0.4s-0.7 0-0.7 0.4c0.1 0.5-0.1 1-0.4 1.6l-0.4 3c0 1.1 0 1.6 0.7 1.6s0.7 0.4 1.1 0 0.7-0.7 0.7-1.1h0.4l-0.3 1.9h-0.4c-1.6-0.4-3-0.4-4.6-0.7 0.4 0 0.7 0 0.7-0.4-0.1-0.4 0.1-0.8 0.4-1.1l0.8-3.6zm-6.6 1.5c-0.1 0.6-0.4 1.1-0.7 1.6-0.4 0.4 0.4 0.4 0.7 0.7h-0.7c-0.3-0.2-0.7-0.3-1.1-0.4 0.4 0 0.7-0.3 0.7-0.7s0.7-1.1 0.7-1.9l1.9-3.8h0.4l0.7 5.3c0 0.4 0 1.1 0.4 1.1s0.4 0.4 0.7 0.4h-1.1c-0.4 0-0.7-0.4-1.1-0.4v-0.4h0.7v-2.4h-2.3l0.1 0.9zm-0.4-3.5c0-0.7 0-1.1-1.1-1.6-1.1-0.4-0.7 0-0.7 0l-0.7 4.6c0 0.7 0 0.7 0.7 1.1v0.4c-0.5 0.1-1-0.1-1.6-0.4h-1.6v-0.4c0.7 0 1.1 0 1.1-0.7l0.7-4.6c-0.2-0.2-0.5-0.3-0.7-0.4-0.7 0-1.1 0-1.6 1.1h-0.4l0.4-1.6 5.4 0.7c0.1 0.2 0.1 1.8 0.1 1.8zm-8-0.7v-1.1c0-0.4-0.4-0.4-0.7-0.4v-0.4c0.4 0 0.7 0.4 1.1 0.4h1.6s-0.7 0-0.7 0.4c0.1 0.4-0.1 0.8-0.4 1.1l-0.4 2.7c0 0.4-0.4 0.7 0 1.1 0 0.4 0.4 0.4 0.7 0.4v0.4c-0.4 0-0.7-0.4-1.1-0.4s-0.8-0.1-1.1-0.4v-0.4c0.4 0 0.7 0 0.7-0.4 0.3-0.3 0.4-0.7 0.4-1.1-0.1 0-0.1-1.9-0.1-1.9zm37.5-4.9l-2.3-1.6 0.7 2.7 1.6-1.1zm-10.7 7.6l-1.9-1.9 0.4 2.7 1.5-0.8zm9.5-5.7c0 0.4 0.4 1.1 0.4 1.6 0.4 0.4 0.7 0 0.7-0.4v0.7c-0.4 0.4-0.4 0.4-0.7 0.4s-0.4 0.4-0.7 0.4v-0.4c0.4-0.4 0.4-0.4 0.4-0.7-0.4-0.7-0.4-1.1-0.7-1.9l-1.1-4.1 4.6 3c0.2 0.2 0.5 0.3 0.7 0.4 0.2 0.2 0.5 0.2 0.7 0v0.4c-0.4 0-0.7 0.3-0.7 0.7-0.4 0.4-0.7 0.4-0.7 0.7l-0.4-0.4c0-0.4 0.4-0.4 0.4-0.7s-0.4-0.4-0.7-0.4l-0.7-0.7-1.9 1.1 0.4 0.3zm-7.7 1.1c-0.2-0.3-0.7-0.4-1-0.1-0.1 0-0.1 0.1-0.1 0.1v-0.4c0.4 0 0.4 0 0.7-0.4 0.4 0 0.4 0 0.7-0.4l6.1 1.9-1.9-2.3c-0.4-0.4-0.7-0.7-0.7-1.1s-0.7 0-1.1 0c0.2-0.2 0.5-0.3 0.7-0.4 0-0.4 0-0.7 0.4-0.7v0.4c0 0.4-0.4 0.4-0.4 0.7s0.7 1.1 1.1 1.6l2.3 3.4v0.4c-0.4 0-0.7 0-0.7-0.4l-6.1-2.3 2 2.6c0.4 0.4 0.7 0.7 0.7 1.1 0.4 0.4 0.7 0 1.1 0 0 0.4-0.4 0.4-0.7 0.7-0.4 0-0.4 0.4-0.7 0.7v-0.4c0.3-0.3 0.4-0.7 0.4-1.1s-0.4-0.7-0.7-1.1l-2.1-2.5zm-3 6.1c-0.1 0.5 0.1 1 0.4 1.6 0 0.4 0.7 0 0.7 0-0.4 0-0.4 0.4-0.7 0.4s-0.4 0.4-0.7 0.4c0.4-0.4 0.4-0.4 0.4-1.1 0.1-0.6 0-1.3-0.4-1.9l-0.7-4.1 3.8 3.4 0.7 0.7h0.7c-0.4 0-0.7 0.4-1.1 0.7-0.4 0-0.7 0.4-1.1 0.7v-0.4c0.4 0 0.7-0.4 0.4-0.7 0-0.4-0.4-0.4-0.7-0.7l-0.7-0.7-1.9 0.7v0.4c0-0.1 0.9 0.6 0.9 0.6z"/>
<path class="st1" d="m14.9 69.9c-0.2-1-0.6-2.1-1.1-3v-0.4l3.4-1.9c-0.4-1.7-0.6-3.2-0.7-5l-3.8-0.8v-6l3.8-0.7c0.1-1.7 0.3-3.3 0.7-5l-1.9-1.1h1.1l1.6 0.7v0.5c-0.4 1.8-0.7 3.5-0.7 5.3v0.4l-3.8 0.7v4.6l3.8 0.7v0.4c0 1.8 0.3 3.5 0.7 5.3v0.4l-3.5 1.9 0.7 2.3-0.3 0.7zm6.9 11.4l1.1 1.1 3.4-1.6h0.4c1.1 1.3 2.5 2.6 3.8 3.8l-1.5 3.9c1 1 2.2 1.9 3.4 2.7l3-2.7h0.4c1.6 1.1 3.2 2 5 2.7h0.4l-0.4 4.1c1.1 0.4 3.4 1.1 4.1 1.6l1.9-3.4h0.4c1.8 0.4 3.5 0.7 5.4 0.8h0.4l0.7 3.8h4.6l0.7-3.8h0.4c1.8-0.1 3.6-0.3 5.4-0.7l1.9 3.4 4.1-1.6-0.4-3.8h0.4c1.8-0.7 3.4-1.7 5-2.7l0.4-0.4 3 2.7 3.8-2.7-1.6-3.8h0.6c1.5-1 2.7-2.4 3.8-3.8v-0.4l3.8 1.9c1-1.2 1.9-2.5 2.7-3.8l-2.7-3v-0.2c0.7-1.6 1.9-3 2.7-5v-0.4l3.8 0.4c0.4-1.1 1.1-3.4 1.6-4.1l-3.4-1.9v-0.4c0.4-1.8 0.7-3.5 0.7-5.3v-0.4l3.8-0.7v-4.6l-3.8-0.7v-0.4c-0.1-1.8-0.3-3.5-0.7-5.3v-0.4l3.4-1.9c-0.4-1.1-1.1-3.4-1.6-4.1l-3.8 0.4v-0.4c-0.6-1.8-1.6-3.4-2.7-5v0.4l2.7-3c-0.7-0.7-1.9-3-2.7-3.7l-3.8 1.6c-1-1.5-2.4-2.7-3.8-3.7l-0.4-0.8 1.6-3.7-3.8-2.7-3 2.7h-0.4c-1.6-0.7-3.4-1.6-5-2.3h-0.4l0.4-3.7c-0.7-0.4-3.4-1.1-4.1-1.6l-1.9 3.4h-0.4c-1.8-0.4-3.5-0.7-5.4-0.7h-0.4l-0.6-3.9h-4.1l-0.7 3.7h-0.5c-1.8 0.1-3.6 0.3-5.4 0.7h-0.4l-2.1-3.4c-0.7 0.4-3.4 1.1-4.1 1.6l0.4 3.7h-0.4l-4.6 2.4h-0.4l-3-2.7c-0.7 0.4-1.1 1.1-1.6 1.6v-1.1l1.6-1.1h0.3l2.7 2.7 4.6-2.3-0.8-4.3h0.4c1.6-0.7 3.2-1.1 5-1.6h0.4l1.9 3.4c1.7-0.4 3.3-0.7 5-0.7l0.7-3.7h5.7l0.7 3.7c1.7 0.1 3.3 0.3 5 0.7l1.9-3.4h0.4c0.7 0.4 4.1 1.1 5 1.6h0.4v3.8l4.7 2.3 3-2.6h0.4c1.2 1.1 2.5 2.1 3.8 3l-1.6 3.7 3.4 3.4 3.8-1.6v0.4c0.4 0.7 2.7 3.4 3 4.1v0.4l-2.7 3 2.3 4.6 3.8-0.4v0.4c0.7 1.6 1.1 3.2 1.6 5v-0.3l-3.4 1.9c0.4 1.7 0.7 3.2 0.7 5l3.8 0.7v6.6l-3.5 0.7c-0.1 1.7-0.3 3.3-0.7 5l3.4 1.9v0.4c-0.3 1.7-0.8 3.3-1.6 5v0.6l-4.1-0.4-2.3 4.6 2.7 3v0.7c-0.4 0.7-2.7 3.4-3 4.1v0.4l-3.7-1.5-3.4 3.4 1.9 3.8h-0.5c-0.7 0.4-3.4 2.7-4.1 3l-0.4 0.4-3.1-3.4-4.6 2.3 0.4 4.1h-0.4l-5 1.6h-0.4l-1.9-3.4c-1.7 0.4-3.3 0.7-5 0.7l-0.7 3.8h-6l-0.7-3.8c-1.6-0.4-3.4-0.4-5-0.7l-1.9 3.4h-0.4c-1.6-0.7-3.2-1.1-5-1.6h-0.4l0.4-4.1-4.6-2.3-3 2.7h0.8c-0.7-0.4-3.4-2.7-4.1-3h-0.4l1.5-3.7-3.5-3.6-4 1.5v-0.4l-0.7-1.6v-0.7z"/>
<path class="st1" d="m56.1 87.7c-4.7-0.1-9.1-1.1-13.4-3h-0.7l14.1-17.4 13.7 17.4-0.7 0.4c-4.1 1.8-8.5 2.6-13 2.6zm-12.5-3.4c7.9 3.4 16.9 3.4 24.8 0l-12.3-15.5-12.5 15.5zm35.8-6.4l-12.6-18.6 20.9-7.6v0.7c1.1 9.1-2 18.4-8.4 25 0 0.1 0.1 0.5 0.1 0.5zm-11.1-18.2l11.1 16.7c5.6-6.4 8.4-14.7 7.6-23.1l-18.7 6.4zm-35.5 18.2l-0.4-0.4c-6.1-6.7-9.1-15.9-8-25v-0.7l20.9 8c0-0.1-12.5 18.1-12.5 18.1zm-7.6-25c-0.8 8.4 2 16.8 7.7 23.1l11.4-16.3-19.1-6.8zm37.4-6l-0.7-22.3h0.7c9 1.9 16.8 7.5 21.4 15.6l0.4 0.4-21.8 6.3zm0.3-20.9l0.7 19.7 19.5-5.3c-4.5-7.3-11.8-12.4-20.2-14.4zm-13.6 20.9l-21.4-6.4 0.4-0.4c4.6-8 12.3-13.5 21.4-15.1h0.7c0-0.1-1.1 21.9-1.1 21.9zm-20-6.9l19.1 5.7 0.8-19.7c-8.3 1.5-15.2 6.8-19.9 14z"/>
<path class="st1" d="m56.1 27.2l-6.8 19.3v0.4h-0.4l-20.6 0.3 16.4 12.4 0.3 0.4v0.4l-5.7 19.3 16.8-11.4 0.4-0.4 0.4 0.4 16.8 11.4-5.7-19.2v-1.1l0.4-0.4 16.4-12.4-20.6-0.6h-0.4v-0.4l-7.7-18.4zm-7.6 18.5l7.3-20.4 0.4-1.1 0.4 1.1 7.3 20.1 21.4 0.4h1.6l-1.1 0.7-17.5 12.8 6.1 20.4 0.4 1.1-1.2-0.7-17.5-12.1-17.5 12.2-1.1 0.7 0.4-1.6 6.1-20.5-17.2-11.9-1.1-0.7h1.1l21.7-0.5z"/>
<path class="st1" d="m18.4 88.1"/>
<path class="st1" d="m16.4 84.7l1.9 3.4-1.9-3.4z"/>
</svg>
