<?xml version="1.0" encoding="windows-1252" standalone="no"?>
<svg xmlns="http://www.w3.org/2000/svg" xmlns:xlink="http://www.w3.org/1999/xlink" contentStyleType="text/css" height="1610px" preserveAspectRatio="none" style="width:1608px;height:1610px;background:#FFFFFF;" version="1.1" viewBox="0 0 1608 1610" width="1608px" zoomAndPan="magnify"><defs/><g><rect fill="#ADD8E6" height="1598.6406" style="stroke:#181818;stroke-width:0.5;" width="496.5" x="336" y="6"/><text fill="#000000" font-family="sans-serif" font-size="13" font-weight="bold" lengthAdjust="spacing" textLength="108" x="530.25" y="18.0669">User's Devices</text><rect fill="#FFFFFF" height="29.1328" style="stroke:#181818;stroke-width:1.0;" width="10" x="33.5" y="875.1563"/><rect fill="#FFFFFF" height="1029.3203" style="stroke:#181818;stroke-width:1.0;" width="10" x="397.5" y="328.3594"/><rect fill="#FFFFFF" height="186.7969" style="stroke:#181818;stroke-width:1.0;" width="10" x="1280.5" y="141.5625"/><rect fill="#FFFFFF" height="409.125" style="stroke:#181818;stroke-width:1.0;" width="10" x="1280.5" y="948.5547"/><rect fill="none" height="159.6641" style="stroke:#000000;stroke-width:1.5;" width="828.5" x="10" y="343.3594"/><rect fill="none" height="132.3359" style="stroke:#000000;stroke-width:1.5;" width="1256.5" x="330" y="559.1563"/><rect fill="none" height="46.2656" style="stroke:#000000;stroke-width:1.5;" width="508.5" x="330" y="1372.6797"/><rect fill="none" height="75.3984" style="stroke:#000000;stroke-width:1.5;" width="623.5" x="726.5" y="1432.9453"/><line style="stroke:#181818;stroke-width:0.5;stroke-dasharray:5.0,5.0;" x1="38" x2="38" y1="81.2969" y2="1525.3438"/><line style="stroke:#181818;stroke-width:0.5;stroke-dasharray:5.0,5.0;" x1="402" x2="402" y1="81.2969" y2="1525.3438"/><line style="stroke:#181818;stroke-width:0.5;stroke-dasharray:5.0,5.0;" x1="782.5" x2="782.5" y1="81.2969" y2="1525.3438"/><line style="stroke:#181818;stroke-width:0.5;stroke-dasharray:5.0,5.0;" x1="1285" x2="1285" y1="81.2969" y2="1525.3438"/><text fill="#000000" font-family="sans-serif" font-size="14" lengthAdjust="spacing" textLength="31" x="20" y="77.9951">User</text><ellipse cx="38.5" cy="13.5" fill="#E2E2F0" rx="8" ry="8" style="stroke:#181818;stroke-width:0.5;"/><path d="M38.5,21.5 L38.5,48.5 M25.5,29.5 L51.5,29.5 M38.5,48.5 L25.5,63.5 M38.5,48.5 L51.5,63.5 " fill="none" style="stroke:#181818;stroke-width:0.5;"/><text fill="#000000" font-family="sans-serif" font-size="14" lengthAdjust="spacing" textLength="31" x="20" y="1537.3389">User</text><ellipse cx="38.5" cy="1549.1406" fill="#E2E2F0" rx="8" ry="8" style="stroke:#181818;stroke-width:0.5;"/><path d="M38.5,1557.1406 L38.5,1584.1406 M25.5,1565.1406 L51.5,1565.1406 M38.5,1584.1406 L25.5,1599.1406 M38.5,1584.1406 L51.5,1599.1406 " fill="none" style="stroke:#181818;stroke-width:0.5;"/><rect fill="#E2E2F0" height="30.2969" rx="2.5" ry="2.5" style="stroke:#181818;stroke-width:0.5;" width="125" x="340" y="50"/><text fill="#000000" font-family="sans-serif" font-size="14" lengthAdjust="spacing" textLength="111" x="347" y="69.9951">Wallet Instance</text><rect fill="#E2E2F0" height="30.2969" rx="2.5" ry="2.5" style="stroke:#181818;stroke-width:0.5;" width="125" x="340" y="1524.3438"/><text fill="#000000" font-family="sans-serif" font-size="14" lengthAdjust="spacing" textLength="111" x="347" y="1544.3389">Wallet Instance</text><rect fill="#E2E2F0" height="30.2969" rx="2.5" ry="2.5" style="stroke:#181818;stroke-width:0.5;" width="92" x="736.5" y="50"/><text fill="#000000" font-family="sans-serif" font-size="14" lengthAdjust="spacing" textLength="78" x="743.5" y="69.9951">user-agent</text><rect fill="#E2E2F0" height="30.2969" rx="2.5" ry="2.5" style="stroke:#181818;stroke-width:0.5;" width="92" x="736.5" y="1524.3438"/><text fill="#000000" font-family="sans-serif" font-size="14" lengthAdjust="spacing" textLength="78" x="743.5" y="1544.3389">user-agent</text><rect fill="#E2E2F0" height="30.2969" rx="2.5" ry="2.5" style="stroke:#181818;stroke-width:0.5;" width="109" x="1231" y="50"/><text fill="#000000" font-family="sans-serif" font-size="14" lengthAdjust="spacing" textLength="95" x="1238" y="69.9951">Relying Party</text><rect fill="#E2E2F0" height="30.2969" rx="2.5" ry="2.5" style="stroke:#181818;stroke-width:0.5;" width="109" x="1231" y="1524.3438"/><text fill="#000000" font-family="sans-serif" font-size="14" lengthAdjust="spacing" textLength="95" x="1238" y="1544.3389">Relying Party</text><rect fill="#FFFFFF" height="29.1328" style="stroke:#181818;stroke-width:1.0;" width="10" x="33.5" y="875.1563"/><rect fill="#FFFFFF" height="1029.3203" style="stroke:#181818;stroke-width:1.0;" width="10" x="397.5" y="328.3594"/><rect fill="#FFFFFF" height="186.7969" style="stroke:#181818;stroke-width:1.0;" width="10" x="1280.5" y="141.5625"/><rect fill="#FFFFFF" height="409.125" style="stroke:#181818;stroke-width:1.0;" width="10" x="1280.5" y="948.5547"/><polygon fill="#181818" points="770.5,108.4297,780.5,112.4297,770.5,116.4297,774.5,112.4297" style="stroke:#181818;stroke-width:1.0;"/><line style="stroke:#181818;stroke-width:1.0;" x1="38.5" x2="776.5" y1="112.4297" y2="112.4297"/><text fill="#000000" font-family="sans-serif" font-size="13" font-weight="bold" lengthAdjust="spacing" textLength="9" x="45.5" y="107.3638">1</text><text fill="#000000" font-family="sans-serif" font-size="13" lengthAdjust="spacing" textLength="151" x="58.5" y="107.3638">Web Service navigation</text><polygon fill="#181818" points="1268.5,137.5625,1278.5,141.5625,1268.5,145.5625,1272.5,141.5625" style="stroke:#181818;stroke-width:1.0;"/><line style="stroke:#181818;stroke-width:1.0;" x1="782.5" x2="1274.5" y1="141.5625" y2="141.5625"/><text fill="#000000" font-family="sans-serif" font-size="13" font-weight="bold" lengthAdjust="spacing" textLength="9" x="789.5" y="136.4966">2</text><text fill="#000000" font-family="sans-serif" font-size="13" lengthAdjust="spacing" textLength="183" x="802.5" y="136.4966">Request Protected Resource</text><rect fill="#EEEEEE" height="3" style="stroke:#EEEEEE;stroke-width:1.0;" width="1601.5" x="0" y="170.1289"/><line style="stroke:#000000;stroke-width:1.0;" x1="0" x2="1601.5" y1="170.1289" y2="170.1289"/><line style="stroke:#000000;stroke-width:1.0;" x1="0" x2="1601.5" y1="173.1289" y2="173.1289"/><rect fill="#EEEEEE" height="23.1328" style="stroke:#000000;stroke-width:2.0;" width="339" x="631.25" y="159.5625"/><text fill="#000000" font-family="sans-serif" font-size="13" font-weight="bold" lengthAdjust="spacing" textLength="320" x="637.25" y="175.6294">User Authentication (Presentation Phase)</text><line style="stroke:#181818;stroke-width:1.0;" x1="1290.5" x2="1332.5" y1="228.9609" y2="228.9609"/><line style="stroke:#181818;stroke-width:1.0;" x1="1332.5" x2="1332.5" y1="228.9609" y2="241.9609"/><line style="stroke:#181818;stroke-width:1.0;" x1="1291.5" x2="1332.5" y1="241.9609" y2="241.9609"/><polygon fill="#181818" points="1301.5,237.9609,1291.5,241.9609,1301.5,245.9609,1297.5,241.9609" style="stroke:#181818;stroke-width:1.0;"/><text fill="#000000" font-family="sans-serif" font-size="13" font-weight="bold" lengthAdjust="spacing" textLength="8" x="1297.5" y="216.3286">3</text><text fill="#000000" font-family="sans-serif" font-size="13" lengthAdjust="spacing" textLength="55" x="1309.5" y="208.7622">Create a</text><text fill="#000000" font-family="sans-serif" font-size="13" font-weight="bold" lengthAdjust="spacing" textLength="42" x="1368.5" y="208.7622">state</text><text fill="#000000" font-family="sans-serif" font-size="13" lengthAdjust="spacing" textLength="35" x="1414.5" y="208.7622">value</text><text fill="#000000" font-family="sans-serif" font-size="13" lengthAdjust="spacing" textLength="176" x="1309.5" y="223.895">bound to user-agent cookie</text><line style="stroke:#181818;stroke-width:1.0;" x1="1290.5" x2="1332.5" y1="271.0938" y2="271.0938"/><line style="stroke:#181818;stroke-width:1.0;" x1="1332.5" x2="1332.5" y1="271.0938" y2="284.0938"/><line style="stroke:#181818;stroke-width:1.0;" x1="1291.5" x2="1332.5" y1="284.0938" y2="284.0938"/><polygon fill="#181818" points="1301.5,280.0938,1291.5,284.0938,1301.5,288.0938,1297.5,284.0938" style="stroke:#181818;stroke-width:1.0;"/><text fill="#000000" font-family="sans-serif" font-size="13" font-weight="bold" lengthAdjust="spacing" textLength="9" x="1297.5" y="266.0278">4</text><text fill="#000000" font-family="sans-serif" font-size="13" lengthAdjust="spacing" textLength="179" x="1310.5" y="266.0278">Create request_uri resource</text><polygon fill="#181818" points="793.5,324.3594,783.5,328.3594,793.5,332.3594,789.5,328.3594" style="stroke:#181818;stroke-width:1.0;"/><line style="stroke:#181818;stroke-width:1.0;" x1="787.5" x2="1284.5" y1="328.3594" y2="328.3594"/><text fill="#000000" font-family="sans-serif" font-size="13" font-weight="bold" lengthAdjust="spacing" textLength="9" x="799.5" y="315.7271">5</text><text fill="#000000" font-family="sans-serif" font-size="13" lengthAdjust="spacing" textLength="238" x="812.5" y="308.1606">QRCode OR HTTP Redirect (302) with</text><text fill="#000000" font-family="sans-serif" font-size="13" lengthAdjust="spacing" textLength="444" x="812.5" y="323.2935">client_id, request_uri, state, [request_method_uri] [client_id_scheme]</text><path d="M10,343.3594 L188,343.3594 L188,350.4922 L178,360.4922 L10,360.4922 L10,343.3594 " fill="#EEEEEE" style="stroke:#000000;stroke-width:1.5;"/><rect fill="none" height="159.6641" style="stroke:#000000;stroke-width:1.5;" width="828.5" x="10" y="343.3594"/><text fill="#000000" font-family="sans-serif" font-size="13" font-weight="bold" lengthAdjust="spacing" textLength="133" x="25" y="356.4263">Cross Device only</text><polygon fill="#181818" points="49.5,377.625,39.5,381.625,49.5,385.625,45.5,381.625" style="stroke:#181818;stroke-width:1.0;"/><line style="stroke:#181818;stroke-width:1.0;" x1="43.5" x2="781.5" y1="381.625" y2="381.625"/><text fill="#000000" font-family="sans-serif" font-size="13" font-weight="bold" lengthAdjust="spacing" textLength="9" x="55.5" y="376.5591">6</text><text fill="#000000" font-family="sans-serif" font-size="13" lengthAdjust="spacing" textLength="152" x="68.5" y="376.5591">Show the QRCode page</text><polygon fill="#181818" points="385.5,406.7578,395.5,410.7578,385.5,414.7578,389.5,410.7578" style="stroke:#181818;stroke-width:1.0;"/><line style="stroke:#181818;stroke-width:1.0;stroke-dasharray:2.0,2.0;" x1="38.5" x2="391.5" y1="410.7578" y2="410.7578"/><text fill="#000000" font-family="sans-serif" font-size="13" font-weight="bold" lengthAdjust="spacing" textLength="9" x="45.5" y="405.6919">7</text><text fill="#000000" font-family="sans-serif" font-size="13" lengthAdjust="spacing" textLength="322" x="58.5" y="405.6919">Open the Wallet Instance app, local authentication</text><line style="stroke:#181818;stroke-width:1.0;" x1="407.5" x2="449.5" y1="439.8906" y2="439.8906"/><line style="stroke:#181818;stroke-width:1.0;" x1="449.5" x2="449.5" y1="439.8906" y2="452.8906"/><line style="stroke:#181818;stroke-width:1.0;" x1="408.5" x2="449.5" y1="452.8906" y2="452.8906"/><polygon fill="#181818" points="418.5,448.8906,408.5,452.8906,418.5,456.8906,414.5,452.8906" style="stroke:#181818;stroke-width:1.0;"/><text fill="#000000" font-family="sans-serif" font-size="13" font-weight="bold" lengthAdjust="spacing" textLength="9" x="414.5" y="434.8247">8</text><text fill="#000000" font-family="sans-serif" font-size="13" lengthAdjust="spacing" textLength="91" x="427.5" y="434.8247">Scan QR Code</text><line style="stroke:#181818;stroke-width:1.0;" x1="407.5" x2="449.5" y1="482.0234" y2="482.0234"/><line style="stroke:#181818;stroke-width:1.0;" x1="449.5" x2="449.5" y1="482.0234" y2="495.0234"/><line style="stroke:#181818;stroke-width:1.0;" x1="408.5" x2="449.5" y1="495.0234" y2="495.0234"/><polygon fill="#181818" points="418.5,491.0234,408.5,495.0234,418.5,499.0234,414.5,495.0234" style="stroke:#181818;stroke-width:1.0;"/><text fill="#000000" font-family="sans-serif" font-size="13" font-weight="bold" lengthAdjust="spacing" textLength="9" x="414.5" y="476.9575">9</text><text fill="#000000" font-family="sans-serif" font-size="13" lengthAdjust="spacing" textLength="270" x="427.5" y="476.9575">Extract the parameters from the QR Code</text><line style="stroke:#181818;stroke-width:1.0;" x1="407.5" x2="449.5" y1="531.1563" y2="531.1563"/><line style="stroke:#181818;stroke-width:1.0;" x1="449.5" x2="449.5" y1="531.1563" y2="544.1563"/><line style="stroke:#181818;stroke-width:1.0;" x1="408.5" x2="449.5" y1="544.1563" y2="544.1563"/><polygon fill="#181818" points="418.5,540.1563,408.5,544.1563,418.5,548.1563,414.5,544.1563" style="stroke:#181818;stroke-width:1.0;"/><text fill="#000000" font-family="sans-serif" font-size="13" font-weight="bold" lengthAdjust="spacing" textLength="19" x="414.5" y="526.0903">10</text><text fill="#000000" font-family="sans-serif" font-size="13" lengthAdjust="spacing" textLength="333" x="437.5" y="526.0903">evaluates trust with the client_id [client_id_scheme]</text><path d="M330,559.1563 L396,559.1563 L396,566.2891 L386,576.2891 L330,576.2891 L330,559.1563 " fill="#EEEEEE" style="stroke:#000000;stroke-width:1.5;"/><rect fill="none" height="132.3359" style="stroke:#000000;stroke-width:1.5;" width="1256.5" x="330" y="559.1563"/><text fill="#000000" font-family="sans-serif" font-size="13" font-weight="bold" lengthAdjust="spacing" textLength="21" x="345" y="572.2231">alt</text><text fill="#000000" font-family="sans-serif" font-size="11" font-weight="bold" lengthAdjust="spacing" textLength="273" x="411" y="571.3667">[if request_uri_method is set with POST]</text><polygon fill="#181818" points="1273.5,593.4219,1283.5,597.4219,1273.5,601.4219,1277.5,597.4219" style="stroke:#181818;stroke-width:1.0;"/><line style="stroke:#181818;stroke-width:1.0;" x1="407.5" x2="1279.5" y1="597.4219" y2="597.4219"/><text fill="#000000" font-family="sans-serif" font-size="13" font-weight="bold" lengthAdjust="spacing" textLength="18" x="414.5" y="592.356">11</text><text fill="#000000" font-family="sans-serif" font-size="13" lengthAdjust="spacing" textLength="344" x="436.5" y="592.356">provides Wallet metadata to the request_uri endpoint</text><line style="stroke:#181818;stroke-width:1.0;" x1="1285.5" x2="1327.5" y1="626.5547" y2="626.5547"/><line style="stroke:#181818;stroke-width:1.0;" x1="1327.5" x2="1327.5" y1="626.5547" y2="639.5547"/><line style="stroke:#181818;stroke-width:1.0;" x1="1286.5" x2="1327.5" y1="639.5547" y2="639.5547"/><polygon fill="#181818" points="1296.5,635.5547,1286.5,639.5547,1296.5,643.5547,1292.5,639.5547" style="stroke:#181818;stroke-width:1.0;"/><text fill="#000000" font-family="sans-serif" font-size="13" font-weight="bold" lengthAdjust="spacing" textLength="18" x="1292.5" y="621.4888">12</text><text fill="#000000" font-family="sans-serif" font-size="13" lengthAdjust="spacing" textLength="260" x="1314.5" y="621.4888">evaluates the Wallet tecnical capabilities</text><line style="stroke:#000000;stroke-width:1.0;stroke-dasharray:2.0,2.0;" x1="330" x2="1586.5" y1="648.5547" y2="648.5547"/><text fill="#000000" font-family="sans-serif" font-size="11" font-weight="bold" lengthAdjust="spacing" textLength="366" x="335" y="658.7651">[if request_uri_method is set with GET or not present]</text><polygon fill="#181818" points="1273.5,679.4922,1283.5,683.4922,1273.5,687.4922,1277.5,683.4922" style="stroke:#181818;stroke-width:1.0;"/><line style="stroke:#181818;stroke-width:1.0;" x1="407.5" x2="1279.5" y1="683.4922" y2="683.4922"/><text fill="#000000" font-family="sans-serif" font-size="13" font-weight="bold" lengthAdjust="spacing" textLength="17" x="414.5" y="678.4263">13</text><text fill="#000000" font-family="sans-serif" font-size="13" lengthAdjust="spacing" textLength="419" x="435.5" y="678.4263">requests the signed request object from the request_uri endpoint</text><polygon fill="#181818" points="418.5,715.625,408.5,719.625,418.5,723.625,414.5,719.625" style="stroke:#181818;stroke-width:1.0;"/><line style="stroke:#181818;stroke-width:1.0;stroke-dasharray:2.0,2.0;" x1="412.5" x2="1284.5" y1="719.625" y2="719.625"/><text fill="#000000" font-family="sans-serif" font-size="13" font-weight="bold" lengthAdjust="spacing" textLength="18" x="424.5" y="714.5591">14</text><text fill="#000000" font-family="sans-serif" font-size="13" lengthAdjust="spacing" textLength="138" x="446.5" y="714.5591">signed request object</text><line style="stroke:#181818;stroke-width:1.0;" x1="407.5" x2="449.5" y1="748.7578" y2="748.7578"/><line style="stroke:#181818;stroke-width:1.0;" x1="449.5" x2="449.5" y1="748.7578" y2="761.7578"/><line style="stroke:#181818;stroke-width:1.0;" x1="408.5" x2="449.5" y1="761.7578" y2="761.7578"/><polygon fill="#181818" points="418.5,757.7578,408.5,761.7578,418.5,765.7578,414.5,761.7578" style="stroke:#181818;stroke-width:1.0;"/><text fill="#000000" font-family="sans-serif" font-size="13" font-weight="bold" lengthAdjust="spacing" textLength="18" x="414.5" y="743.6919">15</text><text fill="#000000" font-family="sans-serif" font-size="13" lengthAdjust="spacing" textLength="295" x="436.5" y="743.6919">evaluates Relying Party Metadata and policies</text><line style="stroke:#181818;stroke-width:1.0;" x1="407.5" x2="449.5" y1="790.8906" y2="790.8906"/><line style="stroke:#181818;stroke-width:1.0;" x1="449.5" x2="449.5" y1="790.8906" y2="803.8906"/><line style="stroke:#181818;stroke-width:1.0;" x1="408.5" x2="449.5" y1="803.8906" y2="803.8906"/><polygon fill="#181818" points="418.5,799.8906,408.5,803.8906,418.5,807.8906,414.5,803.8906" style="stroke:#181818;stroke-width:1.0;"/><text fill="#000000" font-family="sans-serif" font-size="13" font-weight="bold" lengthAdjust="spacing" textLength="18" x="414.5" y="785.8247">16</text><text fill="#000000" font-family="sans-serif" font-size="13" lengthAdjust="spacing" textLength="292" x="436.5" y="785.8247">Verify signature of the signed Request Object</text><line style="stroke:#181818;stroke-width:1.0;" x1="407.5" x2="449.5" y1="833.0234" y2="833.0234"/><line style="stroke:#181818;stroke-width:1.0;" x1="449.5" x2="449.5" y1="833.0234" y2="846.0234"/><line style="stroke:#181818;stroke-width:1.0;" x1="408.5" x2="449.5" y1="846.0234" y2="846.0234"/><polygon fill="#181818" points="418.5,842.0234,408.5,846.0234,418.5,850.0234,414.5,846.0234" style="stroke:#181818;stroke-width:1.0;"/><text fill="#000000" font-family="sans-serif" font-size="13" font-weight="bold" lengthAdjust="spacing" textLength="18" x="414.5" y="827.9575">17</text><text fill="#000000" font-family="sans-serif" font-size="13" lengthAdjust="spacing" textLength="163" x="436.5" y="827.9575">Validate Requested VP(s)</text><polygon fill="#181818" points="54.5,871.1563,44.5,875.1563,54.5,879.1563,50.5,875.1563" style="stroke:#181818;stroke-width:1.0;"/><line style="stroke:#181818;stroke-width:1.0;" x1="48.5" x2="396.5" y1="875.1563" y2="875.1563"/><text fill="#000000" font-family="sans-serif" font-size="13" font-weight="bold" lengthAdjust="spacing" textLength="18" x="60.5" y="870.0903">18</text><text fill="#000000" font-family="sans-serif" font-size="13" lengthAdjust="spacing" textLength="130" x="82.5" y="870.0903">Request for consent</text><polygon fill="#181818" points="385.5,900.2891,395.5,904.2891,385.5,908.2891,389.5,904.2891" style="stroke:#181818;stroke-width:1.0;"/><line style="stroke:#181818;stroke-width:1.0;stroke-dasharray:2.0,2.0;" x1="38.5" x2="391.5" y1="904.2891" y2="904.2891"/><text fill="#000000" font-family="sans-serif" font-size="13" font-weight="bold" lengthAdjust="spacing" textLength="18" x="45.5" y="899.2231">19</text><text fill="#000000" font-family="sans-serif" font-size="13" lengthAdjust="spacing" textLength="67" x="67.5" y="899.2231">Confirmed</text><polygon fill="#181818" points="1268.5,944.5547,1278.5,948.5547,1268.5,952.5547,1272.5,948.5547" style="stroke:#181818;stroke-width:1.0;"/><line style="stroke:#181818;stroke-width:1.0;" x1="407.5" x2="1274.5" y1="948.5547" y2="948.5547"/><text fill="#000000" font-family="sans-serif" font-size="13" font-weight="bold" lengthAdjust="spacing" textLength="19" x="414.5" y="935.9224">20</text><text fill="#000000" font-family="sans-serif" font-size="13" lengthAdjust="spacing" textLength="190" x="437.5" y="928.356">POST Authorization Response</text><text fill="#000000" font-family="sans-serif" font-size="13" lengthAdjust="spacing" textLength="90" x="441.5" y="943.4888">with vp_token</text><line style="stroke:#181818;stroke-width:1.0;" x1="1290.5" x2="1332.5" y1="977.6875" y2="977.6875"/><line style="stroke:#181818;stroke-width:1.0;" x1="1332.5" x2="1332.5" y1="977.6875" y2="990.6875"/><line style="stroke:#181818;stroke-width:1.0;" x1="1291.5" x2="1332.5" y1="990.6875" y2="990.6875"/><polygon fill="#181818" points="1301.5,986.6875,1291.5,990.6875,1301.5,994.6875,1297.5,990.6875" style="stroke:#181818;stroke-width:1.0;"/><text fill="#000000" font-family="sans-serif" font-size="13" font-weight="bold" lengthAdjust="spacing" textLength="18" x="1297.5" y="972.6216">21</text><text fill="#000000" font-family="sans-serif" font-size="13" lengthAdjust="spacing" textLength="270" x="1319.5" y="972.6216">Evaluate the Verifiable Presentation token</text><line style="stroke:#181818;stroke-width:1.0;" x1="1290.5" x2="1332.5" y1="1065.2188" y2="1065.2188"/><line style="stroke:#181818;stroke-width:1.0;" x1="1332.5" x2="1332.5" y1="1065.2188" y2="1078.2188"/><line style="stroke:#181818;stroke-width:1.0;" x1="1291.5" x2="1332.5" y1="1078.2188" y2="1078.2188"/><polygon fill="#181818" points="1301.5,1074.2188,1291.5,1078.2188,1301.5,1082.2188,1297.5,1078.2188" style="stroke:#181818;stroke-width:1.0;"/><text fill="#000000" font-family="sans-serif" font-size="13" font-weight="bold" lengthAdjust="spacing" textLength="18" x="1297.5" y="1037.4536">22</text><text fill="#000000" font-family="sans-serif" font-size="13" lengthAdjust="spacing" textLength="200" x="1319.5" y="1014.7544">Validate the Wallet Attestation.</text><text fill="#000000" font-family="sans-serif" font-size="13" lengthAdjust="spacing" textLength="165" x="1319.5" y="1029.8872">Attest the Wallet Provider</text><text fill="#000000" font-family="sans-serif" font-size="13" lengthAdjust="spacing" textLength="154" x="1323.5" y="1045.02">is part of the Federation</text><text fill="#000000" font-family="sans-serif" font-size="13" lengthAdjust="spacing" textLength="250" x="1323.5" y="1060.1528">and the Wallet Instance is not revoked.</text><line style="stroke:#181818;stroke-width:1.0;" x1="1290.5" x2="1332.5" y1="1122.4844" y2="1122.4844"/><line style="stroke:#181818;stroke-width:1.0;" x1="1332.5" x2="1332.5" y1="1122.4844" y2="1135.4844"/><line style="stroke:#181818;stroke-width:1.0;" x1="1291.5" x2="1332.5" y1="1135.4844" y2="1135.4844"/><polygon fill="#181818" points="1301.5,1131.4844,1291.5,1135.4844,1301.5,1139.4844,1297.5,1135.4844" style="stroke:#181818;stroke-width:1.0;"/><text fill="#000000" font-family="sans-serif" font-size="13" font-weight="bold" lengthAdjust="spacing" textLength="17" x="1297.5" y="1109.8521">23</text><text fill="#000000" font-family="sans-serif" font-size="13" lengthAdjust="spacing" textLength="187" x="1318.5" y="1102.2856">Attest Credential Issuer Trust</text><text fill="#000000" font-family="sans-serif" font-size="13" lengthAdjust="spacing" textLength="174" x="1322.5" y="1117.4185">and Validate JWT Signature</text><line style="stroke:#181818;stroke-width:1.0;" x1="1290.5" x2="1332.5" y1="1164.6172" y2="1164.6172"/><line style="stroke:#181818;stroke-width:1.0;" x1="1332.5" x2="1332.5" y1="1164.6172" y2="1177.6172"/><line style="stroke:#181818;stroke-width:1.0;" x1="1291.5" x2="1332.5" y1="1177.6172" y2="1177.6172"/><polygon fill="#181818" points="1301.5,1173.6172,1291.5,1177.6172,1301.5,1181.6172,1297.5,1177.6172" style="stroke:#181818;stroke-width:1.0;"/><text fill="#000000" font-family="sans-serif" font-size="13" font-weight="bold" lengthAdjust="spacing" textLength="18" x="1297.5" y="1159.5513">24</text><text fill="#000000" font-family="sans-serif" font-size="13" lengthAdjust="spacing" textLength="142" x="1319.5" y="1159.5513">Process the credential</text><rect fill="#90EE90" height="83" style="stroke:#181818;stroke-width:0.5;" width="525" x="1023" y="1190.6172"/><text fill="#000000" font-family="sans-serif" font-size="13" lengthAdjust="spacing" textLength="147" x="1027" y="1206.6841">Process the credential:</text><text fill="#000000" font-family="sans-serif" font-size="13" lengthAdjust="spacing" textLength="325" x="1031" y="1221.8169">Check Holder Key Binding and Proof of Possession:</text><text fill="#000000" font-family="sans-serif" font-size="13" lengthAdjust="spacing" textLength="437" x="1031" y="1236.9497">- using the public key bound in the Credential to verify the VP token.</text><text fill="#000000" font-family="sans-serif" font-size="13" lengthAdjust="spacing" textLength="4" x="1027" y="1252.0825"> </text><text fill="#000000" font-family="sans-serif" font-size="13" lengthAdjust="spacing" textLength="513" x="1031" y="1267.2153">Then Extract the disclosed attributes: check if all the required data are available</text><line style="stroke:#181818;stroke-width:1.0;" x1="1290.5" x2="1332.5" y1="1300.4141" y2="1300.4141"/><line style="stroke:#181818;stroke-width:1.0;" x1="1332.5" x2="1332.5" y1="1300.4141" y2="1313.4141"/><line style="stroke:#181818;stroke-width:1.0;" x1="1291.5" x2="1332.5" y1="1313.4141" y2="1313.4141"/><polygon fill="#181818" points="1301.5,1309.4141,1291.5,1313.4141,1301.5,1317.4141,1297.5,1313.4141" style="stroke:#181818;stroke-width:1.0;"/><text fill="#000000" font-family="sans-serif" font-size="13" font-weight="bold" lengthAdjust="spacing" textLength="18" x="1297.5" y="1295.3481">25</text><text fill="#000000" font-family="sans-serif" font-size="13" lengthAdjust="spacing" textLength="268" x="1319.5" y="1295.3481">Update the User session (cookie updated)</text><polygon fill="#181818" points="413.5,1353.6797,403.5,1357.6797,413.5,1361.6797,409.5,1357.6797" style="stroke:#181818;stroke-width:1.0;"/><line style="stroke:#181818;stroke-width:1.0;stroke-dasharray:2.0,2.0;" x1="407.5" x2="1284.5" y1="1357.6797" y2="1357.6797"/><text fill="#000000" font-family="sans-serif" font-size="13" font-weight="bold" lengthAdjust="spacing" textLength="18" x="419.5" y="1345.0474">26</text><text fill="#000000" font-family="sans-serif" font-size="13" lengthAdjust="spacing" textLength="107" x="441.5" y="1337.481">HTTP/1.1 200 OK</text><text fill="#000000" font-family="sans-serif" font-size="13" lengthAdjust="spacing" textLength="298" x="445.5" y="1352.6138">{"redirect_uri": https url with response_code }</text><path d="M330,1372.6797 L506,1372.6797 L506,1379.8125 L496,1389.8125 L330,1389.8125 L330,1372.6797 " fill="#EEEEEE" style="stroke:#000000;stroke-width:1.5;"/><rect fill="none" height="46.2656" style="stroke:#000000;stroke-width:1.5;" width="508.5" x="330" y="1372.6797"/><text fill="#000000" font-family="sans-serif" font-size="13" font-weight="bold" lengthAdjust="spacing" textLength="131" x="345" y="1385.7466">Same Device only</text><polygon fill="#181818" points="770.5,1406.9453,780.5,1410.9453,770.5,1414.9453,774.5,1410.9453" style="stroke:#181818;stroke-width:1.0;"/><line style="stroke:#181818;stroke-width:1.0;" x1="402.5" x2="776.5" y1="1410.9453" y2="1410.9453"/><text fill="#000000" font-family="sans-serif" font-size="13" font-weight="bold" lengthAdjust="spacing" textLength="18" x="409.5" y="1405.8794">27</text><text fill="#000000" font-family="sans-serif" font-size="13" lengthAdjust="spacing" textLength="125" x="431.5" y="1405.8794">Use the redirect_uri</text><path d="M726.5,1432.9453 L904.5,1432.9453 L904.5,1440.0781 L894.5,1450.0781 L726.5,1450.0781 L726.5,1432.9453 " fill="#EEEEEE" style="stroke:#000000;stroke-width:1.5;"/><rect fill="none" height="75.3984" style="stroke:#000000;stroke-width:1.5;" width="623.5" x="726.5" y="1432.9453"/><text fill="#000000" font-family="sans-serif" font-size="13" font-weight="bold" lengthAdjust="spacing" textLength="133" x="741.5" y="1446.0122">Cross Device only</text><polygon fill="#181818" points="1273.5,1467.2109,1283.5,1471.2109,1273.5,1475.2109,1277.5,1471.2109" style="stroke:#181818;stroke-width:1.0;"/><line style="stroke:#181818;stroke-width:1.0;" x1="782.5" x2="1279.5" y1="1471.2109" y2="1471.2109"/><text fill="#000000" font-family="sans-serif" font-size="13" font-weight="bold" lengthAdjust="spacing" textLength="18" x="789.5" y="1466.145">28</text><text fill="#000000" font-family="sans-serif" font-size="13" lengthAdjust="spacing" textLength="425" x="811.5" y="1466.145">QRCode JS: Check authentication state (HTTP request with cookie)</text><polygon fill="#181818" points="793.5,1496.3438,783.5,1500.3438,793.5,1504.3438,789.5,1500.3438" style="stroke:#181818;stroke-width:1.0;"/><line style="stroke:#181818;stroke-width:1.0;stroke-dasharray:2.0,2.0;" x1="787.5" x2="1284.5" y1="1500.3438" y2="1500.3438"/><text fill="#000000" font-family="sans-serif" font-size="13" font-weight="bold" lengthAdjust="spacing" textLength="18" x="799.5" y="1495.2778">29</text><text fill="#000000" font-family="sans-serif" font-size="13" lengthAdjust="spacing" textLength="457" x="821.5" y="1495.2778">Authentication state given with HTTP codes, untill expired or successful</text><!--SRC=[ZLLDKnj74BtFh-YI3m4A27PkgY9Lc130TeACP7CmBcgqsv8cB3ER-LX1NFdlUJEpkrgvb5Ge7TYPxfxtkbzto-2D3azpjaA8iy8RIwDFZks8fACWnDmyvuCV7Ft2ZIhOZUZL1xLS-RTLO55BwrMXQgazZUvaLR6dQ-syr0Md6Ejjau1GHtB9skSNf61T4bxPDhlbwaNf9Krm-98i6nOYqD7FS1dJ7SzfoZR28IqRjPHU6Is2Z0ODZ-cM_mpiF4siyLnuBd7YJB05efoUKYH4Py6lW4CLoPds9fOTllFNP2KTxzFfgP25Lutq714qt3rmRZcUIJeu05dF1mVKI2JaNizD02DlQ4EL2cCUrGvtcs4-1AlmVmimMqMQ7s_FJSbqSqjNiza454fbmORsVZfviqzhvLVtkgWKNdXGvU4msY4bL8VqfJjyOhyoPRpxIbzwfmTNhFY9lugIXpp5XlLQYAKreGPaupeDaD7LIvlkCARfogm9oUm0rs0TYuNRzPXkQjRfzZjvaAphGwfC8IkIMxKGQygkqq9g1AKOjJ-yUFOMy598Y4Q26Lj72skUMX3P7i8IlHF7we2F8sy3X16JbwpxLEpAYf2L9xKOPhPD92b7ZjiuavlfJ13-rbrzQsiQLUArbZESP2czZBg8hmuB3vorKTgd21k9311lSWSnQnKJLiXQpbMbl68dk7ByFs1UNim8_QsD1xwaTJ74t7hdzvnQQdHDUqPc_aSKNf_ZdVXJmYE1dFAT8SIkacnrE_tMvKgYZsfJOIY0O-VrcQrQlAJWqWSBAIw6WBl6lyclzLwoKcMKStiFoy-JFRUV3S9cO2oGeCBeb9o-1y96pET6BvHzudBOCK7qIOnII9F5MFLN7YMOF7MCIFSwrw6f7xnvPFqle-MYpKkYbUWgEQ-OjkPJ3h1nwWaEn7BcaTniVup7y-VGO99LQW4CEea3kClchupZv8cxM8TT_GkVg2NB3S2KnmCqxLEOScNiQkZrshc0cJkBpTU6x26_kvlHjAld80hWOTraFHPzA24iNaNT6yI3yQiFrvTNiylRYulVnMwFiQ3p5HUFT6KgqABt_49lbIwZv28GU84sVXDCEBY3DLoECC2ZHHepOGuPqYCSytXNUQ8D2AAncopDLBP9hj2n43J3PDiQMgLoHMKSD2YzjseUaAmn5GaYkXXPxdiCyxwat0oGkcoagg8MOgkbB8X1kZxLlG3IVckfq5xUFXJIVRbFWnwDU-N7ryUlwSt92TsyHsM-ZMoxPc9pZyQqyhx6ehPL5gzjrVnGn4d_zx0DrjzlaRmuffZGMtjZtUqtm6oPRbxCK-I_LqvaswwQTzDnMzpj5PBt7-sbnTcDe4GWPsE_IqB4SRRBTQaQRXis1ObytI45sA50_5odsc1Sk514qIr25R7_0m00]--></g></svg>