<?xml version="1.0" encoding="us-ascii" standalone="no"?><svg xmlns="http://www.w3.org/2000/svg" xmlns:xlink="http://www.w3.org/1999/xlink" contentStyleType="text/css" height="590px" preserveAspectRatio="none" style="width:1061px;height:590px;background:#FFFFFF;" version="1.1" viewBox="0 0 1061 590" width="1061px" zoomAndPan="magnify"><defs/><g><line style="stroke:#181818;stroke-width:0.5;stroke-dasharray:5.0,5.0;" x1="27.5" x2="27.5" y1="36.2969" y2="554.2891"/><line style="stroke:#181818;stroke-width:0.5;stroke-dasharray:5.0,5.0;" x1="275.5" x2="275.5" y1="36.2969" y2="554.2891"/><line style="stroke:#181818;stroke-width:0.5;stroke-dasharray:5.0,5.0;" x1="740.5" x2="740.5" y1="36.2969" y2="554.2891"/><rect fill="#FFFFFF" height="231.7969" style="stroke:#181818;stroke-width:1.0;" width="10" x="735.5" y="273.2266"/><rect fill="#E2E2F0" height="30.2969" rx="2.5" ry="2.5" style="stroke:#181818;stroke-width:0.5;" width="45" x="5" y="5"/><text fill="#000000" font-family="sans-serif" font-size="14" lengthAdjust="spacing" textLength="31" x="12" y="24.9951">User</text><rect fill="#E2E2F0" height="30.2969" rx="2.5" ry="2.5" style="stroke:#181818;stroke-width:0.5;" width="125" x="213" y="5"/><text fill="#000000" font-family="sans-serif" font-size="14" lengthAdjust="spacing" textLength="111" x="220" y="24.9951">Wallet Instance</text><rect fill="#E2E2F0" height="30.2969" rx="2.5" ry="2.5" style="stroke:#181818;stroke-width:0.5;" width="126" x="677.5" y="5"/><text fill="#000000" font-family="sans-serif" font-size="14" lengthAdjust="spacing" textLength="112" x="684.5" y="24.9951">Wallet backend</text><rect fill="#E2E2F0" height="30.2969" rx="2.5" ry="2.5" style="stroke:#181818;stroke-width:0.5;" width="45" x="5" y="554.2891"/><text fill="#000000" font-family="sans-serif" font-size="14" lengthAdjust="spacing" textLength="31" x="12" y="574.2842">User</text><rect fill="#E2E2F0" height="30.2969" rx="2.5" ry="2.5" style="stroke:#181818;stroke-width:0.5;" width="125" x="213" y="554.2891"/><text fill="#000000" font-family="sans-serif" font-size="14" lengthAdjust="spacing" textLength="111" x="220" y="574.2842">Wallet Instance</text><rect fill="#E2E2F0" height="30.2969" rx="2.5" ry="2.5" style="stroke:#181818;stroke-width:0.5;" width="126" x="677.5" y="554.2891"/><text fill="#000000" font-family="sans-serif" font-size="14" lengthAdjust="spacing" textLength="112" x="684.5" y="574.2842">Wallet backend</text><polygon fill="#181818" points="263.5,76.5625,273.5,80.5625,263.5,84.5625,267.5,80.5625" style="stroke:#181818;stroke-width:1.0;"/><line style="stroke:#181818;stroke-width:1.0;" x1="27.5" x2="269.5" y1="80.5625" y2="80.5625"/><text fill="#000000" font-family="sans-serif" font-size="13" font-weight="bold" lengthAdjust="spacing" textLength="9" x="34.5" y="67.9302">1</text><text fill="#000000" font-family="sans-serif" font-size="13" lengthAdjust="spacing" textLength="151" x="47.5" y="60.3638">Initialize wallet instance</text><text fill="#000000" font-family="sans-serif" font-size="13" lengthAdjust="spacing" textLength="193" x="47.5" y="75.4966">or request/present credentials</text><polygon fill="#181818" points="728.5,105.6953,738.5,109.6953,728.5,113.6953,732.5,109.6953" style="stroke:#181818;stroke-width:1.0;"/><line style="stroke:#181818;stroke-width:1.0;" x1="275.5" x2="734.5" y1="109.6953" y2="109.6953"/><text fill="#000000" font-family="sans-serif" font-size="13" font-weight="bold" lengthAdjust="spacing" textLength="9" x="282.5" y="104.6294">2</text><text fill="#000000" font-family="sans-serif" font-size="13" lengthAdjust="spacing" textLength="189" x="295.5" y="104.6294">Get wallet provider metadata</text><polygon fill="#181818" points="286.5,134.8281,276.5,138.8281,286.5,142.8281,282.5,138.8281" style="stroke:#181818;stroke-width:1.0;"/><line style="stroke:#181818;stroke-width:1.0;stroke-dasharray:2.0,2.0;" x1="280.5" x2="739.5" y1="138.8281" y2="138.8281"/><text fill="#000000" font-family="sans-serif" font-size="13" font-weight="bold" lengthAdjust="spacing" textLength="8" x="292.5" y="133.7622">3</text><text fill="#000000" font-family="sans-serif" font-size="13" lengthAdjust="spacing" textLength="429" x="304.5" y="133.7622">Metadata containing credential types, key requirements, endpoints</text><line style="stroke:#181818;stroke-width:1.0;" x1="275.5" x2="317.5" y1="167.9609" y2="167.9609"/><line style="stroke:#181818;stroke-width:1.0;" x1="317.5" x2="317.5" y1="167.9609" y2="180.9609"/><line style="stroke:#181818;stroke-width:1.0;" x1="276.5" x2="317.5" y1="180.9609" y2="180.9609"/><polygon fill="#181818" points="286.5,176.9609,276.5,180.9609,286.5,184.9609,282.5,180.9609" style="stroke:#181818;stroke-width:1.0;"/><text fill="#000000" font-family="sans-serif" font-size="13" font-weight="bold" lengthAdjust="spacing" textLength="9" x="282.5" y="162.895">4</text><text fill="#000000" font-family="sans-serif" font-size="13" lengthAdjust="spacing" textLength="207" x="295.5" y="162.895">Validate wallet provider trust list</text><line style="stroke:#181818;stroke-width:1.0;" x1="275.5" x2="317.5" y1="210.0938" y2="210.0938"/><line style="stroke:#181818;stroke-width:1.0;" x1="317.5" x2="317.5" y1="210.0938" y2="223.0938"/><line style="stroke:#181818;stroke-width:1.0;" x1="276.5" x2="317.5" y1="223.0938" y2="223.0938"/><polygon fill="#181818" points="286.5,219.0938,276.5,223.0938,286.5,227.0938,282.5,223.0938" style="stroke:#181818;stroke-width:1.0;"/><text fill="#000000" font-family="sans-serif" font-size="13" font-weight="bold" lengthAdjust="spacing" textLength="9" x="282.5" y="205.0278">5</text><text fill="#000000" font-family="sans-serif" font-size="13" lengthAdjust="spacing" textLength="122" x="295.5" y="205.0278">Generate key pairs</text><line style="stroke:#181818;stroke-width:1.0;" x1="275.5" x2="317.5" y1="252.2266" y2="252.2266"/><line style="stroke:#181818;stroke-width:1.0;" x1="317.5" x2="317.5" y1="252.2266" y2="265.2266"/><line style="stroke:#181818;stroke-width:1.0;" x1="276.5" x2="317.5" y1="265.2266" y2="265.2266"/><polygon fill="#181818" points="286.5,261.2266,276.5,265.2266,286.5,269.2266,282.5,265.2266" style="stroke:#181818;stroke-width:1.0;"/><text fill="#000000" font-family="sans-serif" font-size="13" font-weight="bold" lengthAdjust="spacing" textLength="9" x="282.5" y="247.1606">6</text><text fill="#000000" font-family="sans-serif" font-size="13" lengthAdjust="spacing" textLength="295" x="295.5" y="247.1606">Create Wallet Instance Assertion Request JWT</text><polygon fill="#181818" points="723.5,290.3594,733.5,294.3594,723.5,298.3594,727.5,294.3594" style="stroke:#181818;stroke-width:1.0;"/><line style="stroke:#181818;stroke-width:1.0;" x1="275.5" x2="729.5" y1="294.3594" y2="294.3594"/><text fill="#000000" font-family="sans-serif" font-size="13" font-weight="bold" lengthAdjust="spacing" textLength="9" x="282.5" y="289.2935">7</text><text fill="#000000" font-family="sans-serif" font-size="13" lengthAdjust="spacing" textLength="319" x="295.5" y="289.2935">Get assertion (Wallet Instance Assertion Request)</text><line style="stroke:#181818;stroke-width:1.0;" x1="745.5" x2="787.5" y1="323.4922" y2="323.4922"/><line style="stroke:#181818;stroke-width:1.0;" x1="787.5" x2="787.5" y1="323.4922" y2="336.4922"/><line style="stroke:#181818;stroke-width:1.0;" x1="746.5" x2="787.5" y1="336.4922" y2="336.4922"/><polygon fill="#181818" points="756.5,332.4922,746.5,336.4922,756.5,340.4922,752.5,336.4922" style="stroke:#181818;stroke-width:1.0;"/><text fill="#000000" font-family="sans-serif" font-size="13" font-weight="bold" lengthAdjust="spacing" textLength="9" x="752.5" y="318.4263">8</text><text fill="#000000" font-family="sans-serif" font-size="13" lengthAdjust="spacing" textLength="237" x="765.5" y="318.4263">Validate wallet instance genuineness</text><line style="stroke:#181818;stroke-width:1.0;" x1="745.5" x2="787.5" y1="365.625" y2="365.625"/><line style="stroke:#181818;stroke-width:1.0;" x1="787.5" x2="787.5" y1="365.625" y2="378.625"/><line style="stroke:#181818;stroke-width:1.0;" x1="746.5" x2="787.5" y1="378.625" y2="378.625"/><polygon fill="#181818" points="756.5,374.625,746.5,378.625,756.5,382.625,752.5,378.625" style="stroke:#181818;stroke-width:1.0;"/><text fill="#000000" font-family="sans-serif" font-size="13" font-weight="bold" lengthAdjust="spacing" textLength="9" x="752.5" y="360.5591">9</text><text fill="#000000" font-family="sans-serif" font-size="13" lengthAdjust="spacing" textLength="116" x="765.5" y="360.5591">Validate signature</text><line style="stroke:#181818;stroke-width:1.0;" x1="745.5" x2="787.5" y1="407.7578" y2="407.7578"/><line style="stroke:#181818;stroke-width:1.0;" x1="787.5" x2="787.5" y1="407.7578" y2="420.7578"/><line style="stroke:#181818;stroke-width:1.0;" x1="746.5" x2="787.5" y1="420.7578" y2="420.7578"/><polygon fill="#181818" points="756.5,416.7578,746.5,420.7578,756.5,424.7578,752.5,420.7578" style="stroke:#181818;stroke-width:1.0;"/><text fill="#000000" font-family="sans-serif" font-size="13" font-weight="bold" lengthAdjust="spacing" textLength="19" x="752.5" y="402.6919">10</text><text fill="#000000" font-family="sans-serif" font-size="13" lengthAdjust="spacing" textLength="279" x="775.5" y="402.6919">generate and sign wallet instance assertion</text><polygon fill="#181818" points="286.5,445.8906,276.5,449.8906,286.5,453.8906,282.5,449.8906" style="stroke:#181818;stroke-width:1.0;"/><line style="stroke:#181818;stroke-width:1.0;stroke-dasharray:2.0,2.0;" x1="280.5" x2="734.5" y1="449.8906" y2="449.8906"/><text fill="#000000" font-family="sans-serif" font-size="13" font-weight="bold" lengthAdjust="spacing" textLength="18" x="292.5" y="444.8247">11</text><text fill="#000000" font-family="sans-serif" font-size="13" lengthAdjust="spacing" textLength="162" x="314.5" y="444.8247">Wallet Instance Assertion</text><line style="stroke:#181818;stroke-width:1.0;" x1="275.5" x2="317.5" y1="479.0234" y2="479.0234"/><line style="stroke:#181818;stroke-width:1.0;" x1="317.5" x2="317.5" y1="479.0234" y2="492.0234"/><line style="stroke:#181818;stroke-width:1.0;" x1="276.5" x2="317.5" y1="492.0234" y2="492.0234"/><polygon fill="#181818" points="286.5,488.0234,276.5,492.0234,286.5,496.0234,282.5,492.0234" style="stroke:#181818;stroke-width:1.0;"/><text fill="#000000" font-family="sans-serif" font-size="13" font-weight="bold" lengthAdjust="spacing" textLength="18" x="282.5" y="473.9575">12</text><text fill="#000000" font-family="sans-serif" font-size="13" lengthAdjust="spacing" textLength="215" x="304.5" y="473.9575">Validate wallet instance assertion</text><polygon fill="#181818" points="38.5,532.2891,28.5,536.2891,38.5,540.2891,34.5,536.2891" style="stroke:#181818;stroke-width:1.0;"/><line style="stroke:#181818;stroke-width:1.0;stroke-dasharray:2.0,2.0;" x1="32.5" x2="274.5" y1="536.2891" y2="536.2891"/><text fill="#000000" font-family="sans-serif" font-size="13" font-weight="bold" lengthAdjust="spacing" textLength="17" x="44.5" y="523.6567">13</text><text fill="#000000" font-family="sans-serif" font-size="13" lengthAdjust="spacing" textLength="161" x="65.5" y="516.0903">Wallet instance initialized</text><text fill="#000000" font-family="sans-serif" font-size="13" lengthAdjust="spacing" textLength="203" x="65.5" y="531.2231">ready to obtain new credentials</text><!--SRC=[XP8zJyD038Rt-nMc4qX4x1qg8OOA91O4TEdY95PaDV65Er-ZzjVZf6tefvXoiby_jj_uhWrODGXAVWiQ4ZbCwYKrEGNdMWpA1RSe2fElI642626TnXTOrwJmAb5H2Xea7L_Lv5YiICgT97SkGJOpxTIAMHbhtX9qEodlSKln0GBz98hwr0QAPBmYK6bVguYkuspMvLEOMz6-jWr-pIK5Q4YnH4NNvPcfhD7xFWA55qKMbkg81hffAJx2YZP3JmxKMCOYDdNhsPwxVaRwjd6DH1TDpSMeK7DKqnuMd9DGwDKzkaKEqRaHzHAeJvqP2S_H75Vs0X-x_U5jyUcmK5uFVVEJtN5Kt_yBUkWD6IhFjpZO3XL9Oh6fOxmKHwu4DGKQKzLXFvHoI5y0n_d-ViRDEM-QV8LMqfaZsIoDw57Fuu6LIp6xomse1v_tDm12tV59_G80]--></g></svg>