<?xml version="1.0" encoding="us-ascii" standalone="no"?><svg xmlns="http://www.w3.org/2000/svg" xmlns:xlink="http://www.w3.org/1999/xlink" contentStyleType="text/css" height="1057px" preserveAspectRatio="none" style="width:1627px;height:1057px;background:#FFFFFF;" version="1.1" viewBox="0 0 1627 1057" width="1627px" zoomAndPan="magnify"><defs/><g><rect fill="#ADD8E6" height="1045.5781" style="stroke:#181818;stroke-width:0.5;" width="431.5" x="67" y="6"/><text fill="#000000" font-family="sans-serif" font-size="13" font-weight="bold" lengthAdjust="spacing" textLength="143" x="211.25" y="18.0669">User's smartphone</text><line style="stroke:#181818;stroke-width:0.5;stroke-dasharray:5.0,5.0;" x1="38" x2="38" y1="56.4297" y2="1017.2813"/><line style="stroke:#181818;stroke-width:0.5;stroke-dasharray:5.0,5.0;" x1="107" x2="107" y1="56.4297" y2="1017.2813"/><line style="stroke:#181818;stroke-width:0.5;stroke-dasharray:5.0,5.0;" x1="431.5" x2="431.5" y1="56.4297" y2="1017.2813"/><line style="stroke:#181818;stroke-width:0.5;stroke-dasharray:5.0,5.0;" x1="816" x2="816" y1="56.4297" y2="1017.2813"/><line style="stroke:#181818;stroke-width:0.5;stroke-dasharray:5.0,5.0;" x1="1492" x2="1492" y1="56.4297" y2="1017.2813"/><rect fill="#E2E2F0" height="30.2969" rx="2.5" ry="2.5" style="stroke:#181818;stroke-width:0.5;" width="45" x="16" y="25.1328"/><text fill="#000000" font-family="sans-serif" font-size="14" lengthAdjust="spacing" textLength="31" x="23" y="45.1279">User</text><rect fill="#E2E2F0" height="30.2969" rx="2.5" ry="2.5" style="stroke:#181818;stroke-width:0.5;" width="45" x="16" y="1016.2813"/><text fill="#000000" font-family="sans-serif" font-size="14" lengthAdjust="spacing" textLength="31" x="23" y="1036.2764">User</text><rect fill="#E2E2F0" height="30.2969" rx="2.5" ry="2.5" style="stroke:#181818;stroke-width:0.5;" width="72" x="71" y="25.1328"/><text fill="#000000" font-family="sans-serif" font-size="14" lengthAdjust="spacing" textLength="58" x="78" y="45.1279">Browser</text><rect fill="#E2E2F0" height="30.2969" rx="2.5" ry="2.5" style="stroke:#181818;stroke-width:0.5;" width="72" x="71" y="1016.2813"/><text fill="#000000" font-family="sans-serif" font-size="14" lengthAdjust="spacing" textLength="58" x="78" y="1036.2764">Browser</text><rect fill="#E2E2F0" height="30.2969" rx="2.5" ry="2.5" style="stroke:#181818;stroke-width:0.5;" width="125" x="369.5" y="25.1328"/><text fill="#000000" font-family="sans-serif" font-size="14" lengthAdjust="spacing" textLength="111" x="376.5" y="45.1279">Wallet Instance</text><rect fill="#E2E2F0" height="30.2969" rx="2.5" ry="2.5" style="stroke:#181818;stroke-width:0.5;" width="125" x="369.5" y="1016.2813"/><text fill="#000000" font-family="sans-serif" font-size="14" lengthAdjust="spacing" textLength="111" x="376.5" y="1036.2764">Wallet Instance</text><rect fill="#E2E2F0" height="30.2969" rx="2.5" ry="2.5" style="stroke:#181818;stroke-width:0.5;" width="124" x="754" y="25.1328"/><text fill="#000000" font-family="sans-serif" font-size="14" lengthAdjust="spacing" textLength="110" x="761" y="45.1279">Wallet Provider</text><rect fill="#E2E2F0" height="30.2969" rx="2.5" ry="2.5" style="stroke:#181818;stroke-width:0.5;" width="124" x="754" y="1016.2813"/><text fill="#000000" font-family="sans-serif" font-size="14" lengthAdjust="spacing" textLength="110" x="761" y="1036.2764">Wallet Provider</text><rect fill="#E2E2F0" height="30.2969" rx="2.5" ry="2.5" style="stroke:#181818;stroke-width:0.5;" width="102" x="1441" y="25.1328"/><text fill="#000000" font-family="sans-serif" font-size="14" lengthAdjust="spacing" textLength="88" x="1448" y="45.1279">PID Provider</text><rect fill="#E2E2F0" height="30.2969" rx="2.5" ry="2.5" style="stroke:#181818;stroke-width:0.5;" width="102" x="1441" y="1016.2813"/><text fill="#000000" font-family="sans-serif" font-size="14" lengthAdjust="spacing" textLength="88" x="1448" y="1036.2764">PID Provider</text><polygon fill="#181818" points="49.5,83.5625,39.5,87.5625,49.5,91.5625,45.5,87.5625" style="stroke:#181818;stroke-width:1.0;"/><line style="stroke:#181818;stroke-width:1.0;" x1="43.5" x2="431" y1="87.5625" y2="87.5625"/><text fill="#000000" font-family="sans-serif" font-size="13" font-weight="bold" lengthAdjust="spacing" textLength="9" x="55.5" y="82.4966">1</text><text fill="#000000" font-family="sans-serif" font-size="13" lengthAdjust="spacing" textLength="98" x="68.5" y="82.4966">obtain your PID</text><polygon fill="#181818" points="420,112.6953,430,116.6953,420,120.6953,424,116.6953" style="stroke:#181818;stroke-width:1.0;"/><line style="stroke:#181818;stroke-width:1.0;stroke-dasharray:2.0,2.0;" x1="38.5" x2="426" y1="116.6953" y2="116.6953"/><text fill="#000000" font-family="sans-serif" font-size="13" font-weight="bold" lengthAdjust="spacing" textLength="9" x="45.5" y="111.6294">2</text><text fill="#000000" font-family="sans-serif" font-size="13" lengthAdjust="spacing" textLength="23" x="58.5" y="111.6294">yes</text><rect fill="#FFFFFF" height="23" style="stroke:#181818;stroke-width:0.5;" width="234" x="315" y="129.6953"/><text fill="#000000" font-family="sans-serif" font-size="13" lengthAdjust="spacing" textLength="226" x="319" y="145.7622">obtain a list of Trusted PID Provider</text><polygon fill="#181818" points="49.5,174.9609,39.5,178.9609,49.5,182.9609,45.5,178.9609" style="stroke:#181818;stroke-width:1.0;"/><line style="stroke:#181818;stroke-width:1.0;" x1="43.5" x2="431" y1="178.9609" y2="178.9609"/><text fill="#000000" font-family="sans-serif" font-size="13" font-weight="bold" lengthAdjust="spacing" textLength="8" x="55.5" y="173.895">3</text><text fill="#000000" font-family="sans-serif" font-size="13" lengthAdjust="spacing" textLength="234" x="67.5" y="173.895">confirm the selection of PID Provider</text><polygon fill="#181818" points="420,204.0938,430,208.0938,420,212.0938,424,208.0938" style="stroke:#181818;stroke-width:1.0;"/><line style="stroke:#181818;stroke-width:1.0;stroke-dasharray:2.0,2.0;" x1="38.5" x2="426" y1="208.0938" y2="208.0938"/><text fill="#000000" font-family="sans-serif" font-size="13" font-weight="bold" lengthAdjust="spacing" textLength="9" x="45.5" y="203.0278">4</text><text fill="#000000" font-family="sans-serif" font-size="13" lengthAdjust="spacing" textLength="15" x="58.5" y="203.0278">ok</text><rect fill="#90EE90" height="23" style="stroke:#181818;stroke-width:0.5;" width="1168" x="377" y="221.0938"/><text fill="#000000" font-family="sans-serif" font-size="13" lengthAdjust="spacing" textLength="599" x="661.75" y="237.1606">Wallet Instance checks that the PID Provider is part of the Federation and obtain its metadata</text><line style="stroke:#181818;stroke-width:1.0;" x1="432" x2="474" y1="270.3594" y2="270.3594"/><line style="stroke:#181818;stroke-width:1.0;" x1="474" x2="474" y1="270.3594" y2="283.3594"/><line style="stroke:#181818;stroke-width:1.0;" x1="433" x2="474" y1="283.3594" y2="283.3594"/><polygon fill="#181818" points="443,279.3594,433,283.3594,443,287.3594,439,283.3594" style="stroke:#181818;stroke-width:1.0;"/><text fill="#000000" font-family="sans-serif" font-size="13" font-weight="bold" lengthAdjust="spacing" textLength="9" x="439" y="265.2935">5</text><text fill="#000000" font-family="sans-serif" font-size="13" lengthAdjust="spacing" textLength="162" x="452" y="265.2935">create PKCE code verifier</text><polygon fill="#181818" points="1480,308.4922,1490,312.4922,1480,316.4922,1484,312.4922" style="stroke:#181818;stroke-width:1.0;"/><line style="stroke:#181818;stroke-width:1.0;" x1="432" x2="1486" y1="312.4922" y2="312.4922"/><text fill="#000000" font-family="sans-serif" font-size="13" font-weight="bold" lengthAdjust="spacing" textLength="9" x="439" y="307.4263">6</text><text fill="#000000" font-family="sans-serif" font-size="13" lengthAdjust="spacing" textLength="1023" x="452" y="307.4263">PAR Request (response_type, client_id, code_challenge, code_challenge_method, request, client_assertion_type, client_assertion=$WalletInstanceAttestation$)</text><rect fill="#90EE90" height="38" style="stroke:#181818;stroke-width:0.5;" width="784" x="762" y="325.4922"/><text fill="#000000" font-family="sans-serif" font-size="13" lengthAdjust="spacing" textLength="440" x="898.5" y="341.5591">PID Provider checks that the Wallet Provider is part of the Federation</text><text fill="#000000" font-family="sans-serif" font-size="13" lengthAdjust="spacing" textLength="507" x="898.5" y="356.6919">PID Provider checks that the signature of the Wallet Attestation  and its validity</text><polygon fill="#181818" points="443,385.8906,433,389.8906,443,393.8906,439,389.8906" style="stroke:#181818;stroke-width:1.0;"/><line style="stroke:#181818;stroke-width:1.0;stroke-dasharray:2.0,2.0;" x1="437" x2="1491" y1="389.8906" y2="389.8906"/><text fill="#000000" font-family="sans-serif" font-size="13" font-weight="bold" lengthAdjust="spacing" textLength="9" x="449" y="384.8247">7</text><text fill="#000000" font-family="sans-serif" font-size="13" lengthAdjust="spacing" textLength="252" x="462" y="384.8247">PAR Response (request_uri, expires_in)</text><polygon fill="#181818" points="118,415.0234,108,419.0234,118,423.0234,114,419.0234" style="stroke:#181818;stroke-width:1.0;"/><line style="stroke:#181818;stroke-width:1.0;stroke-dasharray:2.0,2.0;" x1="112" x2="431" y1="419.0234" y2="419.0234"/><text fill="#000000" font-family="sans-serif" font-size="13" font-weight="bold" lengthAdjust="spacing" textLength="9" x="124" y="413.9575">8</text><text fill="#000000" font-family="sans-serif" font-size="13" lengthAdjust="spacing" textLength="288" x="137" y="413.9575">Authorization Request (client_id, request_uri)</text><polygon fill="#181818" points="1480,444.1563,1490,448.1563,1480,452.1563,1484,448.1563" style="stroke:#181818;stroke-width:1.0;"/><line style="stroke:#181818;stroke-width:1.0;stroke-dasharray:2.0,2.0;" x1="107" x2="1486" y1="448.1563" y2="448.1563"/><text fill="#000000" font-family="sans-serif" font-size="13" font-weight="bold" lengthAdjust="spacing" textLength="9" x="114" y="443.0903">9</text><text fill="#000000" font-family="sans-serif" font-size="13" lengthAdjust="spacing" textLength="288" x="127" y="443.0903">Authorization Request (client_id, request_uri)</text><rect fill="#FFFFFF" height="23" style="stroke:#181818;stroke-width:0.5;" width="1522" x="5" y="461.1563"/><text fill="#000000" font-family="sans-serif" font-size="13" lengthAdjust="spacing" textLength="340" x="596" y="477.2231">user authentication with eIDAS LoA High and consent</text><polygon fill="#181818" points="118,506.4219,108,510.4219,118,514.4219,114,510.4219" style="stroke:#181818;stroke-width:1.0;"/><line style="stroke:#181818;stroke-width:1.0;stroke-dasharray:2.0,2.0;" x1="112" x2="1491" y1="510.4219" y2="510.4219"/><text fill="#000000" font-family="sans-serif" font-size="13" font-weight="bold" lengthAdjust="spacing" textLength="19" x="124" y="505.356">10</text><text fill="#000000" font-family="sans-serif" font-size="13" lengthAdjust="spacing" textLength="238" x="147" y="505.356">Authorization Response (code, state)</text><polygon fill="#181818" points="420,535.5547,430,539.5547,420,543.5547,424,539.5547" style="stroke:#181818;stroke-width:1.0;"/><line style="stroke:#181818;stroke-width:1.0;stroke-dasharray:2.0,2.0;" x1="107" x2="426" y1="539.5547" y2="539.5547"/><text fill="#000000" font-family="sans-serif" font-size="13" font-weight="bold" lengthAdjust="spacing" textLength="18" x="114" y="534.4888">11</text><text fill="#000000" font-family="sans-serif" font-size="13" lengthAdjust="spacing" textLength="238" x="136" y="534.4888">Authorization Response (code, state)</text><line style="stroke:#181818;stroke-width:1.0;" x1="432" x2="474" y1="568.6875" y2="568.6875"/><line style="stroke:#181818;stroke-width:1.0;" x1="474" x2="474" y1="568.6875" y2="581.6875"/><line style="stroke:#181818;stroke-width:1.0;" x1="433" x2="474" y1="581.6875" y2="581.6875"/><polygon fill="#181818" points="443,577.6875,433,581.6875,443,585.6875,439,581.6875" style="stroke:#181818;stroke-width:1.0;"/><text fill="#000000" font-family="sans-serif" font-size="13" font-weight="bold" lengthAdjust="spacing" textLength="18" x="439" y="563.6216">12</text><text fill="#000000" font-family="sans-serif" font-size="13" lengthAdjust="spacing" textLength="123" x="461" y="563.6216">generate DPoP key</text><line style="stroke:#181818;stroke-width:1.0;" x1="432" x2="474" y1="610.8203" y2="610.8203"/><line style="stroke:#181818;stroke-width:1.0;" x1="474" x2="474" y1="610.8203" y2="623.8203"/><line style="stroke:#181818;stroke-width:1.0;" x1="433" x2="474" y1="623.8203" y2="623.8203"/><polygon fill="#181818" points="443,619.8203,433,623.8203,443,627.8203,439,623.8203" style="stroke:#181818;stroke-width:1.0;"/><text fill="#000000" font-family="sans-serif" font-size="13" font-weight="bold" lengthAdjust="spacing" textLength="17" x="439" y="605.7544">13</text><text fill="#000000" font-family="sans-serif" font-size="13" lengthAdjust="spacing" textLength="338" x="460" y="605.7544">generate DPoP proof for PID Provider token endpoint</text><polygon fill="#181818" points="1480,648.9531,1490,652.9531,1480,656.9531,1484,652.9531" style="stroke:#181818;stroke-width:1.0;"/><line style="stroke:#181818;stroke-width:1.0;" x1="432" x2="1486" y1="652.9531" y2="652.9531"/><text fill="#000000" font-family="sans-serif" font-size="13" font-weight="bold" lengthAdjust="spacing" textLength="18" x="439" y="647.8872">14</text><text fill="#000000" font-family="sans-serif" font-size="13" lengthAdjust="spacing" textLength="809" x="461" y="647.8872">Token Request with DPoP proof (client_id, grant_type, code, code_verifier, client_assertion_type, client_assertion, redirect_uri)</text><polygon fill="#181818" points="443,678.0859,433,682.0859,443,686.0859,439,682.0859" style="stroke:#181818;stroke-width:1.0;"/><line style="stroke:#181818;stroke-width:1.0;" x1="437" x2="1491" y1="682.0859" y2="682.0859"/><text fill="#000000" font-family="sans-serif" font-size="13" font-weight="bold" lengthAdjust="spacing" textLength="18" x="449" y="677.02">15</text><text fill="#000000" font-family="sans-serif" font-size="13" lengthAdjust="spacing" textLength="554" x="471" y="677.02">Token Response (access_token, token_type, expires_in, c_nonce, c_nonce_expires_in)</text><line style="stroke:#181818;stroke-width:1.0;" x1="432" x2="474" y1="711.2188" y2="711.2188"/><line style="stroke:#181818;stroke-width:1.0;" x1="474" x2="474" y1="711.2188" y2="724.2188"/><line style="stroke:#181818;stroke-width:1.0;" x1="433" x2="474" y1="724.2188" y2="724.2188"/><polygon fill="#181818" points="443,720.2188,433,724.2188,443,728.2188,439,724.2188" style="stroke:#181818;stroke-width:1.0;"/><text fill="#000000" font-family="sans-serif" font-size="13" font-weight="bold" lengthAdjust="spacing" textLength="18" x="439" y="706.1528">16</text><text fill="#000000" font-family="sans-serif" font-size="13" lengthAdjust="spacing" textLength="211" x="461" y="706.1528">generate fresh key for credential</text><line style="stroke:#181818;stroke-width:1.0;" x1="432" x2="474" y1="753.3516" y2="753.3516"/><line style="stroke:#181818;stroke-width:1.0;" x1="474" x2="474" y1="753.3516" y2="766.3516"/><line style="stroke:#181818;stroke-width:1.0;" x1="433" x2="474" y1="766.3516" y2="766.3516"/><polygon fill="#181818" points="443,762.3516,433,766.3516,443,770.3516,439,766.3516" style="stroke:#181818;stroke-width:1.0;"/><text fill="#000000" font-family="sans-serif" font-size="13" font-weight="bold" lengthAdjust="spacing" textLength="18" x="439" y="748.2856">17</text><text fill="#000000" font-family="sans-serif" font-size="13" lengthAdjust="spacing" textLength="238" x="461" y="748.2856">create proof of possession (c_nonce)</text><line style="stroke:#181818;stroke-width:1.0;" x1="432" x2="474" y1="795.4844" y2="795.4844"/><line style="stroke:#181818;stroke-width:1.0;" x1="474" x2="474" y1="795.4844" y2="808.4844"/><line style="stroke:#181818;stroke-width:1.0;" x1="433" x2="474" y1="808.4844" y2="808.4844"/><polygon fill="#181818" points="443,804.4844,433,808.4844,443,812.4844,439,808.4844" style="stroke:#181818;stroke-width:1.0;"/><text fill="#000000" font-family="sans-serif" font-size="13" font-weight="bold" lengthAdjust="spacing" textLength="18" x="439" y="790.4185">18</text><text fill="#000000" font-family="sans-serif" font-size="13" lengthAdjust="spacing" textLength="348" x="461" y="790.4185">create DPoP proof for PID Provider credential endpoint</text><polygon fill="#181818" points="1480,833.6172,1490,837.6172,1480,841.6172,1484,837.6172" style="stroke:#181818;stroke-width:1.0;"/><line style="stroke:#181818;stroke-width:1.0;" x1="432" x2="1486" y1="837.6172" y2="837.6172"/><text fill="#000000" font-family="sans-serif" font-size="13" font-weight="bold" lengthAdjust="spacing" textLength="18" x="439" y="832.5513">19</text><text fill="#000000" font-family="sans-serif" font-size="13" lengthAdjust="spacing" textLength="623" x="461" y="832.5513">Credential Request with DPoP access_token and DPoP proof (credential_definition, format, proof)</text><rect fill="#ADD8E6" height="38" style="stroke:#181818;stroke-width:0.5;" width="259" x="1362" y="850.6172"/><text fill="#000000" font-family="sans-serif" font-size="13" lengthAdjust="spacing" textLength="213" x="1366" y="866.6841">Register all the credential-related</text><text fill="#000000" font-family="sans-serif" font-size="13" lengthAdjust="spacing" textLength="243" x="1366" y="881.8169">information for verification/revocation</text><polygon fill="#181818" points="443,911.0156,433,915.0156,443,919.0156,439,915.0156" style="stroke:#181818;stroke-width:1.0;"/><line style="stroke:#181818;stroke-width:1.0;" x1="437" x2="1491" y1="915.0156" y2="915.0156"/><text fill="#000000" font-family="sans-serif" font-size="13" font-weight="bold" lengthAdjust="spacing" textLength="19" x="449" y="909.9497">20</text><text fill="#000000" font-family="sans-serif" font-size="13" lengthAdjust="spacing" textLength="455" x="472" y="909.9497">Credential Response (format, credential, c_nonce, c_nonce_expires_in)</text><line style="stroke:#181818;stroke-width:1.0;" x1="432" x2="474" y1="944.1484" y2="944.1484"/><line style="stroke:#181818;stroke-width:1.0;" x1="474" x2="474" y1="944.1484" y2="957.1484"/><line style="stroke:#181818;stroke-width:1.0;" x1="433" x2="474" y1="957.1484" y2="957.1484"/><polygon fill="#181818" points="443,953.1484,433,957.1484,443,961.1484,439,957.1484" style="stroke:#181818;stroke-width:1.0;"/><text fill="#000000" font-family="sans-serif" font-size="13" font-weight="bold" lengthAdjust="spacing" textLength="18" x="439" y="939.0825">21</text><text fill="#000000" font-family="sans-serif" font-size="13" lengthAdjust="spacing" textLength="184" x="461" y="939.0825">PID validity and status check</text><line style="stroke:#181818;stroke-width:1.0;" x1="432" x2="474" y1="986.2813" y2="986.2813"/><line style="stroke:#181818;stroke-width:1.0;" x1="474" x2="474" y1="986.2813" y2="999.2813"/><line style="stroke:#181818;stroke-width:1.0;" x1="433" x2="474" y1="999.2813" y2="999.2813"/><polygon fill="#181818" points="443,995.2813,433,999.2813,443,1003.2813,439,999.2813" style="stroke:#181818;stroke-width:1.0;"/><text fill="#000000" font-family="sans-serif" font-size="13" font-weight="bold" lengthAdjust="spacing" textLength="18" x="439" y="981.2153">22</text><text fill="#000000" font-family="sans-serif" font-size="13" lengthAdjust="spacing" textLength="100" x="461" y="981.2153">store credential</text><!--SRC=[bPNRRjf048Rlzob6IQG62TJxI8r44fgWHXMYgN9fBVQ0HvXTTmyuzEaxkpvWGnkbY0lmpl7xPzRIEwtyReL6Y58QHocLKZcu-6dHN82qu8LOwRVwmISBTiTMPQuLNi3bCsroTrTu7FhU6Lrrxd9uzYgB0XtCbNLIfHXjAe4g0yuY_cgxC7fFMHDlTMApc3yC3KZmfuB9BVWRq2idIS51UmDiAJnC-A2wWGDQ8OpI3a7lqK05bwzFyvUPQ3ma56GTw3My66yTPj1F5EgDpfnfSijvKgtMP7RWSWIB1QQEj0hU0o_XEJidrzjXxZ4noldZqylZSZRxBauGGPfZkhKSMxgOe1yJo4BW4NA5iw_83sNCBfbfqmqv2pjqCfDEzciFb2hWyWrAhcRnxNx6hMG8N1QjAPGSROXj5jCbBF6NHyPoRT2MMbbCtA74CQG5eN89PUFedgHvQ45jyFH_mbNacirC7QbpbPO79fGzZDWz_d9LKscXJ9rZzzZerGZwD6cy6j0Sq3f5UJ9Xxz1yFuwbZPBE6smzcy2zCY4A4fJOou8oSWVeII6edimETCqta8wW4cze3FXM4gDFI8tg8GzJBczWwfcgeTzreawbdYozC2FXPVIa_tOKGz2-NHhFAe7aMEn5QHsi8fS3pX-cF-1PJ-69huf880rzATVhdPe-uBoUbaAOeZ44ajYLNttK_ZZd6rH1JuI7XLx05W__F2kDPYNNsWotpUajAk3IIqtSGsyzNk99Ip0stmlK9xenV76rOnxhZ3lIhjo7Lo9ea_4ufAqurBRIrjBIa6cArYQn-77TGnFpE50SFr6QDwlxaGocxPpJci_o035YuYia2-hBulnUgHdmjzHSlBL1g-icImnzOl-U0iSyFHaw5UwFf-TIz374KHm8r7ac6Qv9KOsOy-yaNrFHQZGO_-QMkNl-EHDBtF3h8Yn1KSJzFuQR62naU848KdMqq7xegrQyNfVF1lUwsHmOxaQDPj1PAsnRtJ7RXsKCKBkBAC08o-9jVRFrxApJfj_E7m00]--></g></svg>