<?xml version="1.0" encoding="us-ascii" standalone="no"?><svg xmlns="http://www.w3.org/2000/svg" xmlns:xlink="http://www.w3.org/1999/xlink" contentStyleType="text/css" height="1117px" preserveAspectRatio="none" style="width:1779px;height:1117px;background:#FFFFFF;" version="1.1" viewBox="0 0 1779 1117" width="1779px" zoomAndPan="magnify"><defs/><g><rect fill="#ADD8E6" height="1105.0078" style="stroke:#181818;stroke-width:0.5;" width="349.5" x="67" y="6"/><text fill="#000000" font-family="sans-serif" font-size="13" font-weight="bold" lengthAdjust="spacing" textLength="143" x="170.25" y="18.0669">User's smartphone</text><line style="stroke:#181818;stroke-width:0.5;stroke-dasharray:5.0,5.0;" x1="38" x2="38" y1="56.4297" y2="1060.4141"/><line style="stroke:#181818;stroke-width:0.5;stroke-dasharray:5.0,5.0;" x1="107" x2="107" y1="56.4297" y2="1060.4141"/><line style="stroke:#181818;stroke-width:0.5;stroke-dasharray:5.0,5.0;" x1="349.5" x2="349.5" y1="56.4297" y2="1060.4141"/><line style="stroke:#181818;stroke-width:0.5;stroke-dasharray:5.0,5.0;" x1="734" x2="734" y1="56.4297" y2="1060.4141"/><line style="stroke:#181818;stroke-width:0.5;stroke-dasharray:5.0,5.0;" x1="1553" x2="1553" y1="56.4297" y2="1060.4141"/><line style="stroke:#181818;stroke-width:0.5;stroke-dasharray:5.0,5.0;" x1="1690" x2="1690" y1="56.4297" y2="1060.4141"/><rect fill="#E2E2F0" height="30.2969" rx="2.5" ry="2.5" style="stroke:#181818;stroke-width:0.5;" width="45" x="16" y="25.1328"/><text fill="#000000" font-family="sans-serif" font-size="14" lengthAdjust="spacing" textLength="31" x="23" y="45.1279">User</text><rect fill="#E2E2F0" height="30.2969" rx="2.5" ry="2.5" style="stroke:#181818;stroke-width:0.5;" width="45" x="16" y="1059.4141"/><text fill="#000000" font-family="sans-serif" font-size="14" lengthAdjust="spacing" textLength="31" x="23" y="1079.4092">User</text><rect fill="#E2E2F0" height="30.2969" rx="2.5" ry="2.5" style="stroke:#181818;stroke-width:0.5;" width="72" x="71" y="25.1328"/><text fill="#000000" font-family="sans-serif" font-size="14" lengthAdjust="spacing" textLength="58" x="78" y="45.1279">Browser</text><rect fill="#E2E2F0" height="30.2969" rx="2.5" ry="2.5" style="stroke:#181818;stroke-width:0.5;" width="72" x="71" y="1059.4141"/><text fill="#000000" font-family="sans-serif" font-size="14" lengthAdjust="spacing" textLength="58" x="78" y="1079.4092">Browser</text><rect fill="#E2E2F0" height="30.2969" rx="2.5" ry="2.5" style="stroke:#181818;stroke-width:0.5;" width="125" x="287.5" y="25.1328"/><text fill="#000000" font-family="sans-serif" font-size="14" lengthAdjust="spacing" textLength="111" x="294.5" y="45.1279">Wallet Instance</text><rect fill="#E2E2F0" height="30.2969" rx="2.5" ry="2.5" style="stroke:#181818;stroke-width:0.5;" width="125" x="287.5" y="1059.4141"/><text fill="#000000" font-family="sans-serif" font-size="14" lengthAdjust="spacing" textLength="111" x="294.5" y="1079.4092">Wallet Instance</text><rect fill="#E2E2F0" height="30.2969" rx="2.5" ry="2.5" style="stroke:#181818;stroke-width:0.5;" width="124" x="672" y="25.1328"/><text fill="#000000" font-family="sans-serif" font-size="14" lengthAdjust="spacing" textLength="110" x="679" y="45.1279">Wallet Provider</text><rect fill="#E2E2F0" height="30.2969" rx="2.5" ry="2.5" style="stroke:#181818;stroke-width:0.5;" width="124" x="672" y="1059.4141"/><text fill="#000000" font-family="sans-serif" font-size="14" lengthAdjust="spacing" textLength="110" x="679" y="1079.4092">Wallet Provider</text><rect fill="#E2E2F0" height="30.2969" rx="2.5" ry="2.5" style="stroke:#181818;stroke-width:0.5;" width="102" x="1502" y="25.1328"/><text fill="#000000" font-family="sans-serif" font-size="14" lengthAdjust="spacing" textLength="88" x="1509" y="45.1279">PID Provider</text><rect fill="#E2E2F0" height="30.2969" rx="2.5" ry="2.5" style="stroke:#181818;stroke-width:0.5;" width="102" x="1502" y="1059.4141"/><text fill="#000000" font-family="sans-serif" font-size="14" lengthAdjust="spacing" textLength="88" x="1509" y="1079.4092">PID Provider</text><rect fill="#E2E2F0" height="46.5938" rx="2.5" ry="2.5" style="stroke:#181818;stroke-width:0.5;" width="153" x="1614" y="8.8359"/><text fill="#000000" font-family="sans-serif" font-size="14" lengthAdjust="spacing" textLength="135" x="1621" y="28.8311">eIDAS PID Provider</text><text fill="#000000" font-family="sans-serif" font-size="14" lengthAdjust="spacing" textLength="85" x="1648" y="45.1279">Trusted List</text><rect fill="#E2E2F0" height="46.5938" rx="2.5" ry="2.5" style="stroke:#181818;stroke-width:0.5;" width="153" x="1614" y="1059.4141"/><text fill="#000000" font-family="sans-serif" font-size="14" lengthAdjust="spacing" textLength="135" x="1621" y="1079.4092">eIDAS PID Provider</text><text fill="#000000" font-family="sans-serif" font-size="14" lengthAdjust="spacing" textLength="85" x="1648" y="1095.7061">Trusted List</text><rect fill="#EEEEEE" height="3" style="stroke:#EEEEEE;stroke-width:1.0;" width="1772" x="0" y="86.9961"/><line style="stroke:#000000;stroke-width:1.0;" x1="0" x2="1772" y1="86.9961" y2="86.9961"/><line style="stroke:#000000;stroke-width:1.0;" x1="0" x2="1772" y1="89.9961" y2="89.9961"/><rect fill="#EEEEEE" height="23.1328" style="stroke:#000000;stroke-width:2.0;" width="106" x="833" y="76.4297"/><text fill="#000000" font-family="sans-serif" font-size="13" font-weight="bold" lengthAdjust="spacing" textLength="82" x="839" y="92.4966">PID issuing</text><polygon fill="#181818" points="49.5,126.6953,39.5,130.6953,49.5,134.6953,45.5,130.6953" style="stroke:#181818;stroke-width:1.0;"/><line style="stroke:#181818;stroke-width:1.0;" x1="43.5" x2="349" y1="130.6953" y2="130.6953"/><text fill="#000000" font-family="sans-serif" font-size="13" font-weight="bold" lengthAdjust="spacing" textLength="9" x="55.5" y="125.6294">1</text><text fill="#000000" font-family="sans-serif" font-size="13" lengthAdjust="spacing" textLength="98" x="68.5" y="125.6294">obtain your PID</text><polygon fill="#181818" points="338,155.8281,348,159.8281,338,163.8281,342,159.8281" style="stroke:#181818;stroke-width:1.0;"/><line style="stroke:#181818;stroke-width:1.0;stroke-dasharray:2.0,2.0;" x1="38.5" x2="344" y1="159.8281" y2="159.8281"/><text fill="#000000" font-family="sans-serif" font-size="13" font-weight="bold" lengthAdjust="spacing" textLength="9" x="45.5" y="154.7622">2</text><text fill="#000000" font-family="sans-serif" font-size="13" lengthAdjust="spacing" textLength="23" x="58.5" y="154.7622">yes</text><rect fill="#FFFFFF" height="23" style="stroke:#181818;stroke-width:0.5;" width="1474" x="283" y="172.8281"/><text fill="#000000" font-family="sans-serif" font-size="13" lengthAdjust="spacing" textLength="226" x="907.25" y="188.895">obtain a list of Trusted PID Provider</text><polygon fill="#181818" points="49.5,218.0938,39.5,222.0938,49.5,226.0938,45.5,222.0938" style="stroke:#181818;stroke-width:1.0;"/><line style="stroke:#181818;stroke-width:1.0;" x1="43.5" x2="349" y1="222.0938" y2="222.0938"/><text fill="#000000" font-family="sans-serif" font-size="13" font-weight="bold" lengthAdjust="spacing" textLength="8" x="55.5" y="217.0278">3</text><text fill="#000000" font-family="sans-serif" font-size="13" lengthAdjust="spacing" textLength="234" x="67.5" y="217.0278">confirm the selection of PID Provider</text><polygon fill="#181818" points="338,247.2266,348,251.2266,338,255.2266,342,251.2266" style="stroke:#181818;stroke-width:1.0;"/><line style="stroke:#181818;stroke-width:1.0;stroke-dasharray:2.0,2.0;" x1="38.5" x2="344" y1="251.2266" y2="251.2266"/><text fill="#000000" font-family="sans-serif" font-size="13" font-weight="bold" lengthAdjust="spacing" textLength="9" x="45.5" y="246.1606">4</text><text fill="#000000" font-family="sans-serif" font-size="13" lengthAdjust="spacing" textLength="15" x="58.5" y="246.1606">ok</text><rect fill="#90EE90" height="23" style="stroke:#181818;stroke-width:0.5;" width="1311" x="295" y="264.2266"/><text fill="#000000" font-family="sans-serif" font-size="13" lengthAdjust="spacing" textLength="599" x="651.25" y="280.2935">Wallet Instance checks that the PID Provider is part of the Federation and obtain its metadata</text><line style="stroke:#181818;stroke-width:1.0;" x1="350" x2="392" y1="313.4922" y2="313.4922"/><line style="stroke:#181818;stroke-width:1.0;" x1="392" x2="392" y1="313.4922" y2="326.4922"/><line style="stroke:#181818;stroke-width:1.0;" x1="351" x2="392" y1="326.4922" y2="326.4922"/><polygon fill="#181818" points="361,322.4922,351,326.4922,361,330.4922,357,326.4922" style="stroke:#181818;stroke-width:1.0;"/><text fill="#000000" font-family="sans-serif" font-size="13" font-weight="bold" lengthAdjust="spacing" textLength="9" x="357" y="308.4263">5</text><text fill="#000000" font-family="sans-serif" font-size="13" lengthAdjust="spacing" textLength="162" x="370" y="308.4263">create PKCE code verifier</text><polygon fill="#181818" points="1541,351.625,1551,355.625,1541,359.625,1545,355.625" style="stroke:#181818;stroke-width:1.0;"/><line style="stroke:#181818;stroke-width:1.0;" x1="350" x2="1547" y1="355.625" y2="355.625"/><text fill="#000000" font-family="sans-serif" font-size="13" font-weight="bold" lengthAdjust="spacing" textLength="9" x="357" y="350.5591">6</text><text fill="#000000" font-family="sans-serif" font-size="13" lengthAdjust="spacing" textLength="1166" x="370" y="350.5591">par (response_type, state, client_id, code_challenge, code_challenge_method, authorization_details, redirect_uri, client_assertion_type, client_assertion=$WalletInstanceAttestation$)</text><rect fill="#90EE90" height="38" style="stroke:#181818;stroke-width:0.5;" width="927" x="680" y="368.625"/><text fill="#000000" font-family="sans-serif" font-size="13" lengthAdjust="spacing" textLength="440" x="888" y="384.6919">PID Provider checks that the Wallet Provider is part of the Federation</text><text fill="#000000" font-family="sans-serif" font-size="13" lengthAdjust="spacing" textLength="507" x="888" y="399.8247">PID Provider checks that the signature of the Wallet Attestation  and its validity</text><polygon fill="#181818" points="361,429.0234,351,433.0234,361,437.0234,357,433.0234" style="stroke:#181818;stroke-width:1.0;"/><line style="stroke:#181818;stroke-width:1.0;stroke-dasharray:2.0,2.0;" x1="355" x2="1552" y1="433.0234" y2="433.0234"/><text fill="#000000" font-family="sans-serif" font-size="13" font-weight="bold" lengthAdjust="spacing" textLength="9" x="367" y="427.9575">7</text><text fill="#000000" font-family="sans-serif" font-size="13" lengthAdjust="spacing" textLength="72" x="380" y="427.9575">request_uri</text><polygon fill="#181818" points="118,458.1563,108,462.1563,118,466.1563,114,462.1563" style="stroke:#181818;stroke-width:1.0;"/><line style="stroke:#181818;stroke-width:1.0;stroke-dasharray:2.0,2.0;" x1="112" x2="349" y1="462.1563" y2="462.1563"/><text fill="#000000" font-family="sans-serif" font-size="13" font-weight="bold" lengthAdjust="spacing" textLength="9" x="124" y="457.0903">8</text><text fill="#000000" font-family="sans-serif" font-size="13" lengthAdjust="spacing" textLength="206" x="137" y="457.0903">authorize (client_id, request_uri)</text><polygon fill="#181818" points="1541,487.2891,1551,491.2891,1541,495.2891,1545,491.2891" style="stroke:#181818;stroke-width:1.0;"/><line style="stroke:#181818;stroke-width:1.0;stroke-dasharray:2.0,2.0;" x1="107" x2="1547" y1="491.2891" y2="491.2891"/><text fill="#000000" font-family="sans-serif" font-size="13" font-weight="bold" lengthAdjust="spacing" textLength="9" x="114" y="486.2231">9</text><text fill="#000000" font-family="sans-serif" font-size="13" lengthAdjust="spacing" textLength="206" x="127" y="486.2231">authorize (client_id, request_uri)</text><rect fill="#FFFFFF" height="23" style="stroke:#181818;stroke-width:0.5;" width="1583" x="5" y="504.2891"/><text fill="#000000" font-family="sans-serif" font-size="13" lengthAdjust="spacing" textLength="312" x="640.5" y="520.356">user authentication with eIDAS High and consent</text><polygon fill="#181818" points="118,549.5547,108,553.5547,118,557.5547,114,553.5547" style="stroke:#181818;stroke-width:1.0;"/><line style="stroke:#181818;stroke-width:1.0;stroke-dasharray:2.0,2.0;" x1="112" x2="1552" y1="553.5547" y2="553.5547"/><text fill="#000000" font-family="sans-serif" font-size="13" font-weight="bold" lengthAdjust="spacing" textLength="19" x="124" y="548.4888">10</text><text fill="#000000" font-family="sans-serif" font-size="13" lengthAdjust="spacing" textLength="168" x="147" y="548.4888">authorize response (code)</text><polygon fill="#181818" points="338,578.6875,348,582.6875,338,586.6875,342,582.6875" style="stroke:#181818;stroke-width:1.0;"/><line style="stroke:#181818;stroke-width:1.0;stroke-dasharray:2.0,2.0;" x1="107" x2="344" y1="582.6875" y2="582.6875"/><text fill="#000000" font-family="sans-serif" font-size="13" font-weight="bold" lengthAdjust="spacing" textLength="18" x="114" y="577.6216">11</text><text fill="#000000" font-family="sans-serif" font-size="13" lengthAdjust="spacing" textLength="168" x="136" y="577.6216">authorize response (code)</text><line style="stroke:#181818;stroke-width:1.0;" x1="350" x2="392" y1="611.8203" y2="611.8203"/><line style="stroke:#181818;stroke-width:1.0;" x1="392" x2="392" y1="611.8203" y2="624.8203"/><line style="stroke:#181818;stroke-width:1.0;" x1="351" x2="392" y1="624.8203" y2="624.8203"/><polygon fill="#181818" points="361,620.8203,351,624.8203,361,628.8203,357,624.8203" style="stroke:#181818;stroke-width:1.0;"/><text fill="#000000" font-family="sans-serif" font-size="13" font-weight="bold" lengthAdjust="spacing" textLength="18" x="357" y="606.7544">12</text><text fill="#000000" font-family="sans-serif" font-size="13" lengthAdjust="spacing" textLength="123" x="379" y="606.7544">generate DPoP key</text><line style="stroke:#181818;stroke-width:1.0;" x1="350" x2="392" y1="653.9531" y2="653.9531"/><line style="stroke:#181818;stroke-width:1.0;" x1="392" x2="392" y1="653.9531" y2="666.9531"/><line style="stroke:#181818;stroke-width:1.0;" x1="351" x2="392" y1="666.9531" y2="666.9531"/><polygon fill="#181818" points="361,662.9531,351,666.9531,361,670.9531,357,666.9531" style="stroke:#181818;stroke-width:1.0;"/><text fill="#000000" font-family="sans-serif" font-size="13" font-weight="bold" lengthAdjust="spacing" textLength="17" x="357" y="648.8872">13</text><text fill="#000000" font-family="sans-serif" font-size="13" lengthAdjust="spacing" textLength="338" x="378" y="648.8872">generate DPoP proof for PID Provider token endpoint</text><polygon fill="#181818" points="1541,692.0859,1551,696.0859,1541,700.0859,1545,696.0859" style="stroke:#181818;stroke-width:1.0;"/><line style="stroke:#181818;stroke-width:1.0;" x1="350" x2="1547" y1="696.0859" y2="696.0859"/><text fill="#000000" font-family="sans-serif" font-size="13" font-weight="bold" lengthAdjust="spacing" textLength="18" x="357" y="691.02">14</text><text fill="#000000" font-family="sans-serif" font-size="13" lengthAdjust="spacing" textLength="914" x="379" y="691.02">token (client_id, grant_type, code, code_verifier, dpop_proof, client_assertion_type, client_assertion=$WalletInstanceAttestation$, redirect_uri)</text><polygon fill="#181818" points="361,721.2188,351,725.2188,361,729.2188,357,725.2188" style="stroke:#181818;stroke-width:1.0;"/><line style="stroke:#181818;stroke-width:1.0;" x1="355" x2="1552" y1="725.2188" y2="725.2188"/><text fill="#000000" font-family="sans-serif" font-size="13" font-weight="bold" lengthAdjust="spacing" textLength="18" x="367" y="720.1528">15</text><text fill="#000000" font-family="sans-serif" font-size="13" lengthAdjust="spacing" textLength="148" x="389" y="720.1528">access_token, c_nonce</text><line style="stroke:#181818;stroke-width:1.0;" x1="350" x2="392" y1="754.3516" y2="754.3516"/><line style="stroke:#181818;stroke-width:1.0;" x1="392" x2="392" y1="754.3516" y2="767.3516"/><line style="stroke:#181818;stroke-width:1.0;" x1="351" x2="392" y1="767.3516" y2="767.3516"/><polygon fill="#181818" points="361,763.3516,351,767.3516,361,771.3516,357,767.3516" style="stroke:#181818;stroke-width:1.0;"/><text fill="#000000" font-family="sans-serif" font-size="13" font-weight="bold" lengthAdjust="spacing" textLength="18" x="357" y="749.2856">16</text><text fill="#000000" font-family="sans-serif" font-size="13" lengthAdjust="spacing" textLength="211" x="379" y="749.2856">generate fresh key for credential</text><line style="stroke:#181818;stroke-width:1.0;" x1="350" x2="392" y1="796.4844" y2="796.4844"/><line style="stroke:#181818;stroke-width:1.0;" x1="392" x2="392" y1="796.4844" y2="809.4844"/><line style="stroke:#181818;stroke-width:1.0;" x1="351" x2="392" y1="809.4844" y2="809.4844"/><polygon fill="#181818" points="361,805.4844,351,809.4844,361,813.4844,357,809.4844" style="stroke:#181818;stroke-width:1.0;"/><text fill="#000000" font-family="sans-serif" font-size="13" font-weight="bold" lengthAdjust="spacing" textLength="18" x="357" y="791.4185">17</text><text fill="#000000" font-family="sans-serif" font-size="13" lengthAdjust="spacing" textLength="238" x="379" y="791.4185">create proof of possession (c_nonce)</text><line style="stroke:#181818;stroke-width:1.0;" x1="350" x2="392" y1="838.6172" y2="838.6172"/><line style="stroke:#181818;stroke-width:1.0;" x1="392" x2="392" y1="838.6172" y2="851.6172"/><line style="stroke:#181818;stroke-width:1.0;" x1="351" x2="392" y1="851.6172" y2="851.6172"/><polygon fill="#181818" points="361,847.6172,351,851.6172,361,855.6172,357,851.6172" style="stroke:#181818;stroke-width:1.0;"/><text fill="#000000" font-family="sans-serif" font-size="13" font-weight="bold" lengthAdjust="spacing" textLength="18" x="357" y="833.5513">18</text><text fill="#000000" font-family="sans-serif" font-size="13" lengthAdjust="spacing" textLength="348" x="379" y="833.5513">create DPoP proof for PID Provider credential endpoint</text><polygon fill="#181818" points="1541,876.75,1551,880.75,1541,884.75,1545,880.75" style="stroke:#181818;stroke-width:1.0;"/><line style="stroke:#181818;stroke-width:1.0;" x1="350" x2="1547" y1="880.75" y2="880.75"/><text fill="#000000" font-family="sans-serif" font-size="13" font-weight="bold" lengthAdjust="spacing" textLength="18" x="357" y="875.6841">19</text><text fill="#000000" font-family="sans-serif" font-size="13" lengthAdjust="spacing" textLength="482" x="379" y="875.6841">issue credential (access_token, credential_type, format, proof, DPoP proof)</text><rect fill="#ADD8E6" height="38" style="stroke:#181818;stroke-width:0.5;" width="259" x="1423" y="893.75"/><text fill="#000000" font-family="sans-serif" font-size="13" lengthAdjust="spacing" textLength="213" x="1427" y="909.8169">Register all the credential-related</text><text fill="#000000" font-family="sans-serif" font-size="13" lengthAdjust="spacing" textLength="243" x="1427" y="924.9497">information for verification/revocation</text><polygon fill="#181818" points="361,954.1484,351,958.1484,361,962.1484,357,958.1484" style="stroke:#181818;stroke-width:1.0;"/><line style="stroke:#181818;stroke-width:1.0;" x1="355" x2="1552" y1="958.1484" y2="958.1484"/><text fill="#000000" font-family="sans-serif" font-size="13" font-weight="bold" lengthAdjust="spacing" textLength="19" x="367" y="953.0825">20</text><text fill="#000000" font-family="sans-serif" font-size="13" lengthAdjust="spacing" textLength="140" x="390" y="953.0825">PID credential, format</text><line style="stroke:#181818;stroke-width:1.0;" x1="350" x2="392" y1="987.2813" y2="987.2813"/><line style="stroke:#181818;stroke-width:1.0;" x1="392" x2="392" y1="987.2813" y2="1000.2813"/><line style="stroke:#181818;stroke-width:1.0;" x1="351" x2="392" y1="1000.2813" y2="1000.2813"/><polygon fill="#181818" points="361,996.2813,351,1000.2813,361,1004.2813,357,1000.2813" style="stroke:#181818;stroke-width:1.0;"/><text fill="#000000" font-family="sans-serif" font-size="13" font-weight="bold" lengthAdjust="spacing" textLength="18" x="357" y="982.2153">21</text><text fill="#000000" font-family="sans-serif" font-size="13" lengthAdjust="spacing" textLength="184" x="379" y="982.2153">PID validity and status check</text><line style="stroke:#181818;stroke-width:1.0;" x1="350" x2="392" y1="1029.4141" y2="1029.4141"/><line style="stroke:#181818;stroke-width:1.0;" x1="392" x2="392" y1="1029.4141" y2="1042.4141"/><line style="stroke:#181818;stroke-width:1.0;" x1="351" x2="392" y1="1042.4141" y2="1042.4141"/><polygon fill="#181818" points="361,1038.4141,351,1042.4141,361,1046.4141,357,1042.4141" style="stroke:#181818;stroke-width:1.0;"/><text fill="#000000" font-family="sans-serif" font-size="13" font-weight="bold" lengthAdjust="spacing" textLength="18" x="357" y="1024.3481">22</text><text fill="#000000" font-family="sans-serif" font-size="13" lengthAdjust="spacing" textLength="100" x="379" y="1024.3481">store credential</text><!--SRC=[hLHTQnin47pNhrYIG6smwNl0WQHn4zDGJ9gGby8XtwrzYy_ILHzstL_VbUviwwwfwKF1S5YQtPsTdPNqJYk_MQ0HefR6KKwrL0ukNYsQ2v0Ml10B_RCv-631RXXLbrhX1Lm-qQfqTvN7RkoTqRjZkEpUlScgGWSpPPrKEKRCJg0gWAk8Tx5pexTKjFaMFSnyTjy5K0-0i_lRRv32uBjwCTuwBE29h8jHJWWncKGOMUj9hG0c4o5sCBu1VmrwuIGfs6jl0aXu6FF5xXhsQ8KmIZi4lUNSkv63oxV7sSjKj34IAgu2UWc7gYcPq7eCvrhZ6wwKQxKaim5N8bYiC7UaLOZkH0dFzRcyNlUg4qzbzl3uyl0ydNuLFRKXBp5VSxUbTB50HnQo49GBjSBTP-H36QjB7a_R3JaB6tIoa4wct8DEEs3w1YMpcN_vDELM2WIcHKiAb2E66CDLO63GrbfPpDo-nX4mGSUVl29KBgDY5AEpl0mTg1Ns_sTCejGCavw_Xdv5fbd1rAYo8p1Oa67nCc_ec5PQjcN4DKNxnvEhHh23NhVEOI36LrT3I8McqQ8ZT4V8liez7vyH-dmUIoibdJTuY6mJ9pGXpYeCQIihAiZj8PcIeCQsF0E3Fpm71Nb474tmkRm-oeamI6QHe8V2ouYcVmABhch-i1oU9O_n74Lvmtr7heHcNn_vPOcjvC4ZoYLDKCiLqle7Dp4HjicHu-uiwEJQ5Qem0eJxkPx36lT_lQkDPl6NsdHtn-arAc2IjIRbH6BsvYRLPsNuOJeua8cqrZuioWWuIPt5Gl_5kTrb64O5Msdo7AtD8aNEcIdDeU-rlcJfog1Bx9ntl0XZazMVYz_emxzQCpThmrm7RUQeU0z_JjHJdKJPex3XdSOKC-YrSxnfDUFy6-b6q2fxgZpichHTxBkdrwbunXK_ti6gLHLNxfHrRB2IuJaNf9hKeTVGH3F9njGV3Mvrws_ekhZH8NHyIdfWcGWR0CTb3YiHvkfjypeaEEkqIVdz1W00]--></g></svg>