<?xml version="1.0" encoding="us-ascii" standalone="no"?><svg xmlns="http://www.w3.org/2000/svg" xmlns:xlink="http://www.w3.org/1999/xlink" contentStyleType="text/css" height="1117px" preserveAspectRatio="none" style="width:1718px;height:1117px;background:#FFFFFF;" version="1.1" viewBox="0 0 1718 1117" width="1718px" zoomAndPan="magnify"><defs/><g><rect fill="#ADD8E6" height="1105.0078" style="stroke:#181818;stroke-width:0.5;" width="431.5" x="67" y="6"/><text fill="#000000" font-family="sans-serif" font-size="13" font-weight="bold" lengthAdjust="spacing" textLength="143" x="211.25" y="18.0669">User's smartphone</text><line style="stroke:#181818;stroke-width:0.5;stroke-dasharray:5.0,5.0;" x1="38" x2="38" y1="56.4297" y2="1060.4141"/><line style="stroke:#181818;stroke-width:0.5;stroke-dasharray:5.0,5.0;" x1="107" x2="107" y1="56.4297" y2="1060.4141"/><line style="stroke:#181818;stroke-width:0.5;stroke-dasharray:5.0,5.0;" x1="431.5" x2="431.5" y1="56.4297" y2="1060.4141"/><line style="stroke:#181818;stroke-width:0.5;stroke-dasharray:5.0,5.0;" x1="816" x2="816" y1="56.4297" y2="1060.4141"/><line style="stroke:#181818;stroke-width:0.5;stroke-dasharray:5.0,5.0;" x1="1492" x2="1492" y1="56.4297" y2="1060.4141"/><line style="stroke:#181818;stroke-width:0.5;stroke-dasharray:5.0,5.0;" x1="1629" x2="1629" y1="56.4297" y2="1060.4141"/><rect fill="#E2E2F0" height="30.2969" rx="2.5" ry="2.5" style="stroke:#181818;stroke-width:0.5;" width="45" x="16" y="25.1328"/><text fill="#000000" font-family="sans-serif" font-size="14" lengthAdjust="spacing" textLength="31" x="23" y="45.1279">User</text><rect fill="#E2E2F0" height="30.2969" rx="2.5" ry="2.5" style="stroke:#181818;stroke-width:0.5;" width="45" x="16" y="1059.4141"/><text fill="#000000" font-family="sans-serif" font-size="14" lengthAdjust="spacing" textLength="31" x="23" y="1079.4092">User</text><rect fill="#E2E2F0" height="30.2969" rx="2.5" ry="2.5" style="stroke:#181818;stroke-width:0.5;" width="72" x="71" y="25.1328"/><text fill="#000000" font-family="sans-serif" font-size="14" lengthAdjust="spacing" textLength="58" x="78" y="45.1279">Browser</text><rect fill="#E2E2F0" height="30.2969" rx="2.5" ry="2.5" style="stroke:#181818;stroke-width:0.5;" width="72" x="71" y="1059.4141"/><text fill="#000000" font-family="sans-serif" font-size="14" lengthAdjust="spacing" textLength="58" x="78" y="1079.4092">Browser</text><rect fill="#E2E2F0" height="30.2969" rx="2.5" ry="2.5" style="stroke:#181818;stroke-width:0.5;" width="125" x="369.5" y="25.1328"/><text fill="#000000" font-family="sans-serif" font-size="14" lengthAdjust="spacing" textLength="111" x="376.5" y="45.1279">Wallet Instance</text><rect fill="#E2E2F0" height="30.2969" rx="2.5" ry="2.5" style="stroke:#181818;stroke-width:0.5;" width="125" x="369.5" y="1059.4141"/><text fill="#000000" font-family="sans-serif" font-size="14" lengthAdjust="spacing" textLength="111" x="376.5" y="1079.4092">Wallet Instance</text><rect fill="#E2E2F0" height="30.2969" rx="2.5" ry="2.5" style="stroke:#181818;stroke-width:0.5;" width="124" x="754" y="25.1328"/><text fill="#000000" font-family="sans-serif" font-size="14" lengthAdjust="spacing" textLength="110" x="761" y="45.1279">Wallet Provider</text><rect fill="#E2E2F0" height="30.2969" rx="2.5" ry="2.5" style="stroke:#181818;stroke-width:0.5;" width="124" x="754" y="1059.4141"/><text fill="#000000" font-family="sans-serif" font-size="14" lengthAdjust="spacing" textLength="110" x="761" y="1079.4092">Wallet Provider</text><rect fill="#E2E2F0" height="30.2969" rx="2.5" ry="2.5" style="stroke:#181818;stroke-width:0.5;" width="102" x="1441" y="25.1328"/><text fill="#000000" font-family="sans-serif" font-size="14" lengthAdjust="spacing" textLength="88" x="1448" y="45.1279">PID Provider</text><rect fill="#E2E2F0" height="30.2969" rx="2.5" ry="2.5" style="stroke:#181818;stroke-width:0.5;" width="102" x="1441" y="1059.4141"/><text fill="#000000" font-family="sans-serif" font-size="14" lengthAdjust="spacing" textLength="88" x="1448" y="1079.4092">PID Provider</text><rect fill="#E2E2F0" height="46.5938" rx="2.5" ry="2.5" style="stroke:#181818;stroke-width:0.5;" width="153" x="1553" y="8.8359"/><text fill="#000000" font-family="sans-serif" font-size="14" lengthAdjust="spacing" textLength="135" x="1560" y="28.8311">eIDAS PID Provider</text><text fill="#000000" font-family="sans-serif" font-size="14" lengthAdjust="spacing" textLength="85" x="1587" y="45.1279">Trusted List</text><rect fill="#E2E2F0" height="46.5938" rx="2.5" ry="2.5" style="stroke:#181818;stroke-width:0.5;" width="153" x="1553" y="1059.4141"/><text fill="#000000" font-family="sans-serif" font-size="14" lengthAdjust="spacing" textLength="135" x="1560" y="1079.4092">eIDAS PID Provider</text><text fill="#000000" font-family="sans-serif" font-size="14" lengthAdjust="spacing" textLength="85" x="1587" y="1095.7061">Trusted List</text><rect fill="#EEEEEE" height="3" style="stroke:#EEEEEE;stroke-width:1.0;" width="1711" x="0" y="86.9961"/><line style="stroke:#000000;stroke-width:1.0;" x1="0" x2="1711" y1="86.9961" y2="86.9961"/><line style="stroke:#000000;stroke-width:1.0;" x1="0" x2="1711" y1="89.9961" y2="89.9961"/><rect fill="#EEEEEE" height="23.1328" style="stroke:#000000;stroke-width:2.0;" width="106" x="802.5" y="76.4297"/><text fill="#000000" font-family="sans-serif" font-size="13" font-weight="bold" lengthAdjust="spacing" textLength="82" x="808.5" y="92.4966">PID issuing</text><polygon fill="#181818" points="49.5,126.6953,39.5,130.6953,49.5,134.6953,45.5,130.6953" style="stroke:#181818;stroke-width:1.0;"/><line style="stroke:#181818;stroke-width:1.0;" x1="43.5" x2="431" y1="130.6953" y2="130.6953"/><text fill="#000000" font-family="sans-serif" font-size="13" font-weight="bold" lengthAdjust="spacing" textLength="9" x="55.5" y="125.6294">1</text><text fill="#000000" font-family="sans-serif" font-size="13" lengthAdjust="spacing" textLength="98" x="68.5" y="125.6294">obtain your PID</text><polygon fill="#181818" points="420,155.8281,430,159.8281,420,163.8281,424,159.8281" style="stroke:#181818;stroke-width:1.0;"/><line style="stroke:#181818;stroke-width:1.0;stroke-dasharray:2.0,2.0;" x1="38.5" x2="426" y1="159.8281" y2="159.8281"/><text fill="#000000" font-family="sans-serif" font-size="13" font-weight="bold" lengthAdjust="spacing" textLength="9" x="45.5" y="154.7622">2</text><text fill="#000000" font-family="sans-serif" font-size="13" lengthAdjust="spacing" textLength="23" x="58.5" y="154.7622">yes</text><rect fill="#FFFFFF" height="23" style="stroke:#181818;stroke-width:0.5;" width="1331" x="365" y="172.8281"/><text fill="#000000" font-family="sans-serif" font-size="13" lengthAdjust="spacing" textLength="226" x="917.75" y="188.895">obtain a list of Trusted PID Provider</text><polygon fill="#181818" points="49.5,218.0938,39.5,222.0938,49.5,226.0938,45.5,222.0938" style="stroke:#181818;stroke-width:1.0;"/><line style="stroke:#181818;stroke-width:1.0;" x1="43.5" x2="431" y1="222.0938" y2="222.0938"/><text fill="#000000" font-family="sans-serif" font-size="13" font-weight="bold" lengthAdjust="spacing" textLength="8" x="55.5" y="217.0278">3</text><text fill="#000000" font-family="sans-serif" font-size="13" lengthAdjust="spacing" textLength="234" x="67.5" y="217.0278">confirm the selection of PID Provider</text><polygon fill="#181818" points="420,247.2266,430,251.2266,420,255.2266,424,251.2266" style="stroke:#181818;stroke-width:1.0;"/><line style="stroke:#181818;stroke-width:1.0;stroke-dasharray:2.0,2.0;" x1="38.5" x2="426" y1="251.2266" y2="251.2266"/><text fill="#000000" font-family="sans-serif" font-size="13" font-weight="bold" lengthAdjust="spacing" textLength="9" x="45.5" y="246.1606">4</text><text fill="#000000" font-family="sans-serif" font-size="13" lengthAdjust="spacing" textLength="15" x="58.5" y="246.1606">ok</text><rect fill="#90EE90" height="23" style="stroke:#181818;stroke-width:0.5;" width="1168" x="377" y="264.2266"/><text fill="#000000" font-family="sans-serif" font-size="13" lengthAdjust="spacing" textLength="599" x="661.75" y="280.2935">Wallet Instance checks that the PID Provider is part of the Federation and obtain its metadata</text><line style="stroke:#181818;stroke-width:1.0;" x1="432" x2="474" y1="313.4922" y2="313.4922"/><line style="stroke:#181818;stroke-width:1.0;" x1="474" x2="474" y1="313.4922" y2="326.4922"/><line style="stroke:#181818;stroke-width:1.0;" x1="433" x2="474" y1="326.4922" y2="326.4922"/><polygon fill="#181818" points="443,322.4922,433,326.4922,443,330.4922,439,326.4922" style="stroke:#181818;stroke-width:1.0;"/><text fill="#000000" font-family="sans-serif" font-size="13" font-weight="bold" lengthAdjust="spacing" textLength="9" x="439" y="308.4263">5</text><text fill="#000000" font-family="sans-serif" font-size="13" lengthAdjust="spacing" textLength="162" x="452" y="308.4263">create PKCE code verifier</text><polygon fill="#181818" points="1480,351.625,1490,355.625,1480,359.625,1484,355.625" style="stroke:#181818;stroke-width:1.0;"/><line style="stroke:#181818;stroke-width:1.0;" x1="432" x2="1486" y1="355.625" y2="355.625"/><text fill="#000000" font-family="sans-serif" font-size="13" font-weight="bold" lengthAdjust="spacing" textLength="9" x="439" y="350.5591">6</text><text fill="#000000" font-family="sans-serif" font-size="13" lengthAdjust="spacing" textLength="1023" x="452" y="350.5591">PAR Request (response_type, client_id, code_challenge, code_challenge_method, request, client_assertion_type, client_assertion=$WalletInstanceAttestation$)</text><rect fill="#90EE90" height="38" style="stroke:#181818;stroke-width:0.5;" width="784" x="762" y="368.625"/><text fill="#000000" font-family="sans-serif" font-size="13" lengthAdjust="spacing" textLength="440" x="898.5" y="384.6919">PID Provider checks that the Wallet Provider is part of the Federation</text><text fill="#000000" font-family="sans-serif" font-size="13" lengthAdjust="spacing" textLength="507" x="898.5" y="399.8247">PID Provider checks that the signature of the Wallet Attestation  and its validity</text><polygon fill="#181818" points="443,429.0234,433,433.0234,443,437.0234,439,433.0234" style="stroke:#181818;stroke-width:1.0;"/><line style="stroke:#181818;stroke-width:1.0;stroke-dasharray:2.0,2.0;" x1="437" x2="1491" y1="433.0234" y2="433.0234"/><text fill="#000000" font-family="sans-serif" font-size="13" font-weight="bold" lengthAdjust="spacing" textLength="9" x="449" y="427.9575">7</text><text fill="#000000" font-family="sans-serif" font-size="13" lengthAdjust="spacing" textLength="252" x="462" y="427.9575">PAR Response (request_uri, expires_in)</text><polygon fill="#181818" points="118,458.1563,108,462.1563,118,466.1563,114,462.1563" style="stroke:#181818;stroke-width:1.0;"/><line style="stroke:#181818;stroke-width:1.0;stroke-dasharray:2.0,2.0;" x1="112" x2="431" y1="462.1563" y2="462.1563"/><text fill="#000000" font-family="sans-serif" font-size="13" font-weight="bold" lengthAdjust="spacing" textLength="9" x="124" y="457.0903">8</text><text fill="#000000" font-family="sans-serif" font-size="13" lengthAdjust="spacing" textLength="288" x="137" y="457.0903">Authorization Request (client_id, request_uri)</text><polygon fill="#181818" points="1480,487.2891,1490,491.2891,1480,495.2891,1484,491.2891" style="stroke:#181818;stroke-width:1.0;"/><line style="stroke:#181818;stroke-width:1.0;stroke-dasharray:2.0,2.0;" x1="107" x2="1486" y1="491.2891" y2="491.2891"/><text fill="#000000" font-family="sans-serif" font-size="13" font-weight="bold" lengthAdjust="spacing" textLength="9" x="114" y="486.2231">9</text><text fill="#000000" font-family="sans-serif" font-size="13" lengthAdjust="spacing" textLength="288" x="127" y="486.2231">Authorization Request (client_id, request_uri)</text><rect fill="#FFFFFF" height="23" style="stroke:#181818;stroke-width:0.5;" width="1522" x="5" y="504.2891"/><text fill="#000000" font-family="sans-serif" font-size="13" lengthAdjust="spacing" textLength="312" x="610" y="520.356">user authentication with eIDAS High and consent</text><polygon fill="#181818" points="118,549.5547,108,553.5547,118,557.5547,114,553.5547" style="stroke:#181818;stroke-width:1.0;"/><line style="stroke:#181818;stroke-width:1.0;stroke-dasharray:2.0,2.0;" x1="112" x2="1491" y1="553.5547" y2="553.5547"/><text fill="#000000" font-family="sans-serif" font-size="13" font-weight="bold" lengthAdjust="spacing" textLength="19" x="124" y="548.4888">10</text><text fill="#000000" font-family="sans-serif" font-size="13" lengthAdjust="spacing" textLength="197" x="147" y="548.4888">Authorization Response (code)</text><polygon fill="#181818" points="420,578.6875,430,582.6875,420,586.6875,424,582.6875" style="stroke:#181818;stroke-width:1.0;"/><line style="stroke:#181818;stroke-width:1.0;stroke-dasharray:2.0,2.0;" x1="107" x2="426" y1="582.6875" y2="582.6875"/><text fill="#000000" font-family="sans-serif" font-size="13" font-weight="bold" lengthAdjust="spacing" textLength="18" x="114" y="577.6216">11</text><text fill="#000000" font-family="sans-serif" font-size="13" lengthAdjust="spacing" textLength="197" x="136" y="577.6216">Authorization Response (code)</text><line style="stroke:#181818;stroke-width:1.0;" x1="432" x2="474" y1="611.8203" y2="611.8203"/><line style="stroke:#181818;stroke-width:1.0;" x1="474" x2="474" y1="611.8203" y2="624.8203"/><line style="stroke:#181818;stroke-width:1.0;" x1="433" x2="474" y1="624.8203" y2="624.8203"/><polygon fill="#181818" points="443,620.8203,433,624.8203,443,628.8203,439,624.8203" style="stroke:#181818;stroke-width:1.0;"/><text fill="#000000" font-family="sans-serif" font-size="13" font-weight="bold" lengthAdjust="spacing" textLength="18" x="439" y="606.7544">12</text><text fill="#000000" font-family="sans-serif" font-size="13" lengthAdjust="spacing" textLength="123" x="461" y="606.7544">generate DPoP key</text><line style="stroke:#181818;stroke-width:1.0;" x1="432" x2="474" y1="653.9531" y2="653.9531"/><line style="stroke:#181818;stroke-width:1.0;" x1="474" x2="474" y1="653.9531" y2="666.9531"/><line style="stroke:#181818;stroke-width:1.0;" x1="433" x2="474" y1="666.9531" y2="666.9531"/><polygon fill="#181818" points="443,662.9531,433,666.9531,443,670.9531,439,666.9531" style="stroke:#181818;stroke-width:1.0;"/><text fill="#000000" font-family="sans-serif" font-size="13" font-weight="bold" lengthAdjust="spacing" textLength="17" x="439" y="648.8872">13</text><text fill="#000000" font-family="sans-serif" font-size="13" lengthAdjust="spacing" textLength="338" x="460" y="648.8872">generate DPoP proof for PID Provider token endpoint</text><polygon fill="#181818" points="1480,692.0859,1490,696.0859,1480,700.0859,1484,696.0859" style="stroke:#181818;stroke-width:1.0;"/><line style="stroke:#181818;stroke-width:1.0;" x1="432" x2="1486" y1="696.0859" y2="696.0859"/><text fill="#000000" font-family="sans-serif" font-size="13" font-weight="bold" lengthAdjust="spacing" textLength="18" x="439" y="691.02">14</text><text fill="#000000" font-family="sans-serif" font-size="13" lengthAdjust="spacing" textLength="1000" x="461" y="691.02">Token Request with DPoP proof (client_id, grant_type, code, code_verifier, client_assertion_type, client_assertion=$WalletInstanceAttestation$, redirect_uri)</text><polygon fill="#181818" points="443,721.2188,433,725.2188,443,729.2188,439,725.2188" style="stroke:#181818;stroke-width:1.0;"/><line style="stroke:#181818;stroke-width:1.0;" x1="437" x2="1491" y1="725.2188" y2="725.2188"/><text fill="#000000" font-family="sans-serif" font-size="13" font-weight="bold" lengthAdjust="spacing" textLength="18" x="449" y="720.1528">15</text><text fill="#000000" font-family="sans-serif" font-size="13" lengthAdjust="spacing" textLength="554" x="471" y="720.1528">Token Response (access_token, token_type, expires_in, c_nonce, c_nonce_expires_in)</text><line style="stroke:#181818;stroke-width:1.0;" x1="432" x2="474" y1="754.3516" y2="754.3516"/><line style="stroke:#181818;stroke-width:1.0;" x1="474" x2="474" y1="754.3516" y2="767.3516"/><line style="stroke:#181818;stroke-width:1.0;" x1="433" x2="474" y1="767.3516" y2="767.3516"/><polygon fill="#181818" points="443,763.3516,433,767.3516,443,771.3516,439,767.3516" style="stroke:#181818;stroke-width:1.0;"/><text fill="#000000" font-family="sans-serif" font-size="13" font-weight="bold" lengthAdjust="spacing" textLength="18" x="439" y="749.2856">16</text><text fill="#000000" font-family="sans-serif" font-size="13" lengthAdjust="spacing" textLength="211" x="461" y="749.2856">generate fresh key for credential</text><line style="stroke:#181818;stroke-width:1.0;" x1="432" x2="474" y1="796.4844" y2="796.4844"/><line style="stroke:#181818;stroke-width:1.0;" x1="474" x2="474" y1="796.4844" y2="809.4844"/><line style="stroke:#181818;stroke-width:1.0;" x1="433" x2="474" y1="809.4844" y2="809.4844"/><polygon fill="#181818" points="443,805.4844,433,809.4844,443,813.4844,439,809.4844" style="stroke:#181818;stroke-width:1.0;"/><text fill="#000000" font-family="sans-serif" font-size="13" font-weight="bold" lengthAdjust="spacing" textLength="18" x="439" y="791.4185">17</text><text fill="#000000" font-family="sans-serif" font-size="13" lengthAdjust="spacing" textLength="238" x="461" y="791.4185">create proof of possession (c_nonce)</text><line style="stroke:#181818;stroke-width:1.0;" x1="432" x2="474" y1="838.6172" y2="838.6172"/><line style="stroke:#181818;stroke-width:1.0;" x1="474" x2="474" y1="838.6172" y2="851.6172"/><line style="stroke:#181818;stroke-width:1.0;" x1="433" x2="474" y1="851.6172" y2="851.6172"/><polygon fill="#181818" points="443,847.6172,433,851.6172,443,855.6172,439,851.6172" style="stroke:#181818;stroke-width:1.0;"/><text fill="#000000" font-family="sans-serif" font-size="13" font-weight="bold" lengthAdjust="spacing" textLength="18" x="439" y="833.5513">18</text><text fill="#000000" font-family="sans-serif" font-size="13" lengthAdjust="spacing" textLength="348" x="461" y="833.5513">create DPoP proof for PID Provider credential endpoint</text><polygon fill="#181818" points="1480,876.75,1490,880.75,1480,884.75,1484,880.75" style="stroke:#181818;stroke-width:1.0;"/><line style="stroke:#181818;stroke-width:1.0;" x1="432" x2="1486" y1="880.75" y2="880.75"/><text fill="#000000" font-family="sans-serif" font-size="13" font-weight="bold" lengthAdjust="spacing" textLength="18" x="439" y="875.6841">19</text><text fill="#000000" font-family="sans-serif" font-size="13" lengthAdjust="spacing" textLength="623" x="461" y="875.6841">Credential Request with DPoP access_token and DPoP proof (credential_definition, format, proof)</text><rect fill="#ADD8E6" height="38" style="stroke:#181818;stroke-width:0.5;" width="259" x="1362" y="893.75"/><text fill="#000000" font-family="sans-serif" font-size="13" lengthAdjust="spacing" textLength="213" x="1366" y="909.8169">Register all the credential-related</text><text fill="#000000" font-family="sans-serif" font-size="13" lengthAdjust="spacing" textLength="243" x="1366" y="924.9497">information for verification/revocation</text><polygon fill="#181818" points="443,954.1484,433,958.1484,443,962.1484,439,958.1484" style="stroke:#181818;stroke-width:1.0;"/><line style="stroke:#181818;stroke-width:1.0;" x1="437" x2="1491" y1="958.1484" y2="958.1484"/><text fill="#000000" font-family="sans-serif" font-size="13" font-weight="bold" lengthAdjust="spacing" textLength="19" x="449" y="953.0825">20</text><text fill="#000000" font-family="sans-serif" font-size="13" lengthAdjust="spacing" textLength="455" x="472" y="953.0825">Credential Response (format, credential, c_nonce, c_nonce_expires_in)</text><line style="stroke:#181818;stroke-width:1.0;" x1="432" x2="474" y1="987.2813" y2="987.2813"/><line style="stroke:#181818;stroke-width:1.0;" x1="474" x2="474" y1="987.2813" y2="1000.2813"/><line style="stroke:#181818;stroke-width:1.0;" x1="433" x2="474" y1="1000.2813" y2="1000.2813"/><polygon fill="#181818" points="443,996.2813,433,1000.2813,443,1004.2813,439,1000.2813" style="stroke:#181818;stroke-width:1.0;"/><text fill="#000000" font-family="sans-serif" font-size="13" font-weight="bold" lengthAdjust="spacing" textLength="18" x="439" y="982.2153">21</text><text fill="#000000" font-family="sans-serif" font-size="13" lengthAdjust="spacing" textLength="184" x="461" y="982.2153">PID validity and status check</text><line style="stroke:#181818;stroke-width:1.0;" x1="432" x2="474" y1="1029.4141" y2="1029.4141"/><line style="stroke:#181818;stroke-width:1.0;" x1="474" x2="474" y1="1029.4141" y2="1042.4141"/><line style="stroke:#181818;stroke-width:1.0;" x1="433" x2="474" y1="1042.4141" y2="1042.4141"/><polygon fill="#181818" points="443,1038.4141,433,1042.4141,443,1046.4141,439,1042.4141" style="stroke:#181818;stroke-width:1.0;"/><text fill="#000000" font-family="sans-serif" font-size="13" font-weight="bold" lengthAdjust="spacing" textLength="18" x="439" y="1024.3481">22</text><text fill="#000000" font-family="sans-serif" font-size="13" lengthAdjust="spacing" textLength="100" x="461" y="1024.3481">store credential</text><!--SRC=[hLNRQXj137sVhn19e0dOz3tWW9EuYMaendN8Is4PxyfUuVNCTYvstA-lPlRYNQTDMoZamV58EZhdIBBqJYk_NQ8HefJ6KKgbL0xEdYsQCv0Ml11B_LfzyS62tN9KcMk5Pt3-HElStHOU-xctHk_RTDb_Uv55WGwcoZgfKemnUu4g0qOHluoT6RsZhAwtF8cPJU_x0NGIWDFxyLVeXi4tjJ3UEipWYQoBMKu8CHh5CBBMare3Z4P2x65u0_uQzD99Kd3GteGWuM783_jhEA0LmYZj4FIEQ-y73ivV7gUBYQXp91IC0de53MgtcK0zfZFMy8QHKgrMPBRWSWIB1QQEj0hPlIpX6P_XzUO4dTYLwSFZuc4-cNmH9sf3ccEwORQvT16W9mjP2Ce5hF3s2VbB6T4bsrEp8MTXYqvcqibkxq6dFN3x1YLtC_jyDs4g6GAtHIiABSSOufZPU0vp_EwHPRaqQ4kjB2RkKE80qe9GkOIoGKnFqZnGK6iy_J_XBdBDOQQgrAPAoxCNskvNRByUNLIgDAACdUFqIFJY2hfgqc3PKxEdrgcK9yFwZfhlrx6qLj9vWqrcNRZJ9aH3WXCxML16xW0TAmHLizaANUaRb8v29TxG0F2r99O-8NKbeZLXpkKrZ3shQkX71TIwrB6bK-PAU1apwPyJHLzetooDPvT0SYtEehGgjYUNGxN7Ztnn8liqS5Akmvjg3l2sbqQ1C45jp_i_1XwdUeqgk8TmFzCpsE3Xjs-bqUpRIfl-RZczGGNSRAb9ET5PXaLyQVIAL3k5klgj3H-qPgYvmNeZcWNxBmiGNCfuCDB69cfeDdqs4iaqHMkJI6nGyQlnZgF5s8dI3D5-I7fpzrR35R_bGU0e8H-JBCo1BDvUc4eV_Yir4xCs67XPeyJI9_7lkNF4wLZKEdHtV7rhKrU6E9WzyzhC9CCLAGeQ3mB-LlB1Yb5NlKMexytjq_D4p77DFnnX7OeYNe9ZkQ71GeQV4a6ggXRe1rxLD5IByz7WJjSx1FrDgQJfCMkCRRexelsrZK7KzYG5CS9OULlTk4wSTTfqwVm4]--></g></svg>