<?xml version="1.0" encoding="windows-1252" standalone="no"?>
<svg xmlns="http://www.w3.org/2000/svg" xmlns:xlink="http://www.w3.org/1999/xlink" contentStyleType="text/css" height="1257px" preserveAspectRatio="none" style="width:1293px;height:1257px;background:#FFFFFF;" version="1.1" viewBox="0 0 1293 1257" width="1293px" zoomAndPan="magnify"><defs/><g><rect fill="#ADD8E6" height="1245.5703" style="stroke:#181818;stroke-width:0.5;" width="431.5" x="67" y="6"/><text fill="#000000" font-family="sans-serif" font-size="13" font-weight="bold" lengthAdjust="spacing" textLength="143" x="211.25" y="18.0669">User's smartphone</text><line style="stroke:#181818;stroke-width:0.5;stroke-dasharray:5.0,5.0;" x1="38" x2="38" y1="56.4297" y2="1217.2734"/><line style="stroke:#181818;stroke-width:0.5;stroke-dasharray:5.0,5.0;" x1="107" x2="107" y1="56.4297" y2="1217.2734"/><line style="stroke:#181818;stroke-width:0.5;stroke-dasharray:5.0,5.0;" x1="431.5" x2="431.5" y1="56.4297" y2="1217.2734"/><line style="stroke:#181818;stroke-width:0.5;stroke-dasharray:5.0,5.0;" x1="1101" x2="1101" y1="56.4297" y2="1217.2734"/><rect fill="#E2E2F0" height="30.2969" rx="2.5" ry="2.5" style="stroke:#181818;stroke-width:0.5;" width="45" x="16" y="25.1328"/><text fill="#000000" font-family="sans-serif" font-size="14" lengthAdjust="spacing" textLength="31" x="23" y="45.1279">User</text><rect fill="#E2E2F0" height="30.2969" rx="2.5" ry="2.5" style="stroke:#181818;stroke-width:0.5;" width="45" x="16" y="1216.2734"/><text fill="#000000" font-family="sans-serif" font-size="14" lengthAdjust="spacing" textLength="31" x="23" y="1236.2686">User</text><rect fill="#E2E2F0" height="30.2969" rx="2.5" ry="2.5" style="stroke:#181818;stroke-width:0.5;" width="72" x="71" y="25.1328"/><text fill="#000000" font-family="sans-serif" font-size="14" lengthAdjust="spacing" textLength="58" x="78" y="45.1279">Browser</text><rect fill="#E2E2F0" height="30.2969" rx="2.5" ry="2.5" style="stroke:#181818;stroke-width:0.5;" width="72" x="71" y="1216.2734"/><text fill="#000000" font-family="sans-serif" font-size="14" lengthAdjust="spacing" textLength="58" x="78" y="1236.2686">Browser</text><rect fill="#E2E2F0" height="30.2969" rx="2.5" ry="2.5" style="stroke:#181818;stroke-width:0.5;" width="125" x="369.5" y="25.1328"/><text fill="#000000" font-family="sans-serif" font-size="14" lengthAdjust="spacing" textLength="111" x="376.5" y="45.1279">Wallet Instance</text><rect fill="#E2E2F0" height="30.2969" rx="2.5" ry="2.5" style="stroke:#181818;stroke-width:0.5;" width="125" x="369.5" y="1216.2734"/><text fill="#000000" font-family="sans-serif" font-size="14" lengthAdjust="spacing" textLength="111" x="376.5" y="1236.2686">Wallet Instance</text><rect fill="#E2E2F0" height="30.2969" rx="2.5" ry="2.5" style="stroke:#181818;stroke-width:0.5;" width="102" x="1050" y="25.1328"/><text fill="#000000" font-family="sans-serif" font-size="14" lengthAdjust="spacing" textLength="88" x="1057" y="45.1279">PID Provider</text><rect fill="#E2E2F0" height="30.2969" rx="2.5" ry="2.5" style="stroke:#181818;stroke-width:0.5;" width="102" x="1050" y="1216.2734"/><text fill="#000000" font-family="sans-serif" font-size="14" lengthAdjust="spacing" textLength="88" x="1057" y="1236.2686">PID Provider</text><polygon fill="#181818" points="49.5,83.5625,39.5,87.5625,49.5,91.5625,45.5,87.5625" style="stroke:#181818;stroke-width:1.0;"/><line style="stroke:#181818;stroke-width:1.0;" x1="43.5" x2="431" y1="87.5625" y2="87.5625"/><text fill="#000000" font-family="sans-serif" font-size="13" font-weight="bold" lengthAdjust="spacing" textLength="9" x="55.5" y="82.4966">1</text><text fill="#000000" font-family="sans-serif" font-size="13" lengthAdjust="spacing" textLength="98" x="68.5" y="82.4966">obtain your PID</text><polygon fill="#181818" points="420,112.6953,430,116.6953,420,120.6953,424,116.6953" style="stroke:#181818;stroke-width:1.0;"/><line style="stroke:#181818;stroke-width:1.0;stroke-dasharray:2.0,2.0;" x1="38.5" x2="426" y1="116.6953" y2="116.6953"/><text fill="#000000" font-family="sans-serif" font-size="13" font-weight="bold" lengthAdjust="spacing" textLength="9" x="45.5" y="111.6294">2</text><text fill="#000000" font-family="sans-serif" font-size="13" lengthAdjust="spacing" textLength="23" x="58.5" y="111.6294">yes</text><rect fill="#FFFFFF" height="23" style="stroke:#181818;stroke-width:0.5;" width="279" x="292" y="129.6953"/><text fill="#000000" font-family="sans-serif" font-size="13" lengthAdjust="spacing" textLength="271" x="296" y="145.7622">obtain the list of the Trusted PID Providers</text><polygon fill="#181818" points="49.5,174.9609,39.5,178.9609,49.5,182.9609,45.5,178.9609" style="stroke:#181818;stroke-width:1.0;"/><line style="stroke:#181818;stroke-width:1.0;" x1="43.5" x2="431" y1="178.9609" y2="178.9609"/><text fill="#000000" font-family="sans-serif" font-size="13" font-weight="bold" lengthAdjust="spacing" textLength="8" x="55.5" y="173.895">3</text><text fill="#000000" font-family="sans-serif" font-size="13" lengthAdjust="spacing" textLength="234" x="67.5" y="173.895">confirm the selection of PID Provider</text><polygon fill="#181818" points="420,204.0938,430,208.0938,420,212.0938,424,208.0938" style="stroke:#181818;stroke-width:1.0;"/><line style="stroke:#181818;stroke-width:1.0;stroke-dasharray:2.0,2.0;" x1="38.5" x2="426" y1="208.0938" y2="208.0938"/><text fill="#000000" font-family="sans-serif" font-size="13" font-weight="bold" lengthAdjust="spacing" textLength="9" x="45.5" y="203.0278">4</text><text fill="#000000" font-family="sans-serif" font-size="13" lengthAdjust="spacing" textLength="15" x="58.5" y="203.0278">ok</text><rect fill="#90EE90" height="23" style="stroke:#181818;stroke-width:0.5;" width="777" x="377" y="221.0938"/><text fill="#000000" font-family="sans-serif" font-size="13" lengthAdjust="spacing" textLength="437" x="547.25" y="237.1606">Check PID Provider is part of the Federation and obtain its metadata</text><line style="stroke:#181818;stroke-width:1.0;" x1="432" x2="474" y1="270.3594" y2="270.3594"/><line style="stroke:#181818;stroke-width:1.0;" x1="474" x2="474" y1="270.3594" y2="283.3594"/><line style="stroke:#181818;stroke-width:1.0;" x1="433" x2="474" y1="283.3594" y2="283.3594"/><polygon fill="#181818" points="443,279.3594,433,283.3594,443,287.3594,439,283.3594" style="stroke:#181818;stroke-width:1.0;"/><text fill="#000000" font-family="sans-serif" font-size="13" font-weight="bold" lengthAdjust="spacing" textLength="9" x="439" y="265.2935">5</text><text fill="#000000" font-family="sans-serif" font-size="13" lengthAdjust="spacing" textLength="248" x="452" y="265.2935">create PKCE code verifier and WIA-PoP</text><polygon fill="#181818" points="1089,429.5547,1099,433.5547,1089,437.5547,1093,433.5547" style="stroke:#181818;stroke-width:1.0;"/><line style="stroke:#181818;stroke-width:1.0;" x1="432" x2="1095" y1="433.5547" y2="433.5547"/><text fill="#000000" font-family="sans-serif" font-size="13" font-weight="bold" lengthAdjust="spacing" textLength="9" x="439" y="367.9575">6</text><text fill="#000000" font-family="sans-serif" font-size="13" lengthAdjust="spacing" textLength="92" x="452" y="307.4263">PAR Request (</text><text fill="#000000" font-family="sans-serif" font-size="13" lengthAdjust="spacing" textLength="99" x="460" y="322.5591">response_type,</text><text fill="#000000" font-family="sans-serif" font-size="13" lengthAdjust="spacing" textLength="56" x="460" y="337.6919">client_id,</text><text fill="#000000" font-family="sans-serif" font-size="13" lengthAdjust="spacing" textLength="103" x="460" y="352.8247">code_challenge,</text><text fill="#000000" font-family="sans-serif" font-size="13" lengthAdjust="spacing" textLength="160" x="460" y="367.9575">code_challenge_method,</text><text fill="#000000" font-family="sans-serif" font-size="13" lengthAdjust="spacing" textLength="53" x="460" y="383.0903">request,</text><text fill="#000000" font-family="sans-serif" font-size="13" lengthAdjust="spacing" textLength="140" x="460" y="398.2231">client_assertion_type,</text><text fill="#000000" font-family="sans-serif" font-size="13" lengthAdjust="spacing" textLength="199" x="460" y="413.356">client_assertion=WIA~WIA-PoP</text><text fill="#000000" font-family="sans-serif" font-size="13" lengthAdjust="spacing" textLength="5" x="452" y="428.4888">)</text><rect fill="#90EE90" height="38" style="stroke:#181818;stroke-width:0.5;" width="373" x="914" y="446.5547"/><text fill="#000000" font-family="sans-serif" font-size="13" lengthAdjust="spacing" textLength="298" x="918" y="462.6216">Check Wallet Provider is part of the Federation</text><text fill="#000000" font-family="sans-serif" font-size="13" lengthAdjust="spacing" textLength="361" x="918" y="477.7544">Check signature of the Wallet Attestation and its validity</text><polygon fill="#181818" points="443,506.9531,433,510.9531,443,514.9531,439,510.9531" style="stroke:#181818;stroke-width:1.0;"/><line style="stroke:#181818;stroke-width:1.0;stroke-dasharray:2.0,2.0;" x1="437" x2="1100" y1="510.9531" y2="510.9531"/><text fill="#000000" font-family="sans-serif" font-size="13" font-weight="bold" lengthAdjust="spacing" textLength="9" x="449" y="505.8872">7</text><text fill="#000000" font-family="sans-serif" font-size="13" lengthAdjust="spacing" textLength="252" x="462" y="505.8872">PAR Response (request_uri, expires_in)</text><polygon fill="#181818" points="118,536.0859,108,540.0859,118,544.0859,114,540.0859" style="stroke:#181818;stroke-width:1.0;"/><line style="stroke:#181818;stroke-width:1.0;stroke-dasharray:2.0,2.0;" x1="112" x2="431" y1="540.0859" y2="540.0859"/><text fill="#000000" font-family="sans-serif" font-size="13" font-weight="bold" lengthAdjust="spacing" textLength="9" x="124" y="535.02">8</text><text fill="#000000" font-family="sans-serif" font-size="13" lengthAdjust="spacing" textLength="288" x="137" y="535.02">Authorization Request (client_id, request_uri)</text><polygon fill="#181818" points="1089,565.2188,1099,569.2188,1089,573.2188,1093,569.2188" style="stroke:#181818;stroke-width:1.0;"/><line style="stroke:#181818;stroke-width:1.0;stroke-dasharray:2.0,2.0;" x1="107" x2="1095" y1="569.2188" y2="569.2188"/><text fill="#000000" font-family="sans-serif" font-size="13" font-weight="bold" lengthAdjust="spacing" textLength="9" x="114" y="564.1528">9</text><text fill="#000000" font-family="sans-serif" font-size="13" lengthAdjust="spacing" textLength="288" x="127" y="564.1528">Authorization Request (client_id, request_uri)</text><rect fill="#FFFFFF" height="23" style="stroke:#181818;stroke-width:0.5;" width="1131" x="5" y="582.2188"/><text fill="#000000" font-family="sans-serif" font-size="13" lengthAdjust="spacing" textLength="312" x="414.5" y="598.2856">user authentication with eIDAS High and consent</text><polygon fill="#181818" points="118,627.4844,108,631.4844,118,635.4844,114,631.4844" style="stroke:#181818;stroke-width:1.0;"/><line style="stroke:#181818;stroke-width:1.0;stroke-dasharray:2.0,2.0;" x1="112" x2="1100" y1="631.4844" y2="631.4844"/><text fill="#000000" font-family="sans-serif" font-size="13" font-weight="bold" lengthAdjust="spacing" textLength="19" x="124" y="626.4185">10</text><text fill="#000000" font-family="sans-serif" font-size="13" lengthAdjust="spacing" textLength="263" x="147" y="626.4185">Authorization Response (code, state, iss)</text><polygon fill="#181818" points="420,656.6172,430,660.6172,420,664.6172,424,660.6172" style="stroke:#181818;stroke-width:1.0;"/><line style="stroke:#181818;stroke-width:1.0;stroke-dasharray:2.0,2.0;" x1="107" x2="426" y1="660.6172" y2="660.6172"/><text fill="#000000" font-family="sans-serif" font-size="13" font-weight="bold" lengthAdjust="spacing" textLength="18" x="114" y="655.5513">11</text><text fill="#000000" font-family="sans-serif" font-size="13" lengthAdjust="spacing" textLength="263" x="136" y="655.5513">Authorization Response (code, state, iss)</text><line style="stroke:#181818;stroke-width:1.0;" x1="432" x2="474" y1="689.75" y2="689.75"/><line style="stroke:#181818;stroke-width:1.0;" x1="474" x2="474" y1="689.75" y2="702.75"/><line style="stroke:#181818;stroke-width:1.0;" x1="433" x2="474" y1="702.75" y2="702.75"/><polygon fill="#181818" points="443,698.75,433,702.75,443,706.75,439,702.75" style="stroke:#181818;stroke-width:1.0;"/><text fill="#000000" font-family="sans-serif" font-size="13" font-weight="bold" lengthAdjust="spacing" textLength="18" x="439" y="684.6841">12</text><text fill="#000000" font-family="sans-serif" font-size="13" lengthAdjust="spacing" textLength="123" x="461" y="684.6841">generate DPoP key</text><line style="stroke:#181818;stroke-width:1.0;" x1="432" x2="474" y1="731.8828" y2="731.8828"/><line style="stroke:#181818;stroke-width:1.0;" x1="474" x2="474" y1="731.8828" y2="744.8828"/><line style="stroke:#181818;stroke-width:1.0;" x1="433" x2="474" y1="744.8828" y2="744.8828"/><polygon fill="#181818" points="443,740.8828,433,744.8828,443,748.8828,439,744.8828" style="stroke:#181818;stroke-width:1.0;"/><text fill="#000000" font-family="sans-serif" font-size="13" font-weight="bold" lengthAdjust="spacing" textLength="17" x="439" y="726.8169">13</text><text fill="#000000" font-family="sans-serif" font-size="13" lengthAdjust="spacing" textLength="424" x="460" y="726.8169">generate DPoP proof and WIA-PoP for PID Provider token endpoint</text><polygon fill="#181818" points="1089,891.0781,1099,895.0781,1089,899.0781,1093,895.0781" style="stroke:#181818;stroke-width:1.0;"/><line style="stroke:#181818;stroke-width:1.0;" x1="432" x2="1095" y1="895.0781" y2="895.0781"/><text fill="#000000" font-family="sans-serif" font-size="13" font-weight="bold" lengthAdjust="spacing" textLength="18" x="439" y="829.481">14</text><text fill="#000000" font-family="sans-serif" font-size="13" lengthAdjust="spacing" textLength="212" x="461" y="768.9497">Token Request with DPoP proof (</text><text fill="#000000" font-family="sans-serif" font-size="13" lengthAdjust="spacing" textLength="56" x="469" y="784.0825">client_id,</text><text fill="#000000" font-family="sans-serif" font-size="13" lengthAdjust="spacing" textLength="74" x="469" y="799.2153">grant_type,</text><text fill="#000000" font-family="sans-serif" font-size="13" lengthAdjust="spacing" textLength="35" x="469" y="814.3481">code,</text><text fill="#000000" font-family="sans-serif" font-size="13" lengthAdjust="spacing" textLength="87" x="469" y="829.481">code_verifier,</text><text fill="#000000" font-family="sans-serif" font-size="13" lengthAdjust="spacing" textLength="568" x="469" y="844.6138">client_assertion_type=urn:ietf:params:oauth:client-assertion-type:jwt-client-attestation,</text><text fill="#000000" font-family="sans-serif" font-size="13" lengthAdjust="spacing" textLength="203" x="465" y="859.7466">client_assertion=WIA~WIA-PoP,</text><text fill="#000000" font-family="sans-serif" font-size="13" lengthAdjust="spacing" textLength="72" x="469" y="874.8794">redirect_uri</text><text fill="#000000" font-family="sans-serif" font-size="13" lengthAdjust="spacing" textLength="5" x="461" y="890.0122">)</text><polygon fill="#181818" points="443,920.2109,433,924.2109,443,928.2109,439,924.2109" style="stroke:#181818;stroke-width:1.0;"/><line style="stroke:#181818;stroke-width:1.0;" x1="437" x2="1100" y1="924.2109" y2="924.2109"/><text fill="#000000" font-family="sans-serif" font-size="13" font-weight="bold" lengthAdjust="spacing" textLength="18" x="449" y="919.145">15</text><text fill="#000000" font-family="sans-serif" font-size="13" lengthAdjust="spacing" textLength="554" x="471" y="919.145">Token Response (access_token, token_type, expires_in, c_nonce, c_nonce_expires_in)</text><line style="stroke:#181818;stroke-width:1.0;" x1="432" x2="474" y1="953.3438" y2="953.3438"/><line style="stroke:#181818;stroke-width:1.0;" x1="474" x2="474" y1="953.3438" y2="966.3438"/><line style="stroke:#181818;stroke-width:1.0;" x1="433" x2="474" y1="966.3438" y2="966.3438"/><polygon fill="#181818" points="443,962.3438,433,966.3438,443,970.3438,439,966.3438" style="stroke:#181818;stroke-width:1.0;"/><text fill="#000000" font-family="sans-serif" font-size="13" font-weight="bold" lengthAdjust="spacing" textLength="18" x="439" y="948.2778">16</text><text fill="#000000" font-family="sans-serif" font-size="13" lengthAdjust="spacing" textLength="238" x="461" y="948.2778">create proof of possession (c_nonce)</text><line style="stroke:#181818;stroke-width:1.0;" x1="432" x2="474" y1="995.4766" y2="995.4766"/><line style="stroke:#181818;stroke-width:1.0;" x1="474" x2="474" y1="995.4766" y2="1008.4766"/><line style="stroke:#181818;stroke-width:1.0;" x1="433" x2="474" y1="1008.4766" y2="1008.4766"/><polygon fill="#181818" points="443,1004.4766,433,1008.4766,443,1012.4766,439,1008.4766" style="stroke:#181818;stroke-width:1.0;"/><text fill="#000000" font-family="sans-serif" font-size="13" font-weight="bold" lengthAdjust="spacing" textLength="18" x="439" y="990.4106">17</text><text fill="#000000" font-family="sans-serif" font-size="13" lengthAdjust="spacing" textLength="348" x="461" y="990.4106">create DPoP proof for PID Provider credential endpoint</text><polygon fill="#181818" points="1089,1033.6094,1099,1037.6094,1089,1041.6094,1093,1037.6094" style="stroke:#181818;stroke-width:1.0;"/><line style="stroke:#181818;stroke-width:1.0;" x1="432" x2="1095" y1="1037.6094" y2="1037.6094"/><text fill="#000000" font-family="sans-serif" font-size="13" font-weight="bold" lengthAdjust="spacing" textLength="18" x="439" y="1032.5435">18</text><text fill="#000000" font-family="sans-serif" font-size="13" lengthAdjust="spacing" textLength="623" x="461" y="1032.5435">Credential Request with DPoP access_token and DPoP proof (credential_definition, format, proof)</text><rect fill="#ADD8E6" height="38" style="stroke:#181818;stroke-width:0.5;" width="259" x="971" y="1050.6094"/><text fill="#000000" font-family="sans-serif" font-size="13" lengthAdjust="spacing" textLength="213" x="975" y="1066.6763">Register all the credential-related</text><text fill="#000000" font-family="sans-serif" font-size="13" lengthAdjust="spacing" textLength="243" x="975" y="1081.8091">information for verification/revocation</text><polygon fill="#181818" points="443,1111.0078,433,1115.0078,443,1119.0078,439,1115.0078" style="stroke:#181818;stroke-width:1.0;"/><line style="stroke:#181818;stroke-width:1.0;" x1="437" x2="1100" y1="1115.0078" y2="1115.0078"/><text fill="#000000" font-family="sans-serif" font-size="13" font-weight="bold" lengthAdjust="spacing" textLength="18" x="449" y="1109.9419">19</text><text fill="#000000" font-family="sans-serif" font-size="13" lengthAdjust="spacing" textLength="455" x="471" y="1109.9419">Credential Response (format, credential, c_nonce, c_nonce_expires_in)</text><line style="stroke:#181818;stroke-width:1.0;" x1="432" x2="474" y1="1144.1406" y2="1144.1406"/><line style="stroke:#181818;stroke-width:1.0;" x1="474" x2="474" y1="1144.1406" y2="1157.1406"/><line style="stroke:#181818;stroke-width:1.0;" x1="433" x2="474" y1="1157.1406" y2="1157.1406"/><polygon fill="#181818" points="443,1153.1406,433,1157.1406,443,1161.1406,439,1157.1406" style="stroke:#181818;stroke-width:1.0;"/><text fill="#000000" font-family="sans-serif" font-size="13" font-weight="bold" lengthAdjust="spacing" textLength="19" x="439" y="1139.0747">20</text><text fill="#000000" font-family="sans-serif" font-size="13" lengthAdjust="spacing" textLength="184" x="462" y="1139.0747">PID validity and status check</text><line style="stroke:#181818;stroke-width:1.0;" x1="432" x2="474" y1="1186.2734" y2="1186.2734"/><line style="stroke:#181818;stroke-width:1.0;" x1="474" x2="474" y1="1186.2734" y2="1199.2734"/><line style="stroke:#181818;stroke-width:1.0;" x1="433" x2="474" y1="1199.2734" y2="1199.2734"/><polygon fill="#181818" points="443,1195.2734,433,1199.2734,443,1203.2734,439,1199.2734" style="stroke:#181818;stroke-width:1.0;"/><text fill="#000000" font-family="sans-serif" font-size="13" font-weight="bold" lengthAdjust="spacing" textLength="18" x="439" y="1181.2075">21</text><text fill="#000000" font-family="sans-serif" font-size="13" lengthAdjust="spacing" textLength="100" x="461" y="1181.2075">store credential</text><!--SRC=[bLLDJzj04BtlhnZ1eKHAr7iaa0Aa41LL4GtYWcGjzYIPukow-u593_tjdVNQpeP01L6a9DwPDs_UlDb8xxJocqSqGbJIECgfaih1qPr5SmJIWXVYKR_41ryis0r7LMkjy0YERsYrTkUbn_tSSwFhFbtkdztBiaG7CsMTL3asCRL0LG1NUSLXFhk4kT7FLBHW9FXLm-WC_1ZqevEaOAkz0OuK7aPyK8zXYrO8exH3qCzee8RZ- -lPOYhQ3BT6ACawqClc-y9uwx20j9mDb1eCBZWwutAvLaiocoR3Oecv8wq2H9ecX6SIp44_xLCO4girkxfUNDrEfp_4nHhpfxrC80kX-OxKD-I7igaXMPoMEZaB6tIoa4wc38CaDJ19Wv9hphzVJ9bmWS35QKaC7q3kPvFHNC_RUEBu-UGMRl6tHrRZv4416BILLXOpjwrm69xa9Q5o6HNn5uDc-JeCKQtmZKSPqrlh66mYSWeZBHiZT7LGe3yvPPf_MweFQW2fZc-fs3hg0qAs2PPMIZfli0jf4IRECTkTva7iPrbIGMuBYTg2ejDw_Q9aSDBsctb3Gy2NYbZDZDGWcZQuLevXubaVGtzYdLxydSoGm0o4bqqcVJfnptyqzDqIU1lSm5YSHNa4gycj0MUNavzmpIlTT9-7dfGxx9iP7PBf90Xc649GaJ_8shw1-bD9EqUlK8Nn8Loo7U09j- -ULKRpF1EVmrAR_Hrp-WaLS4UL9cujMOH5SzA9skYHW9uSBiBAy1MLc3Yqq6z3jtNlE__K6pKcTCinUrLkx5Y7aOnZxAYF7ONOyQ_QZRgJdKS3-Fzsfrt1WbsODvvu24waJhokusu8Ci_HsgoHQ1YLYkqbJXv2dYdDrtR_9Tkp-UjxAAh7xqepGsl3s4_Qp2RyLNmY-S7iEAG8bfLbCi1-VXUxqyCXfgqr1ab7kyFD2boIeaRRK7yZtJ163TwwWyvlxgRY5bVyJn8sgYoRksG7Dp9Ool2_8aX5jD1-w2lQ8-xULuFFkbt3z9BfvxJNMJUiZjskseT74qJjRxKWHh2Jjv27kp69iqwRj9r_]--></g></svg>