<svg width="960" height="540" xmlns="http://www.w3.org/2000/svg" xmlns:xlink="http://www.w3.org/1999/xlink" overflow="hidden"><defs><clipPath id="clip0"><rect x="0" y="0" width="960" height="540"/></clipPath></defs><g clip-path="url(#clip0)"><rect x="0" y="0" width="960" height="540" fill="#FFFFFF"/><path d="M618.5 428C618.5 422.201 623.201 417.5 629 417.5L756 417.5C761.799 417.5 766.5 422.201 766.5 428L766.5 470C766.5 475.799 761.799 480.5 756 480.5L629 480.5C623.201 480.5 618.5 475.799 618.5 470Z" stroke="#595959" stroke-linejoin="round" stroke-miterlimit="10" fill="#EEEEEE" fill-rule="evenodd"/><text font-family="Arial,Arial_MSFontService,sans-serif" font-weight="400" font-size="19" transform="translate(666.37 445)">AgID<tspan font-size="19" x="-31" y="23">Trust Anchor</tspan></text><path d="M457.5 324.834C457.5 320.231 461.231 316.5 465.834 316.5L545.167 316.5C549.769 316.5 553.5 320.231 553.5 324.834L553.5 358.167C553.5 362.769 549.769 366.5 545.167 366.5L465.834 366.5C461.231 366.5 457.5 362.769 457.5 358.167Z" stroke="#595959" stroke-linejoin="round" stroke-miterlimit="10" fill="#EEEEEE" fill-rule="evenodd"/><text font-family="Arial,Arial_MSFontService,sans-serif" font-weight="400" font-size="19" transform="translate(466.759 344)">SPID OP</text><path d="M637.5 86.0002C637.5 81.858 640.858 78.5001 645 78.5001L675 78.5001C679.142 78.5001 682.5 81.858 682.5 86.0002L682.5 121C682.5 125.142 679.142 128.5 675 128.5L645 128.5C640.858 128.5 637.5 125.142 637.5 121Z" stroke="#595959" stroke-linejoin="round" stroke-miterlimit="10" fill="#EEEEEE" fill-rule="evenodd"/><text font-family="Arial,Arial_MSFontService,sans-serif" font-weight="400" font-size="19" transform="translate(646.695 106)">RP</text><path d="M461.5 86.1669C461.5 81.9326 464.933 78.5001 469.167 78.5001L499.833 78.5001C504.068 78.5001 507.5 81.9326 507.5 86.1669L507.5 120.833C507.5 125.067 504.068 128.5 499.833 128.5L469.167 128.5C464.933 128.5 461.5 125.067 461.5 120.833Z" stroke="#595959" stroke-linejoin="round" stroke-miterlimit="10" fill="#EEEEEE" fill-rule="evenodd"/><text font-family="Arial,Arial_MSFontService,sans-serif" font-weight="400" font-size="19" transform="translate(471.033 106)">RP</text><path d="M418.5 174.667C418.5 170.156 422.156 166.5 426.667 166.5L541.333 166.5C545.844 166.5 549.5 170.156 549.5 174.667L549.5 207.333C549.5 211.844 545.844 215.5 541.333 215.5L426.667 215.5C422.156 215.5 418.5 211.844 418.5 207.333Z" stroke="#595959" stroke-linejoin="round" stroke-miterlimit="10" fill="#EEEEEE" fill-rule="evenodd"/><text font-family="Arial,Arial_MSFontService,sans-serif" font-weight="400" font-size="19" transform="translate(431.527 198)">Intermediary</text><path d="M532.5 367.5 700.5 418.146" stroke="#595959" stroke-linejoin="round" stroke-miterlimit="10" fill="none" fill-rule="evenodd"/><path d="M484.5 215.5 700.563 417.768" stroke="#595959" stroke-linejoin="round" stroke-miterlimit="10" fill="none" fill-rule="evenodd"/><path d="M0 0 0.251969 37.7008" stroke="#595959" stroke-linejoin="round" stroke-miterlimit="10" fill="none" fill-rule="evenodd" transform="matrix(-1 0 0 1 484.752 128.5)"/><path d="M792.5 107C792.5 102.858 795.858 99.5001 800 99.5001L830 99.5001C834.142 99.5001 837.5 102.858 837.5 107L837.5 141C837.5 145.142 834.142 148.5 830 148.5L800 148.5C795.858 148.5 792.5 145.142 792.5 141Z" stroke="#595959" stroke-linejoin="round" stroke-miterlimit="10" fill="#EEEEEE" fill-rule="evenodd"/><path d="M749.5 218.833C749.5 214.231 753.231 210.5 757.833 210.5L874.167 210.5C878.769 210.5 882.5 214.231 882.5 218.833L882.5 252.167C882.5 256.769 878.769 260.5 874.167 260.5L757.833 260.5C753.231 260.5 749.5 256.769 749.5 252.167Z" stroke="#595959" stroke-linejoin="round" stroke-miterlimit="10" fill="#EEEEEE" fill-rule="evenodd"/><text font-family="Arial,Arial_MSFontService,sans-serif" font-weight="400" font-size="19" transform="translate(761.268 243)">Intermediary</text><path d="M815.5 148.5 816.602 210.484" stroke="#595959" stroke-linejoin="round" stroke-miterlimit="10" fill="none" fill-rule="evenodd"/><path d="M709.5 86.1669C709.5 81.9326 712.933 78.5001 717.167 78.5001L747.833 78.5001C752.068 78.5001 755.5 81.9326 755.5 86.1669L755.5 120.833C755.5 125.067 752.068 128.5 747.833 128.5L717.167 128.5C712.933 128.5 709.5 125.067 709.5 120.833Z" stroke="#595959" stroke-linejoin="round" stroke-miterlimit="10" fill="#EEEEEE" fill-rule="evenodd"/><text font-family="Arial,Arial_MSFontService,sans-serif" font-weight="400" font-size="19" transform="translate(718.981 106)">RP</text><path d="M798.5 331.834C798.5 327.231 802.231 323.5 806.834 323.5L886.167 323.5C890.769 323.5 894.5 327.231 894.5 331.834L894.5 365.167C894.5 369.769 890.769 373.5 886.167 373.5L806.834 373.5C802.231 373.5 798.5 369.769 798.5 365.167Z" stroke="#595959" stroke-linejoin="round" stroke-miterlimit="10" fill="#EEEEEE" fill-rule="evenodd"/><text font-family="Arial,Arial_MSFontService,sans-serif" font-weight="400" font-size="19" transform="translate(807.618 351)">SPID OP</text><path d="M0 0 140.598 44.2205" stroke="#595959" stroke-linejoin="round" stroke-miterlimit="10" fill="none" fill-rule="evenodd" transform="matrix(-1 0 0 1 841.098 373.5)"/><path d="M0 0 111.811 159.559" stroke="#595959" stroke-linejoin="round" stroke-miterlimit="10" fill="none" fill-rule="evenodd" transform="matrix(-1 0 0 1 812.311 258.5)"/><text font-family="Arial,Arial_MSFontService,sans-serif" font-weight="400" font-size="19" transform="translate(802.879 133)">RP</text><path d="M661.5 129.5 700.461 418.098" stroke="#595959" stroke-linejoin="round" stroke-miterlimit="10" fill="none" fill-rule="evenodd"/><path d="M0 0 33.4173 288.598" stroke="#595959" stroke-linejoin="round" stroke-miterlimit="10" fill="none" fill-rule="evenodd" transform="matrix(-1 0 0 1 733.917 129.5)"/><path d="M224.5 421C224.5 415.201 229.201 410.5 235 410.5L359 410.5C364.799 410.5 369.5 415.201 369.5 421L369.5 463C369.5 468.799 364.799 473.5 359 473.5L235 473.5C229.201 473.5 224.5 468.799 224.5 463Z" stroke="#595959" stroke-linejoin="round" stroke-miterlimit="10" fill="#EEEEEE" fill-rule="evenodd"/><text font-family="Arial,Arial_MSFontService,sans-serif" font-weight="400" font-size="19" transform="translate(251.905 437)">MinInterno<tspan font-size="19" x="-10.3333" y="23">Trust Anchor</tspan></text><path d="M71.5001 317.667C71.5001 313.156 75.1565 309.5 79.6669 309.5L159.333 309.5C163.844 309.5 167.5 313.156 167.5 317.667L167.5 350.333C167.5 354.844 163.844 358.5 159.333 358.5L79.6669 358.5C75.1565 358.5 71.5001 354.844 71.5001 350.333Z" stroke="#595959" stroke-linejoin="round" stroke-miterlimit="10" fill="#EEEEEE" fill-rule="evenodd"/><text font-family="Arial,Arial_MSFontService,sans-serif" font-weight="400" font-size="19" transform="translate(80.9633 337)">CIE OP</text><path d="M317.5 120C317.5 115.858 320.858 112.5 325 112.5L355 112.5C359.142 112.5 362.5 115.858 362.5 120L362.5 155C362.5 159.142 359.142 162.5 355 162.5L325 162.5C320.858 162.5 317.5 159.142 317.5 155Z" stroke="#595959" stroke-linejoin="round" stroke-miterlimit="10" fill="#EEEEEE" fill-rule="evenodd"/><text font-family="Arial,Arial_MSFontService,sans-serif" font-weight="400" font-size="19" transform="translate(326.713 140)">RP</text><path d="M102.5 120.167C102.5 115.933 105.933 112.5 110.167 112.5L140.833 112.5C145.068 112.5 148.5 115.933 148.5 120.167L148.5 153.833C148.5 158.068 145.068 161.5 140.833 161.5L110.167 161.5C105.933 161.5 102.5 158.068 102.5 153.833Z" stroke="#595959" stroke-linejoin="round" stroke-miterlimit="10" fill="#EEEEEE" fill-rule="evenodd"/><text font-family="Arial,Arial_MSFontService,sans-serif" font-weight="400" font-size="19" transform="translate(111.886 139)">RP</text><path d="M124.5 223.834C124.5 219.231 128.231 215.5 132.834 215.5L240.167 215.5C244.769 215.5 248.5 219.231 248.5 223.834L248.5 257.167C248.5 261.769 244.769 265.5 240.167 265.5L132.834 265.5C128.231 265.5 124.5 261.769 124.5 257.167Z" stroke="#595959" stroke-linejoin="round" stroke-miterlimit="10" fill="#EEEEEE" fill-rule="evenodd"/><text font-family="Arial,Arial_MSFontService,sans-serif" font-weight="400" font-size="19" transform="translate(134.081 250)">Intermediary</text><path d="M144.5 359.5 312.5 410.146" stroke="#595959" stroke-linejoin="round" stroke-miterlimit="10" fill="none" fill-rule="evenodd"/><path d="M186.5 265.5 312.547 410.571" stroke="#595959" stroke-linejoin="round" stroke-miterlimit="10" fill="none" fill-rule="evenodd"/><path d="M125.5 161.5 186.886 215.642" stroke="#595959" stroke-linejoin="round" stroke-miterlimit="10" fill="none" fill-rule="evenodd"/><path d="M0 0 163.244 194.173" stroke="#595959" stroke-linejoin="round" stroke-miterlimit="10" fill="none" fill-rule="evenodd" transform="matrix(-1 0 0 1 475.744 216.5)"/><path d="M0 0 27.4016 248.157" stroke="#595959" stroke-linejoin="round" stroke-miterlimit="10" fill="none" fill-rule="evenodd" transform="matrix(-1 0 0 1 339.902 162.5)"/><path d="M0 0 347.811 282.898" stroke="#595959" stroke-linejoin="round" stroke-miterlimit="10" fill="none" fill-rule="evenodd" transform="matrix(1 -1.22465e-16 -1.22465e-16 -1 312.5 411.398)"/><path d="M341.5 163.5 700.02 417.736" stroke="#595959" stroke-linejoin="round" stroke-miterlimit="10" fill="none" fill-rule="evenodd"/></g></svg>