<?xml version="1.0" standalone="no"?>
<svg xmlns="http://www.w3.org/2000/svg" version="1.1" width="201" height="201">
	<!-- Created with https://api.qrserver.com (QR Code API, see goQR.me/api for information) -->
	<title>QR Code</title>
	<desc>ZXVkaXc6Ly9hdXRob3JpemU/Y2xpZW50X2lkPWh0dHBzOi8vdmVyaWZpZXIuZXhhbXBsZS5vcmcmcmVxdWVzdF91cmk9aHR0cHM6Ly92ZXJpZmllci5leGFtcGxlLm9yZy9hMTI1MmY5MC1hNjUyLTRjNDctODAzOS1mNjAwOTZjYXZ6cXc=</desc>
	<rect style="fill:rgb(255, 255, 255);fill-opacity:1" x="0" y="0" width="201" height="201" />
	<g id="elements">
		<path style="fill:rgb(0, 0, 0)" d="M 3,3 l 3,0 0,3 -3,0 z M 6,3 l 3,0 0,3 -3,0 z M 9,3 l 3,0 0,3 -3,0 z M 12,3 l 3,0 0,3 -3,0 z M 15,3 l 3,0 0,3 -3,0 z M 18,3 l 3,0 0,3 -3,0 z M 21,3 l 3,0 0,3 -3,0 z M 27,3 l 3,0 0,3 -3,0 z M 33,3 l 3,0 0,3 -3,0 z M 36,3 l 3,0 0,3 -3,0 z M 39,3 l 3,0 0,3 -3,0 z M 60,3 l 3,0 0,3 -3,0 z M 63,3 l 3,0 0,3 -3,0 z M 72,3 l 3,0 0,3 -3,0 z M 75,3 l 3,0 0,3 -3,0 z M 81,3 l 3,0 0,3 -3,0 z M 84,3 l 3,0 0,3 -3,0 z M 90,3 l 3,0 0,3 -3,0 z M 96,3 l 3,0 0,3 -3,0 z M 102,3 l 3,0 0,3 -3,0 z M 105,3 l 3,0 0,3 -3,0 z M 114,3 l 3,0 0,3 -3,0 z M 117,3 l 3,0 0,3 -3,0 z M 120,3 l 3,0 0,3 -3,0 z M 123,3 l 3,0 0,3 -3,0 z M 126,3 l 3,0 0,3 -3,0 z M 135,3 l 3,0 0,3 -3,0 z M 138,3 l 3,0 0,3 -3,0 z M 144,3 l 3,0 0,3 -3,0 z M 147,3 l 3,0 0,3 -3,0 z M 153,3 l 3,0 0,3 -3,0 z M 168,3 l 3,0 0,3 -3,0 z M 177,3 l 3,0 0,3 -3,0 z M 180,3 l 3,0 0,3 -3,0 z M 183,3 l 3,0 0,3 -3,0 z M 186,3 l 3,0 0,3 -3,0 z M 189,3 l 3,0 0,3 -3,0 z M 192,3 l 3,0 0,3 -3,0 z M 195,3 l 3,0 0,3 -3,0 z M 3,6 l 3,0 0,3 -3,0 z M 21,6 l 3,0 0,3 -3,0 z M 30,6 l 3,0 0,3 -3,0 z M 33,6 l 3,0 0,3 -3,0 z M 39,6 l 3,0 0,3 -3,0 z M 45,6 l 3,0 0,3 -3,0 z M 60,6 l 3,0 0,3 -3,0 z M 66,6 l 3,0 0,3 -3,0 z M 72,6 l 3,0 0,3 -3,0 z M 75,6 l 3,0 0,3 -3,0 z M 78,6 l 3,0 0,3 -3,0 z M 81,6 l 3,0 0,3 -3,0 z M 84,6 l 3,0 0,3 -3,0 z M 93,6 l 3,0 0,3 -3,0 z M 96,6 l 3,0 0,3 -3,0 z M 102,6 l 3,0 0,3 -3,0 z M 105,6 l 3,0 0,3 -3,0 z M 111,6 l 3,0 0,3 -3,0 z M 129,6 l 3,0 0,3 -3,0 z M 132,6 l 3,0 0,3 -3,0 z M 135,6 l 3,0 0,3 -3,0 z M 138,6 l 3,0 0,3 -3,0 z M 141,6 l 3,0 0,3 -3,0 z M 144,6 l 3,0 0,3 -3,0 z M 147,6 l 3,0 0,3 -3,0 z M 162,6 l 3,0 0,3 -3,0 z M 171,6 l 3,0 0,3 -3,0 z M 177,6 l 3,0 0,3 -3,0 z M 195,6 l 3,0 0,3 -3,0 z M 3,9 l 3,0 0,3 -3,0 z M 9,9 l 3,0 0,3 -3,0 z M 12,9 l 3,0 0,3 -3,0 z M 15,9 l 3,0 0,3 -3,0 z M 21,9 l 3,0 0,3 -3,0 z M 30,9 l 3,0 0,3 -3,0 z M 33,9 l 3,0 0,3 -3,0 z M 39,9 l 3,0 0,3 -3,0 z M 42,9 l 3,0 0,3 -3,0 z M 51,9 l 3,0 0,3 -3,0 z M 54,9 l 3,0 0,3 -3,0 z M 66,9 l 3,0 0,3 -3,0 z M 75,9 l 3,0 0,3 -3,0 z M 81,9 l 3,0 0,3 -3,0 z M 84,9 l 3,0 0,3 -3,0 z M 93,9 l 3,0 0,3 -3,0 z M 96,9 l 3,0 0,3 -3,0 z M 114,9 l 3,0 0,3 -3,0 z M 123,9 l 3,0 0,3 -3,0 z M 135,9 l 3,0 0,3 -3,0 z M 144,9 l 3,0 0,3 -3,0 z M 147,9 l 3,0 0,3 -3,0 z M 156,9 l 3,0 0,3 -3,0 z M 165,9 l 3,0 0,3 -3,0 z M 171,9 l 3,0 0,3 -3,0 z M 177,9 l 3,0 0,3 -3,0 z M 183,9 l 3,0 0,3 -3,0 z M 186,9 l 3,0 0,3 -3,0 z M 189,9 l 3,0 0,3 -3,0 z M 195,9 l 3,0 0,3 -3,0 z M 3,12 l 3,0 0,3 -3,0 z M 9,12 l 3,0 0,3 -3,0 z M 12,12 l 3,0 0,3 -3,0 z M 15,12 l 3,0 0,3 -3,0 z M 21,12 l 3,0 0,3 -3,0 z M 42,12 l 3,0 0,3 -3,0 z M 48,12 l 3,0 0,3 -3,0 z M 51,12 l 3,0 0,3 -3,0 z M 57,12 l 3,0 0,3 -3,0 z M 69,12 l 3,0 0,3 -3,0 z M 72,12 l 3,0 0,3 -3,0 z M 81,12 l 3,0 0,3 -3,0 z M 84,12 l 3,0 0,3 -3,0 z M 87,12 l 3,0 0,3 -3,0 z M 93,12 l 3,0 0,3 -3,0 z M 96,12 l 3,0 0,3 -3,0 z M 99,12 l 3,0 0,3 -3,0 z M 102,12 l 3,0 0,3 -3,0 z M 108,12 l 3,0 0,3 -3,0 z M 114,12 l 3,0 0,3 -3,0 z M 120,12 l 3,0 0,3 -3,0 z M 129,12 l 3,0 0,3 -3,0 z M 135,12 l 3,0 0,3 -3,0 z M 138,12 l 3,0 0,3 -3,0 z M 141,12 l 3,0 0,3 -3,0 z M 150,12 l 3,0 0,3 -3,0 z M 153,12 l 3,0 0,3 -3,0 z M 162,12 l 3,0 0,3 -3,0 z M 165,12 l 3,0 0,3 -3,0 z M 168,12 l 3,0 0,3 -3,0 z M 177,12 l 3,0 0,3 -3,0 z M 183,12 l 3,0 0,3 -3,0 z M 186,12 l 3,0 0,3 -3,0 z M 189,12 l 3,0 0,3 -3,0 z M 195,12 l 3,0 0,3 -3,0 z M 3,15 l 3,0 0,3 -3,0 z M 9,15 l 3,0 0,3 -3,0 z M 12,15 l 3,0 0,3 -3,0 z M 15,15 l 3,0 0,3 -3,0 z M 21,15 l 3,0 0,3 -3,0 z M 27,15 l 3,0 0,3 -3,0 z M 30,15 l 3,0 0,3 -3,0 z M 33,15 l 3,0 0,3 -3,0 z M 54,15 l 3,0 0,3 -3,0 z M 57,15 l 3,0 0,3 -3,0 z M 63,15 l 3,0 0,3 -3,0 z M 66,15 l 3,0 0,3 -3,0 z M 72,15 l 3,0 0,3 -3,0 z M 84,15 l 3,0 0,3 -3,0 z M 90,15 l 3,0 0,3 -3,0 z M 93,15 l 3,0 0,3 -3,0 z M 96,15 l 3,0 0,3 -3,0 z M 99,15 l 3,0 0,3 -3,0 z M 102,15 l 3,0 0,3 -3,0 z M 105,15 l 3,0 0,3 -3,0 z M 108,15 l 3,0 0,3 -3,0 z M 111,15 l 3,0 0,3 -3,0 z M 117,15 l 3,0 0,3 -3,0 z M 120,15 l 3,0 0,3 -3,0 z M 123,15 l 3,0 0,3 -3,0 z M 126,15 l 3,0 0,3 -3,0 z M 129,15 l 3,0 0,3 -3,0 z M 132,15 l 3,0 0,3 -3,0 z M 138,15 l 3,0 0,3 -3,0 z M 141,15 l 3,0 0,3 -3,0 z M 144,15 l 3,0 0,3 -3,0 z M 153,15 l 3,0 0,3 -3,0 z M 156,15 l 3,0 0,3 -3,0 z M 159,15 l 3,0 0,3 -3,0 z M 162,15 l 3,0 0,3 -3,0 z M 171,15 l 3,0 0,3 -3,0 z M 177,15 l 3,0 0,3 -3,0 z M 183,15 l 3,0 0,3 -3,0 z M 186,15 l 3,0 0,3 -3,0 z M 189,15 l 3,0 0,3 -3,0 z M 195,15 l 3,0 0,3 -3,0 z M 3,18 l 3,0 0,3 -3,0 z M 21,18 l 3,0 0,3 -3,0 z M 27,18 l 3,0 0,3 -3,0 z M 30,18 l 3,0 0,3 -3,0 z M 36,18 l 3,0 0,3 -3,0 z M 39,18 l 3,0 0,3 -3,0 z M 42,18 l 3,0 0,3 -3,0 z M 48,18 l 3,0 0,3 -3,0 z M 57,18 l 3,0 0,3 -3,0 z M 72,18 l 3,0 0,3 -3,0 z M 78,18 l 3,0 0,3 -3,0 z M 81,18 l 3,0 0,3 -3,0 z M 90,18 l 3,0 0,3 -3,0 z M 93,18 l 3,0 0,3 -3,0 z M 105,18 l 3,0 0,3 -3,0 z M 108,18 l 3,0 0,3 -3,0 z M 111,18 l 3,0 0,3 -3,0 z M 117,18 l 3,0 0,3 -3,0 z M 120,18 l 3,0 0,3 -3,0 z M 126,18 l 3,0 0,3 -3,0 z M 129,18 l 3,0 0,3 -3,0 z M 132,18 l 3,0 0,3 -3,0 z M 138,18 l 3,0 0,3 -3,0 z M 141,18 l 3,0 0,3 -3,0 z M 144,18 l 3,0 0,3 -3,0 z M 147,18 l 3,0 0,3 -3,0 z M 150,18 l 3,0 0,3 -3,0 z M 162,18 l 3,0 0,3 -3,0 z M 165,18 l 3,0 0,3 -3,0 z M 177,18 l 3,0 0,3 -3,0 z M 195,18 l 3,0 0,3 -3,0 z M 3,21 l 3,0 0,3 -3,0 z M 6,21 l 3,0 0,3 -3,0 z M 9,21 l 3,0 0,3 -3,0 z M 12,21 l 3,0 0,3 -3,0 z M 15,21 l 3,0 0,3 -3,0 z M 18,21 l 3,0 0,3 -3,0 z M 21,21 l 3,0 0,3 -3,0 z M 27,21 l 3,0 0,3 -3,0 z M 33,21 l 3,0 0,3 -3,0 z M 39,21 l 3,0 0,3 -3,0 z M 45,21 l 3,0 0,3 -3,0 z M 51,21 l 3,0 0,3 -3,0 z M 57,21 l 3,0 0,3 -3,0 z M 63,21 l 3,0 0,3 -3,0 z M 69,21 l 3,0 0,3 -3,0 z M 75,21 l 3,0 0,3 -3,0 z M 81,21 l 3,0 0,3 -3,0 z M 87,21 l 3,0 0,3 -3,0 z M 93,21 l 3,0 0,3 -3,0 z M 99,21 l 3,0 0,3 -3,0 z M 105,21 l 3,0 0,3 -3,0 z M 111,21 l 3,0 0,3 -3,0 z M 117,21 l 3,0 0,3 -3,0 z M 123,21 l 3,0 0,3 -3,0 z M 129,21 l 3,0 0,3 -3,0 z M 135,21 l 3,0 0,3 -3,0 z M 141,21 l 3,0 0,3 -3,0 z M 147,21 l 3,0 0,3 -3,0 z M 153,21 l 3,0 0,3 -3,0 z M 159,21 l 3,0 0,3 -3,0 z M 165,21 l 3,0 0,3 -3,0 z M 171,21 l 3,0 0,3 -3,0 z M 177,21 l 3,0 0,3 -3,0 z M 180,21 l 3,0 0,3 -3,0 z M 183,21 l 3,0 0,3 -3,0 z M 186,21 l 3,0 0,3 -3,0 z M 189,21 l 3,0 0,3 -3,0 z M 192,21 l 3,0 0,3 -3,0 z M 195,21 l 3,0 0,3 -3,0 z M 30,24 l 3,0 0,3 -3,0 z M 33,24 l 3,0 0,3 -3,0 z M 45,24 l 3,0 0,3 -3,0 z M 54,24 l 3,0 0,3 -3,0 z M 57,24 l 3,0 0,3 -3,0 z M 72,24 l 3,0 0,3 -3,0 z M 78,24 l 3,0 0,3 -3,0 z M 81,24 l 3,0 0,3 -3,0 z M 84,24 l 3,0 0,3 -3,0 z M 87,24 l 3,0 0,3 -3,0 z M 93,24 l 3,0 0,3 -3,0 z M 105,24 l 3,0 0,3 -3,0 z M 108,24 l 3,0 0,3 -3,0 z M 114,24 l 3,0 0,3 -3,0 z M 126,24 l 3,0 0,3 -3,0 z M 138,24 l 3,0 0,3 -3,0 z M 150,24 l 3,0 0,3 -3,0 z M 156,24 l 3,0 0,3 -3,0 z M 159,24 l 3,0 0,3 -3,0 z M 165,24 l 3,0 0,3 -3,0 z M 168,24 l 3,0 0,3 -3,0 z M 6,27 l 3,0 0,3 -3,0 z M 9,27 l 3,0 0,3 -3,0 z M 12,27 l 3,0 0,3 -3,0 z M 15,27 l 3,0 0,3 -3,0 z M 18,27 l 3,0 0,3 -3,0 z M 21,27 l 3,0 0,3 -3,0 z M 24,27 l 3,0 0,3 -3,0 z M 30,27 l 3,0 0,3 -3,0 z M 39,27 l 3,0 0,3 -3,0 z M 42,27 l 3,0 0,3 -3,0 z M 45,27 l 3,0 0,3 -3,0 z M 48,27 l 3,0 0,3 -3,0 z M 54,27 l 3,0 0,3 -3,0 z M 57,27 l 3,0 0,3 -3,0 z M 60,27 l 3,0 0,3 -3,0 z M 69,27 l 3,0 0,3 -3,0 z M 72,27 l 3,0 0,3 -3,0 z M 75,27 l 3,0 0,3 -3,0 z M 78,27 l 3,0 0,3 -3,0 z M 84,27 l 3,0 0,3 -3,0 z M 87,27 l 3,0 0,3 -3,0 z M 93,27 l 3,0 0,3 -3,0 z M 96,27 l 3,0 0,3 -3,0 z M 99,27 l 3,0 0,3 -3,0 z M 102,27 l 3,0 0,3 -3,0 z M 105,27 l 3,0 0,3 -3,0 z M 108,27 l 3,0 0,3 -3,0 z M 111,27 l 3,0 0,3 -3,0 z M 117,27 l 3,0 0,3 -3,0 z M 120,27 l 3,0 0,3 -3,0 z M 126,27 l 3,0 0,3 -3,0 z M 132,27 l 3,0 0,3 -3,0 z M 150,27 l 3,0 0,3 -3,0 z M 153,27 l 3,0 0,3 -3,0 z M 156,27 l 3,0 0,3 -3,0 z M 162,27 l 3,0 0,3 -3,0 z M 180,27 l 3,0 0,3 -3,0 z M 183,27 l 3,0 0,3 -3,0 z M 195,27 l 3,0 0,3 -3,0 z M 3,30 l 3,0 0,3 -3,0 z M 6,30 l 3,0 0,3 -3,0 z M 12,30 l 3,0 0,3 -3,0 z M 18,30 l 3,0 0,3 -3,0 z M 24,30 l 3,0 0,3 -3,0 z M 30,30 l 3,0 0,3 -3,0 z M 36,30 l 3,0 0,3 -3,0 z M 45,30 l 3,0 0,3 -3,0 z M 57,30 l 3,0 0,3 -3,0 z M 69,30 l 3,0 0,3 -3,0 z M 78,30 l 3,0 0,3 -3,0 z M 81,30 l 3,0 0,3 -3,0 z M 93,30 l 3,0 0,3 -3,0 z M 102,30 l 3,0 0,3 -3,0 z M 105,30 l 3,0 0,3 -3,0 z M 108,30 l 3,0 0,3 -3,0 z M 111,30 l 3,0 0,3 -3,0 z M 126,30 l 3,0 0,3 -3,0 z M 129,30 l 3,0 0,3 -3,0 z M 138,30 l 3,0 0,3 -3,0 z M 144,30 l 3,0 0,3 -3,0 z M 147,30 l 3,0 0,3 -3,0 z M 153,30 l 3,0 0,3 -3,0 z M 156,30 l 3,0 0,3 -3,0 z M 159,30 l 3,0 0,3 -3,0 z M 171,30 l 3,0 0,3 -3,0 z M 177,30 l 3,0 0,3 -3,0 z M 186,30 l 3,0 0,3 -3,0 z M 192,30 l 3,0 0,3 -3,0 z M 195,30 l 3,0 0,3 -3,0 z M 3,33 l 3,0 0,3 -3,0 z M 6,33 l 3,0 0,3 -3,0 z M 9,33 l 3,0 0,3 -3,0 z M 12,33 l 3,0 0,3 -3,0 z M 15,33 l 3,0 0,3 -3,0 z M 21,33 l 3,0 0,3 -3,0 z M 27,33 l 3,0 0,3 -3,0 z M 39,33 l 3,0 0,3 -3,0 z M 48,33 l 3,0 0,3 -3,0 z M 87,33 l 3,0 0,3 -3,0 z M 90,33 l 3,0 0,3 -3,0 z M 99,33 l 3,0 0,3 -3,0 z M 105,33 l 3,0 0,3 -3,0 z M 108,33 l 3,0 0,3 -3,0 z M 114,33 l 3,0 0,3 -3,0 z M 117,33 l 3,0 0,3 -3,0 z M 120,33 l 3,0 0,3 -3,0 z M 129,33 l 3,0 0,3 -3,0 z M 132,33 l 3,0 0,3 -3,0 z M 144,33 l 3,0 0,3 -3,0 z M 147,33 l 3,0 0,3 -3,0 z M 150,33 l 3,0 0,3 -3,0 z M 162,33 l 3,0 0,3 -3,0 z M 165,33 l 3,0 0,3 -3,0 z M 168,33 l 3,0 0,3 -3,0 z M 174,33 l 3,0 0,3 -3,0 z M 180,33 l 3,0 0,3 -3,0 z M 189,33 l 3,0 0,3 -3,0 z M 192,33 l 3,0 0,3 -3,0 z M 195,33 l 3,0 0,3 -3,0 z M 27,36 l 3,0 0,3 -3,0 z M 33,36 l 3,0 0,3 -3,0 z M 39,36 l 3,0 0,3 -3,0 z M 42,36 l 3,0 0,3 -3,0 z M 45,36 l 3,0 0,3 -3,0 z M 48,36 l 3,0 0,3 -3,0 z M 54,36 l 3,0 0,3 -3,0 z M 60,36 l 3,0 0,3 -3,0 z M 66,36 l 3,0 0,3 -3,0 z M 72,36 l 3,0 0,3 -3,0 z M 78,36 l 3,0 0,3 -3,0 z M 81,36 l 3,0 0,3 -3,0 z M 84,36 l 3,0 0,3 -3,0 z M 93,36 l 3,0 0,3 -3,0 z M 99,36 l 3,0 0,3 -3,0 z M 102,36 l 3,0 0,3 -3,0 z M 108,36 l 3,0 0,3 -3,0 z M 111,36 l 3,0 0,3 -3,0 z M 114,36 l 3,0 0,3 -3,0 z M 120,36 l 3,0 0,3 -3,0 z M 126,36 l 3,0 0,3 -3,0 z M 129,36 l 3,0 0,3 -3,0 z M 132,36 l 3,0 0,3 -3,0 z M 138,36 l 3,0 0,3 -3,0 z M 141,36 l 3,0 0,3 -3,0 z M 144,36 l 3,0 0,3 -3,0 z M 147,36 l 3,0 0,3 -3,0 z M 150,36 l 3,0 0,3 -3,0 z M 159,36 l 3,0 0,3 -3,0 z M 162,36 l 3,0 0,3 -3,0 z M 165,36 l 3,0 0,3 -3,0 z M 168,36 l 3,0 0,3 -3,0 z M 174,36 l 3,0 0,3 -3,0 z M 177,36 l 3,0 0,3 -3,0 z M 180,36 l 3,0 0,3 -3,0 z M 183,36 l 3,0 0,3 -3,0 z M 3,39 l 3,0 0,3 -3,0 z M 6,39 l 3,0 0,3 -3,0 z M 9,39 l 3,0 0,3 -3,0 z M 21,39 l 3,0 0,3 -3,0 z M 30,39 l 3,0 0,3 -3,0 z M 36,39 l 3,0 0,3 -3,0 z M 39,39 l 3,0 0,3 -3,0 z M 42,39 l 3,0 0,3 -3,0 z M 69,39 l 3,0 0,3 -3,0 z M 72,39 l 3,0 0,3 -3,0 z M 84,39 l 3,0 0,3 -3,0 z M 99,39 l 3,0 0,3 -3,0 z M 108,39 l 3,0 0,3 -3,0 z M 114,39 l 3,0 0,3 -3,0 z M 120,39 l 3,0 0,3 -3,0 z M 123,39 l 3,0 0,3 -3,0 z M 126,39 l 3,0 0,3 -3,0 z M 132,39 l 3,0 0,3 -3,0 z M 135,39 l 3,0 0,3 -3,0 z M 147,39 l 3,0 0,3 -3,0 z M 159,39 l 3,0 0,3 -3,0 z M 174,39 l 3,0 0,3 -3,0 z M 183,39 l 3,0 0,3 -3,0 z M 186,39 l 3,0 0,3 -3,0 z M 189,39 l 3,0 0,3 -3,0 z M 12,42 l 3,0 0,3 -3,0 z M 18,42 l 3,0 0,3 -3,0 z M 24,42 l 3,0 0,3 -3,0 z M 27,42 l 3,0 0,3 -3,0 z M 30,42 l 3,0 0,3 -3,0 z M 45,42 l 3,0 0,3 -3,0 z M 51,42 l 3,0 0,3 -3,0 z M 57,42 l 3,0 0,3 -3,0 z M 63,42 l 3,0 0,3 -3,0 z M 69,42 l 3,0 0,3 -3,0 z M 72,42 l 3,0 0,3 -3,0 z M 81,42 l 3,0 0,3 -3,0 z M 87,42 l 3,0 0,3 -3,0 z M 96,42 l 3,0 0,3 -3,0 z M 102,42 l 3,0 0,3 -3,0 z M 105,42 l 3,0 0,3 -3,0 z M 111,42 l 3,0 0,3 -3,0 z M 144,42 l 3,0 0,3 -3,0 z M 150,42 l 3,0 0,3 -3,0 z M 153,42 l 3,0 0,3 -3,0 z M 156,42 l 3,0 0,3 -3,0 z M 162,42 l 3,0 0,3 -3,0 z M 171,42 l 3,0 0,3 -3,0 z M 180,42 l 3,0 0,3 -3,0 z M 186,42 l 3,0 0,3 -3,0 z M 192,42 l 3,0 0,3 -3,0 z M 21,45 l 3,0 0,3 -3,0 z M 24,45 l 3,0 0,3 -3,0 z M 42,45 l 3,0 0,3 -3,0 z M 45,45 l 3,0 0,3 -3,0 z M 48,45 l 3,0 0,3 -3,0 z M 54,45 l 3,0 0,3 -3,0 z M 57,45 l 3,0 0,3 -3,0 z M 69,45 l 3,0 0,3 -3,0 z M 72,45 l 3,0 0,3 -3,0 z M 78,45 l 3,0 0,3 -3,0 z M 81,45 l 3,0 0,3 -3,0 z M 84,45 l 3,0 0,3 -3,0 z M 87,45 l 3,0 0,3 -3,0 z M 96,45 l 3,0 0,3 -3,0 z M 102,45 l 3,0 0,3 -3,0 z M 105,45 l 3,0 0,3 -3,0 z M 111,45 l 3,0 0,3 -3,0 z M 117,45 l 3,0 0,3 -3,0 z M 126,45 l 3,0 0,3 -3,0 z M 129,45 l 3,0 0,3 -3,0 z M 132,45 l 3,0 0,3 -3,0 z M 138,45 l 3,0 0,3 -3,0 z M 141,45 l 3,0 0,3 -3,0 z M 147,45 l 3,0 0,3 -3,0 z M 150,45 l 3,0 0,3 -3,0 z M 153,45 l 3,0 0,3 -3,0 z M 165,45 l 3,0 0,3 -3,0 z M 183,45 l 3,0 0,3 -3,0 z M 192,45 l 3,0 0,3 -3,0 z M 3,48 l 3,0 0,3 -3,0 z M 15,48 l 3,0 0,3 -3,0 z M 18,48 l 3,0 0,3 -3,0 z M 24,48 l 3,0 0,3 -3,0 z M 30,48 l 3,0 0,3 -3,0 z M 33,48 l 3,0 0,3 -3,0 z M 42,48 l 3,0 0,3 -3,0 z M 48,48 l 3,0 0,3 -3,0 z M 51,48 l 3,0 0,3 -3,0 z M 54,48 l 3,0 0,3 -3,0 z M 57,48 l 3,0 0,3 -3,0 z M 60,48 l 3,0 0,3 -3,0 z M 63,48 l 3,0 0,3 -3,0 z M 66,48 l 3,0 0,3 -3,0 z M 69,48 l 3,0 0,3 -3,0 z M 72,48 l 3,0 0,3 -3,0 z M 81,48 l 3,0 0,3 -3,0 z M 84,48 l 3,0 0,3 -3,0 z M 90,48 l 3,0 0,3 -3,0 z M 99,48 l 3,0 0,3 -3,0 z M 102,48 l 3,0 0,3 -3,0 z M 105,48 l 3,0 0,3 -3,0 z M 111,48 l 3,0 0,3 -3,0 z M 114,48 l 3,0 0,3 -3,0 z M 123,48 l 3,0 0,3 -3,0 z M 126,48 l 3,0 0,3 -3,0 z M 129,48 l 3,0 0,3 -3,0 z M 138,48 l 3,0 0,3 -3,0 z M 144,48 l 3,0 0,3 -3,0 z M 150,48 l 3,0 0,3 -3,0 z M 153,48 l 3,0 0,3 -3,0 z M 159,48 l 3,0 0,3 -3,0 z M 162,48 l 3,0 0,3 -3,0 z M 165,48 l 3,0 0,3 -3,0 z M 168,48 l 3,0 0,3 -3,0 z M 177,48 l 3,0 0,3 -3,0 z M 180,48 l 3,0 0,3 -3,0 z M 189,48 l 3,0 0,3 -3,0 z M 3,51 l 3,0 0,3 -3,0 z M 6,51 l 3,0 0,3 -3,0 z M 9,51 l 3,0 0,3 -3,0 z M 18,51 l 3,0 0,3 -3,0 z M 21,51 l 3,0 0,3 -3,0 z M 36,51 l 3,0 0,3 -3,0 z M 39,51 l 3,0 0,3 -3,0 z M 63,51 l 3,0 0,3 -3,0 z M 66,51 l 3,0 0,3 -3,0 z M 69,51 l 3,0 0,3 -3,0 z M 72,51 l 3,0 0,3 -3,0 z M 78,51 l 3,0 0,3 -3,0 z M 81,51 l 3,0 0,3 -3,0 z M 84,51 l 3,0 0,3 -3,0 z M 87,51 l 3,0 0,3 -3,0 z M 93,51 l 3,0 0,3 -3,0 z M 105,51 l 3,0 0,3 -3,0 z M 111,51 l 3,0 0,3 -3,0 z M 117,51 l 3,0 0,3 -3,0 z M 123,51 l 3,0 0,3 -3,0 z M 126,51 l 3,0 0,3 -3,0 z M 132,51 l 3,0 0,3 -3,0 z M 135,51 l 3,0 0,3 -3,0 z M 147,51 l 3,0 0,3 -3,0 z M 153,51 l 3,0 0,3 -3,0 z M 165,51 l 3,0 0,3 -3,0 z M 168,51 l 3,0 0,3 -3,0 z M 183,51 l 3,0 0,3 -3,0 z M 6,54 l 3,0 0,3 -3,0 z M 9,54 l 3,0 0,3 -3,0 z M 24,54 l 3,0 0,3 -3,0 z M 30,54 l 3,0 0,3 -3,0 z M 36,54 l 3,0 0,3 -3,0 z M 39,54 l 3,0 0,3 -3,0 z M 42,54 l 3,0 0,3 -3,0 z M 45,54 l 3,0 0,3 -3,0 z M 48,54 l 3,0 0,3 -3,0 z M 51,54 l 3,0 0,3 -3,0 z M 54,54 l 3,0 0,3 -3,0 z M 57,54 l 3,0 0,3 -3,0 z M 60,54 l 3,0 0,3 -3,0 z M 63,54 l 3,0 0,3 -3,0 z M 66,54 l 3,0 0,3 -3,0 z M 69,54 l 3,0 0,3 -3,0 z M 72,54 l 3,0 0,3 -3,0 z M 75,54 l 3,0 0,3 -3,0 z M 84,54 l 3,0 0,3 -3,0 z M 87,54 l 3,0 0,3 -3,0 z M 90,54 l 3,0 0,3 -3,0 z M 93,54 l 3,0 0,3 -3,0 z M 96,54 l 3,0 0,3 -3,0 z M 99,54 l 3,0 0,3 -3,0 z M 102,54 l 3,0 0,3 -3,0 z M 108,54 l 3,0 0,3 -3,0 z M 111,54 l 3,0 0,3 -3,0 z M 114,54 l 3,0 0,3 -3,0 z M 117,54 l 3,0 0,3 -3,0 z M 120,54 l 3,0 0,3 -3,0 z M 126,54 l 3,0 0,3 -3,0 z M 129,54 l 3,0 0,3 -3,0 z M 135,54 l 3,0 0,3 -3,0 z M 141,54 l 3,0 0,3 -3,0 z M 144,54 l 3,0 0,3 -3,0 z M 150,54 l 3,0 0,3 -3,0 z M 153,54 l 3,0 0,3 -3,0 z M 156,54 l 3,0 0,3 -3,0 z M 162,54 l 3,0 0,3 -3,0 z M 168,54 l 3,0 0,3 -3,0 z M 183,54 l 3,0 0,3 -3,0 z M 186,54 l 3,0 0,3 -3,0 z M 195,54 l 3,0 0,3 -3,0 z M 12,57 l 3,0 0,3 -3,0 z M 21,57 l 3,0 0,3 -3,0 z M 30,57 l 3,0 0,3 -3,0 z M 39,57 l 3,0 0,3 -3,0 z M 42,57 l 3,0 0,3 -3,0 z M 45,57 l 3,0 0,3 -3,0 z M 48,57 l 3,0 0,3 -3,0 z M 60,57 l 3,0 0,3 -3,0 z M 66,57 l 3,0 0,3 -3,0 z M 69,57 l 3,0 0,3 -3,0 z M 72,57 l 3,0 0,3 -3,0 z M 84,57 l 3,0 0,3 -3,0 z M 90,57 l 3,0 0,3 -3,0 z M 96,57 l 3,0 0,3 -3,0 z M 99,57 l 3,0 0,3 -3,0 z M 102,57 l 3,0 0,3 -3,0 z M 105,57 l 3,0 0,3 -3,0 z M 108,57 l 3,0 0,3 -3,0 z M 132,57 l 3,0 0,3 -3,0 z M 138,57 l 3,0 0,3 -3,0 z M 144,57 l 3,0 0,3 -3,0 z M 147,57 l 3,0 0,3 -3,0 z M 156,57 l 3,0 0,3 -3,0 z M 159,57 l 3,0 0,3 -3,0 z M 168,57 l 3,0 0,3 -3,0 z M 171,57 l 3,0 0,3 -3,0 z M 180,57 l 3,0 0,3 -3,0 z M 183,57 l 3,0 0,3 -3,0 z M 9,60 l 3,0 0,3 -3,0 z M 12,60 l 3,0 0,3 -3,0 z M 18,60 l 3,0 0,3 -3,0 z M 24,60 l 3,0 0,3 -3,0 z M 36,60 l 3,0 0,3 -3,0 z M 39,60 l 3,0 0,3 -3,0 z M 48,60 l 3,0 0,3 -3,0 z M 51,60 l 3,0 0,3 -3,0 z M 54,60 l 3,0 0,3 -3,0 z M 63,60 l 3,0 0,3 -3,0 z M 69,60 l 3,0 0,3 -3,0 z M 78,60 l 3,0 0,3 -3,0 z M 81,60 l 3,0 0,3 -3,0 z M 84,60 l 3,0 0,3 -3,0 z M 87,60 l 3,0 0,3 -3,0 z M 90,60 l 3,0 0,3 -3,0 z M 93,60 l 3,0 0,3 -3,0 z M 108,60 l 3,0 0,3 -3,0 z M 111,60 l 3,0 0,3 -3,0 z M 114,60 l 3,0 0,3 -3,0 z M 129,60 l 3,0 0,3 -3,0 z M 132,60 l 3,0 0,3 -3,0 z M 135,60 l 3,0 0,3 -3,0 z M 150,60 l 3,0 0,3 -3,0 z M 159,60 l 3,0 0,3 -3,0 z M 162,60 l 3,0 0,3 -3,0 z M 165,60 l 3,0 0,3 -3,0 z M 168,60 l 3,0 0,3 -3,0 z M 171,60 l 3,0 0,3 -3,0 z M 174,60 l 3,0 0,3 -3,0 z M 180,60 l 3,0 0,3 -3,0 z M 186,60 l 3,0 0,3 -3,0 z M 192,60 l 3,0 0,3 -3,0 z M 195,60 l 3,0 0,3 -3,0 z M 9,63 l 3,0 0,3 -3,0 z M 15,63 l 3,0 0,3 -3,0 z M 18,63 l 3,0 0,3 -3,0 z M 21,63 l 3,0 0,3 -3,0 z M 24,63 l 3,0 0,3 -3,0 z M 33,63 l 3,0 0,3 -3,0 z M 36,63 l 3,0 0,3 -3,0 z M 42,63 l 3,0 0,3 -3,0 z M 45,63 l 3,0 0,3 -3,0 z M 51,63 l 3,0 0,3 -3,0 z M 60,63 l 3,0 0,3 -3,0 z M 69,63 l 3,0 0,3 -3,0 z M 81,63 l 3,0 0,3 -3,0 z M 84,63 l 3,0 0,3 -3,0 z M 87,63 l 3,0 0,3 -3,0 z M 90,63 l 3,0 0,3 -3,0 z M 93,63 l 3,0 0,3 -3,0 z M 102,63 l 3,0 0,3 -3,0 z M 108,63 l 3,0 0,3 -3,0 z M 120,63 l 3,0 0,3 -3,0 z M 126,63 l 3,0 0,3 -3,0 z M 135,63 l 3,0 0,3 -3,0 z M 138,63 l 3,0 0,3 -3,0 z M 141,63 l 3,0 0,3 -3,0 z M 144,63 l 3,0 0,3 -3,0 z M 147,63 l 3,0 0,3 -3,0 z M 153,63 l 3,0 0,3 -3,0 z M 156,63 l 3,0 0,3 -3,0 z M 171,63 l 3,0 0,3 -3,0 z M 177,63 l 3,0 0,3 -3,0 z M 183,63 l 3,0 0,3 -3,0 z M 189,63 l 3,0 0,3 -3,0 z M 192,63 l 3,0 0,3 -3,0 z M 195,63 l 3,0 0,3 -3,0 z M 3,66 l 3,0 0,3 -3,0 z M 6,66 l 3,0 0,3 -3,0 z M 12,66 l 3,0 0,3 -3,0 z M 24,66 l 3,0 0,3 -3,0 z M 30,66 l 3,0 0,3 -3,0 z M 36,66 l 3,0 0,3 -3,0 z M 45,66 l 3,0 0,3 -3,0 z M 48,66 l 3,0 0,3 -3,0 z M 51,66 l 3,0 0,3 -3,0 z M 60,66 l 3,0 0,3 -3,0 z M 69,66 l 3,0 0,3 -3,0 z M 72,66 l 3,0 0,3 -3,0 z M 75,66 l 3,0 0,3 -3,0 z M 93,66 l 3,0 0,3 -3,0 z M 102,66 l 3,0 0,3 -3,0 z M 108,66 l 3,0 0,3 -3,0 z M 114,66 l 3,0 0,3 -3,0 z M 117,66 l 3,0 0,3 -3,0 z M 123,66 l 3,0 0,3 -3,0 z M 135,66 l 3,0 0,3 -3,0 z M 144,66 l 3,0 0,3 -3,0 z M 150,66 l 3,0 0,3 -3,0 z M 159,66 l 3,0 0,3 -3,0 z M 168,66 l 3,0 0,3 -3,0 z M 174,66 l 3,0 0,3 -3,0 z M 9,69 l 3,0 0,3 -3,0 z M 15,69 l 3,0 0,3 -3,0 z M 21,69 l 3,0 0,3 -3,0 z M 30,69 l 3,0 0,3 -3,0 z M 36,69 l 3,0 0,3 -3,0 z M 39,69 l 3,0 0,3 -3,0 z M 42,69 l 3,0 0,3 -3,0 z M 45,69 l 3,0 0,3 -3,0 z M 48,69 l 3,0 0,3 -3,0 z M 51,69 l 3,0 0,3 -3,0 z M 54,69 l 3,0 0,3 -3,0 z M 57,69 l 3,0 0,3 -3,0 z M 60,69 l 3,0 0,3 -3,0 z M 69,69 l 3,0 0,3 -3,0 z M 75,69 l 3,0 0,3 -3,0 z M 84,69 l 3,0 0,3 -3,0 z M 87,69 l 3,0 0,3 -3,0 z M 111,69 l 3,0 0,3 -3,0 z M 114,69 l 3,0 0,3 -3,0 z M 120,69 l 3,0 0,3 -3,0 z M 126,69 l 3,0 0,3 -3,0 z M 129,69 l 3,0 0,3 -3,0 z M 132,69 l 3,0 0,3 -3,0 z M 138,69 l 3,0 0,3 -3,0 z M 144,69 l 3,0 0,3 -3,0 z M 147,69 l 3,0 0,3 -3,0 z M 156,69 l 3,0 0,3 -3,0 z M 168,69 l 3,0 0,3 -3,0 z M 171,69 l 3,0 0,3 -3,0 z M 174,69 l 3,0 0,3 -3,0 z M 180,69 l 3,0 0,3 -3,0 z M 183,69 l 3,0 0,3 -3,0 z M 186,69 l 3,0 0,3 -3,0 z M 189,69 l 3,0 0,3 -3,0 z M 192,69 l 3,0 0,3 -3,0 z M 6,72 l 3,0 0,3 -3,0 z M 12,72 l 3,0 0,3 -3,0 z M 15,72 l 3,0 0,3 -3,0 z M 27,72 l 3,0 0,3 -3,0 z M 30,72 l 3,0 0,3 -3,0 z M 45,72 l 3,0 0,3 -3,0 z M 48,72 l 3,0 0,3 -3,0 z M 51,72 l 3,0 0,3 -3,0 z M 54,72 l 3,0 0,3 -3,0 z M 57,72 l 3,0 0,3 -3,0 z M 66,72 l 3,0 0,3 -3,0 z M 72,72 l 3,0 0,3 -3,0 z M 84,72 l 3,0 0,3 -3,0 z M 87,72 l 3,0 0,3 -3,0 z M 93,72 l 3,0 0,3 -3,0 z M 96,72 l 3,0 0,3 -3,0 z M 102,72 l 3,0 0,3 -3,0 z M 105,72 l 3,0 0,3 -3,0 z M 108,72 l 3,0 0,3 -3,0 z M 111,72 l 3,0 0,3 -3,0 z M 114,72 l 3,0 0,3 -3,0 z M 126,72 l 3,0 0,3 -3,0 z M 129,72 l 3,0 0,3 -3,0 z M 132,72 l 3,0 0,3 -3,0 z M 144,72 l 3,0 0,3 -3,0 z M 147,72 l 3,0 0,3 -3,0 z M 165,72 l 3,0 0,3 -3,0 z M 171,72 l 3,0 0,3 -3,0 z M 186,72 l 3,0 0,3 -3,0 z M 192,72 l 3,0 0,3 -3,0 z M 6,75 l 3,0 0,3 -3,0 z M 9,75 l 3,0 0,3 -3,0 z M 15,75 l 3,0 0,3 -3,0 z M 18,75 l 3,0 0,3 -3,0 z M 21,75 l 3,0 0,3 -3,0 z M 24,75 l 3,0 0,3 -3,0 z M 27,75 l 3,0 0,3 -3,0 z M 33,75 l 3,0 0,3 -3,0 z M 57,75 l 3,0 0,3 -3,0 z M 63,75 l 3,0 0,3 -3,0 z M 66,75 l 3,0 0,3 -3,0 z M 72,75 l 3,0 0,3 -3,0 z M 81,75 l 3,0 0,3 -3,0 z M 84,75 l 3,0 0,3 -3,0 z M 90,75 l 3,0 0,3 -3,0 z M 96,75 l 3,0 0,3 -3,0 z M 105,75 l 3,0 0,3 -3,0 z M 111,75 l 3,0 0,3 -3,0 z M 132,75 l 3,0 0,3 -3,0 z M 156,75 l 3,0 0,3 -3,0 z M 162,75 l 3,0 0,3 -3,0 z M 165,75 l 3,0 0,3 -3,0 z M 177,75 l 3,0 0,3 -3,0 z M 180,75 l 3,0 0,3 -3,0 z M 183,75 l 3,0 0,3 -3,0 z M 186,75 l 3,0 0,3 -3,0 z M 192,75 l 3,0 0,3 -3,0 z M 9,78 l 3,0 0,3 -3,0 z M 24,78 l 3,0 0,3 -3,0 z M 33,78 l 3,0 0,3 -3,0 z M 36,78 l 3,0 0,3 -3,0 z M 45,78 l 3,0 0,3 -3,0 z M 51,78 l 3,0 0,3 -3,0 z M 57,78 l 3,0 0,3 -3,0 z M 66,78 l 3,0 0,3 -3,0 z M 87,78 l 3,0 0,3 -3,0 z M 90,78 l 3,0 0,3 -3,0 z M 93,78 l 3,0 0,3 -3,0 z M 102,78 l 3,0 0,3 -3,0 z M 108,78 l 3,0 0,3 -3,0 z M 111,78 l 3,0 0,3 -3,0 z M 114,78 l 3,0 0,3 -3,0 z M 123,78 l 3,0 0,3 -3,0 z M 129,78 l 3,0 0,3 -3,0 z M 132,78 l 3,0 0,3 -3,0 z M 135,78 l 3,0 0,3 -3,0 z M 138,78 l 3,0 0,3 -3,0 z M 141,78 l 3,0 0,3 -3,0 z M 144,78 l 3,0 0,3 -3,0 z M 147,78 l 3,0 0,3 -3,0 z M 165,78 l 3,0 0,3 -3,0 z M 168,78 l 3,0 0,3 -3,0 z M 171,78 l 3,0 0,3 -3,0 z M 180,78 l 3,0 0,3 -3,0 z M 186,78 l 3,0 0,3 -3,0 z M 192,78 l 3,0 0,3 -3,0 z M 6,81 l 3,0 0,3 -3,0 z M 12,81 l 3,0 0,3 -3,0 z M 21,81 l 3,0 0,3 -3,0 z M 24,81 l 3,0 0,3 -3,0 z M 27,81 l 3,0 0,3 -3,0 z M 30,81 l 3,0 0,3 -3,0 z M 45,81 l 3,0 0,3 -3,0 z M 48,81 l 3,0 0,3 -3,0 z M 63,81 l 3,0 0,3 -3,0 z M 66,81 l 3,0 0,3 -3,0 z M 69,81 l 3,0 0,3 -3,0 z M 75,81 l 3,0 0,3 -3,0 z M 78,81 l 3,0 0,3 -3,0 z M 81,81 l 3,0 0,3 -3,0 z M 90,81 l 3,0 0,3 -3,0 z M 93,81 l 3,0 0,3 -3,0 z M 99,81 l 3,0 0,3 -3,0 z M 105,81 l 3,0 0,3 -3,0 z M 111,81 l 3,0 0,3 -3,0 z M 120,81 l 3,0 0,3 -3,0 z M 126,81 l 3,0 0,3 -3,0 z M 138,81 l 3,0 0,3 -3,0 z M 141,81 l 3,0 0,3 -3,0 z M 144,81 l 3,0 0,3 -3,0 z M 153,81 l 3,0 0,3 -3,0 z M 156,81 l 3,0 0,3 -3,0 z M 162,81 l 3,0 0,3 -3,0 z M 165,81 l 3,0 0,3 -3,0 z M 171,81 l 3,0 0,3 -3,0 z M 183,81 l 3,0 0,3 -3,0 z M 192,81 l 3,0 0,3 -3,0 z M 3,84 l 3,0 0,3 -3,0 z M 30,84 l 3,0 0,3 -3,0 z M 33,84 l 3,0 0,3 -3,0 z M 36,84 l 3,0 0,3 -3,0 z M 39,84 l 3,0 0,3 -3,0 z M 54,84 l 3,0 0,3 -3,0 z M 57,84 l 3,0 0,3 -3,0 z M 60,84 l 3,0 0,3 -3,0 z M 66,84 l 3,0 0,3 -3,0 z M 81,84 l 3,0 0,3 -3,0 z M 84,84 l 3,0 0,3 -3,0 z M 87,84 l 3,0 0,3 -3,0 z M 90,84 l 3,0 0,3 -3,0 z M 93,84 l 3,0 0,3 -3,0 z M 96,84 l 3,0 0,3 -3,0 z M 99,84 l 3,0 0,3 -3,0 z M 102,84 l 3,0 0,3 -3,0 z M 114,84 l 3,0 0,3 -3,0 z M 120,84 l 3,0 0,3 -3,0 z M 126,84 l 3,0 0,3 -3,0 z M 129,84 l 3,0 0,3 -3,0 z M 135,84 l 3,0 0,3 -3,0 z M 144,84 l 3,0 0,3 -3,0 z M 150,84 l 3,0 0,3 -3,0 z M 159,84 l 3,0 0,3 -3,0 z M 165,84 l 3,0 0,3 -3,0 z M 168,84 l 3,0 0,3 -3,0 z M 171,84 l 3,0 0,3 -3,0 z M 186,84 l 3,0 0,3 -3,0 z M 189,84 l 3,0 0,3 -3,0 z M 192,84 l 3,0 0,3 -3,0 z M 12,87 l 3,0 0,3 -3,0 z M 15,87 l 3,0 0,3 -3,0 z M 21,87 l 3,0 0,3 -3,0 z M 24,87 l 3,0 0,3 -3,0 z M 33,87 l 3,0 0,3 -3,0 z M 36,87 l 3,0 0,3 -3,0 z M 39,87 l 3,0 0,3 -3,0 z M 54,87 l 3,0 0,3 -3,0 z M 57,87 l 3,0 0,3 -3,0 z M 63,87 l 3,0 0,3 -3,0 z M 66,87 l 3,0 0,3 -3,0 z M 69,87 l 3,0 0,3 -3,0 z M 72,87 l 3,0 0,3 -3,0 z M 75,87 l 3,0 0,3 -3,0 z M 78,87 l 3,0 0,3 -3,0 z M 93,87 l 3,0 0,3 -3,0 z M 99,87 l 3,0 0,3 -3,0 z M 108,87 l 3,0 0,3 -3,0 z M 117,87 l 3,0 0,3 -3,0 z M 120,87 l 3,0 0,3 -3,0 z M 123,87 l 3,0 0,3 -3,0 z M 126,87 l 3,0 0,3 -3,0 z M 129,87 l 3,0 0,3 -3,0 z M 132,87 l 3,0 0,3 -3,0 z M 138,87 l 3,0 0,3 -3,0 z M 141,87 l 3,0 0,3 -3,0 z M 147,87 l 3,0 0,3 -3,0 z M 153,87 l 3,0 0,3 -3,0 z M 162,87 l 3,0 0,3 -3,0 z M 165,87 l 3,0 0,3 -3,0 z M 171,87 l 3,0 0,3 -3,0 z M 177,87 l 3,0 0,3 -3,0 z M 180,87 l 3,0 0,3 -3,0 z M 183,87 l 3,0 0,3 -3,0 z M 186,87 l 3,0 0,3 -3,0 z M 189,87 l 3,0 0,3 -3,0 z M 192,87 l 3,0 0,3 -3,0 z M 12,90 l 3,0 0,3 -3,0 z M 15,90 l 3,0 0,3 -3,0 z M 24,90 l 3,0 0,3 -3,0 z M 27,90 l 3,0 0,3 -3,0 z M 36,90 l 3,0 0,3 -3,0 z M 39,90 l 3,0 0,3 -3,0 z M 45,90 l 3,0 0,3 -3,0 z M 54,90 l 3,0 0,3 -3,0 z M 69,90 l 3,0 0,3 -3,0 z M 75,90 l 3,0 0,3 -3,0 z M 78,90 l 3,0 0,3 -3,0 z M 81,90 l 3,0 0,3 -3,0 z M 87,90 l 3,0 0,3 -3,0 z M 93,90 l 3,0 0,3 -3,0 z M 99,90 l 3,0 0,3 -3,0 z M 102,90 l 3,0 0,3 -3,0 z M 105,90 l 3,0 0,3 -3,0 z M 108,90 l 3,0 0,3 -3,0 z M 120,90 l 3,0 0,3 -3,0 z M 126,90 l 3,0 0,3 -3,0 z M 129,90 l 3,0 0,3 -3,0 z M 132,90 l 3,0 0,3 -3,0 z M 138,90 l 3,0 0,3 -3,0 z M 144,90 l 3,0 0,3 -3,0 z M 147,90 l 3,0 0,3 -3,0 z M 153,90 l 3,0 0,3 -3,0 z M 159,90 l 3,0 0,3 -3,0 z M 162,90 l 3,0 0,3 -3,0 z M 165,90 l 3,0 0,3 -3,0 z M 168,90 l 3,0 0,3 -3,0 z M 171,90 l 3,0 0,3 -3,0 z M 174,90 l 3,0 0,3 -3,0 z M 177,90 l 3,0 0,3 -3,0 z M 180,90 l 3,0 0,3 -3,0 z M 183,90 l 3,0 0,3 -3,0 z M 186,90 l 3,0 0,3 -3,0 z M 189,90 l 3,0 0,3 -3,0 z M 192,90 l 3,0 0,3 -3,0 z M 195,90 l 3,0 0,3 -3,0 z M 3,93 l 3,0 0,3 -3,0 z M 9,93 l 3,0 0,3 -3,0 z M 15,93 l 3,0 0,3 -3,0 z M 18,93 l 3,0 0,3 -3,0 z M 21,93 l 3,0 0,3 -3,0 z M 24,93 l 3,0 0,3 -3,0 z M 27,93 l 3,0 0,3 -3,0 z M 30,93 l 3,0 0,3 -3,0 z M 39,93 l 3,0 0,3 -3,0 z M 45,93 l 3,0 0,3 -3,0 z M 54,93 l 3,0 0,3 -3,0 z M 60,93 l 3,0 0,3 -3,0 z M 63,93 l 3,0 0,3 -3,0 z M 66,93 l 3,0 0,3 -3,0 z M 78,93 l 3,0 0,3 -3,0 z M 84,93 l 3,0 0,3 -3,0 z M 87,93 l 3,0 0,3 -3,0 z M 93,93 l 3,0 0,3 -3,0 z M 96,93 l 3,0 0,3 -3,0 z M 99,93 l 3,0 0,3 -3,0 z M 102,93 l 3,0 0,3 -3,0 z M 105,93 l 3,0 0,3 -3,0 z M 108,93 l 3,0 0,3 -3,0 z M 111,93 l 3,0 0,3 -3,0 z M 114,93 l 3,0 0,3 -3,0 z M 117,93 l 3,0 0,3 -3,0 z M 129,93 l 3,0 0,3 -3,0 z M 132,93 l 3,0 0,3 -3,0 z M 141,93 l 3,0 0,3 -3,0 z M 150,93 l 3,0 0,3 -3,0 z M 162,93 l 3,0 0,3 -3,0 z M 165,93 l 3,0 0,3 -3,0 z M 171,93 l 3,0 0,3 -3,0 z M 174,93 l 3,0 0,3 -3,0 z M 177,93 l 3,0 0,3 -3,0 z M 180,93 l 3,0 0,3 -3,0 z M 183,93 l 3,0 0,3 -3,0 z M 189,93 l 3,0 0,3 -3,0 z M 192,93 l 3,0 0,3 -3,0 z M 195,93 l 3,0 0,3 -3,0 z M 3,96 l 3,0 0,3 -3,0 z M 6,96 l 3,0 0,3 -3,0 z M 9,96 l 3,0 0,3 -3,0 z M 12,96 l 3,0 0,3 -3,0 z M 15,96 l 3,0 0,3 -3,0 z M 27,96 l 3,0 0,3 -3,0 z M 30,96 l 3,0 0,3 -3,0 z M 33,96 l 3,0 0,3 -3,0 z M 39,96 l 3,0 0,3 -3,0 z M 42,96 l 3,0 0,3 -3,0 z M 45,96 l 3,0 0,3 -3,0 z M 51,96 l 3,0 0,3 -3,0 z M 57,96 l 3,0 0,3 -3,0 z M 60,96 l 3,0 0,3 -3,0 z M 75,96 l 3,0 0,3 -3,0 z M 87,96 l 3,0 0,3 -3,0 z M 90,96 l 3,0 0,3 -3,0 z M 93,96 l 3,0 0,3 -3,0 z M 105,96 l 3,0 0,3 -3,0 z M 108,96 l 3,0 0,3 -3,0 z M 114,96 l 3,0 0,3 -3,0 z M 117,96 l 3,0 0,3 -3,0 z M 126,96 l 3,0 0,3 -3,0 z M 129,96 l 3,0 0,3 -3,0 z M 147,96 l 3,0 0,3 -3,0 z M 150,96 l 3,0 0,3 -3,0 z M 171,96 l 3,0 0,3 -3,0 z M 183,96 l 3,0 0,3 -3,0 z M 186,96 l 3,0 0,3 -3,0 z M 189,96 l 3,0 0,3 -3,0 z M 195,96 l 3,0 0,3 -3,0 z M 6,99 l 3,0 0,3 -3,0 z M 9,99 l 3,0 0,3 -3,0 z M 12,99 l 3,0 0,3 -3,0 z M 15,99 l 3,0 0,3 -3,0 z M 21,99 l 3,0 0,3 -3,0 z M 27,99 l 3,0 0,3 -3,0 z M 36,99 l 3,0 0,3 -3,0 z M 39,99 l 3,0 0,3 -3,0 z M 42,99 l 3,0 0,3 -3,0 z M 45,99 l 3,0 0,3 -3,0 z M 48,99 l 3,0 0,3 -3,0 z M 54,99 l 3,0 0,3 -3,0 z M 72,99 l 3,0 0,3 -3,0 z M 75,99 l 3,0 0,3 -3,0 z M 78,99 l 3,0 0,3 -3,0 z M 81,99 l 3,0 0,3 -3,0 z M 84,99 l 3,0 0,3 -3,0 z M 90,99 l 3,0 0,3 -3,0 z M 93,99 l 3,0 0,3 -3,0 z M 99,99 l 3,0 0,3 -3,0 z M 105,99 l 3,0 0,3 -3,0 z M 117,99 l 3,0 0,3 -3,0 z M 123,99 l 3,0 0,3 -3,0 z M 132,99 l 3,0 0,3 -3,0 z M 135,99 l 3,0 0,3 -3,0 z M 138,99 l 3,0 0,3 -3,0 z M 141,99 l 3,0 0,3 -3,0 z M 144,99 l 3,0 0,3 -3,0 z M 150,99 l 3,0 0,3 -3,0 z M 162,99 l 3,0 0,3 -3,0 z M 165,99 l 3,0 0,3 -3,0 z M 168,99 l 3,0 0,3 -3,0 z M 171,99 l 3,0 0,3 -3,0 z M 177,99 l 3,0 0,3 -3,0 z M 183,99 l 3,0 0,3 -3,0 z M 3,102 l 3,0 0,3 -3,0 z M 6,102 l 3,0 0,3 -3,0 z M 9,102 l 3,0 0,3 -3,0 z M 12,102 l 3,0 0,3 -3,0 z M 15,102 l 3,0 0,3 -3,0 z M 27,102 l 3,0 0,3 -3,0 z M 30,102 l 3,0 0,3 -3,0 z M 33,102 l 3,0 0,3 -3,0 z M 36,102 l 3,0 0,3 -3,0 z M 39,102 l 3,0 0,3 -3,0 z M 42,102 l 3,0 0,3 -3,0 z M 45,102 l 3,0 0,3 -3,0 z M 48,102 l 3,0 0,3 -3,0 z M 51,102 l 3,0 0,3 -3,0 z M 54,102 l 3,0 0,3 -3,0 z M 57,102 l 3,0 0,3 -3,0 z M 63,102 l 3,0 0,3 -3,0 z M 66,102 l 3,0 0,3 -3,0 z M 72,102 l 3,0 0,3 -3,0 z M 78,102 l 3,0 0,3 -3,0 z M 81,102 l 3,0 0,3 -3,0 z M 87,102 l 3,0 0,3 -3,0 z M 93,102 l 3,0 0,3 -3,0 z M 105,102 l 3,0 0,3 -3,0 z M 108,102 l 3,0 0,3 -3,0 z M 114,102 l 3,0 0,3 -3,0 z M 117,102 l 3,0 0,3 -3,0 z M 120,102 l 3,0 0,3 -3,0 z M 123,102 l 3,0 0,3 -3,0 z M 129,102 l 3,0 0,3 -3,0 z M 132,102 l 3,0 0,3 -3,0 z M 141,102 l 3,0 0,3 -3,0 z M 153,102 l 3,0 0,3 -3,0 z M 165,102 l 3,0 0,3 -3,0 z M 171,102 l 3,0 0,3 -3,0 z M 183,102 l 3,0 0,3 -3,0 z M 186,102 l 3,0 0,3 -3,0 z M 189,102 l 3,0 0,3 -3,0 z M 3,105 l 3,0 0,3 -3,0 z M 12,105 l 3,0 0,3 -3,0 z M 15,105 l 3,0 0,3 -3,0 z M 18,105 l 3,0 0,3 -3,0 z M 21,105 l 3,0 0,3 -3,0 z M 24,105 l 3,0 0,3 -3,0 z M 27,105 l 3,0 0,3 -3,0 z M 33,105 l 3,0 0,3 -3,0 z M 42,105 l 3,0 0,3 -3,0 z M 45,105 l 3,0 0,3 -3,0 z M 48,105 l 3,0 0,3 -3,0 z M 51,105 l 3,0 0,3 -3,0 z M 66,105 l 3,0 0,3 -3,0 z M 75,105 l 3,0 0,3 -3,0 z M 78,105 l 3,0 0,3 -3,0 z M 81,105 l 3,0 0,3 -3,0 z M 93,105 l 3,0 0,3 -3,0 z M 96,105 l 3,0 0,3 -3,0 z M 99,105 l 3,0 0,3 -3,0 z M 102,105 l 3,0 0,3 -3,0 z M 105,105 l 3,0 0,3 -3,0 z M 108,105 l 3,0 0,3 -3,0 z M 111,105 l 3,0 0,3 -3,0 z M 126,105 l 3,0 0,3 -3,0 z M 132,105 l 3,0 0,3 -3,0 z M 135,105 l 3,0 0,3 -3,0 z M 144,105 l 3,0 0,3 -3,0 z M 162,105 l 3,0 0,3 -3,0 z M 171,105 l 3,0 0,3 -3,0 z M 174,105 l 3,0 0,3 -3,0 z M 177,105 l 3,0 0,3 -3,0 z M 180,105 l 3,0 0,3 -3,0 z M 183,105 l 3,0 0,3 -3,0 z M 192,105 l 3,0 0,3 -3,0 z M 195,105 l 3,0 0,3 -3,0 z M 15,108 l 3,0 0,3 -3,0 z M 18,108 l 3,0 0,3 -3,0 z M 24,108 l 3,0 0,3 -3,0 z M 30,108 l 3,0 0,3 -3,0 z M 54,108 l 3,0 0,3 -3,0 z M 63,108 l 3,0 0,3 -3,0 z M 72,108 l 3,0 0,3 -3,0 z M 75,108 l 3,0 0,3 -3,0 z M 81,108 l 3,0 0,3 -3,0 z M 87,108 l 3,0 0,3 -3,0 z M 90,108 l 3,0 0,3 -3,0 z M 93,108 l 3,0 0,3 -3,0 z M 96,108 l 3,0 0,3 -3,0 z M 105,108 l 3,0 0,3 -3,0 z M 111,108 l 3,0 0,3 -3,0 z M 123,108 l 3,0 0,3 -3,0 z M 129,108 l 3,0 0,3 -3,0 z M 132,108 l 3,0 0,3 -3,0 z M 138,108 l 3,0 0,3 -3,0 z M 150,108 l 3,0 0,3 -3,0 z M 162,108 l 3,0 0,3 -3,0 z M 165,108 l 3,0 0,3 -3,0 z M 174,108 l 3,0 0,3 -3,0 z M 180,108 l 3,0 0,3 -3,0 z M 183,108 l 3,0 0,3 -3,0 z M 186,108 l 3,0 0,3 -3,0 z M 9,111 l 3,0 0,3 -3,0 z M 15,111 l 3,0 0,3 -3,0 z M 21,111 l 3,0 0,3 -3,0 z M 30,111 l 3,0 0,3 -3,0 z M 36,111 l 3,0 0,3 -3,0 z M 48,111 l 3,0 0,3 -3,0 z M 57,111 l 3,0 0,3 -3,0 z M 63,111 l 3,0 0,3 -3,0 z M 72,111 l 3,0 0,3 -3,0 z M 81,111 l 3,0 0,3 -3,0 z M 84,111 l 3,0 0,3 -3,0 z M 90,111 l 3,0 0,3 -3,0 z M 111,111 l 3,0 0,3 -3,0 z M 114,111 l 3,0 0,3 -3,0 z M 117,111 l 3,0 0,3 -3,0 z M 126,111 l 3,0 0,3 -3,0 z M 132,111 l 3,0 0,3 -3,0 z M 141,111 l 3,0 0,3 -3,0 z M 159,111 l 3,0 0,3 -3,0 z M 165,111 l 3,0 0,3 -3,0 z M 168,111 l 3,0 0,3 -3,0 z M 180,111 l 3,0 0,3 -3,0 z M 183,111 l 3,0 0,3 -3,0 z M 186,111 l 3,0 0,3 -3,0 z M 3,114 l 3,0 0,3 -3,0 z M 9,114 l 3,0 0,3 -3,0 z M 12,114 l 3,0 0,3 -3,0 z M 15,114 l 3,0 0,3 -3,0 z M 18,114 l 3,0 0,3 -3,0 z M 24,114 l 3,0 0,3 -3,0 z M 27,114 l 3,0 0,3 -3,0 z M 30,114 l 3,0 0,3 -3,0 z M 36,114 l 3,0 0,3 -3,0 z M 39,114 l 3,0 0,3 -3,0 z M 42,114 l 3,0 0,3 -3,0 z M 45,114 l 3,0 0,3 -3,0 z M 48,114 l 3,0 0,3 -3,0 z M 51,114 l 3,0 0,3 -3,0 z M 60,114 l 3,0 0,3 -3,0 z M 69,114 l 3,0 0,3 -3,0 z M 75,114 l 3,0 0,3 -3,0 z M 78,114 l 3,0 0,3 -3,0 z M 84,114 l 3,0 0,3 -3,0 z M 87,114 l 3,0 0,3 -3,0 z M 90,114 l 3,0 0,3 -3,0 z M 93,114 l 3,0 0,3 -3,0 z M 96,114 l 3,0 0,3 -3,0 z M 102,114 l 3,0 0,3 -3,0 z M 105,114 l 3,0 0,3 -3,0 z M 108,114 l 3,0 0,3 -3,0 z M 111,114 l 3,0 0,3 -3,0 z M 126,114 l 3,0 0,3 -3,0 z M 129,114 l 3,0 0,3 -3,0 z M 138,114 l 3,0 0,3 -3,0 z M 141,114 l 3,0 0,3 -3,0 z M 144,114 l 3,0 0,3 -3,0 z M 147,114 l 3,0 0,3 -3,0 z M 150,114 l 3,0 0,3 -3,0 z M 156,114 l 3,0 0,3 -3,0 z M 159,114 l 3,0 0,3 -3,0 z M 165,114 l 3,0 0,3 -3,0 z M 168,114 l 3,0 0,3 -3,0 z M 171,114 l 3,0 0,3 -3,0 z M 174,114 l 3,0 0,3 -3,0 z M 195,114 l 3,0 0,3 -3,0 z M 9,117 l 3,0 0,3 -3,0 z M 12,117 l 3,0 0,3 -3,0 z M 21,117 l 3,0 0,3 -3,0 z M 24,117 l 3,0 0,3 -3,0 z M 33,117 l 3,0 0,3 -3,0 z M 39,117 l 3,0 0,3 -3,0 z M 45,117 l 3,0 0,3 -3,0 z M 48,117 l 3,0 0,3 -3,0 z M 51,117 l 3,0 0,3 -3,0 z M 66,117 l 3,0 0,3 -3,0 z M 72,117 l 3,0 0,3 -3,0 z M 75,117 l 3,0 0,3 -3,0 z M 78,117 l 3,0 0,3 -3,0 z M 81,117 l 3,0 0,3 -3,0 z M 87,117 l 3,0 0,3 -3,0 z M 105,117 l 3,0 0,3 -3,0 z M 108,117 l 3,0 0,3 -3,0 z M 132,117 l 3,0 0,3 -3,0 z M 144,117 l 3,0 0,3 -3,0 z M 147,117 l 3,0 0,3 -3,0 z M 153,117 l 3,0 0,3 -3,0 z M 177,117 l 3,0 0,3 -3,0 z M 183,117 l 3,0 0,3 -3,0 z M 3,120 l 3,0 0,3 -3,0 z M 6,120 l 3,0 0,3 -3,0 z M 9,120 l 3,0 0,3 -3,0 z M 12,120 l 3,0 0,3 -3,0 z M 15,120 l 3,0 0,3 -3,0 z M 18,120 l 3,0 0,3 -3,0 z M 27,120 l 3,0 0,3 -3,0 z M 30,120 l 3,0 0,3 -3,0 z M 39,120 l 3,0 0,3 -3,0 z M 42,120 l 3,0 0,3 -3,0 z M 48,120 l 3,0 0,3 -3,0 z M 51,120 l 3,0 0,3 -3,0 z M 57,120 l 3,0 0,3 -3,0 z M 60,120 l 3,0 0,3 -3,0 z M 87,120 l 3,0 0,3 -3,0 z M 96,120 l 3,0 0,3 -3,0 z M 99,120 l 3,0 0,3 -3,0 z M 108,120 l 3,0 0,3 -3,0 z M 114,120 l 3,0 0,3 -3,0 z M 120,120 l 3,0 0,3 -3,0 z M 123,120 l 3,0 0,3 -3,0 z M 129,120 l 3,0 0,3 -3,0 z M 132,120 l 3,0 0,3 -3,0 z M 147,120 l 3,0 0,3 -3,0 z M 150,120 l 3,0 0,3 -3,0 z M 156,120 l 3,0 0,3 -3,0 z M 159,120 l 3,0 0,3 -3,0 z M 162,120 l 3,0 0,3 -3,0 z M 165,120 l 3,0 0,3 -3,0 z M 174,120 l 3,0 0,3 -3,0 z M 180,120 l 3,0 0,3 -3,0 z M 183,120 l 3,0 0,3 -3,0 z M 186,120 l 3,0 0,3 -3,0 z M 192,120 l 3,0 0,3 -3,0 z M 9,123 l 3,0 0,3 -3,0 z M 12,123 l 3,0 0,3 -3,0 z M 15,123 l 3,0 0,3 -3,0 z M 21,123 l 3,0 0,3 -3,0 z M 24,123 l 3,0 0,3 -3,0 z M 30,123 l 3,0 0,3 -3,0 z M 33,123 l 3,0 0,3 -3,0 z M 42,123 l 3,0 0,3 -3,0 z M 45,123 l 3,0 0,3 -3,0 z M 48,123 l 3,0 0,3 -3,0 z M 51,123 l 3,0 0,3 -3,0 z M 54,123 l 3,0 0,3 -3,0 z M 60,123 l 3,0 0,3 -3,0 z M 63,123 l 3,0 0,3 -3,0 z M 69,123 l 3,0 0,3 -3,0 z M 72,123 l 3,0 0,3 -3,0 z M 75,123 l 3,0 0,3 -3,0 z M 87,123 l 3,0 0,3 -3,0 z M 93,123 l 3,0 0,3 -3,0 z M 99,123 l 3,0 0,3 -3,0 z M 108,123 l 3,0 0,3 -3,0 z M 117,123 l 3,0 0,3 -3,0 z M 120,123 l 3,0 0,3 -3,0 z M 126,123 l 3,0 0,3 -3,0 z M 129,123 l 3,0 0,3 -3,0 z M 138,123 l 3,0 0,3 -3,0 z M 141,123 l 3,0 0,3 -3,0 z M 144,123 l 3,0 0,3 -3,0 z M 147,123 l 3,0 0,3 -3,0 z M 156,123 l 3,0 0,3 -3,0 z M 159,123 l 3,0 0,3 -3,0 z M 168,123 l 3,0 0,3 -3,0 z M 171,123 l 3,0 0,3 -3,0 z M 183,123 l 3,0 0,3 -3,0 z M 189,123 l 3,0 0,3 -3,0 z M 3,126 l 3,0 0,3 -3,0 z M 18,126 l 3,0 0,3 -3,0 z M 30,126 l 3,0 0,3 -3,0 z M 33,126 l 3,0 0,3 -3,0 z M 36,126 l 3,0 0,3 -3,0 z M 39,126 l 3,0 0,3 -3,0 z M 42,126 l 3,0 0,3 -3,0 z M 45,126 l 3,0 0,3 -3,0 z M 48,126 l 3,0 0,3 -3,0 z M 51,126 l 3,0 0,3 -3,0 z M 57,126 l 3,0 0,3 -3,0 z M 60,126 l 3,0 0,3 -3,0 z M 66,126 l 3,0 0,3 -3,0 z M 75,126 l 3,0 0,3 -3,0 z M 78,126 l 3,0 0,3 -3,0 z M 81,126 l 3,0 0,3 -3,0 z M 84,126 l 3,0 0,3 -3,0 z M 87,126 l 3,0 0,3 -3,0 z M 90,126 l 3,0 0,3 -3,0 z M 93,126 l 3,0 0,3 -3,0 z M 99,126 l 3,0 0,3 -3,0 z M 102,126 l 3,0 0,3 -3,0 z M 108,126 l 3,0 0,3 -3,0 z M 111,126 l 3,0 0,3 -3,0 z M 114,126 l 3,0 0,3 -3,0 z M 129,126 l 3,0 0,3 -3,0 z M 132,126 l 3,0 0,3 -3,0 z M 138,126 l 3,0 0,3 -3,0 z M 141,126 l 3,0 0,3 -3,0 z M 144,126 l 3,0 0,3 -3,0 z M 147,126 l 3,0 0,3 -3,0 z M 153,126 l 3,0 0,3 -3,0 z M 168,126 l 3,0 0,3 -3,0 z M 171,126 l 3,0 0,3 -3,0 z M 174,126 l 3,0 0,3 -3,0 z M 186,126 l 3,0 0,3 -3,0 z M 195,126 l 3,0 0,3 -3,0 z M 3,129 l 3,0 0,3 -3,0 z M 6,129 l 3,0 0,3 -3,0 z M 12,129 l 3,0 0,3 -3,0 z M 21,129 l 3,0 0,3 -3,0 z M 27,129 l 3,0 0,3 -3,0 z M 36,129 l 3,0 0,3 -3,0 z M 45,129 l 3,0 0,3 -3,0 z M 54,129 l 3,0 0,3 -3,0 z M 57,129 l 3,0 0,3 -3,0 z M 60,129 l 3,0 0,3 -3,0 z M 66,129 l 3,0 0,3 -3,0 z M 75,129 l 3,0 0,3 -3,0 z M 81,129 l 3,0 0,3 -3,0 z M 84,129 l 3,0 0,3 -3,0 z M 87,129 l 3,0 0,3 -3,0 z M 90,129 l 3,0 0,3 -3,0 z M 93,129 l 3,0 0,3 -3,0 z M 96,129 l 3,0 0,3 -3,0 z M 105,129 l 3,0 0,3 -3,0 z M 108,129 l 3,0 0,3 -3,0 z M 114,129 l 3,0 0,3 -3,0 z M 120,129 l 3,0 0,3 -3,0 z M 123,129 l 3,0 0,3 -3,0 z M 126,129 l 3,0 0,3 -3,0 z M 129,129 l 3,0 0,3 -3,0 z M 138,129 l 3,0 0,3 -3,0 z M 141,129 l 3,0 0,3 -3,0 z M 144,129 l 3,0 0,3 -3,0 z M 147,129 l 3,0 0,3 -3,0 z M 153,129 l 3,0 0,3 -3,0 z M 165,129 l 3,0 0,3 -3,0 z M 171,129 l 3,0 0,3 -3,0 z M 186,129 l 3,0 0,3 -3,0 z M 192,129 l 3,0 0,3 -3,0 z M 6,132 l 3,0 0,3 -3,0 z M 9,132 l 3,0 0,3 -3,0 z M 24,132 l 3,0 0,3 -3,0 z M 30,132 l 3,0 0,3 -3,0 z M 36,132 l 3,0 0,3 -3,0 z M 39,132 l 3,0 0,3 -3,0 z M 45,132 l 3,0 0,3 -3,0 z M 57,132 l 3,0 0,3 -3,0 z M 63,132 l 3,0 0,3 -3,0 z M 75,132 l 3,0 0,3 -3,0 z M 84,132 l 3,0 0,3 -3,0 z M 90,132 l 3,0 0,3 -3,0 z M 93,132 l 3,0 0,3 -3,0 z M 99,132 l 3,0 0,3 -3,0 z M 105,132 l 3,0 0,3 -3,0 z M 114,132 l 3,0 0,3 -3,0 z M 120,132 l 3,0 0,3 -3,0 z M 123,132 l 3,0 0,3 -3,0 z M 129,132 l 3,0 0,3 -3,0 z M 150,132 l 3,0 0,3 -3,0 z M 156,132 l 3,0 0,3 -3,0 z M 159,132 l 3,0 0,3 -3,0 z M 162,132 l 3,0 0,3 -3,0 z M 165,132 l 3,0 0,3 -3,0 z M 177,132 l 3,0 0,3 -3,0 z M 180,132 l 3,0 0,3 -3,0 z M 183,132 l 3,0 0,3 -3,0 z M 186,132 l 3,0 0,3 -3,0 z M 192,132 l 3,0 0,3 -3,0 z M 195,132 l 3,0 0,3 -3,0 z M 3,135 l 3,0 0,3 -3,0 z M 6,135 l 3,0 0,3 -3,0 z M 15,135 l 3,0 0,3 -3,0 z M 18,135 l 3,0 0,3 -3,0 z M 21,135 l 3,0 0,3 -3,0 z M 24,135 l 3,0 0,3 -3,0 z M 36,135 l 3,0 0,3 -3,0 z M 42,135 l 3,0 0,3 -3,0 z M 45,135 l 3,0 0,3 -3,0 z M 54,135 l 3,0 0,3 -3,0 z M 57,135 l 3,0 0,3 -3,0 z M 63,135 l 3,0 0,3 -3,0 z M 75,135 l 3,0 0,3 -3,0 z M 81,135 l 3,0 0,3 -3,0 z M 96,135 l 3,0 0,3 -3,0 z M 99,135 l 3,0 0,3 -3,0 z M 105,135 l 3,0 0,3 -3,0 z M 117,135 l 3,0 0,3 -3,0 z M 135,135 l 3,0 0,3 -3,0 z M 150,135 l 3,0 0,3 -3,0 z M 153,135 l 3,0 0,3 -3,0 z M 156,135 l 3,0 0,3 -3,0 z M 159,135 l 3,0 0,3 -3,0 z M 162,135 l 3,0 0,3 -3,0 z M 165,135 l 3,0 0,3 -3,0 z M 168,135 l 3,0 0,3 -3,0 z M 171,135 l 3,0 0,3 -3,0 z M 174,135 l 3,0 0,3 -3,0 z M 186,135 l 3,0 0,3 -3,0 z M 189,135 l 3,0 0,3 -3,0 z M 9,138 l 3,0 0,3 -3,0 z M 27,138 l 3,0 0,3 -3,0 z M 39,138 l 3,0 0,3 -3,0 z M 42,138 l 3,0 0,3 -3,0 z M 51,138 l 3,0 0,3 -3,0 z M 54,138 l 3,0 0,3 -3,0 z M 57,138 l 3,0 0,3 -3,0 z M 66,138 l 3,0 0,3 -3,0 z M 69,138 l 3,0 0,3 -3,0 z M 72,138 l 3,0 0,3 -3,0 z M 75,138 l 3,0 0,3 -3,0 z M 81,138 l 3,0 0,3 -3,0 z M 96,138 l 3,0 0,3 -3,0 z M 99,138 l 3,0 0,3 -3,0 z M 102,138 l 3,0 0,3 -3,0 z M 105,138 l 3,0 0,3 -3,0 z M 111,138 l 3,0 0,3 -3,0 z M 114,138 l 3,0 0,3 -3,0 z M 117,138 l 3,0 0,3 -3,0 z M 123,138 l 3,0 0,3 -3,0 z M 126,138 l 3,0 0,3 -3,0 z M 129,138 l 3,0 0,3 -3,0 z M 132,138 l 3,0 0,3 -3,0 z M 138,138 l 3,0 0,3 -3,0 z M 141,138 l 3,0 0,3 -3,0 z M 144,138 l 3,0 0,3 -3,0 z M 147,138 l 3,0 0,3 -3,0 z M 153,138 l 3,0 0,3 -3,0 z M 159,138 l 3,0 0,3 -3,0 z M 162,138 l 3,0 0,3 -3,0 z M 165,138 l 3,0 0,3 -3,0 z M 168,138 l 3,0 0,3 -3,0 z M 171,138 l 3,0 0,3 -3,0 z M 177,138 l 3,0 0,3 -3,0 z M 180,138 l 3,0 0,3 -3,0 z M 183,138 l 3,0 0,3 -3,0 z M 186,138 l 3,0 0,3 -3,0 z M 3,141 l 3,0 0,3 -3,0 z M 15,141 l 3,0 0,3 -3,0 z M 21,141 l 3,0 0,3 -3,0 z M 24,141 l 3,0 0,3 -3,0 z M 27,141 l 3,0 0,3 -3,0 z M 33,141 l 3,0 0,3 -3,0 z M 42,141 l 3,0 0,3 -3,0 z M 45,141 l 3,0 0,3 -3,0 z M 51,141 l 3,0 0,3 -3,0 z M 57,141 l 3,0 0,3 -3,0 z M 66,141 l 3,0 0,3 -3,0 z M 69,141 l 3,0 0,3 -3,0 z M 72,141 l 3,0 0,3 -3,0 z M 78,141 l 3,0 0,3 -3,0 z M 87,141 l 3,0 0,3 -3,0 z M 99,141 l 3,0 0,3 -3,0 z M 102,141 l 3,0 0,3 -3,0 z M 114,141 l 3,0 0,3 -3,0 z M 123,141 l 3,0 0,3 -3,0 z M 132,141 l 3,0 0,3 -3,0 z M 144,141 l 3,0 0,3 -3,0 z M 147,141 l 3,0 0,3 -3,0 z M 150,141 l 3,0 0,3 -3,0 z M 174,141 l 3,0 0,3 -3,0 z M 180,141 l 3,0 0,3 -3,0 z M 183,141 l 3,0 0,3 -3,0 z M 186,141 l 3,0 0,3 -3,0 z M 195,141 l 3,0 0,3 -3,0 z M 3,144 l 3,0 0,3 -3,0 z M 12,144 l 3,0 0,3 -3,0 z M 15,144 l 3,0 0,3 -3,0 z M 27,144 l 3,0 0,3 -3,0 z M 33,144 l 3,0 0,3 -3,0 z M 36,144 l 3,0 0,3 -3,0 z M 51,144 l 3,0 0,3 -3,0 z M 54,144 l 3,0 0,3 -3,0 z M 57,144 l 3,0 0,3 -3,0 z M 66,144 l 3,0 0,3 -3,0 z M 72,144 l 3,0 0,3 -3,0 z M 75,144 l 3,0 0,3 -3,0 z M 84,144 l 3,0 0,3 -3,0 z M 99,144 l 3,0 0,3 -3,0 z M 102,144 l 3,0 0,3 -3,0 z M 105,144 l 3,0 0,3 -3,0 z M 108,144 l 3,0 0,3 -3,0 z M 114,144 l 3,0 0,3 -3,0 z M 120,144 l 3,0 0,3 -3,0 z M 129,144 l 3,0 0,3 -3,0 z M 135,144 l 3,0 0,3 -3,0 z M 141,144 l 3,0 0,3 -3,0 z M 147,144 l 3,0 0,3 -3,0 z M 150,144 l 3,0 0,3 -3,0 z M 156,144 l 3,0 0,3 -3,0 z M 165,144 l 3,0 0,3 -3,0 z M 171,144 l 3,0 0,3 -3,0 z M 180,144 l 3,0 0,3 -3,0 z M 183,144 l 3,0 0,3 -3,0 z M 189,144 l 3,0 0,3 -3,0 z M 192,144 l 3,0 0,3 -3,0 z M 195,144 l 3,0 0,3 -3,0 z M 3,147 l 3,0 0,3 -3,0 z M 21,147 l 3,0 0,3 -3,0 z M 24,147 l 3,0 0,3 -3,0 z M 33,147 l 3,0 0,3 -3,0 z M 36,147 l 3,0 0,3 -3,0 z M 42,147 l 3,0 0,3 -3,0 z M 45,147 l 3,0 0,3 -3,0 z M 51,147 l 3,0 0,3 -3,0 z M 63,147 l 3,0 0,3 -3,0 z M 69,147 l 3,0 0,3 -3,0 z M 75,147 l 3,0 0,3 -3,0 z M 84,147 l 3,0 0,3 -3,0 z M 96,147 l 3,0 0,3 -3,0 z M 99,147 l 3,0 0,3 -3,0 z M 102,147 l 3,0 0,3 -3,0 z M 105,147 l 3,0 0,3 -3,0 z M 108,147 l 3,0 0,3 -3,0 z M 111,147 l 3,0 0,3 -3,0 z M 123,147 l 3,0 0,3 -3,0 z M 129,147 l 3,0 0,3 -3,0 z M 132,147 l 3,0 0,3 -3,0 z M 135,147 l 3,0 0,3 -3,0 z M 138,147 l 3,0 0,3 -3,0 z M 141,147 l 3,0 0,3 -3,0 z M 147,147 l 3,0 0,3 -3,0 z M 156,147 l 3,0 0,3 -3,0 z M 159,147 l 3,0 0,3 -3,0 z M 162,147 l 3,0 0,3 -3,0 z M 180,147 l 3,0 0,3 -3,0 z M 183,147 l 3,0 0,3 -3,0 z M 3,150 l 3,0 0,3 -3,0 z M 6,150 l 3,0 0,3 -3,0 z M 12,150 l 3,0 0,3 -3,0 z M 24,150 l 3,0 0,3 -3,0 z M 27,150 l 3,0 0,3 -3,0 z M 30,150 l 3,0 0,3 -3,0 z M 36,150 l 3,0 0,3 -3,0 z M 42,150 l 3,0 0,3 -3,0 z M 45,150 l 3,0 0,3 -3,0 z M 57,150 l 3,0 0,3 -3,0 z M 78,150 l 3,0 0,3 -3,0 z M 84,150 l 3,0 0,3 -3,0 z M 87,150 l 3,0 0,3 -3,0 z M 90,150 l 3,0 0,3 -3,0 z M 93,150 l 3,0 0,3 -3,0 z M 99,150 l 3,0 0,3 -3,0 z M 102,150 l 3,0 0,3 -3,0 z M 111,150 l 3,0 0,3 -3,0 z M 120,150 l 3,0 0,3 -3,0 z M 123,150 l 3,0 0,3 -3,0 z M 129,150 l 3,0 0,3 -3,0 z M 141,150 l 3,0 0,3 -3,0 z M 144,150 l 3,0 0,3 -3,0 z M 150,150 l 3,0 0,3 -3,0 z M 153,150 l 3,0 0,3 -3,0 z M 156,150 l 3,0 0,3 -3,0 z M 159,150 l 3,0 0,3 -3,0 z M 165,150 l 3,0 0,3 -3,0 z M 168,150 l 3,0 0,3 -3,0 z M 171,150 l 3,0 0,3 -3,0 z M 174,150 l 3,0 0,3 -3,0 z M 177,150 l 3,0 0,3 -3,0 z M 180,150 l 3,0 0,3 -3,0 z M 183,150 l 3,0 0,3 -3,0 z M 186,150 l 3,0 0,3 -3,0 z M 192,150 l 3,0 0,3 -3,0 z M 3,153 l 3,0 0,3 -3,0 z M 9,153 l 3,0 0,3 -3,0 z M 18,153 l 3,0 0,3 -3,0 z M 21,153 l 3,0 0,3 -3,0 z M 24,153 l 3,0 0,3 -3,0 z M 27,153 l 3,0 0,3 -3,0 z M 30,153 l 3,0 0,3 -3,0 z M 33,153 l 3,0 0,3 -3,0 z M 39,153 l 3,0 0,3 -3,0 z M 48,153 l 3,0 0,3 -3,0 z M 51,153 l 3,0 0,3 -3,0 z M 54,153 l 3,0 0,3 -3,0 z M 60,153 l 3,0 0,3 -3,0 z M 63,153 l 3,0 0,3 -3,0 z M 69,153 l 3,0 0,3 -3,0 z M 72,153 l 3,0 0,3 -3,0 z M 78,153 l 3,0 0,3 -3,0 z M 93,153 l 3,0 0,3 -3,0 z M 96,153 l 3,0 0,3 -3,0 z M 105,153 l 3,0 0,3 -3,0 z M 114,153 l 3,0 0,3 -3,0 z M 123,153 l 3,0 0,3 -3,0 z M 129,153 l 3,0 0,3 -3,0 z M 132,153 l 3,0 0,3 -3,0 z M 138,153 l 3,0 0,3 -3,0 z M 144,153 l 3,0 0,3 -3,0 z M 147,153 l 3,0 0,3 -3,0 z M 177,153 l 3,0 0,3 -3,0 z M 189,153 l 3,0 0,3 -3,0 z M 192,153 l 3,0 0,3 -3,0 z M 3,156 l 3,0 0,3 -3,0 z M 12,156 l 3,0 0,3 -3,0 z M 24,156 l 3,0 0,3 -3,0 z M 27,156 l 3,0 0,3 -3,0 z M 36,156 l 3,0 0,3 -3,0 z M 42,156 l 3,0 0,3 -3,0 z M 45,156 l 3,0 0,3 -3,0 z M 60,156 l 3,0 0,3 -3,0 z M 72,156 l 3,0 0,3 -3,0 z M 78,156 l 3,0 0,3 -3,0 z M 87,156 l 3,0 0,3 -3,0 z M 93,156 l 3,0 0,3 -3,0 z M 99,156 l 3,0 0,3 -3,0 z M 102,156 l 3,0 0,3 -3,0 z M 105,156 l 3,0 0,3 -3,0 z M 108,156 l 3,0 0,3 -3,0 z M 123,156 l 3,0 0,3 -3,0 z M 126,156 l 3,0 0,3 -3,0 z M 129,156 l 3,0 0,3 -3,0 z M 138,156 l 3,0 0,3 -3,0 z M 141,156 l 3,0 0,3 -3,0 z M 144,156 l 3,0 0,3 -3,0 z M 147,156 l 3,0 0,3 -3,0 z M 150,156 l 3,0 0,3 -3,0 z M 156,156 l 3,0 0,3 -3,0 z M 159,156 l 3,0 0,3 -3,0 z M 162,156 l 3,0 0,3 -3,0 z M 165,156 l 3,0 0,3 -3,0 z M 168,156 l 3,0 0,3 -3,0 z M 186,156 l 3,0 0,3 -3,0 z M 189,156 l 3,0 0,3 -3,0 z M 195,156 l 3,0 0,3 -3,0 z M 18,159 l 3,0 0,3 -3,0 z M 21,159 l 3,0 0,3 -3,0 z M 24,159 l 3,0 0,3 -3,0 z M 27,159 l 3,0 0,3 -3,0 z M 33,159 l 3,0 0,3 -3,0 z M 36,159 l 3,0 0,3 -3,0 z M 39,159 l 3,0 0,3 -3,0 z M 42,159 l 3,0 0,3 -3,0 z M 45,159 l 3,0 0,3 -3,0 z M 48,159 l 3,0 0,3 -3,0 z M 54,159 l 3,0 0,3 -3,0 z M 57,159 l 3,0 0,3 -3,0 z M 60,159 l 3,0 0,3 -3,0 z M 72,159 l 3,0 0,3 -3,0 z M 75,159 l 3,0 0,3 -3,0 z M 81,159 l 3,0 0,3 -3,0 z M 84,159 l 3,0 0,3 -3,0 z M 90,159 l 3,0 0,3 -3,0 z M 96,159 l 3,0 0,3 -3,0 z M 102,159 l 3,0 0,3 -3,0 z M 108,159 l 3,0 0,3 -3,0 z M 114,159 l 3,0 0,3 -3,0 z M 117,159 l 3,0 0,3 -3,0 z M 120,159 l 3,0 0,3 -3,0 z M 135,159 l 3,0 0,3 -3,0 z M 138,159 l 3,0 0,3 -3,0 z M 150,159 l 3,0 0,3 -3,0 z M 156,159 l 3,0 0,3 -3,0 z M 159,159 l 3,0 0,3 -3,0 z M 165,159 l 3,0 0,3 -3,0 z M 168,159 l 3,0 0,3 -3,0 z M 171,159 l 3,0 0,3 -3,0 z M 174,159 l 3,0 0,3 -3,0 z M 180,159 l 3,0 0,3 -3,0 z M 183,159 l 3,0 0,3 -3,0 z M 186,159 l 3,0 0,3 -3,0 z M 6,162 l 3,0 0,3 -3,0 z M 12,162 l 3,0 0,3 -3,0 z M 15,162 l 3,0 0,3 -3,0 z M 18,162 l 3,0 0,3 -3,0 z M 30,162 l 3,0 0,3 -3,0 z M 36,162 l 3,0 0,3 -3,0 z M 39,162 l 3,0 0,3 -3,0 z M 42,162 l 3,0 0,3 -3,0 z M 51,162 l 3,0 0,3 -3,0 z M 54,162 l 3,0 0,3 -3,0 z M 60,162 l 3,0 0,3 -3,0 z M 66,162 l 3,0 0,3 -3,0 z M 72,162 l 3,0 0,3 -3,0 z M 78,162 l 3,0 0,3 -3,0 z M 81,162 l 3,0 0,3 -3,0 z M 87,162 l 3,0 0,3 -3,0 z M 90,162 l 3,0 0,3 -3,0 z M 93,162 l 3,0 0,3 -3,0 z M 96,162 l 3,0 0,3 -3,0 z M 105,162 l 3,0 0,3 -3,0 z M 111,162 l 3,0 0,3 -3,0 z M 114,162 l 3,0 0,3 -3,0 z M 117,162 l 3,0 0,3 -3,0 z M 120,162 l 3,0 0,3 -3,0 z M 123,162 l 3,0 0,3 -3,0 z M 129,162 l 3,0 0,3 -3,0 z M 135,162 l 3,0 0,3 -3,0 z M 144,162 l 3,0 0,3 -3,0 z M 150,162 l 3,0 0,3 -3,0 z M 159,162 l 3,0 0,3 -3,0 z M 162,162 l 3,0 0,3 -3,0 z M 171,162 l 3,0 0,3 -3,0 z M 183,162 l 3,0 0,3 -3,0 z M 186,162 l 3,0 0,3 -3,0 z M 195,162 l 3,0 0,3 -3,0 z M 9,165 l 3,0 0,3 -3,0 z M 12,165 l 3,0 0,3 -3,0 z M 18,165 l 3,0 0,3 -3,0 z M 21,165 l 3,0 0,3 -3,0 z M 24,165 l 3,0 0,3 -3,0 z M 33,165 l 3,0 0,3 -3,0 z M 36,165 l 3,0 0,3 -3,0 z M 39,165 l 3,0 0,3 -3,0 z M 45,165 l 3,0 0,3 -3,0 z M 48,165 l 3,0 0,3 -3,0 z M 60,165 l 3,0 0,3 -3,0 z M 63,165 l 3,0 0,3 -3,0 z M 66,165 l 3,0 0,3 -3,0 z M 72,165 l 3,0 0,3 -3,0 z M 84,165 l 3,0 0,3 -3,0 z M 99,165 l 3,0 0,3 -3,0 z M 102,165 l 3,0 0,3 -3,0 z M 105,165 l 3,0 0,3 -3,0 z M 108,165 l 3,0 0,3 -3,0 z M 111,165 l 3,0 0,3 -3,0 z M 114,165 l 3,0 0,3 -3,0 z M 126,165 l 3,0 0,3 -3,0 z M 129,165 l 3,0 0,3 -3,0 z M 132,165 l 3,0 0,3 -3,0 z M 138,165 l 3,0 0,3 -3,0 z M 141,165 l 3,0 0,3 -3,0 z M 147,165 l 3,0 0,3 -3,0 z M 165,165 l 3,0 0,3 -3,0 z M 174,165 l 3,0 0,3 -3,0 z M 180,165 l 3,0 0,3 -3,0 z M 183,165 l 3,0 0,3 -3,0 z M 192,165 l 3,0 0,3 -3,0 z M 195,165 l 3,0 0,3 -3,0 z M 3,168 l 3,0 0,3 -3,0 z M 12,168 l 3,0 0,3 -3,0 z M 27,168 l 3,0 0,3 -3,0 z M 33,168 l 3,0 0,3 -3,0 z M 36,168 l 3,0 0,3 -3,0 z M 39,168 l 3,0 0,3 -3,0 z M 45,168 l 3,0 0,3 -3,0 z M 60,168 l 3,0 0,3 -3,0 z M 69,168 l 3,0 0,3 -3,0 z M 75,168 l 3,0 0,3 -3,0 z M 84,168 l 3,0 0,3 -3,0 z M 90,168 l 3,0 0,3 -3,0 z M 99,168 l 3,0 0,3 -3,0 z M 102,168 l 3,0 0,3 -3,0 z M 105,168 l 3,0 0,3 -3,0 z M 108,168 l 3,0 0,3 -3,0 z M 120,168 l 3,0 0,3 -3,0 z M 126,168 l 3,0 0,3 -3,0 z M 129,168 l 3,0 0,3 -3,0 z M 159,168 l 3,0 0,3 -3,0 z M 162,168 l 3,0 0,3 -3,0 z M 165,168 l 3,0 0,3 -3,0 z M 171,168 l 3,0 0,3 -3,0 z M 183,168 l 3,0 0,3 -3,0 z M 186,168 l 3,0 0,3 -3,0 z M 189,168 l 3,0 0,3 -3,0 z M 192,168 l 3,0 0,3 -3,0 z M 195,168 l 3,0 0,3 -3,0 z M 6,171 l 3,0 0,3 -3,0 z M 9,171 l 3,0 0,3 -3,0 z M 15,171 l 3,0 0,3 -3,0 z M 21,171 l 3,0 0,3 -3,0 z M 24,171 l 3,0 0,3 -3,0 z M 33,171 l 3,0 0,3 -3,0 z M 36,171 l 3,0 0,3 -3,0 z M 48,171 l 3,0 0,3 -3,0 z M 60,171 l 3,0 0,3 -3,0 z M 63,171 l 3,0 0,3 -3,0 z M 87,171 l 3,0 0,3 -3,0 z M 90,171 l 3,0 0,3 -3,0 z M 93,171 l 3,0 0,3 -3,0 z M 96,171 l 3,0 0,3 -3,0 z M 99,171 l 3,0 0,3 -3,0 z M 102,171 l 3,0 0,3 -3,0 z M 105,171 l 3,0 0,3 -3,0 z M 108,171 l 3,0 0,3 -3,0 z M 114,171 l 3,0 0,3 -3,0 z M 132,171 l 3,0 0,3 -3,0 z M 135,171 l 3,0 0,3 -3,0 z M 141,171 l 3,0 0,3 -3,0 z M 147,171 l 3,0 0,3 -3,0 z M 150,171 l 3,0 0,3 -3,0 z M 171,171 l 3,0 0,3 -3,0 z M 174,171 l 3,0 0,3 -3,0 z M 177,171 l 3,0 0,3 -3,0 z M 180,171 l 3,0 0,3 -3,0 z M 183,171 l 3,0 0,3 -3,0 z M 186,171 l 3,0 0,3 -3,0 z M 27,174 l 3,0 0,3 -3,0 z M 30,174 l 3,0 0,3 -3,0 z M 36,174 l 3,0 0,3 -3,0 z M 39,174 l 3,0 0,3 -3,0 z M 42,174 l 3,0 0,3 -3,0 z M 45,174 l 3,0 0,3 -3,0 z M 48,174 l 3,0 0,3 -3,0 z M 51,174 l 3,0 0,3 -3,0 z M 60,174 l 3,0 0,3 -3,0 z M 69,174 l 3,0 0,3 -3,0 z M 72,174 l 3,0 0,3 -3,0 z M 78,174 l 3,0 0,3 -3,0 z M 81,174 l 3,0 0,3 -3,0 z M 87,174 l 3,0 0,3 -3,0 z M 93,174 l 3,0 0,3 -3,0 z M 105,174 l 3,0 0,3 -3,0 z M 108,174 l 3,0 0,3 -3,0 z M 123,174 l 3,0 0,3 -3,0 z M 129,174 l 3,0 0,3 -3,0 z M 135,174 l 3,0 0,3 -3,0 z M 138,174 l 3,0 0,3 -3,0 z M 147,174 l 3,0 0,3 -3,0 z M 156,174 l 3,0 0,3 -3,0 z M 159,174 l 3,0 0,3 -3,0 z M 171,174 l 3,0 0,3 -3,0 z M 183,174 l 3,0 0,3 -3,0 z M 186,174 l 3,0 0,3 -3,0 z M 192,174 l 3,0 0,3 -3,0 z M 3,177 l 3,0 0,3 -3,0 z M 6,177 l 3,0 0,3 -3,0 z M 9,177 l 3,0 0,3 -3,0 z M 12,177 l 3,0 0,3 -3,0 z M 15,177 l 3,0 0,3 -3,0 z M 18,177 l 3,0 0,3 -3,0 z M 21,177 l 3,0 0,3 -3,0 z M 27,177 l 3,0 0,3 -3,0 z M 33,177 l 3,0 0,3 -3,0 z M 42,177 l 3,0 0,3 -3,0 z M 48,177 l 3,0 0,3 -3,0 z M 51,177 l 3,0 0,3 -3,0 z M 57,177 l 3,0 0,3 -3,0 z M 60,177 l 3,0 0,3 -3,0 z M 63,177 l 3,0 0,3 -3,0 z M 66,177 l 3,0 0,3 -3,0 z M 72,177 l 3,0 0,3 -3,0 z M 75,177 l 3,0 0,3 -3,0 z M 78,177 l 3,0 0,3 -3,0 z M 81,177 l 3,0 0,3 -3,0 z M 84,177 l 3,0 0,3 -3,0 z M 87,177 l 3,0 0,3 -3,0 z M 90,177 l 3,0 0,3 -3,0 z M 93,177 l 3,0 0,3 -3,0 z M 99,177 l 3,0 0,3 -3,0 z M 105,177 l 3,0 0,3 -3,0 z M 114,177 l 3,0 0,3 -3,0 z M 126,177 l 3,0 0,3 -3,0 z M 132,177 l 3,0 0,3 -3,0 z M 138,177 l 3,0 0,3 -3,0 z M 144,177 l 3,0 0,3 -3,0 z M 147,177 l 3,0 0,3 -3,0 z M 150,177 l 3,0 0,3 -3,0 z M 156,177 l 3,0 0,3 -3,0 z M 168,177 l 3,0 0,3 -3,0 z M 171,177 l 3,0 0,3 -3,0 z M 177,177 l 3,0 0,3 -3,0 z M 183,177 l 3,0 0,3 -3,0 z M 186,177 l 3,0 0,3 -3,0 z M 189,177 l 3,0 0,3 -3,0 z M 3,180 l 3,0 0,3 -3,0 z M 21,180 l 3,0 0,3 -3,0 z M 27,180 l 3,0 0,3 -3,0 z M 30,180 l 3,0 0,3 -3,0 z M 36,180 l 3,0 0,3 -3,0 z M 39,180 l 3,0 0,3 -3,0 z M 60,180 l 3,0 0,3 -3,0 z M 72,180 l 3,0 0,3 -3,0 z M 75,180 l 3,0 0,3 -3,0 z M 81,180 l 3,0 0,3 -3,0 z M 90,180 l 3,0 0,3 -3,0 z M 93,180 l 3,0 0,3 -3,0 z M 105,180 l 3,0 0,3 -3,0 z M 111,180 l 3,0 0,3 -3,0 z M 117,180 l 3,0 0,3 -3,0 z M 126,180 l 3,0 0,3 -3,0 z M 129,180 l 3,0 0,3 -3,0 z M 132,180 l 3,0 0,3 -3,0 z M 147,180 l 3,0 0,3 -3,0 z M 150,180 l 3,0 0,3 -3,0 z M 153,180 l 3,0 0,3 -3,0 z M 156,180 l 3,0 0,3 -3,0 z M 159,180 l 3,0 0,3 -3,0 z M 162,180 l 3,0 0,3 -3,0 z M 165,180 l 3,0 0,3 -3,0 z M 168,180 l 3,0 0,3 -3,0 z M 171,180 l 3,0 0,3 -3,0 z M 183,180 l 3,0 0,3 -3,0 z M 186,180 l 3,0 0,3 -3,0 z M 195,180 l 3,0 0,3 -3,0 z M 3,183 l 3,0 0,3 -3,0 z M 9,183 l 3,0 0,3 -3,0 z M 12,183 l 3,0 0,3 -3,0 z M 15,183 l 3,0 0,3 -3,0 z M 21,183 l 3,0 0,3 -3,0 z M 27,183 l 3,0 0,3 -3,0 z M 30,183 l 3,0 0,3 -3,0 z M 33,183 l 3,0 0,3 -3,0 z M 36,183 l 3,0 0,3 -3,0 z M 39,183 l 3,0 0,3 -3,0 z M 48,183 l 3,0 0,3 -3,0 z M 57,183 l 3,0 0,3 -3,0 z M 60,183 l 3,0 0,3 -3,0 z M 66,183 l 3,0 0,3 -3,0 z M 69,183 l 3,0 0,3 -3,0 z M 72,183 l 3,0 0,3 -3,0 z M 75,183 l 3,0 0,3 -3,0 z M 93,183 l 3,0 0,3 -3,0 z M 96,183 l 3,0 0,3 -3,0 z M 99,183 l 3,0 0,3 -3,0 z M 102,183 l 3,0 0,3 -3,0 z M 105,183 l 3,0 0,3 -3,0 z M 108,183 l 3,0 0,3 -3,0 z M 111,183 l 3,0 0,3 -3,0 z M 114,183 l 3,0 0,3 -3,0 z M 120,183 l 3,0 0,3 -3,0 z M 123,183 l 3,0 0,3 -3,0 z M 132,183 l 3,0 0,3 -3,0 z M 135,183 l 3,0 0,3 -3,0 z M 138,183 l 3,0 0,3 -3,0 z M 141,183 l 3,0 0,3 -3,0 z M 165,183 l 3,0 0,3 -3,0 z M 171,183 l 3,0 0,3 -3,0 z M 174,183 l 3,0 0,3 -3,0 z M 177,183 l 3,0 0,3 -3,0 z M 180,183 l 3,0 0,3 -3,0 z M 183,183 l 3,0 0,3 -3,0 z M 192,183 l 3,0 0,3 -3,0 z M 3,186 l 3,0 0,3 -3,0 z M 9,186 l 3,0 0,3 -3,0 z M 12,186 l 3,0 0,3 -3,0 z M 15,186 l 3,0 0,3 -3,0 z M 21,186 l 3,0 0,3 -3,0 z M 27,186 l 3,0 0,3 -3,0 z M 30,186 l 3,0 0,3 -3,0 z M 33,186 l 3,0 0,3 -3,0 z M 36,186 l 3,0 0,3 -3,0 z M 39,186 l 3,0 0,3 -3,0 z M 42,186 l 3,0 0,3 -3,0 z M 45,186 l 3,0 0,3 -3,0 z M 63,186 l 3,0 0,3 -3,0 z M 66,186 l 3,0 0,3 -3,0 z M 72,186 l 3,0 0,3 -3,0 z M 75,186 l 3,0 0,3 -3,0 z M 78,186 l 3,0 0,3 -3,0 z M 90,186 l 3,0 0,3 -3,0 z M 93,186 l 3,0 0,3 -3,0 z M 96,186 l 3,0 0,3 -3,0 z M 105,186 l 3,0 0,3 -3,0 z M 111,186 l 3,0 0,3 -3,0 z M 120,186 l 3,0 0,3 -3,0 z M 129,186 l 3,0 0,3 -3,0 z M 135,186 l 3,0 0,3 -3,0 z M 141,186 l 3,0 0,3 -3,0 z M 144,186 l 3,0 0,3 -3,0 z M 150,186 l 3,0 0,3 -3,0 z M 156,186 l 3,0 0,3 -3,0 z M 165,186 l 3,0 0,3 -3,0 z M 171,186 l 3,0 0,3 -3,0 z M 180,186 l 3,0 0,3 -3,0 z M 186,186 l 3,0 0,3 -3,0 z M 192,186 l 3,0 0,3 -3,0 z M 3,189 l 3,0 0,3 -3,0 z M 9,189 l 3,0 0,3 -3,0 z M 12,189 l 3,0 0,3 -3,0 z M 15,189 l 3,0 0,3 -3,0 z M 21,189 l 3,0 0,3 -3,0 z M 27,189 l 3,0 0,3 -3,0 z M 30,189 l 3,0 0,3 -3,0 z M 33,189 l 3,0 0,3 -3,0 z M 36,189 l 3,0 0,3 -3,0 z M 48,189 l 3,0 0,3 -3,0 z M 54,189 l 3,0 0,3 -3,0 z M 57,189 l 3,0 0,3 -3,0 z M 60,189 l 3,0 0,3 -3,0 z M 63,189 l 3,0 0,3 -3,0 z M 78,189 l 3,0 0,3 -3,0 z M 84,189 l 3,0 0,3 -3,0 z M 87,189 l 3,0 0,3 -3,0 z M 90,189 l 3,0 0,3 -3,0 z M 96,189 l 3,0 0,3 -3,0 z M 102,189 l 3,0 0,3 -3,0 z M 105,189 l 3,0 0,3 -3,0 z M 108,189 l 3,0 0,3 -3,0 z M 111,189 l 3,0 0,3 -3,0 z M 114,189 l 3,0 0,3 -3,0 z M 126,189 l 3,0 0,3 -3,0 z M 129,189 l 3,0 0,3 -3,0 z M 132,189 l 3,0 0,3 -3,0 z M 147,189 l 3,0 0,3 -3,0 z M 150,189 l 3,0 0,3 -3,0 z M 153,189 l 3,0 0,3 -3,0 z M 156,189 l 3,0 0,3 -3,0 z M 159,189 l 3,0 0,3 -3,0 z M 162,189 l 3,0 0,3 -3,0 z M 165,189 l 3,0 0,3 -3,0 z M 174,189 l 3,0 0,3 -3,0 z M 177,189 l 3,0 0,3 -3,0 z M 183,189 l 3,0 0,3 -3,0 z M 192,189 l 3,0 0,3 -3,0 z M 3,192 l 3,0 0,3 -3,0 z M 21,192 l 3,0 0,3 -3,0 z M 27,192 l 3,0 0,3 -3,0 z M 42,192 l 3,0 0,3 -3,0 z M 45,192 l 3,0 0,3 -3,0 z M 48,192 l 3,0 0,3 -3,0 z M 54,192 l 3,0 0,3 -3,0 z M 57,192 l 3,0 0,3 -3,0 z M 66,192 l 3,0 0,3 -3,0 z M 75,192 l 3,0 0,3 -3,0 z M 81,192 l 3,0 0,3 -3,0 z M 87,192 l 3,0 0,3 -3,0 z M 96,192 l 3,0 0,3 -3,0 z M 108,192 l 3,0 0,3 -3,0 z M 111,192 l 3,0 0,3 -3,0 z M 114,192 l 3,0 0,3 -3,0 z M 117,192 l 3,0 0,3 -3,0 z M 126,192 l 3,0 0,3 -3,0 z M 129,192 l 3,0 0,3 -3,0 z M 132,192 l 3,0 0,3 -3,0 z M 135,192 l 3,0 0,3 -3,0 z M 147,192 l 3,0 0,3 -3,0 z M 156,192 l 3,0 0,3 -3,0 z M 162,192 l 3,0 0,3 -3,0 z M 168,192 l 3,0 0,3 -3,0 z M 180,192 l 3,0 0,3 -3,0 z M 183,192 l 3,0 0,3 -3,0 z M 186,192 l 3,0 0,3 -3,0 z M 189,192 l 3,0 0,3 -3,0 z M 192,192 l 3,0 0,3 -3,0 z M 3,195 l 3,0 0,3 -3,0 z M 6,195 l 3,0 0,3 -3,0 z M 9,195 l 3,0 0,3 -3,0 z M 12,195 l 3,0 0,3 -3,0 z M 15,195 l 3,0 0,3 -3,0 z M 18,195 l 3,0 0,3 -3,0 z M 21,195 l 3,0 0,3 -3,0 z M 30,195 l 3,0 0,3 -3,0 z M 33,195 l 3,0 0,3 -3,0 z M 39,195 l 3,0 0,3 -3,0 z M 45,195 l 3,0 0,3 -3,0 z M 51,195 l 3,0 0,3 -3,0 z M 57,195 l 3,0 0,3 -3,0 z M 60,195 l 3,0 0,3 -3,0 z M 66,195 l 3,0 0,3 -3,0 z M 87,195 l 3,0 0,3 -3,0 z M 90,195 l 3,0 0,3 -3,0 z M 96,195 l 3,0 0,3 -3,0 z M 102,195 l 3,0 0,3 -3,0 z M 108,195 l 3,0 0,3 -3,0 z M 111,195 l 3,0 0,3 -3,0 z M 114,195 l 3,0 0,3 -3,0 z M 117,195 l 3,0 0,3 -3,0 z M 120,195 l 3,0 0,3 -3,0 z M 123,195 l 3,0 0,3 -3,0 z M 147,195 l 3,0 0,3 -3,0 z M 159,195 l 3,0 0,3 -3,0 z M 168,195 l 3,0 0,3 -3,0 z M 174,195 l 3,0 0,3 -3,0 z M 177,195 l 3,0 0,3 -3,0 z M 180,195 l 3,0 0,3 -3,0 z M 183,195 l 3,0 0,3 -3,0 z M 186,195 l 3,0 0,3 -3,0 z " />
	</g>
</svg>
