<?xml version="1.0" encoding="UTF-8"?>
<svg xmlns="http://www.w3.org/2000/svg" height="16640" width="16640" class="pyqrcode"><path fill="white" d="M0 0h16640v16640h-16640z"/><path transform="scale(256)" stroke="#000000" class="pyqrline" d="M4 4.5h7m3 0h1m1 0h1m5 0h1m1 0h1m1 0h1m2 0h1m2 0h1m1 0h1m1 0h4m1 0h2m1 0h3m1 0h1m1 0h2m2 0h7m-57 1h1m5 0h1m1 0h5m2 0h1m2 0h1m1 0h1m1 0h5m7 0h4m1 0h1m5 0h1m1 0h1m2 0h1m5 0h1m-57 1h1m1 0h3m1 0h1m2 0h2m1 0h13m12 0h1m3 0h1m1 0h5m2 0h1m1 0h3m1 0h1m-57 1h1m1 0h3m1 0h1m3 0h3m4 0h1m2 0h2m3 0h1m1 0h1m5 0h3m4 0h4m3 0h1m2 0h1m1 0h3m1 0h1m-57 1h1m1 0h3m1 0h1m2 0h1m2 0h2m2 0h1m2 0h3m1 0h8m4 0h2m1 0h6m1 0h1m1 0h1m2 0h1m1 0h3m1 0h1m-57 1h1m5 0h1m1 0h1m2 0h4m2 0h1m1 0h1m1 0h1m2 0h3m3 0h1m1 0h4m3 0h2m3 0h1m1 0h1m3 0h1m5 0h1m-57 1h7m1 0h1m1 0h1m1 0h1m1 0h1m1 0h1m1 0h1m1 0h1m1 0h1m1 0h1m1 0h1m1 0h1m1 0h1m1 0h1m1 0h1m1 0h1m1 0h1m1 0h1m1 0h1m1 0h1m1 0h1m1 0h1m1 0h7m-49 1h1m2 0h1m5 0h1m3 0h4m1 0h1m3 0h2m3 0h1m1 0h3m1 0h2m1 0h1m1 0h3m-45 1h4m3 0h1m2 0h1m3 0h3m2 0h1m1 0h7m1 0h3m1 0h1m1 0h1m2 0h1m1 0h2m1 0h1m2 0h2m3 0h1m-56 1h2m1 0h1m1 0h1m2 0h2m1 0h8m1 0h1m1 0h2m1 0h1m4 0h2m1 0h1m2 0h1m4 0h3m3 0h2m1 0h2m1 0h1m1 0h1m-56 1h4m2 0h1m2 0h1m2 0h4m1 0h1m6 0h2m1 0h4m2 0h1m5 0h4m2 0h1m1 0h1m2 0h1m1 0h3m-54 1h2m2 0h1m1 0h2m4 0h1m1 0h1m3 0h1m1 0h1m1 0h1m1 0h1m1 0h2m1 0h1m4 0h1m1 0h3m3 0h3m1 0h1m1 0h1m1 0h1m3 0h2m-53 1h1m1 0h2m1 0h1m2 0h2m2 0h3m1 0h1m2 0h2m1 0h2m2 0h2m1 0h2m1 0h1m2 0h1m1 0h2m1 0h2m4 0h2m4 0h1m-57 1h1m3 0h2m4 0h1m1 0h1m1 0h1m1 0h3m1 0h1m1 0h1m3 0h1m2 0h3m2 0h1m1 0h4m1 0h2m1 0h2m1 0h4m-50 1h2m1 0h3m1 0h1m2 0h2m7 0h1m5 0h1m2 0h2m3 0h1m1 0h4m2 0h4m1 0h6m-52 1h3m3 0h3m1 0h5m1 0h2m4 0h2m1 0h1m2 0h1m1 0h3m2 0h1m4 0h1m5 0h1m5 0h1m1 0h1m-54 1h1m1 0h5m3 0h2m5 0h9m3 0h2m2 0h5m1 0h2m1 0h4m2 0h2m1 0h1m2 0h1m-57 1h1m1 0h4m1 0h4m1 0h1m3 0h2m1 0h2m1 0h1m2 0h2m2 0h1m3 0h1m1 0h2m1 0h1m3 0h1m2 0h1m1 0h2m1 0h2m1 0h3m-54 1h5m3 0h7m1 0h2m3 0h1m2 0h3m1 0h2m2 0h2m1 0h2m1 0h3m2 0h1m1 0h1m1 0h2m2 0h3m-56 1h2m1 0h2m3 0h1m2 0h1m1 0h1m2 0h6m5 0h1m2 0h1m7 0h2m1 0h1m2 0h1m1 0h1m2 0h1m1 0h1m3 0h2m-55 1h1m3 0h1m1 0h2m2 0h1m4 0h1m3 0h1m1 0h2m1 0h1m1 0h2m1 0h3m4 0h1m3 0h1m1 0h2m5 0h1m1 0h1m1 0h2m-56 1h1m1 0h2m2 0h2m1 0h1m1 0h1m3 0h1m3 0h5m1 0h1m2 0h1m2 0h2m1 0h1m2 0h5m1 0h1m3 0h4m-48 1h3m2 0h1m1 0h1m2 0h2m5 0h2m1 0h1m6 0h1m2 0h2m2 0h1m2 0h3m3 0h2m1 0h1m1 0h2m1 0h1m-56 1h1m1 0h3m3 0h2m2 0h2m1 0h2m1 0h1m4 0h1m1 0h1m3 0h2m1 0h1m1 0h2m1 0h2m1 0h1m2 0h3m3 0h1m-48 1h1m1 0h1m1 0h5m1 0h1m4 0h3m1 0h1m2 0h1m1 0h4m3 0h1m2 0h3m2 0h1m2 0h2m1 0h5m3 0h2m-56 1h3m3 0h6m4 0h2m3 0h1m1 0h1m2 0h3m1 0h2m2 0h1m2 0h2m2 0h1m1 0h1m2 0h2m1 0h1m3 0h1m-54 1h1m2 0h5m3 0h1m1 0h1m1 0h2m1 0h4m1 0h1m1 0h5m1 0h5m1 0h4m1 0h1m1 0h1m1 0h9m-55 1h2m1 0h1m3 0h1m3 0h3m1 0h1m1 0h3m1 0h2m1 0h2m3 0h1m4 0h1m1 0h1m3 0h1m1 0h2m1 0h3m3 0h1m2 0h1m-52 1h1m1 0h1m1 0h1m1 0h1m1 0h1m2 0h1m2 0h2m1 0h1m3 0h2m1 0h1m1 0h1m3 0h1m3 0h2m2 0h1m1 0h2m1 0h2m1 0h1m1 0h1m3 0h1m-57 1h1m1 0h3m3 0h1m2 0h1m1 0h3m2 0h1m2 0h1m1 0h2m1 0h1m3 0h4m4 0h1m1 0h1m1 0h2m1 0h1m2 0h1m3 0h2m1 0h2m-57 1h1m1 0h1m1 0h6m2 0h2m2 0h1m3 0h1m3 0h1m1 0h6m1 0h1m1 0h6m1 0h2m3 0h7m1 0h1m-56 1h2m2 0h2m1 0h1m1 0h2m1 0h3m1 0h1m1 0h1m2 0h2m1 0h3m1 0h1m3 0h1m1 0h1m1 0h2m1 0h8m1 0h4m4 0h1m-56 1h1m3 0h2m2 0h1m2 0h2m2 0h3m2 0h1m1 0h1m1 0h2m3 0h4m1 0h1m2 0h2m2 0h5m1 0h1m3 0h1m2 0h2m-56 1h2m2 0h1m1 0h1m3 0h1m2 0h2m1 0h2m2 0h1m4 0h1m3 0h1m4 0h1m1 0h2m1 0h5m2 0h1m1 0h3m2 0h2m-56 1h2m1 0h1m1 0h5m1 0h1m5 0h3m2 0h1m1 0h1m1 0h4m2 0h1m1 0h2m1 0h4m1 0h2m1 0h1m3 0h1m1 0h1m2 0h2m-56 1h2m2 0h2m1 0h1m1 0h2m4 0h2m3 0h1m3 0h3m4 0h1m3 0h2m1 0h1m1 0h1m2 0h2m3 0h5m3 0h1m-56 1h1m1 0h2m1 0h6m1 0h2m1 0h1m2 0h1m2 0h2m1 0h1m1 0h4m1 0h2m1 0h2m1 0h2m1 0h2m1 0h1m1 0h1m1 0h3m1 0h1m1 0h3m-57 1h1m1 0h1m2 0h1m1 0h2m2 0h5m3 0h2m4 0h4m1 0h3m3 0h3m2 0h5m3 0h3m1 0h1m1 0h1m-50 1h1m1 0h1m1 0h1m1 0h4m2 0h1m1 0h1m6 0h1m1 0h1m2 0h3m3 0h1m1 0h4m1 0h1m3 0h1m1 0h2m-52 1h1m6 0h2m3 0h1m1 0h2m3 0h8m7 0h1m5 0h1m1 0h2m3 0h1m1 0h3m2 0h1m-54 1h1m2 0h6m2 0h1m2 0h7m1 0h1m1 0h2m2 0h3m2 0h1m2 0h2m1 0h2m1 0h1m1 0h1m3 0h1m1 0h2m2 0h1m-56 1h3m1 0h1m1 0h1m2 0h1m3 0h3m2 0h2m1 0h2m1 0h3m2 0h1m2 0h7m1 0h2m2 0h1m2 0h1m1 0h1m2 0h1m1 0h1m-55 1h1m2 0h1m1 0h2m1 0h1m1 0h1m3 0h1m2 0h2m3 0h5m1 0h2m2 0h1m1 0h3m3 0h5m2 0h2m2 0h1m1 0h2m-56 1h1m1 0h1m1 0h1m4 0h1m1 0h1m3 0h2m2 0h1m3 0h2m1 0h1m2 0h5m3 0h2m2 0h1m2 0h1m1 0h1m1 0h1m1 0h3m3 0h1m-57 1h2m1 0h1m1 0h2m3 0h1m1 0h1m2 0h1m4 0h2m1 0h2m5 0h5m1 0h2m1 0h1m1 0h1m1 0h2m3 0h1m3 0h2m-52 1h3m2 0h3m1 0h1m3 0h2m1 0h1m3 0h2m4 0h2m1 0h1m2 0h1m1 0h1m1 0h1m2 0h2m6 0h1m1 0h1m1 0h1m1 0h1m-56 1h1m1 0h1m2 0h2m2 0h1m1 0h2m3 0h3m1 0h1m1 0h1m2 0h1m2 0h1m2 0h1m3 0h1m2 0h1m3 0h2m3 0h3m2 0h1m-53 1h5m5 0h3m3 0h1m2 0h1m1 0h1m1 0h1m1 0h1m4 0h2m1 0h1m3 0h2m4 0h3m2 0h4m3 0h2m-51 1h1m1 0h1m2 0h1m6 0h3m1 0h2m1 0h7m1 0h1m1 0h1m1 0h1m1 0h1m1 0h5m2 0h5m2 0h2m-49 1h5m1 0h1m3 0h1m1 0h2m1 0h1m1 0h2m3 0h1m2 0h3m6 0h1m1 0h2m2 0h1m3 0h1m1 0h2m-56 1h7m1 0h2m1 0h1m3 0h1m2 0h3m1 0h1m1 0h1m1 0h1m1 0h1m1 0h2m1 0h1m2 0h1m3 0h1m1 0h2m1 0h1m2 0h1m1 0h1m1 0h4m-56 1h1m5 0h1m1 0h5m1 0h1m2 0h1m3 0h2m3 0h1m3 0h1m1 0h1m1 0h4m1 0h1m1 0h1m1 0h4m1 0h1m3 0h1m2 0h2m-57 1h1m1 0h3m1 0h1m1 0h1m2 0h1m1 0h3m1 0h1m1 0h2m1 0h2m2 0h6m1 0h2m1 0h3m2 0h2m1 0h1m1 0h1m1 0h5m-53 1h1m1 0h3m1 0h1m2 0h1m2 0h2m2 0h1m1 0h1m1 0h1m5 0h2m3 0h1m2 0h2m1 0h1m2 0h3m1 0h2m1 0h1m1 0h4m1 0h3m-57 1h1m1 0h3m1 0h1m5 0h3m3 0h1m2 0h1m1 0h2m1 0h4m2 0h3m2 0h1m1 0h1m2 0h1m2 0h2m3 0h1m1 0h1m-53 1h1m5 0h1m2 0h1m1 0h1m1 0h4m1 0h2m1 0h1m5 0h2m1 0h1m1 0h1m1 0h1m1 0h5m1 0h1m1 0h1m2 0h3m-50 1h7m2 0h1m3 0h6m1 0h2m1 0h1m2 0h2m4 0h1m2 0h2m2 0h2m3 0h1m1 0h1m1 0h5m3 0h1"/></svg>
