<?xml version="1.0" standalone="no"?>
<svg xmlns="http://www.w3.org/2000/svg" version="1.1" width="236" height="236">
	<!-- Created with https://api.qrserver.com (QR Code API, see goQR.me/api for information) -->
	<title>QR Code</title>
	<desc>ZXVkaXc6Ly9hdXRob3JpemU/Y2xpZW50X2lkPWh0dHBzOi8vdmVyaWZpZXIuZXhhbXBsZS5vcmcmcmVxdWVzdF91cmk9aHR0cHM6Ly92ZXJpZmllci5leGFtcGxlLm9yZy9yZXF1ZXN0X3VyaQ==</desc>
	<rect style="fill:rgb(255, 255, 255);fill-opacity:1" x="0" y="0" width="236" height="236" />
	<g id="elements">
		<path style="fill:rgb(0, 0, 0)" d="M 4,4 l 4,0 0,4 -4,0 z M 8,4 l 4,0 0,4 -4,0 z M 12,4 l 4,0 0,4 -4,0 z M 16,4 l 4,0 0,4 -4,0 z M 20,4 l 4,0 0,4 -4,0 z M 24,4 l 4,0 0,4 -4,0 z M 28,4 l 4,0 0,4 -4,0 z M 36,4 l 4,0 0,4 -4,0 z M 40,4 l 4,0 0,4 -4,0 z M 44,4 l 4,0 0,4 -4,0 z M 48,4 l 4,0 0,4 -4,0 z M 60,4 l 4,0 0,4 -4,0 z M 64,4 l 4,0 0,4 -4,0 z M 72,4 l 4,0 0,4 -4,0 z M 76,4 l 4,0 0,4 -4,0 z M 80,4 l 4,0 0,4 -4,0 z M 96,4 l 4,0 0,4 -4,0 z M 104,4 l 4,0 0,4 -4,0 z M 116,4 l 4,0 0,4 -4,0 z M 120,4 l 4,0 0,4 -4,0 z M 132,4 l 4,0 0,4 -4,0 z M 144,4 l 4,0 0,4 -4,0 z M 164,4 l 4,0 0,4 -4,0 z M 168,4 l 4,0 0,4 -4,0 z M 172,4 l 4,0 0,4 -4,0 z M 188,4 l 4,0 0,4 -4,0 z M 192,4 l 4,0 0,4 -4,0 z M 204,4 l 4,0 0,4 -4,0 z M 208,4 l 4,0 0,4 -4,0 z M 212,4 l 4,0 0,4 -4,0 z M 216,4 l 4,0 0,4 -4,0 z M 220,4 l 4,0 0,4 -4,0 z M 224,4 l 4,0 0,4 -4,0 z M 228,4 l 4,0 0,4 -4,0 z M 4,8 l 4,0 0,4 -4,0 z M 28,8 l 4,0 0,4 -4,0 z M 40,8 l 4,0 0,4 -4,0 z M 56,8 l 4,0 0,4 -4,0 z M 60,8 l 4,0 0,4 -4,0 z M 64,8 l 4,0 0,4 -4,0 z M 72,8 l 4,0 0,4 -4,0 z M 80,8 l 4,0 0,4 -4,0 z M 84,8 l 4,0 0,4 -4,0 z M 92,8 l 4,0 0,4 -4,0 z M 104,8 l 4,0 0,4 -4,0 z M 120,8 l 4,0 0,4 -4,0 z M 128,8 l 4,0 0,4 -4,0 z M 136,8 l 4,0 0,4 -4,0 z M 144,8 l 4,0 0,4 -4,0 z M 156,8 l 4,0 0,4 -4,0 z M 160,8 l 4,0 0,4 -4,0 z M 168,8 l 4,0 0,4 -4,0 z M 180,8 l 4,0 0,4 -4,0 z M 184,8 l 4,0 0,4 -4,0 z M 192,8 l 4,0 0,4 -4,0 z M 204,8 l 4,0 0,4 -4,0 z M 228,8 l 4,0 0,4 -4,0 z M 4,12 l 4,0 0,4 -4,0 z M 12,12 l 4,0 0,4 -4,0 z M 16,12 l 4,0 0,4 -4,0 z M 20,12 l 4,0 0,4 -4,0 z M 28,12 l 4,0 0,4 -4,0 z M 44,12 l 4,0 0,4 -4,0 z M 52,12 l 4,0 0,4 -4,0 z M 64,12 l 4,0 0,4 -4,0 z M 68,12 l 4,0 0,4 -4,0 z M 72,12 l 4,0 0,4 -4,0 z M 76,12 l 4,0 0,4 -4,0 z M 80,12 l 4,0 0,4 -4,0 z M 92,12 l 4,0 0,4 -4,0 z M 96,12 l 4,0 0,4 -4,0 z M 100,12 l 4,0 0,4 -4,0 z M 104,12 l 4,0 0,4 -4,0 z M 108,12 l 4,0 0,4 -4,0 z M 116,12 l 4,0 0,4 -4,0 z M 124,12 l 4,0 0,4 -4,0 z M 128,12 l 4,0 0,4 -4,0 z M 132,12 l 4,0 0,4 -4,0 z M 152,12 l 4,0 0,4 -4,0 z M 160,12 l 4,0 0,4 -4,0 z M 168,12 l 4,0 0,4 -4,0 z M 172,12 l 4,0 0,4 -4,0 z M 188,12 l 4,0 0,4 -4,0 z M 192,12 l 4,0 0,4 -4,0 z M 204,12 l 4,0 0,4 -4,0 z M 212,12 l 4,0 0,4 -4,0 z M 216,12 l 4,0 0,4 -4,0 z M 220,12 l 4,0 0,4 -4,0 z M 228,12 l 4,0 0,4 -4,0 z M 4,16 l 4,0 0,4 -4,0 z M 12,16 l 4,0 0,4 -4,0 z M 16,16 l 4,0 0,4 -4,0 z M 20,16 l 4,0 0,4 -4,0 z M 28,16 l 4,0 0,4 -4,0 z M 44,16 l 4,0 0,4 -4,0 z M 48,16 l 4,0 0,4 -4,0 z M 52,16 l 4,0 0,4 -4,0 z M 56,16 l 4,0 0,4 -4,0 z M 60,16 l 4,0 0,4 -4,0 z M 64,16 l 4,0 0,4 -4,0 z M 68,16 l 4,0 0,4 -4,0 z M 76,16 l 4,0 0,4 -4,0 z M 88,16 l 4,0 0,4 -4,0 z M 96,16 l 4,0 0,4 -4,0 z M 104,16 l 4,0 0,4 -4,0 z M 108,16 l 4,0 0,4 -4,0 z M 124,16 l 4,0 0,4 -4,0 z M 128,16 l 4,0 0,4 -4,0 z M 144,16 l 4,0 0,4 -4,0 z M 148,16 l 4,0 0,4 -4,0 z M 152,16 l 4,0 0,4 -4,0 z M 156,16 l 4,0 0,4 -4,0 z M 168,16 l 4,0 0,4 -4,0 z M 176,16 l 4,0 0,4 -4,0 z M 192,16 l 4,0 0,4 -4,0 z M 204,16 l 4,0 0,4 -4,0 z M 212,16 l 4,0 0,4 -4,0 z M 216,16 l 4,0 0,4 -4,0 z M 220,16 l 4,0 0,4 -4,0 z M 228,16 l 4,0 0,4 -4,0 z M 4,20 l 4,0 0,4 -4,0 z M 12,20 l 4,0 0,4 -4,0 z M 16,20 l 4,0 0,4 -4,0 z M 20,20 l 4,0 0,4 -4,0 z M 28,20 l 4,0 0,4 -4,0 z M 36,20 l 4,0 0,4 -4,0 z M 60,20 l 4,0 0,4 -4,0 z M 64,20 l 4,0 0,4 -4,0 z M 68,20 l 4,0 0,4 -4,0 z M 76,20 l 4,0 0,4 -4,0 z M 80,20 l 4,0 0,4 -4,0 z M 88,20 l 4,0 0,4 -4,0 z M 100,20 l 4,0 0,4 -4,0 z M 104,20 l 4,0 0,4 -4,0 z M 108,20 l 4,0 0,4 -4,0 z M 112,20 l 4,0 0,4 -4,0 z M 116,20 l 4,0 0,4 -4,0 z M 120,20 l 4,0 0,4 -4,0 z M 124,20 l 4,0 0,4 -4,0 z M 132,20 l 4,0 0,4 -4,0 z M 156,20 l 4,0 0,4 -4,0 z M 160,20 l 4,0 0,4 -4,0 z M 164,20 l 4,0 0,4 -4,0 z M 180,20 l 4,0 0,4 -4,0 z M 184,20 l 4,0 0,4 -4,0 z M 192,20 l 4,0 0,4 -4,0 z M 204,20 l 4,0 0,4 -4,0 z M 212,20 l 4,0 0,4 -4,0 z M 216,20 l 4,0 0,4 -4,0 z M 220,20 l 4,0 0,4 -4,0 z M 228,20 l 4,0 0,4 -4,0 z M 4,24 l 4,0 0,4 -4,0 z M 28,24 l 4,0 0,4 -4,0 z M 36,24 l 4,0 0,4 -4,0 z M 40,24 l 4,0 0,4 -4,0 z M 48,24 l 4,0 0,4 -4,0 z M 52,24 l 4,0 0,4 -4,0 z M 56,24 l 4,0 0,4 -4,0 z M 60,24 l 4,0 0,4 -4,0 z M 64,24 l 4,0 0,4 -4,0 z M 76,24 l 4,0 0,4 -4,0 z M 84,24 l 4,0 0,4 -4,0 z M 104,24 l 4,0 0,4 -4,0 z M 108,24 l 4,0 0,4 -4,0 z M 124,24 l 4,0 0,4 -4,0 z M 132,24 l 4,0 0,4 -4,0 z M 136,24 l 4,0 0,4 -4,0 z M 140,24 l 4,0 0,4 -4,0 z M 148,24 l 4,0 0,4 -4,0 z M 176,24 l 4,0 0,4 -4,0 z M 184,24 l 4,0 0,4 -4,0 z M 188,24 l 4,0 0,4 -4,0 z M 204,24 l 4,0 0,4 -4,0 z M 228,24 l 4,0 0,4 -4,0 z M 4,28 l 4,0 0,4 -4,0 z M 8,28 l 4,0 0,4 -4,0 z M 12,28 l 4,0 0,4 -4,0 z M 16,28 l 4,0 0,4 -4,0 z M 20,28 l 4,0 0,4 -4,0 z M 24,28 l 4,0 0,4 -4,0 z M 28,28 l 4,0 0,4 -4,0 z M 36,28 l 4,0 0,4 -4,0 z M 44,28 l 4,0 0,4 -4,0 z M 52,28 l 4,0 0,4 -4,0 z M 60,28 l 4,0 0,4 -4,0 z M 68,28 l 4,0 0,4 -4,0 z M 76,28 l 4,0 0,4 -4,0 z M 84,28 l 4,0 0,4 -4,0 z M 92,28 l 4,0 0,4 -4,0 z M 100,28 l 4,0 0,4 -4,0 z M 108,28 l 4,0 0,4 -4,0 z M 116,28 l 4,0 0,4 -4,0 z M 124,28 l 4,0 0,4 -4,0 z M 132,28 l 4,0 0,4 -4,0 z M 140,28 l 4,0 0,4 -4,0 z M 148,28 l 4,0 0,4 -4,0 z M 156,28 l 4,0 0,4 -4,0 z M 164,28 l 4,0 0,4 -4,0 z M 172,28 l 4,0 0,4 -4,0 z M 180,28 l 4,0 0,4 -4,0 z M 188,28 l 4,0 0,4 -4,0 z M 196,28 l 4,0 0,4 -4,0 z M 204,28 l 4,0 0,4 -4,0 z M 208,28 l 4,0 0,4 -4,0 z M 212,28 l 4,0 0,4 -4,0 z M 216,28 l 4,0 0,4 -4,0 z M 220,28 l 4,0 0,4 -4,0 z M 224,28 l 4,0 0,4 -4,0 z M 228,28 l 4,0 0,4 -4,0 z M 40,32 l 4,0 0,4 -4,0 z M 48,32 l 4,0 0,4 -4,0 z M 68,32 l 4,0 0,4 -4,0 z M 76,32 l 4,0 0,4 -4,0 z M 80,32 l 4,0 0,4 -4,0 z M 100,32 l 4,0 0,4 -4,0 z M 108,32 l 4,0 0,4 -4,0 z M 124,32 l 4,0 0,4 -4,0 z M 132,32 l 4,0 0,4 -4,0 z M 144,32 l 4,0 0,4 -4,0 z M 148,32 l 4,0 0,4 -4,0 z M 160,32 l 4,0 0,4 -4,0 z M 168,32 l 4,0 0,4 -4,0 z M 172,32 l 4,0 0,4 -4,0 z M 176,32 l 4,0 0,4 -4,0 z M 184,32 l 4,0 0,4 -4,0 z M 192,32 l 4,0 0,4 -4,0 z M 196,32 l 4,0 0,4 -4,0 z M 8,36 l 4,0 0,4 -4,0 z M 12,36 l 4,0 0,4 -4,0 z M 16,36 l 4,0 0,4 -4,0 z M 20,36 l 4,0 0,4 -4,0 z M 24,36 l 4,0 0,4 -4,0 z M 28,36 l 4,0 0,4 -4,0 z M 32,36 l 4,0 0,4 -4,0 z M 44,36 l 4,0 0,4 -4,0 z M 48,36 l 4,0 0,4 -4,0 z M 56,36 l 4,0 0,4 -4,0 z M 60,36 l 4,0 0,4 -4,0 z M 64,36 l 4,0 0,4 -4,0 z M 76,36 l 4,0 0,4 -4,0 z M 80,36 l 4,0 0,4 -4,0 z M 100,36 l 4,0 0,4 -4,0 z M 108,36 l 4,0 0,4 -4,0 z M 112,36 l 4,0 0,4 -4,0 z M 116,36 l 4,0 0,4 -4,0 z M 120,36 l 4,0 0,4 -4,0 z M 124,36 l 4,0 0,4 -4,0 z M 128,36 l 4,0 0,4 -4,0 z M 148,36 l 4,0 0,4 -4,0 z M 160,36 l 4,0 0,4 -4,0 z M 164,36 l 4,0 0,4 -4,0 z M 192,36 l 4,0 0,4 -4,0 z M 208,36 l 4,0 0,4 -4,0 z M 212,36 l 4,0 0,4 -4,0 z M 228,36 l 4,0 0,4 -4,0 z M 4,40 l 4,0 0,4 -4,0 z M 20,40 l 4,0 0,4 -4,0 z M 24,40 l 4,0 0,4 -4,0 z M 36,40 l 4,0 0,4 -4,0 z M 40,40 l 4,0 0,4 -4,0 z M 44,40 l 4,0 0,4 -4,0 z M 48,40 l 4,0 0,4 -4,0 z M 52,40 l 4,0 0,4 -4,0 z M 56,40 l 4,0 0,4 -4,0 z M 60,40 l 4,0 0,4 -4,0 z M 68,40 l 4,0 0,4 -4,0 z M 72,40 l 4,0 0,4 -4,0 z M 76,40 l 4,0 0,4 -4,0 z M 80,40 l 4,0 0,4 -4,0 z M 92,40 l 4,0 0,4 -4,0 z M 108,40 l 4,0 0,4 -4,0 z M 116,40 l 4,0 0,4 -4,0 z M 120,40 l 4,0 0,4 -4,0 z M 124,40 l 4,0 0,4 -4,0 z M 136,40 l 4,0 0,4 -4,0 z M 196,40 l 4,0 0,4 -4,0 z M 200,40 l 4,0 0,4 -4,0 z M 216,40 l 4,0 0,4 -4,0 z M 220,40 l 4,0 0,4 -4,0 z M 224,40 l 4,0 0,4 -4,0 z M 228,40 l 4,0 0,4 -4,0 z M 8,44 l 4,0 0,4 -4,0 z M 16,44 l 4,0 0,4 -4,0 z M 20,44 l 4,0 0,4 -4,0 z M 24,44 l 4,0 0,4 -4,0 z M 28,44 l 4,0 0,4 -4,0 z M 36,44 l 4,0 0,4 -4,0 z M 44,44 l 4,0 0,4 -4,0 z M 48,44 l 4,0 0,4 -4,0 z M 52,44 l 4,0 0,4 -4,0 z M 56,44 l 4,0 0,4 -4,0 z M 60,44 l 4,0 0,4 -4,0 z M 72,44 l 4,0 0,4 -4,0 z M 76,44 l 4,0 0,4 -4,0 z M 80,44 l 4,0 0,4 -4,0 z M 84,44 l 4,0 0,4 -4,0 z M 112,44 l 4,0 0,4 -4,0 z M 120,44 l 4,0 0,4 -4,0 z M 140,44 l 4,0 0,4 -4,0 z M 144,44 l 4,0 0,4 -4,0 z M 148,44 l 4,0 0,4 -4,0 z M 172,44 l 4,0 0,4 -4,0 z M 180,44 l 4,0 0,4 -4,0 z M 204,44 l 4,0 0,4 -4,0 z M 224,44 l 4,0 0,4 -4,0 z M 4,48 l 4,0 0,4 -4,0 z M 16,48 l 4,0 0,4 -4,0 z M 32,48 l 4,0 0,4 -4,0 z M 36,48 l 4,0 0,4 -4,0 z M 40,48 l 4,0 0,4 -4,0 z M 56,48 l 4,0 0,4 -4,0 z M 60,48 l 4,0 0,4 -4,0 z M 64,48 l 4,0 0,4 -4,0 z M 84,48 l 4,0 0,4 -4,0 z M 88,48 l 4,0 0,4 -4,0 z M 92,48 l 4,0 0,4 -4,0 z M 112,48 l 4,0 0,4 -4,0 z M 128,48 l 4,0 0,4 -4,0 z M 132,48 l 4,0 0,4 -4,0 z M 144,48 l 4,0 0,4 -4,0 z M 148,48 l 4,0 0,4 -4,0 z M 156,48 l 4,0 0,4 -4,0 z M 160,48 l 4,0 0,4 -4,0 z M 168,48 l 4,0 0,4 -4,0 z M 172,48 l 4,0 0,4 -4,0 z M 180,48 l 4,0 0,4 -4,0 z M 184,48 l 4,0 0,4 -4,0 z M 192,48 l 4,0 0,4 -4,0 z M 196,48 l 4,0 0,4 -4,0 z M 200,48 l 4,0 0,4 -4,0 z M 220,48 l 4,0 0,4 -4,0 z M 224,48 l 4,0 0,4 -4,0 z M 8,52 l 4,0 0,4 -4,0 z M 12,52 l 4,0 0,4 -4,0 z M 24,52 l 4,0 0,4 -4,0 z M 28,52 l 4,0 0,4 -4,0 z M 52,52 l 4,0 0,4 -4,0 z M 56,52 l 4,0 0,4 -4,0 z M 76,52 l 4,0 0,4 -4,0 z M 84,52 l 4,0 0,4 -4,0 z M 88,52 l 4,0 0,4 -4,0 z M 96,52 l 4,0 0,4 -4,0 z M 104,52 l 4,0 0,4 -4,0 z M 120,52 l 4,0 0,4 -4,0 z M 124,52 l 4,0 0,4 -4,0 z M 128,52 l 4,0 0,4 -4,0 z M 136,52 l 4,0 0,4 -4,0 z M 140,52 l 4,0 0,4 -4,0 z M 144,52 l 4,0 0,4 -4,0 z M 160,52 l 4,0 0,4 -4,0 z M 164,52 l 4,0 0,4 -4,0 z M 168,52 l 4,0 0,4 -4,0 z M 172,52 l 4,0 0,4 -4,0 z M 176,52 l 4,0 0,4 -4,0 z M 192,52 l 4,0 0,4 -4,0 z M 196,52 l 4,0 0,4 -4,0 z M 200,52 l 4,0 0,4 -4,0 z M 216,52 l 4,0 0,4 -4,0 z M 224,52 l 4,0 0,4 -4,0 z M 20,56 l 4,0 0,4 -4,0 z M 36,56 l 4,0 0,4 -4,0 z M 40,56 l 4,0 0,4 -4,0 z M 52,56 l 4,0 0,4 -4,0 z M 60,56 l 4,0 0,4 -4,0 z M 68,56 l 4,0 0,4 -4,0 z M 84,56 l 4,0 0,4 -4,0 z M 88,56 l 4,0 0,4 -4,0 z M 92,56 l 4,0 0,4 -4,0 z M 100,56 l 4,0 0,4 -4,0 z M 104,56 l 4,0 0,4 -4,0 z M 112,56 l 4,0 0,4 -4,0 z M 116,56 l 4,0 0,4 -4,0 z M 124,56 l 4,0 0,4 -4,0 z M 128,56 l 4,0 0,4 -4,0 z M 136,56 l 4,0 0,4 -4,0 z M 152,56 l 4,0 0,4 -4,0 z M 164,56 l 4,0 0,4 -4,0 z M 168,56 l 4,0 0,4 -4,0 z M 172,56 l 4,0 0,4 -4,0 z M 192,56 l 4,0 0,4 -4,0 z M 200,56 l 4,0 0,4 -4,0 z M 208,56 l 4,0 0,4 -4,0 z M 220,56 l 4,0 0,4 -4,0 z M 4,60 l 4,0 0,4 -4,0 z M 8,60 l 4,0 0,4 -4,0 z M 12,60 l 4,0 0,4 -4,0 z M 20,60 l 4,0 0,4 -4,0 z M 24,60 l 4,0 0,4 -4,0 z M 28,60 l 4,0 0,4 -4,0 z M 32,60 l 4,0 0,4 -4,0 z M 40,60 l 4,0 0,4 -4,0 z M 48,60 l 4,0 0,4 -4,0 z M 60,60 l 4,0 0,4 -4,0 z M 64,60 l 4,0 0,4 -4,0 z M 68,60 l 4,0 0,4 -4,0 z M 80,60 l 4,0 0,4 -4,0 z M 100,60 l 4,0 0,4 -4,0 z M 108,60 l 4,0 0,4 -4,0 z M 112,60 l 4,0 0,4 -4,0 z M 116,60 l 4,0 0,4 -4,0 z M 120,60 l 4,0 0,4 -4,0 z M 124,60 l 4,0 0,4 -4,0 z M 132,60 l 4,0 0,4 -4,0 z M 140,60 l 4,0 0,4 -4,0 z M 144,60 l 4,0 0,4 -4,0 z M 148,60 l 4,0 0,4 -4,0 z M 156,60 l 4,0 0,4 -4,0 z M 160,60 l 4,0 0,4 -4,0 z M 168,60 l 4,0 0,4 -4,0 z M 176,60 l 4,0 0,4 -4,0 z M 200,60 l 4,0 0,4 -4,0 z M 204,60 l 4,0 0,4 -4,0 z M 208,60 l 4,0 0,4 -4,0 z M 212,60 l 4,0 0,4 -4,0 z M 216,60 l 4,0 0,4 -4,0 z M 224,60 l 4,0 0,4 -4,0 z M 228,60 l 4,0 0,4 -4,0 z M 4,64 l 4,0 0,4 -4,0 z M 20,64 l 4,0 0,4 -4,0 z M 32,64 l 4,0 0,4 -4,0 z M 36,64 l 4,0 0,4 -4,0 z M 40,64 l 4,0 0,4 -4,0 z M 44,64 l 4,0 0,4 -4,0 z M 48,64 l 4,0 0,4 -4,0 z M 52,64 l 4,0 0,4 -4,0 z M 60,64 l 4,0 0,4 -4,0 z M 72,64 l 4,0 0,4 -4,0 z M 76,64 l 4,0 0,4 -4,0 z M 80,64 l 4,0 0,4 -4,0 z M 88,64 l 4,0 0,4 -4,0 z M 92,64 l 4,0 0,4 -4,0 z M 108,64 l 4,0 0,4 -4,0 z M 112,64 l 4,0 0,4 -4,0 z M 116,64 l 4,0 0,4 -4,0 z M 128,64 l 4,0 0,4 -4,0 z M 132,64 l 4,0 0,4 -4,0 z M 168,64 l 4,0 0,4 -4,0 z M 172,64 l 4,0 0,4 -4,0 z M 180,64 l 4,0 0,4 -4,0 z M 188,64 l 4,0 0,4 -4,0 z M 192,64 l 4,0 0,4 -4,0 z M 196,64 l 4,0 0,4 -4,0 z M 200,64 l 4,0 0,4 -4,0 z M 208,64 l 4,0 0,4 -4,0 z M 228,64 l 4,0 0,4 -4,0 z M 4,68 l 4,0 0,4 -4,0 z M 8,68 l 4,0 0,4 -4,0 z M 12,68 l 4,0 0,4 -4,0 z M 16,68 l 4,0 0,4 -4,0 z M 20,68 l 4,0 0,4 -4,0 z M 24,68 l 4,0 0,4 -4,0 z M 28,68 l 4,0 0,4 -4,0 z M 32,68 l 4,0 0,4 -4,0 z M 36,68 l 4,0 0,4 -4,0 z M 44,68 l 4,0 0,4 -4,0 z M 48,68 l 4,0 0,4 -4,0 z M 52,68 l 4,0 0,4 -4,0 z M 56,68 l 4,0 0,4 -4,0 z M 60,68 l 4,0 0,4 -4,0 z M 68,68 l 4,0 0,4 -4,0 z M 76,68 l 4,0 0,4 -4,0 z M 84,68 l 4,0 0,4 -4,0 z M 96,68 l 4,0 0,4 -4,0 z M 100,68 l 4,0 0,4 -4,0 z M 108,68 l 4,0 0,4 -4,0 z M 116,68 l 4,0 0,4 -4,0 z M 128,68 l 4,0 0,4 -4,0 z M 132,68 l 4,0 0,4 -4,0 z M 140,68 l 4,0 0,4 -4,0 z M 152,68 l 4,0 0,4 -4,0 z M 160,68 l 4,0 0,4 -4,0 z M 164,68 l 4,0 0,4 -4,0 z M 172,68 l 4,0 0,4 -4,0 z M 176,68 l 4,0 0,4 -4,0 z M 188,68 l 4,0 0,4 -4,0 z M 192,68 l 4,0 0,4 -4,0 z M 196,68 l 4,0 0,4 -4,0 z M 200,68 l 4,0 0,4 -4,0 z M 208,68 l 4,0 0,4 -4,0 z M 216,68 l 4,0 0,4 -4,0 z M 220,68 l 4,0 0,4 -4,0 z M 224,68 l 4,0 0,4 -4,0 z M 4,72 l 4,0 0,4 -4,0 z M 8,72 l 4,0 0,4 -4,0 z M 12,72 l 4,0 0,4 -4,0 z M 24,72 l 4,0 0,4 -4,0 z M 32,72 l 4,0 0,4 -4,0 z M 40,72 l 4,0 0,4 -4,0 z M 48,72 l 4,0 0,4 -4,0 z M 56,72 l 4,0 0,4 -4,0 z M 60,72 l 4,0 0,4 -4,0 z M 64,72 l 4,0 0,4 -4,0 z M 84,72 l 4,0 0,4 -4,0 z M 88,72 l 4,0 0,4 -4,0 z M 92,72 l 4,0 0,4 -4,0 z M 96,72 l 4,0 0,4 -4,0 z M 100,72 l 4,0 0,4 -4,0 z M 116,72 l 4,0 0,4 -4,0 z M 136,72 l 4,0 0,4 -4,0 z M 148,72 l 4,0 0,4 -4,0 z M 152,72 l 4,0 0,4 -4,0 z M 156,72 l 4,0 0,4 -4,0 z M 168,72 l 4,0 0,4 -4,0 z M 176,72 l 4,0 0,4 -4,0 z M 180,72 l 4,0 0,4 -4,0 z M 204,72 l 4,0 0,4 -4,0 z M 208,72 l 4,0 0,4 -4,0 z M 212,72 l 4,0 0,4 -4,0 z M 216,72 l 4,0 0,4 -4,0 z M 220,72 l 4,0 0,4 -4,0 z M 12,76 l 4,0 0,4 -4,0 z M 28,76 l 4,0 0,4 -4,0 z M 32,76 l 4,0 0,4 -4,0 z M 44,76 l 4,0 0,4 -4,0 z M 48,76 l 4,0 0,4 -4,0 z M 52,76 l 4,0 0,4 -4,0 z M 56,76 l 4,0 0,4 -4,0 z M 60,76 l 4,0 0,4 -4,0 z M 68,76 l 4,0 0,4 -4,0 z M 84,76 l 4,0 0,4 -4,0 z M 88,76 l 4,0 0,4 -4,0 z M 92,76 l 4,0 0,4 -4,0 z M 100,76 l 4,0 0,4 -4,0 z M 104,76 l 4,0 0,4 -4,0 z M 112,76 l 4,0 0,4 -4,0 z M 116,76 l 4,0 0,4 -4,0 z M 124,76 l 4,0 0,4 -4,0 z M 132,76 l 4,0 0,4 -4,0 z M 136,76 l 4,0 0,4 -4,0 z M 144,76 l 4,0 0,4 -4,0 z M 148,76 l 4,0 0,4 -4,0 z M 164,76 l 4,0 0,4 -4,0 z M 172,76 l 4,0 0,4 -4,0 z M 196,76 l 4,0 0,4 -4,0 z M 204,76 l 4,0 0,4 -4,0 z M 208,76 l 4,0 0,4 -4,0 z M 224,76 l 4,0 0,4 -4,0 z M 16,80 l 4,0 0,4 -4,0 z M 20,80 l 4,0 0,4 -4,0 z M 36,80 l 4,0 0,4 -4,0 z M 44,80 l 4,0 0,4 -4,0 z M 48,80 l 4,0 0,4 -4,0 z M 64,80 l 4,0 0,4 -4,0 z M 68,80 l 4,0 0,4 -4,0 z M 84,80 l 4,0 0,4 -4,0 z M 96,80 l 4,0 0,4 -4,0 z M 100,80 l 4,0 0,4 -4,0 z M 108,80 l 4,0 0,4 -4,0 z M 112,80 l 4,0 0,4 -4,0 z M 116,80 l 4,0 0,4 -4,0 z M 136,80 l 4,0 0,4 -4,0 z M 144,80 l 4,0 0,4 -4,0 z M 148,80 l 4,0 0,4 -4,0 z M 152,80 l 4,0 0,4 -4,0 z M 160,80 l 4,0 0,4 -4,0 z M 164,80 l 4,0 0,4 -4,0 z M 168,80 l 4,0 0,4 -4,0 z M 172,80 l 4,0 0,4 -4,0 z M 192,80 l 4,0 0,4 -4,0 z M 196,80 l 4,0 0,4 -4,0 z M 200,80 l 4,0 0,4 -4,0 z M 212,80 l 4,0 0,4 -4,0 z M 216,80 l 4,0 0,4 -4,0 z M 224,80 l 4,0 0,4 -4,0 z M 228,80 l 4,0 0,4 -4,0 z M 4,84 l 4,0 0,4 -4,0 z M 8,84 l 4,0 0,4 -4,0 z M 12,84 l 4,0 0,4 -4,0 z M 28,84 l 4,0 0,4 -4,0 z M 36,84 l 4,0 0,4 -4,0 z M 48,84 l 4,0 0,4 -4,0 z M 52,84 l 4,0 0,4 -4,0 z M 56,84 l 4,0 0,4 -4,0 z M 68,84 l 4,0 0,4 -4,0 z M 72,84 l 4,0 0,4 -4,0 z M 76,84 l 4,0 0,4 -4,0 z M 80,84 l 4,0 0,4 -4,0 z M 96,84 l 4,0 0,4 -4,0 z M 108,84 l 4,0 0,4 -4,0 z M 112,84 l 4,0 0,4 -4,0 z M 124,84 l 4,0 0,4 -4,0 z M 140,84 l 4,0 0,4 -4,0 z M 148,84 l 4,0 0,4 -4,0 z M 152,84 l 4,0 0,4 -4,0 z M 156,84 l 4,0 0,4 -4,0 z M 168,84 l 4,0 0,4 -4,0 z M 176,84 l 4,0 0,4 -4,0 z M 184,84 l 4,0 0,4 -4,0 z M 188,84 l 4,0 0,4 -4,0 z M 196,84 l 4,0 0,4 -4,0 z M 204,84 l 4,0 0,4 -4,0 z M 208,84 l 4,0 0,4 -4,0 z M 220,84 l 4,0 0,4 -4,0 z M 8,88 l 4,0 0,4 -4,0 z M 20,88 l 4,0 0,4 -4,0 z M 24,88 l 4,0 0,4 -4,0 z M 32,88 l 4,0 0,4 -4,0 z M 36,88 l 4,0 0,4 -4,0 z M 40,88 l 4,0 0,4 -4,0 z M 56,88 l 4,0 0,4 -4,0 z M 68,88 l 4,0 0,4 -4,0 z M 76,88 l 4,0 0,4 -4,0 z M 80,88 l 4,0 0,4 -4,0 z M 84,88 l 4,0 0,4 -4,0 z M 88,88 l 4,0 0,4 -4,0 z M 104,88 l 4,0 0,4 -4,0 z M 112,88 l 4,0 0,4 -4,0 z M 132,88 l 4,0 0,4 -4,0 z M 136,88 l 4,0 0,4 -4,0 z M 140,88 l 4,0 0,4 -4,0 z M 144,88 l 4,0 0,4 -4,0 z M 152,88 l 4,0 0,4 -4,0 z M 168,88 l 4,0 0,4 -4,0 z M 172,88 l 4,0 0,4 -4,0 z M 180,88 l 4,0 0,4 -4,0 z M 196,88 l 4,0 0,4 -4,0 z M 200,88 l 4,0 0,4 -4,0 z M 204,88 l 4,0 0,4 -4,0 z M 208,88 l 4,0 0,4 -4,0 z M 212,88 l 4,0 0,4 -4,0 z M 220,88 l 4,0 0,4 -4,0 z M 224,88 l 4,0 0,4 -4,0 z M 4,92 l 4,0 0,4 -4,0 z M 12,92 l 4,0 0,4 -4,0 z M 16,92 l 4,0 0,4 -4,0 z M 20,92 l 4,0 0,4 -4,0 z M 28,92 l 4,0 0,4 -4,0 z M 32,92 l 4,0 0,4 -4,0 z M 44,92 l 4,0 0,4 -4,0 z M 60,92 l 4,0 0,4 -4,0 z M 68,92 l 4,0 0,4 -4,0 z M 72,92 l 4,0 0,4 -4,0 z M 76,92 l 4,0 0,4 -4,0 z M 80,92 l 4,0 0,4 -4,0 z M 88,92 l 4,0 0,4 -4,0 z M 96,92 l 4,0 0,4 -4,0 z M 100,92 l 4,0 0,4 -4,0 z M 116,92 l 4,0 0,4 -4,0 z M 120,92 l 4,0 0,4 -4,0 z M 124,92 l 4,0 0,4 -4,0 z M 132,92 l 4,0 0,4 -4,0 z M 148,92 l 4,0 0,4 -4,0 z M 156,92 l 4,0 0,4 -4,0 z M 160,92 l 4,0 0,4 -4,0 z M 164,92 l 4,0 0,4 -4,0 z M 172,92 l 4,0 0,4 -4,0 z M 176,92 l 4,0 0,4 -4,0 z M 184,92 l 4,0 0,4 -4,0 z M 192,92 l 4,0 0,4 -4,0 z M 200,92 l 4,0 0,4 -4,0 z M 216,92 l 4,0 0,4 -4,0 z M 4,96 l 4,0 0,4 -4,0 z M 20,96 l 4,0 0,4 -4,0 z M 52,96 l 4,0 0,4 -4,0 z M 60,96 l 4,0 0,4 -4,0 z M 64,96 l 4,0 0,4 -4,0 z M 68,96 l 4,0 0,4 -4,0 z M 72,96 l 4,0 0,4 -4,0 z M 76,96 l 4,0 0,4 -4,0 z M 84,96 l 4,0 0,4 -4,0 z M 88,96 l 4,0 0,4 -4,0 z M 96,96 l 4,0 0,4 -4,0 z M 104,96 l 4,0 0,4 -4,0 z M 112,96 l 4,0 0,4 -4,0 z M 116,96 l 4,0 0,4 -4,0 z M 120,96 l 4,0 0,4 -4,0 z M 132,96 l 4,0 0,4 -4,0 z M 152,96 l 4,0 0,4 -4,0 z M 160,96 l 4,0 0,4 -4,0 z M 168,96 l 4,0 0,4 -4,0 z M 172,96 l 4,0 0,4 -4,0 z M 196,96 l 4,0 0,4 -4,0 z M 200,96 l 4,0 0,4 -4,0 z M 208,96 l 4,0 0,4 -4,0 z M 4,100 l 4,0 0,4 -4,0 z M 12,100 l 4,0 0,4 -4,0 z M 16,100 l 4,0 0,4 -4,0 z M 28,100 l 4,0 0,4 -4,0 z M 32,100 l 4,0 0,4 -4,0 z M 40,100 l 4,0 0,4 -4,0 z M 48,100 l 4,0 0,4 -4,0 z M 60,100 l 4,0 0,4 -4,0 z M 64,100 l 4,0 0,4 -4,0 z M 68,100 l 4,0 0,4 -4,0 z M 72,100 l 4,0 0,4 -4,0 z M 80,100 l 4,0 0,4 -4,0 z M 84,100 l 4,0 0,4 -4,0 z M 92,100 l 4,0 0,4 -4,0 z M 96,100 l 4,0 0,4 -4,0 z M 108,100 l 4,0 0,4 -4,0 z M 120,100 l 4,0 0,4 -4,0 z M 124,100 l 4,0 0,4 -4,0 z M 132,100 l 4,0 0,4 -4,0 z M 168,100 l 4,0 0,4 -4,0 z M 180,100 l 4,0 0,4 -4,0 z M 188,100 l 4,0 0,4 -4,0 z M 200,100 l 4,0 0,4 -4,0 z M 208,100 l 4,0 0,4 -4,0 z M 212,100 l 4,0 0,4 -4,0 z M 216,100 l 4,0 0,4 -4,0 z M 220,100 l 4,0 0,4 -4,0 z M 4,104 l 4,0 0,4 -4,0 z M 12,104 l 4,0 0,4 -4,0 z M 16,104 l 4,0 0,4 -4,0 z M 20,104 l 4,0 0,4 -4,0 z M 32,104 l 4,0 0,4 -4,0 z M 40,104 l 4,0 0,4 -4,0 z M 44,104 l 4,0 0,4 -4,0 z M 52,104 l 4,0 0,4 -4,0 z M 60,104 l 4,0 0,4 -4,0 z M 64,104 l 4,0 0,4 -4,0 z M 76,104 l 4,0 0,4 -4,0 z M 80,104 l 4,0 0,4 -4,0 z M 100,104 l 4,0 0,4 -4,0 z M 108,104 l 4,0 0,4 -4,0 z M 120,104 l 4,0 0,4 -4,0 z M 124,104 l 4,0 0,4 -4,0 z M 128,104 l 4,0 0,4 -4,0 z M 136,104 l 4,0 0,4 -4,0 z M 144,104 l 4,0 0,4 -4,0 z M 148,104 l 4,0 0,4 -4,0 z M 164,104 l 4,0 0,4 -4,0 z M 168,104 l 4,0 0,4 -4,0 z M 172,104 l 4,0 0,4 -4,0 z M 176,104 l 4,0 0,4 -4,0 z M 196,104 l 4,0 0,4 -4,0 z M 208,104 l 4,0 0,4 -4,0 z M 216,104 l 4,0 0,4 -4,0 z M 224,104 l 4,0 0,4 -4,0 z M 20,108 l 4,0 0,4 -4,0 z M 24,108 l 4,0 0,4 -4,0 z M 28,108 l 4,0 0,4 -4,0 z M 32,108 l 4,0 0,4 -4,0 z M 36,108 l 4,0 0,4 -4,0 z M 48,108 l 4,0 0,4 -4,0 z M 52,108 l 4,0 0,4 -4,0 z M 60,108 l 4,0 0,4 -4,0 z M 64,108 l 4,0 0,4 -4,0 z M 68,108 l 4,0 0,4 -4,0 z M 72,108 l 4,0 0,4 -4,0 z M 76,108 l 4,0 0,4 -4,0 z M 84,108 l 4,0 0,4 -4,0 z M 92,108 l 4,0 0,4 -4,0 z M 108,108 l 4,0 0,4 -4,0 z M 112,108 l 4,0 0,4 -4,0 z M 116,108 l 4,0 0,4 -4,0 z M 120,108 l 4,0 0,4 -4,0 z M 124,108 l 4,0 0,4 -4,0 z M 128,108 l 4,0 0,4 -4,0 z M 132,108 l 4,0 0,4 -4,0 z M 144,108 l 4,0 0,4 -4,0 z M 148,108 l 4,0 0,4 -4,0 z M 156,108 l 4,0 0,4 -4,0 z M 164,108 l 4,0 0,4 -4,0 z M 168,108 l 4,0 0,4 -4,0 z M 176,108 l 4,0 0,4 -4,0 z M 192,108 l 4,0 0,4 -4,0 z M 196,108 l 4,0 0,4 -4,0 z M 200,108 l 4,0 0,4 -4,0 z M 204,108 l 4,0 0,4 -4,0 z M 208,108 l 4,0 0,4 -4,0 z M 212,108 l 4,0 0,4 -4,0 z M 220,108 l 4,0 0,4 -4,0 z M 228,108 l 4,0 0,4 -4,0 z M 4,112 l 4,0 0,4 -4,0 z M 20,112 l 4,0 0,4 -4,0 z M 36,112 l 4,0 0,4 -4,0 z M 40,112 l 4,0 0,4 -4,0 z M 44,112 l 4,0 0,4 -4,0 z M 52,112 l 4,0 0,4 -4,0 z M 64,112 l 4,0 0,4 -4,0 z M 100,112 l 4,0 0,4 -4,0 z M 104,112 l 4,0 0,4 -4,0 z M 108,112 l 4,0 0,4 -4,0 z M 124,112 l 4,0 0,4 -4,0 z M 128,112 l 4,0 0,4 -4,0 z M 132,112 l 4,0 0,4 -4,0 z M 140,112 l 4,0 0,4 -4,0 z M 144,112 l 4,0 0,4 -4,0 z M 148,112 l 4,0 0,4 -4,0 z M 152,112 l 4,0 0,4 -4,0 z M 164,112 l 4,0 0,4 -4,0 z M 168,112 l 4,0 0,4 -4,0 z M 180,112 l 4,0 0,4 -4,0 z M 196,112 l 4,0 0,4 -4,0 z M 212,112 l 4,0 0,4 -4,0 z M 216,112 l 4,0 0,4 -4,0 z M 220,112 l 4,0 0,4 -4,0 z M 224,112 l 4,0 0,4 -4,0 z M 228,112 l 4,0 0,4 -4,0 z M 12,116 l 4,0 0,4 -4,0 z M 20,116 l 4,0 0,4 -4,0 z M 28,116 l 4,0 0,4 -4,0 z M 36,116 l 4,0 0,4 -4,0 z M 40,116 l 4,0 0,4 -4,0 z M 64,116 l 4,0 0,4 -4,0 z M 76,116 l 4,0 0,4 -4,0 z M 92,116 l 4,0 0,4 -4,0 z M 96,116 l 4,0 0,4 -4,0 z M 100,116 l 4,0 0,4 -4,0 z M 108,116 l 4,0 0,4 -4,0 z M 116,116 l 4,0 0,4 -4,0 z M 124,116 l 4,0 0,4 -4,0 z M 128,116 l 4,0 0,4 -4,0 z M 132,116 l 4,0 0,4 -4,0 z M 140,116 l 4,0 0,4 -4,0 z M 144,116 l 4,0 0,4 -4,0 z M 172,116 l 4,0 0,4 -4,0 z M 192,116 l 4,0 0,4 -4,0 z M 196,116 l 4,0 0,4 -4,0 z M 204,116 l 4,0 0,4 -4,0 z M 212,116 l 4,0 0,4 -4,0 z M 216,116 l 4,0 0,4 -4,0 z M 220,116 l 4,0 0,4 -4,0 z M 224,116 l 4,0 0,4 -4,0 z M 8,120 l 4,0 0,4 -4,0 z M 12,120 l 4,0 0,4 -4,0 z M 16,120 l 4,0 0,4 -4,0 z M 20,120 l 4,0 0,4 -4,0 z M 36,120 l 4,0 0,4 -4,0 z M 40,120 l 4,0 0,4 -4,0 z M 44,120 l 4,0 0,4 -4,0 z M 48,120 l 4,0 0,4 -4,0 z M 52,120 l 4,0 0,4 -4,0 z M 56,120 l 4,0 0,4 -4,0 z M 68,120 l 4,0 0,4 -4,0 z M 80,120 l 4,0 0,4 -4,0 z M 96,120 l 4,0 0,4 -4,0 z M 100,120 l 4,0 0,4 -4,0 z M 108,120 l 4,0 0,4 -4,0 z M 124,120 l 4,0 0,4 -4,0 z M 128,120 l 4,0 0,4 -4,0 z M 152,120 l 4,0 0,4 -4,0 z M 160,120 l 4,0 0,4 -4,0 z M 168,120 l 4,0 0,4 -4,0 z M 172,120 l 4,0 0,4 -4,0 z M 196,120 l 4,0 0,4 -4,0 z M 212,120 l 4,0 0,4 -4,0 z M 224,120 l 4,0 0,4 -4,0 z M 20,124 l 4,0 0,4 -4,0 z M 24,124 l 4,0 0,4 -4,0 z M 28,124 l 4,0 0,4 -4,0 z M 32,124 l 4,0 0,4 -4,0 z M 36,124 l 4,0 0,4 -4,0 z M 40,124 l 4,0 0,4 -4,0 z M 56,124 l 4,0 0,4 -4,0 z M 60,124 l 4,0 0,4 -4,0 z M 64,124 l 4,0 0,4 -4,0 z M 72,124 l 4,0 0,4 -4,0 z M 76,124 l 4,0 0,4 -4,0 z M 88,124 l 4,0 0,4 -4,0 z M 96,124 l 4,0 0,4 -4,0 z M 100,124 l 4,0 0,4 -4,0 z M 104,124 l 4,0 0,4 -4,0 z M 108,124 l 4,0 0,4 -4,0 z M 112,124 l 4,0 0,4 -4,0 z M 116,124 l 4,0 0,4 -4,0 z M 120,124 l 4,0 0,4 -4,0 z M 124,124 l 4,0 0,4 -4,0 z M 136,124 l 4,0 0,4 -4,0 z M 140,124 l 4,0 0,4 -4,0 z M 144,124 l 4,0 0,4 -4,0 z M 148,124 l 4,0 0,4 -4,0 z M 156,124 l 4,0 0,4 -4,0 z M 168,124 l 4,0 0,4 -4,0 z M 176,124 l 4,0 0,4 -4,0 z M 184,124 l 4,0 0,4 -4,0 z M 188,124 l 4,0 0,4 -4,0 z M 196,124 l 4,0 0,4 -4,0 z M 200,124 l 4,0 0,4 -4,0 z M 204,124 l 4,0 0,4 -4,0 z M 208,124 l 4,0 0,4 -4,0 z M 212,124 l 4,0 0,4 -4,0 z M 224,124 l 4,0 0,4 -4,0 z M 228,124 l 4,0 0,4 -4,0 z M 4,128 l 4,0 0,4 -4,0 z M 12,128 l 4,0 0,4 -4,0 z M 32,128 l 4,0 0,4 -4,0 z M 44,128 l 4,0 0,4 -4,0 z M 48,128 l 4,0 0,4 -4,0 z M 52,128 l 4,0 0,4 -4,0 z M 56,128 l 4,0 0,4 -4,0 z M 60,128 l 4,0 0,4 -4,0 z M 64,128 l 4,0 0,4 -4,0 z M 68,128 l 4,0 0,4 -4,0 z M 72,128 l 4,0 0,4 -4,0 z M 84,128 l 4,0 0,4 -4,0 z M 88,128 l 4,0 0,4 -4,0 z M 96,128 l 4,0 0,4 -4,0 z M 100,128 l 4,0 0,4 -4,0 z M 104,128 l 4,0 0,4 -4,0 z M 108,128 l 4,0 0,4 -4,0 z M 112,128 l 4,0 0,4 -4,0 z M 116,128 l 4,0 0,4 -4,0 z M 120,128 l 4,0 0,4 -4,0 z M 132,128 l 4,0 0,4 -4,0 z M 136,128 l 4,0 0,4 -4,0 z M 148,128 l 4,0 0,4 -4,0 z M 152,128 l 4,0 0,4 -4,0 z M 172,128 l 4,0 0,4 -4,0 z M 176,128 l 4,0 0,4 -4,0 z M 180,128 l 4,0 0,4 -4,0 z M 192,128 l 4,0 0,4 -4,0 z M 204,128 l 4,0 0,4 -4,0 z M 216,128 l 4,0 0,4 -4,0 z M 220,128 l 4,0 0,4 -4,0 z M 228,128 l 4,0 0,4 -4,0 z M 20,132 l 4,0 0,4 -4,0 z M 24,132 l 4,0 0,4 -4,0 z M 28,132 l 4,0 0,4 -4,0 z M 32,132 l 4,0 0,4 -4,0 z M 36,132 l 4,0 0,4 -4,0 z M 40,132 l 4,0 0,4 -4,0 z M 44,132 l 4,0 0,4 -4,0 z M 48,132 l 4,0 0,4 -4,0 z M 52,132 l 4,0 0,4 -4,0 z M 60,132 l 4,0 0,4 -4,0 z M 68,132 l 4,0 0,4 -4,0 z M 72,132 l 4,0 0,4 -4,0 z M 80,132 l 4,0 0,4 -4,0 z M 84,132 l 4,0 0,4 -4,0 z M 100,132 l 4,0 0,4 -4,0 z M 120,132 l 4,0 0,4 -4,0 z M 124,132 l 4,0 0,4 -4,0 z M 128,132 l 4,0 0,4 -4,0 z M 136,132 l 4,0 0,4 -4,0 z M 144,132 l 4,0 0,4 -4,0 z M 152,132 l 4,0 0,4 -4,0 z M 160,132 l 4,0 0,4 -4,0 z M 164,132 l 4,0 0,4 -4,0 z M 172,132 l 4,0 0,4 -4,0 z M 176,132 l 4,0 0,4 -4,0 z M 184,132 l 4,0 0,4 -4,0 z M 200,132 l 4,0 0,4 -4,0 z M 212,132 l 4,0 0,4 -4,0 z M 216,132 l 4,0 0,4 -4,0 z M 224,132 l 4,0 0,4 -4,0 z M 36,136 l 4,0 0,4 -4,0 z M 40,136 l 4,0 0,4 -4,0 z M 44,136 l 4,0 0,4 -4,0 z M 48,136 l 4,0 0,4 -4,0 z M 52,136 l 4,0 0,4 -4,0 z M 64,136 l 4,0 0,4 -4,0 z M 76,136 l 4,0 0,4 -4,0 z M 92,136 l 4,0 0,4 -4,0 z M 100,136 l 4,0 0,4 -4,0 z M 104,136 l 4,0 0,4 -4,0 z M 108,136 l 4,0 0,4 -4,0 z M 124,136 l 4,0 0,4 -4,0 z M 128,136 l 4,0 0,4 -4,0 z M 136,136 l 4,0 0,4 -4,0 z M 144,136 l 4,0 0,4 -4,0 z M 148,136 l 4,0 0,4 -4,0 z M 156,136 l 4,0 0,4 -4,0 z M 164,136 l 4,0 0,4 -4,0 z M 172,136 l 4,0 0,4 -4,0 z M 180,136 l 4,0 0,4 -4,0 z M 184,136 l 4,0 0,4 -4,0 z M 188,136 l 4,0 0,4 -4,0 z M 192,136 l 4,0 0,4 -4,0 z M 196,136 l 4,0 0,4 -4,0 z M 204,136 l 4,0 0,4 -4,0 z M 208,136 l 4,0 0,4 -4,0 z M 216,136 l 4,0 0,4 -4,0 z M 220,136 l 4,0 0,4 -4,0 z M 224,136 l 4,0 0,4 -4,0 z M 228,136 l 4,0 0,4 -4,0 z M 4,140 l 4,0 0,4 -4,0 z M 8,140 l 4,0 0,4 -4,0 z M 12,140 l 4,0 0,4 -4,0 z M 20,140 l 4,0 0,4 -4,0 z M 24,140 l 4,0 0,4 -4,0 z M 28,140 l 4,0 0,4 -4,0 z M 40,140 l 4,0 0,4 -4,0 z M 52,140 l 4,0 0,4 -4,0 z M 68,140 l 4,0 0,4 -4,0 z M 72,140 l 4,0 0,4 -4,0 z M 76,140 l 4,0 0,4 -4,0 z M 84,140 l 4,0 0,4 -4,0 z M 92,140 l 4,0 0,4 -4,0 z M 104,140 l 4,0 0,4 -4,0 z M 108,140 l 4,0 0,4 -4,0 z M 112,140 l 4,0 0,4 -4,0 z M 136,140 l 4,0 0,4 -4,0 z M 144,140 l 4,0 0,4 -4,0 z M 156,140 l 4,0 0,4 -4,0 z M 160,140 l 4,0 0,4 -4,0 z M 184,140 l 4,0 0,4 -4,0 z M 192,140 l 4,0 0,4 -4,0 z M 196,140 l 4,0 0,4 -4,0 z M 204,140 l 4,0 0,4 -4,0 z M 208,140 l 4,0 0,4 -4,0 z M 212,140 l 4,0 0,4 -4,0 z M 228,140 l 4,0 0,4 -4,0 z M 12,144 l 4,0 0,4 -4,0 z M 16,144 l 4,0 0,4 -4,0 z M 20,144 l 4,0 0,4 -4,0 z M 24,144 l 4,0 0,4 -4,0 z M 36,144 l 4,0 0,4 -4,0 z M 68,144 l 4,0 0,4 -4,0 z M 80,144 l 4,0 0,4 -4,0 z M 84,144 l 4,0 0,4 -4,0 z M 88,144 l 4,0 0,4 -4,0 z M 96,144 l 4,0 0,4 -4,0 z M 100,144 l 4,0 0,4 -4,0 z M 104,144 l 4,0 0,4 -4,0 z M 116,144 l 4,0 0,4 -4,0 z M 124,144 l 4,0 0,4 -4,0 z M 132,144 l 4,0 0,4 -4,0 z M 144,144 l 4,0 0,4 -4,0 z M 148,144 l 4,0 0,4 -4,0 z M 152,144 l 4,0 0,4 -4,0 z M 160,144 l 4,0 0,4 -4,0 z M 164,144 l 4,0 0,4 -4,0 z M 168,144 l 4,0 0,4 -4,0 z M 172,144 l 4,0 0,4 -4,0 z M 176,144 l 4,0 0,4 -4,0 z M 180,144 l 4,0 0,4 -4,0 z M 192,144 l 4,0 0,4 -4,0 z M 196,144 l 4,0 0,4 -4,0 z M 200,144 l 4,0 0,4 -4,0 z M 228,144 l 4,0 0,4 -4,0 z M 20,148 l 4,0 0,4 -4,0 z M 24,148 l 4,0 0,4 -4,0 z M 28,148 l 4,0 0,4 -4,0 z M 36,148 l 4,0 0,4 -4,0 z M 40,148 l 4,0 0,4 -4,0 z M 44,148 l 4,0 0,4 -4,0 z M 52,148 l 4,0 0,4 -4,0 z M 60,148 l 4,0 0,4 -4,0 z M 68,148 l 4,0 0,4 -4,0 z M 76,148 l 4,0 0,4 -4,0 z M 80,148 l 4,0 0,4 -4,0 z M 84,148 l 4,0 0,4 -4,0 z M 88,148 l 4,0 0,4 -4,0 z M 92,148 l 4,0 0,4 -4,0 z M 96,148 l 4,0 0,4 -4,0 z M 100,148 l 4,0 0,4 -4,0 z M 104,148 l 4,0 0,4 -4,0 z M 112,148 l 4,0 0,4 -4,0 z M 116,148 l 4,0 0,4 -4,0 z M 120,148 l 4,0 0,4 -4,0 z M 128,148 l 4,0 0,4 -4,0 z M 132,148 l 4,0 0,4 -4,0 z M 140,148 l 4,0 0,4 -4,0 z M 144,148 l 4,0 0,4 -4,0 z M 148,148 l 4,0 0,4 -4,0 z M 156,148 l 4,0 0,4 -4,0 z M 160,148 l 4,0 0,4 -4,0 z M 164,148 l 4,0 0,4 -4,0 z M 172,148 l 4,0 0,4 -4,0 z M 184,148 l 4,0 0,4 -4,0 z M 188,148 l 4,0 0,4 -4,0 z M 208,148 l 4,0 0,4 -4,0 z M 216,148 l 4,0 0,4 -4,0 z M 224,148 l 4,0 0,4 -4,0 z M 8,152 l 4,0 0,4 -4,0 z M 16,152 l 4,0 0,4 -4,0 z M 32,152 l 4,0 0,4 -4,0 z M 40,152 l 4,0 0,4 -4,0 z M 44,152 l 4,0 0,4 -4,0 z M 52,152 l 4,0 0,4 -4,0 z M 56,152 l 4,0 0,4 -4,0 z M 64,152 l 4,0 0,4 -4,0 z M 76,152 l 4,0 0,4 -4,0 z M 88,152 l 4,0 0,4 -4,0 z M 100,152 l 4,0 0,4 -4,0 z M 108,152 l 4,0 0,4 -4,0 z M 112,152 l 4,0 0,4 -4,0 z M 124,152 l 4,0 0,4 -4,0 z M 132,152 l 4,0 0,4 -4,0 z M 136,152 l 4,0 0,4 -4,0 z M 140,152 l 4,0 0,4 -4,0 z M 148,152 l 4,0 0,4 -4,0 z M 152,152 l 4,0 0,4 -4,0 z M 156,152 l 4,0 0,4 -4,0 z M 164,152 l 4,0 0,4 -4,0 z M 168,152 l 4,0 0,4 -4,0 z M 176,152 l 4,0 0,4 -4,0 z M 180,152 l 4,0 0,4 -4,0 z M 196,152 l 4,0 0,4 -4,0 z M 200,152 l 4,0 0,4 -4,0 z M 208,152 l 4,0 0,4 -4,0 z M 216,152 l 4,0 0,4 -4,0 z M 220,152 l 4,0 0,4 -4,0 z M 228,152 l 4,0 0,4 -4,0 z M 4,156 l 4,0 0,4 -4,0 z M 12,156 l 4,0 0,4 -4,0 z M 20,156 l 4,0 0,4 -4,0 z M 28,156 l 4,0 0,4 -4,0 z M 32,156 l 4,0 0,4 -4,0 z M 52,156 l 4,0 0,4 -4,0 z M 56,156 l 4,0 0,4 -4,0 z M 64,156 l 4,0 0,4 -4,0 z M 72,156 l 4,0 0,4 -4,0 z M 80,156 l 4,0 0,4 -4,0 z M 88,156 l 4,0 0,4 -4,0 z M 92,156 l 4,0 0,4 -4,0 z M 100,156 l 4,0 0,4 -4,0 z M 104,156 l 4,0 0,4 -4,0 z M 108,156 l 4,0 0,4 -4,0 z M 112,156 l 4,0 0,4 -4,0 z M 116,156 l 4,0 0,4 -4,0 z M 120,156 l 4,0 0,4 -4,0 z M 124,156 l 4,0 0,4 -4,0 z M 132,156 l 4,0 0,4 -4,0 z M 168,156 l 4,0 0,4 -4,0 z M 192,156 l 4,0 0,4 -4,0 z M 200,156 l 4,0 0,4 -4,0 z M 212,156 l 4,0 0,4 -4,0 z M 216,156 l 4,0 0,4 -4,0 z M 220,156 l 4,0 0,4 -4,0 z M 224,156 l 4,0 0,4 -4,0 z M 20,160 l 4,0 0,4 -4,0 z M 40,160 l 4,0 0,4 -4,0 z M 44,160 l 4,0 0,4 -4,0 z M 52,160 l 4,0 0,4 -4,0 z M 60,160 l 4,0 0,4 -4,0 z M 64,160 l 4,0 0,4 -4,0 z M 68,160 l 4,0 0,4 -4,0 z M 72,160 l 4,0 0,4 -4,0 z M 76,160 l 4,0 0,4 -4,0 z M 88,160 l 4,0 0,4 -4,0 z M 100,160 l 4,0 0,4 -4,0 z M 104,160 l 4,0 0,4 -4,0 z M 124,160 l 4,0 0,4 -4,0 z M 128,160 l 4,0 0,4 -4,0 z M 136,160 l 4,0 0,4 -4,0 z M 144,160 l 4,0 0,4 -4,0 z M 148,160 l 4,0 0,4 -4,0 z M 160,160 l 4,0 0,4 -4,0 z M 164,160 l 4,0 0,4 -4,0 z M 168,160 l 4,0 0,4 -4,0 z M 172,160 l 4,0 0,4 -4,0 z M 184,160 l 4,0 0,4 -4,0 z M 200,160 l 4,0 0,4 -4,0 z M 204,160 l 4,0 0,4 -4,0 z M 224,160 l 4,0 0,4 -4,0 z M 228,160 l 4,0 0,4 -4,0 z M 4,164 l 4,0 0,4 -4,0 z M 12,164 l 4,0 0,4 -4,0 z M 24,164 l 4,0 0,4 -4,0 z M 28,164 l 4,0 0,4 -4,0 z M 32,164 l 4,0 0,4 -4,0 z M 40,164 l 4,0 0,4 -4,0 z M 48,164 l 4,0 0,4 -4,0 z M 64,164 l 4,0 0,4 -4,0 z M 68,164 l 4,0 0,4 -4,0 z M 72,164 l 4,0 0,4 -4,0 z M 76,164 l 4,0 0,4 -4,0 z M 96,164 l 4,0 0,4 -4,0 z M 104,164 l 4,0 0,4 -4,0 z M 108,164 l 4,0 0,4 -4,0 z M 112,164 l 4,0 0,4 -4,0 z M 116,164 l 4,0 0,4 -4,0 z M 120,164 l 4,0 0,4 -4,0 z M 128,164 l 4,0 0,4 -4,0 z M 140,164 l 4,0 0,4 -4,0 z M 160,164 l 4,0 0,4 -4,0 z M 180,164 l 4,0 0,4 -4,0 z M 184,164 l 4,0 0,4 -4,0 z M 188,164 l 4,0 0,4 -4,0 z M 200,164 l 4,0 0,4 -4,0 z M 208,164 l 4,0 0,4 -4,0 z M 224,164 l 4,0 0,4 -4,0 z M 4,168 l 4,0 0,4 -4,0 z M 16,168 l 4,0 0,4 -4,0 z M 20,168 l 4,0 0,4 -4,0 z M 32,168 l 4,0 0,4 -4,0 z M 36,168 l 4,0 0,4 -4,0 z M 40,168 l 4,0 0,4 -4,0 z M 48,168 l 4,0 0,4 -4,0 z M 52,168 l 4,0 0,4 -4,0 z M 68,168 l 4,0 0,4 -4,0 z M 72,168 l 4,0 0,4 -4,0 z M 80,168 l 4,0 0,4 -4,0 z M 84,168 l 4,0 0,4 -4,0 z M 88,168 l 4,0 0,4 -4,0 z M 96,168 l 4,0 0,4 -4,0 z M 100,168 l 4,0 0,4 -4,0 z M 108,168 l 4,0 0,4 -4,0 z M 112,168 l 4,0 0,4 -4,0 z M 120,168 l 4,0 0,4 -4,0 z M 124,168 l 4,0 0,4 -4,0 z M 128,168 l 4,0 0,4 -4,0 z M 132,168 l 4,0 0,4 -4,0 z M 144,168 l 4,0 0,4 -4,0 z M 152,168 l 4,0 0,4 -4,0 z M 160,168 l 4,0 0,4 -4,0 z M 164,168 l 4,0 0,4 -4,0 z M 192,168 l 4,0 0,4 -4,0 z M 196,168 l 4,0 0,4 -4,0 z M 204,168 l 4,0 0,4 -4,0 z M 208,168 l 4,0 0,4 -4,0 z M 216,168 l 4,0 0,4 -4,0 z M 220,168 l 4,0 0,4 -4,0 z M 224,168 l 4,0 0,4 -4,0 z M 4,172 l 4,0 0,4 -4,0 z M 28,172 l 4,0 0,4 -4,0 z M 32,172 l 4,0 0,4 -4,0 z M 36,172 l 4,0 0,4 -4,0 z M 48,172 l 4,0 0,4 -4,0 z M 56,172 l 4,0 0,4 -4,0 z M 60,172 l 4,0 0,4 -4,0 z M 64,172 l 4,0 0,4 -4,0 z M 68,172 l 4,0 0,4 -4,0 z M 72,172 l 4,0 0,4 -4,0 z M 80,172 l 4,0 0,4 -4,0 z M 88,172 l 4,0 0,4 -4,0 z M 96,172 l 4,0 0,4 -4,0 z M 104,172 l 4,0 0,4 -4,0 z M 108,172 l 4,0 0,4 -4,0 z M 112,172 l 4,0 0,4 -4,0 z M 116,172 l 4,0 0,4 -4,0 z M 128,172 l 4,0 0,4 -4,0 z M 144,172 l 4,0 0,4 -4,0 z M 148,172 l 4,0 0,4 -4,0 z M 152,172 l 4,0 0,4 -4,0 z M 172,172 l 4,0 0,4 -4,0 z M 176,172 l 4,0 0,4 -4,0 z M 184,172 l 4,0 0,4 -4,0 z M 188,172 l 4,0 0,4 -4,0 z M 196,172 l 4,0 0,4 -4,0 z M 200,172 l 4,0 0,4 -4,0 z M 16,176 l 4,0 0,4 -4,0 z M 24,176 l 4,0 0,4 -4,0 z M 40,176 l 4,0 0,4 -4,0 z M 44,176 l 4,0 0,4 -4,0 z M 56,176 l 4,0 0,4 -4,0 z M 60,176 l 4,0 0,4 -4,0 z M 84,176 l 4,0 0,4 -4,0 z M 96,176 l 4,0 0,4 -4,0 z M 108,176 l 4,0 0,4 -4,0 z M 112,176 l 4,0 0,4 -4,0 z M 116,176 l 4,0 0,4 -4,0 z M 120,176 l 4,0 0,4 -4,0 z M 132,176 l 4,0 0,4 -4,0 z M 148,176 l 4,0 0,4 -4,0 z M 152,176 l 4,0 0,4 -4,0 z M 168,176 l 4,0 0,4 -4,0 z M 172,176 l 4,0 0,4 -4,0 z M 176,176 l 4,0 0,4 -4,0 z M 180,176 l 4,0 0,4 -4,0 z M 184,176 l 4,0 0,4 -4,0 z M 188,176 l 4,0 0,4 -4,0 z M 196,176 l 4,0 0,4 -4,0 z M 204,176 l 4,0 0,4 -4,0 z M 216,176 l 4,0 0,4 -4,0 z M 228,176 l 4,0 0,4 -4,0 z M 4,180 l 4,0 0,4 -4,0 z M 24,180 l 4,0 0,4 -4,0 z M 28,180 l 4,0 0,4 -4,0 z M 40,180 l 4,0 0,4 -4,0 z M 48,180 l 4,0 0,4 -4,0 z M 52,180 l 4,0 0,4 -4,0 z M 64,180 l 4,0 0,4 -4,0 z M 72,180 l 4,0 0,4 -4,0 z M 84,180 l 4,0 0,4 -4,0 z M 96,180 l 4,0 0,4 -4,0 z M 100,180 l 4,0 0,4 -4,0 z M 104,180 l 4,0 0,4 -4,0 z M 116,180 l 4,0 0,4 -4,0 z M 120,180 l 4,0 0,4 -4,0 z M 124,180 l 4,0 0,4 -4,0 z M 128,180 l 4,0 0,4 -4,0 z M 136,180 l 4,0 0,4 -4,0 z M 140,180 l 4,0 0,4 -4,0 z M 144,180 l 4,0 0,4 -4,0 z M 160,180 l 4,0 0,4 -4,0 z M 164,180 l 4,0 0,4 -4,0 z M 168,180 l 4,0 0,4 -4,0 z M 172,180 l 4,0 0,4 -4,0 z M 176,180 l 4,0 0,4 -4,0 z M 184,180 l 4,0 0,4 -4,0 z M 200,180 l 4,0 0,4 -4,0 z M 204,180 l 4,0 0,4 -4,0 z M 208,180 l 4,0 0,4 -4,0 z M 212,180 l 4,0 0,4 -4,0 z M 216,180 l 4,0 0,4 -4,0 z M 220,180 l 4,0 0,4 -4,0 z M 224,180 l 4,0 0,4 -4,0 z M 4,184 l 4,0 0,4 -4,0 z M 8,184 l 4,0 0,4 -4,0 z M 24,184 l 4,0 0,4 -4,0 z M 32,184 l 4,0 0,4 -4,0 z M 44,184 l 4,0 0,4 -4,0 z M 60,184 l 4,0 0,4 -4,0 z M 64,184 l 4,0 0,4 -4,0 z M 68,184 l 4,0 0,4 -4,0 z M 76,184 l 4,0 0,4 -4,0 z M 80,184 l 4,0 0,4 -4,0 z M 84,184 l 4,0 0,4 -4,0 z M 92,184 l 4,0 0,4 -4,0 z M 104,184 l 4,0 0,4 -4,0 z M 108,184 l 4,0 0,4 -4,0 z M 116,184 l 4,0 0,4 -4,0 z M 120,184 l 4,0 0,4 -4,0 z M 140,184 l 4,0 0,4 -4,0 z M 148,184 l 4,0 0,4 -4,0 z M 152,184 l 4,0 0,4 -4,0 z M 160,184 l 4,0 0,4 -4,0 z M 164,184 l 4,0 0,4 -4,0 z M 168,184 l 4,0 0,4 -4,0 z M 172,184 l 4,0 0,4 -4,0 z M 192,184 l 4,0 0,4 -4,0 z M 196,184 l 4,0 0,4 -4,0 z M 200,184 l 4,0 0,4 -4,0 z M 216,184 l 4,0 0,4 -4,0 z M 220,184 l 4,0 0,4 -4,0 z M 228,184 l 4,0 0,4 -4,0 z M 4,188 l 4,0 0,4 -4,0 z M 12,188 l 4,0 0,4 -4,0 z M 24,188 l 4,0 0,4 -4,0 z M 28,188 l 4,0 0,4 -4,0 z M 32,188 l 4,0 0,4 -4,0 z M 36,188 l 4,0 0,4 -4,0 z M 52,188 l 4,0 0,4 -4,0 z M 72,188 l 4,0 0,4 -4,0 z M 80,188 l 4,0 0,4 -4,0 z M 88,188 l 4,0 0,4 -4,0 z M 92,188 l 4,0 0,4 -4,0 z M 100,188 l 4,0 0,4 -4,0 z M 104,188 l 4,0 0,4 -4,0 z M 116,188 l 4,0 0,4 -4,0 z M 120,188 l 4,0 0,4 -4,0 z M 124,188 l 4,0 0,4 -4,0 z M 132,188 l 4,0 0,4 -4,0 z M 144,188 l 4,0 0,4 -4,0 z M 148,188 l 4,0 0,4 -4,0 z M 152,188 l 4,0 0,4 -4,0 z M 176,188 l 4,0 0,4 -4,0 z M 184,188 l 4,0 0,4 -4,0 z M 188,188 l 4,0 0,4 -4,0 z M 200,188 l 4,0 0,4 -4,0 z M 208,188 l 4,0 0,4 -4,0 z M 4,192 l 4,0 0,4 -4,0 z M 8,192 l 4,0 0,4 -4,0 z M 12,192 l 4,0 0,4 -4,0 z M 16,192 l 4,0 0,4 -4,0 z M 20,192 l 4,0 0,4 -4,0 z M 32,192 l 4,0 0,4 -4,0 z M 36,192 l 4,0 0,4 -4,0 z M 44,192 l 4,0 0,4 -4,0 z M 56,192 l 4,0 0,4 -4,0 z M 60,192 l 4,0 0,4 -4,0 z M 64,192 l 4,0 0,4 -4,0 z M 68,192 l 4,0 0,4 -4,0 z M 72,192 l 4,0 0,4 -4,0 z M 88,192 l 4,0 0,4 -4,0 z M 96,192 l 4,0 0,4 -4,0 z M 100,192 l 4,0 0,4 -4,0 z M 104,192 l 4,0 0,4 -4,0 z M 108,192 l 4,0 0,4 -4,0 z M 116,192 l 4,0 0,4 -4,0 z M 128,192 l 4,0 0,4 -4,0 z M 148,192 l 4,0 0,4 -4,0 z M 152,192 l 4,0 0,4 -4,0 z M 160,192 l 4,0 0,4 -4,0 z M 168,192 l 4,0 0,4 -4,0 z M 172,192 l 4,0 0,4 -4,0 z M 176,192 l 4,0 0,4 -4,0 z M 184,192 l 4,0 0,4 -4,0 z M 188,192 l 4,0 0,4 -4,0 z M 192,192 l 4,0 0,4 -4,0 z M 196,192 l 4,0 0,4 -4,0 z M 200,192 l 4,0 0,4 -4,0 z M 208,192 l 4,0 0,4 -4,0 z M 220,192 l 4,0 0,4 -4,0 z M 228,192 l 4,0 0,4 -4,0 z M 28,196 l 4,0 0,4 -4,0 z M 32,196 l 4,0 0,4 -4,0 z M 40,196 l 4,0 0,4 -4,0 z M 52,196 l 4,0 0,4 -4,0 z M 64,196 l 4,0 0,4 -4,0 z M 72,196 l 4,0 0,4 -4,0 z M 76,196 l 4,0 0,4 -4,0 z M 84,196 l 4,0 0,4 -4,0 z M 88,196 l 4,0 0,4 -4,0 z M 92,196 l 4,0 0,4 -4,0 z M 96,196 l 4,0 0,4 -4,0 z M 108,196 l 4,0 0,4 -4,0 z M 112,196 l 4,0 0,4 -4,0 z M 116,196 l 4,0 0,4 -4,0 z M 120,196 l 4,0 0,4 -4,0 z M 124,196 l 4,0 0,4 -4,0 z M 128,196 l 4,0 0,4 -4,0 z M 132,196 l 4,0 0,4 -4,0 z M 152,196 l 4,0 0,4 -4,0 z M 156,196 l 4,0 0,4 -4,0 z M 160,196 l 4,0 0,4 -4,0 z M 168,196 l 4,0 0,4 -4,0 z M 176,196 l 4,0 0,4 -4,0 z M 180,196 l 4,0 0,4 -4,0 z M 196,196 l 4,0 0,4 -4,0 z M 200,196 l 4,0 0,4 -4,0 z M 204,196 l 4,0 0,4 -4,0 z M 208,196 l 4,0 0,4 -4,0 z M 212,196 l 4,0 0,4 -4,0 z M 216,196 l 4,0 0,4 -4,0 z M 220,196 l 4,0 0,4 -4,0 z M 224,196 l 4,0 0,4 -4,0 z M 36,200 l 4,0 0,4 -4,0 z M 40,200 l 4,0 0,4 -4,0 z M 48,200 l 4,0 0,4 -4,0 z M 68,200 l 4,0 0,4 -4,0 z M 88,200 l 4,0 0,4 -4,0 z M 96,200 l 4,0 0,4 -4,0 z M 100,200 l 4,0 0,4 -4,0 z M 108,200 l 4,0 0,4 -4,0 z M 124,200 l 4,0 0,4 -4,0 z M 128,200 l 4,0 0,4 -4,0 z M 132,200 l 4,0 0,4 -4,0 z M 136,200 l 4,0 0,4 -4,0 z M 140,200 l 4,0 0,4 -4,0 z M 144,200 l 4,0 0,4 -4,0 z M 148,200 l 4,0 0,4 -4,0 z M 160,200 l 4,0 0,4 -4,0 z M 184,200 l 4,0 0,4 -4,0 z M 196,200 l 4,0 0,4 -4,0 z M 212,200 l 4,0 0,4 -4,0 z M 216,200 l 4,0 0,4 -4,0 z M 220,200 l 4,0 0,4 -4,0 z M 224,200 l 4,0 0,4 -4,0 z M 228,200 l 4,0 0,4 -4,0 z M 4,204 l 4,0 0,4 -4,0 z M 8,204 l 4,0 0,4 -4,0 z M 12,204 l 4,0 0,4 -4,0 z M 16,204 l 4,0 0,4 -4,0 z M 20,204 l 4,0 0,4 -4,0 z M 24,204 l 4,0 0,4 -4,0 z M 28,204 l 4,0 0,4 -4,0 z M 36,204 l 4,0 0,4 -4,0 z M 40,204 l 4,0 0,4 -4,0 z M 56,204 l 4,0 0,4 -4,0 z M 60,204 l 4,0 0,4 -4,0 z M 64,204 l 4,0 0,4 -4,0 z M 68,204 l 4,0 0,4 -4,0 z M 72,204 l 4,0 0,4 -4,0 z M 76,204 l 4,0 0,4 -4,0 z M 84,204 l 4,0 0,4 -4,0 z M 100,204 l 4,0 0,4 -4,0 z M 104,204 l 4,0 0,4 -4,0 z M 108,204 l 4,0 0,4 -4,0 z M 116,204 l 4,0 0,4 -4,0 z M 124,204 l 4,0 0,4 -4,0 z M 136,204 l 4,0 0,4 -4,0 z M 140,204 l 4,0 0,4 -4,0 z M 144,204 l 4,0 0,4 -4,0 z M 148,204 l 4,0 0,4 -4,0 z M 160,204 l 4,0 0,4 -4,0 z M 168,204 l 4,0 0,4 -4,0 z M 172,204 l 4,0 0,4 -4,0 z M 176,204 l 4,0 0,4 -4,0 z M 188,204 l 4,0 0,4 -4,0 z M 192,204 l 4,0 0,4 -4,0 z M 196,204 l 4,0 0,4 -4,0 z M 204,204 l 4,0 0,4 -4,0 z M 212,204 l 4,0 0,4 -4,0 z M 4,208 l 4,0 0,4 -4,0 z M 28,208 l 4,0 0,4 -4,0 z M 36,208 l 4,0 0,4 -4,0 z M 44,208 l 4,0 0,4 -4,0 z M 48,208 l 4,0 0,4 -4,0 z M 52,208 l 4,0 0,4 -4,0 z M 56,208 l 4,0 0,4 -4,0 z M 60,208 l 4,0 0,4 -4,0 z M 68,208 l 4,0 0,4 -4,0 z M 80,208 l 4,0 0,4 -4,0 z M 104,208 l 4,0 0,4 -4,0 z M 108,208 l 4,0 0,4 -4,0 z M 124,208 l 4,0 0,4 -4,0 z M 132,208 l 4,0 0,4 -4,0 z M 144,208 l 4,0 0,4 -4,0 z M 148,208 l 4,0 0,4 -4,0 z M 152,208 l 4,0 0,4 -4,0 z M 164,208 l 4,0 0,4 -4,0 z M 168,208 l 4,0 0,4 -4,0 z M 172,208 l 4,0 0,4 -4,0 z M 192,208 l 4,0 0,4 -4,0 z M 196,208 l 4,0 0,4 -4,0 z M 212,208 l 4,0 0,4 -4,0 z M 216,208 l 4,0 0,4 -4,0 z M 228,208 l 4,0 0,4 -4,0 z M 4,212 l 4,0 0,4 -4,0 z M 12,212 l 4,0 0,4 -4,0 z M 16,212 l 4,0 0,4 -4,0 z M 20,212 l 4,0 0,4 -4,0 z M 28,212 l 4,0 0,4 -4,0 z M 36,212 l 4,0 0,4 -4,0 z M 40,212 l 4,0 0,4 -4,0 z M 44,212 l 4,0 0,4 -4,0 z M 48,212 l 4,0 0,4 -4,0 z M 72,212 l 4,0 0,4 -4,0 z M 76,212 l 4,0 0,4 -4,0 z M 80,212 l 4,0 0,4 -4,0 z M 88,212 l 4,0 0,4 -4,0 z M 108,212 l 4,0 0,4 -4,0 z M 112,212 l 4,0 0,4 -4,0 z M 116,212 l 4,0 0,4 -4,0 z M 120,212 l 4,0 0,4 -4,0 z M 124,212 l 4,0 0,4 -4,0 z M 132,212 l 4,0 0,4 -4,0 z M 140,212 l 4,0 0,4 -4,0 z M 156,212 l 4,0 0,4 -4,0 z M 160,212 l 4,0 0,4 -4,0 z M 180,212 l 4,0 0,4 -4,0 z M 184,212 l 4,0 0,4 -4,0 z M 196,212 l 4,0 0,4 -4,0 z M 200,212 l 4,0 0,4 -4,0 z M 204,212 l 4,0 0,4 -4,0 z M 208,212 l 4,0 0,4 -4,0 z M 212,212 l 4,0 0,4 -4,0 z M 220,212 l 4,0 0,4 -4,0 z M 4,216 l 4,0 0,4 -4,0 z M 12,216 l 4,0 0,4 -4,0 z M 16,216 l 4,0 0,4 -4,0 z M 20,216 l 4,0 0,4 -4,0 z M 28,216 l 4,0 0,4 -4,0 z M 36,216 l 4,0 0,4 -4,0 z M 44,216 l 4,0 0,4 -4,0 z M 52,216 l 4,0 0,4 -4,0 z M 56,216 l 4,0 0,4 -4,0 z M 72,216 l 4,0 0,4 -4,0 z M 84,216 l 4,0 0,4 -4,0 z M 96,216 l 4,0 0,4 -4,0 z M 112,216 l 4,0 0,4 -4,0 z M 120,216 l 4,0 0,4 -4,0 z M 128,216 l 4,0 0,4 -4,0 z M 136,216 l 4,0 0,4 -4,0 z M 140,216 l 4,0 0,4 -4,0 z M 144,216 l 4,0 0,4 -4,0 z M 152,216 l 4,0 0,4 -4,0 z M 172,216 l 4,0 0,4 -4,0 z M 176,216 l 4,0 0,4 -4,0 z M 180,216 l 4,0 0,4 -4,0 z M 184,216 l 4,0 0,4 -4,0 z M 188,216 l 4,0 0,4 -4,0 z M 196,216 l 4,0 0,4 -4,0 z M 200,216 l 4,0 0,4 -4,0 z M 216,216 l 4,0 0,4 -4,0 z M 220,216 l 4,0 0,4 -4,0 z M 4,220 l 4,0 0,4 -4,0 z M 12,220 l 4,0 0,4 -4,0 z M 16,220 l 4,0 0,4 -4,0 z M 20,220 l 4,0 0,4 -4,0 z M 28,220 l 4,0 0,4 -4,0 z M 36,220 l 4,0 0,4 -4,0 z M 40,220 l 4,0 0,4 -4,0 z M 44,220 l 4,0 0,4 -4,0 z M 64,220 l 4,0 0,4 -4,0 z M 68,220 l 4,0 0,4 -4,0 z M 72,220 l 4,0 0,4 -4,0 z M 100,220 l 4,0 0,4 -4,0 z M 104,220 l 4,0 0,4 -4,0 z M 108,220 l 4,0 0,4 -4,0 z M 116,220 l 4,0 0,4 -4,0 z M 128,220 l 4,0 0,4 -4,0 z M 148,220 l 4,0 0,4 -4,0 z M 160,220 l 4,0 0,4 -4,0 z M 164,220 l 4,0 0,4 -4,0 z M 168,220 l 4,0 0,4 -4,0 z M 176,220 l 4,0 0,4 -4,0 z M 184,220 l 4,0 0,4 -4,0 z M 204,220 l 4,0 0,4 -4,0 z M 216,220 l 4,0 0,4 -4,0 z M 4,224 l 4,0 0,4 -4,0 z M 28,224 l 4,0 0,4 -4,0 z M 36,224 l 4,0 0,4 -4,0 z M 48,224 l 4,0 0,4 -4,0 z M 52,224 l 4,0 0,4 -4,0 z M 56,224 l 4,0 0,4 -4,0 z M 60,224 l 4,0 0,4 -4,0 z M 64,224 l 4,0 0,4 -4,0 z M 72,224 l 4,0 0,4 -4,0 z M 88,224 l 4,0 0,4 -4,0 z M 100,224 l 4,0 0,4 -4,0 z M 112,224 l 4,0 0,4 -4,0 z M 116,224 l 4,0 0,4 -4,0 z M 128,224 l 4,0 0,4 -4,0 z M 136,224 l 4,0 0,4 -4,0 z M 144,224 l 4,0 0,4 -4,0 z M 152,224 l 4,0 0,4 -4,0 z M 168,224 l 4,0 0,4 -4,0 z M 172,224 l 4,0 0,4 -4,0 z M 180,224 l 4,0 0,4 -4,0 z M 192,224 l 4,0 0,4 -4,0 z M 196,224 l 4,0 0,4 -4,0 z M 204,224 l 4,0 0,4 -4,0 z M 208,224 l 4,0 0,4 -4,0 z M 212,224 l 4,0 0,4 -4,0 z M 4,228 l 4,0 0,4 -4,0 z M 8,228 l 4,0 0,4 -4,0 z M 12,228 l 4,0 0,4 -4,0 z M 16,228 l 4,0 0,4 -4,0 z M 20,228 l 4,0 0,4 -4,0 z M 24,228 l 4,0 0,4 -4,0 z M 28,228 l 4,0 0,4 -4,0 z M 40,228 l 4,0 0,4 -4,0 z M 52,228 l 4,0 0,4 -4,0 z M 64,228 l 4,0 0,4 -4,0 z M 80,228 l 4,0 0,4 -4,0 z M 84,228 l 4,0 0,4 -4,0 z M 88,228 l 4,0 0,4 -4,0 z M 96,228 l 4,0 0,4 -4,0 z M 100,228 l 4,0 0,4 -4,0 z M 112,228 l 4,0 0,4 -4,0 z M 116,228 l 4,0 0,4 -4,0 z M 120,228 l 4,0 0,4 -4,0 z M 128,228 l 4,0 0,4 -4,0 z M 132,228 l 4,0 0,4 -4,0 z M 140,228 l 4,0 0,4 -4,0 z M 148,228 l 4,0 0,4 -4,0 z M 152,228 l 4,0 0,4 -4,0 z M 156,228 l 4,0 0,4 -4,0 z M 160,228 l 4,0 0,4 -4,0 z M 172,228 l 4,0 0,4 -4,0 z M 180,228 l 4,0 0,4 -4,0 z M 192,228 l 4,0 0,4 -4,0 z M 196,228 l 4,0 0,4 -4,0 z M 208,228 l 4,0 0,4 -4,0 z M 212,228 l 4,0 0,4 -4,0 z M 216,228 l 4,0 0,4 -4,0 z M 220,228 l 4,0 0,4 -4,0 z M 224,228 l 4,0 0,4 -4,0 z " />
	</g>
</svg>
