<?xml version="1.0" encoding="UTF-8"?>
<svg xmlns="http://www.w3.org/2000/svg" height="22784" width="22784" class="pyqrcode"><path fill="white" d="M0 0h22784v22784h-22784z"/><path transform="scale(256)" stroke="#000000" class="pyqrline" d="M4 4.5h7m1 0h1m5 0h3m2 0h1m1 0h1m1 0h1m2 0h1m1 0h2m1 0h1m2 0h5m1 0h4m3 0h1m2 0h2m5 0h1m1 0h1m2 0h2m4 0h2m4 0h7m-81 1h1m5 0h1m1 0h2m2 0h8m1 0h1m1 0h1m4 0h2m2 0h1m6 0h2m3 0h1m4 0h3m1 0h1m4 0h1m2 0h3m1 0h1m4 0h3m1 0h1m5 0h1m-81 1h1m1 0h3m1 0h1m1 0h2m2 0h1m1 0h1m1 0h1m1 0h2m5 0h1m6 0h2m3 0h5m4 0h2m3 0h1m2 0h1m1 0h2m1 0h2m1 0h2m1 0h1m1 0h1m2 0h1m1 0h1m1 0h1m1 0h3m1 0h1m-81 1h1m1 0h3m1 0h1m2 0h3m1 0h1m2 0h3m1 0h1m1 0h1m3 0h1m2 0h2m1 0h3m2 0h1m5 0h1m1 0h1m4 0h3m2 0h1m1 0h2m3 0h2m4 0h3m1 0h1m1 0h1m1 0h3m1 0h1m-81 1h1m1 0h3m1 0h1m3 0h2m1 0h1m3 0h1m1 0h2m1 0h7m1 0h2m1 0h2m5 0h1m1 0h2m1 0h1m2 0h5m1 0h5m4 0h2m3 0h1m5 0h1m1 0h3m1 0h1m-81 1h1m5 0h1m1 0h1m1 0h1m4 0h1m2 0h1m1 0h1m3 0h1m3 0h1m1 0h1m1 0h1m3 0h1m5 0h1m1 0h5m3 0h1m2 0h1m2 0h1m3 0h2m1 0h2m4 0h1m2 0h1m5 0h1m-81 1h7m1 0h1m1 0h1m1 0h1m1 0h1m1 0h1m1 0h1m1 0h1m1 0h1m1 0h1m1 0h1m1 0h1m1 0h1m1 0h1m1 0h1m1 0h1m1 0h1m1 0h1m1 0h1m1 0h1m1 0h1m1 0h1m1 0h1m1 0h1m1 0h1m1 0h1m1 0h1m1 0h1m1 0h1m1 0h1m1 0h1m1 0h1m1 0h1m1 0h1m1 0h7m-73 1h1m1 0h1m1 0h1m4 0h1m4 0h1m1 0h1m3 0h2m4 0h3m5 0h1m5 0h1m3 0h1m2 0h3m1 0h1m2 0h1m1 0h1m1 0h4m-68 1h3m1 0h1m1 0h1m2 0h1m1 0h1m2 0h1m2 0h3m2 0h5m2 0h4m3 0h1m1 0h3m2 0h9m2 0h1m1 0h1m2 0h4m3 0h4m1 0h3m2 0h3m-81 1h5m3 0h3m1 0h1m2 0h1m1 0h1m1 0h8m1 0h2m1 0h2m1 0h1m1 0h1m1 0h2m5 0h3m6 0h4m2 0h1m2 0h2m4 0h2m4 0h1m1 0h4m-81 1h2m3 0h2m1 0h5m1 0h7m3 0h7m1 0h1m2 0h2m1 0h2m1 0h1m3 0h2m1 0h1m4 0h2m3 0h1m1 0h2m3 0h4m3 0h2m2 0h1m1 0h2m-80 1h1m1 0h2m1 0h1m1 0h2m4 0h1m5 0h1m1 0h4m6 0h1m1 0h4m3 0h3m3 0h4m1 0h1m1 0h4m1 0h3m3 0h1m2 0h9m1 0h3m-79 1h4m1 0h2m3 0h1m2 0h2m1 0h6m2 0h1m1 0h1m1 0h1m1 0h2m1 0h1m6 0h1m1 0h2m1 0h1m2 0h4m1 0h1m2 0h1m4 0h2m1 0h2m3 0h2m2 0h1m2 0h1m2 0h1m-71 1h1m1 0h4m2 0h4m2 0h2m3 0h2m5 0h3m2 0h2m4 0h1m1 0h1m5 0h1m1 0h1m2 0h1m2 0h2m1 0h1m1 0h3m1 0h2m3 0h1m1 0h2m-81 1h2m1 0h6m1 0h2m1 0h1m2 0h2m2 0h4m1 0h2m2 0h1m5 0h1m1 0h4m2 0h1m4 0h2m1 0h1m1 0h2m3 0h1m1 0h4m1 0h1m7 0h1m1 0h2m1 0h3m-79 1h1m1 0h2m1 0h4m4 0h1m1 0h1m3 0h1m3 0h1m1 0h2m1 0h1m2 0h2m3 0h2m2 0h3m3 0h3m3 0h4m1 0h1m2 0h1m1 0h1m2 0h1m4 0h1m1 0h1m2 0h2m-79 1h2m3 0h3m2 0h1m1 0h2m3 0h2m1 0h2m5 0h1m1 0h1m2 0h1m1 0h1m4 0h1m1 0h1m2 0h1m1 0h3m4 0h2m7 0h2m1 0h2m1 0h1m1 0h2m1 0h1m1 0h1m1 0h1m-78 1h4m1 0h1m2 0h1m1 0h1m1 0h4m2 0h2m2 0h1m2 0h3m2 0h1m1 0h3m1 0h3m1 0h1m3 0h2m1 0h1m1 0h2m3 0h5m3 0h3m1 0h5m2 0h1m1 0h2m1 0h1m1 0h1m-80 1h1m1 0h1m1 0h2m1 0h1m1 0h7m1 0h2m4 0h4m1 0h1m1 0h1m1 0h1m2 0h1m2 0h1m3 0h1m3 0h1m3 0h3m2 0h1m1 0h1m1 0h4m6 0h1m4 0h2m1 0h2m-78 1h4m3 0h1m3 0h4m1 0h6m1 0h4m1 0h3m1 0h1m1 0h3m3 0h2m1 0h1m3 0h3m2 0h4m1 0h1m2 0h1m3 0h3m1 0h3m1 0h1m2 0h3m-75 1h5m6 0h8m3 0h1m1 0h4m1 0h1m2 0h1m1 0h4m1 0h1m1 0h2m2 0h1m1 0h1m3 0h3m1 0h1m1 0h5m2 0h1m1 0h1m2 0h1m4 0h2m-81 1h1m1 0h1m1 0h2m2 0h2m5 0h1m1 0h1m1 0h1m1 0h2m2 0h1m1 0h2m1 0h3m1 0h6m3 0h1m1 0h2m2 0h1m2 0h1m3 0h2m1 0h1m2 0h2m2 0h1m2 0h1m2 0h2m3 0h2m1 0h1m-80 1h1m2 0h1m1 0h2m2 0h1m2 0h1m1 0h1m1 0h2m2 0h4m4 0h1m5 0h3m1 0h4m1 0h3m1 0h1m3 0h4m3 0h3m3 0h2m3 0h3m2 0h5m-79 1h1m1 0h1m4 0h7m2 0h2m1 0h1m1 0h2m6 0h1m1 0h1m1 0h2m2 0h1m2 0h1m5 0h1m1 0h1m1 0h3m1 0h3m3 0h2m4 0h1m2 0h1m1 0h3m2 0h2m1 0h1m-81 1h3m1 0h6m5 0h1m2 0h1m1 0h2m2 0h6m3 0h2m1 0h2m1 0h2m3 0h1m1 0h7m1 0h1m1 0h3m1 0h1m1 0h2m2 0h1m1 0h10m1 0h2m-78 1h2m3 0h3m1 0h2m2 0h9m3 0h1m2 0h2m1 0h1m1 0h5m1 0h1m3 0h3m3 0h1m1 0h1m1 0h2m1 0h2m1 0h1m1 0h1m4 0h1m1 0h2m3 0h1m1 0h3m-80 1h2m1 0h1m1 0h1m1 0h3m1 0h2m1 0h1m1 0h3m1 0h2m1 0h1m1 0h1m1 0h4m4 0h6m3 0h1m1 0h2m1 0h1m1 0h2m6 0h4m1 0h1m4 0h1m1 0h1m1 0h1m1 0h1m2 0h1m-80 1h1m1 0h1m1 0h1m3 0h2m2 0h1m2 0h1m1 0h1m3 0h1m2 0h1m3 0h3m2 0h1m2 0h1m2 0h5m1 0h4m3 0h2m1 0h2m2 0h1m2 0h1m1 0h7m1 0h1m3 0h3m1 0h1m-80 1h9m2 0h2m1 0h1m1 0h3m2 0h7m9 0h1m1 0h1m3 0h1m2 0h6m5 0h1m2 0h1m1 0h1m1 0h1m2 0h2m1 0h6m1 0h1m-77 1h3m2 0h2m5 0h3m1 0h1m1 0h1m2 0h5m1 0h4m3 0h2m1 0h1m2 0h1m1 0h1m3 0h1m1 0h1m3 0h3m3 0h1m3 0h1m1 0h1m2 0h1m2 0h1m3 0h3m1 0h1m-78 1h4m2 0h7m1 0h3m7 0h1m1 0h1m3 0h2m2 0h1m1 0h1m1 0h3m2 0h1m1 0h2m3 0h1m3 0h7m1 0h1m1 0h1m2 0h2m2 0h1m1 0h4m-79 1h2m2 0h1m1 0h1m2 0h1m1 0h1m1 0h1m1 0h1m2 0h1m3 0h1m2 0h2m2 0h2m2 0h3m2 0h2m2 0h2m1 0h1m4 0h1m3 0h1m3 0h1m5 0h3m1 0h1m1 0h3m2 0h3m-79 1h3m3 0h2m2 0h2m1 0h1m2 0h5m3 0h2m2 0h1m3 0h1m2 0h2m3 0h2m3 0h1m2 0h1m1 0h2m2 0h1m2 0h1m2 0h1m1 0h4m3 0h4m1 0h1m2 0h1m1 0h2m-81 1h1m1 0h4m4 0h1m3 0h2m6 0h3m1 0h1m2 0h1m2 0h3m1 0h2m2 0h2m2 0h3m1 0h1m1 0h3m1 0h1m1 0h2m4 0h2m3 0h1m1 0h1m1 0h1m4 0h1m1 0h1m1 0h1m-80 1h1m1 0h1m1 0h2m4 0h1m1 0h1m1 0h4m1 0h1m1 0h5m2 0h1m2 0h2m1 0h3m1 0h1m2 0h1m2 0h2m1 0h1m1 0h1m2 0h1m2 0h1m1 0h1m2 0h1m2 0h4m1 0h3m1 0h1m2 0h4m-80 1h2m1 0h3m2 0h3m1 0h2m2 0h1m2 0h3m3 0h1m3 0h3m3 0h1m2 0h2m2 0h1m1 0h2m2 0h5m1 0h4m2 0h1m1 0h1m1 0h1m1 0h5m1 0h2m1 0h5m-79 1h1m1 0h1m2 0h2m7 0h5m1 0h1m2 0h2m1 0h1m1 0h2m2 0h3m1 0h2m1 0h3m6 0h1m1 0h1m5 0h2m4 0h2m3 0h5m1 0h1m2 0h1m2 0h1m-78 1h1m1 0h1m2 0h1m3 0h1m3 0h1m1 0h2m1 0h1m1 0h1m2 0h1m2 0h1m2 0h1m1 0h5m2 0h1m1 0h1m2 0h4m5 0h3m2 0h1m1 0h1m1 0h1m2 0h3m1 0h3m1 0h6m-81 1h3m3 0h6m1 0h1m1 0h1m1 0h1m1 0h3m1 0h1m2 0h2m1 0h3m2 0h3m4 0h4m1 0h2m2 0h4m2 0h1m4 0h2m2 0h1m1 0h1m2 0h1m2 0h1m2 0h1m1 0h2m-78 1h1m2 0h1m1 0h3m2 0h1m2 0h1m2 0h1m2 0h3m1 0h1m2 0h1m2 0h1m2 0h9m1 0h2m2 0h1m6 0h5m6 0h4m1 0h3m1 0h4m-78 1h3m2 0h1m2 0h5m4 0h3m4 0h2m1 0h2m1 0h7m3 0h3m1 0h2m1 0h2m2 0h1m1 0h1m3 0h1m1 0h1m1 0h3m8 0h2m2 0h1m1 0h1m-79 1h1m1 0h1m3 0h4m1 0h1m1 0h2m2 0h2m2 0h1m7 0h5m1 0h2m3 0h3m5 0h1m6 0h2m1 0h1m2 0h1m1 0h1m2 0h1m1 0h3m3 0h4m-76 1h2m1 0h2m4 0h5m1 0h3m1 0h1m3 0h1m2 0h1m2 0h1m1 0h1m1 0h1m1 0h4m1 0h1m2 0h1m3 0h4m4 0h2m1 0h1m1 0h1m1 0h2m1 0h4m1 0h1m2 0h1m1 0h2m-79 1h5m1 0h2m1 0h1m2 0h1m2 0h1m3 0h2m1 0h1m1 0h1m2 0h1m3 0h4m3 0h1m3 0h4m3 0h2m2 0h1m1 0h4m1 0h2m4 0h1m1 0h1m1 0h3m2 0h5m-79 1h1m1 0h3m2 0h1m1 0h2m3 0h3m2 0h2m2 0h2m1 0h1m2 0h1m2 0h3m1 0h2m2 0h4m1 0h1m1 0h1m2 0h1m4 0h2m2 0h4m1 0h1m1 0h2m1 0h1m2 0h1m2 0h1m-78 1h2m1 0h1m1 0h1m2 0h4m3 0h2m3 0h3m1 0h1m2 0h3m1 0h2m1 0h2m4 0h6m1 0h3m5 0h1m1 0h2m1 0h1m7 0h2m2 0h1m2 0h1m3 0h2m-80 1h1m2 0h1m1 0h1m2 0h1m2 0h3m3 0h1m1 0h2m6 0h2m4 0h2m7 0h2m2 0h3m1 0h1m1 0h2m1 0h1m1 0h1m1 0h4m1 0h1m2 0h1m1 0h2m1 0h3m1 0h3m-79 1h3m5 0h2m3 0h1m1 0h2m1 0h5m2 0h1m1 0h1m1 0h1m1 0h2m2 0h2m1 0h1m1 0h1m1 0h1m1 0h2m4 0h1m2 0h6m1 0h1m2 0h1m2 0h1m1 0h1m1 0h2m2 0h5m-79 1h10m2 0h2m2 0h1m1 0h2m1 0h9m3 0h2m1 0h2m1 0h2m2 0h1m1 0h1m1 0h5m1 0h1m1 0h3m4 0h1m1 0h1m2 0h1m1 0h7m2 0h1m-79 1h1m2 0h1m3 0h3m9 0h1m2 0h2m3 0h2m1 0h1m1 0h3m2 0h1m1 0h2m1 0h1m3 0h2m3 0h1m2 0h1m1 0h4m1 0h1m3 0h1m1 0h3m1 0h1m3 0h3m1 0h1m-81 1h2m2 0h1m1 0h1m1 0h1m5 0h1m2 0h2m2 0h1m2 0h1m1 0h1m1 0h1m3 0h1m3 0h1m1 0h8m2 0h1m1 0h1m1 0h1m1 0h1m3 0h1m2 0h5m2 0h1m2 0h2m1 0h1m1 0h4m-80 1h1m3 0h1m3 0h4m4 0h1m6 0h2m3 0h1m2 0h3m1 0h1m2 0h1m1 0h3m1 0h2m1 0h2m3 0h1m2 0h5m1 0h2m1 0h1m2 0h2m2 0h2m3 0h1m1 0h1m1 0h1m-79 1h1m1 0h6m2 0h1m2 0h3m1 0h1m4 0h5m8 0h3m1 0h1m1 0h1m1 0h1m2 0h5m4 0h2m4 0h1m2 0h1m1 0h2m2 0h5m2 0h2m-81 1h2m1 0h1m4 0h3m3 0h1m1 0h3m4 0h2m5 0h2m3 0h4m1 0h2m3 0h2m1 0h1m4 0h2m2 0h2m7 0h1m2 0h3m2 0h1m4 0h2m-80 1h6m2 0h3m2 0h2m3 0h1m1 0h3m1 0h2m3 0h2m1 0h1m1 0h4m3 0h3m8 0h3m4 0h4m1 0h1m7 0h1m1 0h4m-79 1h3m2 0h1m2 0h3m1 0h1m1 0h1m3 0h4m1 0h3m3 0h2m3 0h1m4 0h1m1 0h1m1 0h1m1 0h14m4 0h3m1 0h1m1 0h1m3 0h3m1 0h3m-80 1h1m1 0h1m1 0h1m1 0h3m1 0h2m1 0h1m3 0h1m1 0h2m1 0h6m1 0h1m4 0h1m1 0h2m2 0h3m2 0h2m1 0h2m2 0h1m1 0h1m5 0h1m1 0h2m1 0h1m2 0h1m1 0h1m1 0h1m2 0h5m-80 1h1m1 0h1m1 0h1m4 0h5m2 0h2m4 0h1m2 0h1m2 0h1m1 0h2m1 0h1m3 0h2m1 0h4m1 0h1m4 0h2m1 0h3m1 0h1m1 0h2m1 0h1m3 0h1m2 0h1m1 0h1m2 0h1m2 0h4m-79 1h5m1 0h2m2 0h1m2 0h1m2 0h1m1 0h1m3 0h4m1 0h1m2 0h1m1 0h2m3 0h1m2 0h3m1 0h1m5 0h1m1 0h1m3 0h1m2 0h5m4 0h1m2 0h2m3 0h2m-79 1h1m3 0h1m6 0h2m1 0h1m2 0h2m1 0h4m1 0h3m1 0h2m3 0h1m2 0h1m3 0h1m1 0h1m4 0h4m2 0h5m1 0h1m2 0h5m1 0h1m2 0h2m2 0h4m-80 1h1m4 0h1m5 0h1m1 0h1m1 0h1m1 0h1m4 0h1m3 0h1m2 0h1m1 0h3m1 0h1m3 0h1m1 0h1m5 0h1m1 0h4m2 0h1m3 0h4m1 0h1m2 0h2m1 0h3m1 0h2m2 0h2m-81 1h1m3 0h2m1 0h7m3 0h1m1 0h1m3 0h2m7 0h2m1 0h1m1 0h1m3 0h1m1 0h4m1 0h1m2 0h1m2 0h1m1 0h2m3 0h1m2 0h1m1 0h6m1 0h2m2 0h1m1 0h2m-81 1h5m1 0h2m1 0h1m1 0h1m3 0h4m1 0h1m1 0h1m2 0h4m1 0h3m1 0h1m1 0h1m2 0h2m1 0h2m1 0h3m2 0h4m1 0h6m1 0h1m2 0h1m1 0h2m1 0h1m1 0h2m1 0h1m1 0h3m-80 1h2m1 0h2m2 0h1m1 0h1m1 0h6m1 0h2m2 0h1m2 0h2m2 0h5m2 0h1m4 0h1m2 0h4m1 0h3m2 0h3m7 0h1m1 0h4m1 0h1m1 0h1m1 0h5m-79 1h3m2 0h1m2 0h1m2 0h2m1 0h1m2 0h1m4 0h2m1 0h1m1 0h1m3 0h2m1 0h9m1 0h1m1 0h3m4 0h1m1 0h2m4 0h5m1 0h2m1 0h3m2 0h1m2 0h2m-80 1h2m1 0h1m3 0h1m1 0h1m2 0h6m1 0h3m6 0h1m4 0h1m1 0h3m1 0h2m3 0h1m1 0h2m1 0h4m1 0h6m1 0h1m1 0h1m1 0h4m1 0h1m1 0h2m2 0h2m1 0h1m-80 1h2m1 0h1m1 0h1m4 0h1m4 0h2m4 0h3m1 0h2m3 0h5m2 0h2m1 0h2m1 0h3m4 0h6m1 0h1m1 0h3m2 0h1m1 0h1m4 0h5m1 0h2m-78 1h1m2 0h1m3 0h1m1 0h1m1 0h2m1 0h3m1 0h4m2 0h1m4 0h2m2 0h1m1 0h3m1 0h1m1 0h1m1 0h1m2 0h1m1 0h2m1 0h2m2 0h1m1 0h4m1 0h5m1 0h2m1 0h1m3 0h3m-80 1h3m3 0h1m5 0h2m2 0h4m3 0h2m1 0h3m4 0h1m1 0h3m1 0h4m2 0h2m4 0h1m4 0h3m2 0h4m4 0h4m2 0h2m2 0h1m-80 1h1m2 0h1m3 0h1m2 0h1m1 0h1m1 0h1m2 0h5m1 0h3m3 0h1m3 0h5m1 0h1m2 0h3m1 0h1m1 0h1m2 0h4m2 0h3m2 0h3m3 0h2m1 0h2m1 0h1m4 0h2m-80 1h3m2 0h1m2 0h4m1 0h4m1 0h4m1 0h1m1 0h1m1 0h2m2 0h1m1 0h1m1 0h3m1 0h2m1 0h2m1 0h3m1 0h1m3 0h1m1 0h1m3 0h4m1 0h1m1 0h1m2 0h1m2 0h4m2 0h1m-79 1h1m3 0h1m5 0h1m1 0h2m1 0h4m4 0h1m5 0h2m2 0h1m1 0h5m4 0h1m1 0h3m1 0h7m1 0h1m4 0h1m2 0h3m1 0h2m1 0h2m1 0h2m-78 1h3m2 0h3m1 0h1m2 0h2m1 0h1m2 0h1m1 0h1m1 0h6m1 0h1m2 0h1m1 0h3m2 0h1m2 0h2m1 0h1m1 0h5m1 0h1m1 0h1m3 0h1m1 0h5m1 0h1m3 0h5m3 0h1m-73 1h3m1 0h1m2 0h3m2 0h2m1 0h2m3 0h1m2 0h9m1 0h1m2 0h2m2 0h1m3 0h2m2 0h2m2 0h1m1 0h1m1 0h1m1 0h1m2 0h2m1 0h1m3 0h3m1 0h1m-81 1h7m3 0h1m1 0h1m1 0h1m1 0h3m1 0h2m2 0h1m1 0h1m1 0h2m1 0h1m1 0h4m2 0h1m1 0h2m2 0h2m1 0h1m1 0h1m1 0h5m1 0h1m1 0h2m1 0h2m2 0h6m1 0h1m1 0h1m1 0h2m-80 1h1m5 0h1m3 0h1m1 0h1m2 0h1m1 0h8m3 0h1m1 0h3m1 0h1m1 0h2m1 0h1m2 0h2m3 0h2m3 0h2m1 0h3m3 0h2m1 0h1m1 0h3m2 0h2m3 0h3m1 0h1m-81 1h1m1 0h3m1 0h1m1 0h2m3 0h1m3 0h1m2 0h1m1 0h7m2 0h1m1 0h1m2 0h1m2 0h1m2 0h2m2 0h7m1 0h1m1 0h2m5 0h2m4 0h2m1 0h6m-78 1h1m1 0h3m1 0h1m1 0h1m1 0h1m4 0h2m1 0h2m1 0h1m3 0h1m1 0h4m1 0h2m2 0h1m3 0h1m1 0h1m1 0h1m1 0h3m2 0h2m1 0h1m1 0h5m1 0h1m3 0h1m1 0h4m1 0h1m1 0h2m-77 1h1m1 0h3m1 0h1m1 0h5m1 0h1m4 0h4m1 0h2m1 0h2m1 0h2m1 0h1m3 0h1m1 0h2m3 0h2m3 0h2m3 0h3m1 0h1m2 0h1m1 0h1m1 0h1m4 0h2m1 0h2m2 0h2m-79 1h1m5 0h1m2 0h1m2 0h1m3 0h5m2 0h1m1 0h1m3 0h1m1 0h2m3 0h5m1 0h7m2 0h3m1 0h2m2 0h1m4 0h1m2 0h4m4 0h1m1 0h2m-79 1h7m2 0h3m3 0h2m1 0h1m1 0h2m2 0h5m4 0h2m1 0h1m2 0h1m3 0h2m3 0h4m1 0h2m1 0h1m1 0h1m4 0h1m1 0h1m5 0h3m2 0h1m2 0h1"/></svg>
