<?xml version="1.0" encoding="UTF-8" standalone="no"?>
<svg
   version="1.1"
   viewBox="0 0 1001 732"
   fill="none"
   stroke="none"
   stroke-linecap="square"
   stroke-miterlimit="10"
   id="svg123"
   sodipodi:docname="trust-roles.svg"
   width="1001"
   height="732"
   inkscape:version="1.1.2 (0a00cf5339, 2022-02-04)"
   xmlns:inkscape="http://www.inkscape.org/namespaces/inkscape"
   xmlns:sodipodi="http://sodipodi.sourceforge.net/DTD/sodipodi-0.dtd"
   xmlns="http://www.w3.org/2000/svg"
   xmlns:svg="http://www.w3.org/2000/svg">
  <defs
     id="defs127" />
  <sodipodi:namedview
     id="namedview125"
     pagecolor="#ffffff"
     bordercolor="#666666"
     borderopacity="1.0"
     inkscape:pageshadow="2"
     inkscape:pageopacity="0.0"
     inkscape:pagecheckerboard="0"
     showgrid="false"
     width="1151px"
     inkscape:zoom="0.47164352"
     inkscape:cx="371.04294"
     inkscape:cy="111.31288"
     inkscape:window-width="1920"
     inkscape:window-height="990"
     inkscape:window-x="0"
     inkscape:window-y="28"
     inkscape:window-maximized="1"
     inkscape:current-layer="svg123" />
  <clipPath
     id="p.0">
    <path
       d="M 0,0 H 1152 V 864 H 0 Z"
       clip-rule="nonzero"
       id="path2" />
  </clipPath>
  <g
     clip-path="url(#p.0)"
     id="g121">
    <path
       fill="#000000"
       fill-opacity="0"
       d="M 0,0 H 1152 V 864 H 0 Z"
       fill-rule="evenodd"
       id="path5" />
    <path
       fill="#d9ead3"
       d="m 20.923885,531.08203 v 0 c 0,-17.60101 14.268417,-31.86945 31.869404,-31.86945 H 944.23559 c 8.45227,0 16.55841,3.35767 22.53503,9.33436 5.97669,5.97668 9.33435,14.08276 9.33435,22.53509 v 127.47376 c 0,17.60101 -14.26843,31.86938 -31.86938,31.86938 H 52.793289 v 0 c -17.600986,0 -31.869404,-14.26837 -31.869404,-31.86938 z"
       fill-rule="evenodd"
       id="path7" />
    <path
       stroke="#000000"
       stroke-width="1"
       stroke-linejoin="round"
       stroke-linecap="butt"
       d="m 20.923885,531.08203 v 0 c 0,-17.60101 14.268417,-31.86945 31.869404,-31.86945 H 944.23559 c 8.45227,0 16.55841,3.35767 22.53503,9.33436 5.97669,5.97668 9.33435,14.08276 9.33435,22.53509 v 127.47376 c 0,17.60101 -14.26843,31.86938 -31.86938,31.86938 H 52.793289 v 0 c -17.600986,0 -31.869404,-14.26837 -31.869404,-31.86938 z"
       fill-rule="evenodd"
       id="path9" />
    <path
       fill="#cfe2f3"
       d="m 375.26773,104.30473 v 0 c 0,-7.230587 5.86154,-13.092129 13.0921,-13.092129 h 220.68192 c 3.47223,0 6.80225,1.379341 9.25751,3.834595 2.45526,2.455246 3.83459,5.785274 3.83459,9.257534 v 52.36693 c 0,7.23058 -5.86151,13.09212 -13.0921,13.09212 H 388.35983 c -7.23056,0 -13.0921,-5.86154 -13.0921,-13.09212 z"
       fill-rule="evenodd"
       id="path11" />
    <path
       stroke="#000000"
       stroke-width="1"
       stroke-linejoin="round"
       stroke-linecap="butt"
       d="m 375.26773,104.30473 v 0 c 0,-7.230587 5.86154,-13.092129 13.0921,-13.092129 h 220.68192 c 3.47223,0 6.80225,1.379341 9.25751,3.834595 2.45526,2.455246 3.83459,5.785274 3.83459,9.257534 v 52.36693 c 0,7.23058 -5.86151,13.09212 -13.0921,13.09212 H 388.35983 c -7.23056,0 -13.0921,-5.86154 -13.0921,-13.09212 z"
       fill-rule="evenodd"
       id="path13" />
    <path
       fill="#000000"
       fill-opacity="0"
       d="m 408.60892,102.59318 h 210.14175 v 51.71653 H 408.60892 Z"
       fill-rule="evenodd"
       id="path15" />
    <path
       fill="#000000"
       d="m 424.51517,137.19318 v -16.82812 h -6.28125 v -2.25 h 15.125 v 2.25 h -6.3125 v 16.82812 z m 10.12125,0 v -13.82812 h 2.10937 v 2.09375 q 0.79688,-1.46875 1.48438,-1.9375 0.6875,-0.46875 1.5,-0.46875 1.1875,0 2.40625,0.76562 l -0.79688,2.17188 q -0.85937,-0.51563 -1.71875,-0.51563 -0.76562,0 -1.39062,0.46875 -0.60938,0.45313 -0.85938,1.28125 -0.39062,1.25 -0.39062,2.73437 v 7.23438 z m 17.95486,0 v -2.03125 q -1.60937,2.34375 -4.375,2.34375 -1.23437,0 -2.29687,-0.46875 -1.0625,-0.46875 -1.57813,-1.17188 -0.5,-0.71875 -0.71875,-1.75 -0.14062,-0.6875 -0.14062,-2.1875 v -8.56249 h 2.34375 v 7.67187 q 0,1.82812 0.14062,2.46875 0.21875,0.92187 0.9375,1.45312 0.71875,0.53125 1.76563,0.53125 1.0625,0 1.98437,-0.53125 0.92188,-0.54687 1.29688,-1.46875 0.39062,-0.9375 0.39062,-2.71875 v -7.40624 h 2.34375 v 13.82812 z m 4.82492,-4.125 2.32813,-0.35938 q 0.1875,1.39063 1.07812,2.14063 0.89063,0.73437 2.5,0.73437 1.60938,0 2.39063,-0.65625 0.78125,-0.65625 0.78125,-1.54687 0,-0.79688 -0.6875,-1.25 -0.48438,-0.3125 -2.39063,-0.79688 -2.57812,-0.65625 -3.57812,-1.125 -1,-0.46875 -1.51563,-1.3125 -0.51562,-0.84375 -0.51562,-1.85937 0,-0.92187 0.42187,-1.70312 0.4375,-0.79688 1.15625,-1.3125 0.54688,-0.40625 1.48438,-0.6875 0.95312,-0.28125 2.03125,-0.28125 1.625,0 2.85937,0.46875 1.23438,0.46875 1.8125,1.28125 0.59375,0.79687 0.8125,2.14062 l -2.29687,0.3125 q -0.15625,-1.07812 -0.90625,-1.67187 -0.75,-0.59375 -2.10938,-0.59375 -1.60937,0 -2.3125,0.53125 -0.6875,0.53125 -0.6875,1.25 0,0.45312 0.29688,0.8125 0.28125,0.375 0.89062,0.62499 0.35938,0.14063 2.07813,0.60938 2.48437,0.65625 3.46875,1.07812 0.98437,0.42188 1.53125,1.23438 0.5625,0.79687 0.5625,2 0,1.17187 -0.6875,2.21875 -0.67188,1.03125 -1.96875,1.59375 -1.28125,0.5625 -2.90625,0.5625 -2.70313,0 -4.125,-1.10938 -1.40625,-1.125 -1.79688,-3.32812 z m 19.39063,2.03125 0.32812,2.0625 q -0.98437,0.21875 -1.76562,0.21875 -1.26563,0 -1.96875,-0.40625 -0.70313,-0.40625 -1,-1.0625 -0.28125,-0.65625 -0.28125,-2.76563 v -7.95312 h -1.71875 v -1.82812 h 1.71875 v -3.42188 l 2.32812,-1.40625 v 4.82813 h 2.35938 v 1.82812 h -2.35938 v 8.07812 q 0,1 0.125,1.29688 0.125,0.28125 0.40625,0.45312 0.28125,0.17188 0.79688,0.17188 0.39062,0 1.03125,-0.0937 z m 6.43432,2.09375 7.3125,-19.07812 h 2.73438 l 7.79687,19.07812 h -2.875 l -2.21875,-5.78125 h -7.98437 l -2.09375,5.78125 z m 5.5,-7.82813 h 6.46875 l -2,-5.29687 q -0.90625,-2.40625 -1.34375,-3.95312 -0.375,1.84375 -1.03125,3.64062 z m 14.06076,7.82813 v -13.82812 h 2.10938 v 1.96875 q 1.53125,-2.28125 4.40625,-2.28125 1.25,0 2.29687,0.45312 1.04685,0.45313 1.56247,1.1875 0.53125,0.71875 0.73438,1.71875 0.125,0.65625 0.125,2.28125 v 8.5 h -2.34372 v -8.40625 q 0,-1.4375 -0.28125,-2.14062 -0.26563,-0.71875 -0.96875,-1.14063 -0.6875,-0.42187 -1.625,-0.42187 -1.48438,0 -2.57813,0.95312 -1.09375,0.95313 -1.09375,3.60937 v 7.54688 z m 23.85617,-5.0625 2.29688,0.29687 q -0.375,2.39063 -1.9375,3.73438 -1.54688,1.34375 -3.8125,1.34375 -2.84375,0 -4.5625,-1.84375 -1.71875,-1.85938 -1.71875,-5.32813 0,-2.23437 0.73437,-3.90624 0.75,-1.6875 2.26563,-2.53125 1.51562,-0.84375 3.29687,-0.84375 2.25,0 3.67188,1.14062 1.4375,1.14063 1.84375,3.23438 l -2.28125,0.35937 q -0.32813,-1.39062 -1.15625,-2.09375 -0.8125,-0.70312 -1.98438,-0.70312 -1.78125,0 -2.89062,1.26562 -1.09375,1.26563 -1.09375,4.01562 0,2.78125 1.0625,4.04688 1.0625,1.26562 2.78125,1.26562 1.39062,0 2.3125,-0.84375 0.92187,-0.85937 1.17187,-2.60937 z m 4.29688,5.0625 v -19.07812 h 2.34375 v 6.84375 q 1.64062,-1.90625 4.14062,-1.90625 1.54688,0 2.67188,0.60937 1.14062,0.60938 1.625,1.67188 0.48437,1.0625 0.48437,3.09374 v 8.76563 h -2.34375 v -8.76563 q 0,-1.74999 -0.76562,-2.54687 -0.75,-0.8125 -2.15625,-0.8125 -1.03125,0 -1.95313,0.54688 -0.92187,0.54687 -1.3125,1.46875 -0.39062,0.92187 -0.39062,2.54687 v 7.5625 z m 13.96557,-6.90625 q 0,-3.84375 2.125,-5.6875 1.78125,-1.54687 4.34375,-1.54687 2.85938,0 4.65625,1.875 1.8125,1.85937 1.8125,5.15624 0,2.67188 -0.79687,4.20313 -0.79688,1.53125 -2.32813,2.375 -1.53125,0.84375 -3.34375,0.84375 -2.89062,0 -4.6875,-1.85938 -1.78125,-1.85937 -1.78125,-5.35937 z m 2.40625,0 q 0,2.65625 1.15625,3.98437 1.15625,1.3125 2.90625,1.3125 1.75,0 2.90625,-1.32812 1.15625,-1.32813 1.15625,-4.04688 0,-2.56249 -1.17187,-3.89062 -1.15625,-1.32812 -2.89063,-1.32812 -1.75,0 -2.90625,1.32812 -1.15625,1.3125 -1.15625,3.96875 z m 13.26246,6.90625 v -13.82812 h 2.10937 v 2.09375 q 0.79688,-1.46875 1.48438,-1.9375 0.6875,-0.46875 1.5,-0.46875 1.1875,0 2.40625,0.76562 l -0.79688,2.17188 q -0.85937,-0.51563 -1.71875,-0.51563 -0.76562,0 -1.39062,0.46875 -0.60938,0.45313 -0.85938,1.28125 -0.39062,1.25 -0.39062,2.73437 v 7.23438 z"
       fill-rule="nonzero"
       id="path17" />
    <path
       fill="#cfe2f3"
       d="m 52.923885,592.30475 v 0 c 0,-7.23059 5.861542,-13.09216 13.092121,-13.09216 H 313.0286 c 3.47226,0 6.8023,1.37933 9.25753,3.83459 2.45527,2.45526 3.8346,5.78528 3.8346,9.25757 v 52.36688 c 0,7.23059 -5.86154,13.09216 -13.09213,13.09216 H 66.016006 c -7.23058,0 -13.092121,-5.86157 -13.092121,-13.09216 z"
       fill-rule="evenodd"
       id="path19" />
    <path
       stroke="#000000"
       stroke-width="1"
       stroke-linejoin="round"
       stroke-linecap="butt"
       d="m 52.923885,592.30475 v 0 c 0,-7.23059 5.861542,-13.09216 13.092121,-13.09216 H 313.0286 c 3.47226,0 6.8023,1.37933 9.25753,3.83459 2.45527,2.45526 3.8346,5.78528 3.8346,9.25757 v 52.36688 c 0,7.23059 -5.86154,13.09216 -13.09213,13.09216 H 66.016006 c -7.23058,0 -13.092121,-5.86157 -13.092121,-13.09216 z"
       fill-rule="evenodd"
       id="path21" />
    <path
       fill="#000000"
       fill-opacity="0"
       d="M 55.267715,590.5932 H 328.46456 v 51.71649 H 55.267715 Z"
       fill-rule="evenodd"
       id="path23" />
    <path
       fill="#000000"
       d="m 66.330215,625.1932 v -19.07812 h 7.1875 q 1.90625,0 2.90625,0.17187 1.40625,0.23438 2.359375,0.90625 0.953125,0.65625 1.53125,1.84375 0.578125,1.17188 0.578125,2.59375 0,2.4375 -1.5625,4.125 -1.546875,1.6875 -5.59375,1.6875 H 68.84584 v 7.75 z m 2.515625,-10.01562 h 4.9375 q 2.453125,0 3.46875,-0.90625 1.03125,-0.90625 1.03125,-2.5625 0,-1.20313 -0.609375,-2.04688 -0.59375,-0.85937 -1.59375,-1.125 -0.625,-0.17187 -2.34375,-0.17187 H 68.84584 Z M 84.5316,625.1932 v -19.07812 h 2.53125 v 19.07812 z m 6.984085,0 v -19.07812 h 6.5625 q 2.234375,0 3.406255,0.26562 1.64062,0.375 2.79687,1.375 1.5,1.26563 2.25,3.25 0.75,1.98438 0.75,4.54688 0,2.17187 -0.51562,3.85937 -0.5,1.67188 -1.29688,2.78125 -0.78125,1.09375 -1.73437,1.71875 -0.9375,0.625 -2.28125,0.95313 -1.32813,0.32812 -3.062505,0.32812 z m 2.515625,-2.25 h 4.078125 q 1.890625,0 2.953125,-0.34375 1.07813,-0.35937 1.71875,-1 0.89063,-0.89062 1.39063,-2.40625 0.51562,-1.51562 0.51562,-3.6875 0,-2.98437 -0.98437,-4.59375 -0.98438,-1.60937 -2.39063,-2.15625 -1.01562,-0.39062 -3.265625,-0.39062 H 94.03131 Z m 14.67217,2.57813 5.53125,-19.73438 h 1.875 l -5.51563,19.73438 z m 13.64033,5.28125 q -1.9375,-2.45313 -3.28125,-5.71875 -1.34375,-3.28125 -1.34375,-6.79688 0,-3.10937 1,-5.9375 1.17188,-3.29687 3.625,-6.5625 h 1.67188 q -1.5625,2.70313 -2.07813,3.85938 -0.79687,1.79687 -1.25,3.75 -0.5625,2.4375 -0.5625,4.90625 0,6.25 3.89063,12.5 z m 19.15799,-7.65625 q 1.76563,1.21875 3.25,1.78125 l -0.75,1.75 q -2.0625,-0.75 -4.09375,-2.34375 -2.125,1.1875 -4.6875,1.1875 -2.59375,0 -4.70312,-1.25 -2.10938,-1.25 -3.25,-3.51563 -1.14063,-2.26562 -1.14063,-5.10937 0,-2.8125 1.14063,-5.125 1.15625,-2.32813 3.26562,-3.53125 2.125,-1.21875 4.73438,-1.21875 2.64062,0 4.76562,1.26562 2.125,1.25 3.23438,3.51563 1.10937,2.25 1.10937,5.09375 0,2.34375 -0.71875,4.23437 -0.70312,1.875 -2.15625,3.26563 z m -5.5625,-3.21875 q 2.1875,0.60937 3.60938,1.8125 2.23437,-2.03125 2.23437,-6.09375 0,-2.32813 -0.79687,-4.04688 -0.78125,-1.73437 -2.29688,-2.6875 -1.51562,-0.96875 -3.40625,-0.96875 -2.82812,0 -4.6875,1.9375 -1.85937,1.9375 -1.85937,5.76563 0,3.73437 1.84375,5.73437 1.84375,1.98438 4.70312,1.98438 1.35938,0 2.54688,-0.51563 -1.1875,-0.76562 -2.5,-1.09375 z m 13.07784,10.875 h -1.6875 q 3.89062,-6.25 3.89062,-12.5 0,-2.45313 -0.54687,-4.85938 -0.45313,-1.95312 -1.25,-3.75 -0.5,-1.17187 -2.09375,-3.90625 h 1.6875 q 2.4375,3.26563 3.60937,6.5625 1,2.82813 1,5.9375 0,3.51563 -1.34375,6.79688 -1.34375,3.26562 -3.26562,5.71875 z m 7.68923,-5.60938 v -19.07812 h 13.79688 v 2.25 h -11.26563 v 5.84375 h 10.54688 v 2.23437 h -10.54688 v 6.5 h 11.70313 v 2.25 z m 15.63889,0 7.3125,-19.07812 h 2.73438 l 7.79687,19.07812 h -2.875 l -2.21875,-5.78125 h -7.98437 l -2.09375,5.78125 z m 5.5,-7.82812 h 6.46875 l -2,-5.29688 q -0.90625,-2.40625 -1.34375,-3.95312 -0.375,1.84375 -1.03125,3.64062 z m 12.27951,7.82812 7.3125,-19.07812 h 2.73438 l 7.79687,19.07812 h -2.875 l -2.21875,-5.78125 h -7.98437 l -2.09375,5.78125 z m 5.5,-7.82812 h 6.46875 l -2,-5.29688 q -0.90625,-2.40625 -1.34375,-3.95312 -0.375,1.84375 -1.03125,3.64062 z m 20.30786,7.82812 v -19.07812 h 7.1875 q 1.90625,0 2.90625,0.17187 1.40625,0.23438 2.35938,0.90625 0.95312,0.65625 1.53125,1.84375 0.57812,1.17188 0.57812,2.59375 0,2.4375 -1.5625,4.125 -1.54687,1.6875 -5.59375,1.6875 h -4.89062 v 7.75 z m 2.51563,-10.01562 h 4.9375 q 2.45312,0 3.46875,-0.90625 1.03125,-0.90625 1.03125,-2.5625 0,-1.20313 -0.60938,-2.04688 -0.59375,-0.85937 -1.59375,-1.125 -0.625,-0.17187 -2.34375,-0.17187 h -4.89062 z m 14.93576,10.01562 v -13.82812 h 2.10937 v 2.09375 q 0.79688,-1.46875 1.48438,-1.9375 0.6875,-0.46875 1.5,-0.46875 1.1875,0 2.40625,0.76562 l -0.79688,2.17188 q -0.85937,-0.51563 -1.71875,-0.51563 -0.76562,0 -1.39062,0.46875 -0.60938,0.45313 -0.85938,1.28125 -0.39062,1.25 -0.39062,2.73438 v 7.23437 z m 8.03299,-6.90625 q 0,-3.84375 2.125,-5.6875 1.78125,-1.54687 4.34375,-1.54687 2.85937,0 4.65625,1.875 1.8125,1.85937 1.8125,5.15625 0,2.67187 -0.79688,4.20312 -0.79687,1.53125 -2.32812,2.375 -1.53125,0.84375 -3.34375,0.84375 -2.89063,0 -4.6875,-1.85937 -1.78125,-1.85938 -1.78125,-5.35938 z m 2.40625,0 q 0,2.65625 1.15625,3.98438 1.15625,1.3125 2.90625,1.3125 1.75,0 2.90625,-1.32813 1.15625,-1.32812 1.15625,-4.04687 0,-2.5625 -1.17188,-3.89063 -1.15625,-1.32812 -2.89062,-1.32812 -1.75,0 -2.90625,1.32812 -1.15625,1.3125 -1.15625,3.96875 z m 17.12181,6.90625 -5.25,-13.82812 h 2.46875 l 2.96875,8.28125 q 0.48437,1.34375 0.89062,2.78125 0.29688,-1.09375 0.85938,-2.625 l 3.07812,-8.4375 h 2.40625 l -5.23437,13.82812 z m 9.5,-16.39062 v -2.6875 h 2.34375 v 2.6875 z m 0,16.39062 v -13.82812 h 2.34375 v 13.82812 z m 14.8753,0 v -1.75 q -1.3125,2.0625 -3.85937,2.0625 -1.65625,0 -3.04688,-0.90625 -1.375,-0.92187 -2.14062,-2.54687 -0.76563,-1.64063 -0.76563,-3.75 0,-2.07813 0.6875,-3.76563 0.70313,-1.6875 2.07813,-2.57812 1.375,-0.90625 3.07812,-0.90625 1.25,0 2.21875,0.53125 0.98438,0.53125 1.59375,1.375 v -6.84375 h 2.34375 v 19.07812 z m -7.40625,-6.89062 q 0,2.64062 1.125,3.96875 1.125,1.3125 2.64063,1.3125 1.53125,0 2.60937,-1.25 1.07813,-1.26563 1.07813,-3.84375 0,-2.84375 -1.09375,-4.17188 -1.09375,-1.32812 -2.70313,-1.32812 -1.54687,0 -2.60937,1.28125 -1.04688,1.28125 -1.04688,4.03125 z m 22.73117,2.4375 2.42188,0.29687 q -0.57813,2.125 -2.125,3.29688 -1.54688,1.17187 -3.95313,1.17187 -3.03125,0 -4.8125,-1.85937 -1.78125,-1.875 -1.78125,-5.25 0,-3.48438 1.79688,-5.40625 1.79687,-1.9375 4.67187,-1.9375 2.76563,0 4.51563,1.89062 1.76562,1.89063 1.76562,5.3125 0,0.20313 -0.0156,0.625 h -10.3125 q 0.14062,2.28125 1.29687,3.5 1.15625,1.20313 2.89063,1.20313 1.28125,0 2.1875,-0.67188 0.92187,-0.6875 1.45312,-2.17187 z m -7.6875,-3.78125 h 7.71875 q -0.15625,-1.75 -0.89062,-2.625 -1.125,-1.34375 -2.90625,-1.34375 -1.60938,0 -2.71875,1.07812 -1.09375,1.07813 -1.20313,2.89063 z m 13.02808,8.23437 v -13.82812 h 2.10937 v 2.09375 q 0.79688,-1.46875 1.48438,-1.9375 0.6875,-0.46875 1.5,-0.46875 1.1875,0 2.40625,0.76562 l -0.79688,2.17188 q -0.85937,-0.51563 -1.71875,-0.51563 -0.76562,0 -1.39062,0.46875 -0.60938,0.45313 -0.85938,1.28125 -0.39062,1.25 -0.39062,2.73438 v 7.23437 z"
       fill-rule="nonzero"
       id="path25" />
    <path
       fill="#cfe2f3"
       d="m 375.26773,592.30475 v 0 c 0,-7.23059 5.86154,-13.09216 13.0921,-13.09216 h 220.68192 c 3.47223,0 6.80225,1.37933 9.25751,3.83459 2.45526,2.45526 3.83459,5.78528 3.83459,9.25757 v 52.36688 c 0,7.23059 -5.86151,13.09216 -13.0921,13.09216 H 388.35983 c -7.23056,0 -13.0921,-5.86157 -13.0921,-13.09216 z"
       fill-rule="evenodd"
       id="path27" />
    <path
       stroke="#000000"
       stroke-width="1"
       stroke-linejoin="round"
       stroke-linecap="butt"
       d="m 375.26773,592.30475 v 0 c 0,-7.23059 5.86154,-13.09216 13.0921,-13.09216 h 220.68192 c 3.47223,0 6.80225,1.37933 9.25751,3.83459 2.45526,2.45526 3.83459,5.78528 3.83459,9.25757 v 52.36688 c 0,7.23059 -5.86151,13.09216 -13.0921,13.09216 H 388.35983 c -7.23056,0 -13.0921,-5.86157 -13.0921,-13.09216 z"
       fill-rule="evenodd"
       id="path29" />
    <path
       fill="#000000"
       fill-opacity="0"
       d="m 400.60892,590.5932 h 210.14175 v 51.71649 H 400.60892 Z"
       fill-rule="evenodd"
       id="path31" />
    <path
       fill="#000000"
       d="m 414.99954,625.1932 -5.0625,-19.07812 h 2.59375 l 2.89063,12.5 q 0.46875,1.96875 0.8125,3.90625 0.73437,-3.0625 0.85937,-3.53125 l 3.625,-12.875 h 3.04688 l 2.73437,9.65625 q 1.03125,3.59375 1.48438,6.75 0.375,-1.8125 0.95312,-4.14063 l 3,-12.26562 h 2.53125 l -5.23437,19.07812 h -2.4375 l -4.01563,-14.53125 q -0.5,-1.82812 -0.59375,-2.25 -0.29687,1.3125 -0.5625,2.25 l -4.04687,14.53125 z m 29.56049,-1.70312 q -1.3125,1.10937 -2.51563,1.5625 -1.20312,0.45312 -2.57812,0.45312 -2.28125,0 -3.5,-1.10937 -1.21875,-1.10938 -1.21875,-2.84375 0,-1.01563 0.45312,-1.85938 0.46875,-0.84375 1.21875,-1.34375 0.75,-0.51562 1.6875,-0.76562 0.6875,-0.1875 2.07813,-0.35938 2.82812,-0.32812 4.17187,-0.79687 0.0156,-0.48438 0.0156,-0.625 0,-1.42188 -0.65625,-2.01563 -0.90625,-0.79687 -2.67188,-0.79687 -1.65625,0 -2.45312,0.59375 -0.78125,0.57812 -1.15625,2.04687 l -2.29688,-0.3125 q 0.3125,-1.46875 1.03125,-2.375 0.71875,-0.90625 2.0625,-1.39062 1.35938,-0.5 3.14063,-0.5 1.78125,0 2.875,0.42187 1.10937,0.42188 1.625,1.04688 0.53125,0.625 0.73437,1.59375 0.125,0.59375 0.125,2.15625 v 3.125 q 0,3.26562 0.14063,4.14062 0.15625,0.85938 0.59375,1.65625 h -2.4375 q -0.375,-0.73437 -0.46875,-1.70312 z m -0.20313,-5.23438 q -1.26562,0.51563 -3.82812,0.89063 -1.4375,0.20312 -2.04688,0.46875 -0.59375,0.25 -0.92187,0.75 -0.3125,0.5 -0.3125,1.125 0,0.9375 0.70312,1.5625 0.70313,0.625 2.07813,0.625 1.34375,0 2.39062,-0.59375 1.0625,-0.59375 1.5625,-1.625 0.375,-0.79688 0.375,-2.34375 z m 5.94992,6.9375 v -19.07812 h 2.34375 v 19.07812 z m 5.92218,0 v -19.07812 h 2.34375 v 19.07812 z m 15.43778,-4.45312 2.42187,0.29687 q -0.57812,2.125 -2.125,3.29688 -1.54687,1.17187 -3.95312,1.17187 -3.03125,0 -4.8125,-1.85937 -1.78125,-1.875 -1.78125,-5.25 0,-3.48438 1.79687,-5.40625 1.79688,-1.9375 4.67188,-1.9375 2.76562,0 4.51562,1.89062 1.76563,1.89063 1.76563,5.3125 0,0.20313 -0.0156,0.625 h -10.3125 q 0.14063,2.28125 1.29688,3.5 1.15625,1.20313 2.89062,1.20313 1.28125,0 2.1875,-0.67188 0.92188,-0.6875 1.45313,-2.17187 z m -7.6875,-3.78125 h 7.71875 q -0.15625,-1.75 -0.89063,-2.625 -1.125,-1.34375 -2.90625,-1.34375 -1.60937,0 -2.71875,1.07812 -1.09375,1.07813 -1.20312,2.89063 z m 18.1687,6.14062 0.32812,2.0625 q -0.98437,0.21875 -1.76562,0.21875 -1.26563,0 -1.96875,-0.40625 -0.70313,-0.40625 -1,-1.0625 -0.28125,-0.65625 -0.28125,-2.76562 v -7.95313 h -1.71875 v -1.82812 h 1.71875 v -3.42188 l 2.32812,-1.40625 v 4.82813 h 2.35938 v 1.82812 h -2.35938 v 8.07813 q 0,1 0.125,1.29687 0.125,0.28125 0.40625,0.45313 0.28125,0.17187 0.79688,0.17187 0.39062,0 1.03125,-0.0937 z m 9.99942,2.09375 v -19.07812 h 7.1875 q 1.90625,0 2.90625,0.17187 1.40625,0.23438 2.35937,0.90625 0.95313,0.65625 1.53125,1.84375 0.57813,1.17188 0.57813,2.59375 0,2.4375 -1.5625,4.125 -1.54688,1.6875 -5.59375,1.6875 h -4.89063 v 7.75 z m 2.51562,-10.01562 h 4.9375 q 2.45313,0 3.46875,-0.90625 1.03125,-0.90625 1.03125,-2.5625 0,-1.20313 -0.60937,-2.04688 -0.59375,-0.85937 -1.59375,-1.125 -0.625,-0.17187 -2.34375,-0.17187 h -4.89063 z m 14.93576,10.01562 v -13.82812 h 2.10938 v 2.09375 q 0.79684,-1.46875 1.48434,-1.9375 0.6875,-0.46875 1.5,-0.46875 1.1875,0 2.40625,0.76562 l -0.79687,2.17188 q -0.85938,-0.51563 -1.71875,-0.51563 -0.76563,0 -1.39063,0.46875 -0.60937,0.45313 -0.85937,1.28125 -0.3906,1.25 -0.3906,2.73438 v 7.23437 z m 8.03299,-6.90625 q 0,-3.84375 2.125,-5.6875 1.78125,-1.54687 4.34375,-1.54687 2.85938,0 4.65625,1.875 1.8125,1.85937 1.8125,5.15625 0,2.67187 -0.79687,4.20312 -0.79688,1.53125 -2.32813,2.375 -1.53125,0.84375 -3.34375,0.84375 -2.89062,0 -4.6875,-1.85937 -1.78125,-1.85938 -1.78125,-5.35938 z m 2.40625,0 q 0,2.65625 1.15625,3.98438 1.15625,1.3125 2.90625,1.3125 1.75,0 2.90625,-1.32813 1.15625,-1.32812 1.15625,-4.04687 0,-2.5625 -1.17187,-3.89063 -1.15625,-1.32812 -2.89063,-1.32812 -1.75,0 -2.90625,1.32812 -1.15625,1.3125 -1.15625,3.96875 z m 17.12183,6.90625 -5.25,-13.82812 h 2.46875 l 2.96875,8.28125 q 0.48437,1.34375 0.89062,2.78125 0.29688,-1.09375 0.85938,-2.625 l 3.07812,-8.4375 h 2.40625 l -5.23437,13.82812 z m 9.5,-16.39062 v -2.6875 h 2.34375 v 2.6875 z m 0,16.39062 v -13.82812 h 2.34375 v 13.82812 z m 14.87524,0 v -1.75 q -1.3125,2.0625 -3.85937,2.0625 -1.65625,0 -3.04688,-0.90625 -1.375,-0.92187 -2.14062,-2.54687 -0.76563,-1.64063 -0.76563,-3.75 0,-2.07813 0.6875,-3.76563 0.70313,-1.6875 2.07813,-2.57812 1.375,-0.90625 3.07812,-0.90625 1.25,0 2.21875,0.53125 0.98438,0.53125 1.59375,1.375 v -6.84375 h 2.34375 v 19.07812 z m -7.40625,-6.89062 q 0,2.64062 1.125,3.96875 1.125,1.3125 2.64063,1.3125 1.53125,0 2.60937,-1.25 1.07813,-1.26563 1.07813,-3.84375 0,-2.84375 -1.09375,-4.17188 -1.09375,-1.32812 -2.70313,-1.32812 -1.54687,0 -2.60937,1.28125 -1.04688,1.28125 -1.04688,4.03125 z m 22.7312,2.4375 2.42188,0.29687 q -0.57813,2.125 -2.125,3.29688 -1.54688,1.17187 -3.95313,1.17187 -3.03125,0 -4.8125,-1.85937 -1.78125,-1.875 -1.78125,-5.25 0,-3.48438 1.79688,-5.40625 1.79687,-1.9375 4.67187,-1.9375 2.76563,0 4.51563,1.89062 1.76562,1.89063 1.76562,5.3125 0,0.20313 -0.0156,0.625 h -10.3125 q 0.14062,2.28125 1.29687,3.5 1.15625,1.20313 2.89063,1.20313 1.28125,0 2.1875,-0.67188 0.92187,-0.6875 1.45312,-2.17187 z m -7.6875,-3.78125 h 7.71875 q -0.15625,-1.75 -0.89062,-2.625 -1.125,-1.34375 -2.90625,-1.34375 -1.60938,0 -2.71875,1.07812 -1.09375,1.07813 -1.20313,2.89063 z m 13.02808,8.23437 v -13.82812 h 2.10937 v 2.09375 q 0.79688,-1.46875 1.48438,-1.9375 0.6875,-0.46875 1.5,-0.46875 1.1875,0 2.40625,0.76562 l -0.79688,2.17188 q -0.85937,-0.51563 -1.71875,-0.51563 -0.76562,0 -1.39062,0.46875 -0.60938,0.45313 -0.85938,1.28125 -0.39062,1.25 -0.39062,2.73438 v 7.23437 z"
       fill-rule="nonzero"
       id="path33" />
    <path
       fill="#cfe2f3"
       d="m 687.2677,592.30475 v 0 c 0,-7.23059 5.86157,-13.09216 13.09216,-13.09216 h 220.68188 c 3.47223,0 6.80225,1.37933 9.25751,3.83459 2.45526,2.45526 3.83459,5.78528 3.83459,9.25757 v 52.36688 c 0,7.23059 -5.86151,13.09216 -13.0921,13.09216 H 700.35986 c -7.23059,0 -13.09216,-5.86157 -13.09216,-13.09216 z"
       fill-rule="evenodd"
       id="path35" />
    <path
       stroke="#000000"
       stroke-width="1"
       stroke-linejoin="round"
       stroke-linecap="butt"
       d="m 687.2677,592.30475 v 0 c 0,-7.23059 5.86157,-13.09216 13.09216,-13.09216 h 220.68188 c 3.47223,0 6.80225,1.37933 9.25751,3.83459 2.45526,2.45526 3.83459,5.78528 3.83459,9.25757 v 52.36688 c 0,7.23059 -5.86151,13.09216 -13.0921,13.09216 H 700.35986 c -7.23059,0 -13.09216,-5.86157 -13.09216,-13.09216 z"
       fill-rule="evenodd"
       id="path37" />
    <path
       fill="#000000"
       fill-opacity="0"
       d="m 720.60895,590.5932 h 210.14172 v 51.71649 H 720.60895 Z"
       fill-rule="evenodd"
       id="path39" />
    <path
       fill="#000000"
       d="m 731.7027,625.1932 v -19.07812 h 8.46875 q 2.54688,0 3.875,0.51562 1.32813,0.51563 2.10938,1.8125 0.79687,1.29688 0.79687,2.875 0,2.03125 -1.3125,3.42188 -1.3125,1.39062 -4.0625,1.76562 1.01563,0.48438 1.53125,0.95313 1.10938,1.01562 2.09375,2.54687 l 3.3125,5.1875 h -3.17187 l -2.51563,-3.96875 q -1.10937,-1.71875 -1.82812,-2.625 -0.71875,-0.92187 -1.28125,-1.28125 -0.5625,-0.35937 -1.15625,-0.5 -0.42188,-0.0937 -1.40625,-0.0937 h -2.92188 v 8.46875 z m 2.53125,-10.65625 h 5.42188 q 1.73437,0 2.70312,-0.35937 0.98438,-0.35938 1.48438,-1.14063 0.51562,-0.79687 0.51562,-1.71875 0,-1.35937 -0.98437,-2.21875 -0.98438,-0.875 -3.10938,-0.875 h -6.03125 z m 25.84399,6.20313 2.42188,0.29687 q -0.57813,2.125 -2.125,3.29688 -1.54688,1.17187 -3.95313,1.17187 -3.03125,0 -4.8125,-1.85937 -1.78125,-1.875 -1.78125,-5.25 0,-3.48438 1.79688,-5.40625 1.79687,-1.9375 4.67187,-1.9375 2.76563,0 4.51563,1.89062 1.76562,1.89063 1.76562,5.3125 0,0.20313 -0.0156,0.625 h -10.3125 q 0.14062,2.28125 1.29687,3.5 1.15625,1.20313 2.89063,1.20313 1.28125,0 2.1875,-0.67188 0.92187,-0.6875 1.45312,-2.17187 z m -7.6875,-3.78125 h 7.71875 q -0.15625,-1.75 -0.89062,-2.625 -1.125,-1.34375 -2.90625,-1.34375 -1.60938,0 -2.71875,1.07812 -1.09375,1.07813 -1.20313,2.89063 z m 12.99683,8.23437 v -19.07812 h 2.34375 v 19.07812 z m 5.87531,5.32813 -0.26563,-2.20313 q 0.76563,0.20313 1.34375,0.20313 0.78125,0 1.25,-0.26563 0.46875,-0.25 0.76563,-0.71875 0.21875,-0.35937 0.71875,-1.75 0.0625,-0.1875 0.20312,-0.5625 l -5.25,-13.85937 h 2.53125 l 2.875,8.01562 q 0.5625,1.51563 1,3.20313 0.40625,-1.625 0.96875,-3.15625 l 2.95313,-8.0625 h 2.34375 l -5.26563,14.0625 q -0.84375,2.28125 -1.3125,3.14062 -0.625,1.15625 -1.4375,1.6875 -0.79687,0.54688 -1.92187,0.54688 -0.67188,0 -1.5,-0.28125 z m 13.4375,-21.71875 v -2.6875 h 2.34375 v 2.6875 z m 0,16.39062 v -13.82812 h 2.34375 v 13.82812 z m 5.90655,0 v -13.82812 h 2.10938 v 1.96875 q 1.53125,-2.28125 4.40625,-2.28125 1.25,0 2.29687,0.45312 1.04688,0.45313 1.5625,1.1875 0.53125,0.71875 0.73438,1.71875 0.125,0.65625 0.125,2.28125 v 8.5 h -2.34375 v -8.40625 q 0,-1.4375 -0.28125,-2.14062 -0.26563,-0.71875 -0.96875,-1.14063 -0.6875,-0.42187 -1.625,-0.42187 -1.48438,0 -2.57813,0.95312 -1.09375,0.95313 -1.09375,3.60938 v 7.54687 z m 14.40302,1.14063 2.28125,0.34375 q 0.14062,1.04687 0.79687,1.53125 0.85938,0.65625 2.375,0.65625 1.625,0 2.5,-0.65625 0.89063,-0.64063 1.20313,-1.8125 0.1875,-0.71875 0.17187,-3.01563 -1.53125,1.8125 -3.82812,1.8125 -2.84375,0 -4.40625,-2.04687 -1.5625,-2.0625 -1.5625,-4.9375 0,-1.98438 0.71875,-3.65625 0.71875,-1.67188 2.07812,-2.57813 1.35938,-0.92187 3.1875,-0.92187 2.45313,0 4.03125,1.98437 v -1.67187 h 2.17188 v 11.95312 q 0,3.23438 -0.65625,4.57813 -0.65625,1.34375 -2.09375,2.125 -1.42188,0.78125 -3.5,0.78125 -2.46875,0 -4,-1.10938 -1.51563,-1.10937 -1.46875,-3.35937 z m 1.9375,-8.29688 q 0,2.71875 1.07812,3.96875 1.07813,1.25 2.70313,1.25 1.625,0 2.71875,-1.23437 1.09375,-1.25 1.09375,-3.90625 0,-2.54688 -1.125,-3.82813 -1.125,-1.29687 -2.71875,-1.29687 -1.5625,0 -2.65625,1.28125 -1.09375,1.26562 -1.09375,3.76562 z m 21.02777,7.15625 v -19.07812 h 7.1875 q 1.90625,0 2.90625,0.17187 1.40625,0.23438 2.35937,0.90625 0.95313,0.65625 1.53125,1.84375 0.57813,1.17188 0.57813,2.59375 0,2.4375 -1.5625,4.125 -1.54688,1.6875 -5.59375,1.6875 h -4.89063 v 7.75 z m 2.51562,-10.01562 h 4.9375 q 2.45313,0 3.46875,-0.90625 1.03125,-0.90625 1.03125,-2.5625 0,-1.20313 -0.60937,-2.04688 -0.59375,-0.85937 -1.59375,-1.125 -0.625,-0.17187 -2.34375,-0.17187 h -4.89063 z m 23.98267,8.3125 q -1.3125,1.10937 -2.51563,1.5625 -1.20312,0.45312 -2.57812,0.45312 -2.28125,0 -3.5,-1.10937 -1.21875,-1.10938 -1.21875,-2.84375 0,-1.01563 0.45312,-1.85938 0.46875,-0.84375 1.21875,-1.34375 0.75,-0.51562 1.6875,-0.76562 0.6875,-0.1875 2.07813,-0.35938 2.82812,-0.32812 4.17187,-0.79687 0.0156,-0.48438 0.0156,-0.625 0,-1.42188 -0.65625,-2.01563 -0.90625,-0.79687 -2.67188,-0.79687 -1.65625,0 -2.45312,0.59375 -0.78125,0.57812 -1.15625,2.04687 l -2.29688,-0.3125 q 0.3125,-1.46875 1.03125,-2.375 0.71875,-0.90625 2.0625,-1.39062 1.35938,-0.5 3.14063,-0.5 1.78125,0 2.875,0.42187 1.10937,0.42188 1.625,1.04688 0.53125,0.625 0.73437,1.59375 0.125,0.59375 0.125,2.15625 v 3.125 q 0,3.26562 0.14063,4.14062 0.15625,0.85938 0.59375,1.65625 h -2.4375 q -0.375,-0.73437 -0.46875,-1.70312 z m -0.20313,-5.23438 q -1.26562,0.51563 -3.82812,0.89063 -1.4375,0.20312 -2.04688,0.46875 -0.59375,0.25 -0.92187,0.75 -0.3125,0.5 -0.3125,1.125 0,0.9375 0.70312,1.5625 0.70313,0.625 2.07813,0.625 1.34375,0 2.39062,-0.59375 1.0625,-0.59375 1.5625,-1.625 0.375,-0.79688 0.375,-2.34375 z m 5.9812,6.9375 v -13.82812 h 2.10938 v 2.09375 q 0.79687,-1.46875 1.48437,-1.9375 0.6875,-0.46875 1.5,-0.46875 1.1875,0 2.40625,0.76562 l -0.79687,2.17188 q -0.85938,-0.51563 -1.71875,-0.51563 -0.76563,0 -1.39063,0.46875 -0.60937,0.45313 -0.85937,1.28125 -0.39063,1.25 -0.39063,2.73438 v 7.23437 z m 14.01734,-2.09375 0.32812,2.0625 q -0.98437,0.21875 -1.76562,0.21875 -1.26563,0 -1.96875,-0.40625 -0.70313,-0.40625 -1,-1.0625 -0.28125,-0.65625 -0.28125,-2.76562 v -7.95313 h -1.71875 v -1.82812 h 1.71875 v -3.42188 l 2.32812,-1.40625 v 4.82813 h 2.35938 v 1.82812 h -2.35938 v 8.07813 q 0,1 0.125,1.29687 0.125,0.28125 0.40625,0.45313 0.28125,0.17187 0.79688,0.17187 0.39062,0 1.03125,-0.0937 z m 2.18719,7.42188 -0.26562,-2.20313 q 0.76562,0.20313 1.34375,0.20313 0.78125,0 1.25,-0.26563 0.46875,-0.25 0.76562,-0.71875 0.21875,-0.35937 0.71875,-1.75 0.0625,-0.1875 0.20313,-0.5625 l -5.25,-13.85937 h 2.53125 l 2.875,8.01562 q 0.5625,1.51563 1,3.20313 0.40625,-1.625 0.96875,-3.15625 l 2.95312,-8.0625 h 2.34375 l -5.26562,14.0625 q -0.84375,2.28125 -1.3125,3.14062 -0.625,1.15625 -1.4375,1.6875 -0.79688,0.54688 -1.92188,0.54688 -0.67187,0 -1.5,-0.28125 z"
       fill-rule="nonzero"
       id="path41" />
    <path
       fill="#000000"
       fill-opacity="0"
       d="M 189.52231,579.2126 498.68765,169.7638"
       fill-rule="evenodd"
       id="path43" />
    <path
       stroke="#000000"
       stroke-width="1"
       stroke-linejoin="round"
       stroke-linecap="butt"
       d="M 189.52231,579.2126 495.07215,174.55208"
       fill-rule="evenodd"
       id="path45" />
    <path
       fill="#000000"
       stroke="#000000"
       stroke-width="1"
       stroke-linecap="butt"
       d="m 496.3903,175.54741 1.41644,-4.61696 -4.05276,2.62631 z"
       fill-rule="evenodd"
       id="path47" />
    <path
       fill="#000000"
       fill-opacity="0"
       d="M 498.70078,579.2126 V 169.7638"
       fill-rule="evenodd"
       id="path49" />
    <path
       stroke="#000000"
       stroke-width="1"
       stroke-linejoin="round"
       stroke-linecap="butt"
       d="M 498.70078,579.2126 V 175.7638"
       fill-rule="evenodd"
       id="path51" />
    <path
       fill="#000000"
       stroke="#000000"
       stroke-width="1"
       stroke-linecap="butt"
       d="m 500.3525,175.76378 -1.65173,-4.5381 -1.65174,4.5381 z"
       fill-rule="evenodd"
       id="path53" />
    <path
       fill="#000000"
       fill-opacity="0"
       d="M 810.7008,579.2126 498.70077,169.7638"
       fill-rule="evenodd"
       id="path55" />
    <path
       stroke="#000000"
       stroke-width="1"
       stroke-linejoin="round"
       stroke-linecap="butt"
       d="M 810.7008,579.2126 502.33734,174.53615"
       fill-rule="evenodd"
       id="path57" />
    <path
       fill="#000000"
       stroke="#000000"
       stroke-width="1"
       stroke-linecap="butt"
       d="m 503.65112,173.53505 -4.0643,-2.60847 1.43674,4.61067 z"
       fill-rule="evenodd"
       id="path59" />
    <path
       fill="#000000"
       fill-opacity="0"
       d="M 47.984253,512.4619 H 202.03149 v 51.71655 H 47.984253 Z"
       fill-rule="evenodd"
       id="path61" />
    <path
       fill="#000000"
       d="m 58.937378,547.06195 v -19.07812 h 2.53125 v 16.82812 h 9.390625 v 2.25 z m 24.09056,-4.45312 2.421875,0.29687 q -0.578125,2.125 -2.125,3.29688 -1.546875,1.17187 -3.953125,1.17187 -3.03125,0 -4.8125,-1.85937 -1.78125,-1.875 -1.78125,-5.25 0,-3.48438 1.796875,-5.40625 1.796875,-1.9375 4.671875,-1.9375 2.765625,0 4.515625,1.89062 1.765625,1.89063 1.765625,5.3125 0,0.20313 -0.01563,0.625 h -10.3125 q 0.140625,2.28125 1.296875,3.5 1.15625,1.20313 2.890625,1.20313 1.28125,0 2.1875,-0.67188 0.921875,-0.6875 1.453125,-2.17187 z m -7.6875,-3.78125 h 7.71875 q -0.15625,-1.75 -0.890625,-2.625 -1.125,-1.34375 -2.90625,-1.34375 -1.609375,0 -2.71875,1.07812 -1.09375,1.07813 -1.203125,2.89063 z m 22.074936,6.53125 q -1.3125,1.10937 -2.515625,1.5625 -1.203125,0.45312 -2.578125,0.45312 -2.28125,0 -3.5,-1.10937 -1.21875,-1.10938 -1.21875,-2.84375 0,-1.01563 0.453125,-1.85938 0.46875,-0.84375 1.21875,-1.34375 0.75,-0.51562 1.6875,-0.76562 0.6875,-0.1875 2.078125,-0.35938 2.828125,-0.32812 4.171875,-0.79687 0.01563,-0.48438 0.01563,-0.625 0,-1.42188 -0.65625,-2.01563 -0.90625,-0.79687 -2.671875,-0.79687 -1.65625,0 -2.453125,0.59375 -0.78125,0.57812 -1.15625,2.04687 l -2.296875,-0.3125 q 0.3125,-1.46875 1.03125,-2.375 0.71875,-0.90625 2.0625,-1.39062 1.359375,-0.5 3.140625,-0.5 1.78125,0 2.875,0.42187 1.109375,0.42188 1.625,1.04688 0.53125,0.625 0.734375,1.59375 0.125,0.59375 0.125,2.15625 v 3.125 q 0,3.26562 0.140625,4.14062 0.15625,0.85938 0.593751,1.65625 h -2.437501 q -0.375,-0.73437 -0.46875,-1.70312 z m -0.203125,-5.23438 q -1.265625,0.51563 -3.828125,0.89063 -1.4375,0.20312 -2.046875,0.46875 -0.59375,0.25 -0.921875,0.75 -0.3125,0.5 -0.3125,1.125 0,0.9375 0.703125,1.5625 0.703125,0.625 2.078125,0.625 1.34375,0 2.390625,-0.59375 1.0625,-0.59375 1.5625,-1.625 0.375,-0.79688 0.375,-2.34375 z m 6.559311,6.9375 v -12 h -2.0625 v -1.82812 h 2.0625 v -1.46875 q 0,-1.39063 0.25,-2.0625 0.34375,-0.92188 1.1875,-1.48438 0.85938,-0.5625 2.39063,-0.5625 0.98437,0 2.1875,0.23438 l -0.34375,2.04687 q -0.73438,-0.14062 -1.39063,-0.14062 -1.0625,0 -1.51562,0.46875 -0.4375,0.45312 -0.4375,1.70312 v 1.26563 h 2.70312 v 1.82812 h -2.70312 v 12 z m 5.90596,-4.125 2.32813,-0.35937 q 0.1875,1.39062 1.07812,2.14062 0.89063,0.73438 2.5,0.73438 1.60938,0 2.39063,-0.65625 0.78125,-0.65625 0.78125,-1.54688 0,-0.79687 -0.6875,-1.25 -0.48438,-0.3125 -2.39063,-0.79687 -2.57812,-0.65625 -3.57812,-1.125 -1,-0.46875 -1.51563,-1.3125 -0.51562,-0.84375 -0.51562,-1.85938 0,-0.92187 0.42187,-1.70312 0.4375,-0.79688 1.15625,-1.3125 0.54688,-0.40625 1.48438,-0.6875 0.95312,-0.28125 2.03125,-0.28125 1.625,0 2.85937,0.46875 1.23438,0.46875 1.8125,1.28125 0.59375,0.79687 0.8125,2.14062 l -2.29687,0.3125 q -0.15625,-1.07812 -0.90625,-1.67187 -0.75,-0.59375 -2.10938,-0.59375 -1.60937,0 -2.3125,0.53125 -0.6875,0.53125 -0.6875,1.25 0,0.45312 0.29688,0.8125 0.28125,0.375 0.89062,0.625 0.35938,0.14062 2.07813,0.60937 2.48437,0.65625 3.46875,1.07813 0.98437,0.42187 1.53125,1.23437 0.5625,0.79688 0.5625,2 0,1.17188 -0.6875,2.21875 -0.67188,1.03125 -1.96875,1.59375 -1.28125,0.5625 -2.90625,0.5625 -2.70313,0 -4.125,-1.10937 -1.40625,-1.125 -1.79688,-3.32813 z"
       fill-rule="nonzero"
       id="path63" />
    <path
       fill="#cfe2f3"
       d="m 103.26771,248.30472 v 0 c 0,-7.23058 5.86155,-13.09212 13.09213,-13.09212 h 220.68192 c 3.47223,0 6.80228,1.37935 9.25751,3.8346 2.45526,2.45524 3.83459,5.78528 3.83459,9.25752 v 52.36694 c 0,7.23056 -5.86154,13.09214 -13.0921,13.09214 H 116.35984 c -7.23058,0 -13.09213,-5.86158 -13.09213,-13.09214 z"
       fill-rule="evenodd"
       id="path65" />
    <path
       stroke="#000000"
       stroke-width="1"
       stroke-linejoin="round"
       stroke-linecap="butt"
       d="m 103.26771,248.30472 v 0 c 0,-7.23058 5.86155,-13.09212 13.09213,-13.09212 h 220.68192 c 3.47223,0 6.80228,1.37935 9.25751,3.8346 2.45526,2.45524 3.83459,5.78528 3.83459,9.25752 v 52.36694 c 0,7.23056 -5.86154,13.09214 -13.0921,13.09214 H 116.35984 c -7.23058,0 -13.09213,-5.86158 -13.09213,-13.09214 z"
       fill-rule="evenodd"
       id="path67" />
    <path
       fill="#000000"
       fill-opacity="0"
       d="m 136.60892,246.59317 h 210.14175 v 51.71655 H 136.60892 Z"
       fill-rule="evenodd"
       id="path69" />
    <path
       fill="#000000"
       d="m 148.09329,281.19318 v -19.07813 h 2.53125 v 19.07813 z m 6.67158,0 v -13.82813 h 2.10938 v 1.96875 q 1.53125,-2.28125 4.40625,-2.28125 1.25,0 2.29687,0.45313 1.04688,0.45312 1.5625,1.1875 0.53125,0.71875 0.73438,1.71875 0.125,0.65625 0.125,2.28125 v 8.5 h -2.34375 v -8.40625 q 0,-1.4375 -0.28125,-2.14063 -0.26563,-0.71875 -0.96875,-1.14062 -0.6875,-0.42188 -1.625,-0.42188 -1.48438,0 -2.57813,0.95313 -1.09375,0.95312 -1.09375,3.60937 v 7.54688 z m 19.94994,-2.09375 0.32813,2.0625 q -0.98438,0.21875 -1.76563,0.21875 -1.26562,0 -1.96875,-0.40625 -0.70312,-0.40625 -1,-1.0625 -0.28125,-0.65625 -0.28125,-2.76563 v -7.95312 h -1.71875 v -1.82813 h 1.71875 v -3.42187 l 2.32813,-1.40625 v 4.82812 h 2.35937 v 1.82813 h -2.35937 v 8.07812 q 0,1 0.125,1.29688 0.125,0.28125 0.40625,0.45312 0.28125,0.17188 0.79687,0.17188 0.39063,0 1.03125,-0.0937 z m 11.74971,-2.35938 2.42188,0.29688 q -0.57813,2.125 -2.125,3.29687 -1.54688,1.17188 -3.95313,1.17188 -3.03125,0 -4.8125,-1.85938 -1.78125,-1.875 -1.78125,-5.25 0,-3.48437 1.79688,-5.40625 1.79687,-1.9375 4.67187,-1.9375 2.76563,0 4.51563,1.89063 1.76562,1.89062 1.76562,5.3125 0,0.20312 -0.0156,0.625 h -10.3125 q 0.14062,2.28125 1.29687,3.5 1.15625,1.20312 2.89063,1.20312 1.28125,0 2.1875,-0.67187 0.92187,-0.6875 1.45312,-2.17188 z m -7.6875,-3.78125 h 7.71875 q -0.15625,-1.75 -0.89062,-2.625 -1.125,-1.34375 -2.90625,-1.34375 -1.60938,0 -2.71875,1.07813 -1.09375,1.07812 -1.20313,2.89062 z m 13.02806,8.23438 v -13.82813 h 2.10938 v 2.09375 q 0.79687,-1.46875 1.48437,-1.9375 0.6875,-0.46875 1.5,-0.46875 1.1875,0 2.40625,0.76563 l -0.79687,2.17187 q -0.85938,-0.51562 -1.71875,-0.51562 -0.76563,0 -1.39063,0.46875 -0.60937,0.45312 -0.85937,1.28125 -0.39063,1.25 -0.39063,2.73437 v 7.23438 z m 8.89237,0 v -13.82813 h 2.10937 v 1.9375 q 0.64063,-1.01562 1.71875,-1.625 1.09375,-0.625 2.46875,-0.625 1.53125,0 2.51563,0.64063 0.98437,0.64062 1.39062,1.78125 1.64063,-2.42188 4.26563,-2.42188 2.0625,0 3.15625,1.14063 1.10937,1.14062 1.10937,3.51562 v 9.48438 h -2.32812 v -8.70313 q 0,-1.40625 -0.23438,-2.01562 -0.21875,-0.625 -0.82812,-1 -0.59375,-0.39063 -1.39063,-0.39063 -1.46875,0 -2.4375,0.96875 -0.95312,0.96875 -0.95312,3.10938 v 8.03125 h -2.34375 v -8.98438 q 0,-1.5625 -0.57813,-2.34375 -0.5625,-0.78125 -1.875,-0.78125 -0.98437,0 -1.82812,0.53125 -0.82813,0.51563 -1.21875,1.51563 -0.375,1 -0.375,2.89062 v 7.17188 z m 31.67361,-4.45313 2.42188,0.29688 q -0.57813,2.125 -2.125,3.29687 -1.54688,1.17188 -3.95313,1.17188 -3.03125,0 -4.8125,-1.85938 -1.78125,-1.875 -1.78125,-5.25 0,-3.48437 1.79688,-5.40625 1.79687,-1.9375 4.67187,-1.9375 2.76563,0 4.51563,1.89063 1.76562,1.89062 1.76562,5.3125 0,0.20312 -0.0156,0.625 h -10.3125 q 0.14062,2.28125 1.29687,3.5 1.15625,1.20312 2.89063,1.20312 1.28125,0 2.1875,-0.67187 0.92187,-0.6875 1.45312,-2.17188 z m -7.6875,-3.78125 h 7.71875 q -0.15625,-1.75 -0.89062,-2.625 -1.125,-1.34375 -2.90625,-1.34375 -1.60938,0 -2.71875,1.07813 -1.09375,1.07812 -1.20313,2.89062 z m 22.01244,8.23438 v -1.75 q -1.3125,2.0625 -3.85938,2.0625 -1.65625,0 -3.04687,-0.90625 -1.375,-0.92188 -2.14063,-2.54688 -0.76562,-1.64062 -0.76562,-3.75 0,-2.07812 0.6875,-3.76562 0.70312,-1.6875 2.07812,-2.57813 1.375,-0.90625 3.07813,-0.90625 1.25,0 2.21875,0.53125 0.98437,0.53125 1.59375,1.375 v -6.84375 h 2.34375 v 19.07813 z m -7.40625,-6.89063 q 0,2.64063 1.125,3.96875 1.125,1.3125 2.64062,1.3125 1.53125,0 2.60938,-1.25 1.07812,-1.26562 1.07812,-3.84375 0,-2.84375 -1.09375,-4.17187 -1.09375,-1.32813 -2.70312,-1.32813 -1.54688,0 -2.60938,1.28125 -1.04687,1.28125 -1.04687,4.03125 z m 13.27806,-9.5 v -2.6875 h 2.34375 v 2.6875 z m 0,16.39063 v -13.82813 h 2.34375 v 13.82813 z m 14.9378,-1.70313 q -1.3125,1.10938 -2.51562,1.5625 -1.20313,0.45313 -2.57813,0.45313 -2.28125,0 -3.5,-1.10938 -1.21875,-1.10937 -1.21875,-2.84375 0,-1.01562 0.45313,-1.85937 0.46875,-0.84375 1.21875,-1.34375 0.75,-0.51563 1.6875,-0.76563 0.6875,-0.1875 2.07812,-0.35937 2.82813,-0.32813 4.17188,-0.79688 0.0156,-0.48437 0.0156,-0.625 0,-1.42187 -0.65625,-2.01562 -0.90625,-0.79688 -2.67187,-0.79688 -1.65625,0 -2.45313,0.59375 -0.78125,0.57813 -1.15625,2.04688 l -2.29687,-0.3125 q 0.3125,-1.46875 1.03125,-2.375 0.71875,-0.90625 2.0625,-1.39063 1.35937,-0.5 3.14062,-0.5 1.78125,0 2.875,0.42188 1.10938,0.42187 1.625,1.04687 0.53125,0.625 0.73438,1.59375 0.125,0.59375 0.125,2.15625 v 3.125 q 0,3.26563 0.14062,4.14063 0.15625,0.85937 0.59375,1.65625 h -2.4375 q -0.375,-0.73438 -0.46875,-1.70313 z m -0.20312,-5.23437 q -1.26563,0.51562 -3.82813,0.89062 -1.4375,0.20313 -2.04687,0.46875 -0.59375,0.25 -0.92188,0.75 -0.3125,0.5 -0.3125,1.125 0,0.9375 0.70313,1.5625 0.70312,0.625 2.07812,0.625 1.34375,0 2.39063,-0.59375 1.0625,-0.59375 1.5625,-1.625 0.375,-0.79687 0.375,-2.34375 z m 11.12179,4.84375 0.32813,2.0625 q -0.98438,0.21875 -1.76563,0.21875 -1.26562,0 -1.96875,-0.40625 -0.70312,-0.40625 -1,-1.0625 -0.28125,-0.65625 -0.28125,-2.76563 v -7.95312 h -1.71875 v -1.82813 h 1.71875 v -3.42187 l 2.32813,-1.40625 v 4.82812 h 2.35937 v 1.82813 h -2.35937 v 8.07812 q 0,1 0.125,1.29688 0.125,0.28125 0.40625,0.45312 0.28125,0.17188 0.79687,0.17188 0.39063,0 1.03125,-0.0937 z m 11.74973,-2.35938 2.42187,0.29688 q -0.57812,2.125 -2.125,3.29687 -1.54687,1.17188 -3.95312,1.17188 -3.03125,0 -4.8125,-1.85938 -1.78125,-1.875 -1.78125,-5.25 0,-3.48437 1.79687,-5.40625 1.79688,-1.9375 4.67188,-1.9375 2.76562,0 4.51562,1.89063 1.76563,1.89062 1.76563,5.3125 0,0.20312 -0.0156,0.625 h -10.3125 q 0.14063,2.28125 1.29688,3.5 1.15625,1.20312 2.89062,1.20312 1.28125,0 2.1875,-0.67187 0.92188,-0.6875 1.45313,-2.17188 z m -7.6875,-3.78125 h 7.71875 q -0.15625,-1.75 -0.89063,-2.625 -1.125,-1.34375 -2.90625,-1.34375 -1.60937,0 -2.71875,1.07813 -1.09375,1.07812 -1.20312,2.89062 z"
       fill-rule="nonzero"
       id="path71" />
    <path
       fill="#cfe2f3"
       d="m 647.2677,248.30472 v 0 c 0,-7.23058 5.86157,-13.09212 13.09216,-13.09212 h 220.68188 c 3.47223,0 6.80225,1.37935 9.25751,3.8346 2.45526,2.45524 3.83459,5.78528 3.83459,9.25752 v 52.36694 c 0,7.23056 -5.86151,13.09214 -13.0921,13.09214 H 660.35986 c -7.23059,0 -13.09216,-5.86158 -13.09216,-13.09214 z"
       fill-rule="evenodd"
       id="path73" />
    <path
       stroke="#000000"
       stroke-width="1"
       stroke-linejoin="round"
       stroke-linecap="butt"
       d="m 647.2677,248.30472 v 0 c 0,-7.23058 5.86157,-13.09212 13.09216,-13.09212 h 220.68188 c 3.47223,0 6.80225,1.37935 9.25751,3.8346 2.45526,2.45524 3.83459,5.78528 3.83459,9.25752 v 52.36694 c 0,7.23056 -5.86151,13.09214 -13.0921,13.09214 H 660.35986 c -7.23059,0 -13.09216,-5.86158 -13.09216,-13.09214 z"
       fill-rule="evenodd"
       id="path75" />
    <path
       fill="#000000"
       fill-opacity="0"
       d="m 680.60895,246.59317 h 210.14172 v 51.71655 H 680.60895 Z"
       fill-rule="evenodd"
       id="path77" />
    <path
       fill="#000000"
       d="m 692.0933,281.19318 v -19.07813 h 2.53125 v 19.07813 z m 6.67157,0 v -13.82813 h 2.10937 v 1.96875 q 1.53125,-2.28125 4.40625,-2.28125 1.25,0 2.29688,0.45313 1.04687,0.45312 1.5625,1.1875 0.53125,0.71875 0.73437,1.71875 0.125,0.65625 0.125,2.28125 v 8.5 h -2.34375 v -8.40625 q 0,-1.4375 -0.28125,-2.14063 -0.26562,-0.71875 -0.96875,-1.14062 -0.6875,-0.42188 -1.625,-0.42188 -1.48437,0 -2.57812,0.95313 -1.09375,0.95312 -1.09375,3.60937 v 7.54688 z m 19.94995,-2.09375 0.32813,2.0625 q -0.98438,0.21875 -1.76563,0.21875 -1.26562,0 -1.96875,-0.40625 -0.70312,-0.40625 -1,-1.0625 -0.28125,-0.65625 -0.28125,-2.76563 v -7.95312 h -1.71875 v -1.82813 h 1.71875 v -3.42187 l 2.32813,-1.40625 v 4.82812 h 2.35937 v 1.82813 h -2.35937 v 8.07812 q 0,1 0.125,1.29688 0.125,0.28125 0.40625,0.45312 0.28125,0.17188 0.79687,0.17188 0.39063,0 1.03125,-0.0937 z m 11.7497,-2.35938 2.42187,0.29688 q -0.57812,2.125 -2.125,3.29687 -1.54687,1.17188 -3.95312,1.17188 -3.03125,0 -4.8125,-1.85938 -1.78125,-1.875 -1.78125,-5.25 0,-3.48437 1.79687,-5.40625 1.79688,-1.9375 4.67188,-1.9375 2.76562,0 4.51562,1.89063 1.76563,1.89062 1.76563,5.3125 0,0.20312 -0.0156,0.625 h -10.3125 q 0.14063,2.28125 1.29688,3.5 1.15625,1.20312 2.89062,1.20312 1.28125,0 2.1875,-0.67187 0.92188,-0.6875 1.45313,-2.17188 z m -7.6875,-3.78125 h 7.71875 q -0.15625,-1.75 -0.89063,-2.625 -1.125,-1.34375 -2.90625,-1.34375 -1.60937,0 -2.71875,1.07813 -1.09375,1.07812 -1.20312,2.89062 z m 13.02807,8.23438 v -13.82813 h 2.10938 v 2.09375 q 0.79687,-1.46875 1.48437,-1.9375 0.6875,-0.46875 1.5,-0.46875 1.1875,0 2.40625,0.76563 l -0.79687,2.17187 q -0.85938,-0.51562 -1.71875,-0.51562 -0.76563,0 -1.39063,0.46875 -0.60937,0.45312 -0.85937,1.28125 -0.39063,1.25 -0.39063,2.73437 v 7.23438 z m 8.89234,0 v -13.82813 h 2.10937 v 1.9375 q 0.64063,-1.01562 1.71875,-1.625 1.09375,-0.625 2.46875,-0.625 1.53125,0 2.51563,0.64063 0.98437,0.64062 1.39062,1.78125 1.64063,-2.42188 4.26563,-2.42188 2.0625,0 3.15625,1.14063 1.10937,1.14062 1.10937,3.51562 v 9.48438 h -2.32812 v -8.70313 q 0,-1.40625 -0.23438,-2.01562 -0.21875,-0.625 -0.82812,-1 -0.59375,-0.39063 -1.39063,-0.39063 -1.46875,0 -2.4375,0.96875 -0.95312,0.96875 -0.95312,3.10938 v 8.03125 h -2.34375 v -8.98438 q 0,-1.5625 -0.57813,-2.34375 -0.5625,-0.78125 -1.875,-0.78125 -0.98437,0 -1.82812,0.53125 -0.82813,0.51563 -1.21875,1.51563 -0.375,1 -0.375,2.89062 v 7.17188 z m 31.67364,-4.45313 2.42188,0.29688 q -0.57813,2.125 -2.125,3.29687 -1.54688,1.17188 -3.95313,1.17188 -3.03125,0 -4.8125,-1.85938 -1.78125,-1.875 -1.78125,-5.25 0,-3.48437 1.79688,-5.40625 1.79687,-1.9375 4.67187,-1.9375 2.76563,0 4.51563,1.89063 1.76562,1.89062 1.76562,5.3125 0,0.20312 -0.0156,0.625 h -10.3125 q 0.14062,2.28125 1.29687,3.5 1.15625,1.20312 2.89063,1.20312 1.28125,0 2.1875,-0.67187 0.92187,-0.6875 1.45312,-2.17188 z m -7.6875,-3.78125 h 7.71875 q -0.15625,-1.75 -0.89062,-2.625 -1.125,-1.34375 -2.90625,-1.34375 -1.60938,0 -2.71875,1.07813 -1.09375,1.07812 -1.20313,2.89062 z m 22.01239,8.23438 v -1.75 q -1.3125,2.0625 -3.85937,2.0625 -1.65625,0 -3.04688,-0.90625 -1.375,-0.92188 -2.14062,-2.54688 -0.76563,-1.64062 -0.76563,-3.75 0,-2.07812 0.6875,-3.76562 0.70313,-1.6875 2.07813,-2.57813 1.375,-0.90625 3.07812,-0.90625 1.25,0 2.21875,0.53125 0.98438,0.53125 1.59375,1.375 v -6.84375 h 2.34375 v 19.07813 z m -7.40625,-6.89063 q 0,2.64063 1.125,3.96875 1.125,1.3125 2.64063,1.3125 1.53125,0 2.60937,-1.25 1.07813,-1.26562 1.07813,-3.84375 0,-2.84375 -1.09375,-4.17187 -1.09375,-1.32813 -2.70313,-1.32813 -1.54687,0 -2.60937,1.28125 -1.04688,1.28125 -1.04688,4.03125 z m 13.27808,-9.5 v -2.6875 h 2.34375 v 2.6875 z m 0,16.39063 v -13.82813 h 2.34375 v 13.82813 z m 14.9378,-1.70313 q -1.3125,1.10938 -2.51562,1.5625 -1.20313,0.45313 -2.57813,0.45313 -2.28125,0 -3.5,-1.10938 -1.21875,-1.10937 -1.21875,-2.84375 0,-1.01562 0.45313,-1.85937 0.46875,-0.84375 1.21875,-1.34375 0.75,-0.51563 1.6875,-0.76563 0.6875,-0.1875 2.07812,-0.35937 2.82813,-0.32813 4.17188,-0.79688 0.0156,-0.48437 0.0156,-0.625 0,-1.42187 -0.65625,-2.01562 -0.90625,-0.79688 -2.67187,-0.79688 -1.65625,0 -2.45313,0.59375 -0.78125,0.57813 -1.15625,2.04688 l -2.29687,-0.3125 q 0.3125,-1.46875 1.03125,-2.375 0.71875,-0.90625 2.0625,-1.39063 1.35937,-0.5 3.14062,-0.5 1.78125,0 2.875,0.42188 1.10938,0.42187 1.625,1.04687 0.53125,0.625 0.73438,1.59375 0.125,0.59375 0.125,2.15625 v 3.125 q 0,3.26563 0.14062,4.14063 0.15625,0.85937 0.59375,1.65625 h -2.4375 q -0.375,-0.73438 -0.46875,-1.70313 z m -0.20312,-5.23437 q -1.26563,0.51562 -3.82813,0.89062 -1.4375,0.20313 -2.04687,0.46875 -0.59375,0.25 -0.92188,0.75 -0.3125,0.5 -0.3125,1.125 0,0.9375 0.70313,1.5625 0.70312,0.625 2.07812,0.625 1.34375,0 2.39063,-0.59375 1.0625,-0.59375 1.5625,-1.625 0.375,-0.79687 0.375,-2.34375 z m 11.12182,4.84375 0.32813,2.0625 q -0.98438,0.21875 -1.76563,0.21875 -1.26562,0 -1.96875,-0.40625 -0.70312,-0.40625 -1,-1.0625 -0.28125,-0.65625 -0.28125,-2.76563 v -7.95312 h -1.71875 v -1.82813 h 1.71875 v -3.42187 l 2.32813,-1.40625 v 4.82812 h 2.35937 v 1.82813 h -2.35937 v 8.07812 q 0,1 0.125,1.29688 0.125,0.28125 0.40625,0.45312 0.28125,0.17188 0.79687,0.17188 0.39063,0 1.03125,-0.0937 z m 11.7497,-2.35938 2.42187,0.29688 q -0.57812,2.125 -2.125,3.29687 -1.54687,1.17188 -3.95312,1.17188 -3.03125,0 -4.8125,-1.85938 -1.78125,-1.875 -1.78125,-5.25 0,-3.48437 1.79687,-5.40625 1.79688,-1.9375 4.67188,-1.9375 2.76562,0 4.51562,1.89063 1.76563,1.89062 1.76563,5.3125 0,0.20312 -0.0156,0.625 h -10.3125 q 0.14063,2.28125 1.29688,3.5 1.15625,1.20312 2.89062,1.20312 1.28125,0 2.1875,-0.67187 0.92188,-0.6875 1.45313,-2.17188 z m -7.6875,-3.78125 h 7.71875 q -0.15625,-1.75 -0.89063,-2.625 -1.125,-1.34375 -2.90625,-1.34375 -1.60937,0 -2.71875,1.07813 -1.09375,1.07812 -1.20312,2.89062 z"
       fill-rule="nonzero"
       id="path79" />
    <path
       fill="#000000"
       fill-opacity="0"
       d="m 226.70079,235.2126 272,-65.44882"
       fill-rule="evenodd"
       id="path81" />
    <path
       stroke="#000000"
       stroke-width="1"
       stroke-linejoin="round"
       stroke-linecap="butt"
       d="m 226.70079,235.2126 266.1665,-64.04517"
       fill-rule="evenodd"
       id="path83" />
    <path
       fill="#000000"
       stroke="#000000"
       stroke-width="1"
       stroke-linecap="butt"
       d="m 493.2537,172.77333 4.02576,-2.66754 -4.79859,-0.54425 z"
       fill-rule="evenodd"
       id="path85" />
    <path
       fill="#000000"
       fill-opacity="0"
       d="M 770.7008,235.2126 498.70077,169.76378"
       fill-rule="evenodd"
       id="path87" />
    <path
       stroke="#000000"
       stroke-width="1"
       stroke-linejoin="round"
       stroke-linecap="butt"
       d="M 770.7008,235.2126 504.53427,171.16743"
       fill-rule="evenodd"
       id="path89" />
    <path
       fill="#000000"
       stroke="#000000"
       stroke-width="1"
       stroke-linecap="butt"
       d="m 504.92072,169.56154 -4.79858,0.54425 4.02575,2.66754 z"
       fill-rule="evenodd"
       id="path91" />
    <path
       fill="#d9ead3"
       d="m 781.4147,378.3624 v 0 c 0,-5.63312 4.56659,-10.19968 10.19971,-10.19968 h 126.34082 c 2.70508,0 5.29944,1.07462 7.21222,2.98743 1.91284,1.91281 2.98742,4.50714 2.98742,7.21225 v 40.79752 c 0,5.63311 -4.56653,10.19967 -10.19964,10.19967 H 791.61441 c -5.63312,0 -10.19971,-4.56656 -10.19971,-10.19967 z"
       fill-rule="evenodd"
       id="path93" />
    <path
       stroke="#000000"
       stroke-width="1"
       stroke-linejoin="round"
       stroke-linecap="butt"
       d="m 781.4147,378.3624 v 0 c 0,-5.63312 4.56659,-10.19968 10.19971,-10.19968 h 126.34082 c 2.70508,0 5.29944,1.07462 7.21222,2.98743 1.91284,1.91281 2.98742,4.50714 2.98742,7.21225 v 40.79752 c 0,5.63311 -4.56653,10.19967 -10.19964,10.19967 H 791.61441 c -5.63312,0 -10.19971,-4.56656 -10.19971,-10.19967 z"
       fill-rule="evenodd"
       id="path95" />
    <path
       fill="#000000"
       fill-opacity="0"
       d="m 808.47504,372.7349 h 154.0473 v 51.71655 h -154.0473 z"
       fill-rule="evenodd"
       id="path97" />
    <path
       fill="#000000"
       d="m 819.42816,407.3349 v -19.07813 h 2.53125 v 16.82813 h 9.39063 v 2.25 z m 24.09058,-4.45313 2.42187,0.29688 q -0.57812,2.125 -2.125,3.29687 -1.54687,1.17188 -3.95312,1.17188 -3.03125,0 -4.8125,-1.85938 -1.78125,-1.875 -1.78125,-5.25 0,-3.48437 1.79687,-5.40625 1.79688,-1.9375 4.67188,-1.9375 2.76562,0 4.51562,1.89063 1.76563,1.89062 1.76563,5.3125 0,0.20312 -0.0156,0.625 h -10.3125 q 0.14063,2.28125 1.29688,3.5 1.15625,1.20312 2.89062,1.20312 1.28125,0 2.1875,-0.67187 0.92188,-0.6875 1.45313,-2.17188 z m -7.6875,-3.78125 h 7.71875 q -0.15625,-1.75 -0.89063,-2.625 -1.125,-1.34375 -2.90625,-1.34375 -1.60937,0 -2.71875,1.07813 -1.09375,1.07812 -1.20312,2.89062 z m 22.07495,6.53125 q -1.3125,1.10938 -2.51563,1.5625 -1.20312,0.45313 -2.57812,0.45313 -2.28125,0 -3.5,-1.10938 -1.21875,-1.10937 -1.21875,-2.84375 0,-1.01562 0.45312,-1.85937 0.46875,-0.84375 1.21875,-1.34375 0.75,-0.51563 1.6875,-0.76563 0.6875,-0.1875 2.07813,-0.35937 2.82812,-0.32813 4.17187,-0.79688 0.0156,-0.48437 0.0156,-0.625 0,-1.42187 -0.65625,-2.01562 -0.90625,-0.79688 -2.67188,-0.79688 -1.65625,0 -2.45312,0.59375 -0.78125,0.57813 -1.15625,2.04688 l -2.29688,-0.3125 q 0.3125,-1.46875 1.03125,-2.375 0.71875,-0.90625 2.0625,-1.39063 1.35938,-0.5 3.14063,-0.5 1.78125,0 2.875,0.42188 1.10937,0.42187 1.625,1.04687 0.53125,0.625 0.73437,1.59375 0.125,0.59375 0.125,2.15625 v 3.125 q 0,3.26563 0.14063,4.14063 0.15625,0.85937 0.59375,1.65625 h -2.4375 q -0.375,-0.73438 -0.46875,-1.70313 z m -0.20313,-5.23437 q -1.26562,0.51562 -3.82812,0.89062 -1.4375,0.20313 -2.04688,0.46875 -0.59375,0.25 -0.92187,0.75 -0.3125,0.5 -0.3125,1.125 0,0.9375 0.70312,1.5625 0.70313,0.625 2.07813,0.625 1.34375,0 2.39062,-0.59375 1.0625,-0.59375 1.5625,-1.625 0.375,-0.79687 0.375,-2.34375 z m 6.55933,6.9375 v -12 h -2.0625 v -1.82813 h 2.0625 v -1.46875 q 0,-1.39062 0.25,-2.0625 0.34375,-0.92187 1.1875,-1.48437 0.85937,-0.5625 2.39062,-0.5625 0.98438,0 2.1875,0.23437 l -0.34375,2.04688 q -0.73437,-0.14063 -1.39062,-0.14063 -1.0625,0 -1.51563,0.46875 -0.4375,0.45313 -0.4375,1.70313 v 1.26562 h 2.70313 v 1.82813 h -2.70313 v 12 z m 5.90594,-4.125 2.32813,-0.35938 q 0.1875,1.39063 1.07812,2.14063 0.89063,0.73437 2.5,0.73437 1.60938,0 2.39063,-0.65625 0.78125,-0.65625 0.78125,-1.54687 0,-0.79688 -0.6875,-1.25 -0.48438,-0.3125 -2.39063,-0.79688 -2.57812,-0.65625 -3.57812,-1.125 -1,-0.46875 -1.51563,-1.3125 -0.51562,-0.84375 -0.51562,-1.85937 0,-0.92188 0.42187,-1.70313 0.4375,-0.79687 1.15625,-1.3125 0.54688,-0.40625 1.48438,-0.6875 0.95312,-0.28125 2.03125,-0.28125 1.625,0 2.85937,0.46875 1.23438,0.46875 1.8125,1.28125 0.59375,0.79688 0.8125,2.14063 l -2.29687,0.3125 q -0.15625,-1.07813 -0.90625,-1.67188 -0.75,-0.59375 -2.10938,-0.59375 -1.60937,0 -2.3125,0.53125 -0.6875,0.53125 -0.6875,1.25 0,0.45313 0.29688,0.8125 0.28125,0.375 0.89062,0.625 0.35938,0.14063 2.07813,0.60938 2.48437,0.65625 3.46875,1.07812 0.98437,0.42188 1.53125,1.23438 0.5625,0.79687 0.5625,2 0,1.17187 -0.6875,2.21875 -0.67188,1.03125 -1.96875,1.59375 -1.28125,0.5625 -2.90625,0.5625 -2.70313,0 -4.125,-1.10938 -1.40625,-1.125 -1.79688,-3.32812 z"
       fill-rule="nonzero"
       id="path99" />
    <path
       fill="#d9ead3"
       d="m 55.267715,386.08945 v 0 c 0,-5.63312 4.566551,-10.19968 10.199677,-10.19968 H 191.8082 c 2.70512,0 5.29945,1.07459 7.21226,2.9874 1.91281,1.91281 2.98741,4.50714 2.98741,7.21228 v 40.79748 c 0,5.63312 -4.56656,10.19968 -10.19967,10.19968 H 65.467392 c -5.633126,0 -10.199677,-4.56656 -10.199677,-10.19968 z"
       fill-rule="evenodd"
       id="path101" />
    <path
       stroke="#000000"
       stroke-width="1"
       stroke-linejoin="round"
       stroke-linecap="butt"
       d="m 55.267715,386.08945 v 0 c 0,-5.63312 4.566551,-10.19968 10.199677,-10.19968 H 191.8082 c 2.70512,0 5.29945,1.07459 7.21226,2.9874 1.91281,1.91281 2.98741,4.50714 2.98741,7.21228 v 40.79748 c 0,5.63312 -4.56656,10.19968 -10.19967,10.19968 H 65.467392 c -5.633126,0 -10.199677,-4.56656 -10.199677,-10.19968 z"
       fill-rule="evenodd"
       id="path103" />
    <path
       fill="#000000"
       fill-opacity="0"
       d="m 82.32809,380.46194 h 154.04724 v 51.71652 H 82.32809 Z"
       fill-rule="evenodd"
       id="path105" />
    <path
       fill="#000000"
       d="m 93.28121,415.06195 v -19.07812 h 2.53125 v 16.82812 h 9.39063 v 2.25 z m 24.09056,-4.45312 2.42187,0.29687 q -0.57812,2.125 -2.125,3.29688 -1.54687,1.17187 -3.95312,1.17187 -3.03125,0 -4.8125,-1.85937 -1.78125,-1.875 -1.78125,-5.25 0,-3.48438 1.79687,-5.40625 1.79688,-1.9375 4.67188,-1.9375 2.76562,0 4.51562,1.89062 1.76563,1.89063 1.76563,5.3125 0,0.20313 -0.0156,0.625 h -10.3125 q 0.14063,2.28125 1.29688,3.5 1.15625,1.20313 2.89062,1.20313 1.28125,0 2.1875,-0.67188 0.92188,-0.6875 1.45313,-2.17187 z m -7.6875,-3.78125 h 7.71875 q -0.15625,-1.75 -0.89063,-2.625 -1.125,-1.34375 -2.90625,-1.34375 -1.60937,0 -2.71875,1.07812 -1.09375,1.07813 -1.20312,2.89063 z m 22.07493,6.53125 q -1.3125,1.10937 -2.51563,1.5625 -1.20312,0.45312 -2.57811,0.45312 -2.28125,0 -3.5,-1.10937 -1.21875,-1.10938 -1.21875,-2.84375 0,-1.01563 0.45312,-1.85938 0.46875,-0.84375 1.21875,-1.34375 0.75,-0.51562 1.6875,-0.76562 0.6875,-0.1875 2.07813,-0.35938 2.82811,-0.32812 4.17186,-0.79687 0.0156,-0.48438 0.0156,-0.625 0,-1.42188 -0.65625,-2.01563 -0.90625,-0.79687 -2.67188,-0.79687 -1.65624,0 -2.45311,0.59375 -0.78125,0.57812 -1.15625,2.04687 l -2.29688,-0.3125 q 0.3125,-1.46875 1.03125,-2.375 0.71875,-0.90625 2.0625,-1.39062 1.35938,-0.5 3.14062,-0.5 1.78125,0 2.875,0.42187 1.10937,0.42188 1.625,1.04688 0.53125,0.625 0.73437,1.59375 0.125,0.59375 0.125,2.15625 v 3.125 q 0,3.26562 0.14063,4.14062 0.15625,0.85938 0.59375,1.65625 h -2.4375 q -0.375,-0.73437 -0.46875,-1.70312 z m -0.20313,-5.23438 q -1.26562,0.51563 -3.82811,0.89063 -1.4375,0.20312 -2.04688,0.46875 -0.59375,0.25 -0.92187,0.75 -0.3125,0.5 -0.3125,1.125 0,0.9375 0.70312,1.5625 0.70313,0.625 2.07813,0.625 1.34374,0 2.39061,-0.59375 1.0625,-0.59375 1.5625,-1.625 0.375,-0.79688 0.375,-2.34375 z m 6.55931,6.9375 v -12 h -2.0625 v -1.82812 h 2.0625 v -1.46875 q 0,-1.39063 0.25,-2.0625 0.34375,-0.92188 1.1875,-1.48438 0.85938,-0.5625 2.39063,-0.5625 0.98437,0 2.1875,0.23438 l -0.34375,2.04687 q -0.73438,-0.14062 -1.39063,-0.14062 -1.0625,0 -1.51562,0.46875 -0.4375,0.45312 -0.4375,1.70312 v 1.26563 h 2.70312 v 1.82812 h -2.70312 v 12 z m 5.90596,-4.125 2.32813,-0.35937 q 0.1875,1.39062 1.07812,2.14062 0.89063,0.73438 2.5,0.73438 1.60938,0 2.39063,-0.65625 0.78125,-0.65625 0.78125,-1.54688 0,-0.79687 -0.6875,-1.25 -0.48438,-0.3125 -2.39063,-0.79687 -2.57812,-0.65625 -3.57812,-1.125 -1,-0.46875 -1.51563,-1.3125 -0.51562,-0.84375 -0.51562,-1.85938 0,-0.92187 0.42187,-1.70312 0.4375,-0.79688 1.15625,-1.3125 0.54688,-0.40625 1.48438,-0.6875 0.95312,-0.28125 2.03125,-0.28125 1.625,0 2.85937,0.46875 1.23438,0.46875 1.8125,1.28125 0.59375,0.79687 0.8125,2.14062 l -2.29687,0.3125 q -0.15625,-1.07812 -0.90625,-1.67187 -0.75,-0.59375 -2.10938,-0.59375 -1.60937,0 -2.3125,0.53125 -0.6875,0.53125 -0.6875,1.25 0,0.45312 0.29688,0.8125 0.28125,0.375 0.89062,0.625 0.35938,0.14062 2.07813,0.60937 2.48437,0.65625 3.46875,1.07813 0.98437,0.42187 1.53125,1.23437 0.5625,0.79688 0.5625,2 0,1.17188 -0.6875,2.21875 -0.67188,1.03125 -1.96875,1.59375 -1.28125,0.5625 -2.90625,0.5625 -2.70313,0 -4.125,-1.10937 -1.40625,-1.125 -1.79688,-3.32813 z"
       fill-rule="nonzero"
       id="path107" />
    <path
       fill="#000000"
       fill-opacity="0"
       d="m 128.6378,375.88977 98.07873,-62.11023"
       fill-rule="evenodd"
       id="path109" />
    <path
       stroke="#000000"
       stroke-width="1"
       stroke-linejoin="round"
       stroke-linecap="butt"
       d="m 128.6378,375.88977 93.00967,-58.90018"
       fill-rule="evenodd"
       id="path111" />
    <path
       fill="#000000"
       stroke="#000000"
       stroke-width="1"
       stroke-linecap="butt"
       d="m 222.53117,318.38507 2.95029,-3.82339 -4.71769,1.03247 z"
       fill-rule="evenodd"
       id="path113" />
    <path
       fill="#000000"
       fill-opacity="0"
       d="M 854.7848,368.16272 770.69032,313.76904"
       fill-rule="evenodd"
       id="path115" />
    <path
       stroke="#000000"
       stroke-width="1"
       stroke-linejoin="round"
       stroke-linecap="butt"
       d="M 854.7848,368.16272 775.72828,317.02768"
       fill-rule="evenodd"
       id="path117" />
    <path
       fill="#000000"
       stroke="#000000"
       stroke-width="1"
       stroke-linecap="butt"
       d="m 776.6253,315.64078 -4.70752,-1.07779 2.91339,3.85159 z"
       fill-rule="evenodd"
       id="path119" />
  </g>
</svg>
