<?xml version="1.0" encoding="us-ascii" standalone="no"?><svg xmlns="http://www.w3.org/2000/svg" xmlns:xlink="http://www.w3.org/1999/xlink" contentStyleType="text/css" height="363px" preserveAspectRatio="none" style="width:947px;height:363px;background:#FFFFFF;" version="1.1" viewBox="0 0 947 363" width="947px" zoomAndPan="magnify"><defs/><g><!--entity user--><g id="elem_user"><ellipse cx="445" cy="14" fill="#F1F1F1" rx="8" ry="8" style="stroke:#181818;stroke-width:0.5;"/><path d="M445,22 L445,49 M432,30 L458,30 M445,49 L432,64 M445,49 L458,64 " fill="none" style="stroke:#181818;stroke-width:0.5;"/><text fill="#000000" font-family="sans-serif" font-size="14" lengthAdjust="spacing" textLength="31" x="429.5" y="78.4951">User</text></g><!--entity wallet_provider--><g id="elem_wallet_provider"><ellipse cx="885" cy="167" fill="#F1F1F1" rx="8" ry="8" style="stroke:#181818;stroke-width:0.5;"/><path d="M885,175 L885,202 M872,183 L898,183 M885,202 L872,217 M885,202 L898,217 " fill="none" style="stroke:#181818;stroke-width:0.5;"/><text fill="#000000" font-family="sans-serif" font-size="14" lengthAdjust="spacing" textLength="110" x="830" y="231.4951">Wallet Provider</text></g><!--entity oem--><g id="elem_oem"><ellipse cx="688" cy="14" fill="#F1F1F1" rx="8" ry="8" style="stroke:#181818;stroke-width:0.5;"/><path d="M688,22 L688,49 M675,30 L701,30 M688,49 L675,64 M688,49 L701,64 " fill="none" style="stroke:#181818;stroke-width:0.5;"/><text fill="#000000" font-family="sans-serif" font-size="14" lengthAdjust="spacing" textLength="85" x="645.5" y="78.4951">Device OEM</text></g><!--entity wallet_solution--><g id="elem_wallet_solution"><rect fill="#EE82EE" height="46.2969" rx="2.5" ry="2.5" style="stroke:#181818;stroke-width:0.5;" width="149" x="370.5" y="311.5"/><rect fill="#EE82EE" height="10" style="stroke:#181818;stroke-width:0.5;" width="15" x="499.5" y="316.5"/><rect fill="#EE82EE" height="2" style="stroke:#181818;stroke-width:0.5;" width="4" x="497.5" y="318.5"/><rect fill="#EE82EE" height="2" style="stroke:#181818;stroke-width:0.5;" width="4" x="497.5" y="322.5"/><text fill="#000000" font-family="sans-serif" font-size="14" lengthAdjust="spacing" textLength="109" x="385.5" y="344.4951">Wallet Solution</text></g><!--entity wallet_instance--><g id="elem_wallet_instance"><rect fill="#FFFF00" height="46.2969" rx="2.5" ry="2.5" style="stroke:#181818;stroke-width:0.5;" width="151" x="369.5" y="173.5"/><rect fill="#FFFF00" height="10" style="stroke:#181818;stroke-width:0.5;" width="15" x="500.5" y="178.5"/><rect fill="#FFFF00" height="2" style="stroke:#181818;stroke-width:0.5;" width="4" x="498.5" y="180.5"/><rect fill="#FFFF00" height="2" style="stroke:#181818;stroke-width:0.5;" width="4" x="498.5" y="184.5"/><text fill="#000000" font-family="sans-serif" font-size="14" lengthAdjust="spacing" textLength="111" x="384.5" y="206.4951">Wallet Instance</text></g><!--entity wallet_backend--><g id="elem_wallet_backend"><rect fill="#F1F1F1" height="46.2969" rx="2.5" ry="2.5" style="stroke:#181818;stroke-width:0.5;" width="152" x="7" y="173.5"/><rect fill="#F1F1F1" height="10" style="stroke:#181818;stroke-width:0.5;" width="15" x="139" y="178.5"/><rect fill="#F1F1F1" height="2" style="stroke:#181818;stroke-width:0.5;" width="4" x="137" y="180.5"/><rect fill="#F1F1F1" height="2" style="stroke:#181818;stroke-width:0.5;" width="4" x="137" y="184.5"/><text fill="#000000" font-family="sans-serif" font-size="14" lengthAdjust="spacing" textLength="112" x="22" y="206.4951">Wallet Backend</text></g><!--entity integrity_api--><g id="elem_integrity_api"><rect fill="#FF0000" height="46.2969" rx="2.5" ry="2.5" style="stroke:#181818;stroke-width:0.5;" width="213" x="581.5" y="173.5"/><rect fill="#FF0000" height="10" style="stroke:#181818;stroke-width:0.5;" width="15" x="774.5" y="178.5"/><rect fill="#FF0000" height="2" style="stroke:#181818;stroke-width:0.5;" width="4" x="772.5" y="180.5"/><rect fill="#FF0000" height="2" style="stroke:#181818;stroke-width:0.5;" width="4" x="772.5" y="184.5"/><text fill="#000000" font-family="sans-serif" font-size="14" lengthAdjust="spacing" textLength="173" x="596.5" y="206.4951">Device Integrity Service</text></g><!--link wallet_instance to integrity_api--><g id="link_wallet_instance_integrity_api"><path d="M520.555,196.5 C539.781,196.5 554.808,196.5 575.267,196.5 " fill="none" id="wallet_instance-to-integrity_api" style="stroke:#181818;stroke-width:1.0;"/><polygon fill="#181818" points="581.267,196.5,572.267,192.5,576.267,196.5,572.267,200.5,581.267,196.5" style="stroke:#181818;stroke-width:1.0;"/><text fill="#000000" font-family="sans-serif" font-size="13" lengthAdjust="spacing" textLength="24" x="539" y="189.5669">Use</text></g><!--link wallet_backend to integrity_api--><g id="link_wallet_backend_integrity_api"><path d="M127.82,173.403 C164.637,155.798 218.725,133.013 269,123.5 C398.142,99.065 544.6317,141.8366 625.3437,171.4286 " fill="none" id="wallet_backend-to-integrity_api" style="stroke:#181818;stroke-width:1.0;"/><polygon fill="#181818" points="630.977,173.494,623.904,166.6404,626.2826,171.7728,621.1501,174.1515,630.977,173.494" style="stroke:#181818;stroke-width:1.0;"/><text fill="#000000" font-family="sans-serif" font-size="13" lengthAdjust="spacing" textLength="24" x="270" y="124.5669">Use</text></g><!--link wallet_backend to wallet_solution--><g id="link_wallet_backend_wallet_solution"><path d="M141.564,219.502 C208.899,244.799 313.1773,283.9754 380.6033,309.3068 " fill="none" id="wallet_backend-to-wallet_solution" style="stroke:#181818;stroke-width:1.0;"/><polygon fill="#181818" points="386.22,311.4169,379.2017,304.5072,381.5394,309.6584,376.3882,311.9961,386.22,311.4169" style="stroke:#181818;stroke-width:1.0;"/><text fill="#000000" font-family="sans-serif" font-size="13" lengthAdjust="spacing" textLength="57" x="298" y="277.5669">Is part of</text></g><!--link wallet_backend to wallet_instance--><g id="link_wallet_backend_wallet_instance"><path d="M159.329,196.5 C221.144,196.5 301.777,196.5 363.397,196.5 " fill="none" id="wallet_backend-to-wallet_instance" style="stroke:#181818;stroke-width:1.0;"/><polygon fill="#181818" points="369.397,196.5,360.397,192.5,364.397,196.5,360.397,200.5,369.397,196.5" style="stroke:#181818;stroke-width:1.0;"/><text fill="#000000" font-family="sans-serif" font-size="13" lengthAdjust="spacing" textLength="174" x="177.25" y="189.5669">Provides Wallet Attestation</text></g><!--link user to wallet_instance--><g id="link_user_wallet_instance"><path d="M445,81.826 C445,110.472 445,143.067 445,167.108 " fill="none" id="user-to-wallet_instance" style="stroke:#181818;stroke-width:1.0;"/><polygon fill="#181818" points="445,173.108,449,164.108,445,168.108,441,164.108,445,173.108" style="stroke:#181818;stroke-width:1.0;"/><text fill="#000000" font-family="sans-serif" font-size="13" lengthAdjust="spacing" textLength="108" x="446" y="124.5669">control / activate</text></g><!--link wallet_instance to wallet_solution--><g id="link_wallet_instance_wallet_solution"><path d="M445,219.653 C445,244.943 445,280.07 445,305.356 " fill="none" id="wallet_instance-to-wallet_solution" style="stroke:#181818;stroke-width:1.0;"/><polygon fill="#181818" points="445,311.356,449,302.356,445,306.356,441,302.356,445,311.356" style="stroke:#181818;stroke-width:1.0;"/><text fill="#000000" font-family="sans-serif" font-size="13" lengthAdjust="spacing" textLength="105" x="446" y="277.5669">Is an instance of</text></g><!--link wallet_provider to wallet_solution--><g id="link_wallet_provider_wallet_solution"><path d="M829.737,226.99 C823.824,229.698 817.837,232.261 812,234.5 C713.416,272.3177 600.5619,300.2417 525.3899,316.8367 " fill="none" id="wallet_provider-to-wallet_solution" style="stroke:#181818;stroke-width:1.0;"/><polygon fill="#181818" points="519.531,318.1301,529.1817,320.0959,524.4134,317.0523,527.4571,312.284,519.531,318.1301" style="stroke:#181818;stroke-width:1.0;"/><text fill="#000000" font-family="sans-serif" font-size="13" lengthAdjust="spacing" textLength="48" x="724" y="277.5669">Provide</text></g><!--link oem to integrity_api--><g id="link_oem_integrity_api"><path d="M688,81.826 C688,110.472 688,143.067 688,167.108 " fill="none" id="oem-to-integrity_api" style="stroke:#181818;stroke-width:1.0;"/><polygon fill="#181818" points="688,173.108,692,164.108,688,168.108,684,164.108,688,173.108" style="stroke:#181818;stroke-width:1.0;"/><text fill="#000000" font-family="sans-serif" font-size="13" lengthAdjust="spacing" textLength="48" x="689" y="124.5669">Provide</text></g><!--SRC=[XP8nJyCm48Lt_ugdPexOCo0LmP01WLGXnieuHx5mVP5zJTL_toHrGaXJsApFxvsVxquRuO3LMwImWeuuj0SeVQ7lsZaIl0PkR9K4nvvjwyH6xICrrX1Udfvx6TCUIXdUr-p9orXhm-uWblsqLamCMMEv1GksqaVHtj3KPXD3TYBd-BXWUz3cctmrTNrS4ARgbBtqGhjWvOGDXOxqFZlGhQuja0Mgb9f7o8FTVKb-_rjTeEshcZtyb_IcTjQf0cL4hOE0F__p31cBOOuHgJjh4Mhlke9AgNxo-PBFi9V03dTePsqRBNJz_niPjSUe-OawBi-YBSLKtGhbrtrArsS0]--></g></svg>