<?xml version="1.0" encoding="us-ascii" standalone="no"?><svg xmlns="http://www.w3.org/2000/svg" xmlns:xlink="http://www.w3.org/1999/xlink" contentStyleType="text/css" height="639px" preserveAspectRatio="none" style="width:437px;height:639px;background:#FFFFFF;" version="1.1" viewBox="0 0 437 639" width="437px" zoomAndPan="magnify"><defs/><g><ellipse cx="293" cy="16" fill="#222222" rx="10" ry="10" style="stroke:#222222;stroke-width:1.0;"/><g id="Installed"><rect fill="#F1F1F1" height="50" rx="12.5" ry="12.5" style="stroke:#181818;stroke-width:0.5;" width="77" x="254.5" y="103"/><line style="stroke:#181818;stroke-width:0.5;" x1="254.5" x2="331.5" y1="129.2969" y2="129.2969"/><text fill="#000000" font-family="sans-serif" font-size="14" lengthAdjust="spacing" textLength="57" x="264.5" y="120.9951">Installed</text></g><g id="Operational"><rect fill="#F1F1F1" height="50" rx="12.5" ry="12.5" style="stroke:#181818;stroke-width:0.5;" width="99" x="162.5" y="230"/><line style="stroke:#181818;stroke-width:0.5;" x1="162.5" x2="261.5" y1="256.2969" y2="256.2969"/><text fill="#000000" font-family="sans-serif" font-size="14" lengthAdjust="spacing" textLength="79" x="172.5" y="247.9951">Operational</text></g><g id="Valid"><rect fill="#F1F1F1" height="50" rx="12.5" ry="12.5" style="stroke:#181818;stroke-width:0.5;" width="52" x="142" y="357"/><line style="stroke:#181818;stroke-width:0.5;" x1="142" x2="194" y1="383.2969" y2="383.2969"/><text fill="#000000" font-family="sans-serif" font-size="14" lengthAdjust="spacing" textLength="32" x="152" y="374.9951">Valid</text></g><g id="Deactivated"><rect fill="#F1F1F1" height="50" rx="12.5" ry="12.5" style="stroke:#181818;stroke-width:0.5;" width="102" x="7" y="484"/><line style="stroke:#181818;stroke-width:0.5;" x1="7" x2="109" y1="510.2969" y2="510.2969"/><text fill="#000000" font-family="sans-serif" font-size="14" lengthAdjust="spacing" textLength="82" x="17" y="501.9951">Deactivated</text></g><ellipse cx="233" cy="622" fill="none" rx="11" ry="11" style="stroke:#222222;stroke-width:1.0;"/><ellipse cx="233" cy="622" fill="#222222" rx="6" ry="6" style="stroke:#222222;stroke-width:1.0;"/><!--link *start* to Installed--><g id="link_*start*_Installed"><path d="M293,26.38 C293,43.11 293,72.59 293,96.63 " fill="none" id="*start*-to-Installed" style="stroke:#181818;stroke-width:1.0;"/><polygon fill="#181818" points="293,102.63,297,93.63,293,97.63,289,93.63,293,102.63" style="stroke:#181818;stroke-width:1.0;"/><text fill="#000000" font-family="sans-serif" font-size="13" lengthAdjust="spacing" textLength="37" x="294" y="69.0669">install</text></g><!--link Installed to Operational--><g id="link_Installed_Operational"><path d="M277.19,153.4 C262.92,175.42 245.2935,202.6252 231.0335,224.6252 " fill="none" id="Installed-to-Operational" style="stroke:#181818;stroke-width:1.0;"/><polygon fill="#181818" points="227.77,229.66,236.0218,224.2834,230.4896,225.4643,229.3087,219.9321,227.77,229.66" style="stroke:#181818;stroke-width:1.0;"/><text fill="#000000" font-family="sans-serif" font-size="13" lengthAdjust="spacing" textLength="34" x="258" y="196.0669">verify</text></g><!--link Operational to Valid--><g id="link_Operational_Valid"><path d="M203.41,280.4 C195.66,302.42 186.3013,329.0001 178.5613,351.0001 " fill="none" id="Operational-to-Valid" style="stroke:#181818;stroke-width:1.0;"/><polygon fill="#181818" points="176.57,356.66,183.3302,349.4976,178.2294,351.9434,175.7836,346.8426,176.57,356.66" style="stroke:#181818;stroke-width:1.0;"/><text fill="#000000" font-family="sans-serif" font-size="13" lengthAdjust="spacing" textLength="50" x="193" y="323.0669">validate</text></g><!--link Valid to Operational--><g id="link_Valid_Operational"><path d="M141.58,363.89 C123.49,349.92 104.66,329.39 116,310 C126.18,292.59 138.8519,282.9065 156.6019,274.5465 " fill="none" id="Valid-to-Operational" style="stroke:#181818;stroke-width:1.0;"/><polygon fill="#181818" points="162.03,271.99,152.1835,272.2061,157.5066,274.1205,155.5922,279.4435,162.03,271.99" style="stroke:#181818;stroke-width:1.0;"/><text fill="#000000" font-family="sans-serif" font-size="13" lengthAdjust="spacing" textLength="61" x="117" y="323.0669">invalidate</text></g><!--link Operational to Deactivated--><g id="link_Operational_Deactivated"><path d="M162.11,273.05 C142.21,281.73 120.23,293.91 104,310 C56.76,356.84 53.8753,436.0563 55.7853,477.7363 " fill="none" id="Operational-to-Deactivated" style="stroke:#181818;stroke-width:1.0;"/><polygon fill="#181818" points="56.06,483.73,59.6438,474.5563,55.8311,478.7352,51.6522,474.9225,56.06,483.73" style="stroke:#181818;stroke-width:1.0;"/><text fill="#000000" font-family="sans-serif" font-size="13" lengthAdjust="spacing" textLength="43" x="74" y="386.5669">revoke</text></g><!--link Valid to Deactivated--><g id="link_Valid_Deactivated"><path d="M141.7,404.41 C130.75,413.88 118.23,425.47 108,437 C95.09,451.55 85.7922,464.4439 76.4722,478.6439 " fill="none" id="Valid-to-Deactivated" style="stroke:#181818;stroke-width:1.0;"/><polygon fill="#181818" points="73.18,483.66,81.4624,478.3307,75.9235,479.4799,74.7743,473.941,73.18,483.66" style="stroke:#181818;stroke-width:1.0;"/><text fill="#000000" font-family="sans-serif" font-size="13" lengthAdjust="spacing" textLength="43" x="109" y="450.0669">revoke</text></g><!--link Installed to *end*--><g id="link_Installed_*end*"><path d="M321.22,153.23 C344.94,176.43 375,213.77 375,254 C375,254 375,254 375,510 C375,576.65 282.4858,607.6412 249.4558,616.7112 " fill="none" id="Installed-to-*end*" style="stroke:#181818;stroke-width:1.0;"/><polygon fill="#181818" points="243.67,618.3,253.4079,619.774,248.4915,616.976,251.2896,612.0596,243.67,618.3" style="stroke:#181818;stroke-width:1.0;"/><text fill="#000000" font-family="sans-serif" font-size="13" lengthAdjust="spacing" textLength="53" x="376" y="386.5669">uninstall</text></g><!--link Deactivated to *end*--><g id="link_Deactivated_*end*"><path d="M66.21,534.27 C72.6,549.72 82.95,569.01 98,581 C136.23,611.47 191.1345,618.3226 215.9445,620.0526 " fill="none" id="Deactivated-to-*end*" style="stroke:#181818;stroke-width:1.0;"/><polygon fill="#181818" points="221.93,620.47,213.23,615.8536,216.9421,620.1222,212.6736,623.8343,221.93,620.47" style="stroke:#181818;stroke-width:1.0;"/><text fill="#000000" font-family="sans-serif" font-size="13" lengthAdjust="spacing" textLength="53" x="99" y="577.0669">uninstall</text></g><!--link Operational to *end*--><g id="link_Operational_*end*"><path d="M234.56,280.34 C241.36,289.07 248.06,299.39 252,310 C286.76,403.47 282.48,435.82 265,534 C259.75,563.47 247.8525,590.6386 240.3025,606.2486 " fill="none" id="Operational-to-*end*" style="stroke:#181818;stroke-width:1.0;"/><polygon fill="#181818" points="237.69,611.65,245.2096,605.2896,239.8671,607.1488,238.0078,601.8063,237.69,611.65" style="stroke:#181818;stroke-width:1.0;"/><text fill="#000000" font-family="sans-serif" font-size="13" lengthAdjust="spacing" textLength="53" x="279" y="450.0669">uninstall</text></g><!--link Valid to *end*--><g id="link_Valid_*end*"><path d="M173.72,407.43 C180.82,437.38 193.54,489.63 206,534 C213.91,562.17 222.6246,589.3574 227.8846,605.4374 " fill="none" id="Valid-to-*end*" style="stroke:#181818;stroke-width:1.0;"/><polygon fill="#181818" points="229.75,611.14,230.7536,601.3424,228.1955,606.3878,223.1501,603.8296,229.75,611.14" style="stroke:#181818;stroke-width:1.0;"/><text fill="#000000" font-family="sans-serif" font-size="13" lengthAdjust="spacing" textLength="53" x="207" y="513.5669">uninstall</text></g><!--SRC=[YzQALT3LjLFmp2ikISp9IKsnKiY4CBaKW00k35RaNv1Qb5YIcP-Nc6EbK9PQb9bM2LQ590vM5vQOamaqg0n49PQaObNZafgON99P1fG6gYnABSlFXgW3wyMqBJCFnJI4AbpceBeyMYlMIg4q3zbhI1fnAK5tCnOb28UWIW80]--></g></svg>