<?xml version="1.0" encoding="us-ascii" standalone="no"?><svg xmlns="http://www.w3.org/2000/svg" xmlns:xlink="http://www.w3.org/1999/xlink" contentStyleType="text/css" height="664px" preserveAspectRatio="none" style="width:1179px;height:664px;background:#FFFFFF;" version="1.1" viewBox="0 0 1179 664" width="1179px" zoomAndPan="magnify"><defs/><g><line style="stroke:#181818;stroke-width:0.5;stroke-dasharray:5.0,5.0;" x1="27.5" x2="27.5" y1="36.2969" y2="628.6875"/><line style="stroke:#181818;stroke-width:0.5;stroke-dasharray:5.0,5.0;" x1="276.5" x2="276.5" y1="36.2969" y2="628.6875"/><line style="stroke:#181818;stroke-width:0.5;stroke-dasharray:5.0,5.0;" x1="741.5" x2="741.5" y1="36.2969" y2="628.6875"/><rect fill="#FFFFFF" height="247.9297" style="stroke:#181818;stroke-width:1.0;" width="10" x="736.5" y="331.4922"/><line style="stroke:#181818;stroke-width:0.5;stroke-dasharray:5.0,5.0;" x1="1080.5" x2="1080.5" y1="36.2969" y2="628.6875"/><rect fill="#E2E2F0" height="30.2969" rx="2.5" ry="2.5" style="stroke:#181818;stroke-width:0.5;" width="45" x="5" y="5"/><text fill="#000000" font-family="sans-serif" font-size="14" lengthAdjust="spacing" textLength="31" x="12" y="24.9951">User</text><rect fill="#E2E2F0" height="30.2969" rx="2.5" ry="2.5" style="stroke:#181818;stroke-width:0.5;" width="125" x="214" y="5"/><text fill="#000000" font-family="sans-serif" font-size="14" lengthAdjust="spacing" textLength="111" x="221" y="24.9951">Wallet Instance</text><rect fill="#E2E2F0" height="30.2969" rx="2.5" ry="2.5" style="stroke:#181818;stroke-width:0.5;" width="124" x="679.5" y="5"/><text fill="#000000" font-family="sans-serif" font-size="14" lengthAdjust="spacing" textLength="110" x="686.5" y="24.9951">Wallet Provider</text><rect fill="#E2E2F0" height="30.2969" rx="2.5" ry="2.5" style="stroke:#181818;stroke-width:0.5;" width="185" x="988" y="5"/><text fill="#000000" font-family="sans-serif" font-size="14" lengthAdjust="spacing" textLength="171" x="995" y="24.9951">App attestation service</text><rect fill="#E2E2F0" height="30.2969" rx="2.5" ry="2.5" style="stroke:#181818;stroke-width:0.5;" width="45" x="5" y="628.6875"/><text fill="#000000" font-family="sans-serif" font-size="14" lengthAdjust="spacing" textLength="31" x="12" y="648.6826">User</text><rect fill="#E2E2F0" height="30.2969" rx="2.5" ry="2.5" style="stroke:#181818;stroke-width:0.5;" width="125" x="214" y="628.6875"/><text fill="#000000" font-family="sans-serif" font-size="14" lengthAdjust="spacing" textLength="111" x="221" y="648.6826">Wallet Instance</text><rect fill="#E2E2F0" height="30.2969" rx="2.5" ry="2.5" style="stroke:#181818;stroke-width:0.5;" width="124" x="679.5" y="628.6875"/><text fill="#000000" font-family="sans-serif" font-size="14" lengthAdjust="spacing" textLength="110" x="686.5" y="648.6826">Wallet Provider</text><rect fill="#E2E2F0" height="30.2969" rx="2.5" ry="2.5" style="stroke:#181818;stroke-width:0.5;" width="185" x="988" y="628.6875"/><text fill="#000000" font-family="sans-serif" font-size="14" lengthAdjust="spacing" textLength="171" x="995" y="648.6826">App attestation service</text><polygon fill="#181818" points="264.5,76.5625,274.5,80.5625,264.5,84.5625,268.5,80.5625" style="stroke:#181818;stroke-width:1.0;"/><line style="stroke:#181818;stroke-width:1.0;" x1="27.5" x2="270.5" y1="80.5625" y2="80.5625"/><text fill="#000000" font-family="sans-serif" font-size="13" font-weight="bold" lengthAdjust="spacing" textLength="9" x="34.5" y="67.9302">1</text><text fill="#000000" font-family="sans-serif" font-size="13" lengthAdjust="spacing" textLength="153" x="47.5" y="60.3638">Initialize Wallet Instance</text><text fill="#000000" font-family="sans-serif" font-size="13" lengthAdjust="spacing" textLength="193" x="47.5" y="75.4966">or request/present credentials</text><polygon fill="#181818" points="729.5,105.6953,739.5,109.6953,729.5,113.6953,733.5,109.6953" style="stroke:#181818;stroke-width:1.0;"/><line style="stroke:#181818;stroke-width:1.0;" x1="276.5" x2="735.5" y1="109.6953" y2="109.6953"/><text fill="#000000" font-family="sans-serif" font-size="13" font-weight="bold" lengthAdjust="spacing" textLength="9" x="283.5" y="104.6294">2</text><text fill="#000000" font-family="sans-serif" font-size="13" lengthAdjust="spacing" textLength="191" x="296.5" y="104.6294">Get Wallet Provider metadata</text><polygon fill="#181818" points="287.5,134.8281,277.5,138.8281,287.5,142.8281,283.5,138.8281" style="stroke:#181818;stroke-width:1.0;"/><line style="stroke:#181818;stroke-width:1.0;stroke-dasharray:2.0,2.0;" x1="281.5" x2="740.5" y1="138.8281" y2="138.8281"/><text fill="#000000" font-family="sans-serif" font-size="13" font-weight="bold" lengthAdjust="spacing" textLength="8" x="293.5" y="133.7622">3</text><text fill="#000000" font-family="sans-serif" font-size="13" lengthAdjust="spacing" textLength="429" x="305.5" y="133.7622">Metadata containing credential types, key requirements, endpoints</text><line style="stroke:#181818;stroke-width:1.0;" x1="276.5" x2="318.5" y1="167.9609" y2="167.9609"/><line style="stroke:#181818;stroke-width:1.0;" x1="318.5" x2="318.5" y1="167.9609" y2="180.9609"/><line style="stroke:#181818;stroke-width:1.0;" x1="277.5" x2="318.5" y1="180.9609" y2="180.9609"/><polygon fill="#181818" points="287.5,176.9609,277.5,180.9609,287.5,184.9609,283.5,180.9609" style="stroke:#181818;stroke-width:1.0;"/><text fill="#000000" font-family="sans-serif" font-size="13" font-weight="bold" lengthAdjust="spacing" textLength="9" x="283.5" y="162.895">4</text><text fill="#000000" font-family="sans-serif" font-size="13" lengthAdjust="spacing" textLength="187" x="296.5" y="162.895">Validate Wallet Provider trust</text><line style="stroke:#181818;stroke-width:1.0;" x1="276.5" x2="318.5" y1="210.0938" y2="210.0938"/><line style="stroke:#181818;stroke-width:1.0;" x1="318.5" x2="318.5" y1="210.0938" y2="223.0938"/><line style="stroke:#181818;stroke-width:1.0;" x1="277.5" x2="318.5" y1="223.0938" y2="223.0938"/><polygon fill="#181818" points="287.5,219.0938,277.5,223.0938,287.5,227.0938,283.5,223.0938" style="stroke:#181818;stroke-width:1.0;"/><text fill="#000000" font-family="sans-serif" font-size="13" font-weight="bold" lengthAdjust="spacing" textLength="9" x="283.5" y="205.0278">5</text><text fill="#000000" font-family="sans-serif" font-size="13" lengthAdjust="spacing" textLength="122" x="296.5" y="205.0278">Generate key pairs</text><polygon fill="#181818" points="1068.5,248.2266,1078.5,252.2266,1068.5,256.2266,1072.5,252.2266" style="stroke:#181818;stroke-width:1.0;"/><line style="stroke:#181818;stroke-width:1.0;" x1="276.5" x2="1074.5" y1="252.2266" y2="252.2266"/><text fill="#000000" font-family="sans-serif" font-size="13" font-weight="bold" lengthAdjust="spacing" textLength="9" x="283.5" y="247.1606">6</text><text fill="#000000" font-family="sans-serif" font-size="13" lengthAdjust="spacing" textLength="96" x="296.5" y="247.1606">Request nonce</text><polygon fill="#181818" points="287.5,277.3594,277.5,281.3594,287.5,285.3594,283.5,281.3594" style="stroke:#181818;stroke-width:1.0;"/><line style="stroke:#181818;stroke-width:1.0;stroke-dasharray:2.0,2.0;" x1="281.5" x2="1079.5" y1="281.3594" y2="281.3594"/><text fill="#000000" font-family="sans-serif" font-size="13" font-weight="bold" lengthAdjust="spacing" textLength="9" x="293.5" y="276.2935">7</text><text fill="#000000" font-family="sans-serif" font-size="13" lengthAdjust="spacing" textLength="39" x="306.5" y="276.2935">nonce</text><line style="stroke:#181818;stroke-width:1.0;" x1="276.5" x2="318.5" y1="310.4922" y2="310.4922"/><line style="stroke:#181818;stroke-width:1.0;" x1="318.5" x2="318.5" y1="310.4922" y2="323.4922"/><line style="stroke:#181818;stroke-width:1.0;" x1="277.5" x2="318.5" y1="323.4922" y2="323.4922"/><polygon fill="#181818" points="287.5,319.4922,277.5,323.4922,287.5,327.4922,283.5,323.4922" style="stroke:#181818;stroke-width:1.0;"/><text fill="#000000" font-family="sans-serif" font-size="13" font-weight="bold" lengthAdjust="spacing" textLength="9" x="283.5" y="305.4263">8</text><text fill="#000000" font-family="sans-serif" font-size="13" lengthAdjust="spacing" textLength="306" x="296.5" y="305.4263">Create Wallet Instance Attestation Request JWT</text><polygon fill="#181818" points="724.5,348.625,734.5,352.625,724.5,356.625,728.5,352.625" style="stroke:#181818;stroke-width:1.0;"/><line style="stroke:#181818;stroke-width:1.0;" x1="276.5" x2="730.5" y1="352.625" y2="352.625"/><text fill="#000000" font-family="sans-serif" font-size="13" font-weight="bold" lengthAdjust="spacing" textLength="9" x="283.5" y="347.5591">9</text><text fill="#000000" font-family="sans-serif" font-size="13" lengthAdjust="spacing" textLength="341" x="296.5" y="347.5591">Get attestation (Wallet Instance Attestation Request)</text><polygon fill="#181818" points="1068.5,377.7578,1078.5,381.7578,1068.5,385.7578,1072.5,381.7578" style="stroke:#181818;stroke-width:1.0;"/><line style="stroke:#181818;stroke-width:1.0;" x1="746.5" x2="1074.5" y1="381.7578" y2="381.7578"/><text fill="#000000" font-family="sans-serif" font-size="13" font-weight="bold" lengthAdjust="spacing" textLength="19" x="753.5" y="376.6919">10</text><text fill="#000000" font-family="sans-serif" font-size="13" lengthAdjust="spacing" textLength="292" x="776.5" y="376.6919">Validate Wallet Instance genuineness (nonce)</text><polygon fill="#181818" points="757.5,406.8906,747.5,410.8906,757.5,414.8906,753.5,410.8906" style="stroke:#181818;stroke-width:1.0;"/><line style="stroke:#181818;stroke-width:1.0;stroke-dasharray:2.0,2.0;" x1="751.5" x2="1079.5" y1="410.8906" y2="410.8906"/><text fill="#000000" font-family="sans-serif" font-size="13" font-weight="bold" lengthAdjust="spacing" textLength="18" x="763.5" y="405.8247">11</text><text fill="#000000" font-family="sans-serif" font-size="13" lengthAdjust="spacing" textLength="134" x="785.5" y="405.8247">Integrity check result</text><line style="stroke:#181818;stroke-width:1.0;" x1="746.5" x2="788.5" y1="440.0234" y2="440.0234"/><line style="stroke:#181818;stroke-width:1.0;" x1="788.5" x2="788.5" y1="440.0234" y2="453.0234"/><line style="stroke:#181818;stroke-width:1.0;" x1="747.5" x2="788.5" y1="453.0234" y2="453.0234"/><polygon fill="#181818" points="757.5,449.0234,747.5,453.0234,757.5,457.0234,753.5,453.0234" style="stroke:#181818;stroke-width:1.0;"/><text fill="#000000" font-family="sans-serif" font-size="13" font-weight="bold" lengthAdjust="spacing" textLength="18" x="753.5" y="434.9575">12</text><text fill="#000000" font-family="sans-serif" font-size="13" lengthAdjust="spacing" textLength="116" x="775.5" y="434.9575">Validate signature</text><line style="stroke:#181818;stroke-width:1.0;" x1="746.5" x2="788.5" y1="482.1563" y2="482.1563"/><line style="stroke:#181818;stroke-width:1.0;" x1="788.5" x2="788.5" y1="482.1563" y2="495.1563"/><line style="stroke:#181818;stroke-width:1.0;" x1="747.5" x2="788.5" y1="495.1563" y2="495.1563"/><polygon fill="#181818" points="757.5,491.1563,747.5,495.1563,757.5,499.1563,753.5,495.1563" style="stroke:#181818;stroke-width:1.0;"/><text fill="#000000" font-family="sans-serif" font-size="13" font-weight="bold" lengthAdjust="spacing" textLength="17" x="753.5" y="477.0903">13</text><text fill="#000000" font-family="sans-serif" font-size="13" lengthAdjust="spacing" textLength="295" x="774.5" y="477.0903">Generate and sign Wallet Instance Attestation</text><polygon fill="#181818" points="287.5,520.2891,277.5,524.2891,287.5,528.2891,283.5,524.2891" style="stroke:#181818;stroke-width:1.0;"/><line style="stroke:#181818;stroke-width:1.0;stroke-dasharray:2.0,2.0;" x1="281.5" x2="735.5" y1="524.2891" y2="524.2891"/><text fill="#000000" font-family="sans-serif" font-size="13" font-weight="bold" lengthAdjust="spacing" textLength="18" x="293.5" y="519.2231">14</text><text fill="#000000" font-family="sans-serif" font-size="13" lengthAdjust="spacing" textLength="173" x="315.5" y="519.2231">Wallet Instance Attestation</text><line style="stroke:#181818;stroke-width:1.0;" x1="276.5" x2="318.5" y1="553.4219" y2="553.4219"/><line style="stroke:#181818;stroke-width:1.0;" x1="318.5" x2="318.5" y1="553.4219" y2="566.4219"/><line style="stroke:#181818;stroke-width:1.0;" x1="277.5" x2="318.5" y1="566.4219" y2="566.4219"/><polygon fill="#181818" points="287.5,562.4219,277.5,566.4219,287.5,570.4219,283.5,566.4219" style="stroke:#181818;stroke-width:1.0;"/><text fill="#000000" font-family="sans-serif" font-size="13" font-weight="bold" lengthAdjust="spacing" textLength="18" x="283.5" y="548.356">15</text><text fill="#000000" font-family="sans-serif" font-size="13" lengthAdjust="spacing" textLength="229" x="305.5" y="548.356">Validate Wallet Instance Attestation</text><polygon fill="#181818" points="38.5,606.6875,28.5,610.6875,38.5,614.6875,34.5,610.6875" style="stroke:#181818;stroke-width:1.0;"/><line style="stroke:#181818;stroke-width:1.0;stroke-dasharray:2.0,2.0;" x1="32.5" x2="275.5" y1="610.6875" y2="610.6875"/><text fill="#000000" font-family="sans-serif" font-size="13" font-weight="bold" lengthAdjust="spacing" textLength="18" x="44.5" y="598.0552">16</text><text fill="#000000" font-family="sans-serif" font-size="13" lengthAdjust="spacing" textLength="161" x="66.5" y="590.4888">Wallet Instance initialized</text><text fill="#000000" font-family="sans-serif" font-size="13" lengthAdjust="spacing" textLength="203" x="66.5" y="605.6216">ready to obtain new credentials</text><!--SRC=[ZLBBJiD03BplLnXEHIBYtaCbn061X8GGq0iN9x62rTQxx7eRbQ_7ITCGoaES4jdZ6SzuJqB4PeEWvDz1OoQ7MRtaJKdHkO1HkUA0ed3wb2YU0YR8N-jBNAz9uKQIebJKGrh-4NCV_PRhWQOjls8kGm1K9QDHzW8cj-M1p-hEPIWMnZmtALR6DRyJ78c_Y8yGwIqRoqM8bCYOgqYrVMqYkPQBHLlEuTg6ZfQ23IdMgEZQiZ2K2TqD5QYyABAmD1Csq5sWT0uhslMQ76bZ7QkGrC6p_UxrZEdPrZKc-YPgcISrsC7RDGd53jYn1kIOXgP5C8U7lJKGRsQTbQ0OvlQLKUygqaJj40zSJl8zSDqk7nrMojjkm8uoZMXwZza_oCwwx1RzgiUEnx669BEOpPHWrgzzrZafzgetejH4rXrKhrIjBDYKrzhJTksHDN4Zg3dIs1gJGwdxzb_kFs_y9-YNw_q8hkaenMAHlzFp-7Rh5x4ZrJjG3xxidXS8jTFN-W40]--></g></svg>