<?xml version="1.0" encoding="utf-8"?>
<!-- Generator: Adobe Illustrator 22.1.0, SVG Export Plug-In . SVG Version: 6.00 Build 0)  -->
<svg version="1.1" id="Livello_1" xmlns="http://www.w3.org/2000/svg" xmlns:xlink="http://www.w3.org/1999/xlink" x="0px" y="0px"
	 viewBox="0 0 48 12" style="enable-background:new 0 0 48 12;" xml:space="preserve">
<style type="text/css">
	.st0{fill:#004080;}
</style>
<g id="_x2013_-Documento">
	<g id="docs_article_nav_1-cap_02" transform="translate(-585.000000, -9105.000000)">
		<g id="Group-32" transform="translate(520.000000, 9105.000000)">
			<g id="Group-24" transform="translate(40.000000, 0.000000)">
				<g id="Group-31" transform="translate(24.268396, 0.000000)">
					<path id="Fill-1" class="st0" d="M12.2,5C12,5,11.9,5,11.8,5.1c-0.1,0.1-0.1,0.2-0.1,0.4V6c0,0.7-0.1,1.3-0.4,1.9
						c-0.3,0.6-0.6,1.1-1,1.6c-0.4,0.4-1,0.8-1.6,1c-0.6,0.3-1.2,0.4-1.9,0.4l0,0l0,0c-0.7,0-1.3-0.1-1.9-0.4
						c-0.6-0.3-1.1-0.6-1.6-1c-0.4-0.4-0.8-1-1-1.6C1.9,7.3,1.8,6.7,1.8,6s0.1-1.3,0.4-1.9c0.3-0.6,0.6-1.1,1-1.6
						c0.4-0.4,1-0.8,1.6-1C5.4,1.2,6,1.1,6.7,1.1l0,0l0,0c0.4,0,0.7,0,1,0.1c0.3,0.1,0.7,0.2,1,0.3c0.1,0.1,0.3,0.1,0.4,0
						c0.1-0.1,0.2-0.1,0.3-0.3c0.1-0.1,0.1-0.3,0-0.4C9.4,0.7,9.3,0.6,9.2,0.5C8.8,0.4,8.4,0.2,8,0.1C7.6,0,7.2,0,6.7,0l0,0l0,0
						C5.9,0,5.1,0.2,4.4,0.5C3.7,0.8,3,1.2,2.5,1.8s-1,1.2-1.3,1.9C0.9,4.4,0.7,5.2,0.7,6c0,0.8,0.2,1.6,0.5,2.3
						c0.3,0.7,0.7,1.4,1.3,1.9s1.2,1,1.9,1.3C5.1,11.8,5.9,12,6.7,12l0,0l0,0c0.8,0,1.6-0.2,2.3-0.5c0.7-0.3,1.4-0.7,1.9-1.3
						c0.5-0.5,1-1.2,1.3-1.9c0.3-0.7,0.5-1.5,0.5-2.3V5.5c0-0.2,0-0.3-0.1-0.4C12.5,5,12.3,5,12.2,5z M13.1,0.7
						c-0.1-0.1-0.2-0.2-0.4-0.2s-0.3,0.1-0.4,0.2L6.7,6.3L5.5,5.1C5.4,5,5.2,4.9,5.1,4.9C4.9,4.9,4.8,5,4.7,5.1
						C4.6,5.2,4.5,5.3,4.5,5.5s0.1,0.3,0.2,0.4l1.6,1.6c0.1,0.1,0.1,0.1,0.2,0.1c0.1,0,0.1,0,0.2,0c0.1,0,0.1,0,0.2,0
						C7,7.6,7,7.5,7.1,7.5l6-6c0.1-0.1,0.2-0.2,0.2-0.4S13.2,0.8,13.1,0.7z"/>
				</g>
			</g>
		</g>
	</g>
</g>
<g id="_x2013_-Documento_1_">
	<g id="docs_article_nav_1-cap_02_1_" transform="translate(-585.000000, -9105.000000)">
		<g id="Group-32_1_" transform="translate(520.000000, 9105.000000)">
			<g id="Group-24_1_" transform="translate(40.000000, 0.000000)">
				<g id="Group-31_1_" transform="translate(24.268396, 0.000000)">
					<path id="Fill-1_1_" class="st0" d="M29.9,5c-0.2,0-0.3,0.1-0.4,0.2c-0.1,0.1-0.1,0.2-0.1,0.4V6c0,0.7-0.1,1.3-0.4,1.9
						c-0.3,0.6-0.6,1.1-1,1.6c-0.4,0.4-1,0.8-1.6,1c-0.6,0.3-1.2,0.4-1.9,0.4l0,0l0,0c-0.7,0-1.3-0.1-1.9-0.4
						c-0.6-0.3-1.1-0.6-1.6-1c-0.4-0.4-0.8-1-1-1.6S19.5,6.7,19.5,6s0.1-1.3,0.4-1.9s0.6-1.1,1-1.6c0.4-0.4,1-0.8,1.6-1
						s1.2-0.4,1.9-0.4l0,0l0,0c0.4,0,0.7,0,1,0.1c0.3,0.1,0.7,0.2,1,0.3c0.1,0.1,0.3,0.1,0.4,0c0.1-0.1,0.2-0.1,0.3-0.3
						c0.1-0.1,0.1-0.3,0-0.4c-0.1-0.1-0.1-0.2-0.3-0.3c-0.4-0.2-0.8-0.3-1.2-0.4S24.9,0,24.5,0l0,0l0,0c-0.8,0-1.6,0.2-2.3,0.5
						c-0.7,0.3-1.4,0.7-1.9,1.3c-0.5,0.5-1,1.2-1.3,1.9c-0.3,0.7-0.5,1.5-0.5,2.3c0,0.8,0.2,1.6,0.5,2.3c0.3,0.7,0.7,1.4,1.3,1.9
						c0.5,0.5,1.2,1,1.9,1.3c0.7,0.3,1.5,0.5,2.3,0.5l0,0l0,0c0.8,0,1.6-0.2,2.3-0.5c0.7-0.3,1.4-0.7,1.9-1.3s1-1.2,1.3-1.9
						c0.3-0.7,0.5-1.5,0.5-2.3V5.5c0-0.2,0-0.3-0.1-0.4C30.2,5,30.1,5,29.9,5z M30.8,0.7c-0.1-0.1-0.2-0.2-0.4-0.2
						c-0.1,0-0.3,0.1-0.4,0.2l-5.6,5.6l-1.3-1.3C23.1,5,23,4.9,22.8,4.9c-0.1,0-0.3,0.1-0.4,0.2c-0.1,0.1-0.2,0.2-0.2,0.4
						s0.1,0.3,0.2,0.4l1.6,1.6c0.1,0.1,0.1,0.1,0.2,0.1c0.1,0,0.1,0,0.2,0c0.1,0,0.1,0,0.2,0c0.1,0,0.1-0.1,0.2-0.1l6-6
						C30.9,1.4,31,1.2,31,1.1S30.9,0.8,30.8,0.7z"/>
				</g>
			</g>
		</g>
	</g>
</g>
<g id="_x2013_-Documento_2_">
	<g id="docs_article_nav_1-cap_02_2_" transform="translate(-585.000000, -9105.000000)">
		<g id="Group-32_2_" transform="translate(520.000000, 9105.000000)">
			<g id="Group-24_2_" transform="translate(40.000000, 0.000000)">
				<g id="Group-31_2_" transform="translate(24.268396, 0.000000)">
					<path id="Fill-1_2_" class="st0" d="M47.6,5c-0.2,0-0.3,0.1-0.4,0.2c-0.1,0.1-0.1,0.2-0.1,0.4V6c0,0.7-0.1,1.3-0.4,1.9
						s-0.6,1.1-1,1.6c-0.4,0.4-1,0.8-1.6,1c-0.6,0.3-1.2,0.4-1.9,0.4l0,0l0,0c-0.7,0-1.3-0.1-1.9-0.4c-0.6-0.3-1.1-0.6-1.6-1
						c-0.4-0.4-0.8-1-1-1.6S37.3,6.7,37.3,6s0.1-1.3,0.4-1.9s0.6-1.1,1-1.6c0.4-0.4,1-0.8,1.6-1s1.2-0.4,1.9-0.4l0,0l0,0
						c0.4,0,0.7,0,1,0.1c0.3,0.1,0.7,0.2,1,0.3c0.1,0.1,0.3,0.1,0.4,0c0.1-0.1,0.2-0.1,0.3-0.3C45,1.1,45,1,44.9,0.8
						c-0.1-0.1-0.1-0.2-0.3-0.3c-0.4-0.2-0.8-0.3-1.2-0.4C43,0,42.6,0,42.2,0l0,0l0,0c-0.8,0-1.6,0.2-2.3,0.5
						c-0.7,0.3-1.4,0.7-1.9,1.3s-1,1.2-1.3,1.9c-0.3,0.7-0.5,1.5-0.5,2.3c0,0.8,0.2,1.6,0.5,2.3c0.3,0.7,0.7,1.4,1.3,1.9
						s1.2,1,1.9,1.3c0.7,0.3,1.5,0.5,2.3,0.5l0,0l0,0c0.8,0,1.6-0.2,2.3-0.5c0.7-0.3,1.4-0.7,1.9-1.3s1-1.2,1.3-1.9
						C48,7.6,48.2,6.8,48.2,6V5.5c0-0.2,0-0.3-0.1-0.4C47.9,5,47.8,5,47.6,5z M48.6,0.7c-0.1-0.1-0.2-0.2-0.4-0.2s-0.3,0.1-0.4,0.2
						l-5.6,5.6l-1.3-1.3c-0.1-0.1-0.2-0.2-0.4-0.2c-0.1,0-0.3,0.1-0.4,0.2C40.1,5.2,40,5.3,40,5.5s0.1,0.3,0.2,0.4l1.6,1.6
						c0.1,0.1,0.1,0.1,0.2,0.1c0.1,0,0.1,0,0.2,0c0.1,0,0.1,0,0.2,0c0.1,0,0.1-0.1,0.2-0.1l6-6c0.1-0.1,0.2-0.2,0.2-0.4
						S48.7,0.8,48.6,0.7z"/>
				</g>
			</g>
		</g>
	</g>
</g>
</svg>
